%FSLAX45Y45*%
G04 Gerber Fmt 4.5, Leading zero omitted, Abs format (unit mm)*
G04 Created by KiCad (PCBNEW (5.1.6)-1) date 2022-02-26 01:22:01*
%MOMM*%
%LPD*%
G01*
G04 APERTURE LIST*
%TA.AperFunction,Profile*%
%ADD10C,0.150000*%
%TD*%
%TA.AperFunction,Profile*%
%ADD11C,0.200000*%
%TD*%
%ADD12C,0.200000*%
%ADD13C,0.300000*%
G04 APERTURE END LIST*
D10*
X17039000Y-6179000D02*
G75*
G03*
X17039000Y-6179000I-100000J0D01*
G01*
X17039000Y-4379000D02*
G75*
G03*
X17039000Y-4379000I-100000J0D01*
G01*
X23639000Y-6180000D02*
G75*
G03*
X23639000Y-6180000I-100000J0D01*
G01*
X23639000Y-4379000D02*
G75*
G03*
X23639000Y-4379000I-100000J0D01*
G01*
D11*
X24739000Y-12592000D02*
G75*
G02*
X24239000Y-13092000I-500000J0D01*
G01*
X22439000Y-8785613D02*
G75*
G02*
X22677108Y-8359806I500000J-119D01*
G01*
X18039000Y-8785732D02*
X18039000Y-10106214D01*
X24739000Y-6812600D02*
G75*
G02*
X24500891Y-7238407I-500000J119D01*
G01*
X15977108Y-7238407D02*
X17800891Y-8359806D01*
X24239000Y-4092000D02*
X16239000Y-4092000D01*
X15739000Y-11106214D02*
G75*
G02*
X16239000Y-10606214I500000J0D01*
G01*
X24239000Y-10606214D02*
G75*
G02*
X24739000Y-11106214I0J-500000D01*
G01*
X15739000Y-4592000D02*
X15739000Y-6812481D01*
X24739000Y-6812481D02*
X24739000Y-4592000D01*
X22939000Y-10606214D02*
G75*
G02*
X22439000Y-10106214I0J500000D01*
G01*
X15739000Y-4592000D02*
G75*
G02*
X16239000Y-4092000I500000J0D01*
G01*
X18039000Y-10106214D02*
G75*
G02*
X17539000Y-10606214I-500000J0D01*
G01*
X24239000Y-4092000D02*
G75*
G02*
X24739000Y-4592000I0J-500000D01*
G01*
X16239000Y-13092000D02*
G75*
G02*
X15739000Y-12592000I0J500000D01*
G01*
X15977007Y-7238345D02*
G75*
G02*
X15739000Y-6812481I261993J425864D01*
G01*
X17800993Y-8359869D02*
G75*
G02*
X18039000Y-8785732I-261993J-425864D01*
G01*
X17889000Y-12192000D02*
X22589000Y-12192000D01*
X22589000Y-13092000D02*
X24239000Y-13092000D01*
X15739000Y-11106214D02*
X15739000Y-12592000D01*
X22589000Y-12192000D02*
X22589000Y-13092000D01*
X24239000Y-10606214D02*
X22939000Y-10606214D01*
X24739000Y-12592000D02*
X24739000Y-11106214D01*
X22677108Y-8359806D02*
X24500891Y-7238407D01*
X17539000Y-10606214D02*
X16239000Y-10606214D01*
X16239000Y-13092000D02*
X17889000Y-13092000D01*
X22439000Y-10106214D02*
X22439000Y-8785732D01*
X17889000Y-13092000D02*
X17889000Y-12192000D01*
D12*
D13*
X16015428Y-13567714D02*
X16015428Y-13267714D01*
X16086857Y-13267714D01*
X16129714Y-13282000D01*
X16158286Y-13310571D01*
X16172571Y-13339143D01*
X16186857Y-13396286D01*
X16186857Y-13439143D01*
X16172571Y-13496286D01*
X16158286Y-13524857D01*
X16129714Y-13553429D01*
X16086857Y-13567714D01*
X16015428Y-13567714D01*
X16315428Y-13567714D02*
X16315428Y-13367714D01*
X16315428Y-13424857D02*
X16329714Y-13396286D01*
X16344000Y-13382000D01*
X16372571Y-13367714D01*
X16401143Y-13367714D01*
X16501143Y-13567714D02*
X16501143Y-13367714D01*
X16501143Y-13267714D02*
X16486857Y-13282000D01*
X16501143Y-13296286D01*
X16515428Y-13282000D01*
X16501143Y-13267714D01*
X16501143Y-13296286D01*
X16686857Y-13567714D02*
X16658286Y-13553429D01*
X16644000Y-13524857D01*
X16644000Y-13267714D01*
X16844000Y-13567714D02*
X16815428Y-13553429D01*
X16801143Y-13524857D01*
X16801143Y-13267714D01*
X17186857Y-13567714D02*
X17186857Y-13267714D01*
X17286857Y-13482000D01*
X17386857Y-13267714D01*
X17386857Y-13567714D01*
X17658286Y-13567714D02*
X17658286Y-13410571D01*
X17644000Y-13382000D01*
X17615428Y-13367714D01*
X17558286Y-13367714D01*
X17529714Y-13382000D01*
X17658286Y-13553429D02*
X17629714Y-13567714D01*
X17558286Y-13567714D01*
X17529714Y-13553429D01*
X17515428Y-13524857D01*
X17515428Y-13496286D01*
X17529714Y-13467714D01*
X17558286Y-13453429D01*
X17629714Y-13453429D01*
X17658286Y-13439143D01*
X17801143Y-13367714D02*
X17801143Y-13667714D01*
X17801143Y-13382000D02*
X17829714Y-13367714D01*
X17886857Y-13367714D01*
X17915428Y-13382000D01*
X17929714Y-13396286D01*
X17944000Y-13424857D01*
X17944000Y-13510571D01*
X17929714Y-13539143D01*
X17915428Y-13553429D01*
X17886857Y-13567714D01*
X17829714Y-13567714D01*
X17801143Y-13553429D01*
X18072571Y-13539143D02*
X18086857Y-13553429D01*
X18072571Y-13567714D01*
X18058286Y-13553429D01*
X18072571Y-13539143D01*
X18072571Y-13567714D01*
X18072571Y-13382000D02*
X18086857Y-13396286D01*
X18072571Y-13410571D01*
X18058286Y-13396286D01*
X18072571Y-13382000D01*
X18072571Y-13410571D01*
M02*
