%TF.GenerationSoftware,KiCad,Pcbnew,(5.1.6)-1*%
%TF.CreationDate,2022-02-26T01:19:58-08:00*%
%TF.ProjectId,seguilineas_actualizado,73656775-696c-4696-9e65-61735f616374,rev?*%
%TF.SameCoordinates,Original*%
%TF.FileFunction,Legend,Bot*%
%TF.FilePolarity,Positive*%
%FSLAX46Y46*%
G04 Gerber Fmt 4.6, Leading zero omitted, Abs format (unit mm)*
G04 Created by KiCad (PCBNEW (5.1.6)-1) date 2022-02-26 01:19:58*
%MOMM*%
%LPD*%
G01*
G04 APERTURE LIST*
%ADD10C,0.150000*%
%ADD11C,2.800000*%
%ADD12O,1.700000X1.700000*%
%ADD13R,1.700000X1.700000*%
%ADD14C,1.358000*%
%ADD15R,1.358000X1.358000*%
%ADD16C,1.560000*%
%ADD17R,1.560000X1.560000*%
%ADD18R,1.860000X1.860000*%
%ADD19C,1.860000*%
G04 APERTURE END LIST*
D10*
X247410000Y-47790000D02*
X220410000Y-47790000D01*
X220410000Y-47790000D02*
X220410000Y-57790000D01*
X220410000Y-57790000D02*
X247410000Y-57790000D01*
X184380000Y-47850000D02*
X157380000Y-47850000D01*
X184380000Y-57850000D02*
X184380000Y-47850000D01*
X157380000Y-57850000D02*
X184380000Y-57850000D01*
%TO.C,J4*%
X202683333Y-121562380D02*
X202683333Y-122276666D01*
X202730952Y-122419523D01*
X202826190Y-122514761D01*
X202969047Y-122562380D01*
X203064285Y-122562380D01*
X201778571Y-121895714D02*
X201778571Y-122562380D01*
X202016666Y-121514761D02*
X202254761Y-122229047D01*
X201635714Y-122229047D01*
%TD*%
%LPC*%
D11*
%TO.C,J4*%
X167465000Y-126990000D03*
X237315000Y-126990000D03*
%TD*%
D12*
%TO.C,J5*%
X215100000Y-111180000D03*
X212560000Y-111180000D03*
X210020000Y-111180000D03*
X207480000Y-111180000D03*
X204940000Y-111180000D03*
X202400000Y-111180000D03*
X199860000Y-111180000D03*
X197320000Y-111180000D03*
X194780000Y-111180000D03*
X192240000Y-111180000D03*
D13*
X189700000Y-111180000D03*
%TD*%
D12*
%TO.C,CN1*%
X186380000Y-79490000D03*
X188920000Y-79490000D03*
X191460000Y-79490000D03*
X194000000Y-79490000D03*
X196540000Y-79490000D03*
D13*
X199080000Y-79490000D03*
%TD*%
D14*
%TO.C,IC1*%
X218840000Y-74520000D03*
X216300000Y-74520000D03*
X213760000Y-74520000D03*
X211220000Y-74520000D03*
X208680000Y-74520000D03*
X206140000Y-74520000D03*
X203600000Y-74520000D03*
X201060000Y-74520000D03*
X198520000Y-74520000D03*
X195980000Y-74520000D03*
X193440000Y-74520000D03*
X190900000Y-74520000D03*
X188360000Y-74520000D03*
X185820000Y-74520000D03*
X185820000Y-66600000D03*
X188360000Y-66600000D03*
X190900000Y-66600000D03*
X193440000Y-66600000D03*
X195980000Y-66600000D03*
X198520000Y-66600000D03*
X208680000Y-66600000D03*
X206140000Y-66600000D03*
X211220000Y-66600000D03*
X213760000Y-66600000D03*
X201060000Y-66600000D03*
X203600000Y-66600000D03*
X216300000Y-66600000D03*
D15*
X218840000Y-66600000D03*
%TD*%
D12*
%TO.C,JP1*%
X179510000Y-72840000D03*
X176970000Y-72840000D03*
X179510000Y-70300000D03*
X176970000Y-70300000D03*
X179510000Y-67760000D03*
D13*
X176970000Y-67760000D03*
%TD*%
D16*
%TO.C,TB1*%
X211290000Y-57550000D03*
X208750000Y-57550000D03*
X206210000Y-57550000D03*
X203670000Y-57550000D03*
X201130000Y-57550000D03*
X198590000Y-57550000D03*
X196050000Y-57550000D03*
D17*
X193510000Y-57550000D03*
X193510000Y-44850000D03*
D16*
X196050000Y-44850000D03*
X198590000Y-44850000D03*
X201130000Y-44850000D03*
X203670000Y-44850000D03*
X206210000Y-44850000D03*
X208750000Y-44850000D03*
D17*
X211290000Y-44850000D03*
%TD*%
D13*
%TO.C,J3*%
X188090000Y-96180000D03*
D12*
X188090000Y-98720000D03*
%TD*%
D13*
%TO.C,J1*%
X218640000Y-50800000D03*
D12*
X218640000Y-53340000D03*
%TD*%
%TO.C,J2*%
X186160000Y-53380000D03*
D13*
X186160000Y-50840000D03*
%TD*%
D18*
%TO.C,U1*%
X189250000Y-91820000D03*
D19*
X191790000Y-91820000D03*
X194330000Y-91820000D03*
%TD*%
M02*
