G04 #@! TF.GenerationSoftware,KiCad,Pcbnew,(5.1.6)-1*
G04 #@! TF.CreationDate,2021-11-01T01:40:41-07:00*
G04 #@! TF.ProjectId,seguilineas,73656775-696c-4696-9e65-61732e6b6963,rev?*
G04 #@! TF.SameCoordinates,Original*
G04 #@! TF.FileFunction,Profile,NP*
%FSLAX46Y46*%
G04 Gerber Fmt 4.6, Leading zero omitted, Abs format (unit mm)*
G04 Created by KiCad (PCBNEW (5.1.6)-1) date 2021-11-01 01:40:41*
%MOMM*%
%LPD*%
G01*
G04 APERTURE LIST*
G04 #@! TA.AperFunction,Profile*
%ADD10C,0.150000*%
G04 #@! TD*
G04 #@! TA.AperFunction,Profile*
%ADD11C,0.200000*%
G04 #@! TD*
G04 APERTURE END LIST*
D10*
X103500000Y-113620000D02*
X103500000Y-109250000D01*
X103500000Y-109250000D02*
X107520000Y-109250000D01*
X107520000Y-109250000D02*
X107520000Y-113620000D01*
X107520000Y-113620000D02*
X103500000Y-113620000D01*
X107510000Y-57810000D02*
X103490000Y-57810000D01*
X107510000Y-53440000D02*
X107510000Y-57810000D01*
X103490000Y-53440000D02*
X107510000Y-53440000D01*
X103490000Y-57810000D02*
X103490000Y-53440000D01*
D11*
X206741019Y-90079592D02*
G75*
G03*
X206741019Y-90079592I-1150000J0D01*
G01*
X75480000Y-121259384D02*
X99340000Y-132344692D01*
X75480000Y-45430000D02*
X75480000Y-121259384D01*
X218197973Y-105344692D02*
X213610000Y-105344692D01*
X218197973Y-120344692D02*
X218197973Y-105344692D01*
X213610000Y-70060000D02*
X213610000Y-105344692D01*
X218197973Y-70060000D02*
X213610000Y-70060000D01*
X218197973Y-46344692D02*
X218197973Y-70060000D01*
X111150000Y-132344692D02*
X138542281Y-120610004D01*
X208197973Y-33949381D02*
X220697973Y-33949381D01*
X217294540Y-118706807D02*
G75*
G03*
X217294540Y-118706807I-1016000J0D01*
G01*
X115863366Y-119958747D02*
G75*
G03*
X115863366Y-119958747I-1016000J0D01*
G01*
X220697973Y-33949381D02*
G75*
G02*
X230697973Y-43949381I0J-10000000D01*
G01*
X198197973Y-43949381D02*
G75*
G02*
X188197973Y-53949381I-10000000J0D01*
G01*
X148312803Y-53949381D02*
X188197973Y-53949381D01*
X230697973Y-120344692D02*
X218197973Y-120344692D01*
X230697973Y-43949381D02*
X230697973Y-46344692D01*
X148312803Y-53949381D02*
G75*
G02*
X138542281Y-46079381I0J10000000D01*
G01*
X111150000Y-34344692D02*
X138542281Y-46079381D01*
X99340000Y-34344692D02*
X111150000Y-34344692D01*
X198197973Y-43949381D02*
G75*
G02*
X208197973Y-33949381I10000000J0D01*
G01*
X230697972Y-122740004D02*
G75*
G02*
X220697973Y-132740003I-9999999J0D01*
G01*
X218197973Y-46344692D02*
X230697973Y-46344692D01*
X230697973Y-122740004D02*
X230697973Y-120344692D01*
X138542281Y-120610004D02*
G75*
G02*
X148312803Y-112740004I9770522J-2130000D01*
G01*
X97863366Y-119958747D02*
G75*
G03*
X97863366Y-119958747I-1016000J0D01*
G01*
X99340000Y-132344692D02*
X111150000Y-132344692D01*
X75480000Y-45430000D02*
X99340000Y-34344692D01*
X188197973Y-112740004D02*
X148312803Y-112740004D01*
X193465643Y-94870004D02*
G75*
G02*
X183465643Y-104870004I-10000000J0D01*
G01*
X193465643Y-94870004D02*
X193465643Y-71689692D01*
X183465643Y-61689692D02*
X153465643Y-61689692D01*
X143465643Y-71689692D02*
G75*
G02*
X153465643Y-61689692I10000000J0D01*
G01*
X153465643Y-104870004D02*
G75*
G02*
X143465643Y-94870004I0J10000000D01*
G01*
X208197973Y-132740004D02*
G75*
G02*
X198197973Y-122740004I0J10000000D01*
G01*
X115863366Y-46246079D02*
G75*
G03*
X115863366Y-46246079I-1016000J0D01*
G01*
X97863366Y-46246079D02*
G75*
G03*
X97863366Y-46246079I-1016000J0D01*
G01*
X217578654Y-62827528D02*
G75*
G03*
X217578654Y-62827528I-1016000J0D01*
G01*
X183465643Y-61689692D02*
G75*
G02*
X193465643Y-71689692I0J-10000000D01*
G01*
X208197973Y-132740003D02*
X220697973Y-132740003D01*
X217656462Y-48857745D02*
G75*
G03*
X217656462Y-48857745I-1016000J0D01*
G01*
X143465643Y-71689692D02*
X143465643Y-94870004D01*
X188197973Y-112740004D02*
G75*
G02*
X198197973Y-122740004I0J-10000000D01*
G01*
X217554256Y-67907471D02*
G75*
G03*
X217554256Y-67907471I-1016000J0D01*
G01*
X206856980Y-76588620D02*
G75*
G03*
X206856980Y-76588620I-1150000J0D01*
G01*
X153465643Y-104870004D02*
X183465643Y-104870004D01*
M02*
