M48
; DRILL file {KiCad (5.1.6)-1} date 11/01/21 01:40:49
; FORMAT={-:-/ absolute / metric / decimal}
; #@! TF.CreationDate,2021-11-01T01:40:49-07:00
; #@! TF.GenerationSoftware,Kicad,Pcbnew,(5.1.6)-1
; #@! TF.FileFunction,Plated,1,2,PTH
FMAT,2
METRIC
T1C0.400
T2C0.800
T3C1.000
T4C1.040
T5C2.100
%
G90
G05
T1
X80.0Y-50.0
X80.0Y-60.0
X80.0Y-70.0
X80.0Y-80.0
X80.0Y-90.0
X80.0Y-100.0
X80.0Y-110.0
X80.0Y-120.0
X87.925Y-70.279
X87.925Y-79.416
X88.118Y-59.784
X88.118Y-90.109
X90.0Y-40.0
X90.0Y-50.0
X90.0Y-100.0
X90.0Y-120.0
X95.27Y-88.13
X96.94Y-59.23
X98.85Y-87.59
X99.06Y-93.47
X100.0Y-40.0
X100.0Y-50.0
X100.0Y-70.0
X100.0Y-80.0
X100.0Y-120.0
X100.0Y-130.0
X101.62Y-108.94
X102.77Y-96.49
X104.47Y-99.52
X105.7Y-93.81
X105.86Y-63.38
X108.689Y-97.815
X109.88Y-76.82
X110.0Y-40.0
X110.0Y-50.0
X110.0Y-70.0
X110.0Y-120.0
X110.0Y-130.0
X110.518Y-88.156
X112.89Y-106.37
X113.49Y-97.9
X113.759Y-63.155
X116.655Y-85.395
X117.04Y-76.57
X117.63Y-69.19
X118.93Y-88.524
X119.52Y-62.042
X120.0Y-40.0
X120.0Y-50.0
X120.0Y-110.0
X120.0Y-120.0
X126.243Y-83.365
X128.377Y-80.914
X129.8Y-68.48
X130.0Y-50.0
X130.0Y-120.0
X130.11Y-58.45
X131.3Y-84.709
X134.26Y-81.55
X135.47Y-54.64
X142.65Y-60.93
X142.77Y-103.34
X194.34Y-64.559
X195.961Y-103.82
X199.979Y-93.807
X200.0Y-50.0
X200.0Y-70.0
X200.0Y-120.0
X200.045Y-91.277
X200.63Y-63.73
X201.39Y-99.64
X202.801Y-78.641
X202.88Y-81.277
X206.04Y-86.26
X207.7Y-91.59
X210.0Y-40.0
X210.0Y-50.0
X210.0Y-120.0
X210.0Y-130.0
X220.0Y-40.0
X220.0Y-130.0
T2
X91.6Y-53.42
X91.6Y-55.42
X109.33Y-81.23
X111.33Y-81.23
X91.75Y-110.5
X91.75Y-112.5
T3
X196.48Y-69.72
X196.48Y-72.26
X196.48Y-74.8
X196.48Y-77.34
X196.48Y-79.88
X196.48Y-82.42
X196.48Y-84.96
X196.48Y-87.5
X196.48Y-90.04
X196.48Y-92.58
X196.48Y-95.12
X122.48Y-64.6
X122.48Y-67.14
X122.48Y-69.68
X122.48Y-72.22
X122.48Y-74.76
X122.48Y-77.3
X122.48Y-79.84
X122.48Y-82.38
X122.48Y-84.92
X122.48Y-87.46
X122.48Y-90.0
X122.48Y-92.54
X122.48Y-95.08
X122.48Y-97.62
X122.48Y-100.16
X123.75Y-64.6
X123.75Y-67.14
X123.75Y-69.68
X123.75Y-72.22
X123.75Y-74.76
X123.75Y-77.3
X123.75Y-79.84
X123.75Y-82.38
X123.75Y-84.92
X123.75Y-87.46
X123.75Y-90.0
X123.75Y-92.54
X123.75Y-95.08
X123.75Y-97.62
X123.75Y-100.16
X138.99Y-64.6
X138.99Y-67.14
X138.99Y-69.68
X138.99Y-72.22
X138.99Y-74.76
X138.99Y-77.3
X138.99Y-79.84
X138.99Y-82.38
X138.99Y-84.92
X138.99Y-87.46
X138.99Y-90.0
X138.99Y-92.54
X138.99Y-95.08
X138.99Y-97.62
X138.99Y-100.16
X140.26Y-64.6
X140.26Y-67.14
X140.26Y-69.68
X140.26Y-72.22
X140.26Y-74.76
X140.26Y-77.3
X140.26Y-79.84
X140.26Y-82.38
X140.26Y-84.92
X140.26Y-87.46
X140.26Y-90.0
X140.26Y-92.54
X140.26Y-95.08
X140.26Y-97.62
X140.26Y-100.16
T4
X96.66Y-90.86
X96.66Y-103.56
X99.2Y-90.86
X99.2Y-103.56
X101.74Y-90.86
X101.74Y-103.56
X104.28Y-90.86
X104.28Y-103.56
X106.82Y-90.86
X106.82Y-103.56
X109.36Y-90.86
X109.36Y-103.56
X111.9Y-90.86
X111.9Y-103.56
X114.44Y-90.86
X114.44Y-103.56
T5
X216.69Y-48.84
X216.69Y-118.69
T0
M30
