M48
; DRILL file {KiCad (5.1.6)-1} date 02/26/22 01:21:28
; FORMAT={-:-/ absolute / metric / decimal}
; #@! TF.CreationDate,2022-02-26T01:21:28-08:00
; #@! TF.GenerationSoftware,Kicad,Pcbnew,(5.1.6)-1
; #@! TF.FileFunction,Plated,1,2,PTH
FMAT,2
METRIC
T1C0.400
T2C0.850
T3C1.000
T4C1.040
T5C1.240
T6C2.100
%
G90
G05
T1
X165.0Y-50.0
X165.0Y-55.0
X165.0Y-65.0
X165.0Y-70.0
X165.0Y-115.0
X169.32Y-52.55
X170.0Y-115.0
X178.7Y-46.9
X181.0Y-74.9
X182.15Y-63.5
X182.17Y-67.67
X184.2Y-56.0
X185.0Y-105.0
X187.6Y-58.9
X189.13Y-59.89
X189.13Y-61.58
X190.222Y-57.042
X190.3Y-64.0
X191.29Y-58.11
X191.8Y-84.3
X194.9Y-60.7
X195.607Y-59.357
X196.0Y-64.1
X199.5Y-68.95
X199.56Y-69.95
X201.28Y-61.9
X201.8Y-91.8
X201.82Y-60.67
X202.0Y-81.6
X202.3Y-85.5
X202.5Y-49.6
X203.156Y-61.97
X203.4Y-64.4
X204.77Y-61.82
X205.32Y-64.69
X205.72Y-70.01
X206.15Y-60.03
X206.63Y-69.11
X207.2Y-108.9
X207.4Y-82.9
X207.72Y-70.13
X208.561Y-69.231
X210.04Y-63.105
X210.04Y-64.555
X210.1Y-82.9
X211.82Y-61.97
X212.4Y-104.8
X212.5Y-82.9
X214.1Y-63.01
X215.0Y-82.8
X217.5Y-82.9
X218.5Y-60.0
X220.0Y-105.0
X221.38Y-76.28
X224.7Y-46.5
X235.0Y-115.0
X235.5Y-52.55
X240.0Y-50.0
X240.0Y-55.0
X240.0Y-65.0
X240.0Y-70.0
X240.0Y-115.0
T2
X185.82Y-66.6
X185.82Y-74.52
X188.36Y-66.6
X188.36Y-74.52
X190.9Y-66.6
X190.9Y-74.52
X193.44Y-66.6
X193.44Y-74.52
X195.98Y-66.6
X195.98Y-74.52
X198.52Y-66.6
X198.52Y-74.52
X201.06Y-66.6
X201.06Y-74.52
X203.6Y-66.6
X203.6Y-74.52
X206.14Y-66.6
X206.14Y-74.52
X208.68Y-66.6
X208.68Y-74.52
X211.22Y-66.6
X211.22Y-74.52
X213.76Y-66.6
X213.76Y-74.52
X216.3Y-66.6
X216.3Y-74.52
X218.84Y-66.6
X218.84Y-74.52
T3
X188.09Y-96.18
X188.09Y-98.72
X186.38Y-79.49
X188.92Y-79.49
X191.46Y-79.49
X194.0Y-79.49
X196.54Y-79.49
X199.08Y-79.49
X176.97Y-67.76
X176.97Y-70.3
X176.97Y-72.84
X179.51Y-67.76
X179.51Y-70.3
X179.51Y-72.84
X189.7Y-111.18
X192.24Y-111.18
X194.78Y-111.18
X197.32Y-111.18
X199.86Y-111.18
X202.4Y-111.18
X204.94Y-111.18
X207.48Y-111.18
X210.02Y-111.18
X212.56Y-111.18
X215.1Y-111.18
X186.16Y-50.84
X186.16Y-53.38
X218.64Y-50.8
X218.64Y-53.34
T4
X193.51Y-44.85
X193.51Y-57.55
X196.05Y-44.85
X196.05Y-57.55
X198.59Y-44.85
X198.59Y-57.55
X201.13Y-44.85
X201.13Y-57.55
X203.67Y-44.85
X203.67Y-57.55
X206.21Y-44.85
X206.21Y-57.55
X208.75Y-44.85
X208.75Y-57.55
X211.29Y-44.85
X211.29Y-57.55
T5
X189.25Y-91.82
X191.79Y-91.82
X194.33Y-91.82
T6
X167.465Y-126.99
X237.315Y-126.99
T0
M30
