G04 #@! TF.GenerationSoftware,KiCad,Pcbnew,(5.1.6)-1*
G04 #@! TF.CreationDate,2021-11-01T01:40:41-07:00*
G04 #@! TF.ProjectId,seguilineas,73656775-696c-4696-9e65-61732e6b6963,rev?*
G04 #@! TF.SameCoordinates,Original*
G04 #@! TF.FileFunction,Copper,L1,Top*
G04 #@! TF.FilePolarity,Positive*
%FSLAX46Y46*%
G04 Gerber Fmt 4.6, Leading zero omitted, Abs format (unit mm)*
G04 Created by KiCad (PCBNEW (5.1.6)-1) date 2021-11-01 01:40:41*
%MOMM*%
%LPD*%
G01*
G04 APERTURE LIST*
G04 #@! TA.AperFunction,SMDPad,CuDef*
%ADD10O,3.000000X1.700000*%
G04 #@! TD*
G04 #@! TA.AperFunction,ComponentPad*
%ADD11C,1.700000*%
G04 #@! TD*
G04 #@! TA.AperFunction,ComponentPad*
%ADD12O,1.700000X1.700000*%
G04 #@! TD*
G04 #@! TA.AperFunction,ComponentPad*
%ADD13O,1.350000X1.350000*%
G04 #@! TD*
G04 #@! TA.AperFunction,ComponentPad*
%ADD14R,1.350000X1.350000*%
G04 #@! TD*
G04 #@! TA.AperFunction,ComponentPad*
%ADD15R,1.700000X1.700000*%
G04 #@! TD*
G04 #@! TA.AperFunction,ComponentPad*
%ADD16R,1.560000X1.560000*%
G04 #@! TD*
G04 #@! TA.AperFunction,ComponentPad*
%ADD17C,1.560000*%
G04 #@! TD*
G04 #@! TA.AperFunction,ComponentPad*
%ADD18C,2.800000*%
G04 #@! TD*
G04 #@! TA.AperFunction,ViaPad*
%ADD19C,0.800000*%
G04 #@! TD*
G04 #@! TA.AperFunction,Conductor*
%ADD20C,0.250000*%
G04 #@! TD*
G04 #@! TA.AperFunction,Conductor*
%ADD21C,1.016000*%
G04 #@! TD*
G04 #@! TA.AperFunction,Conductor*
%ADD22C,0.254000*%
G04 #@! TD*
G04 APERTURE END LIST*
D10*
X123115000Y-90000000D03*
D11*
X122480000Y-92540000D03*
D10*
X123115000Y-69680000D03*
X123115000Y-74760000D03*
X123115000Y-95080000D03*
X123115000Y-92540000D03*
D11*
X122480000Y-79840000D03*
D12*
X123750000Y-95080000D03*
D11*
X122480000Y-64600000D03*
D12*
X123750000Y-84920000D03*
X123750000Y-82380000D03*
D11*
X122480000Y-72220000D03*
X122480000Y-82380000D03*
X122480000Y-84920000D03*
D10*
X123115000Y-64600000D03*
X123115000Y-97620000D03*
D11*
X122480000Y-77300000D03*
X122480000Y-87460000D03*
D12*
X123750000Y-79840000D03*
D10*
X123115000Y-72220000D03*
D12*
X123750000Y-87460000D03*
X123750000Y-90000000D03*
D10*
X123115000Y-87460000D03*
X123115000Y-84920000D03*
D11*
X122480000Y-90000000D03*
D12*
X123750000Y-77300000D03*
X123750000Y-97620000D03*
X123750000Y-74760000D03*
X123750000Y-72220000D03*
X123750000Y-69680000D03*
X123750000Y-67140000D03*
D11*
X123750000Y-64600000D03*
D10*
X123115000Y-79840000D03*
D12*
X123750000Y-100160000D03*
D10*
X123115000Y-77300000D03*
D12*
X123750000Y-92540000D03*
D11*
X122480000Y-97620000D03*
X122480000Y-74760000D03*
X122480000Y-100160000D03*
D10*
X123115000Y-82380000D03*
X123115000Y-100160000D03*
X123115000Y-67140000D03*
D11*
X122480000Y-67140000D03*
X122480000Y-95080000D03*
X122480000Y-69680000D03*
D10*
X139625000Y-64600000D03*
X139625000Y-67140000D03*
X139625000Y-69680000D03*
X139625000Y-72220000D03*
X139625000Y-74760000D03*
X139625000Y-77300000D03*
X139625000Y-79840000D03*
X139625000Y-82380000D03*
X139625000Y-84920000D03*
X139625000Y-87460000D03*
X139625000Y-90000000D03*
X139625000Y-92540000D03*
X139625000Y-95080000D03*
X139625000Y-97620000D03*
D11*
X140260000Y-67140000D03*
X140260000Y-64600000D03*
X140260000Y-69680000D03*
X140260000Y-77300000D03*
X140260000Y-72220000D03*
X140260000Y-74760000D03*
X140260000Y-82380000D03*
X140260000Y-79840000D03*
X140260000Y-84920000D03*
X140260000Y-90000000D03*
X140260000Y-87460000D03*
X140260000Y-92540000D03*
X140260000Y-95080000D03*
X140260000Y-97620000D03*
D10*
X139625000Y-100160000D03*
D11*
X140260000Y-100160000D03*
X138990000Y-100160000D03*
D12*
X138990000Y-97620000D03*
X138990000Y-95080000D03*
X138990000Y-92540000D03*
X138990000Y-90000000D03*
X138990000Y-87460000D03*
X138990000Y-84920000D03*
X138990000Y-82380000D03*
X138990000Y-79840000D03*
X138990000Y-77300000D03*
X138990000Y-74760000D03*
X138990000Y-72220000D03*
X138990000Y-69680000D03*
X138990000Y-67140000D03*
X138990000Y-64600000D03*
D13*
X91600000Y-53420000D03*
D14*
X91600000Y-55420000D03*
X91750000Y-112500000D03*
D13*
X91750000Y-110500000D03*
D14*
X111330000Y-81230000D03*
D13*
X109330000Y-81230000D03*
D15*
X196480000Y-95120000D03*
D12*
X196480000Y-92580000D03*
X196480000Y-90040000D03*
X196480000Y-87500000D03*
X196480000Y-84960000D03*
X196480000Y-82420000D03*
X196480000Y-79880000D03*
X196480000Y-77340000D03*
X196480000Y-74800000D03*
X196480000Y-72260000D03*
X196480000Y-69720000D03*
D16*
X96660000Y-103560000D03*
D17*
X99200000Y-103560000D03*
X101740000Y-103560000D03*
X104280000Y-103560000D03*
X106820000Y-103560000D03*
X109360000Y-103560000D03*
X111900000Y-103560000D03*
D16*
X114440000Y-103560000D03*
X114440000Y-90860000D03*
D17*
X111900000Y-90860000D03*
X109360000Y-90860000D03*
X106820000Y-90860000D03*
X104280000Y-90860000D03*
X101740000Y-90860000D03*
X99200000Y-90860000D03*
X96660000Y-90860000D03*
D18*
X216690000Y-118690000D03*
X216690000Y-48840000D03*
D19*
X131300220Y-84709000D03*
X117630000Y-69190000D03*
X100000000Y-40000000D03*
X110000000Y-40000000D03*
X120000000Y-40000000D03*
X90000000Y-40000000D03*
X80000000Y-50000000D03*
X90000000Y-50000000D03*
X100000000Y-50000000D03*
X110000000Y-50000000D03*
X120000000Y-50000000D03*
X130000000Y-50000000D03*
X200000000Y-50000000D03*
X210000000Y-40000000D03*
X220000000Y-40000000D03*
X210000000Y-50000000D03*
X207700000Y-91590000D03*
X210000000Y-120000000D03*
X210000000Y-130000000D03*
X220000000Y-130000000D03*
X200000000Y-120000000D03*
X199979280Y-93807280D03*
X200000000Y-70000000D03*
X130000000Y-120000000D03*
X120000000Y-120000000D03*
X110000000Y-130000000D03*
X100000000Y-130000000D03*
X110000000Y-120000000D03*
X100000000Y-120000000D03*
X90000000Y-120000000D03*
X80000000Y-120000000D03*
X80000000Y-110000000D03*
X80000000Y-90000000D03*
X80000000Y-100000000D03*
X80000000Y-80000000D03*
X80000000Y-70000000D03*
X80000000Y-60000000D03*
X90000000Y-100000000D03*
X120000000Y-110000000D03*
X100000000Y-80000000D03*
X100000000Y-70000000D03*
X110000000Y-70000000D03*
X128376680Y-80914240D03*
X126243080Y-83365340D03*
X110517940Y-88155780D03*
X116654580Y-85394800D03*
X118930420Y-88524080D03*
X108689140Y-97815400D03*
X88117680Y-59783980D03*
X87924640Y-70279260D03*
X87924640Y-79415640D03*
X88117680Y-90109040D03*
X206040000Y-86260000D03*
X194340480Y-64559180D03*
X195961000Y-103819960D03*
X202801220Y-78640940D03*
X202879960Y-81277460D03*
X200045320Y-91277440D03*
X119519700Y-62042040D03*
X112890000Y-106370000D03*
X101620000Y-108940000D03*
X104470000Y-99520000D03*
X105700000Y-93810000D03*
X113490000Y-97900000D03*
X98850000Y-87590000D03*
X95270000Y-88130000D03*
X96940000Y-59230000D03*
X105860000Y-63380000D03*
X117040000Y-76570000D03*
X109880000Y-76820000D03*
X134260000Y-81550000D03*
X142770000Y-103340000D03*
X142650000Y-60930000D03*
X201390000Y-99640000D03*
X130110000Y-58450000D03*
X129800000Y-68480000D03*
X200630000Y-63730000D03*
X113758980Y-63154560D03*
X135469520Y-54640480D03*
X99060000Y-93470000D03*
X102770000Y-96490000D03*
D20*
X123115000Y-72220000D02*
X123360000Y-72220000D01*
X117630000Y-63931740D02*
X119519700Y-62042040D01*
X117630000Y-69190000D02*
X117630000Y-63931740D01*
X119450000Y-69190000D02*
X122480000Y-72220000D01*
X117630000Y-69190000D02*
X119450000Y-69190000D01*
X139625000Y-67140000D02*
X137420000Y-67140000D01*
D21*
X104280000Y-91607340D02*
X104280000Y-90860000D01*
X99200000Y-103560000D02*
X99200000Y-96687340D01*
X99200000Y-96687340D02*
X104280000Y-91607340D01*
X142318740Y-70434200D02*
X140532940Y-72220000D01*
X142318740Y-64491260D02*
X142318740Y-70434200D01*
X203708460Y-72260000D02*
X208031080Y-67937380D01*
X208031080Y-67937380D02*
X208031080Y-64343280D01*
X196480000Y-72260000D02*
X203708460Y-72260000D01*
X147963280Y-58846720D02*
X142318740Y-64491260D01*
X208031080Y-64343280D02*
X202534520Y-58846720D01*
X140532940Y-72220000D02*
X139625000Y-72220000D01*
X202534520Y-58846720D02*
X147963280Y-58846720D01*
X122273060Y-54640480D02*
X135469520Y-54640480D01*
X113758980Y-63154560D02*
X122273060Y-54640480D01*
D20*
X136050000Y-73130000D02*
X137680000Y-74760000D01*
X136050000Y-63050000D02*
X136050000Y-73130000D01*
X141401360Y-57698640D02*
X136050000Y-63050000D01*
X200685860Y-77340000D02*
X209550000Y-68475860D01*
X196480000Y-77340000D02*
X200685860Y-77340000D01*
X209550000Y-68475860D02*
X209550000Y-63500000D01*
X209550000Y-63500000D02*
X203748640Y-57698640D01*
X137680000Y-74760000D02*
X139625000Y-74760000D01*
X203748640Y-57698640D02*
X141401360Y-57698640D01*
X138600000Y-77300000D02*
X140260000Y-77300000D01*
X138430000Y-77470000D02*
X138600000Y-77300000D01*
X135330000Y-62310000D02*
X135330000Y-74930000D01*
X135330000Y-74930000D02*
X137870000Y-77470000D01*
X207140000Y-79880000D02*
X210820000Y-76200000D01*
X137870000Y-77470000D02*
X138430000Y-77470000D01*
X140789720Y-56850280D02*
X135330000Y-62310000D01*
X196480000Y-79880000D02*
X207140000Y-79880000D01*
X210820000Y-62184280D02*
X205486000Y-56850280D01*
X210820000Y-76200000D02*
X210820000Y-62184280D01*
X205486000Y-56850280D02*
X140789720Y-56850280D01*
X207140000Y-82420000D02*
X196480000Y-82420000D01*
X212090000Y-77470000D02*
X207140000Y-82420000D01*
X212090000Y-61102240D02*
X212090000Y-77470000D01*
X140112220Y-55897780D02*
X206885540Y-55897780D01*
X139625000Y-79840000D02*
X139445000Y-80020000D01*
X138080000Y-80020000D02*
X134570000Y-76510000D01*
X206885540Y-55897780D02*
X212090000Y-61102240D01*
X134570000Y-61440000D02*
X140112220Y-55897780D01*
X139445000Y-80020000D02*
X138080000Y-80020000D01*
X134570000Y-76510000D02*
X134570000Y-61440000D01*
X133210000Y-86770000D02*
X137600000Y-82380000D01*
X133210000Y-105460000D02*
X133210000Y-86770000D01*
X138280000Y-110530000D02*
X133210000Y-105460000D01*
X207700000Y-84960000D02*
X211720000Y-88980000D01*
X196480000Y-84960000D02*
X207700000Y-84960000D01*
X211720000Y-88980000D02*
X211720000Y-108264120D01*
X209454120Y-110530000D02*
X138280000Y-110530000D01*
X137600000Y-82380000D02*
X138990000Y-82380000D01*
X211720000Y-108264120D02*
X209454120Y-110530000D01*
X210540000Y-91350000D02*
X206690000Y-87500000D01*
X206690000Y-87500000D02*
X196480000Y-87500000D01*
X210540000Y-107556900D02*
X210540000Y-91350000D01*
X138040000Y-84920000D02*
X134300000Y-88660000D01*
X208456900Y-109640000D02*
X210540000Y-107556900D01*
X139625000Y-84920000D02*
X138040000Y-84920000D01*
X134300000Y-105150000D02*
X138790000Y-109640000D01*
X134300000Y-88660000D02*
X134300000Y-105150000D01*
X138790000Y-109640000D02*
X208456900Y-109640000D01*
X138740000Y-87460000D02*
X139625000Y-87460000D01*
X135280000Y-90920000D02*
X138740000Y-87460000D01*
X135280000Y-104800000D02*
X135280000Y-90920000D01*
X201713640Y-90040000D02*
X209180000Y-97506360D01*
X196480000Y-90040000D02*
X201713640Y-90040000D01*
X139240000Y-108760000D02*
X135280000Y-104800000D01*
X209180000Y-97506360D02*
X209180000Y-106724880D01*
X207144880Y-108760000D02*
X139240000Y-108760000D01*
X209180000Y-106724880D02*
X207144880Y-108760000D01*
X137662920Y-91965780D02*
X137662920Y-91962080D01*
X136300000Y-93328700D02*
X137662920Y-91965780D01*
X140090000Y-107950000D02*
X136300000Y-104160000D01*
X202165760Y-92580000D02*
X207911700Y-98325940D01*
X196480000Y-92580000D02*
X202165760Y-92580000D01*
X137662920Y-91962080D02*
X139625000Y-90000000D01*
X136300000Y-104160000D02*
X136300000Y-93328700D01*
X207911700Y-98325940D02*
X207911700Y-105778300D01*
X207911700Y-105778300D02*
X205740000Y-107950000D01*
X205740000Y-107950000D02*
X140090000Y-107950000D01*
X140220880Y-92540000D02*
X139625000Y-92540000D01*
X137060000Y-94470000D02*
X138990000Y-92540000D01*
X137060000Y-103340000D02*
X137060000Y-94470000D01*
X148570000Y-106700000D02*
X140420000Y-106700000D01*
X140420000Y-106700000D02*
X137060000Y-103340000D01*
X202724560Y-95120000D02*
X206288640Y-98684080D01*
X148590000Y-106680000D02*
X148570000Y-106700000D01*
X196480000Y-95120000D02*
X202724560Y-95120000D01*
X206288640Y-104721660D02*
X204330300Y-106680000D01*
X206288640Y-98684080D02*
X206288640Y-104721660D01*
X204330300Y-106680000D02*
X148590000Y-106680000D01*
D21*
X97093990Y-107156010D02*
X91750000Y-112500000D01*
X105763990Y-107156010D02*
X97093990Y-107156010D01*
X109360000Y-103560000D02*
X105763990Y-107156010D01*
X94438001Y-107831999D02*
X94418001Y-107831999D01*
X106820000Y-103560000D02*
X104440000Y-105940000D01*
X94418001Y-107831999D02*
X91750000Y-110500000D01*
X96330000Y-105940000D02*
X94438001Y-107831999D01*
X104440000Y-105940000D02*
X96330000Y-105940000D01*
D20*
X111760000Y-103700000D02*
X111900000Y-103560000D01*
D21*
X111330000Y-82921000D02*
X109298160Y-84952840D01*
X95570000Y-93470000D02*
X99060000Y-93470000D01*
X111330000Y-81230000D02*
X111330000Y-82921000D01*
X109298160Y-84952840D02*
X95387160Y-84952840D01*
X95387160Y-84952840D02*
X92847160Y-87492840D01*
X92847160Y-90747160D02*
X95570000Y-93470000D01*
X92847160Y-87492840D02*
X92847160Y-90747160D01*
X111900000Y-103560000D02*
X104830000Y-96490000D01*
X104830000Y-96490000D02*
X102770000Y-96490000D01*
D20*
X124590000Y-77300000D02*
X123750000Y-77300000D01*
X125480000Y-78190000D02*
X124590000Y-77300000D01*
X124670000Y-81120000D02*
X125480000Y-80310000D01*
X118727919Y-81120000D02*
X124670000Y-81120000D01*
X111808260Y-88039659D02*
X118727919Y-81120000D01*
X111376460Y-89397840D02*
X111808260Y-88966040D01*
X125480000Y-80310000D02*
X125480000Y-78190000D01*
X103202160Y-89397840D02*
X111376460Y-89397840D01*
X101740000Y-90860000D02*
X103202160Y-89397840D01*
X111808260Y-88966040D02*
X111808260Y-88039659D01*
X124940010Y-86973295D02*
X124940010Y-88174990D01*
X124251705Y-86284990D02*
X124940010Y-86973295D01*
X124940010Y-88174990D02*
X123433205Y-89681795D01*
X121354930Y-86284990D02*
X124251705Y-86284990D01*
X120815100Y-86824820D02*
X121354930Y-86284990D01*
X109360000Y-90860000D02*
X111425900Y-92925900D01*
X111425900Y-92925900D02*
X115836700Y-92925900D01*
X115836700Y-92925900D02*
X120815100Y-87947500D01*
X120815100Y-87947500D02*
X120815100Y-86824820D01*
X123343285Y-92540000D02*
X123115000Y-92540000D01*
X122480000Y-79840000D02*
X117053180Y-79840000D01*
X117053180Y-79840000D02*
X109258100Y-87635080D01*
X102424920Y-87635080D02*
X99200000Y-90860000D01*
X109258100Y-87635080D02*
X102424920Y-87635080D01*
X111900000Y-90860000D02*
X113860000Y-88900000D01*
X115960000Y-88900000D02*
X122480000Y-82380000D01*
X113860000Y-88900000D02*
X115960000Y-88900000D01*
X121588640Y-88351360D02*
X122480000Y-87460000D01*
X121588640Y-88713200D02*
X121588640Y-88351360D01*
X116679980Y-93621860D02*
X121588640Y-88713200D01*
X106820000Y-90860000D02*
X109581860Y-93621860D01*
X109581860Y-93621860D02*
X116679980Y-93621860D01*
D22*
G36*
X221859007Y-34758881D02*
G01*
X223001718Y-34976864D01*
X224108113Y-35336353D01*
X225160721Y-35831673D01*
X226142947Y-36455012D01*
X227039308Y-37196547D01*
X227835660Y-38044576D01*
X228519446Y-38985727D01*
X229079881Y-40005155D01*
X229508129Y-41086786D01*
X229797438Y-42213566D01*
X229944692Y-43379206D01*
X229962973Y-43960918D01*
X229962974Y-45609692D01*
X218234078Y-45609692D01*
X218197973Y-45606136D01*
X218161868Y-45609692D01*
X218053888Y-45620327D01*
X217915340Y-45662355D01*
X217787653Y-45730605D01*
X217675735Y-45822454D01*
X217583886Y-45934372D01*
X217515636Y-46062059D01*
X217473608Y-46200607D01*
X217459417Y-46344692D01*
X217462973Y-46380797D01*
X217462973Y-46957508D01*
X217283587Y-46883204D01*
X216890430Y-46805000D01*
X216489570Y-46805000D01*
X216096413Y-46883204D01*
X215726066Y-47036607D01*
X215392763Y-47259313D01*
X215109313Y-47542763D01*
X214886607Y-47876066D01*
X214733204Y-48246413D01*
X214655000Y-48639570D01*
X214655000Y-49040430D01*
X214733204Y-49433587D01*
X214886607Y-49803934D01*
X215109313Y-50137237D01*
X215392763Y-50420687D01*
X215726066Y-50643393D01*
X216096413Y-50796796D01*
X216489570Y-50875000D01*
X216890430Y-50875000D01*
X217283587Y-50796796D01*
X217462973Y-50722492D01*
X217462974Y-61309394D01*
X217397498Y-61265645D01*
X217076748Y-61132787D01*
X216736242Y-61065056D01*
X216389066Y-61065056D01*
X216048560Y-61132787D01*
X215727810Y-61265645D01*
X215439143Y-61458526D01*
X215193652Y-61704017D01*
X215000771Y-61992684D01*
X214867913Y-62313434D01*
X214800182Y-62653940D01*
X214800182Y-63001116D01*
X214867913Y-63341622D01*
X215000771Y-63662372D01*
X215193652Y-63951039D01*
X215439143Y-64196530D01*
X215727810Y-64389411D01*
X216048560Y-64522269D01*
X216389066Y-64590000D01*
X216736242Y-64590000D01*
X217076748Y-64522269D01*
X217397498Y-64389411D01*
X217462974Y-64345662D01*
X217462974Y-66405640D01*
X217373100Y-66345588D01*
X217052350Y-66212730D01*
X216711844Y-66144999D01*
X216364668Y-66144999D01*
X216024162Y-66212730D01*
X215703412Y-66345588D01*
X215414745Y-66538469D01*
X215169254Y-66783960D01*
X214976373Y-67072627D01*
X214843515Y-67393377D01*
X214775784Y-67733883D01*
X214775784Y-68081059D01*
X214843515Y-68421565D01*
X214976373Y-68742315D01*
X215169254Y-69030982D01*
X215414745Y-69276473D01*
X215487371Y-69325000D01*
X213646105Y-69325000D01*
X213610000Y-69321444D01*
X213573895Y-69325000D01*
X213465915Y-69335635D01*
X213327367Y-69377663D01*
X213199680Y-69445913D01*
X213087762Y-69537762D01*
X212995913Y-69649680D01*
X212927663Y-69777367D01*
X212885635Y-69915915D01*
X212871444Y-70060000D01*
X212875000Y-70096105D01*
X212875001Y-105308577D01*
X212871444Y-105344692D01*
X212885635Y-105488777D01*
X212927663Y-105627325D01*
X212995913Y-105755012D01*
X213087762Y-105866930D01*
X213199680Y-105958779D01*
X213327367Y-106027029D01*
X213465915Y-106069057D01*
X213573895Y-106079692D01*
X213610000Y-106083248D01*
X213646105Y-106079692D01*
X217462974Y-106079692D01*
X217462973Y-116807508D01*
X217283587Y-116733204D01*
X216890430Y-116655000D01*
X216489570Y-116655000D01*
X216096413Y-116733204D01*
X215726066Y-116886607D01*
X215392763Y-117109313D01*
X215182881Y-117319195D01*
X215155029Y-117337805D01*
X214909538Y-117583296D01*
X214716657Y-117871963D01*
X214583799Y-118192713D01*
X214516068Y-118533219D01*
X214516068Y-118880395D01*
X214583799Y-119220901D01*
X214716657Y-119541651D01*
X214909538Y-119830318D01*
X215155029Y-120075809D01*
X215284183Y-120162107D01*
X215392763Y-120270687D01*
X215726066Y-120493393D01*
X216096413Y-120646796D01*
X216489570Y-120725000D01*
X216890430Y-120725000D01*
X217283587Y-120646796D01*
X217494981Y-120559234D01*
X217515636Y-120627325D01*
X217583886Y-120755012D01*
X217675735Y-120866930D01*
X217773461Y-120947132D01*
X217787653Y-120958779D01*
X217915340Y-121027029D01*
X218053888Y-121069057D01*
X218197973Y-121083248D01*
X218234078Y-121079692D01*
X229962974Y-121079692D01*
X229962973Y-122716884D01*
X229888472Y-123901038D01*
X229670488Y-125043756D01*
X229311002Y-126150138D01*
X228815680Y-127202751D01*
X228192338Y-128184980D01*
X227450807Y-129081338D01*
X226602781Y-129877687D01*
X225661624Y-130561477D01*
X224642204Y-131121909D01*
X223560568Y-131550159D01*
X222433783Y-131839468D01*
X221268148Y-131986722D01*
X220686437Y-132005003D01*
X208221061Y-132005003D01*
X207036939Y-131930504D01*
X205894221Y-131712520D01*
X204787831Y-131353031D01*
X203735225Y-130857712D01*
X202752996Y-130234370D01*
X201856638Y-129492838D01*
X201060290Y-128644813D01*
X200376502Y-127703662D01*
X199816066Y-126684233D01*
X199387818Y-125602600D01*
X199098508Y-124475814D01*
X198951254Y-123310179D01*
X198932610Y-122716917D01*
X198912877Y-122089012D01*
X198909618Y-122054537D01*
X198907444Y-122019979D01*
X198750050Y-120774072D01*
X198746414Y-120755011D01*
X198732755Y-120683404D01*
X198420447Y-119467047D01*
X198403419Y-119414641D01*
X198391924Y-119379263D01*
X197929630Y-118211640D01*
X197890329Y-118128122D01*
X197285337Y-117027647D01*
X197243342Y-116961473D01*
X197235880Y-116949714D01*
X196497732Y-115933742D01*
X196438897Y-115862622D01*
X195579236Y-114947176D01*
X195550729Y-114920406D01*
X195511951Y-114883991D01*
X194544333Y-114083507D01*
X194469659Y-114029253D01*
X193409343Y-113356356D01*
X193328458Y-113311889D01*
X192192167Y-112777191D01*
X192122514Y-112749614D01*
X192106347Y-112743213D01*
X190912000Y-112355145D01*
X190822597Y-112332191D01*
X189589030Y-112096876D01*
X189587083Y-112096630D01*
X189497456Y-112085307D01*
X188257070Y-112007268D01*
X188234078Y-112005004D01*
X148276698Y-112005004D01*
X148258471Y-112006799D01*
X147282740Y-112055389D01*
X147241635Y-112060037D01*
X147200495Y-112064144D01*
X145961198Y-112267126D01*
X145871226Y-112287735D01*
X144667141Y-112644442D01*
X144580461Y-112676165D01*
X143430578Y-113180971D01*
X143367192Y-113213690D01*
X143348559Y-113223308D01*
X142271012Y-113868252D01*
X142247227Y-113884600D01*
X142194944Y-113920535D01*
X141206728Y-114695446D01*
X141137813Y-114756850D01*
X140254511Y-115649507D01*
X140193836Y-115719065D01*
X139429378Y-116715389D01*
X139388278Y-116776558D01*
X139377900Y-116792003D01*
X138744342Y-117876284D01*
X138702871Y-117958745D01*
X138210206Y-119113882D01*
X138197553Y-119149618D01*
X138179398Y-119200891D01*
X137931238Y-120072167D01*
X110999194Y-131609692D01*
X99502404Y-131609692D01*
X76215000Y-120790412D01*
X76215000Y-119785159D01*
X95084894Y-119785159D01*
X95084894Y-120132335D01*
X95152625Y-120472841D01*
X95285483Y-120793591D01*
X95478364Y-121082258D01*
X95723855Y-121327749D01*
X96012522Y-121520630D01*
X96333272Y-121653488D01*
X96673778Y-121721219D01*
X97020954Y-121721219D01*
X97361460Y-121653488D01*
X97682210Y-121520630D01*
X97970877Y-121327749D01*
X98216368Y-121082258D01*
X98409249Y-120793591D01*
X98542107Y-120472841D01*
X98609838Y-120132335D01*
X98609838Y-119785159D01*
X113084894Y-119785159D01*
X113084894Y-120132335D01*
X113152625Y-120472841D01*
X113285483Y-120793591D01*
X113478364Y-121082258D01*
X113723855Y-121327749D01*
X114012522Y-121520630D01*
X114333272Y-121653488D01*
X114673778Y-121721219D01*
X115020954Y-121721219D01*
X115361460Y-121653488D01*
X115682210Y-121520630D01*
X115970877Y-121327749D01*
X116216368Y-121082258D01*
X116409249Y-120793591D01*
X116542107Y-120472841D01*
X116609838Y-120132335D01*
X116609838Y-119785159D01*
X116542107Y-119444653D01*
X116409249Y-119123903D01*
X116216368Y-118835236D01*
X115970877Y-118589745D01*
X115682210Y-118396864D01*
X115361460Y-118264006D01*
X115020954Y-118196275D01*
X114673778Y-118196275D01*
X114333272Y-118264006D01*
X114012522Y-118396864D01*
X113723855Y-118589745D01*
X113478364Y-118835236D01*
X113285483Y-119123903D01*
X113152625Y-119444653D01*
X113084894Y-119785159D01*
X98609838Y-119785159D01*
X98542107Y-119444653D01*
X98409249Y-119123903D01*
X98216368Y-118835236D01*
X97970877Y-118589745D01*
X97682210Y-118396864D01*
X97361460Y-118264006D01*
X97020954Y-118196275D01*
X96673778Y-118196275D01*
X96333272Y-118264006D01*
X96012522Y-118396864D01*
X95723855Y-118589745D01*
X95478364Y-118835236D01*
X95285483Y-119123903D01*
X95152625Y-119444653D01*
X95084894Y-119785159D01*
X76215000Y-119785159D01*
X76215000Y-111825000D01*
X90436928Y-111825000D01*
X90436928Y-113175000D01*
X90449188Y-113299482D01*
X90485498Y-113419180D01*
X90544463Y-113529494D01*
X90623815Y-113626185D01*
X90720506Y-113705537D01*
X90830820Y-113764502D01*
X90950518Y-113800812D01*
X91075000Y-113813072D01*
X92425000Y-113813072D01*
X92549482Y-113800812D01*
X92669180Y-113764502D01*
X92779494Y-113705537D01*
X92876185Y-113626185D01*
X92955537Y-113529494D01*
X93014502Y-113419180D01*
X93050812Y-113299482D01*
X93063072Y-113175000D01*
X93063072Y-112803373D01*
X96616445Y-109250000D01*
X102786565Y-109250000D01*
X102790001Y-109284887D01*
X102790000Y-113585123D01*
X102786565Y-113620000D01*
X102800273Y-113759184D01*
X102840872Y-113893020D01*
X102906800Y-114016363D01*
X102995525Y-114124475D01*
X103100435Y-114210572D01*
X103103637Y-114213200D01*
X103226980Y-114279128D01*
X103360816Y-114319727D01*
X103500000Y-114333435D01*
X103534877Y-114330000D01*
X107485123Y-114330000D01*
X107520000Y-114333435D01*
X107554877Y-114330000D01*
X107659184Y-114319727D01*
X107793020Y-114279128D01*
X107916363Y-114213200D01*
X108024475Y-114124475D01*
X108113200Y-114016363D01*
X108179128Y-113893020D01*
X108219727Y-113759184D01*
X108233435Y-113620000D01*
X108230000Y-113585123D01*
X108230000Y-109284877D01*
X108233435Y-109250000D01*
X108219727Y-109110816D01*
X108179128Y-108976980D01*
X108113200Y-108853637D01*
X108024475Y-108745525D01*
X107916363Y-108656800D01*
X107793020Y-108590872D01*
X107659184Y-108550273D01*
X107554877Y-108540000D01*
X107520000Y-108536565D01*
X107485123Y-108540000D01*
X103534877Y-108540000D01*
X103500000Y-108536565D01*
X103465123Y-108540000D01*
X103360816Y-108550273D01*
X103226980Y-108590872D01*
X103103637Y-108656800D01*
X102995525Y-108745525D01*
X102906800Y-108853637D01*
X102840872Y-108976980D01*
X102800273Y-109110816D01*
X102786565Y-109250000D01*
X96616445Y-109250000D01*
X97567436Y-108299010D01*
X105707851Y-108299010D01*
X105763990Y-108304539D01*
X105820129Y-108299010D01*
X105820136Y-108299010D01*
X105988057Y-108282471D01*
X106203513Y-108217113D01*
X106402079Y-108110978D01*
X106576123Y-107968143D01*
X106611917Y-107924528D01*
X109576860Y-104959585D01*
X109772740Y-104920623D01*
X110030254Y-104813957D01*
X110262010Y-104659103D01*
X110459103Y-104462010D01*
X110613957Y-104230254D01*
X110630000Y-104191523D01*
X110646043Y-104230254D01*
X110800897Y-104462010D01*
X110997990Y-104659103D01*
X111229746Y-104813957D01*
X111487260Y-104920623D01*
X111760635Y-104975000D01*
X112039365Y-104975000D01*
X112312740Y-104920623D01*
X112570254Y-104813957D01*
X112802010Y-104659103D01*
X112999103Y-104462010D01*
X113029469Y-104416564D01*
X113034188Y-104464482D01*
X113070498Y-104584180D01*
X113129463Y-104694494D01*
X113208815Y-104791185D01*
X113305506Y-104870537D01*
X113415820Y-104929502D01*
X113535518Y-104965812D01*
X113660000Y-104978072D01*
X114154250Y-104975000D01*
X114313000Y-104816250D01*
X114313000Y-103687000D01*
X114567000Y-103687000D01*
X114567000Y-104816250D01*
X114725750Y-104975000D01*
X115220000Y-104978072D01*
X115344482Y-104965812D01*
X115464180Y-104929502D01*
X115574494Y-104870537D01*
X115671185Y-104791185D01*
X115750537Y-104694494D01*
X115809502Y-104584180D01*
X115845812Y-104464482D01*
X115858072Y-104340000D01*
X115855000Y-103845750D01*
X115696250Y-103687000D01*
X114567000Y-103687000D01*
X114313000Y-103687000D01*
X114293000Y-103687000D01*
X114293000Y-103433000D01*
X114313000Y-103433000D01*
X114313000Y-102303750D01*
X114567000Y-102303750D01*
X114567000Y-103433000D01*
X115696250Y-103433000D01*
X115855000Y-103274250D01*
X115858072Y-102780000D01*
X115845812Y-102655518D01*
X115809502Y-102535820D01*
X115750537Y-102425506D01*
X115671185Y-102328815D01*
X115574494Y-102249463D01*
X115464180Y-102190498D01*
X115344482Y-102154188D01*
X115220000Y-102141928D01*
X114725750Y-102145000D01*
X114567000Y-102303750D01*
X114313000Y-102303750D01*
X114154250Y-102145000D01*
X113660000Y-102141928D01*
X113535518Y-102154188D01*
X113415820Y-102190498D01*
X113305506Y-102249463D01*
X113208815Y-102328815D01*
X113129463Y-102425506D01*
X113070498Y-102535820D01*
X113034188Y-102655518D01*
X113029469Y-102703436D01*
X112999103Y-102657990D01*
X112802010Y-102460897D01*
X112570254Y-102306043D01*
X112312740Y-102199377D01*
X112116861Y-102160415D01*
X105677928Y-95721483D01*
X105642133Y-95677867D01*
X105468089Y-95535032D01*
X105269523Y-95428897D01*
X105054067Y-95363539D01*
X104886146Y-95347000D01*
X104886139Y-95347000D01*
X104830000Y-95341471D01*
X104773861Y-95347000D01*
X102713854Y-95347000D01*
X102545933Y-95363539D01*
X102330477Y-95428897D01*
X102131911Y-95535032D01*
X101957867Y-95677867D01*
X101815032Y-95851911D01*
X101708897Y-96050477D01*
X101643539Y-96265933D01*
X101621470Y-96490000D01*
X101643539Y-96714067D01*
X101708897Y-96929523D01*
X101815032Y-97128089D01*
X101957867Y-97302133D01*
X102131911Y-97444968D01*
X102330477Y-97551103D01*
X102545933Y-97616461D01*
X102713854Y-97633000D01*
X104356555Y-97633000D01*
X108930057Y-102206503D01*
X108689746Y-102306043D01*
X108457990Y-102460897D01*
X108260897Y-102657990D01*
X108106043Y-102889746D01*
X108090000Y-102928477D01*
X108073957Y-102889746D01*
X107919103Y-102657990D01*
X107722010Y-102460897D01*
X107490254Y-102306043D01*
X107232740Y-102199377D01*
X106959365Y-102145000D01*
X106680635Y-102145000D01*
X106407260Y-102199377D01*
X106149746Y-102306043D01*
X105917990Y-102460897D01*
X105720897Y-102657990D01*
X105566043Y-102889746D01*
X105550000Y-102928477D01*
X105533957Y-102889746D01*
X105379103Y-102657990D01*
X105182010Y-102460897D01*
X104950254Y-102306043D01*
X104692740Y-102199377D01*
X104419365Y-102145000D01*
X104140635Y-102145000D01*
X103867260Y-102199377D01*
X103609746Y-102306043D01*
X103377990Y-102460897D01*
X103180897Y-102657990D01*
X103026043Y-102889746D01*
X103010000Y-102928477D01*
X102993957Y-102889746D01*
X102839103Y-102657990D01*
X102642010Y-102460897D01*
X102410254Y-102306043D01*
X102152740Y-102199377D01*
X101879365Y-102145000D01*
X101600635Y-102145000D01*
X101327260Y-102199377D01*
X101069746Y-102306043D01*
X100837990Y-102460897D01*
X100640897Y-102657990D01*
X100486043Y-102889746D01*
X100470000Y-102928477D01*
X100453957Y-102889746D01*
X100343000Y-102723687D01*
X100343000Y-97160785D01*
X105048524Y-92455262D01*
X105092133Y-92419473D01*
X105234968Y-92245429D01*
X105341103Y-92046863D01*
X105388687Y-91890001D01*
X105406461Y-91831408D01*
X105412088Y-91774275D01*
X105419208Y-91701989D01*
X105533957Y-91530254D01*
X105550000Y-91491523D01*
X105566043Y-91530254D01*
X105720897Y-91762010D01*
X105917990Y-91959103D01*
X106149746Y-92113957D01*
X106407260Y-92220623D01*
X106680635Y-92275000D01*
X106959365Y-92275000D01*
X107126879Y-92241680D01*
X109018061Y-94132863D01*
X109041859Y-94161861D01*
X109157584Y-94256834D01*
X109289613Y-94327406D01*
X109432874Y-94370863D01*
X109544527Y-94381860D01*
X109544537Y-94381860D01*
X109581860Y-94385536D01*
X109619183Y-94381860D01*
X116642658Y-94381860D01*
X116679980Y-94385536D01*
X116717302Y-94381860D01*
X116717313Y-94381860D01*
X116828966Y-94370863D01*
X116972227Y-94327406D01*
X117104256Y-94256834D01*
X117219981Y-94161861D01*
X117243784Y-94132857D01*
X121021048Y-90355594D01*
X121086401Y-90571034D01*
X121224294Y-90829014D01*
X121409866Y-91055134D01*
X121635986Y-91240706D01*
X121690791Y-91270000D01*
X121635986Y-91299294D01*
X121409866Y-91484866D01*
X121224294Y-91710986D01*
X121086401Y-91968966D01*
X121001487Y-92248889D01*
X120972815Y-92540000D01*
X121001487Y-92831111D01*
X121086401Y-93111034D01*
X121224294Y-93369014D01*
X121409866Y-93595134D01*
X121635986Y-93780706D01*
X121690791Y-93810000D01*
X121635986Y-93839294D01*
X121409866Y-94024866D01*
X121224294Y-94250986D01*
X121086401Y-94508966D01*
X121001487Y-94788889D01*
X120972815Y-95080000D01*
X121001487Y-95371111D01*
X121086401Y-95651034D01*
X121224294Y-95909014D01*
X121409866Y-96135134D01*
X121635986Y-96320706D01*
X121690791Y-96350000D01*
X121635986Y-96379294D01*
X121409866Y-96564866D01*
X121224294Y-96790986D01*
X121086401Y-97048966D01*
X121001487Y-97328889D01*
X120972815Y-97620000D01*
X121001487Y-97911111D01*
X121086401Y-98191034D01*
X121224294Y-98449014D01*
X121409866Y-98675134D01*
X121635986Y-98860706D01*
X121690791Y-98890000D01*
X121635986Y-98919294D01*
X121409866Y-99104866D01*
X121224294Y-99330986D01*
X121086401Y-99588966D01*
X121001487Y-99868889D01*
X120972815Y-100160000D01*
X121001487Y-100451111D01*
X121086401Y-100731034D01*
X121224294Y-100989014D01*
X121409866Y-101215134D01*
X121635986Y-101400706D01*
X121775615Y-101475339D01*
X121776589Y-101475990D01*
X121777672Y-101476438D01*
X121893966Y-101538599D01*
X122020157Y-101576879D01*
X122046842Y-101587932D01*
X122075170Y-101593567D01*
X122173889Y-101623513D01*
X122276551Y-101633624D01*
X122333740Y-101645000D01*
X123896260Y-101645000D01*
X123953449Y-101633624D01*
X124056111Y-101623513D01*
X124154830Y-101593567D01*
X124183158Y-101587932D01*
X124209843Y-101576879D01*
X124336034Y-101538599D01*
X124452328Y-101476438D01*
X124453411Y-101475990D01*
X124454385Y-101475339D01*
X124594014Y-101400706D01*
X124820134Y-101215134D01*
X125005706Y-100989014D01*
X125143599Y-100731034D01*
X125228513Y-100451111D01*
X125257185Y-100160000D01*
X125228513Y-99868889D01*
X125143599Y-99588966D01*
X125005706Y-99330986D01*
X124820134Y-99104866D01*
X124594014Y-98919294D01*
X124539209Y-98890000D01*
X124594014Y-98860706D01*
X124820134Y-98675134D01*
X125005706Y-98449014D01*
X125143599Y-98191034D01*
X125228513Y-97911111D01*
X125257185Y-97620000D01*
X125228513Y-97328889D01*
X125143599Y-97048966D01*
X125005706Y-96790986D01*
X124820134Y-96564866D01*
X124594014Y-96379294D01*
X124539209Y-96350000D01*
X124594014Y-96320706D01*
X124820134Y-96135134D01*
X125005706Y-95909014D01*
X125143599Y-95651034D01*
X125228513Y-95371111D01*
X125257185Y-95080000D01*
X125228513Y-94788889D01*
X125143599Y-94508966D01*
X125005706Y-94250986D01*
X124820134Y-94024866D01*
X124594014Y-93839294D01*
X124539209Y-93810000D01*
X124594014Y-93780706D01*
X124820134Y-93595134D01*
X125005706Y-93369014D01*
X125143599Y-93111034D01*
X125228513Y-92831111D01*
X125257185Y-92540000D01*
X125228513Y-92248889D01*
X125143599Y-91968966D01*
X125005706Y-91710986D01*
X124820134Y-91484866D01*
X124594014Y-91299294D01*
X124539209Y-91270000D01*
X124594014Y-91240706D01*
X124820134Y-91055134D01*
X125005706Y-90829014D01*
X125143599Y-90571034D01*
X125228513Y-90291111D01*
X125257185Y-90000000D01*
X125228513Y-89708889D01*
X125143599Y-89428966D01*
X125010272Y-89179529D01*
X125451013Y-88738789D01*
X125480011Y-88714991D01*
X125513132Y-88674633D01*
X125574984Y-88599267D01*
X125645556Y-88467237D01*
X125658053Y-88426040D01*
X125689013Y-88323976D01*
X125700010Y-88212323D01*
X125700010Y-88212314D01*
X125703686Y-88174991D01*
X125700010Y-88137668D01*
X125700010Y-87010617D01*
X125703686Y-86973294D01*
X125700010Y-86935971D01*
X125700010Y-86935962D01*
X125689013Y-86824309D01*
X125672539Y-86770000D01*
X132446324Y-86770000D01*
X132450001Y-86807333D01*
X132450000Y-105422678D01*
X132446324Y-105460000D01*
X132450000Y-105497322D01*
X132450000Y-105497332D01*
X132460997Y-105608985D01*
X132485573Y-105690001D01*
X132504454Y-105752246D01*
X132575026Y-105884276D01*
X132604344Y-105920000D01*
X132669999Y-106000001D01*
X132699003Y-106023804D01*
X137716201Y-111041003D01*
X137739999Y-111070001D01*
X137855724Y-111164974D01*
X137987753Y-111235546D01*
X138131014Y-111279003D01*
X138242667Y-111290000D01*
X138242675Y-111290000D01*
X138280000Y-111293676D01*
X138317325Y-111290000D01*
X209416798Y-111290000D01*
X209454120Y-111293676D01*
X209491442Y-111290000D01*
X209491453Y-111290000D01*
X209603106Y-111279003D01*
X209746367Y-111235546D01*
X209878396Y-111164974D01*
X209994121Y-111070001D01*
X210017924Y-111040997D01*
X212231003Y-108827919D01*
X212260001Y-108804121D01*
X212354974Y-108688396D01*
X212425546Y-108556367D01*
X212469003Y-108413106D01*
X212480000Y-108301453D01*
X212480000Y-108301444D01*
X212483676Y-108264121D01*
X212480000Y-108226798D01*
X212480000Y-89017333D01*
X212483677Y-88980000D01*
X212469003Y-88831014D01*
X212425546Y-88687753D01*
X212354974Y-88555724D01*
X212283799Y-88468997D01*
X212260001Y-88439999D01*
X212231004Y-88416202D01*
X208263804Y-84449003D01*
X208240001Y-84419999D01*
X208124276Y-84325026D01*
X207992247Y-84254454D01*
X207848986Y-84210997D01*
X207737333Y-84200000D01*
X207737322Y-84200000D01*
X207700000Y-84196324D01*
X207662678Y-84200000D01*
X197758178Y-84200000D01*
X197633475Y-84013368D01*
X197426632Y-83806525D01*
X197252240Y-83690000D01*
X197426632Y-83573475D01*
X197633475Y-83366632D01*
X197758178Y-83180000D01*
X207102678Y-83180000D01*
X207140000Y-83183676D01*
X207177322Y-83180000D01*
X207177333Y-83180000D01*
X207288986Y-83169003D01*
X207432247Y-83125546D01*
X207564276Y-83054974D01*
X207680001Y-82960001D01*
X207703804Y-82930997D01*
X212601003Y-78033799D01*
X212630001Y-78010001D01*
X212722121Y-77897753D01*
X212724974Y-77894277D01*
X212795546Y-77762247D01*
X212834980Y-77632247D01*
X212839003Y-77618986D01*
X212850000Y-77507333D01*
X212850000Y-77507324D01*
X212853676Y-77470001D01*
X212850000Y-77432678D01*
X212850000Y-61139563D01*
X212853676Y-61102240D01*
X212850000Y-61064917D01*
X212850000Y-61064907D01*
X212839003Y-60953254D01*
X212795546Y-60809993D01*
X212755169Y-60734454D01*
X212724974Y-60677963D01*
X212653799Y-60591237D01*
X212630001Y-60562239D01*
X212601004Y-60538442D01*
X207449344Y-55386783D01*
X207425541Y-55357779D01*
X207309816Y-55262806D01*
X207177787Y-55192234D01*
X207034526Y-55148777D01*
X206922873Y-55137780D01*
X206922862Y-55137780D01*
X206885540Y-55134104D01*
X206848218Y-55137780D01*
X140149545Y-55137780D01*
X140112220Y-55134104D01*
X140074895Y-55137780D01*
X140074887Y-55137780D01*
X139963234Y-55148777D01*
X139819973Y-55192234D01*
X139687944Y-55262806D01*
X139572219Y-55357779D01*
X139548421Y-55386777D01*
X134058998Y-60876201D01*
X134030000Y-60899999D01*
X134006202Y-60928997D01*
X134006201Y-60928998D01*
X133935026Y-61015724D01*
X133864454Y-61147754D01*
X133847506Y-61203627D01*
X133825383Y-61276560D01*
X133820998Y-61291015D01*
X133806324Y-61440000D01*
X133810001Y-61477333D01*
X133810000Y-76472678D01*
X133806324Y-76510000D01*
X133810000Y-76547322D01*
X133810000Y-76547332D01*
X133820997Y-76658985D01*
X133844420Y-76736201D01*
X133864454Y-76802246D01*
X133935026Y-76934276D01*
X133955315Y-76958998D01*
X134029999Y-77050001D01*
X134059003Y-77073804D01*
X137516201Y-80531003D01*
X137539999Y-80560001D01*
X137578883Y-80591912D01*
X137655724Y-80654974D01*
X137775168Y-80718819D01*
X137919866Y-80895134D01*
X138145986Y-81080706D01*
X138200791Y-81110000D01*
X138145986Y-81139294D01*
X137919866Y-81324866D01*
X137734294Y-81550986D01*
X137697405Y-81620000D01*
X137637333Y-81620000D01*
X137600000Y-81616323D01*
X137562667Y-81620000D01*
X137451014Y-81630997D01*
X137307753Y-81674454D01*
X137175724Y-81745026D01*
X137059999Y-81839999D01*
X137036201Y-81868997D01*
X132698998Y-86206201D01*
X132670000Y-86229999D01*
X132646202Y-86258997D01*
X132646201Y-86258998D01*
X132575026Y-86345724D01*
X132504454Y-86477754D01*
X132486218Y-86537872D01*
X132460998Y-86621014D01*
X132452306Y-86709266D01*
X132446324Y-86770000D01*
X125672539Y-86770000D01*
X125645556Y-86681048D01*
X125574984Y-86549019D01*
X125480011Y-86433294D01*
X125451014Y-86409497D01*
X124908715Y-85867198D01*
X125005706Y-85749014D01*
X125143599Y-85491034D01*
X125228513Y-85211111D01*
X125257185Y-84920000D01*
X125228513Y-84628889D01*
X125221892Y-84607061D01*
X130265220Y-84607061D01*
X130265220Y-84810939D01*
X130304994Y-85010898D01*
X130383015Y-85199256D01*
X130496283Y-85368774D01*
X130640446Y-85512937D01*
X130809964Y-85626205D01*
X130998322Y-85704226D01*
X131198281Y-85744000D01*
X131402159Y-85744000D01*
X131602118Y-85704226D01*
X131790476Y-85626205D01*
X131959994Y-85512937D01*
X132104157Y-85368774D01*
X132217425Y-85199256D01*
X132295446Y-85010898D01*
X132335220Y-84810939D01*
X132335220Y-84607061D01*
X132295446Y-84407102D01*
X132217425Y-84218744D01*
X132104157Y-84049226D01*
X131959994Y-83905063D01*
X131790476Y-83791795D01*
X131602118Y-83713774D01*
X131402159Y-83674000D01*
X131198281Y-83674000D01*
X130998322Y-83713774D01*
X130809964Y-83791795D01*
X130640446Y-83905063D01*
X130496283Y-84049226D01*
X130383015Y-84218744D01*
X130304994Y-84407102D01*
X130265220Y-84607061D01*
X125221892Y-84607061D01*
X125143599Y-84348966D01*
X125005706Y-84090986D01*
X124820134Y-83864866D01*
X124594014Y-83679294D01*
X124539209Y-83650000D01*
X124594014Y-83620706D01*
X124820134Y-83435134D01*
X125005706Y-83209014D01*
X125143599Y-82951034D01*
X125228513Y-82671111D01*
X125257185Y-82380000D01*
X125228513Y-82088889D01*
X125143599Y-81808966D01*
X125108500Y-81743301D01*
X125210001Y-81660001D01*
X125233804Y-81630997D01*
X125991004Y-80873798D01*
X126020001Y-80850001D01*
X126046332Y-80817917D01*
X126114974Y-80734277D01*
X126185546Y-80602247D01*
X126198361Y-80560001D01*
X126229003Y-80458986D01*
X126240000Y-80347333D01*
X126240000Y-80347323D01*
X126243676Y-80310000D01*
X126240000Y-80272678D01*
X126240000Y-78227322D01*
X126243676Y-78189999D01*
X126240000Y-78152676D01*
X126240000Y-78152667D01*
X126229003Y-78041014D01*
X126185546Y-77897753D01*
X126171264Y-77871034D01*
X126114974Y-77765723D01*
X126043799Y-77678997D01*
X126020001Y-77649999D01*
X125991003Y-77626201D01*
X125165298Y-76800497D01*
X125143599Y-76728966D01*
X125005706Y-76470986D01*
X124820134Y-76244866D01*
X124594014Y-76059294D01*
X124539209Y-76030000D01*
X124594014Y-76000706D01*
X124820134Y-75815134D01*
X125005706Y-75589014D01*
X125143599Y-75331034D01*
X125228513Y-75051111D01*
X125257185Y-74760000D01*
X125228513Y-74468889D01*
X125143599Y-74188966D01*
X125005706Y-73930986D01*
X124820134Y-73704866D01*
X124594014Y-73519294D01*
X124535663Y-73488105D01*
X124695619Y-73384176D01*
X124904857Y-73180252D01*
X125070291Y-72939426D01*
X125185563Y-72670953D01*
X125206476Y-72576890D01*
X125085155Y-72347000D01*
X123960389Y-72347000D01*
X123970611Y-72151469D01*
X123962126Y-72093000D01*
X125085155Y-72093000D01*
X125206476Y-71863110D01*
X125185563Y-71769047D01*
X125070291Y-71500574D01*
X124904857Y-71259748D01*
X124695619Y-71055824D01*
X124535663Y-70951895D01*
X124594014Y-70920706D01*
X124820134Y-70735134D01*
X125005706Y-70509014D01*
X125143599Y-70251034D01*
X125228513Y-69971111D01*
X125257185Y-69680000D01*
X125228513Y-69388889D01*
X125143599Y-69108966D01*
X125005706Y-68850986D01*
X124820134Y-68624866D01*
X124594014Y-68439294D01*
X124539209Y-68410000D01*
X124594014Y-68380706D01*
X124820134Y-68195134D01*
X125005706Y-67969014D01*
X125143599Y-67711034D01*
X125228513Y-67431111D01*
X125257185Y-67140000D01*
X125228513Y-66848889D01*
X125143599Y-66568966D01*
X125005706Y-66310986D01*
X124820134Y-66084866D01*
X124594014Y-65899294D01*
X124539209Y-65870000D01*
X124594014Y-65840706D01*
X124820134Y-65655134D01*
X125005706Y-65429014D01*
X125143599Y-65171034D01*
X125228513Y-64891111D01*
X125257185Y-64600000D01*
X125228513Y-64308889D01*
X125143599Y-64028966D01*
X125005706Y-63770986D01*
X124820134Y-63544866D01*
X124594014Y-63359294D01*
X124454385Y-63284661D01*
X124453411Y-63284010D01*
X124452328Y-63283562D01*
X124336034Y-63221401D01*
X124209843Y-63183121D01*
X124183158Y-63172068D01*
X124154830Y-63166433D01*
X124056111Y-63136487D01*
X123953449Y-63126376D01*
X123896260Y-63115000D01*
X122333740Y-63115000D01*
X122276551Y-63126376D01*
X122173889Y-63136487D01*
X122075170Y-63166433D01*
X122046842Y-63172068D01*
X122020157Y-63183121D01*
X121893966Y-63221401D01*
X121777672Y-63283562D01*
X121776589Y-63284010D01*
X121775615Y-63284661D01*
X121635986Y-63359294D01*
X121409866Y-63544866D01*
X121224294Y-63770986D01*
X121086401Y-64028966D01*
X121001487Y-64308889D01*
X120972815Y-64600000D01*
X121001487Y-64891111D01*
X121086401Y-65171034D01*
X121224294Y-65429014D01*
X121409866Y-65655134D01*
X121635986Y-65840706D01*
X121690791Y-65870000D01*
X121635986Y-65899294D01*
X121409866Y-66084866D01*
X121224294Y-66310986D01*
X121086401Y-66568966D01*
X121001487Y-66848889D01*
X120972815Y-67140000D01*
X121001487Y-67431111D01*
X121086401Y-67711034D01*
X121224294Y-67969014D01*
X121409866Y-68195134D01*
X121635986Y-68380706D01*
X121690791Y-68410000D01*
X121635986Y-68439294D01*
X121409866Y-68624866D01*
X121224294Y-68850986D01*
X121086401Y-69108966D01*
X121001487Y-69388889D01*
X120972815Y-69680000D01*
X121001487Y-69971111D01*
X121086401Y-70251034D01*
X121224294Y-70509014D01*
X121409866Y-70735134D01*
X121635986Y-70920706D01*
X121694337Y-70951895D01*
X121534381Y-71055824D01*
X121325143Y-71259748D01*
X121159709Y-71500574D01*
X121044437Y-71769047D01*
X121023524Y-71863110D01*
X121033634Y-71882267D01*
X121004661Y-71996411D01*
X120989389Y-72288531D01*
X121029574Y-72565427D01*
X121023524Y-72576890D01*
X121044437Y-72670953D01*
X121159709Y-72939426D01*
X121325143Y-73180252D01*
X121534381Y-73384176D01*
X121694337Y-73488105D01*
X121635986Y-73519294D01*
X121409866Y-73704866D01*
X121224294Y-73930986D01*
X121086401Y-74188966D01*
X121001487Y-74468889D01*
X120972815Y-74760000D01*
X121001487Y-75051111D01*
X121086401Y-75331034D01*
X121224294Y-75589014D01*
X121409866Y-75815134D01*
X121635986Y-76000706D01*
X121690791Y-76030000D01*
X121635986Y-76059294D01*
X121409866Y-76244866D01*
X121224294Y-76470986D01*
X121086401Y-76728966D01*
X121001487Y-77008889D01*
X120972815Y-77300000D01*
X121001487Y-77591111D01*
X121086401Y-77871034D01*
X121224294Y-78129014D01*
X121409866Y-78355134D01*
X121635986Y-78540706D01*
X121690791Y-78570000D01*
X121635986Y-78599294D01*
X121409866Y-78784866D01*
X121224294Y-79010986D01*
X121187405Y-79080000D01*
X117090503Y-79080000D01*
X117053180Y-79076324D01*
X117015857Y-79080000D01*
X117015847Y-79080000D01*
X116904194Y-79090997D01*
X116760933Y-79134454D01*
X116628904Y-79205026D01*
X116513179Y-79299999D01*
X116489381Y-79328997D01*
X112314454Y-83503925D01*
X112387838Y-83366632D01*
X112391103Y-83360524D01*
X112456461Y-83145068D01*
X112462323Y-83085546D01*
X112473000Y-82977146D01*
X112473000Y-82977139D01*
X112478529Y-82921000D01*
X112473000Y-82864861D01*
X112473000Y-82335696D01*
X112535537Y-82259494D01*
X112594502Y-82149180D01*
X112630812Y-82029482D01*
X112643072Y-81905000D01*
X112643072Y-80555000D01*
X112630812Y-80430518D01*
X112594502Y-80310820D01*
X112535537Y-80200506D01*
X112456185Y-80103815D01*
X112359494Y-80024463D01*
X112249180Y-79965498D01*
X112129482Y-79929188D01*
X112005000Y-79916928D01*
X110655000Y-79916928D01*
X110530518Y-79929188D01*
X110410820Y-79965498D01*
X110300506Y-80024463D01*
X110203815Y-80103815D01*
X110126881Y-80197559D01*
X109993629Y-80100527D01*
X109760528Y-79992762D01*
X109659400Y-79962090D01*
X109457000Y-80085776D01*
X109457000Y-81103000D01*
X109477000Y-81103000D01*
X109477000Y-81357000D01*
X109457000Y-81357000D01*
X109457000Y-82374224D01*
X109659400Y-82497910D01*
X109760528Y-82467238D01*
X109993629Y-82359473D01*
X110126881Y-82262441D01*
X110187000Y-82335696D01*
X110187000Y-82447554D01*
X108824715Y-83809840D01*
X95443298Y-83809840D01*
X95387159Y-83804311D01*
X95331020Y-83809840D01*
X95331014Y-83809840D01*
X95185760Y-83824146D01*
X95163092Y-83826379D01*
X95106610Y-83843513D01*
X94947637Y-83891737D01*
X94749071Y-83997872D01*
X94575027Y-84140707D01*
X94539237Y-84184317D01*
X92078642Y-86644913D01*
X92035027Y-86680707D01*
X91892192Y-86854752D01*
X91786057Y-87053318D01*
X91751343Y-87167754D01*
X91721680Y-87265541D01*
X91720699Y-87268774D01*
X91704160Y-87436695D01*
X91704160Y-87436701D01*
X91698631Y-87492840D01*
X91704160Y-87548979D01*
X91704161Y-90691012D01*
X91698631Y-90747160D01*
X91720699Y-90971227D01*
X91775984Y-91153475D01*
X91786058Y-91186683D01*
X91892193Y-91385249D01*
X92035028Y-91559293D01*
X92078638Y-91595083D01*
X94722081Y-94238528D01*
X94757867Y-94282133D01*
X94801471Y-94317918D01*
X94801477Y-94317924D01*
X94883863Y-94385536D01*
X94931911Y-94424968D01*
X95130477Y-94531103D01*
X95280574Y-94576635D01*
X95345932Y-94596461D01*
X95368600Y-94598694D01*
X95513854Y-94613000D01*
X95513860Y-94613000D01*
X95569999Y-94618529D01*
X95626138Y-94613000D01*
X99116146Y-94613000D01*
X99284067Y-94596461D01*
X99499523Y-94531103D01*
X99698089Y-94424968D01*
X99872133Y-94282133D01*
X100014968Y-94108089D01*
X100121103Y-93909523D01*
X100186461Y-93694067D01*
X100208530Y-93470000D01*
X100186461Y-93245933D01*
X100121103Y-93030477D01*
X100014968Y-92831911D01*
X99872133Y-92657867D01*
X99698089Y-92515032D01*
X99499523Y-92408897D01*
X99284067Y-92343539D01*
X99116146Y-92327000D01*
X96043447Y-92327000D01*
X93990160Y-90273715D01*
X93990160Y-87966285D01*
X95860606Y-86095840D01*
X109242021Y-86095840D01*
X109298160Y-86101369D01*
X109354299Y-86095840D01*
X109354306Y-86095840D01*
X109522227Y-86079301D01*
X109737683Y-86013943D01*
X109881086Y-85937293D01*
X108943299Y-86875080D01*
X102462253Y-86875080D01*
X102424920Y-86871403D01*
X102387587Y-86875080D01*
X102275934Y-86886077D01*
X102132673Y-86929534D01*
X102000644Y-87000106D01*
X101884919Y-87095079D01*
X101861121Y-87124077D01*
X99506879Y-89478320D01*
X99339365Y-89445000D01*
X99060635Y-89445000D01*
X98787260Y-89499377D01*
X98529746Y-89606043D01*
X98297990Y-89760897D01*
X98100897Y-89957990D01*
X97946043Y-90189746D01*
X97930000Y-90228477D01*
X97913957Y-90189746D01*
X97759103Y-89957990D01*
X97562010Y-89760897D01*
X97330254Y-89606043D01*
X97072740Y-89499377D01*
X96799365Y-89445000D01*
X96520635Y-89445000D01*
X96247260Y-89499377D01*
X95989746Y-89606043D01*
X95757990Y-89760897D01*
X95560897Y-89957990D01*
X95406043Y-90189746D01*
X95299377Y-90447260D01*
X95245000Y-90720635D01*
X95245000Y-90999365D01*
X95299377Y-91272740D01*
X95406043Y-91530254D01*
X95560897Y-91762010D01*
X95757990Y-91959103D01*
X95989746Y-92113957D01*
X96247260Y-92220623D01*
X96520635Y-92275000D01*
X96799365Y-92275000D01*
X97072740Y-92220623D01*
X97330254Y-92113957D01*
X97562010Y-91959103D01*
X97759103Y-91762010D01*
X97913957Y-91530254D01*
X97930000Y-91491523D01*
X97946043Y-91530254D01*
X98100897Y-91762010D01*
X98297990Y-91959103D01*
X98529746Y-92113957D01*
X98787260Y-92220623D01*
X99060635Y-92275000D01*
X99339365Y-92275000D01*
X99612740Y-92220623D01*
X99870254Y-92113957D01*
X100102010Y-91959103D01*
X100299103Y-91762010D01*
X100453957Y-91530254D01*
X100470000Y-91491523D01*
X100486043Y-91530254D01*
X100640897Y-91762010D01*
X100837990Y-91959103D01*
X101069746Y-92113957D01*
X101327260Y-92220623D01*
X101600635Y-92275000D01*
X101879365Y-92275000D01*
X102024828Y-92246066D01*
X98431478Y-95839417D01*
X98387868Y-95875207D01*
X98245033Y-96049251D01*
X98176488Y-96177490D01*
X98138898Y-96247817D01*
X98073539Y-96463273D01*
X98051471Y-96687340D01*
X98057001Y-96743489D01*
X98057000Y-102626469D01*
X98029502Y-102535820D01*
X97970537Y-102425506D01*
X97891185Y-102328815D01*
X97794494Y-102249463D01*
X97684180Y-102190498D01*
X97564482Y-102154188D01*
X97440000Y-102141928D01*
X96945750Y-102145000D01*
X96787000Y-102303750D01*
X96787000Y-103433000D01*
X96807000Y-103433000D01*
X96807000Y-103687000D01*
X96787000Y-103687000D01*
X96787000Y-103707000D01*
X96533000Y-103707000D01*
X96533000Y-103687000D01*
X95403750Y-103687000D01*
X95245000Y-103845750D01*
X95241928Y-104340000D01*
X95254188Y-104464482D01*
X95290498Y-104584180D01*
X95349463Y-104694494D01*
X95428815Y-104791185D01*
X95525506Y-104870537D01*
X95635820Y-104929502D01*
X95737880Y-104960461D01*
X95691911Y-104985032D01*
X95517867Y-105127867D01*
X95482077Y-105171477D01*
X93761017Y-106892538D01*
X93663892Y-106972247D01*
X93605868Y-107019866D01*
X93570078Y-107063476D01*
X91399501Y-109234054D01*
X91367887Y-109240342D01*
X91129482Y-109339093D01*
X90914923Y-109482456D01*
X90732456Y-109664923D01*
X90589093Y-109879482D01*
X90490342Y-110117887D01*
X90440000Y-110370976D01*
X90440000Y-110629024D01*
X90490342Y-110882113D01*
X90589093Y-111120518D01*
X90710697Y-111302513D01*
X90623815Y-111373815D01*
X90544463Y-111470506D01*
X90485498Y-111580820D01*
X90449188Y-111700518D01*
X90436928Y-111825000D01*
X76215000Y-111825000D01*
X76215000Y-102780000D01*
X95241928Y-102780000D01*
X95245000Y-103274250D01*
X95403750Y-103433000D01*
X96533000Y-103433000D01*
X96533000Y-102303750D01*
X96374250Y-102145000D01*
X95880000Y-102141928D01*
X95755518Y-102154188D01*
X95635820Y-102190498D01*
X95525506Y-102249463D01*
X95428815Y-102328815D01*
X95349463Y-102425506D01*
X95290498Y-102535820D01*
X95254188Y-102655518D01*
X95241928Y-102780000D01*
X76215000Y-102780000D01*
X76215000Y-81559401D01*
X108062085Y-81559401D01*
X108150711Y-81800430D01*
X108284656Y-82019537D01*
X108458773Y-82208303D01*
X108666371Y-82359473D01*
X108899472Y-82467238D01*
X109000600Y-82497910D01*
X109203000Y-82374224D01*
X109203000Y-81357000D01*
X108184915Y-81357000D01*
X108062085Y-81559401D01*
X76215000Y-81559401D01*
X76215000Y-80900599D01*
X108062085Y-80900599D01*
X108184915Y-81103000D01*
X109203000Y-81103000D01*
X109203000Y-80085776D01*
X109000600Y-79962090D01*
X108899472Y-79992762D01*
X108666371Y-80100527D01*
X108458773Y-80251697D01*
X108284656Y-80440463D01*
X108150711Y-80659570D01*
X108062085Y-80900599D01*
X76215000Y-80900599D01*
X76215000Y-63154560D01*
X112610451Y-63154560D01*
X112632519Y-63378627D01*
X112697878Y-63594083D01*
X112804013Y-63792648D01*
X112946847Y-63966693D01*
X113120892Y-64109527D01*
X113319457Y-64215662D01*
X113534913Y-64281021D01*
X113758980Y-64303089D01*
X113983047Y-64281021D01*
X114198503Y-64215662D01*
X114397068Y-64109527D01*
X114527501Y-64002484D01*
X122746506Y-55783480D01*
X135525666Y-55783480D01*
X135693587Y-55766941D01*
X135909043Y-55701583D01*
X136107609Y-55595448D01*
X136281653Y-55452613D01*
X136424488Y-55278569D01*
X136530623Y-55080003D01*
X136595981Y-54864547D01*
X136618050Y-54640480D01*
X136595981Y-54416413D01*
X136530623Y-54200957D01*
X136424488Y-54002391D01*
X136281653Y-53828347D01*
X136107609Y-53685512D01*
X135909043Y-53579377D01*
X135693587Y-53514019D01*
X135525666Y-53497480D01*
X122329198Y-53497480D01*
X122273059Y-53491951D01*
X122216920Y-53497480D01*
X122216914Y-53497480D01*
X122071660Y-53511786D01*
X122048992Y-53514019D01*
X121984957Y-53533444D01*
X121833537Y-53579377D01*
X121634971Y-53685512D01*
X121460927Y-53828347D01*
X121425137Y-53871957D01*
X112911056Y-62386039D01*
X112804013Y-62516472D01*
X112697878Y-62715037D01*
X112632519Y-62930493D01*
X112610451Y-63154560D01*
X76215000Y-63154560D01*
X76215000Y-54745000D01*
X90286928Y-54745000D01*
X90286928Y-56095000D01*
X90299188Y-56219482D01*
X90335498Y-56339180D01*
X90394463Y-56449494D01*
X90473815Y-56546185D01*
X90570506Y-56625537D01*
X90680820Y-56684502D01*
X90800518Y-56720812D01*
X90925000Y-56733072D01*
X92275000Y-56733072D01*
X92399482Y-56720812D01*
X92519180Y-56684502D01*
X92629494Y-56625537D01*
X92726185Y-56546185D01*
X92805537Y-56449494D01*
X92864502Y-56339180D01*
X92900812Y-56219482D01*
X92913072Y-56095000D01*
X92913072Y-54745000D01*
X92900812Y-54620518D01*
X92864502Y-54500820D01*
X92805537Y-54390506D01*
X92726185Y-54293815D01*
X92639303Y-54222513D01*
X92760907Y-54040518D01*
X92859658Y-53802113D01*
X92910000Y-53549024D01*
X92910000Y-53440000D01*
X102776565Y-53440000D01*
X102780001Y-53474887D01*
X102780000Y-57775123D01*
X102776565Y-57810000D01*
X102790273Y-57949184D01*
X102830872Y-58083020D01*
X102896800Y-58206363D01*
X102985525Y-58314475D01*
X103093637Y-58403200D01*
X103216980Y-58469128D01*
X103350816Y-58509727D01*
X103490000Y-58523435D01*
X103524877Y-58520000D01*
X107475123Y-58520000D01*
X107510000Y-58523435D01*
X107544877Y-58520000D01*
X107649184Y-58509727D01*
X107783020Y-58469128D01*
X107906363Y-58403200D01*
X108014475Y-58314475D01*
X108103200Y-58206363D01*
X108169128Y-58083020D01*
X108209727Y-57949184D01*
X108223435Y-57810000D01*
X108220000Y-57775123D01*
X108220000Y-53474877D01*
X108223435Y-53440000D01*
X108209727Y-53300816D01*
X108169128Y-53166980D01*
X108103200Y-53043637D01*
X108014475Y-52935525D01*
X107906363Y-52846800D01*
X107783020Y-52780872D01*
X107649184Y-52740273D01*
X107544877Y-52730000D01*
X107510000Y-52726565D01*
X107475123Y-52730000D01*
X103524877Y-52730000D01*
X103490000Y-52726565D01*
X103455123Y-52730000D01*
X103350816Y-52740273D01*
X103216980Y-52780872D01*
X103093637Y-52846800D01*
X102985525Y-52935525D01*
X102896800Y-53043637D01*
X102830872Y-53166980D01*
X102790273Y-53300816D01*
X102776565Y-53440000D01*
X92910000Y-53440000D01*
X92910000Y-53290976D01*
X92859658Y-53037887D01*
X92760907Y-52799482D01*
X92617544Y-52584923D01*
X92435077Y-52402456D01*
X92220518Y-52259093D01*
X91982113Y-52160342D01*
X91729024Y-52110000D01*
X91470976Y-52110000D01*
X91217887Y-52160342D01*
X90979482Y-52259093D01*
X90764923Y-52402456D01*
X90582456Y-52584923D01*
X90439093Y-52799482D01*
X90340342Y-53037887D01*
X90290000Y-53290976D01*
X90290000Y-53549024D01*
X90340342Y-53802113D01*
X90439093Y-54040518D01*
X90560697Y-54222513D01*
X90473815Y-54293815D01*
X90394463Y-54390506D01*
X90335498Y-54500820D01*
X90299188Y-54620518D01*
X90286928Y-54745000D01*
X76215000Y-54745000D01*
X76215000Y-46072491D01*
X95084894Y-46072491D01*
X95084894Y-46419667D01*
X95152625Y-46760173D01*
X95285483Y-47080923D01*
X95478364Y-47369590D01*
X95723855Y-47615081D01*
X96012522Y-47807962D01*
X96333272Y-47940820D01*
X96673778Y-48008551D01*
X97020954Y-48008551D01*
X97361460Y-47940820D01*
X97682210Y-47807962D01*
X97970877Y-47615081D01*
X98216368Y-47369590D01*
X98409249Y-47080923D01*
X98542107Y-46760173D01*
X98609838Y-46419667D01*
X98609838Y-46072491D01*
X113084894Y-46072491D01*
X113084894Y-46419667D01*
X113152625Y-46760173D01*
X113285483Y-47080923D01*
X113478364Y-47369590D01*
X113723855Y-47615081D01*
X114012522Y-47807962D01*
X114333272Y-47940820D01*
X114673778Y-48008551D01*
X115020954Y-48008551D01*
X115361460Y-47940820D01*
X115682210Y-47807962D01*
X115970877Y-47615081D01*
X116216368Y-47369590D01*
X116409249Y-47080923D01*
X116542107Y-46760173D01*
X116609838Y-46419667D01*
X116609838Y-46072491D01*
X116542107Y-45731985D01*
X116409249Y-45411235D01*
X116216368Y-45122568D01*
X115970877Y-44877077D01*
X115682210Y-44684196D01*
X115361460Y-44551338D01*
X115020954Y-44483607D01*
X114673778Y-44483607D01*
X114333272Y-44551338D01*
X114012522Y-44684196D01*
X113723855Y-44877077D01*
X113478364Y-45122568D01*
X113285483Y-45411235D01*
X113152625Y-45731985D01*
X113084894Y-46072491D01*
X98609838Y-46072491D01*
X98542107Y-45731985D01*
X98409249Y-45411235D01*
X98216368Y-45122568D01*
X97970877Y-44877077D01*
X97682210Y-44684196D01*
X97361460Y-44551338D01*
X97020954Y-44483607D01*
X96673778Y-44483607D01*
X96333272Y-44551338D01*
X96012522Y-44684196D01*
X95723855Y-44877077D01*
X95478364Y-45122568D01*
X95285483Y-45411235D01*
X95152625Y-45731985D01*
X95084894Y-46072491D01*
X76215000Y-46072491D01*
X76215000Y-45898972D01*
X99502404Y-35079692D01*
X110999194Y-35079692D01*
X137925804Y-46614890D01*
X138092780Y-47231630D01*
X138106080Y-47270811D01*
X138118852Y-47310122D01*
X138581146Y-48477745D01*
X138601953Y-48521962D01*
X138620447Y-48561263D01*
X139225439Y-49661739D01*
X139274897Y-49739672D01*
X139274903Y-49739679D01*
X140013044Y-50755644D01*
X140039681Y-50787842D01*
X140071879Y-50826763D01*
X140931540Y-51742209D01*
X140998825Y-51805394D01*
X141966443Y-52605878D01*
X142041117Y-52660132D01*
X143101426Y-53333024D01*
X143101433Y-53333029D01*
X143182318Y-53377496D01*
X144318609Y-53912194D01*
X144404429Y-53946173D01*
X145598777Y-54334240D01*
X145688179Y-54357194D01*
X146921746Y-54592509D01*
X147013320Y-54604078D01*
X148253706Y-54682117D01*
X148276698Y-54684381D01*
X188234078Y-54684381D01*
X188245591Y-54683247D01*
X188848965Y-54664285D01*
X188883442Y-54661026D01*
X188917997Y-54658852D01*
X190163904Y-54501458D01*
X190163906Y-54501458D01*
X190254573Y-54484163D01*
X191470931Y-54171854D01*
X191499453Y-54162587D01*
X191558714Y-54143332D01*
X192726337Y-53681038D01*
X192776406Y-53657477D01*
X192809855Y-53641737D01*
X193910331Y-53036745D01*
X193988264Y-52987287D01*
X193988271Y-52987281D01*
X195004236Y-52249140D01*
X195036633Y-52222338D01*
X195075355Y-52190305D01*
X195990801Y-51330644D01*
X196013941Y-51306002D01*
X196053986Y-51263359D01*
X196854470Y-50295741D01*
X196908724Y-50221067D01*
X197581616Y-49160758D01*
X197581621Y-49160751D01*
X197626088Y-49079866D01*
X198160786Y-47943575D01*
X198163546Y-47936603D01*
X198194765Y-47857755D01*
X198582832Y-46663407D01*
X198605786Y-46574005D01*
X198841101Y-45340438D01*
X198852670Y-45248864D01*
X198931523Y-43995532D01*
X199007473Y-42788347D01*
X199225456Y-41645636D01*
X199584945Y-40539241D01*
X200080265Y-39486633D01*
X200703604Y-38504407D01*
X201445139Y-37608046D01*
X202293168Y-36811694D01*
X203234319Y-36127908D01*
X204253747Y-35567473D01*
X205335378Y-35139225D01*
X206462158Y-34849916D01*
X207627798Y-34702662D01*
X208209509Y-34684381D01*
X220674869Y-34684381D01*
X221859007Y-34758881D01*
G37*
X221859007Y-34758881D02*
X223001718Y-34976864D01*
X224108113Y-35336353D01*
X225160721Y-35831673D01*
X226142947Y-36455012D01*
X227039308Y-37196547D01*
X227835660Y-38044576D01*
X228519446Y-38985727D01*
X229079881Y-40005155D01*
X229508129Y-41086786D01*
X229797438Y-42213566D01*
X229944692Y-43379206D01*
X229962973Y-43960918D01*
X229962974Y-45609692D01*
X218234078Y-45609692D01*
X218197973Y-45606136D01*
X218161868Y-45609692D01*
X218053888Y-45620327D01*
X217915340Y-45662355D01*
X217787653Y-45730605D01*
X217675735Y-45822454D01*
X217583886Y-45934372D01*
X217515636Y-46062059D01*
X217473608Y-46200607D01*
X217459417Y-46344692D01*
X217462973Y-46380797D01*
X217462973Y-46957508D01*
X217283587Y-46883204D01*
X216890430Y-46805000D01*
X216489570Y-46805000D01*
X216096413Y-46883204D01*
X215726066Y-47036607D01*
X215392763Y-47259313D01*
X215109313Y-47542763D01*
X214886607Y-47876066D01*
X214733204Y-48246413D01*
X214655000Y-48639570D01*
X214655000Y-49040430D01*
X214733204Y-49433587D01*
X214886607Y-49803934D01*
X215109313Y-50137237D01*
X215392763Y-50420687D01*
X215726066Y-50643393D01*
X216096413Y-50796796D01*
X216489570Y-50875000D01*
X216890430Y-50875000D01*
X217283587Y-50796796D01*
X217462973Y-50722492D01*
X217462974Y-61309394D01*
X217397498Y-61265645D01*
X217076748Y-61132787D01*
X216736242Y-61065056D01*
X216389066Y-61065056D01*
X216048560Y-61132787D01*
X215727810Y-61265645D01*
X215439143Y-61458526D01*
X215193652Y-61704017D01*
X215000771Y-61992684D01*
X214867913Y-62313434D01*
X214800182Y-62653940D01*
X214800182Y-63001116D01*
X214867913Y-63341622D01*
X215000771Y-63662372D01*
X215193652Y-63951039D01*
X215439143Y-64196530D01*
X215727810Y-64389411D01*
X216048560Y-64522269D01*
X216389066Y-64590000D01*
X216736242Y-64590000D01*
X217076748Y-64522269D01*
X217397498Y-64389411D01*
X217462974Y-64345662D01*
X217462974Y-66405640D01*
X217373100Y-66345588D01*
X217052350Y-66212730D01*
X216711844Y-66144999D01*
X216364668Y-66144999D01*
X216024162Y-66212730D01*
X215703412Y-66345588D01*
X215414745Y-66538469D01*
X215169254Y-66783960D01*
X214976373Y-67072627D01*
X214843515Y-67393377D01*
X214775784Y-67733883D01*
X214775784Y-68081059D01*
X214843515Y-68421565D01*
X214976373Y-68742315D01*
X215169254Y-69030982D01*
X215414745Y-69276473D01*
X215487371Y-69325000D01*
X213646105Y-69325000D01*
X213610000Y-69321444D01*
X213573895Y-69325000D01*
X213465915Y-69335635D01*
X213327367Y-69377663D01*
X213199680Y-69445913D01*
X213087762Y-69537762D01*
X212995913Y-69649680D01*
X212927663Y-69777367D01*
X212885635Y-69915915D01*
X212871444Y-70060000D01*
X212875000Y-70096105D01*
X212875001Y-105308577D01*
X212871444Y-105344692D01*
X212885635Y-105488777D01*
X212927663Y-105627325D01*
X212995913Y-105755012D01*
X213087762Y-105866930D01*
X213199680Y-105958779D01*
X213327367Y-106027029D01*
X213465915Y-106069057D01*
X213573895Y-106079692D01*
X213610000Y-106083248D01*
X213646105Y-106079692D01*
X217462974Y-106079692D01*
X217462973Y-116807508D01*
X217283587Y-116733204D01*
X216890430Y-116655000D01*
X216489570Y-116655000D01*
X216096413Y-116733204D01*
X215726066Y-116886607D01*
X215392763Y-117109313D01*
X215182881Y-117319195D01*
X215155029Y-117337805D01*
X214909538Y-117583296D01*
X214716657Y-117871963D01*
X214583799Y-118192713D01*
X214516068Y-118533219D01*
X214516068Y-118880395D01*
X214583799Y-119220901D01*
X214716657Y-119541651D01*
X214909538Y-119830318D01*
X215155029Y-120075809D01*
X215284183Y-120162107D01*
X215392763Y-120270687D01*
X215726066Y-120493393D01*
X216096413Y-120646796D01*
X216489570Y-120725000D01*
X216890430Y-120725000D01*
X217283587Y-120646796D01*
X217494981Y-120559234D01*
X217515636Y-120627325D01*
X217583886Y-120755012D01*
X217675735Y-120866930D01*
X217773461Y-120947132D01*
X217787653Y-120958779D01*
X217915340Y-121027029D01*
X218053888Y-121069057D01*
X218197973Y-121083248D01*
X218234078Y-121079692D01*
X229962974Y-121079692D01*
X229962973Y-122716884D01*
X229888472Y-123901038D01*
X229670488Y-125043756D01*
X229311002Y-126150138D01*
X228815680Y-127202751D01*
X228192338Y-128184980D01*
X227450807Y-129081338D01*
X226602781Y-129877687D01*
X225661624Y-130561477D01*
X224642204Y-131121909D01*
X223560568Y-131550159D01*
X222433783Y-131839468D01*
X221268148Y-131986722D01*
X220686437Y-132005003D01*
X208221061Y-132005003D01*
X207036939Y-131930504D01*
X205894221Y-131712520D01*
X204787831Y-131353031D01*
X203735225Y-130857712D01*
X202752996Y-130234370D01*
X201856638Y-129492838D01*
X201060290Y-128644813D01*
X200376502Y-127703662D01*
X199816066Y-126684233D01*
X199387818Y-125602600D01*
X199098508Y-124475814D01*
X198951254Y-123310179D01*
X198932610Y-122716917D01*
X198912877Y-122089012D01*
X198909618Y-122054537D01*
X198907444Y-122019979D01*
X198750050Y-120774072D01*
X198746414Y-120755011D01*
X198732755Y-120683404D01*
X198420447Y-119467047D01*
X198403419Y-119414641D01*
X198391924Y-119379263D01*
X197929630Y-118211640D01*
X197890329Y-118128122D01*
X197285337Y-117027647D01*
X197243342Y-116961473D01*
X197235880Y-116949714D01*
X196497732Y-115933742D01*
X196438897Y-115862622D01*
X195579236Y-114947176D01*
X195550729Y-114920406D01*
X195511951Y-114883991D01*
X194544333Y-114083507D01*
X194469659Y-114029253D01*
X193409343Y-113356356D01*
X193328458Y-113311889D01*
X192192167Y-112777191D01*
X192122514Y-112749614D01*
X192106347Y-112743213D01*
X190912000Y-112355145D01*
X190822597Y-112332191D01*
X189589030Y-112096876D01*
X189587083Y-112096630D01*
X189497456Y-112085307D01*
X188257070Y-112007268D01*
X188234078Y-112005004D01*
X148276698Y-112005004D01*
X148258471Y-112006799D01*
X147282740Y-112055389D01*
X147241635Y-112060037D01*
X147200495Y-112064144D01*
X145961198Y-112267126D01*
X145871226Y-112287735D01*
X144667141Y-112644442D01*
X144580461Y-112676165D01*
X143430578Y-113180971D01*
X143367192Y-113213690D01*
X143348559Y-113223308D01*
X142271012Y-113868252D01*
X142247227Y-113884600D01*
X142194944Y-113920535D01*
X141206728Y-114695446D01*
X141137813Y-114756850D01*
X140254511Y-115649507D01*
X140193836Y-115719065D01*
X139429378Y-116715389D01*
X139388278Y-116776558D01*
X139377900Y-116792003D01*
X138744342Y-117876284D01*
X138702871Y-117958745D01*
X138210206Y-119113882D01*
X138197553Y-119149618D01*
X138179398Y-119200891D01*
X137931238Y-120072167D01*
X110999194Y-131609692D01*
X99502404Y-131609692D01*
X76215000Y-120790412D01*
X76215000Y-119785159D01*
X95084894Y-119785159D01*
X95084894Y-120132335D01*
X95152625Y-120472841D01*
X95285483Y-120793591D01*
X95478364Y-121082258D01*
X95723855Y-121327749D01*
X96012522Y-121520630D01*
X96333272Y-121653488D01*
X96673778Y-121721219D01*
X97020954Y-121721219D01*
X97361460Y-121653488D01*
X97682210Y-121520630D01*
X97970877Y-121327749D01*
X98216368Y-121082258D01*
X98409249Y-120793591D01*
X98542107Y-120472841D01*
X98609838Y-120132335D01*
X98609838Y-119785159D01*
X113084894Y-119785159D01*
X113084894Y-120132335D01*
X113152625Y-120472841D01*
X113285483Y-120793591D01*
X113478364Y-121082258D01*
X113723855Y-121327749D01*
X114012522Y-121520630D01*
X114333272Y-121653488D01*
X114673778Y-121721219D01*
X115020954Y-121721219D01*
X115361460Y-121653488D01*
X115682210Y-121520630D01*
X115970877Y-121327749D01*
X116216368Y-121082258D01*
X116409249Y-120793591D01*
X116542107Y-120472841D01*
X116609838Y-120132335D01*
X116609838Y-119785159D01*
X116542107Y-119444653D01*
X116409249Y-119123903D01*
X116216368Y-118835236D01*
X115970877Y-118589745D01*
X115682210Y-118396864D01*
X115361460Y-118264006D01*
X115020954Y-118196275D01*
X114673778Y-118196275D01*
X114333272Y-118264006D01*
X114012522Y-118396864D01*
X113723855Y-118589745D01*
X113478364Y-118835236D01*
X113285483Y-119123903D01*
X113152625Y-119444653D01*
X113084894Y-119785159D01*
X98609838Y-119785159D01*
X98542107Y-119444653D01*
X98409249Y-119123903D01*
X98216368Y-118835236D01*
X97970877Y-118589745D01*
X97682210Y-118396864D01*
X97361460Y-118264006D01*
X97020954Y-118196275D01*
X96673778Y-118196275D01*
X96333272Y-118264006D01*
X96012522Y-118396864D01*
X95723855Y-118589745D01*
X95478364Y-118835236D01*
X95285483Y-119123903D01*
X95152625Y-119444653D01*
X95084894Y-119785159D01*
X76215000Y-119785159D01*
X76215000Y-111825000D01*
X90436928Y-111825000D01*
X90436928Y-113175000D01*
X90449188Y-113299482D01*
X90485498Y-113419180D01*
X90544463Y-113529494D01*
X90623815Y-113626185D01*
X90720506Y-113705537D01*
X90830820Y-113764502D01*
X90950518Y-113800812D01*
X91075000Y-113813072D01*
X92425000Y-113813072D01*
X92549482Y-113800812D01*
X92669180Y-113764502D01*
X92779494Y-113705537D01*
X92876185Y-113626185D01*
X92955537Y-113529494D01*
X93014502Y-113419180D01*
X93050812Y-113299482D01*
X93063072Y-113175000D01*
X93063072Y-112803373D01*
X96616445Y-109250000D01*
X102786565Y-109250000D01*
X102790001Y-109284887D01*
X102790000Y-113585123D01*
X102786565Y-113620000D01*
X102800273Y-113759184D01*
X102840872Y-113893020D01*
X102906800Y-114016363D01*
X102995525Y-114124475D01*
X103100435Y-114210572D01*
X103103637Y-114213200D01*
X103226980Y-114279128D01*
X103360816Y-114319727D01*
X103500000Y-114333435D01*
X103534877Y-114330000D01*
X107485123Y-114330000D01*
X107520000Y-114333435D01*
X107554877Y-114330000D01*
X107659184Y-114319727D01*
X107793020Y-114279128D01*
X107916363Y-114213200D01*
X108024475Y-114124475D01*
X108113200Y-114016363D01*
X108179128Y-113893020D01*
X108219727Y-113759184D01*
X108233435Y-113620000D01*
X108230000Y-113585123D01*
X108230000Y-109284877D01*
X108233435Y-109250000D01*
X108219727Y-109110816D01*
X108179128Y-108976980D01*
X108113200Y-108853637D01*
X108024475Y-108745525D01*
X107916363Y-108656800D01*
X107793020Y-108590872D01*
X107659184Y-108550273D01*
X107554877Y-108540000D01*
X107520000Y-108536565D01*
X107485123Y-108540000D01*
X103534877Y-108540000D01*
X103500000Y-108536565D01*
X103465123Y-108540000D01*
X103360816Y-108550273D01*
X103226980Y-108590872D01*
X103103637Y-108656800D01*
X102995525Y-108745525D01*
X102906800Y-108853637D01*
X102840872Y-108976980D01*
X102800273Y-109110816D01*
X102786565Y-109250000D01*
X96616445Y-109250000D01*
X97567436Y-108299010D01*
X105707851Y-108299010D01*
X105763990Y-108304539D01*
X105820129Y-108299010D01*
X105820136Y-108299010D01*
X105988057Y-108282471D01*
X106203513Y-108217113D01*
X106402079Y-108110978D01*
X106576123Y-107968143D01*
X106611917Y-107924528D01*
X109576860Y-104959585D01*
X109772740Y-104920623D01*
X110030254Y-104813957D01*
X110262010Y-104659103D01*
X110459103Y-104462010D01*
X110613957Y-104230254D01*
X110630000Y-104191523D01*
X110646043Y-104230254D01*
X110800897Y-104462010D01*
X110997990Y-104659103D01*
X111229746Y-104813957D01*
X111487260Y-104920623D01*
X111760635Y-104975000D01*
X112039365Y-104975000D01*
X112312740Y-104920623D01*
X112570254Y-104813957D01*
X112802010Y-104659103D01*
X112999103Y-104462010D01*
X113029469Y-104416564D01*
X113034188Y-104464482D01*
X113070498Y-104584180D01*
X113129463Y-104694494D01*
X113208815Y-104791185D01*
X113305506Y-104870537D01*
X113415820Y-104929502D01*
X113535518Y-104965812D01*
X113660000Y-104978072D01*
X114154250Y-104975000D01*
X114313000Y-104816250D01*
X114313000Y-103687000D01*
X114567000Y-103687000D01*
X114567000Y-104816250D01*
X114725750Y-104975000D01*
X115220000Y-104978072D01*
X115344482Y-104965812D01*
X115464180Y-104929502D01*
X115574494Y-104870537D01*
X115671185Y-104791185D01*
X115750537Y-104694494D01*
X115809502Y-104584180D01*
X115845812Y-104464482D01*
X115858072Y-104340000D01*
X115855000Y-103845750D01*
X115696250Y-103687000D01*
X114567000Y-103687000D01*
X114313000Y-103687000D01*
X114293000Y-103687000D01*
X114293000Y-103433000D01*
X114313000Y-103433000D01*
X114313000Y-102303750D01*
X114567000Y-102303750D01*
X114567000Y-103433000D01*
X115696250Y-103433000D01*
X115855000Y-103274250D01*
X115858072Y-102780000D01*
X115845812Y-102655518D01*
X115809502Y-102535820D01*
X115750537Y-102425506D01*
X115671185Y-102328815D01*
X115574494Y-102249463D01*
X115464180Y-102190498D01*
X115344482Y-102154188D01*
X115220000Y-102141928D01*
X114725750Y-102145000D01*
X114567000Y-102303750D01*
X114313000Y-102303750D01*
X114154250Y-102145000D01*
X113660000Y-102141928D01*
X113535518Y-102154188D01*
X113415820Y-102190498D01*
X113305506Y-102249463D01*
X113208815Y-102328815D01*
X113129463Y-102425506D01*
X113070498Y-102535820D01*
X113034188Y-102655518D01*
X113029469Y-102703436D01*
X112999103Y-102657990D01*
X112802010Y-102460897D01*
X112570254Y-102306043D01*
X112312740Y-102199377D01*
X112116861Y-102160415D01*
X105677928Y-95721483D01*
X105642133Y-95677867D01*
X105468089Y-95535032D01*
X105269523Y-95428897D01*
X105054067Y-95363539D01*
X104886146Y-95347000D01*
X104886139Y-95347000D01*
X104830000Y-95341471D01*
X104773861Y-95347000D01*
X102713854Y-95347000D01*
X102545933Y-95363539D01*
X102330477Y-95428897D01*
X102131911Y-95535032D01*
X101957867Y-95677867D01*
X101815032Y-95851911D01*
X101708897Y-96050477D01*
X101643539Y-96265933D01*
X101621470Y-96490000D01*
X101643539Y-96714067D01*
X101708897Y-96929523D01*
X101815032Y-97128089D01*
X101957867Y-97302133D01*
X102131911Y-97444968D01*
X102330477Y-97551103D01*
X102545933Y-97616461D01*
X102713854Y-97633000D01*
X104356555Y-97633000D01*
X108930057Y-102206503D01*
X108689746Y-102306043D01*
X108457990Y-102460897D01*
X108260897Y-102657990D01*
X108106043Y-102889746D01*
X108090000Y-102928477D01*
X108073957Y-102889746D01*
X107919103Y-102657990D01*
X107722010Y-102460897D01*
X107490254Y-102306043D01*
X107232740Y-102199377D01*
X106959365Y-102145000D01*
X106680635Y-102145000D01*
X106407260Y-102199377D01*
X106149746Y-102306043D01*
X105917990Y-102460897D01*
X105720897Y-102657990D01*
X105566043Y-102889746D01*
X105550000Y-102928477D01*
X105533957Y-102889746D01*
X105379103Y-102657990D01*
X105182010Y-102460897D01*
X104950254Y-102306043D01*
X104692740Y-102199377D01*
X104419365Y-102145000D01*
X104140635Y-102145000D01*
X103867260Y-102199377D01*
X103609746Y-102306043D01*
X103377990Y-102460897D01*
X103180897Y-102657990D01*
X103026043Y-102889746D01*
X103010000Y-102928477D01*
X102993957Y-102889746D01*
X102839103Y-102657990D01*
X102642010Y-102460897D01*
X102410254Y-102306043D01*
X102152740Y-102199377D01*
X101879365Y-102145000D01*
X101600635Y-102145000D01*
X101327260Y-102199377D01*
X101069746Y-102306043D01*
X100837990Y-102460897D01*
X100640897Y-102657990D01*
X100486043Y-102889746D01*
X100470000Y-102928477D01*
X100453957Y-102889746D01*
X100343000Y-102723687D01*
X100343000Y-97160785D01*
X105048524Y-92455262D01*
X105092133Y-92419473D01*
X105234968Y-92245429D01*
X105341103Y-92046863D01*
X105388687Y-91890001D01*
X105406461Y-91831408D01*
X105412088Y-91774275D01*
X105419208Y-91701989D01*
X105533957Y-91530254D01*
X105550000Y-91491523D01*
X105566043Y-91530254D01*
X105720897Y-91762010D01*
X105917990Y-91959103D01*
X106149746Y-92113957D01*
X106407260Y-92220623D01*
X106680635Y-92275000D01*
X106959365Y-92275000D01*
X107126879Y-92241680D01*
X109018061Y-94132863D01*
X109041859Y-94161861D01*
X109157584Y-94256834D01*
X109289613Y-94327406D01*
X109432874Y-94370863D01*
X109544527Y-94381860D01*
X109544537Y-94381860D01*
X109581860Y-94385536D01*
X109619183Y-94381860D01*
X116642658Y-94381860D01*
X116679980Y-94385536D01*
X116717302Y-94381860D01*
X116717313Y-94381860D01*
X116828966Y-94370863D01*
X116972227Y-94327406D01*
X117104256Y-94256834D01*
X117219981Y-94161861D01*
X117243784Y-94132857D01*
X121021048Y-90355594D01*
X121086401Y-90571034D01*
X121224294Y-90829014D01*
X121409866Y-91055134D01*
X121635986Y-91240706D01*
X121690791Y-91270000D01*
X121635986Y-91299294D01*
X121409866Y-91484866D01*
X121224294Y-91710986D01*
X121086401Y-91968966D01*
X121001487Y-92248889D01*
X120972815Y-92540000D01*
X121001487Y-92831111D01*
X121086401Y-93111034D01*
X121224294Y-93369014D01*
X121409866Y-93595134D01*
X121635986Y-93780706D01*
X121690791Y-93810000D01*
X121635986Y-93839294D01*
X121409866Y-94024866D01*
X121224294Y-94250986D01*
X121086401Y-94508966D01*
X121001487Y-94788889D01*
X120972815Y-95080000D01*
X121001487Y-95371111D01*
X121086401Y-95651034D01*
X121224294Y-95909014D01*
X121409866Y-96135134D01*
X121635986Y-96320706D01*
X121690791Y-96350000D01*
X121635986Y-96379294D01*
X121409866Y-96564866D01*
X121224294Y-96790986D01*
X121086401Y-97048966D01*
X121001487Y-97328889D01*
X120972815Y-97620000D01*
X121001487Y-97911111D01*
X121086401Y-98191034D01*
X121224294Y-98449014D01*
X121409866Y-98675134D01*
X121635986Y-98860706D01*
X121690791Y-98890000D01*
X121635986Y-98919294D01*
X121409866Y-99104866D01*
X121224294Y-99330986D01*
X121086401Y-99588966D01*
X121001487Y-99868889D01*
X120972815Y-100160000D01*
X121001487Y-100451111D01*
X121086401Y-100731034D01*
X121224294Y-100989014D01*
X121409866Y-101215134D01*
X121635986Y-101400706D01*
X121775615Y-101475339D01*
X121776589Y-101475990D01*
X121777672Y-101476438D01*
X121893966Y-101538599D01*
X122020157Y-101576879D01*
X122046842Y-101587932D01*
X122075170Y-101593567D01*
X122173889Y-101623513D01*
X122276551Y-101633624D01*
X122333740Y-101645000D01*
X123896260Y-101645000D01*
X123953449Y-101633624D01*
X124056111Y-101623513D01*
X124154830Y-101593567D01*
X124183158Y-101587932D01*
X124209843Y-101576879D01*
X124336034Y-101538599D01*
X124452328Y-101476438D01*
X124453411Y-101475990D01*
X124454385Y-101475339D01*
X124594014Y-101400706D01*
X124820134Y-101215134D01*
X125005706Y-100989014D01*
X125143599Y-100731034D01*
X125228513Y-100451111D01*
X125257185Y-100160000D01*
X125228513Y-99868889D01*
X125143599Y-99588966D01*
X125005706Y-99330986D01*
X124820134Y-99104866D01*
X124594014Y-98919294D01*
X124539209Y-98890000D01*
X124594014Y-98860706D01*
X124820134Y-98675134D01*
X125005706Y-98449014D01*
X125143599Y-98191034D01*
X125228513Y-97911111D01*
X125257185Y-97620000D01*
X125228513Y-97328889D01*
X125143599Y-97048966D01*
X125005706Y-96790986D01*
X124820134Y-96564866D01*
X124594014Y-96379294D01*
X124539209Y-96350000D01*
X124594014Y-96320706D01*
X124820134Y-96135134D01*
X125005706Y-95909014D01*
X125143599Y-95651034D01*
X125228513Y-95371111D01*
X125257185Y-95080000D01*
X125228513Y-94788889D01*
X125143599Y-94508966D01*
X125005706Y-94250986D01*
X124820134Y-94024866D01*
X124594014Y-93839294D01*
X124539209Y-93810000D01*
X124594014Y-93780706D01*
X124820134Y-93595134D01*
X125005706Y-93369014D01*
X125143599Y-93111034D01*
X125228513Y-92831111D01*
X125257185Y-92540000D01*
X125228513Y-92248889D01*
X125143599Y-91968966D01*
X125005706Y-91710986D01*
X124820134Y-91484866D01*
X124594014Y-91299294D01*
X124539209Y-91270000D01*
X124594014Y-91240706D01*
X124820134Y-91055134D01*
X125005706Y-90829014D01*
X125143599Y-90571034D01*
X125228513Y-90291111D01*
X125257185Y-90000000D01*
X125228513Y-89708889D01*
X125143599Y-89428966D01*
X125010272Y-89179529D01*
X125451013Y-88738789D01*
X125480011Y-88714991D01*
X125513132Y-88674633D01*
X125574984Y-88599267D01*
X125645556Y-88467237D01*
X125658053Y-88426040D01*
X125689013Y-88323976D01*
X125700010Y-88212323D01*
X125700010Y-88212314D01*
X125703686Y-88174991D01*
X125700010Y-88137668D01*
X125700010Y-87010617D01*
X125703686Y-86973294D01*
X125700010Y-86935971D01*
X125700010Y-86935962D01*
X125689013Y-86824309D01*
X125672539Y-86770000D01*
X132446324Y-86770000D01*
X132450001Y-86807333D01*
X132450000Y-105422678D01*
X132446324Y-105460000D01*
X132450000Y-105497322D01*
X132450000Y-105497332D01*
X132460997Y-105608985D01*
X132485573Y-105690001D01*
X132504454Y-105752246D01*
X132575026Y-105884276D01*
X132604344Y-105920000D01*
X132669999Y-106000001D01*
X132699003Y-106023804D01*
X137716201Y-111041003D01*
X137739999Y-111070001D01*
X137855724Y-111164974D01*
X137987753Y-111235546D01*
X138131014Y-111279003D01*
X138242667Y-111290000D01*
X138242675Y-111290000D01*
X138280000Y-111293676D01*
X138317325Y-111290000D01*
X209416798Y-111290000D01*
X209454120Y-111293676D01*
X209491442Y-111290000D01*
X209491453Y-111290000D01*
X209603106Y-111279003D01*
X209746367Y-111235546D01*
X209878396Y-111164974D01*
X209994121Y-111070001D01*
X210017924Y-111040997D01*
X212231003Y-108827919D01*
X212260001Y-108804121D01*
X212354974Y-108688396D01*
X212425546Y-108556367D01*
X212469003Y-108413106D01*
X212480000Y-108301453D01*
X212480000Y-108301444D01*
X212483676Y-108264121D01*
X212480000Y-108226798D01*
X212480000Y-89017333D01*
X212483677Y-88980000D01*
X212469003Y-88831014D01*
X212425546Y-88687753D01*
X212354974Y-88555724D01*
X212283799Y-88468997D01*
X212260001Y-88439999D01*
X212231004Y-88416202D01*
X208263804Y-84449003D01*
X208240001Y-84419999D01*
X208124276Y-84325026D01*
X207992247Y-84254454D01*
X207848986Y-84210997D01*
X207737333Y-84200000D01*
X207737322Y-84200000D01*
X207700000Y-84196324D01*
X207662678Y-84200000D01*
X197758178Y-84200000D01*
X197633475Y-84013368D01*
X197426632Y-83806525D01*
X197252240Y-83690000D01*
X197426632Y-83573475D01*
X197633475Y-83366632D01*
X197758178Y-83180000D01*
X207102678Y-83180000D01*
X207140000Y-83183676D01*
X207177322Y-83180000D01*
X207177333Y-83180000D01*
X207288986Y-83169003D01*
X207432247Y-83125546D01*
X207564276Y-83054974D01*
X207680001Y-82960001D01*
X207703804Y-82930997D01*
X212601003Y-78033799D01*
X212630001Y-78010001D01*
X212722121Y-77897753D01*
X212724974Y-77894277D01*
X212795546Y-77762247D01*
X212834980Y-77632247D01*
X212839003Y-77618986D01*
X212850000Y-77507333D01*
X212850000Y-77507324D01*
X212853676Y-77470001D01*
X212850000Y-77432678D01*
X212850000Y-61139563D01*
X212853676Y-61102240D01*
X212850000Y-61064917D01*
X212850000Y-61064907D01*
X212839003Y-60953254D01*
X212795546Y-60809993D01*
X212755169Y-60734454D01*
X212724974Y-60677963D01*
X212653799Y-60591237D01*
X212630001Y-60562239D01*
X212601004Y-60538442D01*
X207449344Y-55386783D01*
X207425541Y-55357779D01*
X207309816Y-55262806D01*
X207177787Y-55192234D01*
X207034526Y-55148777D01*
X206922873Y-55137780D01*
X206922862Y-55137780D01*
X206885540Y-55134104D01*
X206848218Y-55137780D01*
X140149545Y-55137780D01*
X140112220Y-55134104D01*
X140074895Y-55137780D01*
X140074887Y-55137780D01*
X139963234Y-55148777D01*
X139819973Y-55192234D01*
X139687944Y-55262806D01*
X139572219Y-55357779D01*
X139548421Y-55386777D01*
X134058998Y-60876201D01*
X134030000Y-60899999D01*
X134006202Y-60928997D01*
X134006201Y-60928998D01*
X133935026Y-61015724D01*
X133864454Y-61147754D01*
X133847506Y-61203627D01*
X133825383Y-61276560D01*
X133820998Y-61291015D01*
X133806324Y-61440000D01*
X133810001Y-61477333D01*
X133810000Y-76472678D01*
X133806324Y-76510000D01*
X133810000Y-76547322D01*
X133810000Y-76547332D01*
X133820997Y-76658985D01*
X133844420Y-76736201D01*
X133864454Y-76802246D01*
X133935026Y-76934276D01*
X133955315Y-76958998D01*
X134029999Y-77050001D01*
X134059003Y-77073804D01*
X137516201Y-80531003D01*
X137539999Y-80560001D01*
X137578883Y-80591912D01*
X137655724Y-80654974D01*
X137775168Y-80718819D01*
X137919866Y-80895134D01*
X138145986Y-81080706D01*
X138200791Y-81110000D01*
X138145986Y-81139294D01*
X137919866Y-81324866D01*
X137734294Y-81550986D01*
X137697405Y-81620000D01*
X137637333Y-81620000D01*
X137600000Y-81616323D01*
X137562667Y-81620000D01*
X137451014Y-81630997D01*
X137307753Y-81674454D01*
X137175724Y-81745026D01*
X137059999Y-81839999D01*
X137036201Y-81868997D01*
X132698998Y-86206201D01*
X132670000Y-86229999D01*
X132646202Y-86258997D01*
X132646201Y-86258998D01*
X132575026Y-86345724D01*
X132504454Y-86477754D01*
X132486218Y-86537872D01*
X132460998Y-86621014D01*
X132452306Y-86709266D01*
X132446324Y-86770000D01*
X125672539Y-86770000D01*
X125645556Y-86681048D01*
X125574984Y-86549019D01*
X125480011Y-86433294D01*
X125451014Y-86409497D01*
X124908715Y-85867198D01*
X125005706Y-85749014D01*
X125143599Y-85491034D01*
X125228513Y-85211111D01*
X125257185Y-84920000D01*
X125228513Y-84628889D01*
X125221892Y-84607061D01*
X130265220Y-84607061D01*
X130265220Y-84810939D01*
X130304994Y-85010898D01*
X130383015Y-85199256D01*
X130496283Y-85368774D01*
X130640446Y-85512937D01*
X130809964Y-85626205D01*
X130998322Y-85704226D01*
X131198281Y-85744000D01*
X131402159Y-85744000D01*
X131602118Y-85704226D01*
X131790476Y-85626205D01*
X131959994Y-85512937D01*
X132104157Y-85368774D01*
X132217425Y-85199256D01*
X132295446Y-85010898D01*
X132335220Y-84810939D01*
X132335220Y-84607061D01*
X132295446Y-84407102D01*
X132217425Y-84218744D01*
X132104157Y-84049226D01*
X131959994Y-83905063D01*
X131790476Y-83791795D01*
X131602118Y-83713774D01*
X131402159Y-83674000D01*
X131198281Y-83674000D01*
X130998322Y-83713774D01*
X130809964Y-83791795D01*
X130640446Y-83905063D01*
X130496283Y-84049226D01*
X130383015Y-84218744D01*
X130304994Y-84407102D01*
X130265220Y-84607061D01*
X125221892Y-84607061D01*
X125143599Y-84348966D01*
X125005706Y-84090986D01*
X124820134Y-83864866D01*
X124594014Y-83679294D01*
X124539209Y-83650000D01*
X124594014Y-83620706D01*
X124820134Y-83435134D01*
X125005706Y-83209014D01*
X125143599Y-82951034D01*
X125228513Y-82671111D01*
X125257185Y-82380000D01*
X125228513Y-82088889D01*
X125143599Y-81808966D01*
X125108500Y-81743301D01*
X125210001Y-81660001D01*
X125233804Y-81630997D01*
X125991004Y-80873798D01*
X126020001Y-80850001D01*
X126046332Y-80817917D01*
X126114974Y-80734277D01*
X126185546Y-80602247D01*
X126198361Y-80560001D01*
X126229003Y-80458986D01*
X126240000Y-80347333D01*
X126240000Y-80347323D01*
X126243676Y-80310000D01*
X126240000Y-80272678D01*
X126240000Y-78227322D01*
X126243676Y-78189999D01*
X126240000Y-78152676D01*
X126240000Y-78152667D01*
X126229003Y-78041014D01*
X126185546Y-77897753D01*
X126171264Y-77871034D01*
X126114974Y-77765723D01*
X126043799Y-77678997D01*
X126020001Y-77649999D01*
X125991003Y-77626201D01*
X125165298Y-76800497D01*
X125143599Y-76728966D01*
X125005706Y-76470986D01*
X124820134Y-76244866D01*
X124594014Y-76059294D01*
X124539209Y-76030000D01*
X124594014Y-76000706D01*
X124820134Y-75815134D01*
X125005706Y-75589014D01*
X125143599Y-75331034D01*
X125228513Y-75051111D01*
X125257185Y-74760000D01*
X125228513Y-74468889D01*
X125143599Y-74188966D01*
X125005706Y-73930986D01*
X124820134Y-73704866D01*
X124594014Y-73519294D01*
X124535663Y-73488105D01*
X124695619Y-73384176D01*
X124904857Y-73180252D01*
X125070291Y-72939426D01*
X125185563Y-72670953D01*
X125206476Y-72576890D01*
X125085155Y-72347000D01*
X123960389Y-72347000D01*
X123970611Y-72151469D01*
X123962126Y-72093000D01*
X125085155Y-72093000D01*
X125206476Y-71863110D01*
X125185563Y-71769047D01*
X125070291Y-71500574D01*
X124904857Y-71259748D01*
X124695619Y-71055824D01*
X124535663Y-70951895D01*
X124594014Y-70920706D01*
X124820134Y-70735134D01*
X125005706Y-70509014D01*
X125143599Y-70251034D01*
X125228513Y-69971111D01*
X125257185Y-69680000D01*
X125228513Y-69388889D01*
X125143599Y-69108966D01*
X125005706Y-68850986D01*
X124820134Y-68624866D01*
X124594014Y-68439294D01*
X124539209Y-68410000D01*
X124594014Y-68380706D01*
X124820134Y-68195134D01*
X125005706Y-67969014D01*
X125143599Y-67711034D01*
X125228513Y-67431111D01*
X125257185Y-67140000D01*
X125228513Y-66848889D01*
X125143599Y-66568966D01*
X125005706Y-66310986D01*
X124820134Y-66084866D01*
X124594014Y-65899294D01*
X124539209Y-65870000D01*
X124594014Y-65840706D01*
X124820134Y-65655134D01*
X125005706Y-65429014D01*
X125143599Y-65171034D01*
X125228513Y-64891111D01*
X125257185Y-64600000D01*
X125228513Y-64308889D01*
X125143599Y-64028966D01*
X125005706Y-63770986D01*
X124820134Y-63544866D01*
X124594014Y-63359294D01*
X124454385Y-63284661D01*
X124453411Y-63284010D01*
X124452328Y-63283562D01*
X124336034Y-63221401D01*
X124209843Y-63183121D01*
X124183158Y-63172068D01*
X124154830Y-63166433D01*
X124056111Y-63136487D01*
X123953449Y-63126376D01*
X123896260Y-63115000D01*
X122333740Y-63115000D01*
X122276551Y-63126376D01*
X122173889Y-63136487D01*
X122075170Y-63166433D01*
X122046842Y-63172068D01*
X122020157Y-63183121D01*
X121893966Y-63221401D01*
X121777672Y-63283562D01*
X121776589Y-63284010D01*
X121775615Y-63284661D01*
X121635986Y-63359294D01*
X121409866Y-63544866D01*
X121224294Y-63770986D01*
X121086401Y-64028966D01*
X121001487Y-64308889D01*
X120972815Y-64600000D01*
X121001487Y-64891111D01*
X121086401Y-65171034D01*
X121224294Y-65429014D01*
X121409866Y-65655134D01*
X121635986Y-65840706D01*
X121690791Y-65870000D01*
X121635986Y-65899294D01*
X121409866Y-66084866D01*
X121224294Y-66310986D01*
X121086401Y-66568966D01*
X121001487Y-66848889D01*
X120972815Y-67140000D01*
X121001487Y-67431111D01*
X121086401Y-67711034D01*
X121224294Y-67969014D01*
X121409866Y-68195134D01*
X121635986Y-68380706D01*
X121690791Y-68410000D01*
X121635986Y-68439294D01*
X121409866Y-68624866D01*
X121224294Y-68850986D01*
X121086401Y-69108966D01*
X121001487Y-69388889D01*
X120972815Y-69680000D01*
X121001487Y-69971111D01*
X121086401Y-70251034D01*
X121224294Y-70509014D01*
X121409866Y-70735134D01*
X121635986Y-70920706D01*
X121694337Y-70951895D01*
X121534381Y-71055824D01*
X121325143Y-71259748D01*
X121159709Y-71500574D01*
X121044437Y-71769047D01*
X121023524Y-71863110D01*
X121033634Y-71882267D01*
X121004661Y-71996411D01*
X120989389Y-72288531D01*
X121029574Y-72565427D01*
X121023524Y-72576890D01*
X121044437Y-72670953D01*
X121159709Y-72939426D01*
X121325143Y-73180252D01*
X121534381Y-73384176D01*
X121694337Y-73488105D01*
X121635986Y-73519294D01*
X121409866Y-73704866D01*
X121224294Y-73930986D01*
X121086401Y-74188966D01*
X121001487Y-74468889D01*
X120972815Y-74760000D01*
X121001487Y-75051111D01*
X121086401Y-75331034D01*
X121224294Y-75589014D01*
X121409866Y-75815134D01*
X121635986Y-76000706D01*
X121690791Y-76030000D01*
X121635986Y-76059294D01*
X121409866Y-76244866D01*
X121224294Y-76470986D01*
X121086401Y-76728966D01*
X121001487Y-77008889D01*
X120972815Y-77300000D01*
X121001487Y-77591111D01*
X121086401Y-77871034D01*
X121224294Y-78129014D01*
X121409866Y-78355134D01*
X121635986Y-78540706D01*
X121690791Y-78570000D01*
X121635986Y-78599294D01*
X121409866Y-78784866D01*
X121224294Y-79010986D01*
X121187405Y-79080000D01*
X117090503Y-79080000D01*
X117053180Y-79076324D01*
X117015857Y-79080000D01*
X117015847Y-79080000D01*
X116904194Y-79090997D01*
X116760933Y-79134454D01*
X116628904Y-79205026D01*
X116513179Y-79299999D01*
X116489381Y-79328997D01*
X112314454Y-83503925D01*
X112387838Y-83366632D01*
X112391103Y-83360524D01*
X112456461Y-83145068D01*
X112462323Y-83085546D01*
X112473000Y-82977146D01*
X112473000Y-82977139D01*
X112478529Y-82921000D01*
X112473000Y-82864861D01*
X112473000Y-82335696D01*
X112535537Y-82259494D01*
X112594502Y-82149180D01*
X112630812Y-82029482D01*
X112643072Y-81905000D01*
X112643072Y-80555000D01*
X112630812Y-80430518D01*
X112594502Y-80310820D01*
X112535537Y-80200506D01*
X112456185Y-80103815D01*
X112359494Y-80024463D01*
X112249180Y-79965498D01*
X112129482Y-79929188D01*
X112005000Y-79916928D01*
X110655000Y-79916928D01*
X110530518Y-79929188D01*
X110410820Y-79965498D01*
X110300506Y-80024463D01*
X110203815Y-80103815D01*
X110126881Y-80197559D01*
X109993629Y-80100527D01*
X109760528Y-79992762D01*
X109659400Y-79962090D01*
X109457000Y-80085776D01*
X109457000Y-81103000D01*
X109477000Y-81103000D01*
X109477000Y-81357000D01*
X109457000Y-81357000D01*
X109457000Y-82374224D01*
X109659400Y-82497910D01*
X109760528Y-82467238D01*
X109993629Y-82359473D01*
X110126881Y-82262441D01*
X110187000Y-82335696D01*
X110187000Y-82447554D01*
X108824715Y-83809840D01*
X95443298Y-83809840D01*
X95387159Y-83804311D01*
X95331020Y-83809840D01*
X95331014Y-83809840D01*
X95185760Y-83824146D01*
X95163092Y-83826379D01*
X95106610Y-83843513D01*
X94947637Y-83891737D01*
X94749071Y-83997872D01*
X94575027Y-84140707D01*
X94539237Y-84184317D01*
X92078642Y-86644913D01*
X92035027Y-86680707D01*
X91892192Y-86854752D01*
X91786057Y-87053318D01*
X91751343Y-87167754D01*
X91721680Y-87265541D01*
X91720699Y-87268774D01*
X91704160Y-87436695D01*
X91704160Y-87436701D01*
X91698631Y-87492840D01*
X91704160Y-87548979D01*
X91704161Y-90691012D01*
X91698631Y-90747160D01*
X91720699Y-90971227D01*
X91775984Y-91153475D01*
X91786058Y-91186683D01*
X91892193Y-91385249D01*
X92035028Y-91559293D01*
X92078638Y-91595083D01*
X94722081Y-94238528D01*
X94757867Y-94282133D01*
X94801471Y-94317918D01*
X94801477Y-94317924D01*
X94883863Y-94385536D01*
X94931911Y-94424968D01*
X95130477Y-94531103D01*
X95280574Y-94576635D01*
X95345932Y-94596461D01*
X95368600Y-94598694D01*
X95513854Y-94613000D01*
X95513860Y-94613000D01*
X95569999Y-94618529D01*
X95626138Y-94613000D01*
X99116146Y-94613000D01*
X99284067Y-94596461D01*
X99499523Y-94531103D01*
X99698089Y-94424968D01*
X99872133Y-94282133D01*
X100014968Y-94108089D01*
X100121103Y-93909523D01*
X100186461Y-93694067D01*
X100208530Y-93470000D01*
X100186461Y-93245933D01*
X100121103Y-93030477D01*
X100014968Y-92831911D01*
X99872133Y-92657867D01*
X99698089Y-92515032D01*
X99499523Y-92408897D01*
X99284067Y-92343539D01*
X99116146Y-92327000D01*
X96043447Y-92327000D01*
X93990160Y-90273715D01*
X93990160Y-87966285D01*
X95860606Y-86095840D01*
X109242021Y-86095840D01*
X109298160Y-86101369D01*
X109354299Y-86095840D01*
X109354306Y-86095840D01*
X109522227Y-86079301D01*
X109737683Y-86013943D01*
X109881086Y-85937293D01*
X108943299Y-86875080D01*
X102462253Y-86875080D01*
X102424920Y-86871403D01*
X102387587Y-86875080D01*
X102275934Y-86886077D01*
X102132673Y-86929534D01*
X102000644Y-87000106D01*
X101884919Y-87095079D01*
X101861121Y-87124077D01*
X99506879Y-89478320D01*
X99339365Y-89445000D01*
X99060635Y-89445000D01*
X98787260Y-89499377D01*
X98529746Y-89606043D01*
X98297990Y-89760897D01*
X98100897Y-89957990D01*
X97946043Y-90189746D01*
X97930000Y-90228477D01*
X97913957Y-90189746D01*
X97759103Y-89957990D01*
X97562010Y-89760897D01*
X97330254Y-89606043D01*
X97072740Y-89499377D01*
X96799365Y-89445000D01*
X96520635Y-89445000D01*
X96247260Y-89499377D01*
X95989746Y-89606043D01*
X95757990Y-89760897D01*
X95560897Y-89957990D01*
X95406043Y-90189746D01*
X95299377Y-90447260D01*
X95245000Y-90720635D01*
X95245000Y-90999365D01*
X95299377Y-91272740D01*
X95406043Y-91530254D01*
X95560897Y-91762010D01*
X95757990Y-91959103D01*
X95989746Y-92113957D01*
X96247260Y-92220623D01*
X96520635Y-92275000D01*
X96799365Y-92275000D01*
X97072740Y-92220623D01*
X97330254Y-92113957D01*
X97562010Y-91959103D01*
X97759103Y-91762010D01*
X97913957Y-91530254D01*
X97930000Y-91491523D01*
X97946043Y-91530254D01*
X98100897Y-91762010D01*
X98297990Y-91959103D01*
X98529746Y-92113957D01*
X98787260Y-92220623D01*
X99060635Y-92275000D01*
X99339365Y-92275000D01*
X99612740Y-92220623D01*
X99870254Y-92113957D01*
X100102010Y-91959103D01*
X100299103Y-91762010D01*
X100453957Y-91530254D01*
X100470000Y-91491523D01*
X100486043Y-91530254D01*
X100640897Y-91762010D01*
X100837990Y-91959103D01*
X101069746Y-92113957D01*
X101327260Y-92220623D01*
X101600635Y-92275000D01*
X101879365Y-92275000D01*
X102024828Y-92246066D01*
X98431478Y-95839417D01*
X98387868Y-95875207D01*
X98245033Y-96049251D01*
X98176488Y-96177490D01*
X98138898Y-96247817D01*
X98073539Y-96463273D01*
X98051471Y-96687340D01*
X98057001Y-96743489D01*
X98057000Y-102626469D01*
X98029502Y-102535820D01*
X97970537Y-102425506D01*
X97891185Y-102328815D01*
X97794494Y-102249463D01*
X97684180Y-102190498D01*
X97564482Y-102154188D01*
X97440000Y-102141928D01*
X96945750Y-102145000D01*
X96787000Y-102303750D01*
X96787000Y-103433000D01*
X96807000Y-103433000D01*
X96807000Y-103687000D01*
X96787000Y-103687000D01*
X96787000Y-103707000D01*
X96533000Y-103707000D01*
X96533000Y-103687000D01*
X95403750Y-103687000D01*
X95245000Y-103845750D01*
X95241928Y-104340000D01*
X95254188Y-104464482D01*
X95290498Y-104584180D01*
X95349463Y-104694494D01*
X95428815Y-104791185D01*
X95525506Y-104870537D01*
X95635820Y-104929502D01*
X95737880Y-104960461D01*
X95691911Y-104985032D01*
X95517867Y-105127867D01*
X95482077Y-105171477D01*
X93761017Y-106892538D01*
X93663892Y-106972247D01*
X93605868Y-107019866D01*
X93570078Y-107063476D01*
X91399501Y-109234054D01*
X91367887Y-109240342D01*
X91129482Y-109339093D01*
X90914923Y-109482456D01*
X90732456Y-109664923D01*
X90589093Y-109879482D01*
X90490342Y-110117887D01*
X90440000Y-110370976D01*
X90440000Y-110629024D01*
X90490342Y-110882113D01*
X90589093Y-111120518D01*
X90710697Y-111302513D01*
X90623815Y-111373815D01*
X90544463Y-111470506D01*
X90485498Y-111580820D01*
X90449188Y-111700518D01*
X90436928Y-111825000D01*
X76215000Y-111825000D01*
X76215000Y-102780000D01*
X95241928Y-102780000D01*
X95245000Y-103274250D01*
X95403750Y-103433000D01*
X96533000Y-103433000D01*
X96533000Y-102303750D01*
X96374250Y-102145000D01*
X95880000Y-102141928D01*
X95755518Y-102154188D01*
X95635820Y-102190498D01*
X95525506Y-102249463D01*
X95428815Y-102328815D01*
X95349463Y-102425506D01*
X95290498Y-102535820D01*
X95254188Y-102655518D01*
X95241928Y-102780000D01*
X76215000Y-102780000D01*
X76215000Y-81559401D01*
X108062085Y-81559401D01*
X108150711Y-81800430D01*
X108284656Y-82019537D01*
X108458773Y-82208303D01*
X108666371Y-82359473D01*
X108899472Y-82467238D01*
X109000600Y-82497910D01*
X109203000Y-82374224D01*
X109203000Y-81357000D01*
X108184915Y-81357000D01*
X108062085Y-81559401D01*
X76215000Y-81559401D01*
X76215000Y-80900599D01*
X108062085Y-80900599D01*
X108184915Y-81103000D01*
X109203000Y-81103000D01*
X109203000Y-80085776D01*
X109000600Y-79962090D01*
X108899472Y-79992762D01*
X108666371Y-80100527D01*
X108458773Y-80251697D01*
X108284656Y-80440463D01*
X108150711Y-80659570D01*
X108062085Y-80900599D01*
X76215000Y-80900599D01*
X76215000Y-63154560D01*
X112610451Y-63154560D01*
X112632519Y-63378627D01*
X112697878Y-63594083D01*
X112804013Y-63792648D01*
X112946847Y-63966693D01*
X113120892Y-64109527D01*
X113319457Y-64215662D01*
X113534913Y-64281021D01*
X113758980Y-64303089D01*
X113983047Y-64281021D01*
X114198503Y-64215662D01*
X114397068Y-64109527D01*
X114527501Y-64002484D01*
X122746506Y-55783480D01*
X135525666Y-55783480D01*
X135693587Y-55766941D01*
X135909043Y-55701583D01*
X136107609Y-55595448D01*
X136281653Y-55452613D01*
X136424488Y-55278569D01*
X136530623Y-55080003D01*
X136595981Y-54864547D01*
X136618050Y-54640480D01*
X136595981Y-54416413D01*
X136530623Y-54200957D01*
X136424488Y-54002391D01*
X136281653Y-53828347D01*
X136107609Y-53685512D01*
X135909043Y-53579377D01*
X135693587Y-53514019D01*
X135525666Y-53497480D01*
X122329198Y-53497480D01*
X122273059Y-53491951D01*
X122216920Y-53497480D01*
X122216914Y-53497480D01*
X122071660Y-53511786D01*
X122048992Y-53514019D01*
X121984957Y-53533444D01*
X121833537Y-53579377D01*
X121634971Y-53685512D01*
X121460927Y-53828347D01*
X121425137Y-53871957D01*
X112911056Y-62386039D01*
X112804013Y-62516472D01*
X112697878Y-62715037D01*
X112632519Y-62930493D01*
X112610451Y-63154560D01*
X76215000Y-63154560D01*
X76215000Y-54745000D01*
X90286928Y-54745000D01*
X90286928Y-56095000D01*
X90299188Y-56219482D01*
X90335498Y-56339180D01*
X90394463Y-56449494D01*
X90473815Y-56546185D01*
X90570506Y-56625537D01*
X90680820Y-56684502D01*
X90800518Y-56720812D01*
X90925000Y-56733072D01*
X92275000Y-56733072D01*
X92399482Y-56720812D01*
X92519180Y-56684502D01*
X92629494Y-56625537D01*
X92726185Y-56546185D01*
X92805537Y-56449494D01*
X92864502Y-56339180D01*
X92900812Y-56219482D01*
X92913072Y-56095000D01*
X92913072Y-54745000D01*
X92900812Y-54620518D01*
X92864502Y-54500820D01*
X92805537Y-54390506D01*
X92726185Y-54293815D01*
X92639303Y-54222513D01*
X92760907Y-54040518D01*
X92859658Y-53802113D01*
X92910000Y-53549024D01*
X92910000Y-53440000D01*
X102776565Y-53440000D01*
X102780001Y-53474887D01*
X102780000Y-57775123D01*
X102776565Y-57810000D01*
X102790273Y-57949184D01*
X102830872Y-58083020D01*
X102896800Y-58206363D01*
X102985525Y-58314475D01*
X103093637Y-58403200D01*
X103216980Y-58469128D01*
X103350816Y-58509727D01*
X103490000Y-58523435D01*
X103524877Y-58520000D01*
X107475123Y-58520000D01*
X107510000Y-58523435D01*
X107544877Y-58520000D01*
X107649184Y-58509727D01*
X107783020Y-58469128D01*
X107906363Y-58403200D01*
X108014475Y-58314475D01*
X108103200Y-58206363D01*
X108169128Y-58083020D01*
X108209727Y-57949184D01*
X108223435Y-57810000D01*
X108220000Y-57775123D01*
X108220000Y-53474877D01*
X108223435Y-53440000D01*
X108209727Y-53300816D01*
X108169128Y-53166980D01*
X108103200Y-53043637D01*
X108014475Y-52935525D01*
X107906363Y-52846800D01*
X107783020Y-52780872D01*
X107649184Y-52740273D01*
X107544877Y-52730000D01*
X107510000Y-52726565D01*
X107475123Y-52730000D01*
X103524877Y-52730000D01*
X103490000Y-52726565D01*
X103455123Y-52730000D01*
X103350816Y-52740273D01*
X103216980Y-52780872D01*
X103093637Y-52846800D01*
X102985525Y-52935525D01*
X102896800Y-53043637D01*
X102830872Y-53166980D01*
X102790273Y-53300816D01*
X102776565Y-53440000D01*
X92910000Y-53440000D01*
X92910000Y-53290976D01*
X92859658Y-53037887D01*
X92760907Y-52799482D01*
X92617544Y-52584923D01*
X92435077Y-52402456D01*
X92220518Y-52259093D01*
X91982113Y-52160342D01*
X91729024Y-52110000D01*
X91470976Y-52110000D01*
X91217887Y-52160342D01*
X90979482Y-52259093D01*
X90764923Y-52402456D01*
X90582456Y-52584923D01*
X90439093Y-52799482D01*
X90340342Y-53037887D01*
X90290000Y-53290976D01*
X90290000Y-53549024D01*
X90340342Y-53802113D01*
X90439093Y-54040518D01*
X90560697Y-54222513D01*
X90473815Y-54293815D01*
X90394463Y-54390506D01*
X90335498Y-54500820D01*
X90299188Y-54620518D01*
X90286928Y-54745000D01*
X76215000Y-54745000D01*
X76215000Y-46072491D01*
X95084894Y-46072491D01*
X95084894Y-46419667D01*
X95152625Y-46760173D01*
X95285483Y-47080923D01*
X95478364Y-47369590D01*
X95723855Y-47615081D01*
X96012522Y-47807962D01*
X96333272Y-47940820D01*
X96673778Y-48008551D01*
X97020954Y-48008551D01*
X97361460Y-47940820D01*
X97682210Y-47807962D01*
X97970877Y-47615081D01*
X98216368Y-47369590D01*
X98409249Y-47080923D01*
X98542107Y-46760173D01*
X98609838Y-46419667D01*
X98609838Y-46072491D01*
X113084894Y-46072491D01*
X113084894Y-46419667D01*
X113152625Y-46760173D01*
X113285483Y-47080923D01*
X113478364Y-47369590D01*
X113723855Y-47615081D01*
X114012522Y-47807962D01*
X114333272Y-47940820D01*
X114673778Y-48008551D01*
X115020954Y-48008551D01*
X115361460Y-47940820D01*
X115682210Y-47807962D01*
X115970877Y-47615081D01*
X116216368Y-47369590D01*
X116409249Y-47080923D01*
X116542107Y-46760173D01*
X116609838Y-46419667D01*
X116609838Y-46072491D01*
X116542107Y-45731985D01*
X116409249Y-45411235D01*
X116216368Y-45122568D01*
X115970877Y-44877077D01*
X115682210Y-44684196D01*
X115361460Y-44551338D01*
X115020954Y-44483607D01*
X114673778Y-44483607D01*
X114333272Y-44551338D01*
X114012522Y-44684196D01*
X113723855Y-44877077D01*
X113478364Y-45122568D01*
X113285483Y-45411235D01*
X113152625Y-45731985D01*
X113084894Y-46072491D01*
X98609838Y-46072491D01*
X98542107Y-45731985D01*
X98409249Y-45411235D01*
X98216368Y-45122568D01*
X97970877Y-44877077D01*
X97682210Y-44684196D01*
X97361460Y-44551338D01*
X97020954Y-44483607D01*
X96673778Y-44483607D01*
X96333272Y-44551338D01*
X96012522Y-44684196D01*
X95723855Y-44877077D01*
X95478364Y-45122568D01*
X95285483Y-45411235D01*
X95152625Y-45731985D01*
X95084894Y-46072491D01*
X76215000Y-46072491D01*
X76215000Y-45898972D01*
X99502404Y-35079692D01*
X110999194Y-35079692D01*
X137925804Y-46614890D01*
X138092780Y-47231630D01*
X138106080Y-47270811D01*
X138118852Y-47310122D01*
X138581146Y-48477745D01*
X138601953Y-48521962D01*
X138620447Y-48561263D01*
X139225439Y-49661739D01*
X139274897Y-49739672D01*
X139274903Y-49739679D01*
X140013044Y-50755644D01*
X140039681Y-50787842D01*
X140071879Y-50826763D01*
X140931540Y-51742209D01*
X140998825Y-51805394D01*
X141966443Y-52605878D01*
X142041117Y-52660132D01*
X143101426Y-53333024D01*
X143101433Y-53333029D01*
X143182318Y-53377496D01*
X144318609Y-53912194D01*
X144404429Y-53946173D01*
X145598777Y-54334240D01*
X145688179Y-54357194D01*
X146921746Y-54592509D01*
X147013320Y-54604078D01*
X148253706Y-54682117D01*
X148276698Y-54684381D01*
X188234078Y-54684381D01*
X188245591Y-54683247D01*
X188848965Y-54664285D01*
X188883442Y-54661026D01*
X188917997Y-54658852D01*
X190163904Y-54501458D01*
X190163906Y-54501458D01*
X190254573Y-54484163D01*
X191470931Y-54171854D01*
X191499453Y-54162587D01*
X191558714Y-54143332D01*
X192726337Y-53681038D01*
X192776406Y-53657477D01*
X192809855Y-53641737D01*
X193910331Y-53036745D01*
X193988264Y-52987287D01*
X193988271Y-52987281D01*
X195004236Y-52249140D01*
X195036633Y-52222338D01*
X195075355Y-52190305D01*
X195990801Y-51330644D01*
X196013941Y-51306002D01*
X196053986Y-51263359D01*
X196854470Y-50295741D01*
X196908724Y-50221067D01*
X197581616Y-49160758D01*
X197581621Y-49160751D01*
X197626088Y-49079866D01*
X198160786Y-47943575D01*
X198163546Y-47936603D01*
X198194765Y-47857755D01*
X198582832Y-46663407D01*
X198605786Y-46574005D01*
X198841101Y-45340438D01*
X198852670Y-45248864D01*
X198931523Y-43995532D01*
X199007473Y-42788347D01*
X199225456Y-41645636D01*
X199584945Y-40539241D01*
X200080265Y-39486633D01*
X200703604Y-38504407D01*
X201445139Y-37608046D01*
X202293168Y-36811694D01*
X203234319Y-36127908D01*
X204253747Y-35567473D01*
X205335378Y-35139225D01*
X206462158Y-34849916D01*
X207627798Y-34702662D01*
X208209509Y-34684381D01*
X220674869Y-34684381D01*
X221859007Y-34758881D01*
G36*
X121001487Y-85211111D02*
G01*
X121086401Y-85491034D01*
X121123755Y-85560918D01*
X121062683Y-85579444D01*
X120930653Y-85650016D01*
X120907518Y-85669003D01*
X120814929Y-85744989D01*
X120791130Y-85773988D01*
X120304098Y-86261021D01*
X120275100Y-86284819D01*
X120251302Y-86313817D01*
X120251301Y-86313818D01*
X120180126Y-86400544D01*
X120109554Y-86532574D01*
X120082727Y-86621014D01*
X120066098Y-86675834D01*
X120065584Y-86681049D01*
X120051424Y-86824820D01*
X120055101Y-86862152D01*
X120055100Y-87632698D01*
X115812064Y-91875735D01*
X115845812Y-91764482D01*
X115858072Y-91640000D01*
X115855000Y-91145750D01*
X115696250Y-90987000D01*
X114567000Y-90987000D01*
X114567000Y-91007000D01*
X114313000Y-91007000D01*
X114313000Y-90987000D01*
X114293000Y-90987000D01*
X114293000Y-90733000D01*
X114313000Y-90733000D01*
X114313000Y-90713000D01*
X114567000Y-90713000D01*
X114567000Y-90733000D01*
X115696250Y-90733000D01*
X115855000Y-90574250D01*
X115858072Y-90080000D01*
X115845812Y-89955518D01*
X115809502Y-89835820D01*
X115750537Y-89725506D01*
X115696778Y-89660000D01*
X115922678Y-89660000D01*
X115960000Y-89663676D01*
X115997322Y-89660000D01*
X115997333Y-89660000D01*
X116108986Y-89649003D01*
X116252247Y-89605546D01*
X116384276Y-89534974D01*
X116500001Y-89440001D01*
X116523804Y-89410997D01*
X120976580Y-84958223D01*
X121001487Y-85211111D01*
G37*
X121001487Y-85211111D02*
X121086401Y-85491034D01*
X121123755Y-85560918D01*
X121062683Y-85579444D01*
X120930653Y-85650016D01*
X120907518Y-85669003D01*
X120814929Y-85744989D01*
X120791130Y-85773988D01*
X120304098Y-86261021D01*
X120275100Y-86284819D01*
X120251302Y-86313817D01*
X120251301Y-86313818D01*
X120180126Y-86400544D01*
X120109554Y-86532574D01*
X120082727Y-86621014D01*
X120066098Y-86675834D01*
X120065584Y-86681049D01*
X120051424Y-86824820D01*
X120055101Y-86862152D01*
X120055100Y-87632698D01*
X115812064Y-91875735D01*
X115845812Y-91764482D01*
X115858072Y-91640000D01*
X115855000Y-91145750D01*
X115696250Y-90987000D01*
X114567000Y-90987000D01*
X114567000Y-91007000D01*
X114313000Y-91007000D01*
X114313000Y-90987000D01*
X114293000Y-90987000D01*
X114293000Y-90733000D01*
X114313000Y-90733000D01*
X114313000Y-90713000D01*
X114567000Y-90713000D01*
X114567000Y-90733000D01*
X115696250Y-90733000D01*
X115855000Y-90574250D01*
X115858072Y-90080000D01*
X115845812Y-89955518D01*
X115809502Y-89835820D01*
X115750537Y-89725506D01*
X115696778Y-89660000D01*
X115922678Y-89660000D01*
X115960000Y-89663676D01*
X115997322Y-89660000D01*
X115997333Y-89660000D01*
X116108986Y-89649003D01*
X116252247Y-89605546D01*
X116384276Y-89534974D01*
X116500001Y-89440001D01*
X116523804Y-89410997D01*
X120976580Y-84958223D01*
X121001487Y-85211111D01*
G36*
X118164120Y-80608997D02*
G01*
X111297258Y-87475860D01*
X111268260Y-87499658D01*
X111244462Y-87528656D01*
X111244461Y-87528657D01*
X111173286Y-87615383D01*
X111102714Y-87747413D01*
X111083317Y-87811359D01*
X111061199Y-87884276D01*
X111059258Y-87890674D01*
X111044584Y-88039659D01*
X111048261Y-88076991D01*
X111048260Y-88637840D01*
X103239493Y-88637840D01*
X103202160Y-88634163D01*
X103164827Y-88637840D01*
X103053174Y-88648837D01*
X102909913Y-88692294D01*
X102777884Y-88762866D01*
X102662159Y-88857839D01*
X102638361Y-88886837D01*
X102046878Y-89478320D01*
X101879365Y-89445000D01*
X101689802Y-89445000D01*
X102739722Y-88395080D01*
X109220778Y-88395080D01*
X109258100Y-88398756D01*
X109295422Y-88395080D01*
X109295433Y-88395080D01*
X109407086Y-88384083D01*
X109550347Y-88340626D01*
X109682376Y-88270054D01*
X109798101Y-88175081D01*
X109821904Y-88146077D01*
X117367982Y-80600000D01*
X118171504Y-80600000D01*
X118164120Y-80608997D01*
G37*
X118164120Y-80608997D02*
X111297258Y-87475860D01*
X111268260Y-87499658D01*
X111244462Y-87528656D01*
X111244461Y-87528657D01*
X111173286Y-87615383D01*
X111102714Y-87747413D01*
X111083317Y-87811359D01*
X111061199Y-87884276D01*
X111059258Y-87890674D01*
X111044584Y-88039659D01*
X111048261Y-88076991D01*
X111048260Y-88637840D01*
X103239493Y-88637840D01*
X103202160Y-88634163D01*
X103164827Y-88637840D01*
X103053174Y-88648837D01*
X102909913Y-88692294D01*
X102777884Y-88762866D01*
X102662159Y-88857839D01*
X102638361Y-88886837D01*
X102046878Y-89478320D01*
X101879365Y-89445000D01*
X101689802Y-89445000D01*
X102739722Y-88395080D01*
X109220778Y-88395080D01*
X109258100Y-88398756D01*
X109295422Y-88395080D01*
X109295433Y-88395080D01*
X109407086Y-88384083D01*
X109550347Y-88340626D01*
X109682376Y-88270054D01*
X109798101Y-88175081D01*
X109821904Y-88146077D01*
X117367982Y-80600000D01*
X118171504Y-80600000D01*
X118164120Y-80608997D01*
G36*
X121001487Y-82088889D02*
G01*
X120972815Y-82380000D01*
X121001487Y-82671111D01*
X121027694Y-82757503D01*
X115645199Y-88140000D01*
X113897333Y-88140000D01*
X113860000Y-88136323D01*
X113822667Y-88140000D01*
X113711014Y-88150997D01*
X113567753Y-88194454D01*
X113435724Y-88265026D01*
X113319999Y-88359999D01*
X113296201Y-88388997D01*
X112551642Y-89133556D01*
X112557263Y-89115026D01*
X112568260Y-89003373D01*
X112568260Y-89003364D01*
X112571936Y-88966041D01*
X112568260Y-88928718D01*
X112568260Y-88354460D01*
X119042721Y-81880000D01*
X121064853Y-81880000D01*
X121001487Y-82088889D01*
G37*
X121001487Y-82088889D02*
X120972815Y-82380000D01*
X121001487Y-82671111D01*
X121027694Y-82757503D01*
X115645199Y-88140000D01*
X113897333Y-88140000D01*
X113860000Y-88136323D01*
X113822667Y-88140000D01*
X113711014Y-88150997D01*
X113567753Y-88194454D01*
X113435724Y-88265026D01*
X113319999Y-88359999D01*
X113296201Y-88388997D01*
X112551642Y-89133556D01*
X112557263Y-89115026D01*
X112568260Y-89003373D01*
X112568260Y-89003364D01*
X112571936Y-88966041D01*
X112568260Y-88928718D01*
X112568260Y-88354460D01*
X119042721Y-81880000D01*
X121064853Y-81880000D01*
X121001487Y-82088889D01*
G36*
X206888081Y-64816727D02*
G01*
X206888080Y-67463934D01*
X203235015Y-71117000D01*
X197437107Y-71117000D01*
X197426632Y-71106525D01*
X197252240Y-70990000D01*
X197426632Y-70873475D01*
X197633475Y-70666632D01*
X197795990Y-70423411D01*
X197907932Y-70153158D01*
X197965000Y-69866260D01*
X197965000Y-69573740D01*
X197907932Y-69286842D01*
X197795990Y-69016589D01*
X197633475Y-68773368D01*
X197426632Y-68566525D01*
X197183411Y-68404010D01*
X196913158Y-68292068D01*
X196626260Y-68235000D01*
X196333740Y-68235000D01*
X196046842Y-68292068D01*
X195776589Y-68404010D01*
X195533368Y-68566525D01*
X195326525Y-68773368D01*
X195164010Y-69016589D01*
X195052068Y-69286842D01*
X194995000Y-69573740D01*
X194995000Y-69866260D01*
X195052068Y-70153158D01*
X195164010Y-70423411D01*
X195326525Y-70666632D01*
X195533368Y-70873475D01*
X195707760Y-70990000D01*
X195533368Y-71106525D01*
X195326525Y-71313368D01*
X195164010Y-71556589D01*
X195052068Y-71826842D01*
X194995000Y-72113740D01*
X194995000Y-72406260D01*
X195052068Y-72693158D01*
X195164010Y-72963411D01*
X195326525Y-73206632D01*
X195533368Y-73413475D01*
X195715534Y-73535195D01*
X195598645Y-73604822D01*
X195382412Y-73799731D01*
X195208359Y-74033080D01*
X195083175Y-74295901D01*
X195038524Y-74443110D01*
X195159845Y-74673000D01*
X196353000Y-74673000D01*
X196353000Y-74653000D01*
X196607000Y-74653000D01*
X196607000Y-74673000D01*
X197800155Y-74673000D01*
X197921476Y-74443110D01*
X197876825Y-74295901D01*
X197751641Y-74033080D01*
X197577588Y-73799731D01*
X197361355Y-73604822D01*
X197244466Y-73535195D01*
X197426632Y-73413475D01*
X197437107Y-73403000D01*
X203548059Y-73403000D01*
X200371059Y-76580000D01*
X197758178Y-76580000D01*
X197633475Y-76393368D01*
X197426632Y-76186525D01*
X197244466Y-76064805D01*
X197361355Y-75995178D01*
X197577588Y-75800269D01*
X197751641Y-75566920D01*
X197876825Y-75304099D01*
X197921476Y-75156890D01*
X197800155Y-74927000D01*
X196607000Y-74927000D01*
X196607000Y-74947000D01*
X196353000Y-74947000D01*
X196353000Y-74927000D01*
X195159845Y-74927000D01*
X195038524Y-75156890D01*
X195083175Y-75304099D01*
X195208359Y-75566920D01*
X195382412Y-75800269D01*
X195598645Y-75995178D01*
X195715534Y-76064805D01*
X195533368Y-76186525D01*
X195326525Y-76393368D01*
X195164010Y-76636589D01*
X195052068Y-76906842D01*
X194995000Y-77193740D01*
X194995000Y-77486260D01*
X195052068Y-77773158D01*
X195164010Y-78043411D01*
X195326525Y-78286632D01*
X195533368Y-78493475D01*
X195707760Y-78610000D01*
X195533368Y-78726525D01*
X195326525Y-78933368D01*
X195164010Y-79176589D01*
X195052068Y-79446842D01*
X194995000Y-79733740D01*
X194995000Y-80026260D01*
X195052068Y-80313158D01*
X195164010Y-80583411D01*
X195326525Y-80826632D01*
X195533368Y-81033475D01*
X195707760Y-81150000D01*
X195533368Y-81266525D01*
X195326525Y-81473368D01*
X195164010Y-81716589D01*
X195052068Y-81986842D01*
X194995000Y-82273740D01*
X194995000Y-82566260D01*
X195052068Y-82853158D01*
X195164010Y-83123411D01*
X195326525Y-83366632D01*
X195533368Y-83573475D01*
X195707760Y-83690000D01*
X195533368Y-83806525D01*
X195326525Y-84013368D01*
X195164010Y-84256589D01*
X195052068Y-84526842D01*
X194995000Y-84813740D01*
X194995000Y-85106260D01*
X195052068Y-85393158D01*
X195164010Y-85663411D01*
X195326525Y-85906632D01*
X195533368Y-86113475D01*
X195707760Y-86230000D01*
X195533368Y-86346525D01*
X195326525Y-86553368D01*
X195164010Y-86796589D01*
X195052068Y-87066842D01*
X194995000Y-87353740D01*
X194995000Y-87646260D01*
X195052068Y-87933158D01*
X195164010Y-88203411D01*
X195326525Y-88446632D01*
X195533368Y-88653475D01*
X195707760Y-88770000D01*
X195533368Y-88886525D01*
X195326525Y-89093368D01*
X195164010Y-89336589D01*
X195052068Y-89606842D01*
X194995000Y-89893740D01*
X194995000Y-90186260D01*
X195052068Y-90473158D01*
X195164010Y-90743411D01*
X195326525Y-90986632D01*
X195533368Y-91193475D01*
X195707760Y-91310000D01*
X195533368Y-91426525D01*
X195326525Y-91633368D01*
X195164010Y-91876589D01*
X195052068Y-92146842D01*
X194995000Y-92433740D01*
X194995000Y-92726260D01*
X195052068Y-93013158D01*
X195164010Y-93283411D01*
X195326525Y-93526632D01*
X195458380Y-93658487D01*
X195385820Y-93680498D01*
X195275506Y-93739463D01*
X195178815Y-93818815D01*
X195099463Y-93915506D01*
X195040498Y-94025820D01*
X195004188Y-94145518D01*
X194991928Y-94270000D01*
X194991928Y-95970000D01*
X195004188Y-96094482D01*
X195040498Y-96214180D01*
X195099463Y-96324494D01*
X195178815Y-96421185D01*
X195275506Y-96500537D01*
X195385820Y-96559502D01*
X195505518Y-96595812D01*
X195630000Y-96608072D01*
X197330000Y-96608072D01*
X197454482Y-96595812D01*
X197574180Y-96559502D01*
X197684494Y-96500537D01*
X197781185Y-96421185D01*
X197860537Y-96324494D01*
X197919502Y-96214180D01*
X197955812Y-96094482D01*
X197968072Y-95970000D01*
X197968072Y-95880000D01*
X202409759Y-95880000D01*
X205528640Y-98998882D01*
X205528641Y-104406857D01*
X204015499Y-105920000D01*
X148627322Y-105920000D01*
X148589999Y-105916324D01*
X148552677Y-105920000D01*
X148552667Y-105920000D01*
X148441014Y-105930997D01*
X148411335Y-105940000D01*
X140734802Y-105940000D01*
X137820000Y-103025199D01*
X137820000Y-101093447D01*
X137919866Y-101215134D01*
X138145986Y-101400706D01*
X138285615Y-101475339D01*
X138286589Y-101475990D01*
X138287672Y-101476438D01*
X138403966Y-101538599D01*
X138530157Y-101576879D01*
X138556842Y-101587932D01*
X138585170Y-101593567D01*
X138683889Y-101623513D01*
X138786551Y-101633624D01*
X138843740Y-101645000D01*
X140406260Y-101645000D01*
X140463449Y-101633624D01*
X140566111Y-101623513D01*
X140664830Y-101593567D01*
X140693158Y-101587932D01*
X140719843Y-101576879D01*
X140846034Y-101538599D01*
X140962328Y-101476438D01*
X140963411Y-101475990D01*
X140964385Y-101475339D01*
X141104014Y-101400706D01*
X141330134Y-101215134D01*
X141515706Y-100989014D01*
X141653599Y-100731034D01*
X141738513Y-100451111D01*
X141767185Y-100160000D01*
X141738513Y-99868889D01*
X141653599Y-99588966D01*
X141515706Y-99330986D01*
X141330134Y-99104866D01*
X141104014Y-98919294D01*
X141049209Y-98890000D01*
X141104014Y-98860706D01*
X141330134Y-98675134D01*
X141515706Y-98449014D01*
X141653599Y-98191034D01*
X141738513Y-97911111D01*
X141767185Y-97620000D01*
X141738513Y-97328889D01*
X141653599Y-97048966D01*
X141515706Y-96790986D01*
X141330134Y-96564866D01*
X141104014Y-96379294D01*
X141049209Y-96350000D01*
X141104014Y-96320706D01*
X141330134Y-96135134D01*
X141515706Y-95909014D01*
X141653599Y-95651034D01*
X141738513Y-95371111D01*
X141767185Y-95080000D01*
X141738513Y-94788889D01*
X141653599Y-94508966D01*
X141515706Y-94250986D01*
X141330134Y-94024866D01*
X141104014Y-93839294D01*
X141049209Y-93810000D01*
X141104014Y-93780706D01*
X141330134Y-93595134D01*
X141515706Y-93369014D01*
X141653599Y-93111034D01*
X141738513Y-92831111D01*
X141767185Y-92540000D01*
X141738513Y-92248889D01*
X141653599Y-91968966D01*
X141515706Y-91710986D01*
X141330134Y-91484866D01*
X141104014Y-91299294D01*
X141049209Y-91270000D01*
X141104014Y-91240706D01*
X141330134Y-91055134D01*
X141515706Y-90829014D01*
X141653599Y-90571034D01*
X141738513Y-90291111D01*
X141767185Y-90000000D01*
X141738513Y-89708889D01*
X141653599Y-89428966D01*
X141515706Y-89170986D01*
X141330134Y-88944866D01*
X141104014Y-88759294D01*
X141049209Y-88730000D01*
X141104014Y-88700706D01*
X141330134Y-88515134D01*
X141515706Y-88289014D01*
X141653599Y-88031034D01*
X141738513Y-87751111D01*
X141767185Y-87460000D01*
X141738513Y-87168889D01*
X141653599Y-86888966D01*
X141515706Y-86630986D01*
X141330134Y-86404866D01*
X141104014Y-86219294D01*
X141049209Y-86190000D01*
X141104014Y-86160706D01*
X141330134Y-85975134D01*
X141515706Y-85749014D01*
X141653599Y-85491034D01*
X141738513Y-85211111D01*
X141767185Y-84920000D01*
X141738513Y-84628889D01*
X141653599Y-84348966D01*
X141515706Y-84090986D01*
X141330134Y-83864866D01*
X141104014Y-83679294D01*
X141049209Y-83650000D01*
X141104014Y-83620706D01*
X141330134Y-83435134D01*
X141515706Y-83209014D01*
X141653599Y-82951034D01*
X141738513Y-82671111D01*
X141767185Y-82380000D01*
X141738513Y-82088889D01*
X141653599Y-81808966D01*
X141515706Y-81550986D01*
X141330134Y-81324866D01*
X141104014Y-81139294D01*
X141049209Y-81110000D01*
X141104014Y-81080706D01*
X141330134Y-80895134D01*
X141515706Y-80669014D01*
X141653599Y-80411034D01*
X141738513Y-80131111D01*
X141767185Y-79840000D01*
X141738513Y-79548889D01*
X141653599Y-79268966D01*
X141515706Y-79010986D01*
X141330134Y-78784866D01*
X141104014Y-78599294D01*
X141049209Y-78570000D01*
X141104014Y-78540706D01*
X141330134Y-78355134D01*
X141515706Y-78129014D01*
X141653599Y-77871034D01*
X141738513Y-77591111D01*
X141767185Y-77300000D01*
X141738513Y-77008889D01*
X141653599Y-76728966D01*
X141515706Y-76470986D01*
X141330134Y-76244866D01*
X141104014Y-76059294D01*
X141049209Y-76030000D01*
X141104014Y-76000706D01*
X141330134Y-75815134D01*
X141515706Y-75589014D01*
X141653599Y-75331034D01*
X141738513Y-75051111D01*
X141767185Y-74760000D01*
X141738513Y-74468889D01*
X141653599Y-74188966D01*
X141515706Y-73930986D01*
X141330134Y-73704866D01*
X141104014Y-73519294D01*
X141049209Y-73490000D01*
X141104014Y-73460706D01*
X141330134Y-73275134D01*
X141515706Y-73049014D01*
X141653599Y-72791034D01*
X141686365Y-72683021D01*
X142732265Y-71637121D01*
X142730643Y-71653588D01*
X142730644Y-94906109D01*
X142731776Y-94917607D01*
X142750739Y-95520996D01*
X142753998Y-95555473D01*
X142756172Y-95590028D01*
X142913566Y-96835935D01*
X142913566Y-96835937D01*
X142930861Y-96926604D01*
X143243170Y-98142961D01*
X143271692Y-98230745D01*
X143733986Y-99398368D01*
X143750322Y-99433082D01*
X143773287Y-99481886D01*
X144378279Y-100582362D01*
X144427737Y-100660295D01*
X144427743Y-100660302D01*
X145165884Y-101676267D01*
X145192521Y-101708465D01*
X145224719Y-101747386D01*
X146084380Y-102662832D01*
X146151665Y-102726017D01*
X147119283Y-103526501D01*
X147193957Y-103580755D01*
X148254266Y-104253647D01*
X148254273Y-104253652D01*
X148335158Y-104298119D01*
X149471449Y-104832817D01*
X149557269Y-104866796D01*
X150751617Y-105254863D01*
X150841019Y-105277817D01*
X152074586Y-105513132D01*
X152166160Y-105524701D01*
X153406546Y-105602740D01*
X153429538Y-105605004D01*
X183501748Y-105605004D01*
X183513261Y-105603870D01*
X184116635Y-105584908D01*
X184151112Y-105581649D01*
X184185667Y-105579475D01*
X185431574Y-105422081D01*
X185431576Y-105422081D01*
X185522243Y-105404786D01*
X186738601Y-105092477D01*
X186767123Y-105083210D01*
X186826384Y-105063955D01*
X187994007Y-104601661D01*
X188055604Y-104572675D01*
X188077525Y-104562360D01*
X189178001Y-103957368D01*
X189255934Y-103907910D01*
X189255941Y-103907904D01*
X190271906Y-103169763D01*
X190313051Y-103135724D01*
X190343025Y-103110928D01*
X191258471Y-102251267D01*
X191281611Y-102226625D01*
X191321656Y-102183982D01*
X192122140Y-101216364D01*
X192176394Y-101141690D01*
X192849286Y-100081381D01*
X192849291Y-100081374D01*
X192893758Y-100000489D01*
X193428456Y-98864198D01*
X193436449Y-98844010D01*
X193462435Y-98778378D01*
X193850502Y-97584030D01*
X193873456Y-97494628D01*
X194108771Y-96261061D01*
X194112373Y-96232547D01*
X194120340Y-96169487D01*
X194198379Y-94929101D01*
X194200643Y-94906109D01*
X194200643Y-71653587D01*
X194199509Y-71642074D01*
X194180547Y-71038700D01*
X194177288Y-71004225D01*
X194175114Y-70969667D01*
X194017720Y-69723760D01*
X194014553Y-69707156D01*
X194000425Y-69633092D01*
X193688117Y-68416735D01*
X193661617Y-68335178D01*
X193659594Y-68328951D01*
X193197300Y-67161328D01*
X193157999Y-67077810D01*
X192553007Y-65977335D01*
X192526796Y-65936033D01*
X192503550Y-65899402D01*
X191765402Y-64883430D01*
X191706567Y-64812310D01*
X190846906Y-63896864D01*
X190818399Y-63870094D01*
X190779621Y-63833679D01*
X189812003Y-63033195D01*
X189737329Y-62978941D01*
X188677013Y-62306044D01*
X188596128Y-62261577D01*
X187459837Y-61726879D01*
X187398358Y-61702538D01*
X187374017Y-61692901D01*
X186179670Y-61304833D01*
X186090267Y-61281879D01*
X184856700Y-61046564D01*
X184765126Y-61034995D01*
X183524740Y-60956956D01*
X183501748Y-60954692D01*
X153429538Y-60954692D01*
X153418025Y-60955826D01*
X152814651Y-60974788D01*
X152780176Y-60978047D01*
X152745618Y-60980221D01*
X151499712Y-61137615D01*
X151499710Y-61137615D01*
X151409043Y-61154910D01*
X150192686Y-61467218D01*
X150146276Y-61482298D01*
X150104902Y-61495741D01*
X148937279Y-61958035D01*
X148863647Y-61992684D01*
X148853761Y-61997336D01*
X147753286Y-62602328D01*
X147723030Y-62621529D01*
X147675353Y-62651785D01*
X146659381Y-63389933D01*
X146588261Y-63448768D01*
X145672815Y-64308429D01*
X145609630Y-64375714D01*
X144809147Y-65343331D01*
X144809146Y-65343332D01*
X144754892Y-65418006D01*
X144081995Y-66478322D01*
X144057022Y-66523748D01*
X144037528Y-66559207D01*
X143502830Y-67695498D01*
X143487633Y-67733883D01*
X143468852Y-67781318D01*
X143461740Y-67803206D01*
X143461740Y-64964705D01*
X148436726Y-59989720D01*
X202061075Y-59989720D01*
X206888081Y-64816727D01*
G37*
X206888081Y-64816727D02*
X206888080Y-67463934D01*
X203235015Y-71117000D01*
X197437107Y-71117000D01*
X197426632Y-71106525D01*
X197252240Y-70990000D01*
X197426632Y-70873475D01*
X197633475Y-70666632D01*
X197795990Y-70423411D01*
X197907932Y-70153158D01*
X197965000Y-69866260D01*
X197965000Y-69573740D01*
X197907932Y-69286842D01*
X197795990Y-69016589D01*
X197633475Y-68773368D01*
X197426632Y-68566525D01*
X197183411Y-68404010D01*
X196913158Y-68292068D01*
X196626260Y-68235000D01*
X196333740Y-68235000D01*
X196046842Y-68292068D01*
X195776589Y-68404010D01*
X195533368Y-68566525D01*
X195326525Y-68773368D01*
X195164010Y-69016589D01*
X195052068Y-69286842D01*
X194995000Y-69573740D01*
X194995000Y-69866260D01*
X195052068Y-70153158D01*
X195164010Y-70423411D01*
X195326525Y-70666632D01*
X195533368Y-70873475D01*
X195707760Y-70990000D01*
X195533368Y-71106525D01*
X195326525Y-71313368D01*
X195164010Y-71556589D01*
X195052068Y-71826842D01*
X194995000Y-72113740D01*
X194995000Y-72406260D01*
X195052068Y-72693158D01*
X195164010Y-72963411D01*
X195326525Y-73206632D01*
X195533368Y-73413475D01*
X195715534Y-73535195D01*
X195598645Y-73604822D01*
X195382412Y-73799731D01*
X195208359Y-74033080D01*
X195083175Y-74295901D01*
X195038524Y-74443110D01*
X195159845Y-74673000D01*
X196353000Y-74673000D01*
X196353000Y-74653000D01*
X196607000Y-74653000D01*
X196607000Y-74673000D01*
X197800155Y-74673000D01*
X197921476Y-74443110D01*
X197876825Y-74295901D01*
X197751641Y-74033080D01*
X197577588Y-73799731D01*
X197361355Y-73604822D01*
X197244466Y-73535195D01*
X197426632Y-73413475D01*
X197437107Y-73403000D01*
X203548059Y-73403000D01*
X200371059Y-76580000D01*
X197758178Y-76580000D01*
X197633475Y-76393368D01*
X197426632Y-76186525D01*
X197244466Y-76064805D01*
X197361355Y-75995178D01*
X197577588Y-75800269D01*
X197751641Y-75566920D01*
X197876825Y-75304099D01*
X197921476Y-75156890D01*
X197800155Y-74927000D01*
X196607000Y-74927000D01*
X196607000Y-74947000D01*
X196353000Y-74947000D01*
X196353000Y-74927000D01*
X195159845Y-74927000D01*
X195038524Y-75156890D01*
X195083175Y-75304099D01*
X195208359Y-75566920D01*
X195382412Y-75800269D01*
X195598645Y-75995178D01*
X195715534Y-76064805D01*
X195533368Y-76186525D01*
X195326525Y-76393368D01*
X195164010Y-76636589D01*
X195052068Y-76906842D01*
X194995000Y-77193740D01*
X194995000Y-77486260D01*
X195052068Y-77773158D01*
X195164010Y-78043411D01*
X195326525Y-78286632D01*
X195533368Y-78493475D01*
X195707760Y-78610000D01*
X195533368Y-78726525D01*
X195326525Y-78933368D01*
X195164010Y-79176589D01*
X195052068Y-79446842D01*
X194995000Y-79733740D01*
X194995000Y-80026260D01*
X195052068Y-80313158D01*
X195164010Y-80583411D01*
X195326525Y-80826632D01*
X195533368Y-81033475D01*
X195707760Y-81150000D01*
X195533368Y-81266525D01*
X195326525Y-81473368D01*
X195164010Y-81716589D01*
X195052068Y-81986842D01*
X194995000Y-82273740D01*
X194995000Y-82566260D01*
X195052068Y-82853158D01*
X195164010Y-83123411D01*
X195326525Y-83366632D01*
X195533368Y-83573475D01*
X195707760Y-83690000D01*
X195533368Y-83806525D01*
X195326525Y-84013368D01*
X195164010Y-84256589D01*
X195052068Y-84526842D01*
X194995000Y-84813740D01*
X194995000Y-85106260D01*
X195052068Y-85393158D01*
X195164010Y-85663411D01*
X195326525Y-85906632D01*
X195533368Y-86113475D01*
X195707760Y-86230000D01*
X195533368Y-86346525D01*
X195326525Y-86553368D01*
X195164010Y-86796589D01*
X195052068Y-87066842D01*
X194995000Y-87353740D01*
X194995000Y-87646260D01*
X195052068Y-87933158D01*
X195164010Y-88203411D01*
X195326525Y-88446632D01*
X195533368Y-88653475D01*
X195707760Y-88770000D01*
X195533368Y-88886525D01*
X195326525Y-89093368D01*
X195164010Y-89336589D01*
X195052068Y-89606842D01*
X194995000Y-89893740D01*
X194995000Y-90186260D01*
X195052068Y-90473158D01*
X195164010Y-90743411D01*
X195326525Y-90986632D01*
X195533368Y-91193475D01*
X195707760Y-91310000D01*
X195533368Y-91426525D01*
X195326525Y-91633368D01*
X195164010Y-91876589D01*
X195052068Y-92146842D01*
X194995000Y-92433740D01*
X194995000Y-92726260D01*
X195052068Y-93013158D01*
X195164010Y-93283411D01*
X195326525Y-93526632D01*
X195458380Y-93658487D01*
X195385820Y-93680498D01*
X195275506Y-93739463D01*
X195178815Y-93818815D01*
X195099463Y-93915506D01*
X195040498Y-94025820D01*
X195004188Y-94145518D01*
X194991928Y-94270000D01*
X194991928Y-95970000D01*
X195004188Y-96094482D01*
X195040498Y-96214180D01*
X195099463Y-96324494D01*
X195178815Y-96421185D01*
X195275506Y-96500537D01*
X195385820Y-96559502D01*
X195505518Y-96595812D01*
X195630000Y-96608072D01*
X197330000Y-96608072D01*
X197454482Y-96595812D01*
X197574180Y-96559502D01*
X197684494Y-96500537D01*
X197781185Y-96421185D01*
X197860537Y-96324494D01*
X197919502Y-96214180D01*
X197955812Y-96094482D01*
X197968072Y-95970000D01*
X197968072Y-95880000D01*
X202409759Y-95880000D01*
X205528640Y-98998882D01*
X205528641Y-104406857D01*
X204015499Y-105920000D01*
X148627322Y-105920000D01*
X148589999Y-105916324D01*
X148552677Y-105920000D01*
X148552667Y-105920000D01*
X148441014Y-105930997D01*
X148411335Y-105940000D01*
X140734802Y-105940000D01*
X137820000Y-103025199D01*
X137820000Y-101093447D01*
X137919866Y-101215134D01*
X138145986Y-101400706D01*
X138285615Y-101475339D01*
X138286589Y-101475990D01*
X138287672Y-101476438D01*
X138403966Y-101538599D01*
X138530157Y-101576879D01*
X138556842Y-101587932D01*
X138585170Y-101593567D01*
X138683889Y-101623513D01*
X138786551Y-101633624D01*
X138843740Y-101645000D01*
X140406260Y-101645000D01*
X140463449Y-101633624D01*
X140566111Y-101623513D01*
X140664830Y-101593567D01*
X140693158Y-101587932D01*
X140719843Y-101576879D01*
X140846034Y-101538599D01*
X140962328Y-101476438D01*
X140963411Y-101475990D01*
X140964385Y-101475339D01*
X141104014Y-101400706D01*
X141330134Y-101215134D01*
X141515706Y-100989014D01*
X141653599Y-100731034D01*
X141738513Y-100451111D01*
X141767185Y-100160000D01*
X141738513Y-99868889D01*
X141653599Y-99588966D01*
X141515706Y-99330986D01*
X141330134Y-99104866D01*
X141104014Y-98919294D01*
X141049209Y-98890000D01*
X141104014Y-98860706D01*
X141330134Y-98675134D01*
X141515706Y-98449014D01*
X141653599Y-98191034D01*
X141738513Y-97911111D01*
X141767185Y-97620000D01*
X141738513Y-97328889D01*
X141653599Y-97048966D01*
X141515706Y-96790986D01*
X141330134Y-96564866D01*
X141104014Y-96379294D01*
X141049209Y-96350000D01*
X141104014Y-96320706D01*
X141330134Y-96135134D01*
X141515706Y-95909014D01*
X141653599Y-95651034D01*
X141738513Y-95371111D01*
X141767185Y-95080000D01*
X141738513Y-94788889D01*
X141653599Y-94508966D01*
X141515706Y-94250986D01*
X141330134Y-94024866D01*
X141104014Y-93839294D01*
X141049209Y-93810000D01*
X141104014Y-93780706D01*
X141330134Y-93595134D01*
X141515706Y-93369014D01*
X141653599Y-93111034D01*
X141738513Y-92831111D01*
X141767185Y-92540000D01*
X141738513Y-92248889D01*
X141653599Y-91968966D01*
X141515706Y-91710986D01*
X141330134Y-91484866D01*
X141104014Y-91299294D01*
X141049209Y-91270000D01*
X141104014Y-91240706D01*
X141330134Y-91055134D01*
X141515706Y-90829014D01*
X141653599Y-90571034D01*
X141738513Y-90291111D01*
X141767185Y-90000000D01*
X141738513Y-89708889D01*
X141653599Y-89428966D01*
X141515706Y-89170986D01*
X141330134Y-88944866D01*
X141104014Y-88759294D01*
X141049209Y-88730000D01*
X141104014Y-88700706D01*
X141330134Y-88515134D01*
X141515706Y-88289014D01*
X141653599Y-88031034D01*
X141738513Y-87751111D01*
X141767185Y-87460000D01*
X141738513Y-87168889D01*
X141653599Y-86888966D01*
X141515706Y-86630986D01*
X141330134Y-86404866D01*
X141104014Y-86219294D01*
X141049209Y-86190000D01*
X141104014Y-86160706D01*
X141330134Y-85975134D01*
X141515706Y-85749014D01*
X141653599Y-85491034D01*
X141738513Y-85211111D01*
X141767185Y-84920000D01*
X141738513Y-84628889D01*
X141653599Y-84348966D01*
X141515706Y-84090986D01*
X141330134Y-83864866D01*
X141104014Y-83679294D01*
X141049209Y-83650000D01*
X141104014Y-83620706D01*
X141330134Y-83435134D01*
X141515706Y-83209014D01*
X141653599Y-82951034D01*
X141738513Y-82671111D01*
X141767185Y-82380000D01*
X141738513Y-82088889D01*
X141653599Y-81808966D01*
X141515706Y-81550986D01*
X141330134Y-81324866D01*
X141104014Y-81139294D01*
X141049209Y-81110000D01*
X141104014Y-81080706D01*
X141330134Y-80895134D01*
X141515706Y-80669014D01*
X141653599Y-80411034D01*
X141738513Y-80131111D01*
X141767185Y-79840000D01*
X141738513Y-79548889D01*
X141653599Y-79268966D01*
X141515706Y-79010986D01*
X141330134Y-78784866D01*
X141104014Y-78599294D01*
X141049209Y-78570000D01*
X141104014Y-78540706D01*
X141330134Y-78355134D01*
X141515706Y-78129014D01*
X141653599Y-77871034D01*
X141738513Y-77591111D01*
X141767185Y-77300000D01*
X141738513Y-77008889D01*
X141653599Y-76728966D01*
X141515706Y-76470986D01*
X141330134Y-76244866D01*
X141104014Y-76059294D01*
X141049209Y-76030000D01*
X141104014Y-76000706D01*
X141330134Y-75815134D01*
X141515706Y-75589014D01*
X141653599Y-75331034D01*
X141738513Y-75051111D01*
X141767185Y-74760000D01*
X141738513Y-74468889D01*
X141653599Y-74188966D01*
X141515706Y-73930986D01*
X141330134Y-73704866D01*
X141104014Y-73519294D01*
X141049209Y-73490000D01*
X141104014Y-73460706D01*
X141330134Y-73275134D01*
X141515706Y-73049014D01*
X141653599Y-72791034D01*
X141686365Y-72683021D01*
X142732265Y-71637121D01*
X142730643Y-71653588D01*
X142730644Y-94906109D01*
X142731776Y-94917607D01*
X142750739Y-95520996D01*
X142753998Y-95555473D01*
X142756172Y-95590028D01*
X142913566Y-96835935D01*
X142913566Y-96835937D01*
X142930861Y-96926604D01*
X143243170Y-98142961D01*
X143271692Y-98230745D01*
X143733986Y-99398368D01*
X143750322Y-99433082D01*
X143773287Y-99481886D01*
X144378279Y-100582362D01*
X144427737Y-100660295D01*
X144427743Y-100660302D01*
X145165884Y-101676267D01*
X145192521Y-101708465D01*
X145224719Y-101747386D01*
X146084380Y-102662832D01*
X146151665Y-102726017D01*
X147119283Y-103526501D01*
X147193957Y-103580755D01*
X148254266Y-104253647D01*
X148254273Y-104253652D01*
X148335158Y-104298119D01*
X149471449Y-104832817D01*
X149557269Y-104866796D01*
X150751617Y-105254863D01*
X150841019Y-105277817D01*
X152074586Y-105513132D01*
X152166160Y-105524701D01*
X153406546Y-105602740D01*
X153429538Y-105605004D01*
X183501748Y-105605004D01*
X183513261Y-105603870D01*
X184116635Y-105584908D01*
X184151112Y-105581649D01*
X184185667Y-105579475D01*
X185431574Y-105422081D01*
X185431576Y-105422081D01*
X185522243Y-105404786D01*
X186738601Y-105092477D01*
X186767123Y-105083210D01*
X186826384Y-105063955D01*
X187994007Y-104601661D01*
X188055604Y-104572675D01*
X188077525Y-104562360D01*
X189178001Y-103957368D01*
X189255934Y-103907910D01*
X189255941Y-103907904D01*
X190271906Y-103169763D01*
X190313051Y-103135724D01*
X190343025Y-103110928D01*
X191258471Y-102251267D01*
X191281611Y-102226625D01*
X191321656Y-102183982D01*
X192122140Y-101216364D01*
X192176394Y-101141690D01*
X192849286Y-100081381D01*
X192849291Y-100081374D01*
X192893758Y-100000489D01*
X193428456Y-98864198D01*
X193436449Y-98844010D01*
X193462435Y-98778378D01*
X193850502Y-97584030D01*
X193873456Y-97494628D01*
X194108771Y-96261061D01*
X194112373Y-96232547D01*
X194120340Y-96169487D01*
X194198379Y-94929101D01*
X194200643Y-94906109D01*
X194200643Y-71653587D01*
X194199509Y-71642074D01*
X194180547Y-71038700D01*
X194177288Y-71004225D01*
X194175114Y-70969667D01*
X194017720Y-69723760D01*
X194014553Y-69707156D01*
X194000425Y-69633092D01*
X193688117Y-68416735D01*
X193661617Y-68335178D01*
X193659594Y-68328951D01*
X193197300Y-67161328D01*
X193157999Y-67077810D01*
X192553007Y-65977335D01*
X192526796Y-65936033D01*
X192503550Y-65899402D01*
X191765402Y-64883430D01*
X191706567Y-64812310D01*
X190846906Y-63896864D01*
X190818399Y-63870094D01*
X190779621Y-63833679D01*
X189812003Y-63033195D01*
X189737329Y-62978941D01*
X188677013Y-62306044D01*
X188596128Y-62261577D01*
X187459837Y-61726879D01*
X187398358Y-61702538D01*
X187374017Y-61692901D01*
X186179670Y-61304833D01*
X186090267Y-61281879D01*
X184856700Y-61046564D01*
X184765126Y-61034995D01*
X183524740Y-60956956D01*
X183501748Y-60954692D01*
X153429538Y-60954692D01*
X153418025Y-60955826D01*
X152814651Y-60974788D01*
X152780176Y-60978047D01*
X152745618Y-60980221D01*
X151499712Y-61137615D01*
X151499710Y-61137615D01*
X151409043Y-61154910D01*
X150192686Y-61467218D01*
X150146276Y-61482298D01*
X150104902Y-61495741D01*
X148937279Y-61958035D01*
X148863647Y-61992684D01*
X148853761Y-61997336D01*
X147753286Y-62602328D01*
X147723030Y-62621529D01*
X147675353Y-62651785D01*
X146659381Y-63389933D01*
X146588261Y-63448768D01*
X145672815Y-64308429D01*
X145609630Y-64375714D01*
X144809147Y-65343331D01*
X144809146Y-65343332D01*
X144754892Y-65418006D01*
X144081995Y-66478322D01*
X144057022Y-66523748D01*
X144037528Y-66559207D01*
X143502830Y-67695498D01*
X143487633Y-67733883D01*
X143468852Y-67781318D01*
X143461740Y-67803206D01*
X143461740Y-64964705D01*
X148436726Y-59989720D01*
X202061075Y-59989720D01*
X206888081Y-64816727D01*
G36*
X204693008Y-88399532D02*
G01*
X204382500Y-88607007D01*
X204118434Y-88871073D01*
X203910959Y-89181581D01*
X203768048Y-89526600D01*
X203695192Y-89892869D01*
X203695192Y-90266315D01*
X203768048Y-90632584D01*
X203910959Y-90977603D01*
X204118434Y-91288111D01*
X204382500Y-91552177D01*
X204693008Y-91759652D01*
X205038027Y-91902563D01*
X205404296Y-91975419D01*
X205777742Y-91975419D01*
X206144011Y-91902563D01*
X206489030Y-91759652D01*
X206799538Y-91552177D01*
X207063604Y-91288111D01*
X207271079Y-90977603D01*
X207413990Y-90632584D01*
X207486846Y-90266315D01*
X207486846Y-89892869D01*
X207413990Y-89526600D01*
X207271079Y-89181581D01*
X207219326Y-89104127D01*
X209780001Y-91664803D01*
X209780001Y-97039469D01*
X209743799Y-96995357D01*
X209720001Y-96966359D01*
X209691004Y-96942562D01*
X202277444Y-89529003D01*
X202253641Y-89499999D01*
X202137916Y-89405026D01*
X202005887Y-89334454D01*
X201862626Y-89290997D01*
X201750973Y-89280000D01*
X201750962Y-89280000D01*
X201713640Y-89276324D01*
X201676318Y-89280000D01*
X197758178Y-89280000D01*
X197633475Y-89093368D01*
X197426632Y-88886525D01*
X197252240Y-88770000D01*
X197426632Y-88653475D01*
X197633475Y-88446632D01*
X197758178Y-88260000D01*
X205029869Y-88260000D01*
X204693008Y-88399532D01*
G37*
X204693008Y-88399532D02*
X204382500Y-88607007D01*
X204118434Y-88871073D01*
X203910959Y-89181581D01*
X203768048Y-89526600D01*
X203695192Y-89892869D01*
X203695192Y-90266315D01*
X203768048Y-90632584D01*
X203910959Y-90977603D01*
X204118434Y-91288111D01*
X204382500Y-91552177D01*
X204693008Y-91759652D01*
X205038027Y-91902563D01*
X205404296Y-91975419D01*
X205777742Y-91975419D01*
X206144011Y-91902563D01*
X206489030Y-91759652D01*
X206799538Y-91552177D01*
X207063604Y-91288111D01*
X207271079Y-90977603D01*
X207413990Y-90632584D01*
X207486846Y-90266315D01*
X207486846Y-89892869D01*
X207413990Y-89526600D01*
X207271079Y-89181581D01*
X207219326Y-89104127D01*
X209780001Y-91664803D01*
X209780001Y-97039469D01*
X209743799Y-96995357D01*
X209720001Y-96966359D01*
X209691004Y-96942562D01*
X202277444Y-89529003D01*
X202253641Y-89499999D01*
X202137916Y-89405026D01*
X202005887Y-89334454D01*
X201862626Y-89290997D01*
X201750973Y-89280000D01*
X201750962Y-89280000D01*
X201713640Y-89276324D01*
X201676318Y-89280000D01*
X197758178Y-89280000D01*
X197633475Y-89093368D01*
X197426632Y-88886525D01*
X197252240Y-88770000D01*
X197426632Y-88653475D01*
X197633475Y-88446632D01*
X197758178Y-88260000D01*
X205029869Y-88260000D01*
X204693008Y-88399532D01*
G36*
X202885618Y-94374659D02*
G01*
X202873546Y-94370997D01*
X202761893Y-94360000D01*
X202761882Y-94360000D01*
X202724560Y-94356324D01*
X202687238Y-94360000D01*
X197968072Y-94360000D01*
X197968072Y-94270000D01*
X197955812Y-94145518D01*
X197919502Y-94025820D01*
X197860537Y-93915506D01*
X197781185Y-93818815D01*
X197684494Y-93739463D01*
X197574180Y-93680498D01*
X197501620Y-93658487D01*
X197633475Y-93526632D01*
X197758178Y-93340000D01*
X201850959Y-93340000D01*
X202885618Y-94374659D01*
G37*
X202885618Y-94374659D02*
X202873546Y-94370997D01*
X202761893Y-94360000D01*
X202761882Y-94360000D01*
X202724560Y-94356324D01*
X202687238Y-94360000D01*
X197968072Y-94360000D01*
X197968072Y-94270000D01*
X197955812Y-94145518D01*
X197919502Y-94025820D01*
X197860537Y-93915506D01*
X197781185Y-93818815D01*
X197684494Y-93739463D01*
X197574180Y-93680498D01*
X197501620Y-93658487D01*
X197633475Y-93526632D01*
X197758178Y-93340000D01*
X201850959Y-93340000D01*
X202885618Y-94374659D01*
G36*
X202490846Y-91892007D02*
G01*
X202458007Y-91874454D01*
X202314746Y-91830997D01*
X202203093Y-91820000D01*
X202203082Y-91820000D01*
X202165760Y-91816324D01*
X202128438Y-91820000D01*
X197758178Y-91820000D01*
X197633475Y-91633368D01*
X197426632Y-91426525D01*
X197252240Y-91310000D01*
X197426632Y-91193475D01*
X197633475Y-90986632D01*
X197758178Y-90800000D01*
X201398839Y-90800000D01*
X202490846Y-91892007D01*
G37*
X202490846Y-91892007D02*
X202458007Y-91874454D01*
X202314746Y-91830997D01*
X202203093Y-91820000D01*
X202203082Y-91820000D01*
X202165760Y-91816324D01*
X202128438Y-91820000D01*
X197758178Y-91820000D01*
X197633475Y-91633368D01*
X197426632Y-91426525D01*
X197252240Y-91310000D01*
X197426632Y-91193475D01*
X197633475Y-90986632D01*
X197758178Y-90800000D01*
X201398839Y-90800000D01*
X202490846Y-91892007D01*
G36*
X210960000Y-89294802D02*
G01*
X210960000Y-90695198D01*
X207253804Y-86989003D01*
X207230001Y-86959999D01*
X207114276Y-86865026D01*
X206982247Y-86794454D01*
X206838986Y-86750997D01*
X206727333Y-86740000D01*
X206727322Y-86740000D01*
X206690000Y-86736324D01*
X206652678Y-86740000D01*
X197758178Y-86740000D01*
X197633475Y-86553368D01*
X197426632Y-86346525D01*
X197252240Y-86230000D01*
X197426632Y-86113475D01*
X197633475Y-85906632D01*
X197758178Y-85720000D01*
X207385199Y-85720000D01*
X210960000Y-89294802D01*
G37*
X210960000Y-89294802D02*
X210960000Y-90695198D01*
X207253804Y-86989003D01*
X207230001Y-86959999D01*
X207114276Y-86865026D01*
X206982247Y-86794454D01*
X206838986Y-86750997D01*
X206727333Y-86740000D01*
X206727322Y-86740000D01*
X206690000Y-86736324D01*
X206652678Y-86740000D01*
X197758178Y-86740000D01*
X197633475Y-86553368D01*
X197426632Y-86346525D01*
X197252240Y-86230000D01*
X197426632Y-86113475D01*
X197633475Y-85906632D01*
X197758178Y-85720000D01*
X207385199Y-85720000D01*
X210960000Y-89294802D01*
G36*
X211330001Y-77155197D02*
G01*
X206825199Y-81660000D01*
X197758178Y-81660000D01*
X197633475Y-81473368D01*
X197426632Y-81266525D01*
X197252240Y-81150000D01*
X197426632Y-81033475D01*
X197633475Y-80826632D01*
X197758178Y-80640000D01*
X207102678Y-80640000D01*
X207140000Y-80643676D01*
X207177322Y-80640000D01*
X207177333Y-80640000D01*
X207288986Y-80629003D01*
X207432247Y-80585546D01*
X207564276Y-80514974D01*
X207680001Y-80420001D01*
X207703804Y-80390997D01*
X211330001Y-76764801D01*
X211330001Y-77155197D01*
G37*
X211330001Y-77155197D02*
X206825199Y-81660000D01*
X197758178Y-81660000D01*
X197633475Y-81473368D01*
X197426632Y-81266525D01*
X197252240Y-81150000D01*
X197426632Y-81033475D01*
X197633475Y-80826632D01*
X197758178Y-80640000D01*
X207102678Y-80640000D01*
X207140000Y-80643676D01*
X207177322Y-80640000D01*
X207177333Y-80640000D01*
X207288986Y-80629003D01*
X207432247Y-80585546D01*
X207564276Y-80514974D01*
X207680001Y-80420001D01*
X207703804Y-80390997D01*
X211330001Y-76764801D01*
X211330001Y-77155197D01*
G36*
X210060000Y-75885198D02*
G01*
X206825199Y-79120000D01*
X197758178Y-79120000D01*
X197633475Y-78933368D01*
X197426632Y-78726525D01*
X197252240Y-78610000D01*
X197426632Y-78493475D01*
X197633475Y-78286632D01*
X197758178Y-78100000D01*
X200648538Y-78100000D01*
X200685860Y-78103676D01*
X200723182Y-78100000D01*
X200723193Y-78100000D01*
X200834846Y-78089003D01*
X200978107Y-78045546D01*
X201110136Y-77974974D01*
X201225861Y-77880001D01*
X201249664Y-77850997D01*
X202698764Y-76401897D01*
X203811153Y-76401897D01*
X203811153Y-76775343D01*
X203884009Y-77141612D01*
X204026920Y-77486631D01*
X204234395Y-77797139D01*
X204498461Y-78061205D01*
X204808969Y-78268680D01*
X205153988Y-78411591D01*
X205520257Y-78484447D01*
X205893703Y-78484447D01*
X206259972Y-78411591D01*
X206604991Y-78268680D01*
X206915499Y-78061205D01*
X207179565Y-77797139D01*
X207387040Y-77486631D01*
X207529951Y-77141612D01*
X207602807Y-76775343D01*
X207602807Y-76401897D01*
X207529951Y-76035628D01*
X207387040Y-75690609D01*
X207179565Y-75380101D01*
X206915499Y-75116035D01*
X206604991Y-74908560D01*
X206259972Y-74765649D01*
X205893703Y-74692793D01*
X205520257Y-74692793D01*
X205153988Y-74765649D01*
X204808969Y-74908560D01*
X204498461Y-75116035D01*
X204234395Y-75380101D01*
X204026920Y-75690609D01*
X203884009Y-76035628D01*
X203811153Y-76401897D01*
X202698764Y-76401897D01*
X210060001Y-69040661D01*
X210060000Y-75885198D01*
G37*
X210060000Y-75885198D02*
X206825199Y-79120000D01*
X197758178Y-79120000D01*
X197633475Y-78933368D01*
X197426632Y-78726525D01*
X197252240Y-78610000D01*
X197426632Y-78493475D01*
X197633475Y-78286632D01*
X197758178Y-78100000D01*
X200648538Y-78100000D01*
X200685860Y-78103676D01*
X200723182Y-78100000D01*
X200723193Y-78100000D01*
X200834846Y-78089003D01*
X200978107Y-78045546D01*
X201110136Y-77974974D01*
X201225861Y-77880001D01*
X201249664Y-77850997D01*
X202698764Y-76401897D01*
X203811153Y-76401897D01*
X203811153Y-76775343D01*
X203884009Y-77141612D01*
X204026920Y-77486631D01*
X204234395Y-77797139D01*
X204498461Y-78061205D01*
X204808969Y-78268680D01*
X205153988Y-78411591D01*
X205520257Y-78484447D01*
X205893703Y-78484447D01*
X206259972Y-78411591D01*
X206604991Y-78268680D01*
X206915499Y-78061205D01*
X207179565Y-77797139D01*
X207387040Y-77486631D01*
X207529951Y-77141612D01*
X207602807Y-76775343D01*
X207602807Y-76401897D01*
X207529951Y-76035628D01*
X207387040Y-75690609D01*
X207179565Y-75380101D01*
X206915499Y-75116035D01*
X206604991Y-74908560D01*
X206259972Y-74765649D01*
X205893703Y-74692793D01*
X205520257Y-74692793D01*
X205153988Y-74765649D01*
X204808969Y-74908560D01*
X204498461Y-75116035D01*
X204234395Y-75380101D01*
X204026920Y-75690609D01*
X203884009Y-76035628D01*
X203811153Y-76401897D01*
X202698764Y-76401897D01*
X210060001Y-69040661D01*
X210060000Y-75885198D01*
G36*
X141550222Y-63643332D02*
G01*
X141506607Y-63679127D01*
X141473463Y-63719513D01*
X141330134Y-63544866D01*
X141104014Y-63359294D01*
X140964385Y-63284661D01*
X140963411Y-63284010D01*
X140962328Y-63283562D01*
X140846034Y-63221401D01*
X140719843Y-63183121D01*
X140693158Y-63172068D01*
X140664830Y-63166433D01*
X140566111Y-63136487D01*
X140463449Y-63126376D01*
X140406260Y-63115000D01*
X138843740Y-63115000D01*
X138786551Y-63126376D01*
X138683889Y-63136487D01*
X138585170Y-63166433D01*
X138556842Y-63172068D01*
X138530157Y-63183121D01*
X138403966Y-63221401D01*
X138287672Y-63283562D01*
X138286589Y-63284010D01*
X138285615Y-63284661D01*
X138145986Y-63359294D01*
X137919866Y-63544866D01*
X137734294Y-63770986D01*
X137596401Y-64028966D01*
X137511487Y-64308889D01*
X137482815Y-64600000D01*
X137511487Y-64891111D01*
X137596401Y-65171034D01*
X137734294Y-65429014D01*
X137919866Y-65655134D01*
X138145986Y-65840706D01*
X138204337Y-65871895D01*
X138044381Y-65975824D01*
X137835143Y-66179748D01*
X137669709Y-66420574D01*
X137554437Y-66689047D01*
X137533524Y-66783110D01*
X137654845Y-67013000D01*
X138779611Y-67013000D01*
X138769389Y-67208531D01*
X138777874Y-67267000D01*
X137654845Y-67267000D01*
X137533524Y-67496890D01*
X137554437Y-67590953D01*
X137669709Y-67859426D01*
X137835143Y-68100252D01*
X138044381Y-68304176D01*
X138204337Y-68408105D01*
X138145986Y-68439294D01*
X137919866Y-68624866D01*
X137734294Y-68850986D01*
X137596401Y-69108966D01*
X137511487Y-69388889D01*
X137482815Y-69680000D01*
X137511487Y-69971111D01*
X137596401Y-70251034D01*
X137734294Y-70509014D01*
X137919866Y-70735134D01*
X138145986Y-70920706D01*
X138200791Y-70950000D01*
X138145986Y-70979294D01*
X137919866Y-71164866D01*
X137734294Y-71390986D01*
X137596401Y-71648966D01*
X137511487Y-71928889D01*
X137482815Y-72220000D01*
X137511487Y-72511111D01*
X137596401Y-72791034D01*
X137734294Y-73049014D01*
X137919866Y-73275134D01*
X138145986Y-73460706D01*
X138200791Y-73490000D01*
X138145986Y-73519294D01*
X137919866Y-73704866D01*
X137820611Y-73825809D01*
X136810000Y-72815199D01*
X136810000Y-63364801D01*
X141716162Y-58458640D01*
X146734914Y-58458640D01*
X141550222Y-63643332D01*
G37*
X141550222Y-63643332D02*
X141506607Y-63679127D01*
X141473463Y-63719513D01*
X141330134Y-63544866D01*
X141104014Y-63359294D01*
X140964385Y-63284661D01*
X140963411Y-63284010D01*
X140962328Y-63283562D01*
X140846034Y-63221401D01*
X140719843Y-63183121D01*
X140693158Y-63172068D01*
X140664830Y-63166433D01*
X140566111Y-63136487D01*
X140463449Y-63126376D01*
X140406260Y-63115000D01*
X138843740Y-63115000D01*
X138786551Y-63126376D01*
X138683889Y-63136487D01*
X138585170Y-63166433D01*
X138556842Y-63172068D01*
X138530157Y-63183121D01*
X138403966Y-63221401D01*
X138287672Y-63283562D01*
X138286589Y-63284010D01*
X138285615Y-63284661D01*
X138145986Y-63359294D01*
X137919866Y-63544866D01*
X137734294Y-63770986D01*
X137596401Y-64028966D01*
X137511487Y-64308889D01*
X137482815Y-64600000D01*
X137511487Y-64891111D01*
X137596401Y-65171034D01*
X137734294Y-65429014D01*
X137919866Y-65655134D01*
X138145986Y-65840706D01*
X138204337Y-65871895D01*
X138044381Y-65975824D01*
X137835143Y-66179748D01*
X137669709Y-66420574D01*
X137554437Y-66689047D01*
X137533524Y-66783110D01*
X137654845Y-67013000D01*
X138779611Y-67013000D01*
X138769389Y-67208531D01*
X138777874Y-67267000D01*
X137654845Y-67267000D01*
X137533524Y-67496890D01*
X137554437Y-67590953D01*
X137669709Y-67859426D01*
X137835143Y-68100252D01*
X138044381Y-68304176D01*
X138204337Y-68408105D01*
X138145986Y-68439294D01*
X137919866Y-68624866D01*
X137734294Y-68850986D01*
X137596401Y-69108966D01*
X137511487Y-69388889D01*
X137482815Y-69680000D01*
X137511487Y-69971111D01*
X137596401Y-70251034D01*
X137734294Y-70509014D01*
X137919866Y-70735134D01*
X138145986Y-70920706D01*
X138200791Y-70950000D01*
X138145986Y-70979294D01*
X137919866Y-71164866D01*
X137734294Y-71390986D01*
X137596401Y-71648966D01*
X137511487Y-71928889D01*
X137482815Y-72220000D01*
X137511487Y-72511111D01*
X137596401Y-72791034D01*
X137734294Y-73049014D01*
X137919866Y-73275134D01*
X138145986Y-73460706D01*
X138200791Y-73490000D01*
X138145986Y-73519294D01*
X137919866Y-73704866D01*
X137820611Y-73825809D01*
X136810000Y-72815199D01*
X136810000Y-63364801D01*
X141716162Y-58458640D01*
X146734914Y-58458640D01*
X141550222Y-63643332D01*
M02*
