%FSLAX45Y45*%
G04 Gerber Fmt 4.5, Leading zero omitted, Abs format (unit mm)*
G04 Created by KiCad (PCBNEW (5.1.6)-1) date 2022-02-26 01:22:01*
%MOMM*%
%LPD*%
G01*
G04 APERTURE LIST*
%TA.AperFunction,Profile*%
%ADD10C,0.150000*%
%TD*%
%TA.AperFunction,Profile*%
%ADD11C,0.200000*%
%TD*%
%ADD12C,0.200000*%
%ADD13C,0.300000*%
G04 APERTURE END LIST*
D10*
X17039000Y-6179000D02*
G75*
G03*
X17039000Y-6179000I-100000J0D01*
G01*
X17039000Y-4379000D02*
G75*
G03*
X17039000Y-4379000I-100000J0D01*
G01*
X23639000Y-6180000D02*
G75*
G03*
X23639000Y-6180000I-100000J0D01*
G01*
X23639000Y-4379000D02*
G75*
G03*
X23639000Y-4379000I-100000J0D01*
G01*
D11*
X24739000Y-12592000D02*
G75*
G02*
X24239000Y-13092000I-500000J0D01*
G01*
X22439000Y-8785613D02*
G75*
G02*
X22677108Y-8359806I500000J-119D01*
G01*
X18039000Y-8785732D02*
X18039000Y-10106214D01*
X24739000Y-6812600D02*
G75*
G02*
X24500891Y-7238407I-500000J119D01*
G01*
X15977108Y-7238407D02*
X17800891Y-8359806D01*
X24239000Y-4092000D02*
X16239000Y-4092000D01*
X15739000Y-11106214D02*
G75*
G02*
X16239000Y-10606214I500000J0D01*
G01*
X24239000Y-10606214D02*
G75*
G02*
X24739000Y-11106214I0J-500000D01*
G01*
X15739000Y-4592000D02*
X15739000Y-6812481D01*
X24739000Y-6812481D02*
X24739000Y-4592000D01*
X22939000Y-10606214D02*
G75*
G02*
X22439000Y-10106214I0J500000D01*
G01*
X15739000Y-4592000D02*
G75*
G02*
X16239000Y-4092000I500000J0D01*
G01*
X18039000Y-10106214D02*
G75*
G02*
X17539000Y-10606214I-500000J0D01*
G01*
X24239000Y-4092000D02*
G75*
G02*
X24739000Y-4592000I0J-500000D01*
G01*
X16239000Y-13092000D02*
G75*
G02*
X15739000Y-12592000I0J500000D01*
G01*
X15977007Y-7238345D02*
G75*
G02*
X15739000Y-6812481I261993J425864D01*
G01*
X17800993Y-8359869D02*
G75*
G02*
X18039000Y-8785732I-261993J-425864D01*
G01*
X17889000Y-12192000D02*
X22589000Y-12192000D01*
X22589000Y-13092000D02*
X24239000Y-13092000D01*
X15739000Y-11106214D02*
X15739000Y-12592000D01*
X22589000Y-12192000D02*
X22589000Y-13092000D01*
X24239000Y-10606214D02*
X22939000Y-10606214D01*
X24739000Y-12592000D02*
X24739000Y-11106214D01*
X22677108Y-8359806D02*
X24500891Y-7238407D01*
X17539000Y-10606214D02*
X16239000Y-10606214D01*
X16239000Y-13092000D02*
X17889000Y-13092000D01*
X22439000Y-10106214D02*
X22439000Y-8785732D01*
X17889000Y-13092000D02*
X17889000Y-12192000D01*
D12*
X16480000Y-4980000D02*
X16520000Y-5020000D01*
X16520000Y-4980000D02*
X16480000Y-5020000D01*
X16480000Y-5480000D02*
X16520000Y-5520000D01*
X16520000Y-5480000D02*
X16480000Y-5520000D01*
X16480000Y-6480000D02*
X16520000Y-6520000D01*
X16520000Y-6480000D02*
X16480000Y-6520000D01*
X16480000Y-6980000D02*
X16520000Y-7020000D01*
X16520000Y-6980000D02*
X16480000Y-7020000D01*
X16480000Y-11480000D02*
X16520000Y-11520000D01*
X16520000Y-11480000D02*
X16480000Y-11520000D01*
X16912000Y-5235000D02*
X16952000Y-5275000D01*
X16952000Y-5235000D02*
X16912000Y-5275000D01*
X16980000Y-11480000D02*
X17020000Y-11520000D01*
X17020000Y-11480000D02*
X16980000Y-11520000D01*
X17850000Y-4670000D02*
X17890000Y-4710000D01*
X17890000Y-4670000D02*
X17850000Y-4710000D01*
X18080000Y-7470000D02*
X18120000Y-7510000D01*
X18120000Y-7470000D02*
X18080000Y-7510000D01*
X18195000Y-6330000D02*
X18235000Y-6370000D01*
X18235000Y-6330000D02*
X18195000Y-6370000D01*
X18197000Y-6747000D02*
X18237000Y-6787000D01*
X18237000Y-6747000D02*
X18197000Y-6787000D01*
X18400000Y-5580000D02*
X18440000Y-5620000D01*
X18440000Y-5580000D02*
X18400000Y-5620000D01*
X18480000Y-10480000D02*
X18520000Y-10520000D01*
X18520000Y-10480000D02*
X18480000Y-10520000D01*
X18740000Y-5870000D02*
X18780000Y-5910000D01*
X18780000Y-5870000D02*
X18740000Y-5910000D01*
X18893000Y-5969000D02*
X18933000Y-6009000D01*
X18933000Y-5969000D02*
X18893000Y-6009000D01*
X18893000Y-6138000D02*
X18933000Y-6178000D01*
X18933000Y-6138000D02*
X18893000Y-6178000D01*
X19002235Y-5684235D02*
X19042235Y-5724235D01*
X19042235Y-5684235D02*
X19002235Y-5724235D01*
X19010000Y-6380000D02*
X19050000Y-6420000D01*
X19050000Y-6380000D02*
X19010000Y-6420000D01*
X19109000Y-5791000D02*
X19149000Y-5831000D01*
X19149000Y-5791000D02*
X19109000Y-5831000D01*
X19160000Y-8410000D02*
X19200000Y-8450000D01*
X19200000Y-8410000D02*
X19160000Y-8450000D01*
X19470000Y-6050000D02*
X19510000Y-6090000D01*
X19510000Y-6050000D02*
X19470000Y-6090000D01*
X19540735Y-5915735D02*
X19580735Y-5955735D01*
X19580735Y-5915735D02*
X19540735Y-5955735D01*
X19580000Y-6390000D02*
X19620000Y-6430000D01*
X19620000Y-6390000D02*
X19580000Y-6430000D01*
X19930000Y-6875000D02*
X19970000Y-6915000D01*
X19970000Y-6875000D02*
X19930000Y-6915000D01*
X19936000Y-6975000D02*
X19976000Y-7015000D01*
X19976000Y-6975000D02*
X19936000Y-7015000D01*
X20108000Y-6170000D02*
X20148000Y-6210000D01*
X20148000Y-6170000D02*
X20108000Y-6210000D01*
X20160000Y-9160000D02*
X20200000Y-9200000D01*
X20200000Y-9160000D02*
X20160000Y-9200000D01*
X20162000Y-6047000D02*
X20202000Y-6087000D01*
X20202000Y-6047000D02*
X20162000Y-6087000D01*
X20180000Y-8140000D02*
X20220000Y-8180000D01*
X20220000Y-8140000D02*
X20180000Y-8180000D01*
X20210000Y-8530000D02*
X20250000Y-8570000D01*
X20250000Y-8530000D02*
X20210000Y-8570000D01*
X20230000Y-4940000D02*
X20270000Y-4980000D01*
X20270000Y-4940000D02*
X20230000Y-4980000D01*
X20295625Y-6177000D02*
X20335625Y-6217000D01*
X20335625Y-6177000D02*
X20295625Y-6217000D01*
X20320000Y-6420000D02*
X20360000Y-6460000D01*
X20360000Y-6420000D02*
X20320000Y-6460000D01*
X20457000Y-6162000D02*
X20497000Y-6202000D01*
X20497000Y-6162000D02*
X20457000Y-6202000D01*
X20512000Y-6449000D02*
X20552000Y-6489000D01*
X20552000Y-6449000D02*
X20512000Y-6489000D01*
X20552000Y-6981000D02*
X20592000Y-7021000D01*
X20592000Y-6981000D02*
X20552000Y-7021000D01*
X20595000Y-5983000D02*
X20635000Y-6023000D01*
X20635000Y-5983000D02*
X20595000Y-6023000D01*
X20643031Y-6891031D02*
X20683031Y-6931031D01*
X20683031Y-6891031D02*
X20643031Y-6931031D01*
X20700000Y-10870000D02*
X20740000Y-10910000D01*
X20740000Y-10870000D02*
X20700000Y-10910000D01*
X20720000Y-8270000D02*
X20760000Y-8310000D01*
X20760000Y-8270000D02*
X20720000Y-8310000D01*
X20752000Y-6993000D02*
X20792000Y-7033000D01*
X20792000Y-6993000D02*
X20752000Y-7033000D01*
X20836061Y-6903061D02*
X20876061Y-6943061D01*
X20876061Y-6903061D02*
X20836061Y-6943061D01*
X20984000Y-6290500D02*
X21024000Y-6330500D01*
X21024000Y-6290500D02*
X20984000Y-6330500D01*
X20984000Y-6435500D02*
X21024000Y-6475500D01*
X21024000Y-6435500D02*
X20984000Y-6475500D01*
X20990000Y-8270000D02*
X21030000Y-8310000D01*
X21030000Y-8270000D02*
X20990000Y-8310000D01*
X21162042Y-6177000D02*
X21202042Y-6217000D01*
X21202042Y-6177000D02*
X21162042Y-6217000D01*
X21220000Y-10460000D02*
X21260000Y-10500000D01*
X21260000Y-10460000D02*
X21220000Y-10500000D01*
X21230000Y-8270000D02*
X21270000Y-8310000D01*
X21270000Y-8270000D02*
X21230000Y-8310000D01*
X21390000Y-6281000D02*
X21430000Y-6321000D01*
X21430000Y-6281000D02*
X21390000Y-6321000D01*
X21480000Y-8260000D02*
X21520000Y-8300000D01*
X21520000Y-8260000D02*
X21480000Y-8300000D01*
X21730000Y-8270000D02*
X21770000Y-8310000D01*
X21770000Y-8270000D02*
X21730000Y-8310000D01*
X21830000Y-5980000D02*
X21870000Y-6020000D01*
X21870000Y-5980000D02*
X21830000Y-6020000D01*
X21980000Y-10480000D02*
X22020000Y-10520000D01*
X22020000Y-10480000D02*
X21980000Y-10520000D01*
X22118000Y-7608000D02*
X22158000Y-7648000D01*
X22158000Y-7608000D02*
X22118000Y-7648000D01*
X22450000Y-4630000D02*
X22490000Y-4670000D01*
X22490000Y-4630000D02*
X22450000Y-4670000D01*
X23480000Y-11480000D02*
X23520000Y-11520000D01*
X23520000Y-11480000D02*
X23480000Y-11520000D01*
X23530000Y-5235000D02*
X23570000Y-5275000D01*
X23570000Y-5235000D02*
X23530000Y-5275000D01*
X23980000Y-4980000D02*
X24020000Y-5020000D01*
X24020000Y-4980000D02*
X23980000Y-5020000D01*
X23980000Y-5480000D02*
X24020000Y-5520000D01*
X24020000Y-5480000D02*
X23980000Y-5520000D01*
X23980000Y-6480000D02*
X24020000Y-6520000D01*
X24020000Y-6480000D02*
X23980000Y-6520000D01*
X23980000Y-6980000D02*
X24020000Y-7020000D01*
X24020000Y-6980000D02*
X23980000Y-7020000D01*
X23980000Y-11480000D02*
X24020000Y-11520000D01*
X24020000Y-11480000D02*
X23980000Y-11520000D01*
X18624500Y-6660000D02*
G75*
G03*
X18624500Y-6660000I-42500J0D01*
G01*
X18624500Y-7452000D02*
G75*
G03*
X18624500Y-7452000I-42500J0D01*
G01*
X18878500Y-6660000D02*
G75*
G03*
X18878500Y-6660000I-42500J0D01*
G01*
X18878500Y-7452000D02*
G75*
G03*
X18878500Y-7452000I-42500J0D01*
G01*
X19132500Y-6660000D02*
G75*
G03*
X19132500Y-6660000I-42500J0D01*
G01*
X19132500Y-7452000D02*
G75*
G03*
X19132500Y-7452000I-42500J0D01*
G01*
X19386500Y-6660000D02*
G75*
G03*
X19386500Y-6660000I-42500J0D01*
G01*
X19386500Y-7452000D02*
G75*
G03*
X19386500Y-7452000I-42500J0D01*
G01*
X19640500Y-6660000D02*
G75*
G03*
X19640500Y-6660000I-42500J0D01*
G01*
X19640500Y-7452000D02*
G75*
G03*
X19640500Y-7452000I-42500J0D01*
G01*
X19894500Y-6660000D02*
G75*
G03*
X19894500Y-6660000I-42500J0D01*
G01*
X19894500Y-7452000D02*
G75*
G03*
X19894500Y-7452000I-42500J0D01*
G01*
X20148500Y-6660000D02*
G75*
G03*
X20148500Y-6660000I-42500J0D01*
G01*
X20148500Y-7452000D02*
G75*
G03*
X20148500Y-7452000I-42500J0D01*
G01*
X20402500Y-6660000D02*
G75*
G03*
X20402500Y-6660000I-42500J0D01*
G01*
X20402500Y-7452000D02*
G75*
G03*
X20402500Y-7452000I-42500J0D01*
G01*
X20656500Y-6660000D02*
G75*
G03*
X20656500Y-6660000I-42500J0D01*
G01*
X20656500Y-7452000D02*
G75*
G03*
X20656500Y-7452000I-42500J0D01*
G01*
X20910500Y-6660000D02*
G75*
G03*
X20910500Y-6660000I-42500J0D01*
G01*
X20910500Y-7452000D02*
G75*
G03*
X20910500Y-7452000I-42500J0D01*
G01*
X21164500Y-6660000D02*
G75*
G03*
X21164500Y-6660000I-42500J0D01*
G01*
X21164500Y-7452000D02*
G75*
G03*
X21164500Y-7452000I-42500J0D01*
G01*
X21418500Y-6660000D02*
G75*
G03*
X21418500Y-6660000I-42500J0D01*
G01*
X21418500Y-7452000D02*
G75*
G03*
X21418500Y-7452000I-42500J0D01*
G01*
X21672500Y-6660000D02*
G75*
G03*
X21672500Y-6660000I-42500J0D01*
G01*
X21672500Y-7452000D02*
G75*
G03*
X21672500Y-7452000I-42500J0D01*
G01*
X21926500Y-6660000D02*
G75*
G03*
X21926500Y-6660000I-42500J0D01*
G01*
X21926500Y-7452000D02*
G75*
G03*
X21926500Y-7452000I-42500J0D01*
G01*
X18809000Y-9568000D02*
X18809000Y-9668000D01*
X18759000Y-9618000D02*
X18859000Y-9618000D01*
X18809000Y-9822000D02*
X18809000Y-9922000D01*
X18759000Y-9872000D02*
X18859000Y-9872000D01*
X18638000Y-7899000D02*
X18638000Y-7999000D01*
X18588000Y-7949000D02*
X18688000Y-7949000D01*
X18892000Y-7899000D02*
X18892000Y-7999000D01*
X18842000Y-7949000D02*
X18942000Y-7949000D01*
X19146000Y-7899000D02*
X19146000Y-7999000D01*
X19096000Y-7949000D02*
X19196000Y-7949000D01*
X19400000Y-7899000D02*
X19400000Y-7999000D01*
X19350000Y-7949000D02*
X19450000Y-7949000D01*
X19654000Y-7899000D02*
X19654000Y-7999000D01*
X19604000Y-7949000D02*
X19704000Y-7949000D01*
X19908000Y-7899000D02*
X19908000Y-7999000D01*
X19858000Y-7949000D02*
X19958000Y-7949000D01*
X17697000Y-6726000D02*
X17697000Y-6826000D01*
X17647000Y-6776000D02*
X17747000Y-6776000D01*
X17697000Y-6980000D02*
X17697000Y-7080000D01*
X17647000Y-7030000D02*
X17747000Y-7030000D01*
X17697000Y-7234000D02*
X17697000Y-7334000D01*
X17647000Y-7284000D02*
X17747000Y-7284000D01*
X17951000Y-6726000D02*
X17951000Y-6826000D01*
X17901000Y-6776000D02*
X18001000Y-6776000D01*
X17951000Y-6980000D02*
X17951000Y-7080000D01*
X17901000Y-7030000D02*
X18001000Y-7030000D01*
X17951000Y-7234000D02*
X17951000Y-7334000D01*
X17901000Y-7284000D02*
X18001000Y-7284000D01*
X18970000Y-11068000D02*
X18970000Y-11168000D01*
X18920000Y-11118000D02*
X19020000Y-11118000D01*
X19224000Y-11068000D02*
X19224000Y-11168000D01*
X19174000Y-11118000D02*
X19274000Y-11118000D01*
X19478000Y-11068000D02*
X19478000Y-11168000D01*
X19428000Y-11118000D02*
X19528000Y-11118000D01*
X19732000Y-11068000D02*
X19732000Y-11168000D01*
X19682000Y-11118000D02*
X19782000Y-11118000D01*
X19986000Y-11068000D02*
X19986000Y-11168000D01*
X19936000Y-11118000D02*
X20036000Y-11118000D01*
X20240000Y-11068000D02*
X20240000Y-11168000D01*
X20190000Y-11118000D02*
X20290000Y-11118000D01*
X20494000Y-11068000D02*
X20494000Y-11168000D01*
X20444000Y-11118000D02*
X20544000Y-11118000D01*
X20748000Y-11068000D02*
X20748000Y-11168000D01*
X20698000Y-11118000D02*
X20798000Y-11118000D01*
X21002000Y-11068000D02*
X21002000Y-11168000D01*
X20952000Y-11118000D02*
X21052000Y-11118000D01*
X21256000Y-11068000D02*
X21256000Y-11168000D01*
X21206000Y-11118000D02*
X21306000Y-11118000D01*
X21510000Y-11068000D02*
X21510000Y-11168000D01*
X21460000Y-11118000D02*
X21560000Y-11118000D01*
X18616000Y-5034000D02*
X18616000Y-5134000D01*
X18566000Y-5084000D02*
X18666000Y-5084000D01*
X18616000Y-5288000D02*
X18616000Y-5388000D01*
X18566000Y-5338000D02*
X18666000Y-5338000D01*
X21864000Y-5030000D02*
X21864000Y-5130000D01*
X21814000Y-5080000D02*
X21914000Y-5080000D01*
X21864000Y-5284000D02*
X21864000Y-5384000D01*
X21814000Y-5334000D02*
X21914000Y-5334000D01*
X19387770Y-4521770D02*
X19387770Y-4448230D01*
X19314230Y-4448230D01*
X19314230Y-4521770D01*
X19387770Y-4521770D01*
X19387770Y-5791770D02*
X19387770Y-5718230D01*
X19314230Y-5718230D01*
X19314230Y-5791770D01*
X19387770Y-5791770D01*
X19641770Y-4521770D02*
X19641770Y-4448230D01*
X19568230Y-4448230D01*
X19568230Y-4521770D01*
X19641770Y-4521770D01*
X19641770Y-5791770D02*
X19641770Y-5718230D01*
X19568230Y-5718230D01*
X19568230Y-5791770D01*
X19641770Y-5791770D01*
X19895770Y-4521770D02*
X19895770Y-4448230D01*
X19822230Y-4448230D01*
X19822230Y-4521770D01*
X19895770Y-4521770D01*
X19895770Y-5791770D02*
X19895770Y-5718230D01*
X19822230Y-5718230D01*
X19822230Y-5791770D01*
X19895770Y-5791770D01*
X20149770Y-4521770D02*
X20149770Y-4448230D01*
X20076230Y-4448230D01*
X20076230Y-4521770D01*
X20149770Y-4521770D01*
X20149770Y-5791770D02*
X20149770Y-5718230D01*
X20076230Y-5718230D01*
X20076230Y-5791770D01*
X20149770Y-5791770D01*
X20403770Y-4521770D02*
X20403770Y-4448230D01*
X20330230Y-4448230D01*
X20330230Y-4521770D01*
X20403770Y-4521770D01*
X20403770Y-5791770D02*
X20403770Y-5718230D01*
X20330230Y-5718230D01*
X20330230Y-5791770D01*
X20403770Y-5791770D01*
X20657770Y-4521770D02*
X20657770Y-4448230D01*
X20584230Y-4448230D01*
X20584230Y-4521770D01*
X20657770Y-4521770D01*
X20657770Y-5791770D02*
X20657770Y-5718230D01*
X20584230Y-5718230D01*
X20584230Y-5791770D01*
X20657770Y-5791770D01*
X20911770Y-4521770D02*
X20911770Y-4448230D01*
X20838230Y-4448230D01*
X20838230Y-4521770D01*
X20911770Y-4521770D01*
X20911770Y-5791770D02*
X20911770Y-5718230D01*
X20838230Y-5718230D01*
X20838230Y-5791770D01*
X20911770Y-5791770D01*
X21165770Y-4521770D02*
X21165770Y-4448230D01*
X21092230Y-4448230D01*
X21092230Y-4521770D01*
X21165770Y-4521770D01*
X21165770Y-5791770D02*
X21165770Y-5718230D01*
X21092230Y-5718230D01*
X21092230Y-5791770D01*
X21165770Y-5791770D01*
X18925000Y-9244000D02*
X18987000Y-9182000D01*
X18925000Y-9120000D01*
X18863000Y-9182000D01*
X18925000Y-9244000D01*
X19179000Y-9244000D02*
X19241000Y-9182000D01*
X19179000Y-9120000D01*
X19117000Y-9182000D01*
X19179000Y-9244000D01*
X19433000Y-9244000D02*
X19495000Y-9182000D01*
X19433000Y-9120000D01*
X19371000Y-9182000D01*
X19433000Y-9244000D01*
X16641500Y-12594000D02*
X16851500Y-12804000D01*
X16851500Y-12594000D02*
X16641500Y-12804000D01*
X16851500Y-12699000D02*
G75*
G03*
X16851500Y-12699000I-105000J0D01*
G01*
X23626500Y-12594000D02*
X23836500Y-12804000D01*
X23836500Y-12594000D02*
X23626500Y-12804000D01*
X23836500Y-12699000D02*
G75*
G03*
X23836500Y-12699000I-105000J0D01*
G01*
D13*
X16015428Y-13567714D02*
X16015428Y-13267714D01*
X16086857Y-13267714D01*
X16129714Y-13282000D01*
X16158286Y-13310571D01*
X16172571Y-13339143D01*
X16186857Y-13396286D01*
X16186857Y-13439143D01*
X16172571Y-13496286D01*
X16158286Y-13524857D01*
X16129714Y-13553429D01*
X16086857Y-13567714D01*
X16015428Y-13567714D01*
X16315428Y-13567714D02*
X16315428Y-13367714D01*
X16315428Y-13424857D02*
X16329714Y-13396286D01*
X16344000Y-13382000D01*
X16372571Y-13367714D01*
X16401143Y-13367714D01*
X16501143Y-13567714D02*
X16501143Y-13367714D01*
X16501143Y-13267714D02*
X16486857Y-13282000D01*
X16501143Y-13296286D01*
X16515428Y-13282000D01*
X16501143Y-13267714D01*
X16501143Y-13296286D01*
X16686857Y-13567714D02*
X16658286Y-13553429D01*
X16644000Y-13524857D01*
X16644000Y-13267714D01*
X16844000Y-13567714D02*
X16815428Y-13553429D01*
X16801143Y-13524857D01*
X16801143Y-13267714D01*
X17186857Y-13567714D02*
X17186857Y-13267714D01*
X17286857Y-13482000D01*
X17386857Y-13267714D01*
X17386857Y-13567714D01*
X17658286Y-13567714D02*
X17658286Y-13410571D01*
X17644000Y-13382000D01*
X17615428Y-13367714D01*
X17558286Y-13367714D01*
X17529714Y-13382000D01*
X17658286Y-13553429D02*
X17629714Y-13567714D01*
X17558286Y-13567714D01*
X17529714Y-13553429D01*
X17515428Y-13524857D01*
X17515428Y-13496286D01*
X17529714Y-13467714D01*
X17558286Y-13453429D01*
X17629714Y-13453429D01*
X17658286Y-13439143D01*
X17801143Y-13367714D02*
X17801143Y-13667714D01*
X17801143Y-13382000D02*
X17829714Y-13367714D01*
X17886857Y-13367714D01*
X17915428Y-13382000D01*
X17929714Y-13396286D01*
X17944000Y-13424857D01*
X17944000Y-13510571D01*
X17929714Y-13539143D01*
X17915428Y-13553429D01*
X17886857Y-13567714D01*
X17829714Y-13567714D01*
X17801143Y-13553429D01*
X18072571Y-13539143D02*
X18086857Y-13553429D01*
X18072571Y-13567714D01*
X18058286Y-13553429D01*
X18072571Y-13539143D01*
X18072571Y-13567714D01*
X18072571Y-13382000D02*
X18086857Y-13396286D01*
X18072571Y-13410571D01*
X18058286Y-13396286D01*
X18072571Y-13382000D01*
X18072571Y-13410571D01*
X15689000Y-14042000D02*
X15729000Y-14082000D01*
X15729000Y-14042000D02*
X15689000Y-14082000D01*
X16072571Y-13897714D02*
X16101143Y-13897714D01*
X16129714Y-13912000D01*
X16144000Y-13926286D01*
X16158286Y-13954857D01*
X16172571Y-14012000D01*
X16172571Y-14083429D01*
X16158286Y-14140571D01*
X16144000Y-14169143D01*
X16129714Y-14183429D01*
X16101143Y-14197714D01*
X16072571Y-14197714D01*
X16044000Y-14183429D01*
X16029714Y-14169143D01*
X16015428Y-14140571D01*
X16001143Y-14083429D01*
X16001143Y-14012000D01*
X16015428Y-13954857D01*
X16029714Y-13926286D01*
X16044000Y-13912000D01*
X16072571Y-13897714D01*
X16301143Y-14169143D02*
X16315428Y-14183429D01*
X16301143Y-14197714D01*
X16286857Y-14183429D01*
X16301143Y-14169143D01*
X16301143Y-14197714D01*
X16572571Y-13997714D02*
X16572571Y-14197714D01*
X16501143Y-13883429D02*
X16429714Y-14097714D01*
X16615428Y-14097714D01*
X16786857Y-13897714D02*
X16815428Y-13897714D01*
X16844000Y-13912000D01*
X16858286Y-13926286D01*
X16872571Y-13954857D01*
X16886857Y-14012000D01*
X16886857Y-14083429D01*
X16872571Y-14140571D01*
X16858286Y-14169143D01*
X16844000Y-14183429D01*
X16815428Y-14197714D01*
X16786857Y-14197714D01*
X16758286Y-14183429D01*
X16744000Y-14169143D01*
X16729714Y-14140571D01*
X16715428Y-14083429D01*
X16715428Y-14012000D01*
X16729714Y-13954857D01*
X16744000Y-13926286D01*
X16758286Y-13912000D01*
X16786857Y-13897714D01*
X17015428Y-14197714D02*
X17015428Y-13997714D01*
X17015428Y-14026286D02*
X17029714Y-14012000D01*
X17058286Y-13997714D01*
X17101143Y-13997714D01*
X17129714Y-14012000D01*
X17144000Y-14040571D01*
X17144000Y-14197714D01*
X17144000Y-14040571D02*
X17158286Y-14012000D01*
X17186857Y-13997714D01*
X17229714Y-13997714D01*
X17258286Y-14012000D01*
X17272571Y-14040571D01*
X17272571Y-14197714D01*
X17415428Y-14197714D02*
X17415428Y-13997714D01*
X17415428Y-14026286D02*
X17429714Y-14012000D01*
X17458286Y-13997714D01*
X17501143Y-13997714D01*
X17529714Y-14012000D01*
X17544000Y-14040571D01*
X17544000Y-14197714D01*
X17544000Y-14040571D02*
X17558286Y-14012000D01*
X17586857Y-13997714D01*
X17629714Y-13997714D01*
X17658286Y-14012000D01*
X17672571Y-14040571D01*
X17672571Y-14197714D01*
X18258286Y-13883429D02*
X18001143Y-14269143D01*
X18644000Y-13897714D02*
X18672571Y-13897714D01*
X18701143Y-13912000D01*
X18715428Y-13926286D01*
X18729714Y-13954857D01*
X18744000Y-14012000D01*
X18744000Y-14083429D01*
X18729714Y-14140571D01*
X18715428Y-14169143D01*
X18701143Y-14183429D01*
X18672571Y-14197714D01*
X18644000Y-14197714D01*
X18615428Y-14183429D01*
X18601143Y-14169143D01*
X18586857Y-14140571D01*
X18572571Y-14083429D01*
X18572571Y-14012000D01*
X18586857Y-13954857D01*
X18601143Y-13926286D01*
X18615428Y-13912000D01*
X18644000Y-13897714D01*
X18872571Y-14169143D02*
X18886857Y-14183429D01*
X18872571Y-14197714D01*
X18858286Y-14183429D01*
X18872571Y-14169143D01*
X18872571Y-14197714D01*
X19072571Y-13897714D02*
X19101143Y-13897714D01*
X19129714Y-13912000D01*
X19144000Y-13926286D01*
X19158286Y-13954857D01*
X19172571Y-14012000D01*
X19172571Y-14083429D01*
X19158286Y-14140571D01*
X19144000Y-14169143D01*
X19129714Y-14183429D01*
X19101143Y-14197714D01*
X19072571Y-14197714D01*
X19044000Y-14183429D01*
X19029714Y-14169143D01*
X19015428Y-14140571D01*
X19001143Y-14083429D01*
X19001143Y-14012000D01*
X19015428Y-13954857D01*
X19029714Y-13926286D01*
X19044000Y-13912000D01*
X19072571Y-13897714D01*
X19458286Y-14197714D02*
X19286857Y-14197714D01*
X19372571Y-14197714D02*
X19372571Y-13897714D01*
X19344000Y-13940571D01*
X19315428Y-13969143D01*
X19286857Y-13983429D01*
X19715428Y-13897714D02*
X19658286Y-13897714D01*
X19629714Y-13912000D01*
X19615428Y-13926286D01*
X19586857Y-13969143D01*
X19572571Y-14026286D01*
X19572571Y-14140571D01*
X19586857Y-14169143D01*
X19601143Y-14183429D01*
X19629714Y-14197714D01*
X19686857Y-14197714D01*
X19715428Y-14183429D01*
X19729714Y-14169143D01*
X19744000Y-14140571D01*
X19744000Y-14069143D01*
X19729714Y-14040571D01*
X19715428Y-14026286D01*
X19686857Y-14012000D01*
X19629714Y-14012000D01*
X19601143Y-14026286D01*
X19586857Y-14040571D01*
X19572571Y-14069143D01*
X19858286Y-13897714D02*
X19858286Y-13954857D01*
X19972571Y-13897714D02*
X19972571Y-13954857D01*
X20415428Y-14312000D02*
X20401143Y-14297714D01*
X20372571Y-14254857D01*
X20358286Y-14226286D01*
X20344000Y-14183429D01*
X20329714Y-14112000D01*
X20329714Y-14054857D01*
X20344000Y-13983429D01*
X20358286Y-13940571D01*
X20372571Y-13912000D01*
X20401143Y-13869143D01*
X20415428Y-13854857D01*
X20658286Y-13897714D02*
X20601143Y-13897714D01*
X20572571Y-13912000D01*
X20558286Y-13926286D01*
X20529714Y-13969143D01*
X20515428Y-14026286D01*
X20515428Y-14140571D01*
X20529714Y-14169143D01*
X20544000Y-14183429D01*
X20572571Y-14197714D01*
X20629714Y-14197714D01*
X20658286Y-14183429D01*
X20672571Y-14169143D01*
X20686857Y-14140571D01*
X20686857Y-14069143D01*
X20672571Y-14040571D01*
X20658286Y-14026286D01*
X20629714Y-14012000D01*
X20572571Y-14012000D01*
X20544000Y-14026286D01*
X20529714Y-14040571D01*
X20515428Y-14069143D01*
X20801143Y-13926286D02*
X20815428Y-13912000D01*
X20844000Y-13897714D01*
X20915428Y-13897714D01*
X20944000Y-13912000D01*
X20958286Y-13926286D01*
X20972571Y-13954857D01*
X20972571Y-13983429D01*
X20958286Y-14026286D01*
X20786857Y-14197714D01*
X20972571Y-14197714D01*
X21329714Y-14197714D02*
X21329714Y-13897714D01*
X21458286Y-14197714D02*
X21458286Y-14040571D01*
X21444000Y-14012000D01*
X21415428Y-13997714D01*
X21372571Y-13997714D01*
X21344000Y-14012000D01*
X21329714Y-14026286D01*
X21644000Y-14197714D02*
X21615428Y-14183429D01*
X21601143Y-14169143D01*
X21586857Y-14140571D01*
X21586857Y-14054857D01*
X21601143Y-14026286D01*
X21615428Y-14012000D01*
X21644000Y-13997714D01*
X21686857Y-13997714D01*
X21715428Y-14012000D01*
X21729714Y-14026286D01*
X21744000Y-14054857D01*
X21744000Y-14140571D01*
X21729714Y-14169143D01*
X21715428Y-14183429D01*
X21686857Y-14197714D01*
X21644000Y-14197714D01*
X21915428Y-14197714D02*
X21886857Y-14183429D01*
X21872571Y-14154857D01*
X21872571Y-13897714D01*
X22144000Y-14183429D02*
X22115428Y-14197714D01*
X22058286Y-14197714D01*
X22029714Y-14183429D01*
X22015428Y-14154857D01*
X22015428Y-14040571D01*
X22029714Y-14012000D01*
X22058286Y-13997714D01*
X22115428Y-13997714D01*
X22144000Y-14012000D01*
X22158286Y-14040571D01*
X22158286Y-14069143D01*
X22015428Y-14097714D01*
X22272571Y-14183429D02*
X22301143Y-14197714D01*
X22358286Y-14197714D01*
X22386857Y-14183429D01*
X22401143Y-14154857D01*
X22401143Y-14140571D01*
X22386857Y-14112000D01*
X22358286Y-14097714D01*
X22315428Y-14097714D01*
X22286857Y-14083429D01*
X22272571Y-14054857D01*
X22272571Y-14040571D01*
X22286857Y-14012000D01*
X22315428Y-13997714D01*
X22358286Y-13997714D01*
X22386857Y-14012000D01*
X22501143Y-14312000D02*
X22515428Y-14297714D01*
X22544000Y-14254857D01*
X22558286Y-14226286D01*
X22572571Y-14183429D01*
X22586857Y-14112000D01*
X22586857Y-14054857D01*
X22572571Y-13983429D01*
X22558286Y-13940571D01*
X22544000Y-13912000D01*
X22515428Y-13869143D01*
X22501143Y-13854857D01*
X15729000Y-14458000D02*
G75*
G03*
X15729000Y-14458000I-42500J0D01*
G01*
X16072571Y-14293714D02*
X16101143Y-14293714D01*
X16129714Y-14308000D01*
X16144000Y-14322286D01*
X16158286Y-14350857D01*
X16172571Y-14408000D01*
X16172571Y-14479429D01*
X16158286Y-14536571D01*
X16144000Y-14565143D01*
X16129714Y-14579429D01*
X16101143Y-14593714D01*
X16072571Y-14593714D01*
X16044000Y-14579429D01*
X16029714Y-14565143D01*
X16015428Y-14536571D01*
X16001143Y-14479429D01*
X16001143Y-14408000D01*
X16015428Y-14350857D01*
X16029714Y-14322286D01*
X16044000Y-14308000D01*
X16072571Y-14293714D01*
X16301143Y-14565143D02*
X16315428Y-14579429D01*
X16301143Y-14593714D01*
X16286857Y-14579429D01*
X16301143Y-14565143D01*
X16301143Y-14593714D01*
X16486857Y-14422286D02*
X16458286Y-14408000D01*
X16444000Y-14393714D01*
X16429714Y-14365143D01*
X16429714Y-14350857D01*
X16444000Y-14322286D01*
X16458286Y-14308000D01*
X16486857Y-14293714D01*
X16544000Y-14293714D01*
X16572571Y-14308000D01*
X16586857Y-14322286D01*
X16601143Y-14350857D01*
X16601143Y-14365143D01*
X16586857Y-14393714D01*
X16572571Y-14408000D01*
X16544000Y-14422286D01*
X16486857Y-14422286D01*
X16458286Y-14436571D01*
X16444000Y-14450857D01*
X16429714Y-14479429D01*
X16429714Y-14536571D01*
X16444000Y-14565143D01*
X16458286Y-14579429D01*
X16486857Y-14593714D01*
X16544000Y-14593714D01*
X16572571Y-14579429D01*
X16586857Y-14565143D01*
X16601143Y-14536571D01*
X16601143Y-14479429D01*
X16586857Y-14450857D01*
X16572571Y-14436571D01*
X16544000Y-14422286D01*
X16872571Y-14293714D02*
X16729714Y-14293714D01*
X16715428Y-14436571D01*
X16729714Y-14422286D01*
X16758286Y-14408000D01*
X16829714Y-14408000D01*
X16858286Y-14422286D01*
X16872571Y-14436571D01*
X16886857Y-14465143D01*
X16886857Y-14536571D01*
X16872571Y-14565143D01*
X16858286Y-14579429D01*
X16829714Y-14593714D01*
X16758286Y-14593714D01*
X16729714Y-14579429D01*
X16715428Y-14565143D01*
X17015428Y-14593714D02*
X17015428Y-14393714D01*
X17015428Y-14422286D02*
X17029714Y-14408000D01*
X17058286Y-14393714D01*
X17101143Y-14393714D01*
X17129714Y-14408000D01*
X17144000Y-14436571D01*
X17144000Y-14593714D01*
X17144000Y-14436571D02*
X17158286Y-14408000D01*
X17186857Y-14393714D01*
X17229714Y-14393714D01*
X17258286Y-14408000D01*
X17272571Y-14436571D01*
X17272571Y-14593714D01*
X17415428Y-14593714D02*
X17415428Y-14393714D01*
X17415428Y-14422286D02*
X17429714Y-14408000D01*
X17458286Y-14393714D01*
X17501143Y-14393714D01*
X17529714Y-14408000D01*
X17544000Y-14436571D01*
X17544000Y-14593714D01*
X17544000Y-14436571D02*
X17558286Y-14408000D01*
X17586857Y-14393714D01*
X17629714Y-14393714D01*
X17658286Y-14408000D01*
X17672571Y-14436571D01*
X17672571Y-14593714D01*
X18258286Y-14279429D02*
X18001143Y-14665143D01*
X18644000Y-14293714D02*
X18672571Y-14293714D01*
X18701143Y-14308000D01*
X18715428Y-14322286D01*
X18729714Y-14350857D01*
X18744000Y-14408000D01*
X18744000Y-14479429D01*
X18729714Y-14536571D01*
X18715428Y-14565143D01*
X18701143Y-14579429D01*
X18672571Y-14593714D01*
X18644000Y-14593714D01*
X18615428Y-14579429D01*
X18601143Y-14565143D01*
X18586857Y-14536571D01*
X18572571Y-14479429D01*
X18572571Y-14408000D01*
X18586857Y-14350857D01*
X18601143Y-14322286D01*
X18615428Y-14308000D01*
X18644000Y-14293714D01*
X18872571Y-14565143D02*
X18886857Y-14579429D01*
X18872571Y-14593714D01*
X18858286Y-14579429D01*
X18872571Y-14565143D01*
X18872571Y-14593714D01*
X19072571Y-14293714D02*
X19101143Y-14293714D01*
X19129714Y-14308000D01*
X19144000Y-14322286D01*
X19158286Y-14350857D01*
X19172571Y-14408000D01*
X19172571Y-14479429D01*
X19158286Y-14536571D01*
X19144000Y-14565143D01*
X19129714Y-14579429D01*
X19101143Y-14593714D01*
X19072571Y-14593714D01*
X19044000Y-14579429D01*
X19029714Y-14565143D01*
X19015428Y-14536571D01*
X19001143Y-14479429D01*
X19001143Y-14408000D01*
X19015428Y-14350857D01*
X19029714Y-14322286D01*
X19044000Y-14308000D01*
X19072571Y-14293714D01*
X19272571Y-14293714D02*
X19458286Y-14293714D01*
X19358286Y-14408000D01*
X19401143Y-14408000D01*
X19429714Y-14422286D01*
X19444000Y-14436571D01*
X19458286Y-14465143D01*
X19458286Y-14536571D01*
X19444000Y-14565143D01*
X19429714Y-14579429D01*
X19401143Y-14593714D01*
X19315428Y-14593714D01*
X19286857Y-14579429D01*
X19272571Y-14565143D01*
X19558286Y-14293714D02*
X19744000Y-14293714D01*
X19644000Y-14408000D01*
X19686857Y-14408000D01*
X19715428Y-14422286D01*
X19729714Y-14436571D01*
X19744000Y-14465143D01*
X19744000Y-14536571D01*
X19729714Y-14565143D01*
X19715428Y-14579429D01*
X19686857Y-14593714D01*
X19601143Y-14593714D01*
X19572571Y-14579429D01*
X19558286Y-14565143D01*
X19858286Y-14293714D02*
X19858286Y-14350857D01*
X19972571Y-14293714D02*
X19972571Y-14350857D01*
X20415428Y-14708000D02*
X20401143Y-14693714D01*
X20372571Y-14650857D01*
X20358286Y-14622286D01*
X20344000Y-14579429D01*
X20329714Y-14508000D01*
X20329714Y-14450857D01*
X20344000Y-14379429D01*
X20358286Y-14336571D01*
X20372571Y-14308000D01*
X20401143Y-14265143D01*
X20415428Y-14250857D01*
X20515428Y-14322286D02*
X20529714Y-14308000D01*
X20558286Y-14293714D01*
X20629714Y-14293714D01*
X20658286Y-14308000D01*
X20672571Y-14322286D01*
X20686857Y-14350857D01*
X20686857Y-14379429D01*
X20672571Y-14422286D01*
X20501143Y-14593714D01*
X20686857Y-14593714D01*
X20858286Y-14422286D02*
X20829714Y-14408000D01*
X20815428Y-14393714D01*
X20801143Y-14365143D01*
X20801143Y-14350857D01*
X20815428Y-14322286D01*
X20829714Y-14308000D01*
X20858286Y-14293714D01*
X20915428Y-14293714D01*
X20944000Y-14308000D01*
X20958286Y-14322286D01*
X20972571Y-14350857D01*
X20972571Y-14365143D01*
X20958286Y-14393714D01*
X20944000Y-14408000D01*
X20915428Y-14422286D01*
X20858286Y-14422286D01*
X20829714Y-14436571D01*
X20815428Y-14450857D01*
X20801143Y-14479429D01*
X20801143Y-14536571D01*
X20815428Y-14565143D01*
X20829714Y-14579429D01*
X20858286Y-14593714D01*
X20915428Y-14593714D01*
X20944000Y-14579429D01*
X20958286Y-14565143D01*
X20972571Y-14536571D01*
X20972571Y-14479429D01*
X20958286Y-14450857D01*
X20944000Y-14436571D01*
X20915428Y-14422286D01*
X21329714Y-14593714D02*
X21329714Y-14293714D01*
X21458286Y-14593714D02*
X21458286Y-14436571D01*
X21444000Y-14408000D01*
X21415428Y-14393714D01*
X21372571Y-14393714D01*
X21344000Y-14408000D01*
X21329714Y-14422286D01*
X21644000Y-14593714D02*
X21615428Y-14579429D01*
X21601143Y-14565143D01*
X21586857Y-14536571D01*
X21586857Y-14450857D01*
X21601143Y-14422286D01*
X21615428Y-14408000D01*
X21644000Y-14393714D01*
X21686857Y-14393714D01*
X21715428Y-14408000D01*
X21729714Y-14422286D01*
X21744000Y-14450857D01*
X21744000Y-14536571D01*
X21729714Y-14565143D01*
X21715428Y-14579429D01*
X21686857Y-14593714D01*
X21644000Y-14593714D01*
X21915428Y-14593714D02*
X21886857Y-14579429D01*
X21872571Y-14550857D01*
X21872571Y-14293714D01*
X22144000Y-14579429D02*
X22115428Y-14593714D01*
X22058286Y-14593714D01*
X22029714Y-14579429D01*
X22015428Y-14550857D01*
X22015428Y-14436571D01*
X22029714Y-14408000D01*
X22058286Y-14393714D01*
X22115428Y-14393714D01*
X22144000Y-14408000D01*
X22158286Y-14436571D01*
X22158286Y-14465143D01*
X22015428Y-14493714D01*
X22272571Y-14579429D02*
X22301143Y-14593714D01*
X22358286Y-14593714D01*
X22386857Y-14579429D01*
X22401143Y-14550857D01*
X22401143Y-14536571D01*
X22386857Y-14508000D01*
X22358286Y-14493714D01*
X22315428Y-14493714D01*
X22286857Y-14479429D01*
X22272571Y-14450857D01*
X22272571Y-14436571D01*
X22286857Y-14408000D01*
X22315428Y-14393714D01*
X22358286Y-14393714D01*
X22386857Y-14408000D01*
X22501143Y-14708000D02*
X22515428Y-14693714D01*
X22544000Y-14650857D01*
X22558286Y-14622286D01*
X22572571Y-14579429D01*
X22586857Y-14508000D01*
X22586857Y-14450857D01*
X22572571Y-14379429D01*
X22558286Y-14336571D01*
X22544000Y-14308000D01*
X22515428Y-14265143D01*
X22501143Y-14250857D01*
X15679000Y-14804000D02*
X15679000Y-14904000D01*
X15629000Y-14854000D02*
X15729000Y-14854000D01*
X16172571Y-14989714D02*
X16001143Y-14989714D01*
X16086857Y-14989714D02*
X16086857Y-14689714D01*
X16058286Y-14732571D01*
X16029714Y-14761143D01*
X16001143Y-14775429D01*
X16301143Y-14961143D02*
X16315428Y-14975429D01*
X16301143Y-14989714D01*
X16286857Y-14975429D01*
X16301143Y-14961143D01*
X16301143Y-14989714D01*
X16501143Y-14689714D02*
X16529714Y-14689714D01*
X16558286Y-14704000D01*
X16572571Y-14718286D01*
X16586857Y-14746857D01*
X16601143Y-14804000D01*
X16601143Y-14875429D01*
X16586857Y-14932571D01*
X16572571Y-14961143D01*
X16558286Y-14975429D01*
X16529714Y-14989714D01*
X16501143Y-14989714D01*
X16472571Y-14975429D01*
X16458286Y-14961143D01*
X16444000Y-14932571D01*
X16429714Y-14875429D01*
X16429714Y-14804000D01*
X16444000Y-14746857D01*
X16458286Y-14718286D01*
X16472571Y-14704000D01*
X16501143Y-14689714D01*
X16786857Y-14689714D02*
X16815428Y-14689714D01*
X16844000Y-14704000D01*
X16858286Y-14718286D01*
X16872571Y-14746857D01*
X16886857Y-14804000D01*
X16886857Y-14875429D01*
X16872571Y-14932571D01*
X16858286Y-14961143D01*
X16844000Y-14975429D01*
X16815428Y-14989714D01*
X16786857Y-14989714D01*
X16758286Y-14975429D01*
X16744000Y-14961143D01*
X16729714Y-14932571D01*
X16715428Y-14875429D01*
X16715428Y-14804000D01*
X16729714Y-14746857D01*
X16744000Y-14718286D01*
X16758286Y-14704000D01*
X16786857Y-14689714D01*
X17015428Y-14989714D02*
X17015428Y-14789714D01*
X17015428Y-14818286D02*
X17029714Y-14804000D01*
X17058286Y-14789714D01*
X17101143Y-14789714D01*
X17129714Y-14804000D01*
X17144000Y-14832571D01*
X17144000Y-14989714D01*
X17144000Y-14832571D02*
X17158286Y-14804000D01*
X17186857Y-14789714D01*
X17229714Y-14789714D01*
X17258286Y-14804000D01*
X17272571Y-14832571D01*
X17272571Y-14989714D01*
X17415428Y-14989714D02*
X17415428Y-14789714D01*
X17415428Y-14818286D02*
X17429714Y-14804000D01*
X17458286Y-14789714D01*
X17501143Y-14789714D01*
X17529714Y-14804000D01*
X17544000Y-14832571D01*
X17544000Y-14989714D01*
X17544000Y-14832571D02*
X17558286Y-14804000D01*
X17586857Y-14789714D01*
X17629714Y-14789714D01*
X17658286Y-14804000D01*
X17672571Y-14832571D01*
X17672571Y-14989714D01*
X18258286Y-14675429D02*
X18001143Y-15061143D01*
X18644000Y-14689714D02*
X18672571Y-14689714D01*
X18701143Y-14704000D01*
X18715428Y-14718286D01*
X18729714Y-14746857D01*
X18744000Y-14804000D01*
X18744000Y-14875429D01*
X18729714Y-14932571D01*
X18715428Y-14961143D01*
X18701143Y-14975429D01*
X18672571Y-14989714D01*
X18644000Y-14989714D01*
X18615428Y-14975429D01*
X18601143Y-14961143D01*
X18586857Y-14932571D01*
X18572571Y-14875429D01*
X18572571Y-14804000D01*
X18586857Y-14746857D01*
X18601143Y-14718286D01*
X18615428Y-14704000D01*
X18644000Y-14689714D01*
X18872571Y-14961143D02*
X18886857Y-14975429D01*
X18872571Y-14989714D01*
X18858286Y-14975429D01*
X18872571Y-14961143D01*
X18872571Y-14989714D01*
X19072571Y-14689714D02*
X19101143Y-14689714D01*
X19129714Y-14704000D01*
X19144000Y-14718286D01*
X19158286Y-14746857D01*
X19172571Y-14804000D01*
X19172571Y-14875429D01*
X19158286Y-14932571D01*
X19144000Y-14961143D01*
X19129714Y-14975429D01*
X19101143Y-14989714D01*
X19072571Y-14989714D01*
X19044000Y-14975429D01*
X19029714Y-14961143D01*
X19015428Y-14932571D01*
X19001143Y-14875429D01*
X19001143Y-14804000D01*
X19015428Y-14746857D01*
X19029714Y-14718286D01*
X19044000Y-14704000D01*
X19072571Y-14689714D01*
X19272571Y-14689714D02*
X19458286Y-14689714D01*
X19358286Y-14804000D01*
X19401143Y-14804000D01*
X19429714Y-14818286D01*
X19444000Y-14832571D01*
X19458286Y-14861143D01*
X19458286Y-14932571D01*
X19444000Y-14961143D01*
X19429714Y-14975429D01*
X19401143Y-14989714D01*
X19315428Y-14989714D01*
X19286857Y-14975429D01*
X19272571Y-14961143D01*
X19601143Y-14989714D02*
X19658286Y-14989714D01*
X19686857Y-14975429D01*
X19701143Y-14961143D01*
X19729714Y-14918286D01*
X19744000Y-14861143D01*
X19744000Y-14746857D01*
X19729714Y-14718286D01*
X19715428Y-14704000D01*
X19686857Y-14689714D01*
X19629714Y-14689714D01*
X19601143Y-14704000D01*
X19586857Y-14718286D01*
X19572571Y-14746857D01*
X19572571Y-14818286D01*
X19586857Y-14846857D01*
X19601143Y-14861143D01*
X19629714Y-14875429D01*
X19686857Y-14875429D01*
X19715428Y-14861143D01*
X19729714Y-14846857D01*
X19744000Y-14818286D01*
X19858286Y-14689714D02*
X19858286Y-14746857D01*
X19972571Y-14689714D02*
X19972571Y-14746857D01*
X20415428Y-15104000D02*
X20401143Y-15089714D01*
X20372571Y-15046857D01*
X20358286Y-15018286D01*
X20344000Y-14975429D01*
X20329714Y-14904000D01*
X20329714Y-14846857D01*
X20344000Y-14775429D01*
X20358286Y-14732571D01*
X20372571Y-14704000D01*
X20401143Y-14661143D01*
X20415428Y-14646857D01*
X20515428Y-14718286D02*
X20529714Y-14704000D01*
X20558286Y-14689714D01*
X20629714Y-14689714D01*
X20658286Y-14704000D01*
X20672571Y-14718286D01*
X20686857Y-14746857D01*
X20686857Y-14775429D01*
X20672571Y-14818286D01*
X20501143Y-14989714D01*
X20686857Y-14989714D01*
X20829714Y-14989714D02*
X20886857Y-14989714D01*
X20915428Y-14975429D01*
X20929714Y-14961143D01*
X20958286Y-14918286D01*
X20972571Y-14861143D01*
X20972571Y-14746857D01*
X20958286Y-14718286D01*
X20944000Y-14704000D01*
X20915428Y-14689714D01*
X20858286Y-14689714D01*
X20829714Y-14704000D01*
X20815428Y-14718286D01*
X20801143Y-14746857D01*
X20801143Y-14818286D01*
X20815428Y-14846857D01*
X20829714Y-14861143D01*
X20858286Y-14875429D01*
X20915428Y-14875429D01*
X20944000Y-14861143D01*
X20958286Y-14846857D01*
X20972571Y-14818286D01*
X21329714Y-14989714D02*
X21329714Y-14689714D01*
X21458286Y-14989714D02*
X21458286Y-14832571D01*
X21444000Y-14804000D01*
X21415428Y-14789714D01*
X21372571Y-14789714D01*
X21344000Y-14804000D01*
X21329714Y-14818286D01*
X21644000Y-14989714D02*
X21615428Y-14975429D01*
X21601143Y-14961143D01*
X21586857Y-14932571D01*
X21586857Y-14846857D01*
X21601143Y-14818286D01*
X21615428Y-14804000D01*
X21644000Y-14789714D01*
X21686857Y-14789714D01*
X21715428Y-14804000D01*
X21729714Y-14818286D01*
X21744000Y-14846857D01*
X21744000Y-14932571D01*
X21729714Y-14961143D01*
X21715428Y-14975429D01*
X21686857Y-14989714D01*
X21644000Y-14989714D01*
X21915428Y-14989714D02*
X21886857Y-14975429D01*
X21872571Y-14946857D01*
X21872571Y-14689714D01*
X22144000Y-14975429D02*
X22115428Y-14989714D01*
X22058286Y-14989714D01*
X22029714Y-14975429D01*
X22015428Y-14946857D01*
X22015428Y-14832571D01*
X22029714Y-14804000D01*
X22058286Y-14789714D01*
X22115428Y-14789714D01*
X22144000Y-14804000D01*
X22158286Y-14832571D01*
X22158286Y-14861143D01*
X22015428Y-14889714D01*
X22272571Y-14975429D02*
X22301143Y-14989714D01*
X22358286Y-14989714D01*
X22386857Y-14975429D01*
X22401143Y-14946857D01*
X22401143Y-14932571D01*
X22386857Y-14904000D01*
X22358286Y-14889714D01*
X22315428Y-14889714D01*
X22286857Y-14875429D01*
X22272571Y-14846857D01*
X22272571Y-14832571D01*
X22286857Y-14804000D01*
X22315428Y-14789714D01*
X22358286Y-14789714D01*
X22386857Y-14804000D01*
X22501143Y-15104000D02*
X22515428Y-15089714D01*
X22544000Y-15046857D01*
X22558286Y-15018286D01*
X22572571Y-14975429D01*
X22586857Y-14904000D01*
X22586857Y-14846857D01*
X22572571Y-14775429D01*
X22558286Y-14732571D01*
X22544000Y-14704000D01*
X22515428Y-14661143D01*
X22501143Y-14646857D01*
X15713770Y-15286770D02*
X15713770Y-15213230D01*
X15640230Y-15213230D01*
X15640230Y-15286770D01*
X15713770Y-15286770D01*
X16172571Y-15385714D02*
X16001143Y-15385714D01*
X16086857Y-15385714D02*
X16086857Y-15085714D01*
X16058286Y-15128571D01*
X16029714Y-15157143D01*
X16001143Y-15171429D01*
X16301143Y-15357143D02*
X16315428Y-15371429D01*
X16301143Y-15385714D01*
X16286857Y-15371429D01*
X16301143Y-15357143D01*
X16301143Y-15385714D01*
X16501143Y-15085714D02*
X16529714Y-15085714D01*
X16558286Y-15100000D01*
X16572571Y-15114286D01*
X16586857Y-15142857D01*
X16601143Y-15200000D01*
X16601143Y-15271429D01*
X16586857Y-15328571D01*
X16572571Y-15357143D01*
X16558286Y-15371429D01*
X16529714Y-15385714D01*
X16501143Y-15385714D01*
X16472571Y-15371429D01*
X16458286Y-15357143D01*
X16444000Y-15328571D01*
X16429714Y-15271429D01*
X16429714Y-15200000D01*
X16444000Y-15142857D01*
X16458286Y-15114286D01*
X16472571Y-15100000D01*
X16501143Y-15085714D01*
X16858286Y-15185714D02*
X16858286Y-15385714D01*
X16786857Y-15071429D02*
X16715428Y-15285714D01*
X16901143Y-15285714D01*
X17015428Y-15385714D02*
X17015428Y-15185714D01*
X17015428Y-15214286D02*
X17029714Y-15200000D01*
X17058286Y-15185714D01*
X17101143Y-15185714D01*
X17129714Y-15200000D01*
X17144000Y-15228571D01*
X17144000Y-15385714D01*
X17144000Y-15228571D02*
X17158286Y-15200000D01*
X17186857Y-15185714D01*
X17229714Y-15185714D01*
X17258286Y-15200000D01*
X17272571Y-15228571D01*
X17272571Y-15385714D01*
X17415428Y-15385714D02*
X17415428Y-15185714D01*
X17415428Y-15214286D02*
X17429714Y-15200000D01*
X17458286Y-15185714D01*
X17501143Y-15185714D01*
X17529714Y-15200000D01*
X17544000Y-15228571D01*
X17544000Y-15385714D01*
X17544000Y-15228571D02*
X17558286Y-15200000D01*
X17586857Y-15185714D01*
X17629714Y-15185714D01*
X17658286Y-15200000D01*
X17672571Y-15228571D01*
X17672571Y-15385714D01*
X18258286Y-15071429D02*
X18001143Y-15457143D01*
X18644000Y-15085714D02*
X18672571Y-15085714D01*
X18701143Y-15100000D01*
X18715428Y-15114286D01*
X18729714Y-15142857D01*
X18744000Y-15200000D01*
X18744000Y-15271429D01*
X18729714Y-15328571D01*
X18715428Y-15357143D01*
X18701143Y-15371429D01*
X18672571Y-15385714D01*
X18644000Y-15385714D01*
X18615428Y-15371429D01*
X18601143Y-15357143D01*
X18586857Y-15328571D01*
X18572571Y-15271429D01*
X18572571Y-15200000D01*
X18586857Y-15142857D01*
X18601143Y-15114286D01*
X18615428Y-15100000D01*
X18644000Y-15085714D01*
X18872571Y-15357143D02*
X18886857Y-15371429D01*
X18872571Y-15385714D01*
X18858286Y-15371429D01*
X18872571Y-15357143D01*
X18872571Y-15385714D01*
X19072571Y-15085714D02*
X19101143Y-15085714D01*
X19129714Y-15100000D01*
X19144000Y-15114286D01*
X19158286Y-15142857D01*
X19172571Y-15200000D01*
X19172571Y-15271429D01*
X19158286Y-15328571D01*
X19144000Y-15357143D01*
X19129714Y-15371429D01*
X19101143Y-15385714D01*
X19072571Y-15385714D01*
X19044000Y-15371429D01*
X19029714Y-15357143D01*
X19015428Y-15328571D01*
X19001143Y-15271429D01*
X19001143Y-15200000D01*
X19015428Y-15142857D01*
X19029714Y-15114286D01*
X19044000Y-15100000D01*
X19072571Y-15085714D01*
X19429714Y-15185714D02*
X19429714Y-15385714D01*
X19358286Y-15071429D02*
X19286857Y-15285714D01*
X19472571Y-15285714D01*
X19744000Y-15385714D02*
X19572571Y-15385714D01*
X19658286Y-15385714D02*
X19658286Y-15085714D01*
X19629714Y-15128571D01*
X19601143Y-15157143D01*
X19572571Y-15171429D01*
X19858286Y-15085714D02*
X19858286Y-15142857D01*
X19972571Y-15085714D02*
X19972571Y-15142857D01*
X20415428Y-15500000D02*
X20401143Y-15485714D01*
X20372571Y-15442857D01*
X20358286Y-15414286D01*
X20344000Y-15371429D01*
X20329714Y-15300000D01*
X20329714Y-15242857D01*
X20344000Y-15171429D01*
X20358286Y-15128571D01*
X20372571Y-15100000D01*
X20401143Y-15057143D01*
X20415428Y-15042857D01*
X20686857Y-15385714D02*
X20515428Y-15385714D01*
X20601143Y-15385714D02*
X20601143Y-15085714D01*
X20572571Y-15128571D01*
X20544000Y-15157143D01*
X20515428Y-15171429D01*
X20944000Y-15085714D02*
X20886857Y-15085714D01*
X20858286Y-15100000D01*
X20844000Y-15114286D01*
X20815428Y-15157143D01*
X20801143Y-15214286D01*
X20801143Y-15328571D01*
X20815428Y-15357143D01*
X20829714Y-15371429D01*
X20858286Y-15385714D01*
X20915428Y-15385714D01*
X20944000Y-15371429D01*
X20958286Y-15357143D01*
X20972571Y-15328571D01*
X20972571Y-15257143D01*
X20958286Y-15228571D01*
X20944000Y-15214286D01*
X20915428Y-15200000D01*
X20858286Y-15200000D01*
X20829714Y-15214286D01*
X20815428Y-15228571D01*
X20801143Y-15257143D01*
X21329714Y-15385714D02*
X21329714Y-15085714D01*
X21458286Y-15385714D02*
X21458286Y-15228571D01*
X21444000Y-15200000D01*
X21415428Y-15185714D01*
X21372571Y-15185714D01*
X21344000Y-15200000D01*
X21329714Y-15214286D01*
X21644000Y-15385714D02*
X21615428Y-15371429D01*
X21601143Y-15357143D01*
X21586857Y-15328571D01*
X21586857Y-15242857D01*
X21601143Y-15214286D01*
X21615428Y-15200000D01*
X21644000Y-15185714D01*
X21686857Y-15185714D01*
X21715428Y-15200000D01*
X21729714Y-15214286D01*
X21744000Y-15242857D01*
X21744000Y-15328571D01*
X21729714Y-15357143D01*
X21715428Y-15371429D01*
X21686857Y-15385714D01*
X21644000Y-15385714D01*
X21915428Y-15385714D02*
X21886857Y-15371429D01*
X21872571Y-15342857D01*
X21872571Y-15085714D01*
X22144000Y-15371429D02*
X22115428Y-15385714D01*
X22058286Y-15385714D01*
X22029714Y-15371429D01*
X22015428Y-15342857D01*
X22015428Y-15228571D01*
X22029714Y-15200000D01*
X22058286Y-15185714D01*
X22115428Y-15185714D01*
X22144000Y-15200000D01*
X22158286Y-15228571D01*
X22158286Y-15257143D01*
X22015428Y-15285714D01*
X22272571Y-15371429D02*
X22301143Y-15385714D01*
X22358286Y-15385714D01*
X22386857Y-15371429D01*
X22401143Y-15342857D01*
X22401143Y-15328571D01*
X22386857Y-15300000D01*
X22358286Y-15285714D01*
X22315428Y-15285714D01*
X22286857Y-15271429D01*
X22272571Y-15242857D01*
X22272571Y-15228571D01*
X22286857Y-15200000D01*
X22315428Y-15185714D01*
X22358286Y-15185714D01*
X22386857Y-15200000D01*
X22501143Y-15500000D02*
X22515428Y-15485714D01*
X22544000Y-15442857D01*
X22558286Y-15414286D01*
X22572571Y-15371429D01*
X22586857Y-15300000D01*
X22586857Y-15242857D01*
X22572571Y-15171429D01*
X22558286Y-15128571D01*
X22544000Y-15100000D01*
X22515428Y-15057143D01*
X22501143Y-15042857D01*
X15667000Y-15708000D02*
X15729000Y-15646000D01*
X15667000Y-15584000D01*
X15605000Y-15646000D01*
X15667000Y-15708000D01*
X16172571Y-15781714D02*
X16001143Y-15781714D01*
X16086857Y-15781714D02*
X16086857Y-15481714D01*
X16058286Y-15524571D01*
X16029714Y-15553143D01*
X16001143Y-15567429D01*
X16301143Y-15753143D02*
X16315428Y-15767429D01*
X16301143Y-15781714D01*
X16286857Y-15767429D01*
X16301143Y-15753143D01*
X16301143Y-15781714D01*
X16429714Y-15510286D02*
X16444000Y-15496000D01*
X16472571Y-15481714D01*
X16544000Y-15481714D01*
X16572571Y-15496000D01*
X16586857Y-15510286D01*
X16601143Y-15538857D01*
X16601143Y-15567429D01*
X16586857Y-15610286D01*
X16415428Y-15781714D01*
X16601143Y-15781714D01*
X16858286Y-15581714D02*
X16858286Y-15781714D01*
X16786857Y-15467429D02*
X16715428Y-15681714D01*
X16901143Y-15681714D01*
X17015428Y-15781714D02*
X17015428Y-15581714D01*
X17015428Y-15610286D02*
X17029714Y-15596000D01*
X17058286Y-15581714D01*
X17101143Y-15581714D01*
X17129714Y-15596000D01*
X17144000Y-15624571D01*
X17144000Y-15781714D01*
X17144000Y-15624571D02*
X17158286Y-15596000D01*
X17186857Y-15581714D01*
X17229714Y-15581714D01*
X17258286Y-15596000D01*
X17272571Y-15624571D01*
X17272571Y-15781714D01*
X17415428Y-15781714D02*
X17415428Y-15581714D01*
X17415428Y-15610286D02*
X17429714Y-15596000D01*
X17458286Y-15581714D01*
X17501143Y-15581714D01*
X17529714Y-15596000D01*
X17544000Y-15624571D01*
X17544000Y-15781714D01*
X17544000Y-15624571D02*
X17558286Y-15596000D01*
X17586857Y-15581714D01*
X17629714Y-15581714D01*
X17658286Y-15596000D01*
X17672571Y-15624571D01*
X17672571Y-15781714D01*
X18258286Y-15467429D02*
X18001143Y-15853143D01*
X18644000Y-15481714D02*
X18672571Y-15481714D01*
X18701143Y-15496000D01*
X18715428Y-15510286D01*
X18729714Y-15538857D01*
X18744000Y-15596000D01*
X18744000Y-15667429D01*
X18729714Y-15724571D01*
X18715428Y-15753143D01*
X18701143Y-15767429D01*
X18672571Y-15781714D01*
X18644000Y-15781714D01*
X18615428Y-15767429D01*
X18601143Y-15753143D01*
X18586857Y-15724571D01*
X18572571Y-15667429D01*
X18572571Y-15596000D01*
X18586857Y-15538857D01*
X18601143Y-15510286D01*
X18615428Y-15496000D01*
X18644000Y-15481714D01*
X18872571Y-15753143D02*
X18886857Y-15767429D01*
X18872571Y-15781714D01*
X18858286Y-15767429D01*
X18872571Y-15753143D01*
X18872571Y-15781714D01*
X19072571Y-15481714D02*
X19101143Y-15481714D01*
X19129714Y-15496000D01*
X19144000Y-15510286D01*
X19158286Y-15538857D01*
X19172571Y-15596000D01*
X19172571Y-15667429D01*
X19158286Y-15724571D01*
X19144000Y-15753143D01*
X19129714Y-15767429D01*
X19101143Y-15781714D01*
X19072571Y-15781714D01*
X19044000Y-15767429D01*
X19029714Y-15753143D01*
X19015428Y-15724571D01*
X19001143Y-15667429D01*
X19001143Y-15596000D01*
X19015428Y-15538857D01*
X19029714Y-15510286D01*
X19044000Y-15496000D01*
X19072571Y-15481714D01*
X19429714Y-15581714D02*
X19429714Y-15781714D01*
X19358286Y-15467429D02*
X19286857Y-15681714D01*
X19472571Y-15681714D01*
X19601143Y-15781714D02*
X19658286Y-15781714D01*
X19686857Y-15767429D01*
X19701143Y-15753143D01*
X19729714Y-15710286D01*
X19744000Y-15653143D01*
X19744000Y-15538857D01*
X19729714Y-15510286D01*
X19715428Y-15496000D01*
X19686857Y-15481714D01*
X19629714Y-15481714D01*
X19601143Y-15496000D01*
X19586857Y-15510286D01*
X19572571Y-15538857D01*
X19572571Y-15610286D01*
X19586857Y-15638857D01*
X19601143Y-15653143D01*
X19629714Y-15667429D01*
X19686857Y-15667429D01*
X19715428Y-15653143D01*
X19729714Y-15638857D01*
X19744000Y-15610286D01*
X19858286Y-15481714D02*
X19858286Y-15538857D01*
X19972571Y-15481714D02*
X19972571Y-15538857D01*
X20415428Y-15896000D02*
X20401143Y-15881714D01*
X20372571Y-15838857D01*
X20358286Y-15810286D01*
X20344000Y-15767429D01*
X20329714Y-15696000D01*
X20329714Y-15638857D01*
X20344000Y-15567429D01*
X20358286Y-15524571D01*
X20372571Y-15496000D01*
X20401143Y-15453143D01*
X20415428Y-15438857D01*
X20501143Y-15481714D02*
X20686857Y-15481714D01*
X20586857Y-15596000D01*
X20629714Y-15596000D01*
X20658286Y-15610286D01*
X20672571Y-15624571D01*
X20686857Y-15653143D01*
X20686857Y-15724571D01*
X20672571Y-15753143D01*
X20658286Y-15767429D01*
X20629714Y-15781714D01*
X20544000Y-15781714D01*
X20515428Y-15767429D01*
X20501143Y-15753143D01*
X21044000Y-15781714D02*
X21044000Y-15481714D01*
X21172571Y-15781714D02*
X21172571Y-15624571D01*
X21158286Y-15596000D01*
X21129714Y-15581714D01*
X21086857Y-15581714D01*
X21058286Y-15596000D01*
X21044000Y-15610286D01*
X21358286Y-15781714D02*
X21329714Y-15767429D01*
X21315428Y-15753143D01*
X21301143Y-15724571D01*
X21301143Y-15638857D01*
X21315428Y-15610286D01*
X21329714Y-15596000D01*
X21358286Y-15581714D01*
X21401143Y-15581714D01*
X21429714Y-15596000D01*
X21444000Y-15610286D01*
X21458286Y-15638857D01*
X21458286Y-15724571D01*
X21444000Y-15753143D01*
X21429714Y-15767429D01*
X21401143Y-15781714D01*
X21358286Y-15781714D01*
X21629714Y-15781714D02*
X21601143Y-15767429D01*
X21586857Y-15738857D01*
X21586857Y-15481714D01*
X21858286Y-15767429D02*
X21829714Y-15781714D01*
X21772571Y-15781714D01*
X21744000Y-15767429D01*
X21729714Y-15738857D01*
X21729714Y-15624571D01*
X21744000Y-15596000D01*
X21772571Y-15581714D01*
X21829714Y-15581714D01*
X21858286Y-15596000D01*
X21872571Y-15624571D01*
X21872571Y-15653143D01*
X21729714Y-15681714D01*
X21986857Y-15767429D02*
X22015428Y-15781714D01*
X22072571Y-15781714D01*
X22101143Y-15767429D01*
X22115428Y-15738857D01*
X22115428Y-15724571D01*
X22101143Y-15696000D01*
X22072571Y-15681714D01*
X22029714Y-15681714D01*
X22001143Y-15667429D01*
X21986857Y-15638857D01*
X21986857Y-15624571D01*
X22001143Y-15596000D01*
X22029714Y-15581714D01*
X22072571Y-15581714D01*
X22101143Y-15596000D01*
X22215428Y-15896000D02*
X22229714Y-15881714D01*
X22258286Y-15838857D01*
X22272571Y-15810286D01*
X22286857Y-15767429D01*
X22301143Y-15696000D01*
X22301143Y-15638857D01*
X22286857Y-15567429D01*
X22272571Y-15524571D01*
X22258286Y-15496000D01*
X22229714Y-15453143D01*
X22215428Y-15438857D01*
X15519000Y-15937000D02*
X15729000Y-16147000D01*
X15729000Y-15937000D02*
X15519000Y-16147000D01*
X15729000Y-16042000D02*
G75*
G03*
X15729000Y-16042000I-105000J0D01*
G01*
X16001143Y-15906286D02*
X16015428Y-15892000D01*
X16044000Y-15877714D01*
X16115428Y-15877714D01*
X16144000Y-15892000D01*
X16158286Y-15906286D01*
X16172571Y-15934857D01*
X16172571Y-15963429D01*
X16158286Y-16006286D01*
X15986857Y-16177714D01*
X16172571Y-16177714D01*
X16301143Y-16149143D02*
X16315428Y-16163429D01*
X16301143Y-16177714D01*
X16286857Y-16163429D01*
X16301143Y-16149143D01*
X16301143Y-16177714D01*
X16601143Y-16177714D02*
X16429714Y-16177714D01*
X16515428Y-16177714D02*
X16515428Y-15877714D01*
X16486857Y-15920571D01*
X16458286Y-15949143D01*
X16429714Y-15963429D01*
X16786857Y-15877714D02*
X16815428Y-15877714D01*
X16844000Y-15892000D01*
X16858286Y-15906286D01*
X16872571Y-15934857D01*
X16886857Y-15992000D01*
X16886857Y-16063429D01*
X16872571Y-16120571D01*
X16858286Y-16149143D01*
X16844000Y-16163429D01*
X16815428Y-16177714D01*
X16786857Y-16177714D01*
X16758286Y-16163429D01*
X16744000Y-16149143D01*
X16729714Y-16120571D01*
X16715428Y-16063429D01*
X16715428Y-15992000D01*
X16729714Y-15934857D01*
X16744000Y-15906286D01*
X16758286Y-15892000D01*
X16786857Y-15877714D01*
X17015428Y-16177714D02*
X17015428Y-15977714D01*
X17015428Y-16006286D02*
X17029714Y-15992000D01*
X17058286Y-15977714D01*
X17101143Y-15977714D01*
X17129714Y-15992000D01*
X17144000Y-16020571D01*
X17144000Y-16177714D01*
X17144000Y-16020571D02*
X17158286Y-15992000D01*
X17186857Y-15977714D01*
X17229714Y-15977714D01*
X17258286Y-15992000D01*
X17272571Y-16020571D01*
X17272571Y-16177714D01*
X17415428Y-16177714D02*
X17415428Y-15977714D01*
X17415428Y-16006286D02*
X17429714Y-15992000D01*
X17458286Y-15977714D01*
X17501143Y-15977714D01*
X17529714Y-15992000D01*
X17544000Y-16020571D01*
X17544000Y-16177714D01*
X17544000Y-16020571D02*
X17558286Y-15992000D01*
X17586857Y-15977714D01*
X17629714Y-15977714D01*
X17658286Y-15992000D01*
X17672571Y-16020571D01*
X17672571Y-16177714D01*
X18258286Y-15863429D02*
X18001143Y-16249143D01*
X18644000Y-15877714D02*
X18672571Y-15877714D01*
X18701143Y-15892000D01*
X18715428Y-15906286D01*
X18729714Y-15934857D01*
X18744000Y-15992000D01*
X18744000Y-16063429D01*
X18729714Y-16120571D01*
X18715428Y-16149143D01*
X18701143Y-16163429D01*
X18672571Y-16177714D01*
X18644000Y-16177714D01*
X18615428Y-16163429D01*
X18601143Y-16149143D01*
X18586857Y-16120571D01*
X18572571Y-16063429D01*
X18572571Y-15992000D01*
X18586857Y-15934857D01*
X18601143Y-15906286D01*
X18615428Y-15892000D01*
X18644000Y-15877714D01*
X18872571Y-16149143D02*
X18886857Y-16163429D01*
X18872571Y-16177714D01*
X18858286Y-16163429D01*
X18872571Y-16149143D01*
X18872571Y-16177714D01*
X19072571Y-15877714D02*
X19101143Y-15877714D01*
X19129714Y-15892000D01*
X19144000Y-15906286D01*
X19158286Y-15934857D01*
X19172571Y-15992000D01*
X19172571Y-16063429D01*
X19158286Y-16120571D01*
X19144000Y-16149143D01*
X19129714Y-16163429D01*
X19101143Y-16177714D01*
X19072571Y-16177714D01*
X19044000Y-16163429D01*
X19029714Y-16149143D01*
X19015428Y-16120571D01*
X19001143Y-16063429D01*
X19001143Y-15992000D01*
X19015428Y-15934857D01*
X19029714Y-15906286D01*
X19044000Y-15892000D01*
X19072571Y-15877714D01*
X19344000Y-16006286D02*
X19315428Y-15992000D01*
X19301143Y-15977714D01*
X19286857Y-15949143D01*
X19286857Y-15934857D01*
X19301143Y-15906286D01*
X19315428Y-15892000D01*
X19344000Y-15877714D01*
X19401143Y-15877714D01*
X19429714Y-15892000D01*
X19444000Y-15906286D01*
X19458286Y-15934857D01*
X19458286Y-15949143D01*
X19444000Y-15977714D01*
X19429714Y-15992000D01*
X19401143Y-16006286D01*
X19344000Y-16006286D01*
X19315428Y-16020571D01*
X19301143Y-16034857D01*
X19286857Y-16063429D01*
X19286857Y-16120571D01*
X19301143Y-16149143D01*
X19315428Y-16163429D01*
X19344000Y-16177714D01*
X19401143Y-16177714D01*
X19429714Y-16163429D01*
X19444000Y-16149143D01*
X19458286Y-16120571D01*
X19458286Y-16063429D01*
X19444000Y-16034857D01*
X19429714Y-16020571D01*
X19401143Y-16006286D01*
X19558286Y-15877714D02*
X19744000Y-15877714D01*
X19644000Y-15992000D01*
X19686857Y-15992000D01*
X19715428Y-16006286D01*
X19729714Y-16020571D01*
X19744000Y-16049143D01*
X19744000Y-16120571D01*
X19729714Y-16149143D01*
X19715428Y-16163429D01*
X19686857Y-16177714D01*
X19601143Y-16177714D01*
X19572571Y-16163429D01*
X19558286Y-16149143D01*
X19858286Y-15877714D02*
X19858286Y-15934857D01*
X19972571Y-15877714D02*
X19972571Y-15934857D01*
X20415428Y-16292000D02*
X20401143Y-16277714D01*
X20372571Y-16234857D01*
X20358286Y-16206286D01*
X20344000Y-16163429D01*
X20329714Y-16092000D01*
X20329714Y-16034857D01*
X20344000Y-15963429D01*
X20358286Y-15920571D01*
X20372571Y-15892000D01*
X20401143Y-15849143D01*
X20415428Y-15834857D01*
X20515428Y-15906286D02*
X20529714Y-15892000D01*
X20558286Y-15877714D01*
X20629714Y-15877714D01*
X20658286Y-15892000D01*
X20672571Y-15906286D01*
X20686857Y-15934857D01*
X20686857Y-15963429D01*
X20672571Y-16006286D01*
X20501143Y-16177714D01*
X20686857Y-16177714D01*
X21044000Y-16177714D02*
X21044000Y-15877714D01*
X21172571Y-16177714D02*
X21172571Y-16020571D01*
X21158286Y-15992000D01*
X21129714Y-15977714D01*
X21086857Y-15977714D01*
X21058286Y-15992000D01*
X21044000Y-16006286D01*
X21358286Y-16177714D02*
X21329714Y-16163429D01*
X21315428Y-16149143D01*
X21301143Y-16120571D01*
X21301143Y-16034857D01*
X21315428Y-16006286D01*
X21329714Y-15992000D01*
X21358286Y-15977714D01*
X21401143Y-15977714D01*
X21429714Y-15992000D01*
X21444000Y-16006286D01*
X21458286Y-16034857D01*
X21458286Y-16120571D01*
X21444000Y-16149143D01*
X21429714Y-16163429D01*
X21401143Y-16177714D01*
X21358286Y-16177714D01*
X21629714Y-16177714D02*
X21601143Y-16163429D01*
X21586857Y-16134857D01*
X21586857Y-15877714D01*
X21858286Y-16163429D02*
X21829714Y-16177714D01*
X21772571Y-16177714D01*
X21744000Y-16163429D01*
X21729714Y-16134857D01*
X21729714Y-16020571D01*
X21744000Y-15992000D01*
X21772571Y-15977714D01*
X21829714Y-15977714D01*
X21858286Y-15992000D01*
X21872571Y-16020571D01*
X21872571Y-16049143D01*
X21729714Y-16077714D01*
X21986857Y-16163429D02*
X22015428Y-16177714D01*
X22072571Y-16177714D01*
X22101143Y-16163429D01*
X22115428Y-16134857D01*
X22115428Y-16120571D01*
X22101143Y-16092000D01*
X22072571Y-16077714D01*
X22029714Y-16077714D01*
X22001143Y-16063429D01*
X21986857Y-16034857D01*
X21986857Y-16020571D01*
X22001143Y-15992000D01*
X22029714Y-15977714D01*
X22072571Y-15977714D01*
X22101143Y-15992000D01*
X22215428Y-16292000D02*
X22229714Y-16277714D01*
X22258286Y-16234857D01*
X22272571Y-16206286D01*
X22286857Y-16163429D01*
X22301143Y-16092000D01*
X22301143Y-16034857D01*
X22286857Y-15963429D01*
X22272571Y-15920571D01*
X22258286Y-15892000D01*
X22229714Y-15849143D01*
X22215428Y-15834857D01*
M02*
