%TF.GenerationSoftware,KiCad,Pcbnew,(5.1.6)-1*%
%TF.CreationDate,2022-02-26T01:19:58-08:00*%
%TF.ProjectId,seguilineas_actualizado,73656775-696c-4696-9e65-61735f616374,rev?*%
%TF.SameCoordinates,Original*%
%TF.FileFunction,Soldermask,Bot*%
%TF.FilePolarity,Negative*%
%FSLAX46Y46*%
G04 Gerber Fmt 4.6, Leading zero omitted, Abs format (unit mm)*
G04 Created by KiCad (PCBNEW (5.1.6)-1) date 2022-02-26 01:19:58*
%MOMM*%
%LPD*%
G01*
G04 APERTURE LIST*
%ADD10C,2.800000*%
%ADD11O,1.700000X1.700000*%
%ADD12R,1.700000X1.700000*%
%ADD13C,1.358000*%
%ADD14R,1.358000X1.358000*%
%ADD15C,1.560000*%
%ADD16R,1.560000X1.560000*%
%ADD17R,1.860000X1.860000*%
%ADD18C,1.860000*%
G04 APERTURE END LIST*
D10*
%TO.C,J4*%
X167465000Y-126990000D03*
X237315000Y-126990000D03*
%TD*%
D11*
%TO.C,J5*%
X215100000Y-111180000D03*
X212560000Y-111180000D03*
X210020000Y-111180000D03*
X207480000Y-111180000D03*
X204940000Y-111180000D03*
X202400000Y-111180000D03*
X199860000Y-111180000D03*
X197320000Y-111180000D03*
X194780000Y-111180000D03*
X192240000Y-111180000D03*
D12*
X189700000Y-111180000D03*
%TD*%
D11*
%TO.C,CN1*%
X186380000Y-79490000D03*
X188920000Y-79490000D03*
X191460000Y-79490000D03*
X194000000Y-79490000D03*
X196540000Y-79490000D03*
D12*
X199080000Y-79490000D03*
%TD*%
D13*
%TO.C,IC1*%
X218840000Y-74520000D03*
X216300000Y-74520000D03*
X213760000Y-74520000D03*
X211220000Y-74520000D03*
X208680000Y-74520000D03*
X206140000Y-74520000D03*
X203600000Y-74520000D03*
X201060000Y-74520000D03*
X198520000Y-74520000D03*
X195980000Y-74520000D03*
X193440000Y-74520000D03*
X190900000Y-74520000D03*
X188360000Y-74520000D03*
X185820000Y-74520000D03*
X185820000Y-66600000D03*
X188360000Y-66600000D03*
X190900000Y-66600000D03*
X193440000Y-66600000D03*
X195980000Y-66600000D03*
X198520000Y-66600000D03*
X208680000Y-66600000D03*
X206140000Y-66600000D03*
X211220000Y-66600000D03*
X213760000Y-66600000D03*
X201060000Y-66600000D03*
X203600000Y-66600000D03*
X216300000Y-66600000D03*
D14*
X218840000Y-66600000D03*
%TD*%
D11*
%TO.C,JP1*%
X179510000Y-72840000D03*
X176970000Y-72840000D03*
X179510000Y-70300000D03*
X176970000Y-70300000D03*
X179510000Y-67760000D03*
D12*
X176970000Y-67760000D03*
%TD*%
D15*
%TO.C,TB1*%
X211290000Y-57550000D03*
X208750000Y-57550000D03*
X206210000Y-57550000D03*
X203670000Y-57550000D03*
X201130000Y-57550000D03*
X198590000Y-57550000D03*
X196050000Y-57550000D03*
D16*
X193510000Y-57550000D03*
X193510000Y-44850000D03*
D15*
X196050000Y-44850000D03*
X198590000Y-44850000D03*
X201130000Y-44850000D03*
X203670000Y-44850000D03*
X206210000Y-44850000D03*
X208750000Y-44850000D03*
D16*
X211290000Y-44850000D03*
%TD*%
D12*
%TO.C,J3*%
X188090000Y-96180000D03*
D11*
X188090000Y-98720000D03*
%TD*%
D12*
%TO.C,J1*%
X218640000Y-50800000D03*
D11*
X218640000Y-53340000D03*
%TD*%
%TO.C,J2*%
X186160000Y-53380000D03*
D12*
X186160000Y-50840000D03*
%TD*%
D17*
%TO.C,U1*%
X189250000Y-91820000D03*
D18*
X191790000Y-91820000D03*
X194330000Y-91820000D03*
%TD*%
M02*
