%TF.GenerationSoftware,KiCad,Pcbnew,(5.1.6)-1*%
%TF.CreationDate,2022-02-26T01:19:58-08:00*%
%TF.ProjectId,seguilineas_actualizado,73656775-696c-4696-9e65-61735f616374,rev?*%
%TF.SameCoordinates,Original*%
%TF.FileFunction,Legend,Top*%
%TF.FilePolarity,Positive*%
%FSLAX46Y46*%
G04 Gerber Fmt 4.6, Leading zero omitted, Abs format (unit mm)*
G04 Created by KiCad (PCBNEW (5.1.6)-1) date 2022-02-26 01:19:58*
%MOMM*%
%LPD*%
G01*
G04 APERTURE LIST*
%ADD10C,0.300000*%
%ADD11C,0.120000*%
%ADD12C,0.152400*%
%ADD13C,0.100000*%
%ADD14C,0.127000*%
%ADD15C,0.200000*%
%ADD16C,0.150000*%
%ADD17C,0.015000*%
%ADD18C,2.800000*%
%ADD19O,1.700000X1.700000*%
%ADD20R,1.700000X1.700000*%
%ADD21C,1.358000*%
%ADD22R,1.358000X1.358000*%
%ADD23R,2.000000X1.600000*%
%ADD24R,2.100000X5.600000*%
%ADD25C,1.560000*%
%ADD26R,1.560000X1.560000*%
%ADD27R,1.860000X1.860000*%
%ADD28C,1.860000*%
G04 APERTURE END LIST*
D10*
X180080952Y-117495714D02*
X179414285Y-117495714D01*
X179414285Y-119067142D02*
X179414285Y-116067142D01*
X180366666Y-116067142D01*
X181414285Y-119067142D02*
X181223809Y-118924285D01*
X181128571Y-118781428D01*
X181033333Y-118495714D01*
X181033333Y-117638571D01*
X181128571Y-117352857D01*
X181223809Y-117210000D01*
X181414285Y-117067142D01*
X181700000Y-117067142D01*
X181890476Y-117210000D01*
X181985714Y-117352857D01*
X182080952Y-117638571D01*
X182080952Y-118495714D01*
X181985714Y-118781428D01*
X181890476Y-118924285D01*
X181700000Y-119067142D01*
X181414285Y-119067142D01*
X182747619Y-119067142D02*
X183795238Y-117067142D01*
X182747619Y-117067142D02*
X183795238Y-119067142D01*
X187223809Y-119067142D02*
X186557142Y-117638571D01*
X186080952Y-119067142D02*
X186080952Y-116067142D01*
X186842857Y-116067142D01*
X187033333Y-116210000D01*
X187128571Y-116352857D01*
X187223809Y-116638571D01*
X187223809Y-117067142D01*
X187128571Y-117352857D01*
X187033333Y-117495714D01*
X186842857Y-117638571D01*
X186080952Y-117638571D01*
X188366666Y-119067142D02*
X188176190Y-118924285D01*
X188080952Y-118781428D01*
X187985714Y-118495714D01*
X187985714Y-117638571D01*
X188080952Y-117352857D01*
X188176190Y-117210000D01*
X188366666Y-117067142D01*
X188652380Y-117067142D01*
X188842857Y-117210000D01*
X188938095Y-117352857D01*
X189033333Y-117638571D01*
X189033333Y-118495714D01*
X188938095Y-118781428D01*
X188842857Y-118924285D01*
X188652380Y-119067142D01*
X188366666Y-119067142D01*
X189890476Y-119067142D02*
X189890476Y-116067142D01*
X189890476Y-117210000D02*
X190080952Y-117067142D01*
X190461904Y-117067142D01*
X190652380Y-117210000D01*
X190747619Y-117352857D01*
X190842857Y-117638571D01*
X190842857Y-118495714D01*
X190747619Y-118781428D01*
X190652380Y-118924285D01*
X190461904Y-119067142D01*
X190080952Y-119067142D01*
X189890476Y-118924285D01*
X191985714Y-119067142D02*
X191795238Y-118924285D01*
X191700000Y-118781428D01*
X191604761Y-118495714D01*
X191604761Y-117638571D01*
X191700000Y-117352857D01*
X191795238Y-117210000D01*
X191985714Y-117067142D01*
X192271428Y-117067142D01*
X192461904Y-117210000D01*
X192557142Y-117352857D01*
X192652380Y-117638571D01*
X192652380Y-118495714D01*
X192557142Y-118781428D01*
X192461904Y-118924285D01*
X192271428Y-119067142D01*
X191985714Y-119067142D01*
X193223809Y-117067142D02*
X193985714Y-117067142D01*
X193509523Y-116067142D02*
X193509523Y-118638571D01*
X193604761Y-118924285D01*
X193795238Y-119067142D01*
X193985714Y-119067142D01*
X194652380Y-119067142D02*
X194652380Y-117067142D01*
X194652380Y-116067142D02*
X194557142Y-116210000D01*
X194652380Y-116352857D01*
X194747619Y-116210000D01*
X194652380Y-116067142D01*
X194652380Y-116352857D01*
X196461904Y-118924285D02*
X196271428Y-119067142D01*
X195890476Y-119067142D01*
X195700000Y-118924285D01*
X195604761Y-118781428D01*
X195509523Y-118495714D01*
X195509523Y-117638571D01*
X195604761Y-117352857D01*
X195700000Y-117210000D01*
X195890476Y-117067142D01*
X196271428Y-117067142D01*
X196461904Y-117210000D01*
X197223809Y-118924285D02*
X197414285Y-119067142D01*
X197795238Y-119067142D01*
X197985714Y-118924285D01*
X198080952Y-118638571D01*
X198080952Y-118495714D01*
X197985714Y-118210000D01*
X197795238Y-118067142D01*
X197509523Y-118067142D01*
X197319047Y-117924285D01*
X197223809Y-117638571D01*
X197223809Y-117495714D01*
X197319047Y-117210000D01*
X197509523Y-117067142D01*
X197795238Y-117067142D01*
X197985714Y-117210000D01*
D11*
%TO.C,J5*%
X190970000Y-112510000D02*
X190970000Y-109850000D01*
X190970000Y-112510000D02*
X216430000Y-112510000D01*
X216430000Y-112510000D02*
X216430000Y-109850000D01*
X190970000Y-109850000D02*
X216430000Y-109850000D01*
X188370000Y-109850000D02*
X189700000Y-109850000D01*
X188370000Y-111180000D02*
X188370000Y-109850000D01*
%TO.C,CN1*%
X185050000Y-78160000D02*
X185050000Y-80820000D01*
X197810000Y-78160000D02*
X185050000Y-78160000D01*
X197810000Y-80820000D02*
X185050000Y-80820000D01*
X197810000Y-78160000D02*
X197810000Y-80820000D01*
X199080000Y-78160000D02*
X200410000Y-78160000D01*
X200410000Y-78160000D02*
X200410000Y-79490000D01*
%TO.C,D1*%
X179335000Y-61010000D02*
X176475000Y-61010000D01*
X176475000Y-61010000D02*
X176475000Y-62930000D01*
X176475000Y-62930000D02*
X179335000Y-62930000D01*
D12*
%TO.C,IC1*%
X184930000Y-72940000D02*
X219730000Y-72940000D01*
X219730000Y-68180000D02*
X184930000Y-68180000D01*
X184930000Y-72940000D02*
X184930000Y-68180000D01*
X219730000Y-72940000D02*
X219730000Y-68180000D01*
D13*
X219684000Y-65160000D02*
G75*
G03*
X219684000Y-65160000I-254000J0D01*
G01*
D11*
%TO.C,R1*%
X191936647Y-62705000D02*
X191482519Y-62705000D01*
X191936647Y-61235000D02*
X191482519Y-61235000D01*
%TO.C,JP1*%
X175640000Y-74170000D02*
X180840000Y-74170000D01*
X175640000Y-69030000D02*
X175640000Y-74170000D01*
X180840000Y-66430000D02*
X180840000Y-74170000D01*
X175640000Y-69030000D02*
X178240000Y-69030000D01*
X178240000Y-69030000D02*
X178240000Y-66430000D01*
X178240000Y-66430000D02*
X180840000Y-66430000D01*
X175640000Y-67760000D02*
X175640000Y-66430000D01*
X175640000Y-66430000D02*
X176970000Y-66430000D01*
%TO.C,R2*%
X186272936Y-61235000D02*
X186727064Y-61235000D01*
X186272936Y-62705000D02*
X186727064Y-62705000D01*
D14*
%TO.C,TB1*%
X212560000Y-43580000D02*
X212560000Y-58820000D01*
X212560000Y-58820000D02*
X192240000Y-58820000D01*
X192240000Y-58820000D02*
X192240000Y-43580000D01*
X192240000Y-43580000D02*
X212560000Y-43580000D01*
D10*
X211450000Y-43000000D02*
G75*
G03*
X211450000Y-43000000I-150000J0D01*
G01*
D11*
%TO.C,J3*%
X186760000Y-97450000D02*
X189420000Y-97450000D01*
X186760000Y-97450000D02*
X186760000Y-100050000D01*
X186760000Y-100050000D02*
X189420000Y-100050000D01*
X189420000Y-97450000D02*
X189420000Y-100050000D01*
X189420000Y-94850000D02*
X189420000Y-96180000D01*
X188090000Y-94850000D02*
X189420000Y-94850000D01*
%TO.C,J1*%
X217310000Y-52070000D02*
X219970000Y-52070000D01*
X217310000Y-52070000D02*
X217310000Y-54670000D01*
X217310000Y-54670000D02*
X219970000Y-54670000D01*
X219970000Y-52070000D02*
X219970000Y-54670000D01*
X219970000Y-49470000D02*
X219970000Y-50800000D01*
X218640000Y-49470000D02*
X219970000Y-49470000D01*
%TO.C,J2*%
X186160000Y-49510000D02*
X187490000Y-49510000D01*
X187490000Y-49510000D02*
X187490000Y-50840000D01*
X187490000Y-52110000D02*
X187490000Y-54710000D01*
X184830000Y-54710000D02*
X187490000Y-54710000D01*
X184830000Y-52110000D02*
X184830000Y-54710000D01*
X184830000Y-52110000D02*
X187490000Y-52110000D01*
%TO.C,C1*%
X203421422Y-77840000D02*
X203938578Y-77840000D01*
X203421422Y-76420000D02*
X203938578Y-76420000D01*
%TO.C,C2*%
X213016493Y-62680000D02*
X212499337Y-62680000D01*
X213016493Y-61260000D02*
X212499337Y-61260000D01*
%TO.C,C3*%
X207746910Y-61260000D02*
X207229754Y-61260000D01*
X207746910Y-62680000D02*
X207229754Y-62680000D01*
%TO.C,C4*%
X202477327Y-62680000D02*
X201960171Y-62680000D01*
X202477327Y-61260000D02*
X201960171Y-61260000D01*
%TO.C,C5*%
X197207744Y-61260000D02*
X196690588Y-61260000D01*
X197207744Y-62680000D02*
X196690588Y-62680000D01*
%TO.C,C6*%
X191551422Y-95530000D02*
X192068578Y-95530000D01*
X191551422Y-96950000D02*
X192068578Y-96950000D01*
%TO.C,C7*%
X195828578Y-96950000D02*
X195311422Y-96950000D01*
X195828578Y-95530000D02*
X195311422Y-95530000D01*
D12*
%TO.C,U1*%
X186520000Y-93620000D02*
X186520000Y-88920000D01*
X186520000Y-88920000D02*
X197060000Y-88920000D01*
X197060000Y-88920000D02*
X197060000Y-93620000D01*
X197060000Y-93620000D02*
X186520000Y-93620000D01*
D15*
X186040000Y-91820000D02*
G75*
G03*
X186040000Y-91820000I-100000J0D01*
G01*
%TO.C,J5*%
D16*
X186382380Y-111513333D02*
X187096666Y-111513333D01*
X187239523Y-111560952D01*
X187334761Y-111656190D01*
X187382380Y-111799047D01*
X187382380Y-111894285D01*
X186382380Y-110560952D02*
X186382380Y-111037142D01*
X186858571Y-111084761D01*
X186810952Y-111037142D01*
X186763333Y-110941904D01*
X186763333Y-110703809D01*
X186810952Y-110608571D01*
X186858571Y-110560952D01*
X186953809Y-110513333D01*
X187191904Y-110513333D01*
X187287142Y-110560952D01*
X187334761Y-110608571D01*
X187382380Y-110703809D01*
X187382380Y-110941904D01*
X187334761Y-111037142D01*
X187287142Y-111084761D01*
%TO.C,CN1*%
X192099523Y-81957142D02*
X192051904Y-82004761D01*
X191909047Y-82052380D01*
X191813809Y-82052380D01*
X191670952Y-82004761D01*
X191575714Y-81909523D01*
X191528095Y-81814285D01*
X191480476Y-81623809D01*
X191480476Y-81480952D01*
X191528095Y-81290476D01*
X191575714Y-81195238D01*
X191670952Y-81100000D01*
X191813809Y-81052380D01*
X191909047Y-81052380D01*
X192051904Y-81100000D01*
X192099523Y-81147619D01*
X192528095Y-82052380D02*
X192528095Y-81052380D01*
X193099523Y-82052380D01*
X193099523Y-81052380D01*
X194099523Y-82052380D02*
X193528095Y-82052380D01*
X193813809Y-82052380D02*
X193813809Y-81052380D01*
X193718571Y-81195238D01*
X193623333Y-81290476D01*
X193528095Y-81338095D01*
%TO.C,D1*%
X177596904Y-60772380D02*
X177596904Y-59772380D01*
X177835000Y-59772380D01*
X177977857Y-59820000D01*
X178073095Y-59915238D01*
X178120714Y-60010476D01*
X178168333Y-60200952D01*
X178168333Y-60343809D01*
X178120714Y-60534285D01*
X178073095Y-60629523D01*
X177977857Y-60724761D01*
X177835000Y-60772380D01*
X177596904Y-60772380D01*
X179120714Y-60772380D02*
X178549285Y-60772380D01*
X178835000Y-60772380D02*
X178835000Y-59772380D01*
X178739761Y-59915238D01*
X178644523Y-60010476D01*
X178549285Y-60058095D01*
%TO.C,IC1*%
X201323202Y-71042662D02*
X201323202Y-70042040D01*
X202371473Y-70947365D02*
X202323824Y-70995013D01*
X202180878Y-71042662D01*
X202085581Y-71042662D01*
X201942635Y-70995013D01*
X201847337Y-70899716D01*
X201799689Y-70804419D01*
X201752040Y-70613824D01*
X201752040Y-70470878D01*
X201799689Y-70280283D01*
X201847337Y-70184986D01*
X201942635Y-70089689D01*
X202085581Y-70042040D01*
X202180878Y-70042040D01*
X202323824Y-70089689D01*
X202371473Y-70137337D01*
X203324446Y-71042662D02*
X202752662Y-71042662D01*
X203038554Y-71042662D02*
X203038554Y-70042040D01*
X202943257Y-70184986D01*
X202847959Y-70280283D01*
X202752662Y-70327932D01*
%TO.C,SW1*%
X185371666Y-86864761D02*
X185514523Y-86912380D01*
X185752619Y-86912380D01*
X185847857Y-86864761D01*
X185895476Y-86817142D01*
X185943095Y-86721904D01*
X185943095Y-86626666D01*
X185895476Y-86531428D01*
X185847857Y-86483809D01*
X185752619Y-86436190D01*
X185562142Y-86388571D01*
X185466904Y-86340952D01*
X185419285Y-86293333D01*
X185371666Y-86198095D01*
X185371666Y-86102857D01*
X185419285Y-86007619D01*
X185466904Y-85960000D01*
X185562142Y-85912380D01*
X185800238Y-85912380D01*
X185943095Y-85960000D01*
X186276428Y-85912380D02*
X186514523Y-86912380D01*
X186705000Y-86198095D01*
X186895476Y-86912380D01*
X187133571Y-85912380D01*
X188038333Y-86912380D02*
X187466904Y-86912380D01*
X187752619Y-86912380D02*
X187752619Y-85912380D01*
X187657380Y-86055238D01*
X187562142Y-86150476D01*
X187466904Y-86198095D01*
X191855000Y-85312380D02*
X191855000Y-85550476D01*
X191616904Y-85455238D02*
X191855000Y-85550476D01*
X192093095Y-85455238D01*
X191712142Y-85740952D02*
X191855000Y-85550476D01*
X191997857Y-85740952D01*
%TO.C,R1*%
X191542916Y-64072380D02*
X191209583Y-63596190D01*
X190971487Y-64072380D02*
X190971487Y-63072380D01*
X191352440Y-63072380D01*
X191447678Y-63120000D01*
X191495297Y-63167619D01*
X191542916Y-63262857D01*
X191542916Y-63405714D01*
X191495297Y-63500952D01*
X191447678Y-63548571D01*
X191352440Y-63596190D01*
X190971487Y-63596190D01*
X192495297Y-64072380D02*
X191923868Y-64072380D01*
X192209583Y-64072380D02*
X192209583Y-63072380D01*
X192114344Y-63215238D01*
X192019106Y-63310476D01*
X191923868Y-63358095D01*
%TO.C,JP1*%
X177406666Y-64882380D02*
X177406666Y-65596666D01*
X177359047Y-65739523D01*
X177263809Y-65834761D01*
X177120952Y-65882380D01*
X177025714Y-65882380D01*
X177882857Y-65882380D02*
X177882857Y-64882380D01*
X178263809Y-64882380D01*
X178359047Y-64930000D01*
X178406666Y-64977619D01*
X178454285Y-65072857D01*
X178454285Y-65215714D01*
X178406666Y-65310952D01*
X178359047Y-65358571D01*
X178263809Y-65406190D01*
X177882857Y-65406190D01*
X179406666Y-65882380D02*
X178835238Y-65882380D01*
X179120952Y-65882380D02*
X179120952Y-64882380D01*
X179025714Y-65025238D01*
X178930476Y-65120476D01*
X178835238Y-65168095D01*
%TO.C,Q1*%
X227057619Y-67025238D02*
X227010000Y-67120476D01*
X226914761Y-67215714D01*
X226771904Y-67358571D01*
X226724285Y-67453809D01*
X226724285Y-67549047D01*
X226962380Y-67501428D02*
X226914761Y-67596666D01*
X226819523Y-67691904D01*
X226629047Y-67739523D01*
X226295714Y-67739523D01*
X226105238Y-67691904D01*
X226010000Y-67596666D01*
X225962380Y-67501428D01*
X225962380Y-67310952D01*
X226010000Y-67215714D01*
X226105238Y-67120476D01*
X226295714Y-67072857D01*
X226629047Y-67072857D01*
X226819523Y-67120476D01*
X226914761Y-67215714D01*
X226962380Y-67310952D01*
X226962380Y-67501428D01*
X226962380Y-66120476D02*
X226962380Y-66691904D01*
X226962380Y-66406190D02*
X225962380Y-66406190D01*
X226105238Y-66501428D01*
X226200476Y-66596666D01*
X226248095Y-66691904D01*
X225212380Y-62630000D02*
X225450476Y-62630000D01*
X225355238Y-62868095D02*
X225450476Y-62630000D01*
X225355238Y-62391904D01*
X225640952Y-62772857D02*
X225450476Y-62630000D01*
X225640952Y-62487142D01*
%TO.C,R2*%
X186333333Y-60772380D02*
X186000000Y-60296190D01*
X185761904Y-60772380D02*
X185761904Y-59772380D01*
X186142857Y-59772380D01*
X186238095Y-59820000D01*
X186285714Y-59867619D01*
X186333333Y-59962857D01*
X186333333Y-60105714D01*
X186285714Y-60200952D01*
X186238095Y-60248571D01*
X186142857Y-60296190D01*
X185761904Y-60296190D01*
X186714285Y-59867619D02*
X186761904Y-59820000D01*
X186857142Y-59772380D01*
X187095238Y-59772380D01*
X187190476Y-59820000D01*
X187238095Y-59867619D01*
X187285714Y-59962857D01*
X187285714Y-60058095D01*
X187238095Y-60200952D01*
X186666666Y-60772380D01*
X187285714Y-60772380D01*
%TO.C,TB1*%
D17*
X213573311Y-46432205D02*
X213573311Y-46065920D01*
X214214309Y-46249063D02*
X213573311Y-46249063D01*
X213878548Y-45638588D02*
X213909072Y-45547017D01*
X213939595Y-45516494D01*
X214000643Y-45485970D01*
X214092214Y-45485970D01*
X214153261Y-45516494D01*
X214183785Y-45547017D01*
X214214309Y-45608065D01*
X214214309Y-45852254D01*
X213573311Y-45852254D01*
X213573311Y-45638588D01*
X213603835Y-45577541D01*
X213634358Y-45547017D01*
X213695406Y-45516494D01*
X213756453Y-45516494D01*
X213817501Y-45547017D01*
X213848024Y-45577541D01*
X213878548Y-45638588D01*
X213878548Y-45852254D01*
X214214309Y-44875496D02*
X214214309Y-45241780D01*
X214214309Y-45058638D02*
X213573311Y-45058638D01*
X213664882Y-45119685D01*
X213725929Y-45180733D01*
X213756453Y-45241780D01*
%TO.C,J3*%
D16*
X187756666Y-100882380D02*
X187756666Y-101596666D01*
X187709047Y-101739523D01*
X187613809Y-101834761D01*
X187470952Y-101882380D01*
X187375714Y-101882380D01*
X188137619Y-100882380D02*
X188756666Y-100882380D01*
X188423333Y-101263333D01*
X188566190Y-101263333D01*
X188661428Y-101310952D01*
X188709047Y-101358571D01*
X188756666Y-101453809D01*
X188756666Y-101691904D01*
X188709047Y-101787142D01*
X188661428Y-101834761D01*
X188566190Y-101882380D01*
X188280476Y-101882380D01*
X188185238Y-101834761D01*
X188137619Y-101787142D01*
%TO.C,J1*%
X218306666Y-47482380D02*
X218306666Y-48196666D01*
X218259047Y-48339523D01*
X218163809Y-48434761D01*
X218020952Y-48482380D01*
X217925714Y-48482380D01*
X219306666Y-48482380D02*
X218735238Y-48482380D01*
X219020952Y-48482380D02*
X219020952Y-47482380D01*
X218925714Y-47625238D01*
X218830476Y-47720476D01*
X218735238Y-47768095D01*
%TO.C,J2*%
X185826666Y-47522380D02*
X185826666Y-48236666D01*
X185779047Y-48379523D01*
X185683809Y-48474761D01*
X185540952Y-48522380D01*
X185445714Y-48522380D01*
X186255238Y-47617619D02*
X186302857Y-47570000D01*
X186398095Y-47522380D01*
X186636190Y-47522380D01*
X186731428Y-47570000D01*
X186779047Y-47617619D01*
X186826666Y-47712857D01*
X186826666Y-47808095D01*
X186779047Y-47950952D01*
X186207619Y-48522380D01*
X186826666Y-48522380D01*
%TO.C,C1*%
X203553333Y-79167142D02*
X203505714Y-79214761D01*
X203362857Y-79262380D01*
X203267619Y-79262380D01*
X203124761Y-79214761D01*
X203029523Y-79119523D01*
X202981904Y-79024285D01*
X202934285Y-78833809D01*
X202934285Y-78690952D01*
X202981904Y-78500476D01*
X203029523Y-78405238D01*
X203124761Y-78310000D01*
X203267619Y-78262380D01*
X203362857Y-78262380D01*
X203505714Y-78310000D01*
X203553333Y-78357619D01*
X204505714Y-79262380D02*
X203934285Y-79262380D01*
X204220000Y-79262380D02*
X204220000Y-78262380D01*
X204124761Y-78405238D01*
X204029523Y-78500476D01*
X203934285Y-78548095D01*
%TO.C,C2*%
X212591248Y-63977142D02*
X212543629Y-64024761D01*
X212400772Y-64072380D01*
X212305534Y-64072380D01*
X212162676Y-64024761D01*
X212067438Y-63929523D01*
X212019819Y-63834285D01*
X211972200Y-63643809D01*
X211972200Y-63500952D01*
X212019819Y-63310476D01*
X212067438Y-63215238D01*
X212162676Y-63120000D01*
X212305534Y-63072380D01*
X212400772Y-63072380D01*
X212543629Y-63120000D01*
X212591248Y-63167619D01*
X212972200Y-63167619D02*
X213019819Y-63120000D01*
X213115057Y-63072380D01*
X213353153Y-63072380D01*
X213448391Y-63120000D01*
X213496010Y-63167619D01*
X213543629Y-63262857D01*
X213543629Y-63358095D01*
X213496010Y-63500952D01*
X212924581Y-64072380D01*
X213543629Y-64072380D01*
%TO.C,C3*%
X207321665Y-63977142D02*
X207274046Y-64024761D01*
X207131189Y-64072380D01*
X207035951Y-64072380D01*
X206893093Y-64024761D01*
X206797855Y-63929523D01*
X206750236Y-63834285D01*
X206702617Y-63643809D01*
X206702617Y-63500952D01*
X206750236Y-63310476D01*
X206797855Y-63215238D01*
X206893093Y-63120000D01*
X207035951Y-63072380D01*
X207131189Y-63072380D01*
X207274046Y-63120000D01*
X207321665Y-63167619D01*
X207654998Y-63072380D02*
X208274046Y-63072380D01*
X207940712Y-63453333D01*
X208083570Y-63453333D01*
X208178808Y-63500952D01*
X208226427Y-63548571D01*
X208274046Y-63643809D01*
X208274046Y-63881904D01*
X208226427Y-63977142D01*
X208178808Y-64024761D01*
X208083570Y-64072380D01*
X207797855Y-64072380D01*
X207702617Y-64024761D01*
X207654998Y-63977142D01*
%TO.C,C4*%
X202052082Y-63977142D02*
X202004463Y-64024761D01*
X201861606Y-64072380D01*
X201766368Y-64072380D01*
X201623510Y-64024761D01*
X201528272Y-63929523D01*
X201480653Y-63834285D01*
X201433034Y-63643809D01*
X201433034Y-63500952D01*
X201480653Y-63310476D01*
X201528272Y-63215238D01*
X201623510Y-63120000D01*
X201766368Y-63072380D01*
X201861606Y-63072380D01*
X202004463Y-63120000D01*
X202052082Y-63167619D01*
X202909225Y-63405714D02*
X202909225Y-64072380D01*
X202671129Y-63024761D02*
X202433034Y-63739047D01*
X203052082Y-63739047D01*
%TO.C,C5*%
X196782499Y-63977142D02*
X196734880Y-64024761D01*
X196592023Y-64072380D01*
X196496785Y-64072380D01*
X196353927Y-64024761D01*
X196258689Y-63929523D01*
X196211070Y-63834285D01*
X196163451Y-63643809D01*
X196163451Y-63500952D01*
X196211070Y-63310476D01*
X196258689Y-63215238D01*
X196353927Y-63120000D01*
X196496785Y-63072380D01*
X196592023Y-63072380D01*
X196734880Y-63120000D01*
X196782499Y-63167619D01*
X197687261Y-63072380D02*
X197211070Y-63072380D01*
X197163451Y-63548571D01*
X197211070Y-63500952D01*
X197306308Y-63453333D01*
X197544404Y-63453333D01*
X197639642Y-63500952D01*
X197687261Y-63548571D01*
X197734880Y-63643809D01*
X197734880Y-63881904D01*
X197687261Y-63977142D01*
X197639642Y-64024761D01*
X197544404Y-64072380D01*
X197306308Y-64072380D01*
X197211070Y-64024761D01*
X197163451Y-63977142D01*
%TO.C,C6*%
X191643333Y-94947142D02*
X191595714Y-94994761D01*
X191452857Y-95042380D01*
X191357619Y-95042380D01*
X191214761Y-94994761D01*
X191119523Y-94899523D01*
X191071904Y-94804285D01*
X191024285Y-94613809D01*
X191024285Y-94470952D01*
X191071904Y-94280476D01*
X191119523Y-94185238D01*
X191214761Y-94090000D01*
X191357619Y-94042380D01*
X191452857Y-94042380D01*
X191595714Y-94090000D01*
X191643333Y-94137619D01*
X192500476Y-94042380D02*
X192310000Y-94042380D01*
X192214761Y-94090000D01*
X192167142Y-94137619D01*
X192071904Y-94280476D01*
X192024285Y-94470952D01*
X192024285Y-94851904D01*
X192071904Y-94947142D01*
X192119523Y-94994761D01*
X192214761Y-95042380D01*
X192405238Y-95042380D01*
X192500476Y-94994761D01*
X192548095Y-94947142D01*
X192595714Y-94851904D01*
X192595714Y-94613809D01*
X192548095Y-94518571D01*
X192500476Y-94470952D01*
X192405238Y-94423333D01*
X192214761Y-94423333D01*
X192119523Y-94470952D01*
X192071904Y-94518571D01*
X192024285Y-94613809D01*
%TO.C,C7*%
X195373333Y-95047142D02*
X195325714Y-95094761D01*
X195182857Y-95142380D01*
X195087619Y-95142380D01*
X194944761Y-95094761D01*
X194849523Y-94999523D01*
X194801904Y-94904285D01*
X194754285Y-94713809D01*
X194754285Y-94570952D01*
X194801904Y-94380476D01*
X194849523Y-94285238D01*
X194944761Y-94190000D01*
X195087619Y-94142380D01*
X195182857Y-94142380D01*
X195325714Y-94190000D01*
X195373333Y-94237619D01*
X195706666Y-94142380D02*
X196373333Y-94142380D01*
X195944761Y-95142380D01*
%TO.C,U1*%
X183414777Y-89227808D02*
X183414777Y-90561482D01*
X183493228Y-90718385D01*
X183571680Y-90796837D01*
X183728582Y-90875288D01*
X184042388Y-90875288D01*
X184199291Y-90796837D01*
X184277742Y-90718385D01*
X184356194Y-90561482D01*
X184356194Y-89227808D01*
X186003674Y-90875288D02*
X185062257Y-90875288D01*
X185532965Y-90875288D02*
X185532965Y-89227808D01*
X185376062Y-89463162D01*
X185219160Y-89620065D01*
X185062257Y-89698517D01*
%TD*%
%LPC*%
D18*
%TO.C,J4*%
X167465000Y-126990000D03*
X237315000Y-126990000D03*
%TD*%
D19*
%TO.C,J5*%
X215100000Y-111180000D03*
X212560000Y-111180000D03*
X210020000Y-111180000D03*
X207480000Y-111180000D03*
X204940000Y-111180000D03*
X202400000Y-111180000D03*
X199860000Y-111180000D03*
X197320000Y-111180000D03*
X194780000Y-111180000D03*
X192240000Y-111180000D03*
D20*
X189700000Y-111180000D03*
%TD*%
D19*
%TO.C,CN1*%
X186380000Y-79490000D03*
X188920000Y-79490000D03*
X191460000Y-79490000D03*
X194000000Y-79490000D03*
X196540000Y-79490000D03*
D20*
X199080000Y-79490000D03*
%TD*%
%TO.C,D1*%
G36*
G01*
X178785000Y-62420001D02*
X178785000Y-61519999D01*
G75*
G02*
X179034999Y-61270000I249999J0D01*
G01*
X179685001Y-61270000D01*
G75*
G02*
X179935000Y-61519999I0J-249999D01*
G01*
X179935000Y-62420001D01*
G75*
G02*
X179685001Y-62670000I-249999J0D01*
G01*
X179034999Y-62670000D01*
G75*
G02*
X178785000Y-62420001I0J249999D01*
G01*
G37*
G36*
G01*
X176735000Y-62420001D02*
X176735000Y-61519999D01*
G75*
G02*
X176984999Y-61270000I249999J0D01*
G01*
X177635001Y-61270000D01*
G75*
G02*
X177885000Y-61519999I0J-249999D01*
G01*
X177885000Y-62420001D01*
G75*
G02*
X177635001Y-62670000I-249999J0D01*
G01*
X176984999Y-62670000D01*
G75*
G02*
X176735000Y-62420001I0J249999D01*
G01*
G37*
%TD*%
D21*
%TO.C,IC1*%
X218840000Y-74520000D03*
X216300000Y-74520000D03*
X213760000Y-74520000D03*
X211220000Y-74520000D03*
X208680000Y-74520000D03*
X206140000Y-74520000D03*
X203600000Y-74520000D03*
X201060000Y-74520000D03*
X198520000Y-74520000D03*
X195980000Y-74520000D03*
X193440000Y-74520000D03*
X190900000Y-74520000D03*
X188360000Y-74520000D03*
X185820000Y-74520000D03*
X185820000Y-66600000D03*
X188360000Y-66600000D03*
X190900000Y-66600000D03*
X193440000Y-66600000D03*
X195980000Y-66600000D03*
X198520000Y-66600000D03*
X208680000Y-66600000D03*
X206140000Y-66600000D03*
X211220000Y-66600000D03*
X213760000Y-66600000D03*
X201060000Y-66600000D03*
X203600000Y-66600000D03*
X216300000Y-66600000D03*
D22*
X218840000Y-66600000D03*
%TD*%
D23*
%TO.C,SW1*%
X186385000Y-84420000D03*
X191785000Y-84420000D03*
%TD*%
%TO.C,R1*%
G36*
G01*
X191309583Y-61519999D02*
X191309583Y-62420001D01*
G75*
G02*
X191059584Y-62670000I-249999J0D01*
G01*
X190359582Y-62670000D01*
G75*
G02*
X190109583Y-62420001I0J249999D01*
G01*
X190109583Y-61519999D01*
G75*
G02*
X190359582Y-61270000I249999J0D01*
G01*
X191059584Y-61270000D01*
G75*
G02*
X191309583Y-61519999I0J-249999D01*
G01*
G37*
G36*
G01*
X193309583Y-61519999D02*
X193309583Y-62420001D01*
G75*
G02*
X193059584Y-62670000I-249999J0D01*
G01*
X192359582Y-62670000D01*
G75*
G02*
X192109583Y-62420001I0J249999D01*
G01*
X192109583Y-61519999D01*
G75*
G02*
X192359582Y-61270000I249999J0D01*
G01*
X193059584Y-61270000D01*
G75*
G02*
X193309583Y-61519999I0J-249999D01*
G01*
G37*
%TD*%
D19*
%TO.C,JP1*%
X179510000Y-72840000D03*
X176970000Y-72840000D03*
X179510000Y-70300000D03*
X176970000Y-70300000D03*
X179510000Y-67760000D03*
D20*
X176970000Y-67760000D03*
%TD*%
D24*
%TO.C,Q1*%
X223835000Y-72605000D03*
X223835000Y-63105000D03*
%TD*%
%TO.C,R2*%
G36*
G01*
X186900000Y-62420001D02*
X186900000Y-61519999D01*
G75*
G02*
X187149999Y-61270000I249999J0D01*
G01*
X187850001Y-61270000D01*
G75*
G02*
X188100000Y-61519999I0J-249999D01*
G01*
X188100000Y-62420001D01*
G75*
G02*
X187850001Y-62670000I-249999J0D01*
G01*
X187149999Y-62670000D01*
G75*
G02*
X186900000Y-62420001I0J249999D01*
G01*
G37*
G36*
G01*
X184900000Y-62420001D02*
X184900000Y-61519999D01*
G75*
G02*
X185149999Y-61270000I249999J0D01*
G01*
X185850001Y-61270000D01*
G75*
G02*
X186100000Y-61519999I0J-249999D01*
G01*
X186100000Y-62420001D01*
G75*
G02*
X185850001Y-62670000I-249999J0D01*
G01*
X185149999Y-62670000D01*
G75*
G02*
X184900000Y-62420001I0J249999D01*
G01*
G37*
%TD*%
D25*
%TO.C,TB1*%
X211290000Y-57550000D03*
X208750000Y-57550000D03*
X206210000Y-57550000D03*
X203670000Y-57550000D03*
X201130000Y-57550000D03*
X198590000Y-57550000D03*
X196050000Y-57550000D03*
D26*
X193510000Y-57550000D03*
X193510000Y-44850000D03*
D25*
X196050000Y-44850000D03*
X198590000Y-44850000D03*
X201130000Y-44850000D03*
X203670000Y-44850000D03*
X206210000Y-44850000D03*
X208750000Y-44850000D03*
D26*
X211290000Y-44850000D03*
%TD*%
D20*
%TO.C,J3*%
X188090000Y-96180000D03*
D19*
X188090000Y-98720000D03*
%TD*%
D20*
%TO.C,J1*%
X218640000Y-50800000D03*
D19*
X218640000Y-53340000D03*
%TD*%
%TO.C,J2*%
X186160000Y-53380000D03*
D20*
X186160000Y-50840000D03*
%TD*%
%TO.C,C1*%
G36*
G01*
X204130000Y-77586250D02*
X204130000Y-76673750D01*
G75*
G02*
X204373750Y-76430000I243750J0D01*
G01*
X204861250Y-76430000D01*
G75*
G02*
X205105000Y-76673750I0J-243750D01*
G01*
X205105000Y-77586250D01*
G75*
G02*
X204861250Y-77830000I-243750J0D01*
G01*
X204373750Y-77830000D01*
G75*
G02*
X204130000Y-77586250I0J243750D01*
G01*
G37*
G36*
G01*
X202255000Y-77586250D02*
X202255000Y-76673750D01*
G75*
G02*
X202498750Y-76430000I243750J0D01*
G01*
X202986250Y-76430000D01*
G75*
G02*
X203230000Y-76673750I0J-243750D01*
G01*
X203230000Y-77586250D01*
G75*
G02*
X202986250Y-77830000I-243750J0D01*
G01*
X202498750Y-77830000D01*
G75*
G02*
X202255000Y-77586250I0J243750D01*
G01*
G37*
%TD*%
%TO.C,C2*%
G36*
G01*
X214182915Y-61513750D02*
X214182915Y-62426250D01*
G75*
G02*
X213939165Y-62670000I-243750J0D01*
G01*
X213451665Y-62670000D01*
G75*
G02*
X213207915Y-62426250I0J243750D01*
G01*
X213207915Y-61513750D01*
G75*
G02*
X213451665Y-61270000I243750J0D01*
G01*
X213939165Y-61270000D01*
G75*
G02*
X214182915Y-61513750I0J-243750D01*
G01*
G37*
G36*
G01*
X212307915Y-61513750D02*
X212307915Y-62426250D01*
G75*
G02*
X212064165Y-62670000I-243750J0D01*
G01*
X211576665Y-62670000D01*
G75*
G02*
X211332915Y-62426250I0J243750D01*
G01*
X211332915Y-61513750D01*
G75*
G02*
X211576665Y-61270000I243750J0D01*
G01*
X212064165Y-61270000D01*
G75*
G02*
X212307915Y-61513750I0J-243750D01*
G01*
G37*
%TD*%
%TO.C,C3*%
G36*
G01*
X207038332Y-61513750D02*
X207038332Y-62426250D01*
G75*
G02*
X206794582Y-62670000I-243750J0D01*
G01*
X206307082Y-62670000D01*
G75*
G02*
X206063332Y-62426250I0J243750D01*
G01*
X206063332Y-61513750D01*
G75*
G02*
X206307082Y-61270000I243750J0D01*
G01*
X206794582Y-61270000D01*
G75*
G02*
X207038332Y-61513750I0J-243750D01*
G01*
G37*
G36*
G01*
X208913332Y-61513750D02*
X208913332Y-62426250D01*
G75*
G02*
X208669582Y-62670000I-243750J0D01*
G01*
X208182082Y-62670000D01*
G75*
G02*
X207938332Y-62426250I0J243750D01*
G01*
X207938332Y-61513750D01*
G75*
G02*
X208182082Y-61270000I243750J0D01*
G01*
X208669582Y-61270000D01*
G75*
G02*
X208913332Y-61513750I0J-243750D01*
G01*
G37*
%TD*%
%TO.C,C4*%
G36*
G01*
X203643749Y-61513750D02*
X203643749Y-62426250D01*
G75*
G02*
X203399999Y-62670000I-243750J0D01*
G01*
X202912499Y-62670000D01*
G75*
G02*
X202668749Y-62426250I0J243750D01*
G01*
X202668749Y-61513750D01*
G75*
G02*
X202912499Y-61270000I243750J0D01*
G01*
X203399999Y-61270000D01*
G75*
G02*
X203643749Y-61513750I0J-243750D01*
G01*
G37*
G36*
G01*
X201768749Y-61513750D02*
X201768749Y-62426250D01*
G75*
G02*
X201524999Y-62670000I-243750J0D01*
G01*
X201037499Y-62670000D01*
G75*
G02*
X200793749Y-62426250I0J243750D01*
G01*
X200793749Y-61513750D01*
G75*
G02*
X201037499Y-61270000I243750J0D01*
G01*
X201524999Y-61270000D01*
G75*
G02*
X201768749Y-61513750I0J-243750D01*
G01*
G37*
%TD*%
%TO.C,C5*%
G36*
G01*
X196499166Y-61513750D02*
X196499166Y-62426250D01*
G75*
G02*
X196255416Y-62670000I-243750J0D01*
G01*
X195767916Y-62670000D01*
G75*
G02*
X195524166Y-62426250I0J243750D01*
G01*
X195524166Y-61513750D01*
G75*
G02*
X195767916Y-61270000I243750J0D01*
G01*
X196255416Y-61270000D01*
G75*
G02*
X196499166Y-61513750I0J-243750D01*
G01*
G37*
G36*
G01*
X198374166Y-61513750D02*
X198374166Y-62426250D01*
G75*
G02*
X198130416Y-62670000I-243750J0D01*
G01*
X197642916Y-62670000D01*
G75*
G02*
X197399166Y-62426250I0J243750D01*
G01*
X197399166Y-61513750D01*
G75*
G02*
X197642916Y-61270000I243750J0D01*
G01*
X198130416Y-61270000D01*
G75*
G02*
X198374166Y-61513750I0J-243750D01*
G01*
G37*
%TD*%
%TO.C,C6*%
G36*
G01*
X190385000Y-96696250D02*
X190385000Y-95783750D01*
G75*
G02*
X190628750Y-95540000I243750J0D01*
G01*
X191116250Y-95540000D01*
G75*
G02*
X191360000Y-95783750I0J-243750D01*
G01*
X191360000Y-96696250D01*
G75*
G02*
X191116250Y-96940000I-243750J0D01*
G01*
X190628750Y-96940000D01*
G75*
G02*
X190385000Y-96696250I0J243750D01*
G01*
G37*
G36*
G01*
X192260000Y-96696250D02*
X192260000Y-95783750D01*
G75*
G02*
X192503750Y-95540000I243750J0D01*
G01*
X192991250Y-95540000D01*
G75*
G02*
X193235000Y-95783750I0J-243750D01*
G01*
X193235000Y-96696250D01*
G75*
G02*
X192991250Y-96940000I-243750J0D01*
G01*
X192503750Y-96940000D01*
G75*
G02*
X192260000Y-96696250I0J243750D01*
G01*
G37*
%TD*%
%TO.C,C7*%
G36*
G01*
X196995000Y-95783750D02*
X196995000Y-96696250D01*
G75*
G02*
X196751250Y-96940000I-243750J0D01*
G01*
X196263750Y-96940000D01*
G75*
G02*
X196020000Y-96696250I0J243750D01*
G01*
X196020000Y-95783750D01*
G75*
G02*
X196263750Y-95540000I243750J0D01*
G01*
X196751250Y-95540000D01*
G75*
G02*
X196995000Y-95783750I0J-243750D01*
G01*
G37*
G36*
G01*
X195120000Y-95783750D02*
X195120000Y-96696250D01*
G75*
G02*
X194876250Y-96940000I-243750J0D01*
G01*
X194388750Y-96940000D01*
G75*
G02*
X194145000Y-96696250I0J243750D01*
G01*
X194145000Y-95783750D01*
G75*
G02*
X194388750Y-95540000I243750J0D01*
G01*
X194876250Y-95540000D01*
G75*
G02*
X195120000Y-95783750I0J-243750D01*
G01*
G37*
%TD*%
D27*
%TO.C,U1*%
X189250000Y-91820000D03*
D28*
X191790000Y-91820000D03*
X194330000Y-91820000D03*
%TD*%
M02*
