%TF.GenerationSoftware,KiCad,Pcbnew,(5.1.6)-1*%
%TF.CreationDate,2022-02-26T01:19:58-08:00*%
%TF.ProjectId,seguilineas_actualizado,73656775-696c-4696-9e65-61735f616374,rev?*%
%TF.SameCoordinates,Original*%
%TF.FileFunction,Profile,NP*%
%FSLAX46Y46*%
G04 Gerber Fmt 4.6, Leading zero omitted, Abs format (unit mm)*
G04 Created by KiCad (PCBNEW (5.1.6)-1) date 2022-02-26 01:19:58*
%MOMM*%
%LPD*%
G01*
G04 APERTURE LIST*
%TA.AperFunction,Profile*%
%ADD10C,0.150000*%
%TD*%
%TA.AperFunction,Profile*%
%ADD11C,0.200000*%
%TD*%
G04 APERTURE END LIST*
D10*
X170390000Y-61790000D02*
G75*
G03*
X170390000Y-61790000I-1000000J0D01*
G01*
X170390000Y-43790000D02*
G75*
G03*
X170390000Y-43790000I-1000000J0D01*
G01*
X236390000Y-61800000D02*
G75*
G03*
X236390000Y-61800000I-1000000J0D01*
G01*
X236390000Y-43790000D02*
G75*
G03*
X236390000Y-43790000I-1000000J0D01*
G01*
D11*
X247390000Y-125920000D02*
G75*
G02*
X242390000Y-130920000I-5000000J0D01*
G01*
X224390000Y-87856132D02*
G75*
G02*
X226771085Y-83598064I5000000J-1191D01*
G01*
X180390000Y-87857323D02*
X180390000Y-101062135D01*
X247390000Y-68126004D02*
G75*
G02*
X245008914Y-72384071I-5000000J1192D01*
G01*
X159771085Y-72384071D02*
X178008914Y-83598064D01*
X242390000Y-40920000D02*
X162390000Y-40920000D01*
X157390000Y-111062135D02*
G75*
G02*
X162390000Y-106062135I5000000J0D01*
G01*
X242390000Y-106062135D02*
G75*
G02*
X247390000Y-111062135I0J-5000000D01*
G01*
X157390000Y-45920000D02*
X157390000Y-68124812D01*
X247390000Y-68124812D02*
X247390000Y-45920000D01*
X229390000Y-106062136D02*
G75*
G02*
X224389999Y-101062135I0J5000001D01*
G01*
X157390000Y-45920000D02*
G75*
G02*
X162390000Y-40920000I5000000J0D01*
G01*
X180390000Y-101062135D02*
G75*
G02*
X175390000Y-106062135I-5000000J0D01*
G01*
X242390000Y-40920001D02*
G75*
G02*
X247389999Y-45920000I0J-4999999D01*
G01*
X162390000Y-130920000D02*
G75*
G02*
X157390000Y-125920000I0J5000000D01*
G01*
X159770070Y-72383447D02*
G75*
G02*
X157390000Y-68124812I2619930J4258635D01*
G01*
X178009930Y-83598688D02*
G75*
G02*
X180390000Y-87857323I-2619930J-4258635D01*
G01*
X178890000Y-121920000D02*
X225890000Y-121920000D01*
X225890000Y-130920000D02*
X242390000Y-130920000D01*
X157390000Y-111062135D02*
X157390000Y-125920000D01*
X225890000Y-121920000D02*
X225890000Y-130920000D01*
X242390000Y-106062135D02*
X229390000Y-106062135D01*
X247390000Y-125920000D02*
X247390000Y-111062135D01*
X226771085Y-83598064D02*
X245008914Y-72384071D01*
X175390000Y-106062135D02*
X162390000Y-106062135D01*
X162390000Y-130920000D02*
X178890000Y-130920000D01*
X224390000Y-101062135D02*
X224390000Y-87857323D01*
X178890000Y-130920000D02*
X178890000Y-121920000D01*
M02*
