G04 #@! TF.GenerationSoftware,KiCad,Pcbnew,(5.1.6)-1*
G04 #@! TF.CreationDate,2021-11-01T01:40:41-07:00*
G04 #@! TF.ProjectId,seguilineas,73656775-696c-4696-9e65-61732e6b6963,rev?*
G04 #@! TF.SameCoordinates,Original*
G04 #@! TF.FileFunction,Copper,L2,Bot*
G04 #@! TF.FilePolarity,Positive*
%FSLAX46Y46*%
G04 Gerber Fmt 4.6, Leading zero omitted, Abs format (unit mm)*
G04 Created by KiCad (PCBNEW (5.1.6)-1) date 2021-11-01 01:40:41*
%MOMM*%
%LPD*%
G01*
G04 APERTURE LIST*
G04 #@! TA.AperFunction,ComponentPad*
%ADD10C,1.700000*%
G04 #@! TD*
G04 #@! TA.AperFunction,ComponentPad*
%ADD11O,1.700000X1.700000*%
G04 #@! TD*
G04 #@! TA.AperFunction,ComponentPad*
%ADD12O,1.350000X1.350000*%
G04 #@! TD*
G04 #@! TA.AperFunction,ComponentPad*
%ADD13R,1.350000X1.350000*%
G04 #@! TD*
G04 #@! TA.AperFunction,ComponentPad*
%ADD14R,1.700000X1.700000*%
G04 #@! TD*
G04 #@! TA.AperFunction,ComponentPad*
%ADD15R,1.560000X1.560000*%
G04 #@! TD*
G04 #@! TA.AperFunction,ComponentPad*
%ADD16C,1.560000*%
G04 #@! TD*
G04 #@! TA.AperFunction,ComponentPad*
%ADD17C,2.800000*%
G04 #@! TD*
G04 #@! TA.AperFunction,ViaPad*
%ADD18C,0.800000*%
G04 #@! TD*
G04 #@! TA.AperFunction,Conductor*
%ADD19C,1.016000*%
G04 #@! TD*
G04 #@! TA.AperFunction,Conductor*
%ADD20C,0.250000*%
G04 #@! TD*
G04 #@! TA.AperFunction,Conductor*
%ADD21C,0.254000*%
G04 #@! TD*
G04 APERTURE END LIST*
D10*
X122480000Y-92540000D03*
X122480000Y-79840000D03*
D11*
X123750000Y-95080000D03*
D10*
X122480000Y-64600000D03*
D11*
X123750000Y-84920000D03*
X123750000Y-82380000D03*
D10*
X122480000Y-72220000D03*
X122480000Y-82380000D03*
X122480000Y-84920000D03*
X122480000Y-77300000D03*
X122480000Y-87460000D03*
D11*
X123750000Y-79840000D03*
X123750000Y-87460000D03*
X123750000Y-90000000D03*
D10*
X122480000Y-90000000D03*
D11*
X123750000Y-77300000D03*
X123750000Y-97620000D03*
X123750000Y-74760000D03*
X123750000Y-72220000D03*
X123750000Y-69680000D03*
X123750000Y-67140000D03*
D10*
X123750000Y-64600000D03*
D11*
X123750000Y-100160000D03*
X123750000Y-92540000D03*
D10*
X122480000Y-97620000D03*
X122480000Y-74760000D03*
X122480000Y-100160000D03*
X122480000Y-67140000D03*
X122480000Y-95080000D03*
X122480000Y-69680000D03*
X140260000Y-67140000D03*
X140260000Y-64600000D03*
X140260000Y-69680000D03*
X140260000Y-77300000D03*
X140260000Y-72220000D03*
X140260000Y-74760000D03*
X140260000Y-82380000D03*
X140260000Y-79840000D03*
X140260000Y-84920000D03*
X140260000Y-90000000D03*
X140260000Y-87460000D03*
X140260000Y-92540000D03*
X140260000Y-95080000D03*
X140260000Y-97620000D03*
X140260000Y-100160000D03*
X138990000Y-100160000D03*
D11*
X138990000Y-97620000D03*
X138990000Y-95080000D03*
X138990000Y-92540000D03*
X138990000Y-90000000D03*
X138990000Y-87460000D03*
X138990000Y-84920000D03*
X138990000Y-82380000D03*
X138990000Y-79840000D03*
X138990000Y-77300000D03*
X138990000Y-74760000D03*
X138990000Y-72220000D03*
X138990000Y-69680000D03*
X138990000Y-67140000D03*
X138990000Y-64600000D03*
D12*
X91600000Y-53420000D03*
D13*
X91600000Y-55420000D03*
X91750000Y-112500000D03*
D12*
X91750000Y-110500000D03*
D13*
X111330000Y-81230000D03*
D12*
X109330000Y-81230000D03*
D14*
X196480000Y-95120000D03*
D11*
X196480000Y-92580000D03*
X196480000Y-90040000D03*
X196480000Y-87500000D03*
X196480000Y-84960000D03*
X196480000Y-82420000D03*
X196480000Y-79880000D03*
X196480000Y-77340000D03*
X196480000Y-74800000D03*
X196480000Y-72260000D03*
X196480000Y-69720000D03*
D15*
X96660000Y-103560000D03*
D16*
X99200000Y-103560000D03*
X101740000Y-103560000D03*
X104280000Y-103560000D03*
X106820000Y-103560000D03*
X109360000Y-103560000D03*
X111900000Y-103560000D03*
D15*
X114440000Y-103560000D03*
X114440000Y-90860000D03*
D16*
X111900000Y-90860000D03*
X109360000Y-90860000D03*
X106820000Y-90860000D03*
X104280000Y-90860000D03*
X101740000Y-90860000D03*
X99200000Y-90860000D03*
X96660000Y-90860000D03*
D17*
X216690000Y-118690000D03*
X216690000Y-48840000D03*
D18*
X131300220Y-84709000D03*
X117630000Y-69190000D03*
X100000000Y-40000000D03*
X110000000Y-40000000D03*
X120000000Y-40000000D03*
X90000000Y-40000000D03*
X80000000Y-50000000D03*
X90000000Y-50000000D03*
X100000000Y-50000000D03*
X110000000Y-50000000D03*
X120000000Y-50000000D03*
X130000000Y-50000000D03*
X200000000Y-50000000D03*
X210000000Y-40000000D03*
X220000000Y-40000000D03*
X210000000Y-50000000D03*
X207700000Y-91590000D03*
X210000000Y-120000000D03*
X210000000Y-130000000D03*
X220000000Y-130000000D03*
X200000000Y-120000000D03*
X199979280Y-93807280D03*
X200000000Y-70000000D03*
X130000000Y-120000000D03*
X120000000Y-120000000D03*
X110000000Y-130000000D03*
X100000000Y-130000000D03*
X110000000Y-120000000D03*
X100000000Y-120000000D03*
X90000000Y-120000000D03*
X80000000Y-120000000D03*
X80000000Y-110000000D03*
X80000000Y-90000000D03*
X80000000Y-100000000D03*
X80000000Y-80000000D03*
X80000000Y-70000000D03*
X80000000Y-60000000D03*
X90000000Y-100000000D03*
X120000000Y-110000000D03*
X100000000Y-80000000D03*
X100000000Y-70000000D03*
X110000000Y-70000000D03*
X128376680Y-80914240D03*
X126243080Y-83365340D03*
X110517940Y-88155780D03*
X116654580Y-85394800D03*
X118930420Y-88524080D03*
X108689140Y-97815400D03*
X88117680Y-59783980D03*
X87924640Y-70279260D03*
X87924640Y-79415640D03*
X88117680Y-90109040D03*
X206040000Y-86260000D03*
X194340480Y-64559180D03*
X195961000Y-103819960D03*
X202801220Y-78640940D03*
X202879960Y-81277460D03*
X200045320Y-91277440D03*
X119519700Y-62042040D03*
X112890000Y-106370000D03*
X101620000Y-108940000D03*
X104470000Y-99520000D03*
X105700000Y-93810000D03*
X113490000Y-97900000D03*
X98850000Y-87590000D03*
X95270000Y-88130000D03*
X96940000Y-59230000D03*
X105860000Y-63380000D03*
X117040000Y-76570000D03*
X109880000Y-76820000D03*
X134260000Y-81550000D03*
X142770000Y-103340000D03*
X142650000Y-60930000D03*
X201390000Y-99640000D03*
X130110000Y-58450000D03*
X129800000Y-68480000D03*
X200630000Y-63730000D03*
X113758980Y-63154560D03*
X135469520Y-54640480D03*
X99060000Y-93470000D03*
X102770000Y-96490000D03*
D19*
X104280000Y-90860000D02*
X104280000Y-72633540D01*
X104280000Y-72633540D02*
X113758980Y-63154560D01*
X138990000Y-72220000D02*
X135469520Y-68699520D01*
X135469520Y-68699520D02*
X135469520Y-54640480D01*
X93580000Y-92860000D02*
X104280000Y-103560000D01*
X91600000Y-53420000D02*
X92980000Y-53420000D01*
X93990000Y-54430000D02*
X93990000Y-55790000D01*
X92980000Y-53420000D02*
X93990000Y-54430000D01*
X93990000Y-55790000D02*
X93580000Y-56200000D01*
X93580000Y-56200000D02*
X93580000Y-92860000D01*
X101600000Y-103757758D02*
X101600000Y-103700000D01*
X91440000Y-93597758D02*
X101600000Y-103757758D01*
X101600000Y-103700000D02*
X101740000Y-103560000D01*
X91600000Y-55420000D02*
X91440000Y-55580000D01*
X91440000Y-55580000D02*
X91440000Y-93597758D01*
X102080000Y-96490000D02*
X102770000Y-96490000D01*
X99060000Y-93470000D02*
X102080000Y-96490000D01*
D20*
X123750000Y-92607919D02*
X123750000Y-92540000D01*
X194310000Y-71890000D02*
X194310000Y-101978460D01*
X196480000Y-69720000D02*
X194310000Y-71890000D01*
X194310000Y-101978460D02*
X189608460Y-106680000D01*
X189608460Y-106680000D02*
X137822081Y-106680000D01*
X137822081Y-106680000D02*
X123750000Y-92607919D01*
X96660000Y-90860000D02*
X96660000Y-64630000D01*
X96660000Y-64630000D02*
X101600000Y-59690000D01*
X101600000Y-59690000D02*
X113030000Y-59690000D01*
X113030000Y-59690000D02*
X120650000Y-67310000D01*
X120650000Y-83090000D02*
X122480000Y-84920000D01*
X120650000Y-67310000D02*
X120650000Y-83090000D01*
D21*
G36*
X221859007Y-34758881D02*
G01*
X223001718Y-34976864D01*
X224108113Y-35336353D01*
X225160721Y-35831673D01*
X226142947Y-36455012D01*
X227039308Y-37196547D01*
X227835660Y-38044576D01*
X228519446Y-38985727D01*
X229079881Y-40005155D01*
X229508129Y-41086786D01*
X229797438Y-42213566D01*
X229944692Y-43379206D01*
X229962973Y-43960918D01*
X229962974Y-45609692D01*
X218234078Y-45609692D01*
X218197973Y-45606136D01*
X218161868Y-45609692D01*
X218053888Y-45620327D01*
X217915340Y-45662355D01*
X217787653Y-45730605D01*
X217675735Y-45822454D01*
X217583886Y-45934372D01*
X217515636Y-46062059D01*
X217473608Y-46200607D01*
X217459417Y-46344692D01*
X217462973Y-46380797D01*
X217462973Y-46957508D01*
X217283587Y-46883204D01*
X216890430Y-46805000D01*
X216489570Y-46805000D01*
X216096413Y-46883204D01*
X215726066Y-47036607D01*
X215392763Y-47259313D01*
X215109313Y-47542763D01*
X214886607Y-47876066D01*
X214733204Y-48246413D01*
X214655000Y-48639570D01*
X214655000Y-49040430D01*
X214733204Y-49433587D01*
X214886607Y-49803934D01*
X215109313Y-50137237D01*
X215392763Y-50420687D01*
X215726066Y-50643393D01*
X216096413Y-50796796D01*
X216489570Y-50875000D01*
X216890430Y-50875000D01*
X217283587Y-50796796D01*
X217462973Y-50722492D01*
X217462974Y-61309394D01*
X217397498Y-61265645D01*
X217076748Y-61132787D01*
X216736242Y-61065056D01*
X216389066Y-61065056D01*
X216048560Y-61132787D01*
X215727810Y-61265645D01*
X215439143Y-61458526D01*
X215193652Y-61704017D01*
X215000771Y-61992684D01*
X214867913Y-62313434D01*
X214800182Y-62653940D01*
X214800182Y-63001116D01*
X214867913Y-63341622D01*
X215000771Y-63662372D01*
X215193652Y-63951039D01*
X215439143Y-64196530D01*
X215727810Y-64389411D01*
X216048560Y-64522269D01*
X216389066Y-64590000D01*
X216736242Y-64590000D01*
X217076748Y-64522269D01*
X217397498Y-64389411D01*
X217462974Y-64345662D01*
X217462974Y-66405640D01*
X217373100Y-66345588D01*
X217052350Y-66212730D01*
X216711844Y-66144999D01*
X216364668Y-66144999D01*
X216024162Y-66212730D01*
X215703412Y-66345588D01*
X215414745Y-66538469D01*
X215169254Y-66783960D01*
X214976373Y-67072627D01*
X214843515Y-67393377D01*
X214775784Y-67733883D01*
X214775784Y-68081059D01*
X214843515Y-68421565D01*
X214976373Y-68742315D01*
X215169254Y-69030982D01*
X215414745Y-69276473D01*
X215487371Y-69325000D01*
X213646105Y-69325000D01*
X213610000Y-69321444D01*
X213573895Y-69325000D01*
X213465915Y-69335635D01*
X213327367Y-69377663D01*
X213199680Y-69445913D01*
X213087762Y-69537762D01*
X212995913Y-69649680D01*
X212927663Y-69777367D01*
X212885635Y-69915915D01*
X212871444Y-70060000D01*
X212875000Y-70096105D01*
X212875001Y-105308577D01*
X212871444Y-105344692D01*
X212885635Y-105488777D01*
X212927663Y-105627325D01*
X212995913Y-105755012D01*
X213087762Y-105866930D01*
X213199680Y-105958779D01*
X213327367Y-106027029D01*
X213465915Y-106069057D01*
X213573895Y-106079692D01*
X213610000Y-106083248D01*
X213646105Y-106079692D01*
X217462974Y-106079692D01*
X217462973Y-116807508D01*
X217283587Y-116733204D01*
X216890430Y-116655000D01*
X216489570Y-116655000D01*
X216096413Y-116733204D01*
X215726066Y-116886607D01*
X215392763Y-117109313D01*
X215182881Y-117319195D01*
X215155029Y-117337805D01*
X214909538Y-117583296D01*
X214716657Y-117871963D01*
X214583799Y-118192713D01*
X214516068Y-118533219D01*
X214516068Y-118880395D01*
X214583799Y-119220901D01*
X214716657Y-119541651D01*
X214909538Y-119830318D01*
X215155029Y-120075809D01*
X215284183Y-120162107D01*
X215392763Y-120270687D01*
X215726066Y-120493393D01*
X216096413Y-120646796D01*
X216489570Y-120725000D01*
X216890430Y-120725000D01*
X217283587Y-120646796D01*
X217494981Y-120559234D01*
X217515636Y-120627325D01*
X217583886Y-120755012D01*
X217675735Y-120866930D01*
X217773461Y-120947132D01*
X217787653Y-120958779D01*
X217915340Y-121027029D01*
X218053888Y-121069057D01*
X218197973Y-121083248D01*
X218234078Y-121079692D01*
X229962974Y-121079692D01*
X229962973Y-122716884D01*
X229888472Y-123901038D01*
X229670488Y-125043756D01*
X229311002Y-126150138D01*
X228815680Y-127202751D01*
X228192338Y-128184980D01*
X227450807Y-129081338D01*
X226602781Y-129877687D01*
X225661624Y-130561477D01*
X224642204Y-131121909D01*
X223560568Y-131550159D01*
X222433783Y-131839468D01*
X221268148Y-131986722D01*
X220686437Y-132005003D01*
X208221061Y-132005003D01*
X207036939Y-131930504D01*
X205894221Y-131712520D01*
X204787831Y-131353031D01*
X203735225Y-130857712D01*
X202752996Y-130234370D01*
X201856638Y-129492838D01*
X201060290Y-128644813D01*
X200376502Y-127703662D01*
X199816066Y-126684233D01*
X199387818Y-125602600D01*
X199098508Y-124475814D01*
X198951254Y-123310179D01*
X198932610Y-122716917D01*
X198912877Y-122089012D01*
X198909618Y-122054537D01*
X198907444Y-122019979D01*
X198750050Y-120774072D01*
X198746414Y-120755011D01*
X198732755Y-120683404D01*
X198420447Y-119467047D01*
X198403419Y-119414641D01*
X198391924Y-119379263D01*
X197929630Y-118211640D01*
X197890329Y-118128122D01*
X197285337Y-117027647D01*
X197243342Y-116961473D01*
X197235880Y-116949714D01*
X196497732Y-115933742D01*
X196438897Y-115862622D01*
X195579236Y-114947176D01*
X195550729Y-114920406D01*
X195511951Y-114883991D01*
X194544333Y-114083507D01*
X194469659Y-114029253D01*
X193409343Y-113356356D01*
X193328458Y-113311889D01*
X192192167Y-112777191D01*
X192122514Y-112749614D01*
X192106347Y-112743213D01*
X190912000Y-112355145D01*
X190822597Y-112332191D01*
X189589030Y-112096876D01*
X189587083Y-112096630D01*
X189497456Y-112085307D01*
X188257070Y-112007268D01*
X188234078Y-112005004D01*
X148276698Y-112005004D01*
X148258471Y-112006799D01*
X147282740Y-112055389D01*
X147241635Y-112060037D01*
X147200495Y-112064144D01*
X145961198Y-112267126D01*
X145871226Y-112287735D01*
X144667141Y-112644442D01*
X144580461Y-112676165D01*
X143430578Y-113180971D01*
X143367192Y-113213690D01*
X143348559Y-113223308D01*
X142271012Y-113868252D01*
X142247227Y-113884600D01*
X142194944Y-113920535D01*
X141206728Y-114695446D01*
X141137813Y-114756850D01*
X140254511Y-115649507D01*
X140193836Y-115719065D01*
X139429378Y-116715389D01*
X139388278Y-116776558D01*
X139377900Y-116792003D01*
X138744342Y-117876284D01*
X138702871Y-117958745D01*
X138210206Y-119113882D01*
X138197553Y-119149618D01*
X138179398Y-119200891D01*
X137931238Y-120072167D01*
X110999194Y-131609692D01*
X99502404Y-131609692D01*
X76215000Y-120790412D01*
X76215000Y-119785159D01*
X95084894Y-119785159D01*
X95084894Y-120132335D01*
X95152625Y-120472841D01*
X95285483Y-120793591D01*
X95478364Y-121082258D01*
X95723855Y-121327749D01*
X96012522Y-121520630D01*
X96333272Y-121653488D01*
X96673778Y-121721219D01*
X97020954Y-121721219D01*
X97361460Y-121653488D01*
X97682210Y-121520630D01*
X97970877Y-121327749D01*
X98216368Y-121082258D01*
X98409249Y-120793591D01*
X98542107Y-120472841D01*
X98609838Y-120132335D01*
X98609838Y-119785159D01*
X113084894Y-119785159D01*
X113084894Y-120132335D01*
X113152625Y-120472841D01*
X113285483Y-120793591D01*
X113478364Y-121082258D01*
X113723855Y-121327749D01*
X114012522Y-121520630D01*
X114333272Y-121653488D01*
X114673778Y-121721219D01*
X115020954Y-121721219D01*
X115361460Y-121653488D01*
X115682210Y-121520630D01*
X115970877Y-121327749D01*
X116216368Y-121082258D01*
X116409249Y-120793591D01*
X116542107Y-120472841D01*
X116609838Y-120132335D01*
X116609838Y-119785159D01*
X116542107Y-119444653D01*
X116409249Y-119123903D01*
X116216368Y-118835236D01*
X115970877Y-118589745D01*
X115682210Y-118396864D01*
X115361460Y-118264006D01*
X115020954Y-118196275D01*
X114673778Y-118196275D01*
X114333272Y-118264006D01*
X114012522Y-118396864D01*
X113723855Y-118589745D01*
X113478364Y-118835236D01*
X113285483Y-119123903D01*
X113152625Y-119444653D01*
X113084894Y-119785159D01*
X98609838Y-119785159D01*
X98542107Y-119444653D01*
X98409249Y-119123903D01*
X98216368Y-118835236D01*
X97970877Y-118589745D01*
X97682210Y-118396864D01*
X97361460Y-118264006D01*
X97020954Y-118196275D01*
X96673778Y-118196275D01*
X96333272Y-118264006D01*
X96012522Y-118396864D01*
X95723855Y-118589745D01*
X95478364Y-118835236D01*
X95285483Y-119123903D01*
X95152625Y-119444653D01*
X95084894Y-119785159D01*
X76215000Y-119785159D01*
X76215000Y-111825000D01*
X90436928Y-111825000D01*
X90436928Y-113175000D01*
X90449188Y-113299482D01*
X90485498Y-113419180D01*
X90544463Y-113529494D01*
X90623815Y-113626185D01*
X90720506Y-113705537D01*
X90830820Y-113764502D01*
X90950518Y-113800812D01*
X91075000Y-113813072D01*
X92425000Y-113813072D01*
X92549482Y-113800812D01*
X92669180Y-113764502D01*
X92779494Y-113705537D01*
X92876185Y-113626185D01*
X92955537Y-113529494D01*
X93014502Y-113419180D01*
X93050812Y-113299482D01*
X93063072Y-113175000D01*
X93063072Y-111825000D01*
X93050812Y-111700518D01*
X93014502Y-111580820D01*
X92955537Y-111470506D01*
X92876185Y-111373815D01*
X92789303Y-111302513D01*
X92910907Y-111120518D01*
X93009658Y-110882113D01*
X93060000Y-110629024D01*
X93060000Y-110370976D01*
X93009658Y-110117887D01*
X92910907Y-109879482D01*
X92767544Y-109664923D01*
X92585077Y-109482456D01*
X92370518Y-109339093D01*
X92155430Y-109250000D01*
X102786565Y-109250000D01*
X102790001Y-109284887D01*
X102790000Y-113585123D01*
X102786565Y-113620000D01*
X102800273Y-113759184D01*
X102840872Y-113893020D01*
X102906800Y-114016363D01*
X102995525Y-114124475D01*
X103100435Y-114210572D01*
X103103637Y-114213200D01*
X103226980Y-114279128D01*
X103360816Y-114319727D01*
X103500000Y-114333435D01*
X103534877Y-114330000D01*
X107485123Y-114330000D01*
X107520000Y-114333435D01*
X107554877Y-114330000D01*
X107659184Y-114319727D01*
X107793020Y-114279128D01*
X107916363Y-114213200D01*
X108024475Y-114124475D01*
X108113200Y-114016363D01*
X108179128Y-113893020D01*
X108219727Y-113759184D01*
X108233435Y-113620000D01*
X108230000Y-113585123D01*
X108230000Y-109284877D01*
X108233435Y-109250000D01*
X108219727Y-109110816D01*
X108179128Y-108976980D01*
X108113200Y-108853637D01*
X108024475Y-108745525D01*
X107916363Y-108656800D01*
X107793020Y-108590872D01*
X107659184Y-108550273D01*
X107554877Y-108540000D01*
X107520000Y-108536565D01*
X107485123Y-108540000D01*
X103534877Y-108540000D01*
X103500000Y-108536565D01*
X103465123Y-108540000D01*
X103360816Y-108550273D01*
X103226980Y-108590872D01*
X103103637Y-108656800D01*
X102995525Y-108745525D01*
X102906800Y-108853637D01*
X102840872Y-108976980D01*
X102800273Y-109110816D01*
X102786565Y-109250000D01*
X92155430Y-109250000D01*
X92132113Y-109240342D01*
X91879024Y-109190000D01*
X91620976Y-109190000D01*
X91367887Y-109240342D01*
X91129482Y-109339093D01*
X90914923Y-109482456D01*
X90732456Y-109664923D01*
X90589093Y-109879482D01*
X90490342Y-110117887D01*
X90440000Y-110370976D01*
X90440000Y-110629024D01*
X90490342Y-110882113D01*
X90589093Y-111120518D01*
X90710697Y-111302513D01*
X90623815Y-111373815D01*
X90544463Y-111470506D01*
X90485498Y-111580820D01*
X90449188Y-111700518D01*
X90436928Y-111825000D01*
X76215000Y-111825000D01*
X76215000Y-104340000D01*
X95241928Y-104340000D01*
X95254188Y-104464482D01*
X95290498Y-104584180D01*
X95349463Y-104694494D01*
X95428815Y-104791185D01*
X95525506Y-104870537D01*
X95635820Y-104929502D01*
X95755518Y-104965812D01*
X95880000Y-104978072D01*
X96374250Y-104975000D01*
X96533000Y-104816250D01*
X96533000Y-103687000D01*
X95403750Y-103687000D01*
X95245000Y-103845750D01*
X95241928Y-104340000D01*
X76215000Y-104340000D01*
X76215000Y-102780000D01*
X95241928Y-102780000D01*
X95245000Y-103274250D01*
X95403750Y-103433000D01*
X96533000Y-103433000D01*
X96533000Y-102303750D01*
X96374250Y-102145000D01*
X95880000Y-102141928D01*
X95755518Y-102154188D01*
X95635820Y-102190498D01*
X95525506Y-102249463D01*
X95428815Y-102328815D01*
X95349463Y-102425506D01*
X95290498Y-102535820D01*
X95254188Y-102655518D01*
X95241928Y-102780000D01*
X76215000Y-102780000D01*
X76215000Y-54745000D01*
X90286928Y-54745000D01*
X90286928Y-56095000D01*
X90297000Y-56197266D01*
X90297001Y-93541609D01*
X90291471Y-93597758D01*
X90313539Y-93821825D01*
X90357861Y-93967932D01*
X90378898Y-94037281D01*
X90485033Y-94235847D01*
X90513062Y-94270000D01*
X90565760Y-94334212D01*
X90627868Y-94409891D01*
X90671478Y-94445681D01*
X98531226Y-102305430D01*
X98529746Y-102306043D01*
X98297990Y-102460897D01*
X98100897Y-102657990D01*
X98070531Y-102703436D01*
X98065812Y-102655518D01*
X98029502Y-102535820D01*
X97970537Y-102425506D01*
X97891185Y-102328815D01*
X97794494Y-102249463D01*
X97684180Y-102190498D01*
X97564482Y-102154188D01*
X97440000Y-102141928D01*
X96945750Y-102145000D01*
X96787000Y-102303750D01*
X96787000Y-103433000D01*
X96807000Y-103433000D01*
X96807000Y-103687000D01*
X96787000Y-103687000D01*
X96787000Y-104816250D01*
X96945750Y-104975000D01*
X97440000Y-104978072D01*
X97564482Y-104965812D01*
X97684180Y-104929502D01*
X97794494Y-104870537D01*
X97891185Y-104791185D01*
X97970537Y-104694494D01*
X98029502Y-104584180D01*
X98065812Y-104464482D01*
X98070531Y-104416564D01*
X98100897Y-104462010D01*
X98297990Y-104659103D01*
X98529746Y-104813957D01*
X98787260Y-104920623D01*
X99060635Y-104975000D01*
X99339365Y-104975000D01*
X99612740Y-104920623D01*
X99870254Y-104813957D01*
X100102010Y-104659103D01*
X100299103Y-104462010D01*
X100453957Y-104230254D01*
X100454570Y-104228774D01*
X100546438Y-104320642D01*
X100640897Y-104462010D01*
X100837990Y-104659103D01*
X101069746Y-104813957D01*
X101327260Y-104920623D01*
X101600635Y-104975000D01*
X101879365Y-104975000D01*
X102152740Y-104920623D01*
X102410254Y-104813957D01*
X102642010Y-104659103D01*
X102839103Y-104462010D01*
X102993957Y-104230254D01*
X103010000Y-104191523D01*
X103026043Y-104230254D01*
X103180897Y-104462010D01*
X103377990Y-104659103D01*
X103609746Y-104813957D01*
X103867260Y-104920623D01*
X104140635Y-104975000D01*
X104419365Y-104975000D01*
X104692740Y-104920623D01*
X104950254Y-104813957D01*
X105182010Y-104659103D01*
X105379103Y-104462010D01*
X105533957Y-104230254D01*
X105550000Y-104191523D01*
X105566043Y-104230254D01*
X105720897Y-104462010D01*
X105917990Y-104659103D01*
X106149746Y-104813957D01*
X106407260Y-104920623D01*
X106680635Y-104975000D01*
X106959365Y-104975000D01*
X107232740Y-104920623D01*
X107490254Y-104813957D01*
X107722010Y-104659103D01*
X107919103Y-104462010D01*
X108073957Y-104230254D01*
X108090000Y-104191523D01*
X108106043Y-104230254D01*
X108260897Y-104462010D01*
X108457990Y-104659103D01*
X108689746Y-104813957D01*
X108947260Y-104920623D01*
X109220635Y-104975000D01*
X109499365Y-104975000D01*
X109772740Y-104920623D01*
X110030254Y-104813957D01*
X110262010Y-104659103D01*
X110459103Y-104462010D01*
X110613957Y-104230254D01*
X110630000Y-104191523D01*
X110646043Y-104230254D01*
X110800897Y-104462010D01*
X110997990Y-104659103D01*
X111229746Y-104813957D01*
X111487260Y-104920623D01*
X111760635Y-104975000D01*
X112039365Y-104975000D01*
X112312740Y-104920623D01*
X112570254Y-104813957D01*
X112802010Y-104659103D01*
X112999103Y-104462010D01*
X113029469Y-104416564D01*
X113034188Y-104464482D01*
X113070498Y-104584180D01*
X113129463Y-104694494D01*
X113208815Y-104791185D01*
X113305506Y-104870537D01*
X113415820Y-104929502D01*
X113535518Y-104965812D01*
X113660000Y-104978072D01*
X114154250Y-104975000D01*
X114313000Y-104816250D01*
X114313000Y-103687000D01*
X114567000Y-103687000D01*
X114567000Y-104816250D01*
X114725750Y-104975000D01*
X115220000Y-104978072D01*
X115344482Y-104965812D01*
X115464180Y-104929502D01*
X115574494Y-104870537D01*
X115671185Y-104791185D01*
X115750537Y-104694494D01*
X115809502Y-104584180D01*
X115845812Y-104464482D01*
X115858072Y-104340000D01*
X115855000Y-103845750D01*
X115696250Y-103687000D01*
X114567000Y-103687000D01*
X114313000Y-103687000D01*
X114293000Y-103687000D01*
X114293000Y-103433000D01*
X114313000Y-103433000D01*
X114313000Y-102303750D01*
X114567000Y-102303750D01*
X114567000Y-103433000D01*
X115696250Y-103433000D01*
X115855000Y-103274250D01*
X115858072Y-102780000D01*
X115845812Y-102655518D01*
X115809502Y-102535820D01*
X115750537Y-102425506D01*
X115671185Y-102328815D01*
X115574494Y-102249463D01*
X115464180Y-102190498D01*
X115344482Y-102154188D01*
X115220000Y-102141928D01*
X114725750Y-102145000D01*
X114567000Y-102303750D01*
X114313000Y-102303750D01*
X114154250Y-102145000D01*
X113660000Y-102141928D01*
X113535518Y-102154188D01*
X113415820Y-102190498D01*
X113305506Y-102249463D01*
X113208815Y-102328815D01*
X113129463Y-102425506D01*
X113070498Y-102535820D01*
X113034188Y-102655518D01*
X113029469Y-102703436D01*
X112999103Y-102657990D01*
X112802010Y-102460897D01*
X112570254Y-102306043D01*
X112312740Y-102199377D01*
X112039365Y-102145000D01*
X111760635Y-102145000D01*
X111487260Y-102199377D01*
X111229746Y-102306043D01*
X110997990Y-102460897D01*
X110800897Y-102657990D01*
X110646043Y-102889746D01*
X110630000Y-102928477D01*
X110613957Y-102889746D01*
X110459103Y-102657990D01*
X110262010Y-102460897D01*
X110030254Y-102306043D01*
X109772740Y-102199377D01*
X109499365Y-102145000D01*
X109220635Y-102145000D01*
X108947260Y-102199377D01*
X108689746Y-102306043D01*
X108457990Y-102460897D01*
X108260897Y-102657990D01*
X108106043Y-102889746D01*
X108090000Y-102928477D01*
X108073957Y-102889746D01*
X107919103Y-102657990D01*
X107722010Y-102460897D01*
X107490254Y-102306043D01*
X107232740Y-102199377D01*
X106959365Y-102145000D01*
X106680635Y-102145000D01*
X106407260Y-102199377D01*
X106149746Y-102306043D01*
X105917990Y-102460897D01*
X105720897Y-102657990D01*
X105566043Y-102889746D01*
X105550000Y-102928477D01*
X105533957Y-102889746D01*
X105379103Y-102657990D01*
X105182010Y-102460897D01*
X104950254Y-102306043D01*
X104692740Y-102199377D01*
X104496861Y-102160415D01*
X95806446Y-93470000D01*
X97911471Y-93470000D01*
X97933539Y-93694067D01*
X97998898Y-93909523D01*
X98105033Y-94108088D01*
X98212076Y-94238521D01*
X101232077Y-97258523D01*
X101267867Y-97302133D01*
X101441911Y-97444968D01*
X101640477Y-97551103D01*
X101749023Y-97584030D01*
X101855932Y-97616461D01*
X101876517Y-97618488D01*
X102023854Y-97633000D01*
X102023861Y-97633000D01*
X102080000Y-97638529D01*
X102136139Y-97633000D01*
X102826146Y-97633000D01*
X102994067Y-97616461D01*
X103209523Y-97551103D01*
X103408089Y-97444968D01*
X103582133Y-97302133D01*
X103724968Y-97128089D01*
X103831103Y-96929523D01*
X103896461Y-96714067D01*
X103918530Y-96490000D01*
X103896461Y-96265933D01*
X103831103Y-96050477D01*
X103724968Y-95851911D01*
X103582133Y-95677867D01*
X103408089Y-95535032D01*
X103209523Y-95428897D01*
X102994067Y-95363539D01*
X102826146Y-95347000D01*
X102553446Y-95347000D01*
X99828521Y-92622076D01*
X99698088Y-92515033D01*
X99499523Y-92408898D01*
X99284067Y-92343539D01*
X99060000Y-92321471D01*
X98835933Y-92343539D01*
X98620477Y-92408898D01*
X98421912Y-92515033D01*
X98247867Y-92657867D01*
X98105033Y-92831912D01*
X97998898Y-93030477D01*
X97933539Y-93245933D01*
X97911471Y-93470000D01*
X95806446Y-93470000D01*
X94723000Y-92386555D01*
X94723000Y-90720635D01*
X95245000Y-90720635D01*
X95245000Y-90999365D01*
X95299377Y-91272740D01*
X95406043Y-91530254D01*
X95560897Y-91762010D01*
X95757990Y-91959103D01*
X95989746Y-92113957D01*
X96247260Y-92220623D01*
X96520635Y-92275000D01*
X96799365Y-92275000D01*
X97072740Y-92220623D01*
X97330254Y-92113957D01*
X97562010Y-91959103D01*
X97759103Y-91762010D01*
X97913957Y-91530254D01*
X97930000Y-91491523D01*
X97946043Y-91530254D01*
X98100897Y-91762010D01*
X98297990Y-91959103D01*
X98529746Y-92113957D01*
X98787260Y-92220623D01*
X99060635Y-92275000D01*
X99339365Y-92275000D01*
X99612740Y-92220623D01*
X99870254Y-92113957D01*
X100102010Y-91959103D01*
X100299103Y-91762010D01*
X100453957Y-91530254D01*
X100470000Y-91491523D01*
X100486043Y-91530254D01*
X100640897Y-91762010D01*
X100837990Y-91959103D01*
X101069746Y-92113957D01*
X101327260Y-92220623D01*
X101600635Y-92275000D01*
X101879365Y-92275000D01*
X102152740Y-92220623D01*
X102410254Y-92113957D01*
X102642010Y-91959103D01*
X102839103Y-91762010D01*
X102993957Y-91530254D01*
X103010000Y-91491523D01*
X103026043Y-91530254D01*
X103180897Y-91762010D01*
X103377990Y-91959103D01*
X103609746Y-92113957D01*
X103867260Y-92220623D01*
X104140635Y-92275000D01*
X104419365Y-92275000D01*
X104692740Y-92220623D01*
X104950254Y-92113957D01*
X105182010Y-91959103D01*
X105379103Y-91762010D01*
X105533957Y-91530254D01*
X105550000Y-91491523D01*
X105566043Y-91530254D01*
X105720897Y-91762010D01*
X105917990Y-91959103D01*
X106149746Y-92113957D01*
X106407260Y-92220623D01*
X106680635Y-92275000D01*
X106959365Y-92275000D01*
X107232740Y-92220623D01*
X107490254Y-92113957D01*
X107722010Y-91959103D01*
X107919103Y-91762010D01*
X108073957Y-91530254D01*
X108090000Y-91491523D01*
X108106043Y-91530254D01*
X108260897Y-91762010D01*
X108457990Y-91959103D01*
X108689746Y-92113957D01*
X108947260Y-92220623D01*
X109220635Y-92275000D01*
X109499365Y-92275000D01*
X109772740Y-92220623D01*
X110030254Y-92113957D01*
X110262010Y-91959103D01*
X110459103Y-91762010D01*
X110613957Y-91530254D01*
X110630000Y-91491523D01*
X110646043Y-91530254D01*
X110800897Y-91762010D01*
X110997990Y-91959103D01*
X111229746Y-92113957D01*
X111487260Y-92220623D01*
X111760635Y-92275000D01*
X112039365Y-92275000D01*
X112312740Y-92220623D01*
X112570254Y-92113957D01*
X112802010Y-91959103D01*
X112999103Y-91762010D01*
X113029469Y-91716564D01*
X113034188Y-91764482D01*
X113070498Y-91884180D01*
X113129463Y-91994494D01*
X113208815Y-92091185D01*
X113305506Y-92170537D01*
X113415820Y-92229502D01*
X113535518Y-92265812D01*
X113660000Y-92278072D01*
X114154250Y-92275000D01*
X114313000Y-92116250D01*
X114313000Y-90987000D01*
X114567000Y-90987000D01*
X114567000Y-92116250D01*
X114725750Y-92275000D01*
X115220000Y-92278072D01*
X115344482Y-92265812D01*
X115464180Y-92229502D01*
X115574494Y-92170537D01*
X115671185Y-92091185D01*
X115750537Y-91994494D01*
X115809502Y-91884180D01*
X115845812Y-91764482D01*
X115858072Y-91640000D01*
X115855000Y-91145750D01*
X115696250Y-90987000D01*
X114567000Y-90987000D01*
X114313000Y-90987000D01*
X114293000Y-90987000D01*
X114293000Y-90733000D01*
X114313000Y-90733000D01*
X114313000Y-89603750D01*
X114567000Y-89603750D01*
X114567000Y-90733000D01*
X115696250Y-90733000D01*
X115855000Y-90574250D01*
X115858072Y-90080000D01*
X115845812Y-89955518D01*
X115809502Y-89835820D01*
X115750537Y-89725506D01*
X115671185Y-89628815D01*
X115574494Y-89549463D01*
X115464180Y-89490498D01*
X115344482Y-89454188D01*
X115220000Y-89441928D01*
X114725750Y-89445000D01*
X114567000Y-89603750D01*
X114313000Y-89603750D01*
X114154250Y-89445000D01*
X113660000Y-89441928D01*
X113535518Y-89454188D01*
X113415820Y-89490498D01*
X113305506Y-89549463D01*
X113208815Y-89628815D01*
X113129463Y-89725506D01*
X113070498Y-89835820D01*
X113034188Y-89955518D01*
X113029469Y-90003436D01*
X112999103Y-89957990D01*
X112802010Y-89760897D01*
X112570254Y-89606043D01*
X112312740Y-89499377D01*
X112039365Y-89445000D01*
X111760635Y-89445000D01*
X111487260Y-89499377D01*
X111229746Y-89606043D01*
X110997990Y-89760897D01*
X110800897Y-89957990D01*
X110646043Y-90189746D01*
X110630000Y-90228477D01*
X110613957Y-90189746D01*
X110459103Y-89957990D01*
X110262010Y-89760897D01*
X110030254Y-89606043D01*
X109772740Y-89499377D01*
X109499365Y-89445000D01*
X109220635Y-89445000D01*
X108947260Y-89499377D01*
X108689746Y-89606043D01*
X108457990Y-89760897D01*
X108260897Y-89957990D01*
X108106043Y-90189746D01*
X108090000Y-90228477D01*
X108073957Y-90189746D01*
X107919103Y-89957990D01*
X107722010Y-89760897D01*
X107490254Y-89606043D01*
X107232740Y-89499377D01*
X106959365Y-89445000D01*
X106680635Y-89445000D01*
X106407260Y-89499377D01*
X106149746Y-89606043D01*
X105917990Y-89760897D01*
X105720897Y-89957990D01*
X105566043Y-90189746D01*
X105550000Y-90228477D01*
X105533957Y-90189746D01*
X105423000Y-90023687D01*
X105423000Y-81559401D01*
X108062085Y-81559401D01*
X108150711Y-81800430D01*
X108284656Y-82019537D01*
X108458773Y-82208303D01*
X108666371Y-82359473D01*
X108899472Y-82467238D01*
X109000600Y-82497910D01*
X109203000Y-82374224D01*
X109203000Y-81357000D01*
X108184915Y-81357000D01*
X108062085Y-81559401D01*
X105423000Y-81559401D01*
X105423000Y-80900599D01*
X108062085Y-80900599D01*
X108184915Y-81103000D01*
X109203000Y-81103000D01*
X109203000Y-80085776D01*
X109457000Y-80085776D01*
X109457000Y-81103000D01*
X109477000Y-81103000D01*
X109477000Y-81357000D01*
X109457000Y-81357000D01*
X109457000Y-82374224D01*
X109659400Y-82497910D01*
X109760528Y-82467238D01*
X109993629Y-82359473D01*
X110126881Y-82262441D01*
X110203815Y-82356185D01*
X110300506Y-82435537D01*
X110410820Y-82494502D01*
X110530518Y-82530812D01*
X110655000Y-82543072D01*
X112005000Y-82543072D01*
X112129482Y-82530812D01*
X112249180Y-82494502D01*
X112359494Y-82435537D01*
X112456185Y-82356185D01*
X112535537Y-82259494D01*
X112594502Y-82149180D01*
X112630812Y-82029482D01*
X112643072Y-81905000D01*
X112643072Y-80555000D01*
X112630812Y-80430518D01*
X112594502Y-80310820D01*
X112535537Y-80200506D01*
X112456185Y-80103815D01*
X112359494Y-80024463D01*
X112249180Y-79965498D01*
X112129482Y-79929188D01*
X112005000Y-79916928D01*
X110655000Y-79916928D01*
X110530518Y-79929188D01*
X110410820Y-79965498D01*
X110300506Y-80024463D01*
X110203815Y-80103815D01*
X110126881Y-80197559D01*
X109993629Y-80100527D01*
X109760528Y-79992762D01*
X109659400Y-79962090D01*
X109457000Y-80085776D01*
X109203000Y-80085776D01*
X109000600Y-79962090D01*
X108899472Y-79992762D01*
X108666371Y-80100527D01*
X108458773Y-80251697D01*
X108284656Y-80440463D01*
X108150711Y-80659570D01*
X108062085Y-80900599D01*
X105423000Y-80900599D01*
X105423000Y-73106985D01*
X114606904Y-63923082D01*
X114713947Y-63792649D01*
X114820082Y-63594084D01*
X114885441Y-63378628D01*
X114907509Y-63154561D01*
X114885441Y-62930493D01*
X114820082Y-62715037D01*
X114713947Y-62516472D01*
X114571113Y-62342427D01*
X114397068Y-62199593D01*
X114198503Y-62093458D01*
X113983047Y-62028099D01*
X113758979Y-62006031D01*
X113534912Y-62028099D01*
X113319456Y-62093458D01*
X113120891Y-62199593D01*
X112990458Y-62306636D01*
X103511478Y-71785617D01*
X103467868Y-71821407D01*
X103325033Y-71995451D01*
X103267642Y-72102823D01*
X103218898Y-72194017D01*
X103153539Y-72409473D01*
X103131471Y-72633540D01*
X103137001Y-72689689D01*
X103137000Y-90023687D01*
X103026043Y-90189746D01*
X103010000Y-90228477D01*
X102993957Y-90189746D01*
X102839103Y-89957990D01*
X102642010Y-89760897D01*
X102410254Y-89606043D01*
X102152740Y-89499377D01*
X101879365Y-89445000D01*
X101600635Y-89445000D01*
X101327260Y-89499377D01*
X101069746Y-89606043D01*
X100837990Y-89760897D01*
X100640897Y-89957990D01*
X100486043Y-90189746D01*
X100470000Y-90228477D01*
X100453957Y-90189746D01*
X100299103Y-89957990D01*
X100102010Y-89760897D01*
X99870254Y-89606043D01*
X99612740Y-89499377D01*
X99339365Y-89445000D01*
X99060635Y-89445000D01*
X98787260Y-89499377D01*
X98529746Y-89606043D01*
X98297990Y-89760897D01*
X98100897Y-89957990D01*
X97946043Y-90189746D01*
X97930000Y-90228477D01*
X97913957Y-90189746D01*
X97759103Y-89957990D01*
X97562010Y-89760897D01*
X97420000Y-89666009D01*
X97420000Y-64944801D01*
X101914802Y-60450000D01*
X112715199Y-60450000D01*
X119890000Y-67624802D01*
X119890001Y-83052667D01*
X119886324Y-83090000D01*
X119900998Y-83238985D01*
X119944454Y-83382246D01*
X120015026Y-83514276D01*
X120063610Y-83573475D01*
X120110000Y-83630001D01*
X120138998Y-83653799D01*
X121038790Y-84553592D01*
X120995000Y-84773740D01*
X120995000Y-85066260D01*
X121052068Y-85353158D01*
X121164010Y-85623411D01*
X121326525Y-85866632D01*
X121533368Y-86073475D01*
X121707760Y-86190000D01*
X121533368Y-86306525D01*
X121326525Y-86513368D01*
X121164010Y-86756589D01*
X121052068Y-87026842D01*
X120995000Y-87313740D01*
X120995000Y-87606260D01*
X121052068Y-87893158D01*
X121164010Y-88163411D01*
X121326525Y-88406632D01*
X121533368Y-88613475D01*
X121707760Y-88730000D01*
X121533368Y-88846525D01*
X121326525Y-89053368D01*
X121164010Y-89296589D01*
X121052068Y-89566842D01*
X120995000Y-89853740D01*
X120995000Y-90146260D01*
X121052068Y-90433158D01*
X121164010Y-90703411D01*
X121326525Y-90946632D01*
X121533368Y-91153475D01*
X121707760Y-91270000D01*
X121533368Y-91386525D01*
X121326525Y-91593368D01*
X121164010Y-91836589D01*
X121052068Y-92106842D01*
X120995000Y-92393740D01*
X120995000Y-92686260D01*
X121052068Y-92973158D01*
X121164010Y-93243411D01*
X121326525Y-93486632D01*
X121533368Y-93693475D01*
X121707760Y-93810000D01*
X121533368Y-93926525D01*
X121326525Y-94133368D01*
X121164010Y-94376589D01*
X121052068Y-94646842D01*
X120995000Y-94933740D01*
X120995000Y-95226260D01*
X121052068Y-95513158D01*
X121164010Y-95783411D01*
X121326525Y-96026632D01*
X121533368Y-96233475D01*
X121707760Y-96350000D01*
X121533368Y-96466525D01*
X121326525Y-96673368D01*
X121164010Y-96916589D01*
X121052068Y-97186842D01*
X120995000Y-97473740D01*
X120995000Y-97766260D01*
X121052068Y-98053158D01*
X121164010Y-98323411D01*
X121326525Y-98566632D01*
X121533368Y-98773475D01*
X121707760Y-98890000D01*
X121533368Y-99006525D01*
X121326525Y-99213368D01*
X121164010Y-99456589D01*
X121052068Y-99726842D01*
X120995000Y-100013740D01*
X120995000Y-100306260D01*
X121052068Y-100593158D01*
X121164010Y-100863411D01*
X121326525Y-101106632D01*
X121533368Y-101313475D01*
X121776589Y-101475990D01*
X122046842Y-101587932D01*
X122333740Y-101645000D01*
X122626260Y-101645000D01*
X122913158Y-101587932D01*
X123115000Y-101504327D01*
X123316842Y-101587932D01*
X123603740Y-101645000D01*
X123896260Y-101645000D01*
X124183158Y-101587932D01*
X124453411Y-101475990D01*
X124696632Y-101313475D01*
X124903475Y-101106632D01*
X125065990Y-100863411D01*
X125177932Y-100593158D01*
X125235000Y-100306260D01*
X125235000Y-100013740D01*
X125177932Y-99726842D01*
X125065990Y-99456589D01*
X124903475Y-99213368D01*
X124696632Y-99006525D01*
X124522240Y-98890000D01*
X124696632Y-98773475D01*
X124903475Y-98566632D01*
X125065990Y-98323411D01*
X125177932Y-98053158D01*
X125235000Y-97766260D01*
X125235000Y-97473740D01*
X125177932Y-97186842D01*
X125065990Y-96916589D01*
X124903475Y-96673368D01*
X124696632Y-96466525D01*
X124522240Y-96350000D01*
X124696632Y-96233475D01*
X124903475Y-96026632D01*
X125065990Y-95783411D01*
X125177932Y-95513158D01*
X125235000Y-95226260D01*
X125235000Y-95167720D01*
X137258282Y-107191003D01*
X137282080Y-107220001D01*
X137397805Y-107314974D01*
X137529834Y-107385546D01*
X137673095Y-107429003D01*
X137784748Y-107440000D01*
X137784758Y-107440000D01*
X137822081Y-107443676D01*
X137859404Y-107440000D01*
X189571138Y-107440000D01*
X189608460Y-107443676D01*
X189645782Y-107440000D01*
X189645793Y-107440000D01*
X189757446Y-107429003D01*
X189900707Y-107385546D01*
X190032736Y-107314974D01*
X190148461Y-107220001D01*
X190172264Y-107190997D01*
X194821003Y-102542259D01*
X194850001Y-102518461D01*
X194944974Y-102402736D01*
X195015546Y-102270707D01*
X195059003Y-102127446D01*
X195070000Y-102015793D01*
X195070000Y-102015785D01*
X195073676Y-101978460D01*
X195070000Y-101941135D01*
X195070000Y-96269373D01*
X195099463Y-96324494D01*
X195178815Y-96421185D01*
X195275506Y-96500537D01*
X195385820Y-96559502D01*
X195505518Y-96595812D01*
X195630000Y-96608072D01*
X197330000Y-96608072D01*
X197454482Y-96595812D01*
X197574180Y-96559502D01*
X197684494Y-96500537D01*
X197781185Y-96421185D01*
X197860537Y-96324494D01*
X197919502Y-96214180D01*
X197955812Y-96094482D01*
X197968072Y-95970000D01*
X197968072Y-94270000D01*
X197955812Y-94145518D01*
X197919502Y-94025820D01*
X197860537Y-93915506D01*
X197781185Y-93818815D01*
X197684494Y-93739463D01*
X197574180Y-93680498D01*
X197501620Y-93658487D01*
X197633475Y-93526632D01*
X197795990Y-93283411D01*
X197907932Y-93013158D01*
X197965000Y-92726260D01*
X197965000Y-92433740D01*
X197907932Y-92146842D01*
X197795990Y-91876589D01*
X197633475Y-91633368D01*
X197426632Y-91426525D01*
X197252240Y-91310000D01*
X197426632Y-91193475D01*
X197633475Y-90986632D01*
X197795990Y-90743411D01*
X197907932Y-90473158D01*
X197965000Y-90186260D01*
X197965000Y-89893740D01*
X197964827Y-89892869D01*
X203695192Y-89892869D01*
X203695192Y-90266315D01*
X203768048Y-90632584D01*
X203910959Y-90977603D01*
X204118434Y-91288111D01*
X204382500Y-91552177D01*
X204693008Y-91759652D01*
X205038027Y-91902563D01*
X205404296Y-91975419D01*
X205777742Y-91975419D01*
X206144011Y-91902563D01*
X206489030Y-91759652D01*
X206799538Y-91552177D01*
X207063604Y-91288111D01*
X207271079Y-90977603D01*
X207413990Y-90632584D01*
X207486846Y-90266315D01*
X207486846Y-89892869D01*
X207413990Y-89526600D01*
X207271079Y-89181581D01*
X207063604Y-88871073D01*
X206799538Y-88607007D01*
X206489030Y-88399532D01*
X206144011Y-88256621D01*
X205777742Y-88183765D01*
X205404296Y-88183765D01*
X205038027Y-88256621D01*
X204693008Y-88399532D01*
X204382500Y-88607007D01*
X204118434Y-88871073D01*
X203910959Y-89181581D01*
X203768048Y-89526600D01*
X203695192Y-89892869D01*
X197964827Y-89892869D01*
X197907932Y-89606842D01*
X197795990Y-89336589D01*
X197633475Y-89093368D01*
X197426632Y-88886525D01*
X197252240Y-88770000D01*
X197426632Y-88653475D01*
X197633475Y-88446632D01*
X197795990Y-88203411D01*
X197907932Y-87933158D01*
X197965000Y-87646260D01*
X197965000Y-87353740D01*
X197907932Y-87066842D01*
X197795990Y-86796589D01*
X197633475Y-86553368D01*
X197426632Y-86346525D01*
X197252240Y-86230000D01*
X197426632Y-86113475D01*
X197633475Y-85906632D01*
X197795990Y-85663411D01*
X197907932Y-85393158D01*
X197965000Y-85106260D01*
X197965000Y-84813740D01*
X197907932Y-84526842D01*
X197795990Y-84256589D01*
X197633475Y-84013368D01*
X197426632Y-83806525D01*
X197252240Y-83690000D01*
X197426632Y-83573475D01*
X197633475Y-83366632D01*
X197795990Y-83123411D01*
X197907932Y-82853158D01*
X197965000Y-82566260D01*
X197965000Y-82273740D01*
X197907932Y-81986842D01*
X197795990Y-81716589D01*
X197633475Y-81473368D01*
X197426632Y-81266525D01*
X197252240Y-81150000D01*
X197426632Y-81033475D01*
X197633475Y-80826632D01*
X197795990Y-80583411D01*
X197907932Y-80313158D01*
X197965000Y-80026260D01*
X197965000Y-79733740D01*
X197907932Y-79446842D01*
X197795990Y-79176589D01*
X197633475Y-78933368D01*
X197426632Y-78726525D01*
X197252240Y-78610000D01*
X197426632Y-78493475D01*
X197633475Y-78286632D01*
X197795990Y-78043411D01*
X197907932Y-77773158D01*
X197965000Y-77486260D01*
X197965000Y-77193740D01*
X197907932Y-76906842D01*
X197795990Y-76636589D01*
X197639174Y-76401897D01*
X203811153Y-76401897D01*
X203811153Y-76775343D01*
X203884009Y-77141612D01*
X204026920Y-77486631D01*
X204234395Y-77797139D01*
X204498461Y-78061205D01*
X204808969Y-78268680D01*
X205153988Y-78411591D01*
X205520257Y-78484447D01*
X205893703Y-78484447D01*
X206259972Y-78411591D01*
X206604991Y-78268680D01*
X206915499Y-78061205D01*
X207179565Y-77797139D01*
X207387040Y-77486631D01*
X207529951Y-77141612D01*
X207602807Y-76775343D01*
X207602807Y-76401897D01*
X207529951Y-76035628D01*
X207387040Y-75690609D01*
X207179565Y-75380101D01*
X206915499Y-75116035D01*
X206604991Y-74908560D01*
X206259972Y-74765649D01*
X205893703Y-74692793D01*
X205520257Y-74692793D01*
X205153988Y-74765649D01*
X204808969Y-74908560D01*
X204498461Y-75116035D01*
X204234395Y-75380101D01*
X204026920Y-75690609D01*
X203884009Y-76035628D01*
X203811153Y-76401897D01*
X197639174Y-76401897D01*
X197633475Y-76393368D01*
X197426632Y-76186525D01*
X197244466Y-76064805D01*
X197361355Y-75995178D01*
X197577588Y-75800269D01*
X197751641Y-75566920D01*
X197876825Y-75304099D01*
X197921476Y-75156890D01*
X197800155Y-74927000D01*
X196607000Y-74927000D01*
X196607000Y-74947000D01*
X196353000Y-74947000D01*
X196353000Y-74927000D01*
X196333000Y-74927000D01*
X196333000Y-74673000D01*
X196353000Y-74673000D01*
X196353000Y-74653000D01*
X196607000Y-74653000D01*
X196607000Y-74673000D01*
X197800155Y-74673000D01*
X197921476Y-74443110D01*
X197876825Y-74295901D01*
X197751641Y-74033080D01*
X197577588Y-73799731D01*
X197361355Y-73604822D01*
X197244466Y-73535195D01*
X197426632Y-73413475D01*
X197633475Y-73206632D01*
X197795990Y-72963411D01*
X197907932Y-72693158D01*
X197965000Y-72406260D01*
X197965000Y-72113740D01*
X197907932Y-71826842D01*
X197795990Y-71556589D01*
X197633475Y-71313368D01*
X197426632Y-71106525D01*
X197252240Y-70990000D01*
X197426632Y-70873475D01*
X197633475Y-70666632D01*
X197795990Y-70423411D01*
X197907932Y-70153158D01*
X197965000Y-69866260D01*
X197965000Y-69573740D01*
X197907932Y-69286842D01*
X197795990Y-69016589D01*
X197633475Y-68773368D01*
X197426632Y-68566525D01*
X197183411Y-68404010D01*
X196913158Y-68292068D01*
X196626260Y-68235000D01*
X196333740Y-68235000D01*
X196046842Y-68292068D01*
X195776589Y-68404010D01*
X195533368Y-68566525D01*
X195326525Y-68773368D01*
X195164010Y-69016589D01*
X195052068Y-69286842D01*
X194995000Y-69573740D01*
X194995000Y-69866260D01*
X195038790Y-70086407D01*
X194172918Y-70952281D01*
X194017720Y-69723760D01*
X194014553Y-69707156D01*
X194000425Y-69633092D01*
X193688117Y-68416735D01*
X193661617Y-68335178D01*
X193659594Y-68328951D01*
X193197300Y-67161328D01*
X193157999Y-67077810D01*
X192553007Y-65977335D01*
X192526796Y-65936033D01*
X192503550Y-65899402D01*
X191765402Y-64883430D01*
X191706567Y-64812310D01*
X190846906Y-63896864D01*
X190818399Y-63870094D01*
X190779621Y-63833679D01*
X189812003Y-63033195D01*
X189737329Y-62978941D01*
X188677013Y-62306044D01*
X188596128Y-62261577D01*
X187459837Y-61726879D01*
X187398358Y-61702538D01*
X187374017Y-61692901D01*
X186179670Y-61304833D01*
X186090267Y-61281879D01*
X184856700Y-61046564D01*
X184765126Y-61034995D01*
X183524740Y-60956956D01*
X183501748Y-60954692D01*
X153429538Y-60954692D01*
X153418025Y-60955826D01*
X152814651Y-60974788D01*
X152780176Y-60978047D01*
X152745618Y-60980221D01*
X151499712Y-61137615D01*
X151499710Y-61137615D01*
X151409043Y-61154910D01*
X150192686Y-61467218D01*
X150146276Y-61482298D01*
X150104902Y-61495741D01*
X148937279Y-61958035D01*
X148863647Y-61992684D01*
X148853761Y-61997336D01*
X147753286Y-62602328D01*
X147723030Y-62621529D01*
X147675353Y-62651785D01*
X146659381Y-63389933D01*
X146588261Y-63448768D01*
X145672815Y-64308429D01*
X145609630Y-64375714D01*
X144809147Y-65343331D01*
X144809146Y-65343332D01*
X144754892Y-65418006D01*
X144081995Y-66478322D01*
X144057022Y-66523748D01*
X144037528Y-66559207D01*
X143502830Y-67695498D01*
X143487633Y-67733883D01*
X143468852Y-67781318D01*
X143080784Y-68975665D01*
X143057830Y-69065067D01*
X143057830Y-69065068D01*
X142822515Y-70298635D01*
X142810946Y-70390209D01*
X142732907Y-71630598D01*
X142730643Y-71653588D01*
X142730644Y-94906109D01*
X142731776Y-94917607D01*
X142750739Y-95520996D01*
X142753998Y-95555473D01*
X142756172Y-95590028D01*
X142913566Y-96835935D01*
X142913566Y-96835937D01*
X142930861Y-96926604D01*
X143243170Y-98142961D01*
X143271692Y-98230745D01*
X143733986Y-99398368D01*
X143754793Y-99442585D01*
X143773287Y-99481886D01*
X144378279Y-100582362D01*
X144427737Y-100660295D01*
X144427743Y-100660302D01*
X145165884Y-101676267D01*
X145192521Y-101708465D01*
X145224719Y-101747386D01*
X146084380Y-102662832D01*
X146151665Y-102726017D01*
X147119283Y-103526501D01*
X147193957Y-103580755D01*
X148254266Y-104253647D01*
X148254273Y-104253652D01*
X148335158Y-104298119D01*
X149471449Y-104832817D01*
X149557269Y-104866796D01*
X150751617Y-105254863D01*
X150841019Y-105277817D01*
X152074586Y-105513132D01*
X152166160Y-105524701D01*
X153406546Y-105602740D01*
X153429538Y-105605004D01*
X183501748Y-105605004D01*
X183513261Y-105603870D01*
X184116635Y-105584908D01*
X184151112Y-105581649D01*
X184185667Y-105579475D01*
X185431574Y-105422081D01*
X185431576Y-105422081D01*
X185522243Y-105404786D01*
X186738601Y-105092477D01*
X186767123Y-105083210D01*
X186826384Y-105063955D01*
X187994007Y-104601661D01*
X188044076Y-104578100D01*
X188077525Y-104562360D01*
X189178001Y-103957368D01*
X189255934Y-103907910D01*
X189255941Y-103907904D01*
X190271906Y-103169763D01*
X190304303Y-103142961D01*
X190343025Y-103110928D01*
X191258471Y-102251267D01*
X191281611Y-102226625D01*
X191321656Y-102183982D01*
X192122140Y-101216364D01*
X192176394Y-101141690D01*
X192849286Y-100081381D01*
X192849291Y-100081374D01*
X192893758Y-100000489D01*
X193428456Y-98864198D01*
X193436449Y-98844010D01*
X193462435Y-98778378D01*
X193550001Y-98508878D01*
X193550001Y-101663657D01*
X189293659Y-105920000D01*
X138136883Y-105920000D01*
X125179941Y-92963059D01*
X125235000Y-92686260D01*
X125235000Y-92393740D01*
X125177932Y-92106842D01*
X125065990Y-91836589D01*
X124903475Y-91593368D01*
X124696632Y-91386525D01*
X124522240Y-91270000D01*
X124696632Y-91153475D01*
X124903475Y-90946632D01*
X125065990Y-90703411D01*
X125177932Y-90433158D01*
X125235000Y-90146260D01*
X125235000Y-89853740D01*
X125177932Y-89566842D01*
X125065990Y-89296589D01*
X124903475Y-89053368D01*
X124696632Y-88846525D01*
X124522240Y-88730000D01*
X124696632Y-88613475D01*
X124903475Y-88406632D01*
X125065990Y-88163411D01*
X125177932Y-87893158D01*
X125235000Y-87606260D01*
X125235000Y-87313740D01*
X125177932Y-87026842D01*
X125065990Y-86756589D01*
X124903475Y-86513368D01*
X124696632Y-86306525D01*
X124522240Y-86190000D01*
X124696632Y-86073475D01*
X124903475Y-85866632D01*
X125065990Y-85623411D01*
X125177932Y-85353158D01*
X125235000Y-85066260D01*
X125235000Y-84773740D01*
X125201846Y-84607061D01*
X130265220Y-84607061D01*
X130265220Y-84810939D01*
X130304994Y-85010898D01*
X130383015Y-85199256D01*
X130496283Y-85368774D01*
X130640446Y-85512937D01*
X130809964Y-85626205D01*
X130998322Y-85704226D01*
X131198281Y-85744000D01*
X131402159Y-85744000D01*
X131602118Y-85704226D01*
X131790476Y-85626205D01*
X131959994Y-85512937D01*
X132104157Y-85368774D01*
X132217425Y-85199256D01*
X132295446Y-85010898D01*
X132335220Y-84810939D01*
X132335220Y-84607061D01*
X132295446Y-84407102D01*
X132217425Y-84218744D01*
X132104157Y-84049226D01*
X131959994Y-83905063D01*
X131790476Y-83791795D01*
X131602118Y-83713774D01*
X131402159Y-83674000D01*
X131198281Y-83674000D01*
X130998322Y-83713774D01*
X130809964Y-83791795D01*
X130640446Y-83905063D01*
X130496283Y-84049226D01*
X130383015Y-84218744D01*
X130304994Y-84407102D01*
X130265220Y-84607061D01*
X125201846Y-84607061D01*
X125177932Y-84486842D01*
X125065990Y-84216589D01*
X124903475Y-83973368D01*
X124696632Y-83766525D01*
X124522240Y-83650000D01*
X124696632Y-83533475D01*
X124903475Y-83326632D01*
X125065990Y-83083411D01*
X125177932Y-82813158D01*
X125235000Y-82526260D01*
X125235000Y-82233740D01*
X125177932Y-81946842D01*
X125065990Y-81676589D01*
X124903475Y-81433368D01*
X124696632Y-81226525D01*
X124522240Y-81110000D01*
X124696632Y-80993475D01*
X124903475Y-80786632D01*
X125065990Y-80543411D01*
X125177932Y-80273158D01*
X125235000Y-79986260D01*
X125235000Y-79693740D01*
X125177932Y-79406842D01*
X125065990Y-79136589D01*
X124903475Y-78893368D01*
X124696632Y-78686525D01*
X124522240Y-78570000D01*
X124696632Y-78453475D01*
X124903475Y-78246632D01*
X125065990Y-78003411D01*
X125177932Y-77733158D01*
X125235000Y-77446260D01*
X125235000Y-77153740D01*
X125177932Y-76866842D01*
X125065990Y-76596589D01*
X124903475Y-76353368D01*
X124696632Y-76146525D01*
X124522240Y-76030000D01*
X124696632Y-75913475D01*
X124903475Y-75706632D01*
X125065990Y-75463411D01*
X125177932Y-75193158D01*
X125235000Y-74906260D01*
X125235000Y-74613740D01*
X125177932Y-74326842D01*
X125065990Y-74056589D01*
X124903475Y-73813368D01*
X124696632Y-73606525D01*
X124514466Y-73484805D01*
X124631355Y-73415178D01*
X124847588Y-73220269D01*
X125021641Y-72986920D01*
X125146825Y-72724099D01*
X125191476Y-72576890D01*
X125070155Y-72347000D01*
X123960389Y-72347000D01*
X123970611Y-72151469D01*
X123962126Y-72093000D01*
X125070155Y-72093000D01*
X125191476Y-71863110D01*
X125146825Y-71715901D01*
X125021641Y-71453080D01*
X124847588Y-71219731D01*
X124631355Y-71024822D01*
X124514466Y-70955195D01*
X124696632Y-70833475D01*
X124903475Y-70626632D01*
X125065990Y-70383411D01*
X125177932Y-70113158D01*
X125235000Y-69826260D01*
X125235000Y-69533740D01*
X125177932Y-69246842D01*
X125065990Y-68976589D01*
X124903475Y-68733368D01*
X124869627Y-68699520D01*
X134320991Y-68699520D01*
X134326520Y-68755659D01*
X134326520Y-68755665D01*
X134343059Y-68923586D01*
X134408417Y-69139042D01*
X134514552Y-69337608D01*
X134657387Y-69511653D01*
X134701002Y-69547447D01*
X137505000Y-72351446D01*
X137505000Y-72366260D01*
X137562068Y-72653158D01*
X137674010Y-72923411D01*
X137836525Y-73166632D01*
X138043368Y-73373475D01*
X138217760Y-73490000D01*
X138043368Y-73606525D01*
X137836525Y-73813368D01*
X137674010Y-74056589D01*
X137562068Y-74326842D01*
X137505000Y-74613740D01*
X137505000Y-74906260D01*
X137562068Y-75193158D01*
X137674010Y-75463411D01*
X137836525Y-75706632D01*
X138043368Y-75913475D01*
X138217760Y-76030000D01*
X138043368Y-76146525D01*
X137836525Y-76353368D01*
X137674010Y-76596589D01*
X137562068Y-76866842D01*
X137505000Y-77153740D01*
X137505000Y-77446260D01*
X137562068Y-77733158D01*
X137674010Y-78003411D01*
X137836525Y-78246632D01*
X138043368Y-78453475D01*
X138217760Y-78570000D01*
X138043368Y-78686525D01*
X137836525Y-78893368D01*
X137674010Y-79136589D01*
X137562068Y-79406842D01*
X137505000Y-79693740D01*
X137505000Y-79986260D01*
X137562068Y-80273158D01*
X137674010Y-80543411D01*
X137836525Y-80786632D01*
X138043368Y-80993475D01*
X138217760Y-81110000D01*
X138043368Y-81226525D01*
X137836525Y-81433368D01*
X137674010Y-81676589D01*
X137562068Y-81946842D01*
X137505000Y-82233740D01*
X137505000Y-82526260D01*
X137562068Y-82813158D01*
X137674010Y-83083411D01*
X137836525Y-83326632D01*
X138043368Y-83533475D01*
X138217760Y-83650000D01*
X138043368Y-83766525D01*
X137836525Y-83973368D01*
X137674010Y-84216589D01*
X137562068Y-84486842D01*
X137505000Y-84773740D01*
X137505000Y-85066260D01*
X137562068Y-85353158D01*
X137674010Y-85623411D01*
X137836525Y-85866632D01*
X138043368Y-86073475D01*
X138217760Y-86190000D01*
X138043368Y-86306525D01*
X137836525Y-86513368D01*
X137674010Y-86756589D01*
X137562068Y-87026842D01*
X137505000Y-87313740D01*
X137505000Y-87606260D01*
X137562068Y-87893158D01*
X137674010Y-88163411D01*
X137836525Y-88406632D01*
X138043368Y-88613475D01*
X138217760Y-88730000D01*
X138043368Y-88846525D01*
X137836525Y-89053368D01*
X137674010Y-89296589D01*
X137562068Y-89566842D01*
X137505000Y-89853740D01*
X137505000Y-90146260D01*
X137562068Y-90433158D01*
X137674010Y-90703411D01*
X137836525Y-90946632D01*
X138043368Y-91153475D01*
X138217760Y-91270000D01*
X138043368Y-91386525D01*
X137836525Y-91593368D01*
X137674010Y-91836589D01*
X137562068Y-92106842D01*
X137505000Y-92393740D01*
X137505000Y-92686260D01*
X137562068Y-92973158D01*
X137674010Y-93243411D01*
X137836525Y-93486632D01*
X138043368Y-93693475D01*
X138217760Y-93810000D01*
X138043368Y-93926525D01*
X137836525Y-94133368D01*
X137674010Y-94376589D01*
X137562068Y-94646842D01*
X137505000Y-94933740D01*
X137505000Y-95226260D01*
X137562068Y-95513158D01*
X137674010Y-95783411D01*
X137836525Y-96026632D01*
X138043368Y-96233475D01*
X138217760Y-96350000D01*
X138043368Y-96466525D01*
X137836525Y-96673368D01*
X137674010Y-96916589D01*
X137562068Y-97186842D01*
X137505000Y-97473740D01*
X137505000Y-97766260D01*
X137562068Y-98053158D01*
X137674010Y-98323411D01*
X137836525Y-98566632D01*
X138043368Y-98773475D01*
X138217760Y-98890000D01*
X138043368Y-99006525D01*
X137836525Y-99213368D01*
X137674010Y-99456589D01*
X137562068Y-99726842D01*
X137505000Y-100013740D01*
X137505000Y-100306260D01*
X137562068Y-100593158D01*
X137674010Y-100863411D01*
X137836525Y-101106632D01*
X138043368Y-101313475D01*
X138286589Y-101475990D01*
X138556842Y-101587932D01*
X138843740Y-101645000D01*
X139136260Y-101645000D01*
X139423158Y-101587932D01*
X139625000Y-101504327D01*
X139826842Y-101587932D01*
X140113740Y-101645000D01*
X140406260Y-101645000D01*
X140693158Y-101587932D01*
X140963411Y-101475990D01*
X141206632Y-101313475D01*
X141413475Y-101106632D01*
X141575990Y-100863411D01*
X141687932Y-100593158D01*
X141745000Y-100306260D01*
X141745000Y-100013740D01*
X141687932Y-99726842D01*
X141575990Y-99456589D01*
X141413475Y-99213368D01*
X141206632Y-99006525D01*
X141032240Y-98890000D01*
X141206632Y-98773475D01*
X141413475Y-98566632D01*
X141575990Y-98323411D01*
X141687932Y-98053158D01*
X141745000Y-97766260D01*
X141745000Y-97473740D01*
X141687932Y-97186842D01*
X141575990Y-96916589D01*
X141413475Y-96673368D01*
X141206632Y-96466525D01*
X141032240Y-96350000D01*
X141206632Y-96233475D01*
X141413475Y-96026632D01*
X141575990Y-95783411D01*
X141687932Y-95513158D01*
X141745000Y-95226260D01*
X141745000Y-94933740D01*
X141687932Y-94646842D01*
X141575990Y-94376589D01*
X141413475Y-94133368D01*
X141206632Y-93926525D01*
X141032240Y-93810000D01*
X141206632Y-93693475D01*
X141413475Y-93486632D01*
X141575990Y-93243411D01*
X141687932Y-92973158D01*
X141745000Y-92686260D01*
X141745000Y-92393740D01*
X141687932Y-92106842D01*
X141575990Y-91836589D01*
X141413475Y-91593368D01*
X141206632Y-91386525D01*
X141032240Y-91270000D01*
X141206632Y-91153475D01*
X141413475Y-90946632D01*
X141575990Y-90703411D01*
X141687932Y-90433158D01*
X141745000Y-90146260D01*
X141745000Y-89853740D01*
X141687932Y-89566842D01*
X141575990Y-89296589D01*
X141413475Y-89053368D01*
X141206632Y-88846525D01*
X141032240Y-88730000D01*
X141206632Y-88613475D01*
X141413475Y-88406632D01*
X141575990Y-88163411D01*
X141687932Y-87893158D01*
X141745000Y-87606260D01*
X141745000Y-87313740D01*
X141687932Y-87026842D01*
X141575990Y-86756589D01*
X141413475Y-86513368D01*
X141206632Y-86306525D01*
X141032240Y-86190000D01*
X141206632Y-86073475D01*
X141413475Y-85866632D01*
X141575990Y-85623411D01*
X141687932Y-85353158D01*
X141745000Y-85066260D01*
X141745000Y-84773740D01*
X141687932Y-84486842D01*
X141575990Y-84216589D01*
X141413475Y-83973368D01*
X141206632Y-83766525D01*
X141032240Y-83650000D01*
X141206632Y-83533475D01*
X141413475Y-83326632D01*
X141575990Y-83083411D01*
X141687932Y-82813158D01*
X141745000Y-82526260D01*
X141745000Y-82233740D01*
X141687932Y-81946842D01*
X141575990Y-81676589D01*
X141413475Y-81433368D01*
X141206632Y-81226525D01*
X141032240Y-81110000D01*
X141206632Y-80993475D01*
X141413475Y-80786632D01*
X141575990Y-80543411D01*
X141687932Y-80273158D01*
X141745000Y-79986260D01*
X141745000Y-79693740D01*
X141687932Y-79406842D01*
X141575990Y-79136589D01*
X141413475Y-78893368D01*
X141206632Y-78686525D01*
X141032240Y-78570000D01*
X141206632Y-78453475D01*
X141413475Y-78246632D01*
X141575990Y-78003411D01*
X141687932Y-77733158D01*
X141745000Y-77446260D01*
X141745000Y-77153740D01*
X141687932Y-76866842D01*
X141575990Y-76596589D01*
X141413475Y-76353368D01*
X141206632Y-76146525D01*
X141032240Y-76030000D01*
X141206632Y-75913475D01*
X141413475Y-75706632D01*
X141575990Y-75463411D01*
X141687932Y-75193158D01*
X141745000Y-74906260D01*
X141745000Y-74613740D01*
X141687932Y-74326842D01*
X141575990Y-74056589D01*
X141413475Y-73813368D01*
X141206632Y-73606525D01*
X141032240Y-73490000D01*
X141206632Y-73373475D01*
X141413475Y-73166632D01*
X141575990Y-72923411D01*
X141687932Y-72653158D01*
X141745000Y-72366260D01*
X141745000Y-72073740D01*
X141687932Y-71786842D01*
X141575990Y-71516589D01*
X141413475Y-71273368D01*
X141206632Y-71066525D01*
X141032240Y-70950000D01*
X141206632Y-70833475D01*
X141413475Y-70626632D01*
X141575990Y-70383411D01*
X141687932Y-70113158D01*
X141745000Y-69826260D01*
X141745000Y-69533740D01*
X141687932Y-69246842D01*
X141575990Y-68976589D01*
X141413475Y-68733368D01*
X141206632Y-68526525D01*
X141033271Y-68410689D01*
X141108792Y-68168397D01*
X140424985Y-67484590D01*
X140310156Y-67267002D01*
X140475000Y-67267002D01*
X140475000Y-67175395D01*
X141288397Y-67988792D01*
X141537472Y-67911157D01*
X141663371Y-67647117D01*
X141735339Y-67363589D01*
X141750611Y-67071469D01*
X141708599Y-66781981D01*
X141610919Y-66506253D01*
X141537472Y-66368843D01*
X141288397Y-66291208D01*
X140475000Y-67104605D01*
X140475000Y-67012998D01*
X140310156Y-67012998D01*
X140424985Y-66795410D01*
X141108792Y-66111603D01*
X141033271Y-65869311D01*
X141206632Y-65753475D01*
X141413475Y-65546632D01*
X141575990Y-65303411D01*
X141687932Y-65033158D01*
X141745000Y-64746260D01*
X141745000Y-64453740D01*
X141687932Y-64166842D01*
X141575990Y-63896589D01*
X141413475Y-63653368D01*
X141206632Y-63446525D01*
X140963411Y-63284010D01*
X140693158Y-63172068D01*
X140406260Y-63115000D01*
X140113740Y-63115000D01*
X139826842Y-63172068D01*
X139625000Y-63255673D01*
X139423158Y-63172068D01*
X139136260Y-63115000D01*
X138843740Y-63115000D01*
X138556842Y-63172068D01*
X138286589Y-63284010D01*
X138043368Y-63446525D01*
X137836525Y-63653368D01*
X137674010Y-63896589D01*
X137562068Y-64166842D01*
X137505000Y-64453740D01*
X137505000Y-64746260D01*
X137562068Y-65033158D01*
X137674010Y-65303411D01*
X137836525Y-65546632D01*
X138043368Y-65753475D01*
X138225534Y-65875195D01*
X138108645Y-65944822D01*
X137892412Y-66139731D01*
X137718359Y-66373080D01*
X137593175Y-66635901D01*
X137548524Y-66783110D01*
X137669845Y-67013000D01*
X138779611Y-67013000D01*
X138769389Y-67208531D01*
X138777874Y-67267000D01*
X137669845Y-67267000D01*
X137548524Y-67496890D01*
X137593175Y-67644099D01*
X137718359Y-67906920D01*
X137892412Y-68140269D01*
X138108645Y-68335178D01*
X138225534Y-68404805D01*
X138043368Y-68526525D01*
X137836525Y-68733368D01*
X137674010Y-68976589D01*
X137582928Y-69196482D01*
X136612520Y-68226075D01*
X136612520Y-54584334D01*
X136595981Y-54416413D01*
X136530623Y-54200957D01*
X136424488Y-54002391D01*
X136281653Y-53828347D01*
X136107609Y-53685512D01*
X135909043Y-53579377D01*
X135693587Y-53514019D01*
X135469520Y-53491950D01*
X135245454Y-53514019D01*
X135029998Y-53579377D01*
X134831432Y-53685512D01*
X134657388Y-53828347D01*
X134514553Y-54002391D01*
X134408418Y-54200957D01*
X134343060Y-54416413D01*
X134326521Y-54584334D01*
X134326520Y-68643381D01*
X134320991Y-68699520D01*
X124869627Y-68699520D01*
X124696632Y-68526525D01*
X124522240Y-68410000D01*
X124696632Y-68293475D01*
X124903475Y-68086632D01*
X125065990Y-67843411D01*
X125177932Y-67573158D01*
X125235000Y-67286260D01*
X125235000Y-66993740D01*
X125177932Y-66706842D01*
X125065990Y-66436589D01*
X124903475Y-66193368D01*
X124696632Y-65986525D01*
X124522240Y-65870000D01*
X124696632Y-65753475D01*
X124903475Y-65546632D01*
X125065990Y-65303411D01*
X125177932Y-65033158D01*
X125235000Y-64746260D01*
X125235000Y-64453740D01*
X125177932Y-64166842D01*
X125065990Y-63896589D01*
X124903475Y-63653368D01*
X124696632Y-63446525D01*
X124453411Y-63284010D01*
X124183158Y-63172068D01*
X123896260Y-63115000D01*
X123603740Y-63115000D01*
X123316842Y-63172068D01*
X123115000Y-63255673D01*
X122913158Y-63172068D01*
X122626260Y-63115000D01*
X122333740Y-63115000D01*
X122046842Y-63172068D01*
X121776589Y-63284010D01*
X121533368Y-63446525D01*
X121326525Y-63653368D01*
X121164010Y-63896589D01*
X121052068Y-64166842D01*
X120995000Y-64453740D01*
X120995000Y-64746260D01*
X121052068Y-65033158D01*
X121164010Y-65303411D01*
X121326525Y-65546632D01*
X121533368Y-65753475D01*
X121707760Y-65870000D01*
X121533368Y-65986525D01*
X121326525Y-66193368D01*
X121164010Y-66436589D01*
X121072446Y-66657644D01*
X113593804Y-59179003D01*
X113570001Y-59149999D01*
X113454276Y-59055026D01*
X113322247Y-58984454D01*
X113178986Y-58940997D01*
X113067333Y-58930000D01*
X113067322Y-58930000D01*
X113030000Y-58926324D01*
X112992678Y-58930000D01*
X101637322Y-58930000D01*
X101600000Y-58926324D01*
X101562677Y-58930000D01*
X101562667Y-58930000D01*
X101451014Y-58940997D01*
X101307753Y-58984454D01*
X101175723Y-59055026D01*
X101092083Y-59123668D01*
X101059999Y-59149999D01*
X101036201Y-59178997D01*
X96148998Y-64066201D01*
X96120000Y-64089999D01*
X96096202Y-64118997D01*
X96096201Y-64118998D01*
X96025026Y-64205724D01*
X95954454Y-64337754D01*
X95942127Y-64378393D01*
X95910998Y-64481014D01*
X95906935Y-64522269D01*
X95896324Y-64630000D01*
X95900001Y-64667333D01*
X95900000Y-89666009D01*
X95757990Y-89760897D01*
X95560897Y-89957990D01*
X95406043Y-90189746D01*
X95299377Y-90447260D01*
X95245000Y-90720635D01*
X94723000Y-90720635D01*
X94723000Y-56673445D01*
X94758517Y-56637928D01*
X94802133Y-56602133D01*
X94944968Y-56428089D01*
X95051103Y-56229523D01*
X95116461Y-56014067D01*
X95133000Y-55846146D01*
X95133000Y-55846139D01*
X95138529Y-55790000D01*
X95133000Y-55733861D01*
X95133000Y-54486139D01*
X95138529Y-54430000D01*
X95133000Y-54373861D01*
X95133000Y-54373854D01*
X95116461Y-54205933D01*
X95115129Y-54201541D01*
X95051103Y-53990476D01*
X94985492Y-53867727D01*
X94944968Y-53791911D01*
X94802133Y-53617867D01*
X94758524Y-53582078D01*
X94616446Y-53440000D01*
X102776565Y-53440000D01*
X102780001Y-53474887D01*
X102780000Y-57775123D01*
X102776565Y-57810000D01*
X102790273Y-57949184D01*
X102830872Y-58083020D01*
X102896800Y-58206363D01*
X102985525Y-58314475D01*
X103093637Y-58403200D01*
X103216980Y-58469128D01*
X103350816Y-58509727D01*
X103490000Y-58523435D01*
X103524877Y-58520000D01*
X107475123Y-58520000D01*
X107510000Y-58523435D01*
X107544877Y-58520000D01*
X107649184Y-58509727D01*
X107783020Y-58469128D01*
X107906363Y-58403200D01*
X108014475Y-58314475D01*
X108103200Y-58206363D01*
X108169128Y-58083020D01*
X108209727Y-57949184D01*
X108223435Y-57810000D01*
X108220000Y-57775123D01*
X108220000Y-53474877D01*
X108223435Y-53440000D01*
X108209727Y-53300816D01*
X108169128Y-53166980D01*
X108103200Y-53043637D01*
X108014475Y-52935525D01*
X107906363Y-52846800D01*
X107783020Y-52780872D01*
X107649184Y-52740273D01*
X107544877Y-52730000D01*
X107510000Y-52726565D01*
X107475123Y-52730000D01*
X103524877Y-52730000D01*
X103490000Y-52726565D01*
X103455123Y-52730000D01*
X103350816Y-52740273D01*
X103216980Y-52780872D01*
X103093637Y-52846800D01*
X102985525Y-52935525D01*
X102896800Y-53043637D01*
X102830872Y-53166980D01*
X102790273Y-53300816D01*
X102776565Y-53440000D01*
X94616446Y-53440000D01*
X93827927Y-52651482D01*
X93792133Y-52607867D01*
X93618089Y-52465032D01*
X93419523Y-52358897D01*
X93204067Y-52293539D01*
X93036146Y-52277000D01*
X93036139Y-52277000D01*
X92980000Y-52271471D01*
X92923861Y-52277000D01*
X92247318Y-52277000D01*
X92220518Y-52259093D01*
X91982113Y-52160342D01*
X91729024Y-52110000D01*
X91470976Y-52110000D01*
X91217887Y-52160342D01*
X90979482Y-52259093D01*
X90764923Y-52402456D01*
X90582456Y-52584923D01*
X90439093Y-52799482D01*
X90340342Y-53037887D01*
X90290000Y-53290976D01*
X90290000Y-53549024D01*
X90340342Y-53802113D01*
X90439093Y-54040518D01*
X90560697Y-54222513D01*
X90473815Y-54293815D01*
X90394463Y-54390506D01*
X90335498Y-54500820D01*
X90299188Y-54620518D01*
X90286928Y-54745000D01*
X76215000Y-54745000D01*
X76215000Y-46072491D01*
X95084894Y-46072491D01*
X95084894Y-46419667D01*
X95152625Y-46760173D01*
X95285483Y-47080923D01*
X95478364Y-47369590D01*
X95723855Y-47615081D01*
X96012522Y-47807962D01*
X96333272Y-47940820D01*
X96673778Y-48008551D01*
X97020954Y-48008551D01*
X97361460Y-47940820D01*
X97682210Y-47807962D01*
X97970877Y-47615081D01*
X98216368Y-47369590D01*
X98409249Y-47080923D01*
X98542107Y-46760173D01*
X98609838Y-46419667D01*
X98609838Y-46072491D01*
X113084894Y-46072491D01*
X113084894Y-46419667D01*
X113152625Y-46760173D01*
X113285483Y-47080923D01*
X113478364Y-47369590D01*
X113723855Y-47615081D01*
X114012522Y-47807962D01*
X114333272Y-47940820D01*
X114673778Y-48008551D01*
X115020954Y-48008551D01*
X115361460Y-47940820D01*
X115682210Y-47807962D01*
X115970877Y-47615081D01*
X116216368Y-47369590D01*
X116409249Y-47080923D01*
X116542107Y-46760173D01*
X116609838Y-46419667D01*
X116609838Y-46072491D01*
X116542107Y-45731985D01*
X116409249Y-45411235D01*
X116216368Y-45122568D01*
X115970877Y-44877077D01*
X115682210Y-44684196D01*
X115361460Y-44551338D01*
X115020954Y-44483607D01*
X114673778Y-44483607D01*
X114333272Y-44551338D01*
X114012522Y-44684196D01*
X113723855Y-44877077D01*
X113478364Y-45122568D01*
X113285483Y-45411235D01*
X113152625Y-45731985D01*
X113084894Y-46072491D01*
X98609838Y-46072491D01*
X98542107Y-45731985D01*
X98409249Y-45411235D01*
X98216368Y-45122568D01*
X97970877Y-44877077D01*
X97682210Y-44684196D01*
X97361460Y-44551338D01*
X97020954Y-44483607D01*
X96673778Y-44483607D01*
X96333272Y-44551338D01*
X96012522Y-44684196D01*
X95723855Y-44877077D01*
X95478364Y-45122568D01*
X95285483Y-45411235D01*
X95152625Y-45731985D01*
X95084894Y-46072491D01*
X76215000Y-46072491D01*
X76215000Y-45898972D01*
X99502404Y-35079692D01*
X110999194Y-35079692D01*
X137925804Y-46614890D01*
X138092780Y-47231630D01*
X138106080Y-47270811D01*
X138118852Y-47310122D01*
X138581146Y-48477745D01*
X138601953Y-48521962D01*
X138620447Y-48561263D01*
X139225439Y-49661739D01*
X139274897Y-49739672D01*
X139274903Y-49739679D01*
X140013044Y-50755644D01*
X140039681Y-50787842D01*
X140071879Y-50826763D01*
X140931540Y-51742209D01*
X140998825Y-51805394D01*
X141966443Y-52605878D01*
X142041117Y-52660132D01*
X143101426Y-53333024D01*
X143101433Y-53333029D01*
X143182318Y-53377496D01*
X144318609Y-53912194D01*
X144404429Y-53946173D01*
X145598777Y-54334240D01*
X145688179Y-54357194D01*
X146921746Y-54592509D01*
X147013320Y-54604078D01*
X148253706Y-54682117D01*
X148276698Y-54684381D01*
X188234078Y-54684381D01*
X188245591Y-54683247D01*
X188848965Y-54664285D01*
X188883442Y-54661026D01*
X188917997Y-54658852D01*
X190163904Y-54501458D01*
X190163906Y-54501458D01*
X190254573Y-54484163D01*
X191470931Y-54171854D01*
X191499453Y-54162587D01*
X191558714Y-54143332D01*
X192726337Y-53681038D01*
X192776406Y-53657477D01*
X192809855Y-53641737D01*
X193910331Y-53036745D01*
X193988264Y-52987287D01*
X193988271Y-52987281D01*
X195004236Y-52249140D01*
X195036633Y-52222338D01*
X195075355Y-52190305D01*
X195990801Y-51330644D01*
X196013941Y-51306002D01*
X196053986Y-51263359D01*
X196854470Y-50295741D01*
X196908724Y-50221067D01*
X197581616Y-49160758D01*
X197581621Y-49160751D01*
X197626088Y-49079866D01*
X198160786Y-47943575D01*
X198163546Y-47936603D01*
X198194765Y-47857755D01*
X198582832Y-46663407D01*
X198605786Y-46574005D01*
X198841101Y-45340438D01*
X198852670Y-45248864D01*
X198931523Y-43995532D01*
X199007473Y-42788347D01*
X199225456Y-41645636D01*
X199584945Y-40539241D01*
X200080265Y-39486633D01*
X200703604Y-38504407D01*
X201445139Y-37608046D01*
X202293168Y-36811694D01*
X203234319Y-36127908D01*
X204253747Y-35567473D01*
X205335378Y-35139225D01*
X206462158Y-34849916D01*
X207627798Y-34702662D01*
X208209509Y-34684381D01*
X220674869Y-34684381D01*
X221859007Y-34758881D01*
G37*
X221859007Y-34758881D02*
X223001718Y-34976864D01*
X224108113Y-35336353D01*
X225160721Y-35831673D01*
X226142947Y-36455012D01*
X227039308Y-37196547D01*
X227835660Y-38044576D01*
X228519446Y-38985727D01*
X229079881Y-40005155D01*
X229508129Y-41086786D01*
X229797438Y-42213566D01*
X229944692Y-43379206D01*
X229962973Y-43960918D01*
X229962974Y-45609692D01*
X218234078Y-45609692D01*
X218197973Y-45606136D01*
X218161868Y-45609692D01*
X218053888Y-45620327D01*
X217915340Y-45662355D01*
X217787653Y-45730605D01*
X217675735Y-45822454D01*
X217583886Y-45934372D01*
X217515636Y-46062059D01*
X217473608Y-46200607D01*
X217459417Y-46344692D01*
X217462973Y-46380797D01*
X217462973Y-46957508D01*
X217283587Y-46883204D01*
X216890430Y-46805000D01*
X216489570Y-46805000D01*
X216096413Y-46883204D01*
X215726066Y-47036607D01*
X215392763Y-47259313D01*
X215109313Y-47542763D01*
X214886607Y-47876066D01*
X214733204Y-48246413D01*
X214655000Y-48639570D01*
X214655000Y-49040430D01*
X214733204Y-49433587D01*
X214886607Y-49803934D01*
X215109313Y-50137237D01*
X215392763Y-50420687D01*
X215726066Y-50643393D01*
X216096413Y-50796796D01*
X216489570Y-50875000D01*
X216890430Y-50875000D01*
X217283587Y-50796796D01*
X217462973Y-50722492D01*
X217462974Y-61309394D01*
X217397498Y-61265645D01*
X217076748Y-61132787D01*
X216736242Y-61065056D01*
X216389066Y-61065056D01*
X216048560Y-61132787D01*
X215727810Y-61265645D01*
X215439143Y-61458526D01*
X215193652Y-61704017D01*
X215000771Y-61992684D01*
X214867913Y-62313434D01*
X214800182Y-62653940D01*
X214800182Y-63001116D01*
X214867913Y-63341622D01*
X215000771Y-63662372D01*
X215193652Y-63951039D01*
X215439143Y-64196530D01*
X215727810Y-64389411D01*
X216048560Y-64522269D01*
X216389066Y-64590000D01*
X216736242Y-64590000D01*
X217076748Y-64522269D01*
X217397498Y-64389411D01*
X217462974Y-64345662D01*
X217462974Y-66405640D01*
X217373100Y-66345588D01*
X217052350Y-66212730D01*
X216711844Y-66144999D01*
X216364668Y-66144999D01*
X216024162Y-66212730D01*
X215703412Y-66345588D01*
X215414745Y-66538469D01*
X215169254Y-66783960D01*
X214976373Y-67072627D01*
X214843515Y-67393377D01*
X214775784Y-67733883D01*
X214775784Y-68081059D01*
X214843515Y-68421565D01*
X214976373Y-68742315D01*
X215169254Y-69030982D01*
X215414745Y-69276473D01*
X215487371Y-69325000D01*
X213646105Y-69325000D01*
X213610000Y-69321444D01*
X213573895Y-69325000D01*
X213465915Y-69335635D01*
X213327367Y-69377663D01*
X213199680Y-69445913D01*
X213087762Y-69537762D01*
X212995913Y-69649680D01*
X212927663Y-69777367D01*
X212885635Y-69915915D01*
X212871444Y-70060000D01*
X212875000Y-70096105D01*
X212875001Y-105308577D01*
X212871444Y-105344692D01*
X212885635Y-105488777D01*
X212927663Y-105627325D01*
X212995913Y-105755012D01*
X213087762Y-105866930D01*
X213199680Y-105958779D01*
X213327367Y-106027029D01*
X213465915Y-106069057D01*
X213573895Y-106079692D01*
X213610000Y-106083248D01*
X213646105Y-106079692D01*
X217462974Y-106079692D01*
X217462973Y-116807508D01*
X217283587Y-116733204D01*
X216890430Y-116655000D01*
X216489570Y-116655000D01*
X216096413Y-116733204D01*
X215726066Y-116886607D01*
X215392763Y-117109313D01*
X215182881Y-117319195D01*
X215155029Y-117337805D01*
X214909538Y-117583296D01*
X214716657Y-117871963D01*
X214583799Y-118192713D01*
X214516068Y-118533219D01*
X214516068Y-118880395D01*
X214583799Y-119220901D01*
X214716657Y-119541651D01*
X214909538Y-119830318D01*
X215155029Y-120075809D01*
X215284183Y-120162107D01*
X215392763Y-120270687D01*
X215726066Y-120493393D01*
X216096413Y-120646796D01*
X216489570Y-120725000D01*
X216890430Y-120725000D01*
X217283587Y-120646796D01*
X217494981Y-120559234D01*
X217515636Y-120627325D01*
X217583886Y-120755012D01*
X217675735Y-120866930D01*
X217773461Y-120947132D01*
X217787653Y-120958779D01*
X217915340Y-121027029D01*
X218053888Y-121069057D01*
X218197973Y-121083248D01*
X218234078Y-121079692D01*
X229962974Y-121079692D01*
X229962973Y-122716884D01*
X229888472Y-123901038D01*
X229670488Y-125043756D01*
X229311002Y-126150138D01*
X228815680Y-127202751D01*
X228192338Y-128184980D01*
X227450807Y-129081338D01*
X226602781Y-129877687D01*
X225661624Y-130561477D01*
X224642204Y-131121909D01*
X223560568Y-131550159D01*
X222433783Y-131839468D01*
X221268148Y-131986722D01*
X220686437Y-132005003D01*
X208221061Y-132005003D01*
X207036939Y-131930504D01*
X205894221Y-131712520D01*
X204787831Y-131353031D01*
X203735225Y-130857712D01*
X202752996Y-130234370D01*
X201856638Y-129492838D01*
X201060290Y-128644813D01*
X200376502Y-127703662D01*
X199816066Y-126684233D01*
X199387818Y-125602600D01*
X199098508Y-124475814D01*
X198951254Y-123310179D01*
X198932610Y-122716917D01*
X198912877Y-122089012D01*
X198909618Y-122054537D01*
X198907444Y-122019979D01*
X198750050Y-120774072D01*
X198746414Y-120755011D01*
X198732755Y-120683404D01*
X198420447Y-119467047D01*
X198403419Y-119414641D01*
X198391924Y-119379263D01*
X197929630Y-118211640D01*
X197890329Y-118128122D01*
X197285337Y-117027647D01*
X197243342Y-116961473D01*
X197235880Y-116949714D01*
X196497732Y-115933742D01*
X196438897Y-115862622D01*
X195579236Y-114947176D01*
X195550729Y-114920406D01*
X195511951Y-114883991D01*
X194544333Y-114083507D01*
X194469659Y-114029253D01*
X193409343Y-113356356D01*
X193328458Y-113311889D01*
X192192167Y-112777191D01*
X192122514Y-112749614D01*
X192106347Y-112743213D01*
X190912000Y-112355145D01*
X190822597Y-112332191D01*
X189589030Y-112096876D01*
X189587083Y-112096630D01*
X189497456Y-112085307D01*
X188257070Y-112007268D01*
X188234078Y-112005004D01*
X148276698Y-112005004D01*
X148258471Y-112006799D01*
X147282740Y-112055389D01*
X147241635Y-112060037D01*
X147200495Y-112064144D01*
X145961198Y-112267126D01*
X145871226Y-112287735D01*
X144667141Y-112644442D01*
X144580461Y-112676165D01*
X143430578Y-113180971D01*
X143367192Y-113213690D01*
X143348559Y-113223308D01*
X142271012Y-113868252D01*
X142247227Y-113884600D01*
X142194944Y-113920535D01*
X141206728Y-114695446D01*
X141137813Y-114756850D01*
X140254511Y-115649507D01*
X140193836Y-115719065D01*
X139429378Y-116715389D01*
X139388278Y-116776558D01*
X139377900Y-116792003D01*
X138744342Y-117876284D01*
X138702871Y-117958745D01*
X138210206Y-119113882D01*
X138197553Y-119149618D01*
X138179398Y-119200891D01*
X137931238Y-120072167D01*
X110999194Y-131609692D01*
X99502404Y-131609692D01*
X76215000Y-120790412D01*
X76215000Y-119785159D01*
X95084894Y-119785159D01*
X95084894Y-120132335D01*
X95152625Y-120472841D01*
X95285483Y-120793591D01*
X95478364Y-121082258D01*
X95723855Y-121327749D01*
X96012522Y-121520630D01*
X96333272Y-121653488D01*
X96673778Y-121721219D01*
X97020954Y-121721219D01*
X97361460Y-121653488D01*
X97682210Y-121520630D01*
X97970877Y-121327749D01*
X98216368Y-121082258D01*
X98409249Y-120793591D01*
X98542107Y-120472841D01*
X98609838Y-120132335D01*
X98609838Y-119785159D01*
X113084894Y-119785159D01*
X113084894Y-120132335D01*
X113152625Y-120472841D01*
X113285483Y-120793591D01*
X113478364Y-121082258D01*
X113723855Y-121327749D01*
X114012522Y-121520630D01*
X114333272Y-121653488D01*
X114673778Y-121721219D01*
X115020954Y-121721219D01*
X115361460Y-121653488D01*
X115682210Y-121520630D01*
X115970877Y-121327749D01*
X116216368Y-121082258D01*
X116409249Y-120793591D01*
X116542107Y-120472841D01*
X116609838Y-120132335D01*
X116609838Y-119785159D01*
X116542107Y-119444653D01*
X116409249Y-119123903D01*
X116216368Y-118835236D01*
X115970877Y-118589745D01*
X115682210Y-118396864D01*
X115361460Y-118264006D01*
X115020954Y-118196275D01*
X114673778Y-118196275D01*
X114333272Y-118264006D01*
X114012522Y-118396864D01*
X113723855Y-118589745D01*
X113478364Y-118835236D01*
X113285483Y-119123903D01*
X113152625Y-119444653D01*
X113084894Y-119785159D01*
X98609838Y-119785159D01*
X98542107Y-119444653D01*
X98409249Y-119123903D01*
X98216368Y-118835236D01*
X97970877Y-118589745D01*
X97682210Y-118396864D01*
X97361460Y-118264006D01*
X97020954Y-118196275D01*
X96673778Y-118196275D01*
X96333272Y-118264006D01*
X96012522Y-118396864D01*
X95723855Y-118589745D01*
X95478364Y-118835236D01*
X95285483Y-119123903D01*
X95152625Y-119444653D01*
X95084894Y-119785159D01*
X76215000Y-119785159D01*
X76215000Y-111825000D01*
X90436928Y-111825000D01*
X90436928Y-113175000D01*
X90449188Y-113299482D01*
X90485498Y-113419180D01*
X90544463Y-113529494D01*
X90623815Y-113626185D01*
X90720506Y-113705537D01*
X90830820Y-113764502D01*
X90950518Y-113800812D01*
X91075000Y-113813072D01*
X92425000Y-113813072D01*
X92549482Y-113800812D01*
X92669180Y-113764502D01*
X92779494Y-113705537D01*
X92876185Y-113626185D01*
X92955537Y-113529494D01*
X93014502Y-113419180D01*
X93050812Y-113299482D01*
X93063072Y-113175000D01*
X93063072Y-111825000D01*
X93050812Y-111700518D01*
X93014502Y-111580820D01*
X92955537Y-111470506D01*
X92876185Y-111373815D01*
X92789303Y-111302513D01*
X92910907Y-111120518D01*
X93009658Y-110882113D01*
X93060000Y-110629024D01*
X93060000Y-110370976D01*
X93009658Y-110117887D01*
X92910907Y-109879482D01*
X92767544Y-109664923D01*
X92585077Y-109482456D01*
X92370518Y-109339093D01*
X92155430Y-109250000D01*
X102786565Y-109250000D01*
X102790001Y-109284887D01*
X102790000Y-113585123D01*
X102786565Y-113620000D01*
X102800273Y-113759184D01*
X102840872Y-113893020D01*
X102906800Y-114016363D01*
X102995525Y-114124475D01*
X103100435Y-114210572D01*
X103103637Y-114213200D01*
X103226980Y-114279128D01*
X103360816Y-114319727D01*
X103500000Y-114333435D01*
X103534877Y-114330000D01*
X107485123Y-114330000D01*
X107520000Y-114333435D01*
X107554877Y-114330000D01*
X107659184Y-114319727D01*
X107793020Y-114279128D01*
X107916363Y-114213200D01*
X108024475Y-114124475D01*
X108113200Y-114016363D01*
X108179128Y-113893020D01*
X108219727Y-113759184D01*
X108233435Y-113620000D01*
X108230000Y-113585123D01*
X108230000Y-109284877D01*
X108233435Y-109250000D01*
X108219727Y-109110816D01*
X108179128Y-108976980D01*
X108113200Y-108853637D01*
X108024475Y-108745525D01*
X107916363Y-108656800D01*
X107793020Y-108590872D01*
X107659184Y-108550273D01*
X107554877Y-108540000D01*
X107520000Y-108536565D01*
X107485123Y-108540000D01*
X103534877Y-108540000D01*
X103500000Y-108536565D01*
X103465123Y-108540000D01*
X103360816Y-108550273D01*
X103226980Y-108590872D01*
X103103637Y-108656800D01*
X102995525Y-108745525D01*
X102906800Y-108853637D01*
X102840872Y-108976980D01*
X102800273Y-109110816D01*
X102786565Y-109250000D01*
X92155430Y-109250000D01*
X92132113Y-109240342D01*
X91879024Y-109190000D01*
X91620976Y-109190000D01*
X91367887Y-109240342D01*
X91129482Y-109339093D01*
X90914923Y-109482456D01*
X90732456Y-109664923D01*
X90589093Y-109879482D01*
X90490342Y-110117887D01*
X90440000Y-110370976D01*
X90440000Y-110629024D01*
X90490342Y-110882113D01*
X90589093Y-111120518D01*
X90710697Y-111302513D01*
X90623815Y-111373815D01*
X90544463Y-111470506D01*
X90485498Y-111580820D01*
X90449188Y-111700518D01*
X90436928Y-111825000D01*
X76215000Y-111825000D01*
X76215000Y-104340000D01*
X95241928Y-104340000D01*
X95254188Y-104464482D01*
X95290498Y-104584180D01*
X95349463Y-104694494D01*
X95428815Y-104791185D01*
X95525506Y-104870537D01*
X95635820Y-104929502D01*
X95755518Y-104965812D01*
X95880000Y-104978072D01*
X96374250Y-104975000D01*
X96533000Y-104816250D01*
X96533000Y-103687000D01*
X95403750Y-103687000D01*
X95245000Y-103845750D01*
X95241928Y-104340000D01*
X76215000Y-104340000D01*
X76215000Y-102780000D01*
X95241928Y-102780000D01*
X95245000Y-103274250D01*
X95403750Y-103433000D01*
X96533000Y-103433000D01*
X96533000Y-102303750D01*
X96374250Y-102145000D01*
X95880000Y-102141928D01*
X95755518Y-102154188D01*
X95635820Y-102190498D01*
X95525506Y-102249463D01*
X95428815Y-102328815D01*
X95349463Y-102425506D01*
X95290498Y-102535820D01*
X95254188Y-102655518D01*
X95241928Y-102780000D01*
X76215000Y-102780000D01*
X76215000Y-54745000D01*
X90286928Y-54745000D01*
X90286928Y-56095000D01*
X90297000Y-56197266D01*
X90297001Y-93541609D01*
X90291471Y-93597758D01*
X90313539Y-93821825D01*
X90357861Y-93967932D01*
X90378898Y-94037281D01*
X90485033Y-94235847D01*
X90513062Y-94270000D01*
X90565760Y-94334212D01*
X90627868Y-94409891D01*
X90671478Y-94445681D01*
X98531226Y-102305430D01*
X98529746Y-102306043D01*
X98297990Y-102460897D01*
X98100897Y-102657990D01*
X98070531Y-102703436D01*
X98065812Y-102655518D01*
X98029502Y-102535820D01*
X97970537Y-102425506D01*
X97891185Y-102328815D01*
X97794494Y-102249463D01*
X97684180Y-102190498D01*
X97564482Y-102154188D01*
X97440000Y-102141928D01*
X96945750Y-102145000D01*
X96787000Y-102303750D01*
X96787000Y-103433000D01*
X96807000Y-103433000D01*
X96807000Y-103687000D01*
X96787000Y-103687000D01*
X96787000Y-104816250D01*
X96945750Y-104975000D01*
X97440000Y-104978072D01*
X97564482Y-104965812D01*
X97684180Y-104929502D01*
X97794494Y-104870537D01*
X97891185Y-104791185D01*
X97970537Y-104694494D01*
X98029502Y-104584180D01*
X98065812Y-104464482D01*
X98070531Y-104416564D01*
X98100897Y-104462010D01*
X98297990Y-104659103D01*
X98529746Y-104813957D01*
X98787260Y-104920623D01*
X99060635Y-104975000D01*
X99339365Y-104975000D01*
X99612740Y-104920623D01*
X99870254Y-104813957D01*
X100102010Y-104659103D01*
X100299103Y-104462010D01*
X100453957Y-104230254D01*
X100454570Y-104228774D01*
X100546438Y-104320642D01*
X100640897Y-104462010D01*
X100837990Y-104659103D01*
X101069746Y-104813957D01*
X101327260Y-104920623D01*
X101600635Y-104975000D01*
X101879365Y-104975000D01*
X102152740Y-104920623D01*
X102410254Y-104813957D01*
X102642010Y-104659103D01*
X102839103Y-104462010D01*
X102993957Y-104230254D01*
X103010000Y-104191523D01*
X103026043Y-104230254D01*
X103180897Y-104462010D01*
X103377990Y-104659103D01*
X103609746Y-104813957D01*
X103867260Y-104920623D01*
X104140635Y-104975000D01*
X104419365Y-104975000D01*
X104692740Y-104920623D01*
X104950254Y-104813957D01*
X105182010Y-104659103D01*
X105379103Y-104462010D01*
X105533957Y-104230254D01*
X105550000Y-104191523D01*
X105566043Y-104230254D01*
X105720897Y-104462010D01*
X105917990Y-104659103D01*
X106149746Y-104813957D01*
X106407260Y-104920623D01*
X106680635Y-104975000D01*
X106959365Y-104975000D01*
X107232740Y-104920623D01*
X107490254Y-104813957D01*
X107722010Y-104659103D01*
X107919103Y-104462010D01*
X108073957Y-104230254D01*
X108090000Y-104191523D01*
X108106043Y-104230254D01*
X108260897Y-104462010D01*
X108457990Y-104659103D01*
X108689746Y-104813957D01*
X108947260Y-104920623D01*
X109220635Y-104975000D01*
X109499365Y-104975000D01*
X109772740Y-104920623D01*
X110030254Y-104813957D01*
X110262010Y-104659103D01*
X110459103Y-104462010D01*
X110613957Y-104230254D01*
X110630000Y-104191523D01*
X110646043Y-104230254D01*
X110800897Y-104462010D01*
X110997990Y-104659103D01*
X111229746Y-104813957D01*
X111487260Y-104920623D01*
X111760635Y-104975000D01*
X112039365Y-104975000D01*
X112312740Y-104920623D01*
X112570254Y-104813957D01*
X112802010Y-104659103D01*
X112999103Y-104462010D01*
X113029469Y-104416564D01*
X113034188Y-104464482D01*
X113070498Y-104584180D01*
X113129463Y-104694494D01*
X113208815Y-104791185D01*
X113305506Y-104870537D01*
X113415820Y-104929502D01*
X113535518Y-104965812D01*
X113660000Y-104978072D01*
X114154250Y-104975000D01*
X114313000Y-104816250D01*
X114313000Y-103687000D01*
X114567000Y-103687000D01*
X114567000Y-104816250D01*
X114725750Y-104975000D01*
X115220000Y-104978072D01*
X115344482Y-104965812D01*
X115464180Y-104929502D01*
X115574494Y-104870537D01*
X115671185Y-104791185D01*
X115750537Y-104694494D01*
X115809502Y-104584180D01*
X115845812Y-104464482D01*
X115858072Y-104340000D01*
X115855000Y-103845750D01*
X115696250Y-103687000D01*
X114567000Y-103687000D01*
X114313000Y-103687000D01*
X114293000Y-103687000D01*
X114293000Y-103433000D01*
X114313000Y-103433000D01*
X114313000Y-102303750D01*
X114567000Y-102303750D01*
X114567000Y-103433000D01*
X115696250Y-103433000D01*
X115855000Y-103274250D01*
X115858072Y-102780000D01*
X115845812Y-102655518D01*
X115809502Y-102535820D01*
X115750537Y-102425506D01*
X115671185Y-102328815D01*
X115574494Y-102249463D01*
X115464180Y-102190498D01*
X115344482Y-102154188D01*
X115220000Y-102141928D01*
X114725750Y-102145000D01*
X114567000Y-102303750D01*
X114313000Y-102303750D01*
X114154250Y-102145000D01*
X113660000Y-102141928D01*
X113535518Y-102154188D01*
X113415820Y-102190498D01*
X113305506Y-102249463D01*
X113208815Y-102328815D01*
X113129463Y-102425506D01*
X113070498Y-102535820D01*
X113034188Y-102655518D01*
X113029469Y-102703436D01*
X112999103Y-102657990D01*
X112802010Y-102460897D01*
X112570254Y-102306043D01*
X112312740Y-102199377D01*
X112039365Y-102145000D01*
X111760635Y-102145000D01*
X111487260Y-102199377D01*
X111229746Y-102306043D01*
X110997990Y-102460897D01*
X110800897Y-102657990D01*
X110646043Y-102889746D01*
X110630000Y-102928477D01*
X110613957Y-102889746D01*
X110459103Y-102657990D01*
X110262010Y-102460897D01*
X110030254Y-102306043D01*
X109772740Y-102199377D01*
X109499365Y-102145000D01*
X109220635Y-102145000D01*
X108947260Y-102199377D01*
X108689746Y-102306043D01*
X108457990Y-102460897D01*
X108260897Y-102657990D01*
X108106043Y-102889746D01*
X108090000Y-102928477D01*
X108073957Y-102889746D01*
X107919103Y-102657990D01*
X107722010Y-102460897D01*
X107490254Y-102306043D01*
X107232740Y-102199377D01*
X106959365Y-102145000D01*
X106680635Y-102145000D01*
X106407260Y-102199377D01*
X106149746Y-102306043D01*
X105917990Y-102460897D01*
X105720897Y-102657990D01*
X105566043Y-102889746D01*
X105550000Y-102928477D01*
X105533957Y-102889746D01*
X105379103Y-102657990D01*
X105182010Y-102460897D01*
X104950254Y-102306043D01*
X104692740Y-102199377D01*
X104496861Y-102160415D01*
X95806446Y-93470000D01*
X97911471Y-93470000D01*
X97933539Y-93694067D01*
X97998898Y-93909523D01*
X98105033Y-94108088D01*
X98212076Y-94238521D01*
X101232077Y-97258523D01*
X101267867Y-97302133D01*
X101441911Y-97444968D01*
X101640477Y-97551103D01*
X101749023Y-97584030D01*
X101855932Y-97616461D01*
X101876517Y-97618488D01*
X102023854Y-97633000D01*
X102023861Y-97633000D01*
X102080000Y-97638529D01*
X102136139Y-97633000D01*
X102826146Y-97633000D01*
X102994067Y-97616461D01*
X103209523Y-97551103D01*
X103408089Y-97444968D01*
X103582133Y-97302133D01*
X103724968Y-97128089D01*
X103831103Y-96929523D01*
X103896461Y-96714067D01*
X103918530Y-96490000D01*
X103896461Y-96265933D01*
X103831103Y-96050477D01*
X103724968Y-95851911D01*
X103582133Y-95677867D01*
X103408089Y-95535032D01*
X103209523Y-95428897D01*
X102994067Y-95363539D01*
X102826146Y-95347000D01*
X102553446Y-95347000D01*
X99828521Y-92622076D01*
X99698088Y-92515033D01*
X99499523Y-92408898D01*
X99284067Y-92343539D01*
X99060000Y-92321471D01*
X98835933Y-92343539D01*
X98620477Y-92408898D01*
X98421912Y-92515033D01*
X98247867Y-92657867D01*
X98105033Y-92831912D01*
X97998898Y-93030477D01*
X97933539Y-93245933D01*
X97911471Y-93470000D01*
X95806446Y-93470000D01*
X94723000Y-92386555D01*
X94723000Y-90720635D01*
X95245000Y-90720635D01*
X95245000Y-90999365D01*
X95299377Y-91272740D01*
X95406043Y-91530254D01*
X95560897Y-91762010D01*
X95757990Y-91959103D01*
X95989746Y-92113957D01*
X96247260Y-92220623D01*
X96520635Y-92275000D01*
X96799365Y-92275000D01*
X97072740Y-92220623D01*
X97330254Y-92113957D01*
X97562010Y-91959103D01*
X97759103Y-91762010D01*
X97913957Y-91530254D01*
X97930000Y-91491523D01*
X97946043Y-91530254D01*
X98100897Y-91762010D01*
X98297990Y-91959103D01*
X98529746Y-92113957D01*
X98787260Y-92220623D01*
X99060635Y-92275000D01*
X99339365Y-92275000D01*
X99612740Y-92220623D01*
X99870254Y-92113957D01*
X100102010Y-91959103D01*
X100299103Y-91762010D01*
X100453957Y-91530254D01*
X100470000Y-91491523D01*
X100486043Y-91530254D01*
X100640897Y-91762010D01*
X100837990Y-91959103D01*
X101069746Y-92113957D01*
X101327260Y-92220623D01*
X101600635Y-92275000D01*
X101879365Y-92275000D01*
X102152740Y-92220623D01*
X102410254Y-92113957D01*
X102642010Y-91959103D01*
X102839103Y-91762010D01*
X102993957Y-91530254D01*
X103010000Y-91491523D01*
X103026043Y-91530254D01*
X103180897Y-91762010D01*
X103377990Y-91959103D01*
X103609746Y-92113957D01*
X103867260Y-92220623D01*
X104140635Y-92275000D01*
X104419365Y-92275000D01*
X104692740Y-92220623D01*
X104950254Y-92113957D01*
X105182010Y-91959103D01*
X105379103Y-91762010D01*
X105533957Y-91530254D01*
X105550000Y-91491523D01*
X105566043Y-91530254D01*
X105720897Y-91762010D01*
X105917990Y-91959103D01*
X106149746Y-92113957D01*
X106407260Y-92220623D01*
X106680635Y-92275000D01*
X106959365Y-92275000D01*
X107232740Y-92220623D01*
X107490254Y-92113957D01*
X107722010Y-91959103D01*
X107919103Y-91762010D01*
X108073957Y-91530254D01*
X108090000Y-91491523D01*
X108106043Y-91530254D01*
X108260897Y-91762010D01*
X108457990Y-91959103D01*
X108689746Y-92113957D01*
X108947260Y-92220623D01*
X109220635Y-92275000D01*
X109499365Y-92275000D01*
X109772740Y-92220623D01*
X110030254Y-92113957D01*
X110262010Y-91959103D01*
X110459103Y-91762010D01*
X110613957Y-91530254D01*
X110630000Y-91491523D01*
X110646043Y-91530254D01*
X110800897Y-91762010D01*
X110997990Y-91959103D01*
X111229746Y-92113957D01*
X111487260Y-92220623D01*
X111760635Y-92275000D01*
X112039365Y-92275000D01*
X112312740Y-92220623D01*
X112570254Y-92113957D01*
X112802010Y-91959103D01*
X112999103Y-91762010D01*
X113029469Y-91716564D01*
X113034188Y-91764482D01*
X113070498Y-91884180D01*
X113129463Y-91994494D01*
X113208815Y-92091185D01*
X113305506Y-92170537D01*
X113415820Y-92229502D01*
X113535518Y-92265812D01*
X113660000Y-92278072D01*
X114154250Y-92275000D01*
X114313000Y-92116250D01*
X114313000Y-90987000D01*
X114567000Y-90987000D01*
X114567000Y-92116250D01*
X114725750Y-92275000D01*
X115220000Y-92278072D01*
X115344482Y-92265812D01*
X115464180Y-92229502D01*
X115574494Y-92170537D01*
X115671185Y-92091185D01*
X115750537Y-91994494D01*
X115809502Y-91884180D01*
X115845812Y-91764482D01*
X115858072Y-91640000D01*
X115855000Y-91145750D01*
X115696250Y-90987000D01*
X114567000Y-90987000D01*
X114313000Y-90987000D01*
X114293000Y-90987000D01*
X114293000Y-90733000D01*
X114313000Y-90733000D01*
X114313000Y-89603750D01*
X114567000Y-89603750D01*
X114567000Y-90733000D01*
X115696250Y-90733000D01*
X115855000Y-90574250D01*
X115858072Y-90080000D01*
X115845812Y-89955518D01*
X115809502Y-89835820D01*
X115750537Y-89725506D01*
X115671185Y-89628815D01*
X115574494Y-89549463D01*
X115464180Y-89490498D01*
X115344482Y-89454188D01*
X115220000Y-89441928D01*
X114725750Y-89445000D01*
X114567000Y-89603750D01*
X114313000Y-89603750D01*
X114154250Y-89445000D01*
X113660000Y-89441928D01*
X113535518Y-89454188D01*
X113415820Y-89490498D01*
X113305506Y-89549463D01*
X113208815Y-89628815D01*
X113129463Y-89725506D01*
X113070498Y-89835820D01*
X113034188Y-89955518D01*
X113029469Y-90003436D01*
X112999103Y-89957990D01*
X112802010Y-89760897D01*
X112570254Y-89606043D01*
X112312740Y-89499377D01*
X112039365Y-89445000D01*
X111760635Y-89445000D01*
X111487260Y-89499377D01*
X111229746Y-89606043D01*
X110997990Y-89760897D01*
X110800897Y-89957990D01*
X110646043Y-90189746D01*
X110630000Y-90228477D01*
X110613957Y-90189746D01*
X110459103Y-89957990D01*
X110262010Y-89760897D01*
X110030254Y-89606043D01*
X109772740Y-89499377D01*
X109499365Y-89445000D01*
X109220635Y-89445000D01*
X108947260Y-89499377D01*
X108689746Y-89606043D01*
X108457990Y-89760897D01*
X108260897Y-89957990D01*
X108106043Y-90189746D01*
X108090000Y-90228477D01*
X108073957Y-90189746D01*
X107919103Y-89957990D01*
X107722010Y-89760897D01*
X107490254Y-89606043D01*
X107232740Y-89499377D01*
X106959365Y-89445000D01*
X106680635Y-89445000D01*
X106407260Y-89499377D01*
X106149746Y-89606043D01*
X105917990Y-89760897D01*
X105720897Y-89957990D01*
X105566043Y-90189746D01*
X105550000Y-90228477D01*
X105533957Y-90189746D01*
X105423000Y-90023687D01*
X105423000Y-81559401D01*
X108062085Y-81559401D01*
X108150711Y-81800430D01*
X108284656Y-82019537D01*
X108458773Y-82208303D01*
X108666371Y-82359473D01*
X108899472Y-82467238D01*
X109000600Y-82497910D01*
X109203000Y-82374224D01*
X109203000Y-81357000D01*
X108184915Y-81357000D01*
X108062085Y-81559401D01*
X105423000Y-81559401D01*
X105423000Y-80900599D01*
X108062085Y-80900599D01*
X108184915Y-81103000D01*
X109203000Y-81103000D01*
X109203000Y-80085776D01*
X109457000Y-80085776D01*
X109457000Y-81103000D01*
X109477000Y-81103000D01*
X109477000Y-81357000D01*
X109457000Y-81357000D01*
X109457000Y-82374224D01*
X109659400Y-82497910D01*
X109760528Y-82467238D01*
X109993629Y-82359473D01*
X110126881Y-82262441D01*
X110203815Y-82356185D01*
X110300506Y-82435537D01*
X110410820Y-82494502D01*
X110530518Y-82530812D01*
X110655000Y-82543072D01*
X112005000Y-82543072D01*
X112129482Y-82530812D01*
X112249180Y-82494502D01*
X112359494Y-82435537D01*
X112456185Y-82356185D01*
X112535537Y-82259494D01*
X112594502Y-82149180D01*
X112630812Y-82029482D01*
X112643072Y-81905000D01*
X112643072Y-80555000D01*
X112630812Y-80430518D01*
X112594502Y-80310820D01*
X112535537Y-80200506D01*
X112456185Y-80103815D01*
X112359494Y-80024463D01*
X112249180Y-79965498D01*
X112129482Y-79929188D01*
X112005000Y-79916928D01*
X110655000Y-79916928D01*
X110530518Y-79929188D01*
X110410820Y-79965498D01*
X110300506Y-80024463D01*
X110203815Y-80103815D01*
X110126881Y-80197559D01*
X109993629Y-80100527D01*
X109760528Y-79992762D01*
X109659400Y-79962090D01*
X109457000Y-80085776D01*
X109203000Y-80085776D01*
X109000600Y-79962090D01*
X108899472Y-79992762D01*
X108666371Y-80100527D01*
X108458773Y-80251697D01*
X108284656Y-80440463D01*
X108150711Y-80659570D01*
X108062085Y-80900599D01*
X105423000Y-80900599D01*
X105423000Y-73106985D01*
X114606904Y-63923082D01*
X114713947Y-63792649D01*
X114820082Y-63594084D01*
X114885441Y-63378628D01*
X114907509Y-63154561D01*
X114885441Y-62930493D01*
X114820082Y-62715037D01*
X114713947Y-62516472D01*
X114571113Y-62342427D01*
X114397068Y-62199593D01*
X114198503Y-62093458D01*
X113983047Y-62028099D01*
X113758979Y-62006031D01*
X113534912Y-62028099D01*
X113319456Y-62093458D01*
X113120891Y-62199593D01*
X112990458Y-62306636D01*
X103511478Y-71785617D01*
X103467868Y-71821407D01*
X103325033Y-71995451D01*
X103267642Y-72102823D01*
X103218898Y-72194017D01*
X103153539Y-72409473D01*
X103131471Y-72633540D01*
X103137001Y-72689689D01*
X103137000Y-90023687D01*
X103026043Y-90189746D01*
X103010000Y-90228477D01*
X102993957Y-90189746D01*
X102839103Y-89957990D01*
X102642010Y-89760897D01*
X102410254Y-89606043D01*
X102152740Y-89499377D01*
X101879365Y-89445000D01*
X101600635Y-89445000D01*
X101327260Y-89499377D01*
X101069746Y-89606043D01*
X100837990Y-89760897D01*
X100640897Y-89957990D01*
X100486043Y-90189746D01*
X100470000Y-90228477D01*
X100453957Y-90189746D01*
X100299103Y-89957990D01*
X100102010Y-89760897D01*
X99870254Y-89606043D01*
X99612740Y-89499377D01*
X99339365Y-89445000D01*
X99060635Y-89445000D01*
X98787260Y-89499377D01*
X98529746Y-89606043D01*
X98297990Y-89760897D01*
X98100897Y-89957990D01*
X97946043Y-90189746D01*
X97930000Y-90228477D01*
X97913957Y-90189746D01*
X97759103Y-89957990D01*
X97562010Y-89760897D01*
X97420000Y-89666009D01*
X97420000Y-64944801D01*
X101914802Y-60450000D01*
X112715199Y-60450000D01*
X119890000Y-67624802D01*
X119890001Y-83052667D01*
X119886324Y-83090000D01*
X119900998Y-83238985D01*
X119944454Y-83382246D01*
X120015026Y-83514276D01*
X120063610Y-83573475D01*
X120110000Y-83630001D01*
X120138998Y-83653799D01*
X121038790Y-84553592D01*
X120995000Y-84773740D01*
X120995000Y-85066260D01*
X121052068Y-85353158D01*
X121164010Y-85623411D01*
X121326525Y-85866632D01*
X121533368Y-86073475D01*
X121707760Y-86190000D01*
X121533368Y-86306525D01*
X121326525Y-86513368D01*
X121164010Y-86756589D01*
X121052068Y-87026842D01*
X120995000Y-87313740D01*
X120995000Y-87606260D01*
X121052068Y-87893158D01*
X121164010Y-88163411D01*
X121326525Y-88406632D01*
X121533368Y-88613475D01*
X121707760Y-88730000D01*
X121533368Y-88846525D01*
X121326525Y-89053368D01*
X121164010Y-89296589D01*
X121052068Y-89566842D01*
X120995000Y-89853740D01*
X120995000Y-90146260D01*
X121052068Y-90433158D01*
X121164010Y-90703411D01*
X121326525Y-90946632D01*
X121533368Y-91153475D01*
X121707760Y-91270000D01*
X121533368Y-91386525D01*
X121326525Y-91593368D01*
X121164010Y-91836589D01*
X121052068Y-92106842D01*
X120995000Y-92393740D01*
X120995000Y-92686260D01*
X121052068Y-92973158D01*
X121164010Y-93243411D01*
X121326525Y-93486632D01*
X121533368Y-93693475D01*
X121707760Y-93810000D01*
X121533368Y-93926525D01*
X121326525Y-94133368D01*
X121164010Y-94376589D01*
X121052068Y-94646842D01*
X120995000Y-94933740D01*
X120995000Y-95226260D01*
X121052068Y-95513158D01*
X121164010Y-95783411D01*
X121326525Y-96026632D01*
X121533368Y-96233475D01*
X121707760Y-96350000D01*
X121533368Y-96466525D01*
X121326525Y-96673368D01*
X121164010Y-96916589D01*
X121052068Y-97186842D01*
X120995000Y-97473740D01*
X120995000Y-97766260D01*
X121052068Y-98053158D01*
X121164010Y-98323411D01*
X121326525Y-98566632D01*
X121533368Y-98773475D01*
X121707760Y-98890000D01*
X121533368Y-99006525D01*
X121326525Y-99213368D01*
X121164010Y-99456589D01*
X121052068Y-99726842D01*
X120995000Y-100013740D01*
X120995000Y-100306260D01*
X121052068Y-100593158D01*
X121164010Y-100863411D01*
X121326525Y-101106632D01*
X121533368Y-101313475D01*
X121776589Y-101475990D01*
X122046842Y-101587932D01*
X122333740Y-101645000D01*
X122626260Y-101645000D01*
X122913158Y-101587932D01*
X123115000Y-101504327D01*
X123316842Y-101587932D01*
X123603740Y-101645000D01*
X123896260Y-101645000D01*
X124183158Y-101587932D01*
X124453411Y-101475990D01*
X124696632Y-101313475D01*
X124903475Y-101106632D01*
X125065990Y-100863411D01*
X125177932Y-100593158D01*
X125235000Y-100306260D01*
X125235000Y-100013740D01*
X125177932Y-99726842D01*
X125065990Y-99456589D01*
X124903475Y-99213368D01*
X124696632Y-99006525D01*
X124522240Y-98890000D01*
X124696632Y-98773475D01*
X124903475Y-98566632D01*
X125065990Y-98323411D01*
X125177932Y-98053158D01*
X125235000Y-97766260D01*
X125235000Y-97473740D01*
X125177932Y-97186842D01*
X125065990Y-96916589D01*
X124903475Y-96673368D01*
X124696632Y-96466525D01*
X124522240Y-96350000D01*
X124696632Y-96233475D01*
X124903475Y-96026632D01*
X125065990Y-95783411D01*
X125177932Y-95513158D01*
X125235000Y-95226260D01*
X125235000Y-95167720D01*
X137258282Y-107191003D01*
X137282080Y-107220001D01*
X137397805Y-107314974D01*
X137529834Y-107385546D01*
X137673095Y-107429003D01*
X137784748Y-107440000D01*
X137784758Y-107440000D01*
X137822081Y-107443676D01*
X137859404Y-107440000D01*
X189571138Y-107440000D01*
X189608460Y-107443676D01*
X189645782Y-107440000D01*
X189645793Y-107440000D01*
X189757446Y-107429003D01*
X189900707Y-107385546D01*
X190032736Y-107314974D01*
X190148461Y-107220001D01*
X190172264Y-107190997D01*
X194821003Y-102542259D01*
X194850001Y-102518461D01*
X194944974Y-102402736D01*
X195015546Y-102270707D01*
X195059003Y-102127446D01*
X195070000Y-102015793D01*
X195070000Y-102015785D01*
X195073676Y-101978460D01*
X195070000Y-101941135D01*
X195070000Y-96269373D01*
X195099463Y-96324494D01*
X195178815Y-96421185D01*
X195275506Y-96500537D01*
X195385820Y-96559502D01*
X195505518Y-96595812D01*
X195630000Y-96608072D01*
X197330000Y-96608072D01*
X197454482Y-96595812D01*
X197574180Y-96559502D01*
X197684494Y-96500537D01*
X197781185Y-96421185D01*
X197860537Y-96324494D01*
X197919502Y-96214180D01*
X197955812Y-96094482D01*
X197968072Y-95970000D01*
X197968072Y-94270000D01*
X197955812Y-94145518D01*
X197919502Y-94025820D01*
X197860537Y-93915506D01*
X197781185Y-93818815D01*
X197684494Y-93739463D01*
X197574180Y-93680498D01*
X197501620Y-93658487D01*
X197633475Y-93526632D01*
X197795990Y-93283411D01*
X197907932Y-93013158D01*
X197965000Y-92726260D01*
X197965000Y-92433740D01*
X197907932Y-92146842D01*
X197795990Y-91876589D01*
X197633475Y-91633368D01*
X197426632Y-91426525D01*
X197252240Y-91310000D01*
X197426632Y-91193475D01*
X197633475Y-90986632D01*
X197795990Y-90743411D01*
X197907932Y-90473158D01*
X197965000Y-90186260D01*
X197965000Y-89893740D01*
X197964827Y-89892869D01*
X203695192Y-89892869D01*
X203695192Y-90266315D01*
X203768048Y-90632584D01*
X203910959Y-90977603D01*
X204118434Y-91288111D01*
X204382500Y-91552177D01*
X204693008Y-91759652D01*
X205038027Y-91902563D01*
X205404296Y-91975419D01*
X205777742Y-91975419D01*
X206144011Y-91902563D01*
X206489030Y-91759652D01*
X206799538Y-91552177D01*
X207063604Y-91288111D01*
X207271079Y-90977603D01*
X207413990Y-90632584D01*
X207486846Y-90266315D01*
X207486846Y-89892869D01*
X207413990Y-89526600D01*
X207271079Y-89181581D01*
X207063604Y-88871073D01*
X206799538Y-88607007D01*
X206489030Y-88399532D01*
X206144011Y-88256621D01*
X205777742Y-88183765D01*
X205404296Y-88183765D01*
X205038027Y-88256621D01*
X204693008Y-88399532D01*
X204382500Y-88607007D01*
X204118434Y-88871073D01*
X203910959Y-89181581D01*
X203768048Y-89526600D01*
X203695192Y-89892869D01*
X197964827Y-89892869D01*
X197907932Y-89606842D01*
X197795990Y-89336589D01*
X197633475Y-89093368D01*
X197426632Y-88886525D01*
X197252240Y-88770000D01*
X197426632Y-88653475D01*
X197633475Y-88446632D01*
X197795990Y-88203411D01*
X197907932Y-87933158D01*
X197965000Y-87646260D01*
X197965000Y-87353740D01*
X197907932Y-87066842D01*
X197795990Y-86796589D01*
X197633475Y-86553368D01*
X197426632Y-86346525D01*
X197252240Y-86230000D01*
X197426632Y-86113475D01*
X197633475Y-85906632D01*
X197795990Y-85663411D01*
X197907932Y-85393158D01*
X197965000Y-85106260D01*
X197965000Y-84813740D01*
X197907932Y-84526842D01*
X197795990Y-84256589D01*
X197633475Y-84013368D01*
X197426632Y-83806525D01*
X197252240Y-83690000D01*
X197426632Y-83573475D01*
X197633475Y-83366632D01*
X197795990Y-83123411D01*
X197907932Y-82853158D01*
X197965000Y-82566260D01*
X197965000Y-82273740D01*
X197907932Y-81986842D01*
X197795990Y-81716589D01*
X197633475Y-81473368D01*
X197426632Y-81266525D01*
X197252240Y-81150000D01*
X197426632Y-81033475D01*
X197633475Y-80826632D01*
X197795990Y-80583411D01*
X197907932Y-80313158D01*
X197965000Y-80026260D01*
X197965000Y-79733740D01*
X197907932Y-79446842D01*
X197795990Y-79176589D01*
X197633475Y-78933368D01*
X197426632Y-78726525D01*
X197252240Y-78610000D01*
X197426632Y-78493475D01*
X197633475Y-78286632D01*
X197795990Y-78043411D01*
X197907932Y-77773158D01*
X197965000Y-77486260D01*
X197965000Y-77193740D01*
X197907932Y-76906842D01*
X197795990Y-76636589D01*
X197639174Y-76401897D01*
X203811153Y-76401897D01*
X203811153Y-76775343D01*
X203884009Y-77141612D01*
X204026920Y-77486631D01*
X204234395Y-77797139D01*
X204498461Y-78061205D01*
X204808969Y-78268680D01*
X205153988Y-78411591D01*
X205520257Y-78484447D01*
X205893703Y-78484447D01*
X206259972Y-78411591D01*
X206604991Y-78268680D01*
X206915499Y-78061205D01*
X207179565Y-77797139D01*
X207387040Y-77486631D01*
X207529951Y-77141612D01*
X207602807Y-76775343D01*
X207602807Y-76401897D01*
X207529951Y-76035628D01*
X207387040Y-75690609D01*
X207179565Y-75380101D01*
X206915499Y-75116035D01*
X206604991Y-74908560D01*
X206259972Y-74765649D01*
X205893703Y-74692793D01*
X205520257Y-74692793D01*
X205153988Y-74765649D01*
X204808969Y-74908560D01*
X204498461Y-75116035D01*
X204234395Y-75380101D01*
X204026920Y-75690609D01*
X203884009Y-76035628D01*
X203811153Y-76401897D01*
X197639174Y-76401897D01*
X197633475Y-76393368D01*
X197426632Y-76186525D01*
X197244466Y-76064805D01*
X197361355Y-75995178D01*
X197577588Y-75800269D01*
X197751641Y-75566920D01*
X197876825Y-75304099D01*
X197921476Y-75156890D01*
X197800155Y-74927000D01*
X196607000Y-74927000D01*
X196607000Y-74947000D01*
X196353000Y-74947000D01*
X196353000Y-74927000D01*
X196333000Y-74927000D01*
X196333000Y-74673000D01*
X196353000Y-74673000D01*
X196353000Y-74653000D01*
X196607000Y-74653000D01*
X196607000Y-74673000D01*
X197800155Y-74673000D01*
X197921476Y-74443110D01*
X197876825Y-74295901D01*
X197751641Y-74033080D01*
X197577588Y-73799731D01*
X197361355Y-73604822D01*
X197244466Y-73535195D01*
X197426632Y-73413475D01*
X197633475Y-73206632D01*
X197795990Y-72963411D01*
X197907932Y-72693158D01*
X197965000Y-72406260D01*
X197965000Y-72113740D01*
X197907932Y-71826842D01*
X197795990Y-71556589D01*
X197633475Y-71313368D01*
X197426632Y-71106525D01*
X197252240Y-70990000D01*
X197426632Y-70873475D01*
X197633475Y-70666632D01*
X197795990Y-70423411D01*
X197907932Y-70153158D01*
X197965000Y-69866260D01*
X197965000Y-69573740D01*
X197907932Y-69286842D01*
X197795990Y-69016589D01*
X197633475Y-68773368D01*
X197426632Y-68566525D01*
X197183411Y-68404010D01*
X196913158Y-68292068D01*
X196626260Y-68235000D01*
X196333740Y-68235000D01*
X196046842Y-68292068D01*
X195776589Y-68404010D01*
X195533368Y-68566525D01*
X195326525Y-68773368D01*
X195164010Y-69016589D01*
X195052068Y-69286842D01*
X194995000Y-69573740D01*
X194995000Y-69866260D01*
X195038790Y-70086407D01*
X194172918Y-70952281D01*
X194017720Y-69723760D01*
X194014553Y-69707156D01*
X194000425Y-69633092D01*
X193688117Y-68416735D01*
X193661617Y-68335178D01*
X193659594Y-68328951D01*
X193197300Y-67161328D01*
X193157999Y-67077810D01*
X192553007Y-65977335D01*
X192526796Y-65936033D01*
X192503550Y-65899402D01*
X191765402Y-64883430D01*
X191706567Y-64812310D01*
X190846906Y-63896864D01*
X190818399Y-63870094D01*
X190779621Y-63833679D01*
X189812003Y-63033195D01*
X189737329Y-62978941D01*
X188677013Y-62306044D01*
X188596128Y-62261577D01*
X187459837Y-61726879D01*
X187398358Y-61702538D01*
X187374017Y-61692901D01*
X186179670Y-61304833D01*
X186090267Y-61281879D01*
X184856700Y-61046564D01*
X184765126Y-61034995D01*
X183524740Y-60956956D01*
X183501748Y-60954692D01*
X153429538Y-60954692D01*
X153418025Y-60955826D01*
X152814651Y-60974788D01*
X152780176Y-60978047D01*
X152745618Y-60980221D01*
X151499712Y-61137615D01*
X151499710Y-61137615D01*
X151409043Y-61154910D01*
X150192686Y-61467218D01*
X150146276Y-61482298D01*
X150104902Y-61495741D01*
X148937279Y-61958035D01*
X148863647Y-61992684D01*
X148853761Y-61997336D01*
X147753286Y-62602328D01*
X147723030Y-62621529D01*
X147675353Y-62651785D01*
X146659381Y-63389933D01*
X146588261Y-63448768D01*
X145672815Y-64308429D01*
X145609630Y-64375714D01*
X144809147Y-65343331D01*
X144809146Y-65343332D01*
X144754892Y-65418006D01*
X144081995Y-66478322D01*
X144057022Y-66523748D01*
X144037528Y-66559207D01*
X143502830Y-67695498D01*
X143487633Y-67733883D01*
X143468852Y-67781318D01*
X143080784Y-68975665D01*
X143057830Y-69065067D01*
X143057830Y-69065068D01*
X142822515Y-70298635D01*
X142810946Y-70390209D01*
X142732907Y-71630598D01*
X142730643Y-71653588D01*
X142730644Y-94906109D01*
X142731776Y-94917607D01*
X142750739Y-95520996D01*
X142753998Y-95555473D01*
X142756172Y-95590028D01*
X142913566Y-96835935D01*
X142913566Y-96835937D01*
X142930861Y-96926604D01*
X143243170Y-98142961D01*
X143271692Y-98230745D01*
X143733986Y-99398368D01*
X143754793Y-99442585D01*
X143773287Y-99481886D01*
X144378279Y-100582362D01*
X144427737Y-100660295D01*
X144427743Y-100660302D01*
X145165884Y-101676267D01*
X145192521Y-101708465D01*
X145224719Y-101747386D01*
X146084380Y-102662832D01*
X146151665Y-102726017D01*
X147119283Y-103526501D01*
X147193957Y-103580755D01*
X148254266Y-104253647D01*
X148254273Y-104253652D01*
X148335158Y-104298119D01*
X149471449Y-104832817D01*
X149557269Y-104866796D01*
X150751617Y-105254863D01*
X150841019Y-105277817D01*
X152074586Y-105513132D01*
X152166160Y-105524701D01*
X153406546Y-105602740D01*
X153429538Y-105605004D01*
X183501748Y-105605004D01*
X183513261Y-105603870D01*
X184116635Y-105584908D01*
X184151112Y-105581649D01*
X184185667Y-105579475D01*
X185431574Y-105422081D01*
X185431576Y-105422081D01*
X185522243Y-105404786D01*
X186738601Y-105092477D01*
X186767123Y-105083210D01*
X186826384Y-105063955D01*
X187994007Y-104601661D01*
X188044076Y-104578100D01*
X188077525Y-104562360D01*
X189178001Y-103957368D01*
X189255934Y-103907910D01*
X189255941Y-103907904D01*
X190271906Y-103169763D01*
X190304303Y-103142961D01*
X190343025Y-103110928D01*
X191258471Y-102251267D01*
X191281611Y-102226625D01*
X191321656Y-102183982D01*
X192122140Y-101216364D01*
X192176394Y-101141690D01*
X192849286Y-100081381D01*
X192849291Y-100081374D01*
X192893758Y-100000489D01*
X193428456Y-98864198D01*
X193436449Y-98844010D01*
X193462435Y-98778378D01*
X193550001Y-98508878D01*
X193550001Y-101663657D01*
X189293659Y-105920000D01*
X138136883Y-105920000D01*
X125179941Y-92963059D01*
X125235000Y-92686260D01*
X125235000Y-92393740D01*
X125177932Y-92106842D01*
X125065990Y-91836589D01*
X124903475Y-91593368D01*
X124696632Y-91386525D01*
X124522240Y-91270000D01*
X124696632Y-91153475D01*
X124903475Y-90946632D01*
X125065990Y-90703411D01*
X125177932Y-90433158D01*
X125235000Y-90146260D01*
X125235000Y-89853740D01*
X125177932Y-89566842D01*
X125065990Y-89296589D01*
X124903475Y-89053368D01*
X124696632Y-88846525D01*
X124522240Y-88730000D01*
X124696632Y-88613475D01*
X124903475Y-88406632D01*
X125065990Y-88163411D01*
X125177932Y-87893158D01*
X125235000Y-87606260D01*
X125235000Y-87313740D01*
X125177932Y-87026842D01*
X125065990Y-86756589D01*
X124903475Y-86513368D01*
X124696632Y-86306525D01*
X124522240Y-86190000D01*
X124696632Y-86073475D01*
X124903475Y-85866632D01*
X125065990Y-85623411D01*
X125177932Y-85353158D01*
X125235000Y-85066260D01*
X125235000Y-84773740D01*
X125201846Y-84607061D01*
X130265220Y-84607061D01*
X130265220Y-84810939D01*
X130304994Y-85010898D01*
X130383015Y-85199256D01*
X130496283Y-85368774D01*
X130640446Y-85512937D01*
X130809964Y-85626205D01*
X130998322Y-85704226D01*
X131198281Y-85744000D01*
X131402159Y-85744000D01*
X131602118Y-85704226D01*
X131790476Y-85626205D01*
X131959994Y-85512937D01*
X132104157Y-85368774D01*
X132217425Y-85199256D01*
X132295446Y-85010898D01*
X132335220Y-84810939D01*
X132335220Y-84607061D01*
X132295446Y-84407102D01*
X132217425Y-84218744D01*
X132104157Y-84049226D01*
X131959994Y-83905063D01*
X131790476Y-83791795D01*
X131602118Y-83713774D01*
X131402159Y-83674000D01*
X131198281Y-83674000D01*
X130998322Y-83713774D01*
X130809964Y-83791795D01*
X130640446Y-83905063D01*
X130496283Y-84049226D01*
X130383015Y-84218744D01*
X130304994Y-84407102D01*
X130265220Y-84607061D01*
X125201846Y-84607061D01*
X125177932Y-84486842D01*
X125065990Y-84216589D01*
X124903475Y-83973368D01*
X124696632Y-83766525D01*
X124522240Y-83650000D01*
X124696632Y-83533475D01*
X124903475Y-83326632D01*
X125065990Y-83083411D01*
X125177932Y-82813158D01*
X125235000Y-82526260D01*
X125235000Y-82233740D01*
X125177932Y-81946842D01*
X125065990Y-81676589D01*
X124903475Y-81433368D01*
X124696632Y-81226525D01*
X124522240Y-81110000D01*
X124696632Y-80993475D01*
X124903475Y-80786632D01*
X125065990Y-80543411D01*
X125177932Y-80273158D01*
X125235000Y-79986260D01*
X125235000Y-79693740D01*
X125177932Y-79406842D01*
X125065990Y-79136589D01*
X124903475Y-78893368D01*
X124696632Y-78686525D01*
X124522240Y-78570000D01*
X124696632Y-78453475D01*
X124903475Y-78246632D01*
X125065990Y-78003411D01*
X125177932Y-77733158D01*
X125235000Y-77446260D01*
X125235000Y-77153740D01*
X125177932Y-76866842D01*
X125065990Y-76596589D01*
X124903475Y-76353368D01*
X124696632Y-76146525D01*
X124522240Y-76030000D01*
X124696632Y-75913475D01*
X124903475Y-75706632D01*
X125065990Y-75463411D01*
X125177932Y-75193158D01*
X125235000Y-74906260D01*
X125235000Y-74613740D01*
X125177932Y-74326842D01*
X125065990Y-74056589D01*
X124903475Y-73813368D01*
X124696632Y-73606525D01*
X124514466Y-73484805D01*
X124631355Y-73415178D01*
X124847588Y-73220269D01*
X125021641Y-72986920D01*
X125146825Y-72724099D01*
X125191476Y-72576890D01*
X125070155Y-72347000D01*
X123960389Y-72347000D01*
X123970611Y-72151469D01*
X123962126Y-72093000D01*
X125070155Y-72093000D01*
X125191476Y-71863110D01*
X125146825Y-71715901D01*
X125021641Y-71453080D01*
X124847588Y-71219731D01*
X124631355Y-71024822D01*
X124514466Y-70955195D01*
X124696632Y-70833475D01*
X124903475Y-70626632D01*
X125065990Y-70383411D01*
X125177932Y-70113158D01*
X125235000Y-69826260D01*
X125235000Y-69533740D01*
X125177932Y-69246842D01*
X125065990Y-68976589D01*
X124903475Y-68733368D01*
X124869627Y-68699520D01*
X134320991Y-68699520D01*
X134326520Y-68755659D01*
X134326520Y-68755665D01*
X134343059Y-68923586D01*
X134408417Y-69139042D01*
X134514552Y-69337608D01*
X134657387Y-69511653D01*
X134701002Y-69547447D01*
X137505000Y-72351446D01*
X137505000Y-72366260D01*
X137562068Y-72653158D01*
X137674010Y-72923411D01*
X137836525Y-73166632D01*
X138043368Y-73373475D01*
X138217760Y-73490000D01*
X138043368Y-73606525D01*
X137836525Y-73813368D01*
X137674010Y-74056589D01*
X137562068Y-74326842D01*
X137505000Y-74613740D01*
X137505000Y-74906260D01*
X137562068Y-75193158D01*
X137674010Y-75463411D01*
X137836525Y-75706632D01*
X138043368Y-75913475D01*
X138217760Y-76030000D01*
X138043368Y-76146525D01*
X137836525Y-76353368D01*
X137674010Y-76596589D01*
X137562068Y-76866842D01*
X137505000Y-77153740D01*
X137505000Y-77446260D01*
X137562068Y-77733158D01*
X137674010Y-78003411D01*
X137836525Y-78246632D01*
X138043368Y-78453475D01*
X138217760Y-78570000D01*
X138043368Y-78686525D01*
X137836525Y-78893368D01*
X137674010Y-79136589D01*
X137562068Y-79406842D01*
X137505000Y-79693740D01*
X137505000Y-79986260D01*
X137562068Y-80273158D01*
X137674010Y-80543411D01*
X137836525Y-80786632D01*
X138043368Y-80993475D01*
X138217760Y-81110000D01*
X138043368Y-81226525D01*
X137836525Y-81433368D01*
X137674010Y-81676589D01*
X137562068Y-81946842D01*
X137505000Y-82233740D01*
X137505000Y-82526260D01*
X137562068Y-82813158D01*
X137674010Y-83083411D01*
X137836525Y-83326632D01*
X138043368Y-83533475D01*
X138217760Y-83650000D01*
X138043368Y-83766525D01*
X137836525Y-83973368D01*
X137674010Y-84216589D01*
X137562068Y-84486842D01*
X137505000Y-84773740D01*
X137505000Y-85066260D01*
X137562068Y-85353158D01*
X137674010Y-85623411D01*
X137836525Y-85866632D01*
X138043368Y-86073475D01*
X138217760Y-86190000D01*
X138043368Y-86306525D01*
X137836525Y-86513368D01*
X137674010Y-86756589D01*
X137562068Y-87026842D01*
X137505000Y-87313740D01*
X137505000Y-87606260D01*
X137562068Y-87893158D01*
X137674010Y-88163411D01*
X137836525Y-88406632D01*
X138043368Y-88613475D01*
X138217760Y-88730000D01*
X138043368Y-88846525D01*
X137836525Y-89053368D01*
X137674010Y-89296589D01*
X137562068Y-89566842D01*
X137505000Y-89853740D01*
X137505000Y-90146260D01*
X137562068Y-90433158D01*
X137674010Y-90703411D01*
X137836525Y-90946632D01*
X138043368Y-91153475D01*
X138217760Y-91270000D01*
X138043368Y-91386525D01*
X137836525Y-91593368D01*
X137674010Y-91836589D01*
X137562068Y-92106842D01*
X137505000Y-92393740D01*
X137505000Y-92686260D01*
X137562068Y-92973158D01*
X137674010Y-93243411D01*
X137836525Y-93486632D01*
X138043368Y-93693475D01*
X138217760Y-93810000D01*
X138043368Y-93926525D01*
X137836525Y-94133368D01*
X137674010Y-94376589D01*
X137562068Y-94646842D01*
X137505000Y-94933740D01*
X137505000Y-95226260D01*
X137562068Y-95513158D01*
X137674010Y-95783411D01*
X137836525Y-96026632D01*
X138043368Y-96233475D01*
X138217760Y-96350000D01*
X138043368Y-96466525D01*
X137836525Y-96673368D01*
X137674010Y-96916589D01*
X137562068Y-97186842D01*
X137505000Y-97473740D01*
X137505000Y-97766260D01*
X137562068Y-98053158D01*
X137674010Y-98323411D01*
X137836525Y-98566632D01*
X138043368Y-98773475D01*
X138217760Y-98890000D01*
X138043368Y-99006525D01*
X137836525Y-99213368D01*
X137674010Y-99456589D01*
X137562068Y-99726842D01*
X137505000Y-100013740D01*
X137505000Y-100306260D01*
X137562068Y-100593158D01*
X137674010Y-100863411D01*
X137836525Y-101106632D01*
X138043368Y-101313475D01*
X138286589Y-101475990D01*
X138556842Y-101587932D01*
X138843740Y-101645000D01*
X139136260Y-101645000D01*
X139423158Y-101587932D01*
X139625000Y-101504327D01*
X139826842Y-101587932D01*
X140113740Y-101645000D01*
X140406260Y-101645000D01*
X140693158Y-101587932D01*
X140963411Y-101475990D01*
X141206632Y-101313475D01*
X141413475Y-101106632D01*
X141575990Y-100863411D01*
X141687932Y-100593158D01*
X141745000Y-100306260D01*
X141745000Y-100013740D01*
X141687932Y-99726842D01*
X141575990Y-99456589D01*
X141413475Y-99213368D01*
X141206632Y-99006525D01*
X141032240Y-98890000D01*
X141206632Y-98773475D01*
X141413475Y-98566632D01*
X141575990Y-98323411D01*
X141687932Y-98053158D01*
X141745000Y-97766260D01*
X141745000Y-97473740D01*
X141687932Y-97186842D01*
X141575990Y-96916589D01*
X141413475Y-96673368D01*
X141206632Y-96466525D01*
X141032240Y-96350000D01*
X141206632Y-96233475D01*
X141413475Y-96026632D01*
X141575990Y-95783411D01*
X141687932Y-95513158D01*
X141745000Y-95226260D01*
X141745000Y-94933740D01*
X141687932Y-94646842D01*
X141575990Y-94376589D01*
X141413475Y-94133368D01*
X141206632Y-93926525D01*
X141032240Y-93810000D01*
X141206632Y-93693475D01*
X141413475Y-93486632D01*
X141575990Y-93243411D01*
X141687932Y-92973158D01*
X141745000Y-92686260D01*
X141745000Y-92393740D01*
X141687932Y-92106842D01*
X141575990Y-91836589D01*
X141413475Y-91593368D01*
X141206632Y-91386525D01*
X141032240Y-91270000D01*
X141206632Y-91153475D01*
X141413475Y-90946632D01*
X141575990Y-90703411D01*
X141687932Y-90433158D01*
X141745000Y-90146260D01*
X141745000Y-89853740D01*
X141687932Y-89566842D01*
X141575990Y-89296589D01*
X141413475Y-89053368D01*
X141206632Y-88846525D01*
X141032240Y-88730000D01*
X141206632Y-88613475D01*
X141413475Y-88406632D01*
X141575990Y-88163411D01*
X141687932Y-87893158D01*
X141745000Y-87606260D01*
X141745000Y-87313740D01*
X141687932Y-87026842D01*
X141575990Y-86756589D01*
X141413475Y-86513368D01*
X141206632Y-86306525D01*
X141032240Y-86190000D01*
X141206632Y-86073475D01*
X141413475Y-85866632D01*
X141575990Y-85623411D01*
X141687932Y-85353158D01*
X141745000Y-85066260D01*
X141745000Y-84773740D01*
X141687932Y-84486842D01*
X141575990Y-84216589D01*
X141413475Y-83973368D01*
X141206632Y-83766525D01*
X141032240Y-83650000D01*
X141206632Y-83533475D01*
X141413475Y-83326632D01*
X141575990Y-83083411D01*
X141687932Y-82813158D01*
X141745000Y-82526260D01*
X141745000Y-82233740D01*
X141687932Y-81946842D01*
X141575990Y-81676589D01*
X141413475Y-81433368D01*
X141206632Y-81226525D01*
X141032240Y-81110000D01*
X141206632Y-80993475D01*
X141413475Y-80786632D01*
X141575990Y-80543411D01*
X141687932Y-80273158D01*
X141745000Y-79986260D01*
X141745000Y-79693740D01*
X141687932Y-79406842D01*
X141575990Y-79136589D01*
X141413475Y-78893368D01*
X141206632Y-78686525D01*
X141032240Y-78570000D01*
X141206632Y-78453475D01*
X141413475Y-78246632D01*
X141575990Y-78003411D01*
X141687932Y-77733158D01*
X141745000Y-77446260D01*
X141745000Y-77153740D01*
X141687932Y-76866842D01*
X141575990Y-76596589D01*
X141413475Y-76353368D01*
X141206632Y-76146525D01*
X141032240Y-76030000D01*
X141206632Y-75913475D01*
X141413475Y-75706632D01*
X141575990Y-75463411D01*
X141687932Y-75193158D01*
X141745000Y-74906260D01*
X141745000Y-74613740D01*
X141687932Y-74326842D01*
X141575990Y-74056589D01*
X141413475Y-73813368D01*
X141206632Y-73606525D01*
X141032240Y-73490000D01*
X141206632Y-73373475D01*
X141413475Y-73166632D01*
X141575990Y-72923411D01*
X141687932Y-72653158D01*
X141745000Y-72366260D01*
X141745000Y-72073740D01*
X141687932Y-71786842D01*
X141575990Y-71516589D01*
X141413475Y-71273368D01*
X141206632Y-71066525D01*
X141032240Y-70950000D01*
X141206632Y-70833475D01*
X141413475Y-70626632D01*
X141575990Y-70383411D01*
X141687932Y-70113158D01*
X141745000Y-69826260D01*
X141745000Y-69533740D01*
X141687932Y-69246842D01*
X141575990Y-68976589D01*
X141413475Y-68733368D01*
X141206632Y-68526525D01*
X141033271Y-68410689D01*
X141108792Y-68168397D01*
X140424985Y-67484590D01*
X140310156Y-67267002D01*
X140475000Y-67267002D01*
X140475000Y-67175395D01*
X141288397Y-67988792D01*
X141537472Y-67911157D01*
X141663371Y-67647117D01*
X141735339Y-67363589D01*
X141750611Y-67071469D01*
X141708599Y-66781981D01*
X141610919Y-66506253D01*
X141537472Y-66368843D01*
X141288397Y-66291208D01*
X140475000Y-67104605D01*
X140475000Y-67012998D01*
X140310156Y-67012998D01*
X140424985Y-66795410D01*
X141108792Y-66111603D01*
X141033271Y-65869311D01*
X141206632Y-65753475D01*
X141413475Y-65546632D01*
X141575990Y-65303411D01*
X141687932Y-65033158D01*
X141745000Y-64746260D01*
X141745000Y-64453740D01*
X141687932Y-64166842D01*
X141575990Y-63896589D01*
X141413475Y-63653368D01*
X141206632Y-63446525D01*
X140963411Y-63284010D01*
X140693158Y-63172068D01*
X140406260Y-63115000D01*
X140113740Y-63115000D01*
X139826842Y-63172068D01*
X139625000Y-63255673D01*
X139423158Y-63172068D01*
X139136260Y-63115000D01*
X138843740Y-63115000D01*
X138556842Y-63172068D01*
X138286589Y-63284010D01*
X138043368Y-63446525D01*
X137836525Y-63653368D01*
X137674010Y-63896589D01*
X137562068Y-64166842D01*
X137505000Y-64453740D01*
X137505000Y-64746260D01*
X137562068Y-65033158D01*
X137674010Y-65303411D01*
X137836525Y-65546632D01*
X138043368Y-65753475D01*
X138225534Y-65875195D01*
X138108645Y-65944822D01*
X137892412Y-66139731D01*
X137718359Y-66373080D01*
X137593175Y-66635901D01*
X137548524Y-66783110D01*
X137669845Y-67013000D01*
X138779611Y-67013000D01*
X138769389Y-67208531D01*
X138777874Y-67267000D01*
X137669845Y-67267000D01*
X137548524Y-67496890D01*
X137593175Y-67644099D01*
X137718359Y-67906920D01*
X137892412Y-68140269D01*
X138108645Y-68335178D01*
X138225534Y-68404805D01*
X138043368Y-68526525D01*
X137836525Y-68733368D01*
X137674010Y-68976589D01*
X137582928Y-69196482D01*
X136612520Y-68226075D01*
X136612520Y-54584334D01*
X136595981Y-54416413D01*
X136530623Y-54200957D01*
X136424488Y-54002391D01*
X136281653Y-53828347D01*
X136107609Y-53685512D01*
X135909043Y-53579377D01*
X135693587Y-53514019D01*
X135469520Y-53491950D01*
X135245454Y-53514019D01*
X135029998Y-53579377D01*
X134831432Y-53685512D01*
X134657388Y-53828347D01*
X134514553Y-54002391D01*
X134408418Y-54200957D01*
X134343060Y-54416413D01*
X134326521Y-54584334D01*
X134326520Y-68643381D01*
X134320991Y-68699520D01*
X124869627Y-68699520D01*
X124696632Y-68526525D01*
X124522240Y-68410000D01*
X124696632Y-68293475D01*
X124903475Y-68086632D01*
X125065990Y-67843411D01*
X125177932Y-67573158D01*
X125235000Y-67286260D01*
X125235000Y-66993740D01*
X125177932Y-66706842D01*
X125065990Y-66436589D01*
X124903475Y-66193368D01*
X124696632Y-65986525D01*
X124522240Y-65870000D01*
X124696632Y-65753475D01*
X124903475Y-65546632D01*
X125065990Y-65303411D01*
X125177932Y-65033158D01*
X125235000Y-64746260D01*
X125235000Y-64453740D01*
X125177932Y-64166842D01*
X125065990Y-63896589D01*
X124903475Y-63653368D01*
X124696632Y-63446525D01*
X124453411Y-63284010D01*
X124183158Y-63172068D01*
X123896260Y-63115000D01*
X123603740Y-63115000D01*
X123316842Y-63172068D01*
X123115000Y-63255673D01*
X122913158Y-63172068D01*
X122626260Y-63115000D01*
X122333740Y-63115000D01*
X122046842Y-63172068D01*
X121776589Y-63284010D01*
X121533368Y-63446525D01*
X121326525Y-63653368D01*
X121164010Y-63896589D01*
X121052068Y-64166842D01*
X120995000Y-64453740D01*
X120995000Y-64746260D01*
X121052068Y-65033158D01*
X121164010Y-65303411D01*
X121326525Y-65546632D01*
X121533368Y-65753475D01*
X121707760Y-65870000D01*
X121533368Y-65986525D01*
X121326525Y-66193368D01*
X121164010Y-66436589D01*
X121072446Y-66657644D01*
X113593804Y-59179003D01*
X113570001Y-59149999D01*
X113454276Y-59055026D01*
X113322247Y-58984454D01*
X113178986Y-58940997D01*
X113067333Y-58930000D01*
X113067322Y-58930000D01*
X113030000Y-58926324D01*
X112992678Y-58930000D01*
X101637322Y-58930000D01*
X101600000Y-58926324D01*
X101562677Y-58930000D01*
X101562667Y-58930000D01*
X101451014Y-58940997D01*
X101307753Y-58984454D01*
X101175723Y-59055026D01*
X101092083Y-59123668D01*
X101059999Y-59149999D01*
X101036201Y-59178997D01*
X96148998Y-64066201D01*
X96120000Y-64089999D01*
X96096202Y-64118997D01*
X96096201Y-64118998D01*
X96025026Y-64205724D01*
X95954454Y-64337754D01*
X95942127Y-64378393D01*
X95910998Y-64481014D01*
X95906935Y-64522269D01*
X95896324Y-64630000D01*
X95900001Y-64667333D01*
X95900000Y-89666009D01*
X95757990Y-89760897D01*
X95560897Y-89957990D01*
X95406043Y-90189746D01*
X95299377Y-90447260D01*
X95245000Y-90720635D01*
X94723000Y-90720635D01*
X94723000Y-56673445D01*
X94758517Y-56637928D01*
X94802133Y-56602133D01*
X94944968Y-56428089D01*
X95051103Y-56229523D01*
X95116461Y-56014067D01*
X95133000Y-55846146D01*
X95133000Y-55846139D01*
X95138529Y-55790000D01*
X95133000Y-55733861D01*
X95133000Y-54486139D01*
X95138529Y-54430000D01*
X95133000Y-54373861D01*
X95133000Y-54373854D01*
X95116461Y-54205933D01*
X95115129Y-54201541D01*
X95051103Y-53990476D01*
X94985492Y-53867727D01*
X94944968Y-53791911D01*
X94802133Y-53617867D01*
X94758524Y-53582078D01*
X94616446Y-53440000D01*
X102776565Y-53440000D01*
X102780001Y-53474887D01*
X102780000Y-57775123D01*
X102776565Y-57810000D01*
X102790273Y-57949184D01*
X102830872Y-58083020D01*
X102896800Y-58206363D01*
X102985525Y-58314475D01*
X103093637Y-58403200D01*
X103216980Y-58469128D01*
X103350816Y-58509727D01*
X103490000Y-58523435D01*
X103524877Y-58520000D01*
X107475123Y-58520000D01*
X107510000Y-58523435D01*
X107544877Y-58520000D01*
X107649184Y-58509727D01*
X107783020Y-58469128D01*
X107906363Y-58403200D01*
X108014475Y-58314475D01*
X108103200Y-58206363D01*
X108169128Y-58083020D01*
X108209727Y-57949184D01*
X108223435Y-57810000D01*
X108220000Y-57775123D01*
X108220000Y-53474877D01*
X108223435Y-53440000D01*
X108209727Y-53300816D01*
X108169128Y-53166980D01*
X108103200Y-53043637D01*
X108014475Y-52935525D01*
X107906363Y-52846800D01*
X107783020Y-52780872D01*
X107649184Y-52740273D01*
X107544877Y-52730000D01*
X107510000Y-52726565D01*
X107475123Y-52730000D01*
X103524877Y-52730000D01*
X103490000Y-52726565D01*
X103455123Y-52730000D01*
X103350816Y-52740273D01*
X103216980Y-52780872D01*
X103093637Y-52846800D01*
X102985525Y-52935525D01*
X102896800Y-53043637D01*
X102830872Y-53166980D01*
X102790273Y-53300816D01*
X102776565Y-53440000D01*
X94616446Y-53440000D01*
X93827927Y-52651482D01*
X93792133Y-52607867D01*
X93618089Y-52465032D01*
X93419523Y-52358897D01*
X93204067Y-52293539D01*
X93036146Y-52277000D01*
X93036139Y-52277000D01*
X92980000Y-52271471D01*
X92923861Y-52277000D01*
X92247318Y-52277000D01*
X92220518Y-52259093D01*
X91982113Y-52160342D01*
X91729024Y-52110000D01*
X91470976Y-52110000D01*
X91217887Y-52160342D01*
X90979482Y-52259093D01*
X90764923Y-52402456D01*
X90582456Y-52584923D01*
X90439093Y-52799482D01*
X90340342Y-53037887D01*
X90290000Y-53290976D01*
X90290000Y-53549024D01*
X90340342Y-53802113D01*
X90439093Y-54040518D01*
X90560697Y-54222513D01*
X90473815Y-54293815D01*
X90394463Y-54390506D01*
X90335498Y-54500820D01*
X90299188Y-54620518D01*
X90286928Y-54745000D01*
X76215000Y-54745000D01*
X76215000Y-46072491D01*
X95084894Y-46072491D01*
X95084894Y-46419667D01*
X95152625Y-46760173D01*
X95285483Y-47080923D01*
X95478364Y-47369590D01*
X95723855Y-47615081D01*
X96012522Y-47807962D01*
X96333272Y-47940820D01*
X96673778Y-48008551D01*
X97020954Y-48008551D01*
X97361460Y-47940820D01*
X97682210Y-47807962D01*
X97970877Y-47615081D01*
X98216368Y-47369590D01*
X98409249Y-47080923D01*
X98542107Y-46760173D01*
X98609838Y-46419667D01*
X98609838Y-46072491D01*
X113084894Y-46072491D01*
X113084894Y-46419667D01*
X113152625Y-46760173D01*
X113285483Y-47080923D01*
X113478364Y-47369590D01*
X113723855Y-47615081D01*
X114012522Y-47807962D01*
X114333272Y-47940820D01*
X114673778Y-48008551D01*
X115020954Y-48008551D01*
X115361460Y-47940820D01*
X115682210Y-47807962D01*
X115970877Y-47615081D01*
X116216368Y-47369590D01*
X116409249Y-47080923D01*
X116542107Y-46760173D01*
X116609838Y-46419667D01*
X116609838Y-46072491D01*
X116542107Y-45731985D01*
X116409249Y-45411235D01*
X116216368Y-45122568D01*
X115970877Y-44877077D01*
X115682210Y-44684196D01*
X115361460Y-44551338D01*
X115020954Y-44483607D01*
X114673778Y-44483607D01*
X114333272Y-44551338D01*
X114012522Y-44684196D01*
X113723855Y-44877077D01*
X113478364Y-45122568D01*
X113285483Y-45411235D01*
X113152625Y-45731985D01*
X113084894Y-46072491D01*
X98609838Y-46072491D01*
X98542107Y-45731985D01*
X98409249Y-45411235D01*
X98216368Y-45122568D01*
X97970877Y-44877077D01*
X97682210Y-44684196D01*
X97361460Y-44551338D01*
X97020954Y-44483607D01*
X96673778Y-44483607D01*
X96333272Y-44551338D01*
X96012522Y-44684196D01*
X95723855Y-44877077D01*
X95478364Y-45122568D01*
X95285483Y-45411235D01*
X95152625Y-45731985D01*
X95084894Y-46072491D01*
X76215000Y-46072491D01*
X76215000Y-45898972D01*
X99502404Y-35079692D01*
X110999194Y-35079692D01*
X137925804Y-46614890D01*
X138092780Y-47231630D01*
X138106080Y-47270811D01*
X138118852Y-47310122D01*
X138581146Y-48477745D01*
X138601953Y-48521962D01*
X138620447Y-48561263D01*
X139225439Y-49661739D01*
X139274897Y-49739672D01*
X139274903Y-49739679D01*
X140013044Y-50755644D01*
X140039681Y-50787842D01*
X140071879Y-50826763D01*
X140931540Y-51742209D01*
X140998825Y-51805394D01*
X141966443Y-52605878D01*
X142041117Y-52660132D01*
X143101426Y-53333024D01*
X143101433Y-53333029D01*
X143182318Y-53377496D01*
X144318609Y-53912194D01*
X144404429Y-53946173D01*
X145598777Y-54334240D01*
X145688179Y-54357194D01*
X146921746Y-54592509D01*
X147013320Y-54604078D01*
X148253706Y-54682117D01*
X148276698Y-54684381D01*
X188234078Y-54684381D01*
X188245591Y-54683247D01*
X188848965Y-54664285D01*
X188883442Y-54661026D01*
X188917997Y-54658852D01*
X190163904Y-54501458D01*
X190163906Y-54501458D01*
X190254573Y-54484163D01*
X191470931Y-54171854D01*
X191499453Y-54162587D01*
X191558714Y-54143332D01*
X192726337Y-53681038D01*
X192776406Y-53657477D01*
X192809855Y-53641737D01*
X193910331Y-53036745D01*
X193988264Y-52987287D01*
X193988271Y-52987281D01*
X195004236Y-52249140D01*
X195036633Y-52222338D01*
X195075355Y-52190305D01*
X195990801Y-51330644D01*
X196013941Y-51306002D01*
X196053986Y-51263359D01*
X196854470Y-50295741D01*
X196908724Y-50221067D01*
X197581616Y-49160758D01*
X197581621Y-49160751D01*
X197626088Y-49079866D01*
X198160786Y-47943575D01*
X198163546Y-47936603D01*
X198194765Y-47857755D01*
X198582832Y-46663407D01*
X198605786Y-46574005D01*
X198841101Y-45340438D01*
X198852670Y-45248864D01*
X198931523Y-43995532D01*
X199007473Y-42788347D01*
X199225456Y-41645636D01*
X199584945Y-40539241D01*
X200080265Y-39486633D01*
X200703604Y-38504407D01*
X201445139Y-37608046D01*
X202293168Y-36811694D01*
X203234319Y-36127908D01*
X204253747Y-35567473D01*
X205335378Y-35139225D01*
X206462158Y-34849916D01*
X207627798Y-34702662D01*
X208209509Y-34684381D01*
X220674869Y-34684381D01*
X221859007Y-34758881D01*
M02*
