G04 #@! TF.GenerationSoftware,KiCad,Pcbnew,(5.1.6)-1*
G04 #@! TF.CreationDate,2022-02-26T01:51:55-08:00*
G04 #@! TF.ProjectId,seguilineas_actualizado,73656775-696c-4696-9e65-61735f616374,rev?*
G04 #@! TF.SameCoordinates,Original*
G04 #@! TF.FileFunction,Legend,Top*
G04 #@! TF.FilePolarity,Positive*
%FSLAX46Y46*%
G04 Gerber Fmt 4.6, Leading zero omitted, Abs format (unit mm)*
G04 Created by KiCad (PCBNEW (5.1.6)-1) date 2022-02-26 01:51:55*
%MOMM*%
%LPD*%
G01*
G04 APERTURE LIST*
%ADD10C,0.010000*%
%ADD11C,0.120000*%
%ADD12C,0.100000*%
%ADD13C,0.152400*%
%ADD14C,0.300000*%
%ADD15C,0.127000*%
%ADD16C,0.200000*%
%ADD17C,0.150000*%
%ADD18C,0.015000*%
%ADD19C,2.800000*%
%ADD20O,1.700000X1.700000*%
%ADD21R,1.700000X1.700000*%
%ADD22C,1.358000*%
%ADD23R,1.358000X1.358000*%
%ADD24R,2.000000X1.600000*%
%ADD25R,2.100000X5.600000*%
%ADD26C,1.560000*%
%ADD27R,1.560000X1.560000*%
%ADD28R,1.860000X1.860000*%
%ADD29C,1.860000*%
G04 APERTURE END LIST*
D10*
G36*
X228843500Y-121562041D02*
G01*
X228831565Y-121633014D01*
X228787016Y-121662501D01*
X228772062Y-121665229D01*
X228745397Y-121671066D01*
X228726164Y-121686025D01*
X228712929Y-121719430D01*
X228704257Y-121780603D01*
X228698715Y-121878865D01*
X228694868Y-122023538D01*
X228691926Y-122186062D01*
X228689170Y-122378535D01*
X228689179Y-122518294D01*
X228692999Y-122616106D01*
X228701675Y-122682734D01*
X228716255Y-122728942D01*
X228737784Y-122765494D01*
X228749793Y-122781375D01*
X228837706Y-122846747D01*
X228949514Y-122869368D01*
X229060964Y-122847886D01*
X229129250Y-122802500D01*
X229152568Y-122774707D01*
X229169383Y-122738518D01*
X229180747Y-122683951D01*
X229187709Y-122601030D01*
X229191319Y-122479776D01*
X229192629Y-122310209D01*
X229192750Y-122199250D01*
X229192750Y-121659500D01*
X229113375Y-121659500D01*
X229056647Y-121649248D01*
X229035895Y-121605670D01*
X229034000Y-121564250D01*
X229034000Y-121469000D01*
X229669000Y-121469000D01*
X229669000Y-121562041D01*
X229657065Y-121633014D01*
X229612516Y-121662501D01*
X229597562Y-121665229D01*
X229571814Y-121670893D01*
X229552805Y-121685431D01*
X229539143Y-121717759D01*
X229529438Y-121776798D01*
X229522299Y-121871466D01*
X229516333Y-122010682D01*
X229510151Y-122203365D01*
X229509313Y-122231000D01*
X229501348Y-122430380D01*
X229490711Y-122602480D01*
X229478256Y-122737243D01*
X229464838Y-122824610D01*
X229456666Y-122850125D01*
X229352132Y-122974296D01*
X229206769Y-123062862D01*
X229035076Y-123111381D01*
X228851551Y-123115409D01*
X228700625Y-123081782D01*
X228596431Y-123034797D01*
X228515460Y-122970145D01*
X228455090Y-122880255D01*
X228412704Y-122757556D01*
X228385682Y-122594479D01*
X228371403Y-122383454D01*
X228367250Y-122118312D01*
X228367250Y-121659500D01*
X228287875Y-121659500D01*
X228231147Y-121649248D01*
X228210395Y-121605670D01*
X228208500Y-121564250D01*
X228208500Y-121469000D01*
X228843500Y-121469000D01*
X228843500Y-121562041D01*
G37*
X228843500Y-121562041D02*
X228831565Y-121633014D01*
X228787016Y-121662501D01*
X228772062Y-121665229D01*
X228745397Y-121671066D01*
X228726164Y-121686025D01*
X228712929Y-121719430D01*
X228704257Y-121780603D01*
X228698715Y-121878865D01*
X228694868Y-122023538D01*
X228691926Y-122186062D01*
X228689170Y-122378535D01*
X228689179Y-122518294D01*
X228692999Y-122616106D01*
X228701675Y-122682734D01*
X228716255Y-122728942D01*
X228737784Y-122765494D01*
X228749793Y-122781375D01*
X228837706Y-122846747D01*
X228949514Y-122869368D01*
X229060964Y-122847886D01*
X229129250Y-122802500D01*
X229152568Y-122774707D01*
X229169383Y-122738518D01*
X229180747Y-122683951D01*
X229187709Y-122601030D01*
X229191319Y-122479776D01*
X229192629Y-122310209D01*
X229192750Y-122199250D01*
X229192750Y-121659500D01*
X229113375Y-121659500D01*
X229056647Y-121649248D01*
X229035895Y-121605670D01*
X229034000Y-121564250D01*
X229034000Y-121469000D01*
X229669000Y-121469000D01*
X229669000Y-121562041D01*
X229657065Y-121633014D01*
X229612516Y-121662501D01*
X229597562Y-121665229D01*
X229571814Y-121670893D01*
X229552805Y-121685431D01*
X229539143Y-121717759D01*
X229529438Y-121776798D01*
X229522299Y-121871466D01*
X229516333Y-122010682D01*
X229510151Y-122203365D01*
X229509313Y-122231000D01*
X229501348Y-122430380D01*
X229490711Y-122602480D01*
X229478256Y-122737243D01*
X229464838Y-122824610D01*
X229456666Y-122850125D01*
X229352132Y-122974296D01*
X229206769Y-123062862D01*
X229035076Y-123111381D01*
X228851551Y-123115409D01*
X228700625Y-123081782D01*
X228596431Y-123034797D01*
X228515460Y-122970145D01*
X228455090Y-122880255D01*
X228412704Y-122757556D01*
X228385682Y-122594479D01*
X228371403Y-122383454D01*
X228367250Y-122118312D01*
X228367250Y-121659500D01*
X228287875Y-121659500D01*
X228231147Y-121649248D01*
X228210395Y-121605670D01*
X228208500Y-121564250D01*
X228208500Y-121469000D01*
X228843500Y-121469000D01*
X228843500Y-121562041D01*
G36*
X233440366Y-121953187D02*
G01*
X233479544Y-122136684D01*
X233517108Y-122313295D01*
X233549617Y-122466788D01*
X233573628Y-122580932D01*
X233580095Y-122612000D01*
X233600986Y-122707783D01*
X233614831Y-122747735D01*
X233626541Y-122738390D01*
X233639773Y-122691375D01*
X233654654Y-122630219D01*
X233681427Y-122519286D01*
X233717208Y-122370559D01*
X233759115Y-122196017D01*
X233798296Y-122032562D01*
X233933283Y-121469000D01*
X234336250Y-121469000D01*
X234336250Y-121562041D01*
X234324315Y-121633014D01*
X234279766Y-121662501D01*
X234264812Y-121665229D01*
X234240684Y-121673370D01*
X234217792Y-121695343D01*
X234193406Y-121738407D01*
X234164793Y-121809818D01*
X234129221Y-121916834D01*
X234083959Y-122066714D01*
X234026275Y-122266713D01*
X233989118Y-122397687D01*
X233784862Y-123120000D01*
X233618195Y-123120000D01*
X233514161Y-123115150D01*
X233457795Y-123097517D01*
X233434375Y-123064437D01*
X233421196Y-123018066D01*
X233394221Y-122920401D01*
X233356188Y-122781458D01*
X233309838Y-122611253D01*
X233257909Y-122419802D01*
X233243119Y-122365144D01*
X233190253Y-122171498D01*
X233142006Y-121998200D01*
X233101114Y-121854802D01*
X233070311Y-121750852D01*
X233052332Y-121695902D01*
X233049885Y-121690457D01*
X233004451Y-121661985D01*
X232985001Y-121659500D01*
X232949165Y-121630903D01*
X232939250Y-121564250D01*
X232939250Y-121469000D01*
X233336777Y-121469000D01*
X233440366Y-121953187D01*
G37*
X233440366Y-121953187D02*
X233479544Y-122136684D01*
X233517108Y-122313295D01*
X233549617Y-122466788D01*
X233573628Y-122580932D01*
X233580095Y-122612000D01*
X233600986Y-122707783D01*
X233614831Y-122747735D01*
X233626541Y-122738390D01*
X233639773Y-122691375D01*
X233654654Y-122630219D01*
X233681427Y-122519286D01*
X233717208Y-122370559D01*
X233759115Y-122196017D01*
X233798296Y-122032562D01*
X233933283Y-121469000D01*
X234336250Y-121469000D01*
X234336250Y-121562041D01*
X234324315Y-121633014D01*
X234279766Y-121662501D01*
X234264812Y-121665229D01*
X234240684Y-121673370D01*
X234217792Y-121695343D01*
X234193406Y-121738407D01*
X234164793Y-121809818D01*
X234129221Y-121916834D01*
X234083959Y-122066714D01*
X234026275Y-122266713D01*
X233989118Y-122397687D01*
X233784862Y-123120000D01*
X233618195Y-123120000D01*
X233514161Y-123115150D01*
X233457795Y-123097517D01*
X233434375Y-123064437D01*
X233421196Y-123018066D01*
X233394221Y-122920401D01*
X233356188Y-122781458D01*
X233309838Y-122611253D01*
X233257909Y-122419802D01*
X233243119Y-122365144D01*
X233190253Y-122171498D01*
X233142006Y-121998200D01*
X233101114Y-121854802D01*
X233070311Y-121750852D01*
X233052332Y-121695902D01*
X233049885Y-121690457D01*
X233004451Y-121661985D01*
X232985001Y-121659500D01*
X232949165Y-121630903D01*
X232939250Y-121564250D01*
X232939250Y-121469000D01*
X233336777Y-121469000D01*
X233440366Y-121953187D01*
G36*
X238432000Y-121438099D02*
G01*
X238522100Y-121455266D01*
X238584044Y-121466008D01*
X238596419Y-121467617D01*
X238656513Y-121501196D01*
X238698345Y-121586115D01*
X238717165Y-121711665D01*
X238717750Y-121741142D01*
X238717750Y-121913500D01*
X238590750Y-121913500D01*
X238509422Y-121910060D01*
X238473277Y-121889395D01*
X238464022Y-121835987D01*
X238463750Y-121805771D01*
X238448538Y-121715936D01*
X238413528Y-121678771D01*
X238298897Y-121659571D01*
X238195014Y-121684556D01*
X238117826Y-121745570D01*
X238083277Y-121834461D01*
X238082750Y-121847912D01*
X238088745Y-121904102D01*
X238113158Y-121952102D01*
X238165626Y-122000806D01*
X238255787Y-122059108D01*
X238393280Y-122135899D01*
X238397107Y-122137970D01*
X238560928Y-122241224D01*
X238669195Y-122347919D01*
X238729470Y-122468498D01*
X238749311Y-122613405D01*
X238749381Y-122624632D01*
X238722823Y-122800236D01*
X238647120Y-122940107D01*
X238527806Y-123040803D01*
X238370414Y-123098879D01*
X238180477Y-123110891D01*
X238009416Y-123085162D01*
X237886794Y-123052004D01*
X237813956Y-123013433D01*
X237778039Y-122953664D01*
X237766179Y-122856911D01*
X237765250Y-122785507D01*
X237765250Y-122580250D01*
X237892250Y-122580250D01*
X237973541Y-122583371D01*
X238009663Y-122604600D01*
X238018945Y-122661731D01*
X238019250Y-122703546D01*
X238026300Y-122788425D01*
X238054203Y-122830903D01*
X238090687Y-122845988D01*
X238234266Y-122863360D01*
X238350277Y-122835953D01*
X238429625Y-122768564D01*
X238463216Y-122665987D01*
X238463750Y-122649284D01*
X238447064Y-122571232D01*
X238392031Y-122497785D01*
X238291184Y-122421914D01*
X238137058Y-122336587D01*
X238125663Y-122330868D01*
X237951237Y-122224667D01*
X237837396Y-122108441D01*
X237781454Y-121977596D01*
X237780727Y-121827533D01*
X237794554Y-121763832D01*
X237863706Y-121620315D01*
X237978553Y-121512526D01*
X238129186Y-121445528D01*
X238305695Y-121424386D01*
X238432000Y-121438099D01*
G37*
X238432000Y-121438099D02*
X238522100Y-121455266D01*
X238584044Y-121466008D01*
X238596419Y-121467617D01*
X238656513Y-121501196D01*
X238698345Y-121586115D01*
X238717165Y-121711665D01*
X238717750Y-121741142D01*
X238717750Y-121913500D01*
X238590750Y-121913500D01*
X238509422Y-121910060D01*
X238473277Y-121889395D01*
X238464022Y-121835987D01*
X238463750Y-121805771D01*
X238448538Y-121715936D01*
X238413528Y-121678771D01*
X238298897Y-121659571D01*
X238195014Y-121684556D01*
X238117826Y-121745570D01*
X238083277Y-121834461D01*
X238082750Y-121847912D01*
X238088745Y-121904102D01*
X238113158Y-121952102D01*
X238165626Y-122000806D01*
X238255787Y-122059108D01*
X238393280Y-122135899D01*
X238397107Y-122137970D01*
X238560928Y-122241224D01*
X238669195Y-122347919D01*
X238729470Y-122468498D01*
X238749311Y-122613405D01*
X238749381Y-122624632D01*
X238722823Y-122800236D01*
X238647120Y-122940107D01*
X238527806Y-123040803D01*
X238370414Y-123098879D01*
X238180477Y-123110891D01*
X238009416Y-123085162D01*
X237886794Y-123052004D01*
X237813956Y-123013433D01*
X237778039Y-122953664D01*
X237766179Y-122856911D01*
X237765250Y-122785507D01*
X237765250Y-122580250D01*
X237892250Y-122580250D01*
X237973541Y-122583371D01*
X238009663Y-122604600D01*
X238018945Y-122661731D01*
X238019250Y-122703546D01*
X238026300Y-122788425D01*
X238054203Y-122830903D01*
X238090687Y-122845988D01*
X238234266Y-122863360D01*
X238350277Y-122835953D01*
X238429625Y-122768564D01*
X238463216Y-122665987D01*
X238463750Y-122649284D01*
X238447064Y-122571232D01*
X238392031Y-122497785D01*
X238291184Y-122421914D01*
X238137058Y-122336587D01*
X238125663Y-122330868D01*
X237951237Y-122224667D01*
X237837396Y-122108441D01*
X237781454Y-121977596D01*
X237780727Y-121827533D01*
X237794554Y-121763832D01*
X237863706Y-121620315D01*
X237978553Y-121512526D01*
X238129186Y-121445528D01*
X238305695Y-121424386D01*
X238432000Y-121438099D01*
G36*
X231169187Y-121475746D02*
G01*
X231306759Y-121480647D01*
X231393311Y-121487530D01*
X231441296Y-121500258D01*
X231463164Y-121522693D01*
X231471368Y-121558698D01*
X231472700Y-121569896D01*
X231470050Y-121632727D01*
X231430006Y-121659232D01*
X231393325Y-121665146D01*
X231304125Y-121675375D01*
X231295568Y-122365937D01*
X231287011Y-123056500D01*
X231168568Y-123056232D01*
X231131762Y-123057137D01*
X231102211Y-123055835D01*
X231075534Y-123046022D01*
X231047349Y-123021393D01*
X231013276Y-122975642D01*
X230968935Y-122902464D01*
X230909945Y-122795554D01*
X230831925Y-122648608D01*
X230730494Y-122455319D01*
X230666996Y-122334308D01*
X230462750Y-121945492D01*
X230462750Y-122866000D01*
X230542125Y-122866000D01*
X230598852Y-122876251D01*
X230619604Y-122919829D01*
X230621500Y-122961250D01*
X230621500Y-123056500D01*
X230014032Y-123056500D01*
X230024078Y-122970443D01*
X230053529Y-122896355D01*
X230113500Y-122865824D01*
X230192875Y-122847262D01*
X230192875Y-121675375D01*
X230103674Y-121665146D01*
X230040009Y-121648399D01*
X230022005Y-121605247D01*
X230024299Y-121569896D01*
X230032877Y-121525312D01*
X230055378Y-121499120D01*
X230106272Y-121485478D01*
X230200027Y-121478544D01*
X230256375Y-121476199D01*
X230478625Y-121467524D01*
X230553262Y-121603199D01*
X230595804Y-121682431D01*
X230659245Y-121802949D01*
X230735601Y-121949489D01*
X230816891Y-122106787D01*
X230831782Y-122135750D01*
X231035666Y-122532625D01*
X231027020Y-122104000D01*
X231023125Y-121931860D01*
X231018352Y-121813001D01*
X231010840Y-121737213D01*
X230998723Y-121694285D01*
X230980138Y-121674006D01*
X230953222Y-121666166D01*
X230946937Y-121665229D01*
X230894025Y-121642456D01*
X230876061Y-121582647D01*
X230875500Y-121560850D01*
X230875500Y-121466617D01*
X231169187Y-121475746D01*
G37*
X231169187Y-121475746D02*
X231306759Y-121480647D01*
X231393311Y-121487530D01*
X231441296Y-121500258D01*
X231463164Y-121522693D01*
X231471368Y-121558698D01*
X231472700Y-121569896D01*
X231470050Y-121632727D01*
X231430006Y-121659232D01*
X231393325Y-121665146D01*
X231304125Y-121675375D01*
X231295568Y-122365937D01*
X231287011Y-123056500D01*
X231168568Y-123056232D01*
X231131762Y-123057137D01*
X231102211Y-123055835D01*
X231075534Y-123046022D01*
X231047349Y-123021393D01*
X231013276Y-122975642D01*
X230968935Y-122902464D01*
X230909945Y-122795554D01*
X230831925Y-122648608D01*
X230730494Y-122455319D01*
X230666996Y-122334308D01*
X230462750Y-121945492D01*
X230462750Y-122866000D01*
X230542125Y-122866000D01*
X230598852Y-122876251D01*
X230619604Y-122919829D01*
X230621500Y-122961250D01*
X230621500Y-123056500D01*
X230014032Y-123056500D01*
X230024078Y-122970443D01*
X230053529Y-122896355D01*
X230113500Y-122865824D01*
X230192875Y-122847262D01*
X230192875Y-121675375D01*
X230103674Y-121665146D01*
X230040009Y-121648399D01*
X230022005Y-121605247D01*
X230024299Y-121569896D01*
X230032877Y-121525312D01*
X230055378Y-121499120D01*
X230106272Y-121485478D01*
X230200027Y-121478544D01*
X230256375Y-121476199D01*
X230478625Y-121467524D01*
X230553262Y-121603199D01*
X230595804Y-121682431D01*
X230659245Y-121802949D01*
X230735601Y-121949489D01*
X230816891Y-122106787D01*
X230831782Y-122135750D01*
X231035666Y-122532625D01*
X231027020Y-122104000D01*
X231023125Y-121931860D01*
X231018352Y-121813001D01*
X231010840Y-121737213D01*
X230998723Y-121694285D01*
X230980138Y-121674006D01*
X230953222Y-121666166D01*
X230946937Y-121665229D01*
X230894025Y-121642456D01*
X230876061Y-121582647D01*
X230875500Y-121560850D01*
X230875500Y-121466617D01*
X231169187Y-121475746D01*
G36*
X232526500Y-121562041D02*
G01*
X232514565Y-121633014D01*
X232470016Y-121662501D01*
X232455062Y-121665229D01*
X232430102Y-121670458D01*
X232411615Y-121683770D01*
X232398462Y-121713775D01*
X232389506Y-121769083D01*
X232383607Y-121858307D01*
X232379626Y-121990055D01*
X232376425Y-122172939D01*
X232374986Y-122270687D01*
X232366348Y-122866000D01*
X232446424Y-122866000D01*
X232503618Y-122876113D01*
X232524554Y-122919324D01*
X232526500Y-122961250D01*
X232526500Y-123056500D01*
X231891500Y-123056500D01*
X231891500Y-122961250D01*
X231900002Y-122893217D01*
X231936328Y-122868313D01*
X231971575Y-122866000D01*
X232051651Y-122866000D01*
X232043013Y-122270687D01*
X232039795Y-122062858D01*
X232036293Y-121909913D01*
X232031369Y-121803240D01*
X232023883Y-121734230D01*
X232012697Y-121694271D01*
X231996672Y-121674752D01*
X231974669Y-121667063D01*
X231962937Y-121665229D01*
X231909746Y-121642130D01*
X231891963Y-121581583D01*
X231891500Y-121562041D01*
X231891500Y-121469000D01*
X232526500Y-121469000D01*
X232526500Y-121562041D01*
G37*
X232526500Y-121562041D02*
X232514565Y-121633014D01*
X232470016Y-121662501D01*
X232455062Y-121665229D01*
X232430102Y-121670458D01*
X232411615Y-121683770D01*
X232398462Y-121713775D01*
X232389506Y-121769083D01*
X232383607Y-121858307D01*
X232379626Y-121990055D01*
X232376425Y-122172939D01*
X232374986Y-122270687D01*
X232366348Y-122866000D01*
X232446424Y-122866000D01*
X232503618Y-122876113D01*
X232524554Y-122919324D01*
X232526500Y-122961250D01*
X232526500Y-123056500D01*
X231891500Y-123056500D01*
X231891500Y-122961250D01*
X231900002Y-122893217D01*
X231936328Y-122868313D01*
X231971575Y-122866000D01*
X232051651Y-122866000D01*
X232043013Y-122270687D01*
X232039795Y-122062858D01*
X232036293Y-121909913D01*
X232031369Y-121803240D01*
X232023883Y-121734230D01*
X232012697Y-121694271D01*
X231996672Y-121674752D01*
X231974669Y-121667063D01*
X231962937Y-121665229D01*
X231909746Y-121642130D01*
X231891963Y-121581583D01*
X231891500Y-121562041D01*
X231891500Y-121469000D01*
X232526500Y-121469000D01*
X232526500Y-121562041D01*
G36*
X235733250Y-121881750D02*
G01*
X235606250Y-121881750D01*
X235524838Y-121878038D01*
X235488648Y-121857628D01*
X235479463Y-121806609D01*
X235479250Y-121784760D01*
X235476093Y-121726547D01*
X235455453Y-121699415D01*
X235400576Y-121693665D01*
X235328437Y-121697447D01*
X235177625Y-121707125D01*
X235177625Y-122088125D01*
X235622125Y-122119875D01*
X235622125Y-122342125D01*
X235177625Y-122373875D01*
X235177625Y-122818375D01*
X235326302Y-122827964D01*
X235416534Y-122831570D01*
X235461463Y-122819835D01*
X235479126Y-122781938D01*
X235485052Y-122732714D01*
X235498053Y-122663046D01*
X235532552Y-122631029D01*
X235609054Y-122618452D01*
X235614187Y-122618020D01*
X235733250Y-122608166D01*
X235733250Y-123056500D01*
X234685500Y-123056500D01*
X234685500Y-122963358D01*
X234695757Y-122894614D01*
X234738894Y-122865810D01*
X234772812Y-122860171D01*
X234860125Y-122850125D01*
X234860125Y-121675375D01*
X234772812Y-121665328D01*
X234709475Y-121647098D01*
X234687127Y-121598510D01*
X234685500Y-121562141D01*
X234685500Y-121469000D01*
X235733250Y-121469000D01*
X235733250Y-121881750D01*
G37*
X235733250Y-121881750D02*
X235606250Y-121881750D01*
X235524838Y-121878038D01*
X235488648Y-121857628D01*
X235479463Y-121806609D01*
X235479250Y-121784760D01*
X235476093Y-121726547D01*
X235455453Y-121699415D01*
X235400576Y-121693665D01*
X235328437Y-121697447D01*
X235177625Y-121707125D01*
X235177625Y-122088125D01*
X235622125Y-122119875D01*
X235622125Y-122342125D01*
X235177625Y-122373875D01*
X235177625Y-122818375D01*
X235326302Y-122827964D01*
X235416534Y-122831570D01*
X235461463Y-122819835D01*
X235479126Y-122781938D01*
X235485052Y-122732714D01*
X235498053Y-122663046D01*
X235532552Y-122631029D01*
X235609054Y-122618452D01*
X235614187Y-122618020D01*
X235733250Y-122608166D01*
X235733250Y-123056500D01*
X234685500Y-123056500D01*
X234685500Y-122963358D01*
X234695757Y-122894614D01*
X234738894Y-122865810D01*
X234772812Y-122860171D01*
X234860125Y-122850125D01*
X234860125Y-121675375D01*
X234772812Y-121665328D01*
X234709475Y-121647098D01*
X234687127Y-121598510D01*
X234685500Y-121562141D01*
X234685500Y-121469000D01*
X235733250Y-121469000D01*
X235733250Y-121881750D01*
G36*
X236762440Y-121473349D02*
G01*
X236927253Y-121487936D01*
X237047602Y-121515066D01*
X237132757Y-121557044D01*
X237191988Y-121616177D01*
X237203286Y-121633035D01*
X237261933Y-121781442D01*
X237271648Y-121944778D01*
X237234766Y-122103584D01*
X237153619Y-122238399D01*
X237127486Y-122265331D01*
X237068799Y-122325369D01*
X237036917Y-122368134D01*
X237035000Y-122374545D01*
X237049728Y-122410826D01*
X237088986Y-122487740D01*
X237145378Y-122591024D01*
X237168317Y-122631681D01*
X237240798Y-122752374D01*
X237295608Y-122825033D01*
X237341354Y-122859430D01*
X237374692Y-122866000D01*
X237427254Y-122877702D01*
X237446324Y-122925102D01*
X237447750Y-122961250D01*
X237445226Y-123014093D01*
X237427646Y-123042546D01*
X237379998Y-123054159D01*
X237287269Y-123056484D01*
X237258405Y-123056500D01*
X237069060Y-123056500D01*
X236901217Y-122731062D01*
X236819810Y-122581759D01*
X236750509Y-122471565D01*
X236698291Y-122407956D01*
X236677812Y-122395359D01*
X236649438Y-122397182D01*
X236632687Y-122423772D01*
X236624617Y-122487320D01*
X236622287Y-122600015D01*
X236622250Y-122625546D01*
X236623216Y-122747388D01*
X236629044Y-122819043D01*
X236644129Y-122853822D01*
X236672864Y-122865039D01*
X236701625Y-122866000D01*
X236758352Y-122876251D01*
X236779104Y-122919829D01*
X236781000Y-122961250D01*
X236781000Y-123056500D01*
X236146000Y-123056500D01*
X236146000Y-122963458D01*
X236157934Y-122892485D01*
X236202483Y-122862998D01*
X236217437Y-122860270D01*
X236242517Y-122855156D01*
X236260910Y-122842203D01*
X236273653Y-122812740D01*
X236281782Y-122758096D01*
X236286335Y-122669599D01*
X236288349Y-122538577D01*
X236288859Y-122356358D01*
X236288875Y-122262750D01*
X236288686Y-122056512D01*
X236287428Y-121905102D01*
X236284065Y-121799849D01*
X236277559Y-121732082D01*
X236266875Y-121693127D01*
X236265289Y-121691250D01*
X236622250Y-121691250D01*
X236622250Y-122167500D01*
X236718943Y-122167500D01*
X236827768Y-122138381D01*
X236893568Y-122089568D01*
X236958722Y-121988479D01*
X236970064Y-121883239D01*
X236933574Y-121788720D01*
X236855236Y-121719798D01*
X236741031Y-121691345D01*
X236733375Y-121691250D01*
X236622250Y-121691250D01*
X236265289Y-121691250D01*
X236250974Y-121674315D01*
X236228822Y-121666973D01*
X236217437Y-121665229D01*
X236164246Y-121642130D01*
X236146463Y-121581583D01*
X236146000Y-121562041D01*
X236146000Y-121469000D01*
X236543894Y-121469000D01*
X236762440Y-121473349D01*
G37*
X236762440Y-121473349D02*
X236927253Y-121487936D01*
X237047602Y-121515066D01*
X237132757Y-121557044D01*
X237191988Y-121616177D01*
X237203286Y-121633035D01*
X237261933Y-121781442D01*
X237271648Y-121944778D01*
X237234766Y-122103584D01*
X237153619Y-122238399D01*
X237127486Y-122265331D01*
X237068799Y-122325369D01*
X237036917Y-122368134D01*
X237035000Y-122374545D01*
X237049728Y-122410826D01*
X237088986Y-122487740D01*
X237145378Y-122591024D01*
X237168317Y-122631681D01*
X237240798Y-122752374D01*
X237295608Y-122825033D01*
X237341354Y-122859430D01*
X237374692Y-122866000D01*
X237427254Y-122877702D01*
X237446324Y-122925102D01*
X237447750Y-122961250D01*
X237445226Y-123014093D01*
X237427646Y-123042546D01*
X237379998Y-123054159D01*
X237287269Y-123056484D01*
X237258405Y-123056500D01*
X237069060Y-123056500D01*
X236901217Y-122731062D01*
X236819810Y-122581759D01*
X236750509Y-122471565D01*
X236698291Y-122407956D01*
X236677812Y-122395359D01*
X236649438Y-122397182D01*
X236632687Y-122423772D01*
X236624617Y-122487320D01*
X236622287Y-122600015D01*
X236622250Y-122625546D01*
X236623216Y-122747388D01*
X236629044Y-122819043D01*
X236644129Y-122853822D01*
X236672864Y-122865039D01*
X236701625Y-122866000D01*
X236758352Y-122876251D01*
X236779104Y-122919829D01*
X236781000Y-122961250D01*
X236781000Y-123056500D01*
X236146000Y-123056500D01*
X236146000Y-122963458D01*
X236157934Y-122892485D01*
X236202483Y-122862998D01*
X236217437Y-122860270D01*
X236242517Y-122855156D01*
X236260910Y-122842203D01*
X236273653Y-122812740D01*
X236281782Y-122758096D01*
X236286335Y-122669599D01*
X236288349Y-122538577D01*
X236288859Y-122356358D01*
X236288875Y-122262750D01*
X236288686Y-122056512D01*
X236287428Y-121905102D01*
X236284065Y-121799849D01*
X236277559Y-121732082D01*
X236266875Y-121693127D01*
X236265289Y-121691250D01*
X236622250Y-121691250D01*
X236622250Y-122167500D01*
X236718943Y-122167500D01*
X236827768Y-122138381D01*
X236893568Y-122089568D01*
X236958722Y-121988479D01*
X236970064Y-121883239D01*
X236933574Y-121788720D01*
X236855236Y-121719798D01*
X236741031Y-121691345D01*
X236733375Y-121691250D01*
X236622250Y-121691250D01*
X236265289Y-121691250D01*
X236250974Y-121674315D01*
X236228822Y-121666973D01*
X236217437Y-121665229D01*
X236164246Y-121642130D01*
X236146463Y-121581583D01*
X236146000Y-121562041D01*
X236146000Y-121469000D01*
X236543894Y-121469000D01*
X236762440Y-121473349D01*
G36*
X239797250Y-121562041D02*
G01*
X239785315Y-121633014D01*
X239740766Y-121662501D01*
X239725812Y-121665229D01*
X239700852Y-121670458D01*
X239682365Y-121683770D01*
X239669212Y-121713775D01*
X239660256Y-121769083D01*
X239654357Y-121858307D01*
X239650376Y-121990055D01*
X239647175Y-122172939D01*
X239645736Y-122270687D01*
X239637098Y-122866000D01*
X239717174Y-122866000D01*
X239774368Y-122876113D01*
X239795304Y-122919324D01*
X239797250Y-122961250D01*
X239797250Y-123056500D01*
X239162250Y-123056500D01*
X239162250Y-122961250D01*
X239170752Y-122893217D01*
X239207078Y-122868313D01*
X239242325Y-122866000D01*
X239322401Y-122866000D01*
X239313763Y-122270687D01*
X239310545Y-122062858D01*
X239307043Y-121909913D01*
X239302119Y-121803240D01*
X239294633Y-121734230D01*
X239283447Y-121694271D01*
X239267422Y-121674752D01*
X239245419Y-121667063D01*
X239233687Y-121665229D01*
X239180496Y-121642130D01*
X239162713Y-121581583D01*
X239162250Y-121562041D01*
X239162250Y-121469000D01*
X239797250Y-121469000D01*
X239797250Y-121562041D01*
G37*
X239797250Y-121562041D02*
X239785315Y-121633014D01*
X239740766Y-121662501D01*
X239725812Y-121665229D01*
X239700852Y-121670458D01*
X239682365Y-121683770D01*
X239669212Y-121713775D01*
X239660256Y-121769083D01*
X239654357Y-121858307D01*
X239650376Y-121990055D01*
X239647175Y-122172939D01*
X239645736Y-122270687D01*
X239637098Y-122866000D01*
X239717174Y-122866000D01*
X239774368Y-122876113D01*
X239795304Y-122919324D01*
X239797250Y-122961250D01*
X239797250Y-123056500D01*
X239162250Y-123056500D01*
X239162250Y-122961250D01*
X239170752Y-122893217D01*
X239207078Y-122868313D01*
X239242325Y-122866000D01*
X239322401Y-122866000D01*
X239313763Y-122270687D01*
X239310545Y-122062858D01*
X239307043Y-121909913D01*
X239302119Y-121803240D01*
X239294633Y-121734230D01*
X239283447Y-121694271D01*
X239267422Y-121674752D01*
X239245419Y-121667063D01*
X239233687Y-121665229D01*
X239180496Y-121642130D01*
X239162713Y-121581583D01*
X239162250Y-121562041D01*
X239162250Y-121469000D01*
X239797250Y-121469000D01*
X239797250Y-121562041D01*
G36*
X240662437Y-121469697D02*
G01*
X240847963Y-121471661D01*
X240983722Y-121477849D01*
X241083387Y-121489768D01*
X241160634Y-121508928D01*
X241216199Y-121530811D01*
X241330675Y-121604345D01*
X241413463Y-121710896D01*
X241468388Y-121858620D01*
X241499277Y-122055676D01*
X241505651Y-122147990D01*
X241503473Y-122424333D01*
X241465941Y-122648989D01*
X241392506Y-122823384D01*
X241282620Y-122948943D01*
X241172939Y-123013192D01*
X241078018Y-123036115D01*
X240922857Y-123050461D01*
X240706223Y-123056333D01*
X240655519Y-123056500D01*
X240241750Y-123056500D01*
X240241750Y-122961250D01*
X240250292Y-122893177D01*
X240286607Y-122868274D01*
X240321125Y-122866000D01*
X240400500Y-122866000D01*
X240400500Y-122281757D01*
X240718000Y-122281757D01*
X240718000Y-122842508D01*
X240867764Y-122825627D01*
X240990949Y-122797504D01*
X241075710Y-122740283D01*
X241087980Y-122726843D01*
X241151538Y-122608308D01*
X241186043Y-122435617D01*
X241191076Y-122211292D01*
X241186738Y-122133772D01*
X241163968Y-121964545D01*
X241119819Y-121846287D01*
X241047971Y-121768280D01*
X240942761Y-121720001D01*
X240866153Y-121698383D01*
X240809291Y-121690844D01*
X240769233Y-121704739D01*
X240743036Y-121747424D01*
X240727755Y-121826255D01*
X240720449Y-121948588D01*
X240718175Y-122121779D01*
X240718000Y-122281757D01*
X240400500Y-122281757D01*
X240400500Y-121659500D01*
X240321125Y-121659500D01*
X240264397Y-121649248D01*
X240243645Y-121605670D01*
X240241750Y-121564250D01*
X240241750Y-121469000D01*
X240662437Y-121469697D01*
G37*
X240662437Y-121469697D02*
X240847963Y-121471661D01*
X240983722Y-121477849D01*
X241083387Y-121489768D01*
X241160634Y-121508928D01*
X241216199Y-121530811D01*
X241330675Y-121604345D01*
X241413463Y-121710896D01*
X241468388Y-121858620D01*
X241499277Y-122055676D01*
X241505651Y-122147990D01*
X241503473Y-122424333D01*
X241465941Y-122648989D01*
X241392506Y-122823384D01*
X241282620Y-122948943D01*
X241172939Y-123013192D01*
X241078018Y-123036115D01*
X240922857Y-123050461D01*
X240706223Y-123056333D01*
X240655519Y-123056500D01*
X240241750Y-123056500D01*
X240241750Y-122961250D01*
X240250292Y-122893177D01*
X240286607Y-122868274D01*
X240321125Y-122866000D01*
X240400500Y-122866000D01*
X240400500Y-122281757D01*
X240718000Y-122281757D01*
X240718000Y-122842508D01*
X240867764Y-122825627D01*
X240990949Y-122797504D01*
X241075710Y-122740283D01*
X241087980Y-122726843D01*
X241151538Y-122608308D01*
X241186043Y-122435617D01*
X241191076Y-122211292D01*
X241186738Y-122133772D01*
X241163968Y-121964545D01*
X241119819Y-121846287D01*
X241047971Y-121768280D01*
X240942761Y-121720001D01*
X240866153Y-121698383D01*
X240809291Y-121690844D01*
X240769233Y-121704739D01*
X240743036Y-121747424D01*
X240727755Y-121826255D01*
X240720449Y-121948588D01*
X240718175Y-122121779D01*
X240718000Y-122281757D01*
X240400500Y-122281757D01*
X240400500Y-121659500D01*
X240321125Y-121659500D01*
X240264397Y-121649248D01*
X240243645Y-121605670D01*
X240241750Y-121564250D01*
X240241750Y-121469000D01*
X240662437Y-121469697D01*
G36*
X242655481Y-121697591D02*
G01*
X242694162Y-121828356D01*
X242745735Y-122000865D01*
X242804475Y-122196151D01*
X242864661Y-122395250D01*
X242920568Y-122579195D01*
X242966473Y-122729018D01*
X242976922Y-122762812D01*
X243019403Y-122843969D01*
X243069962Y-122866000D01*
X243114941Y-122882144D01*
X243130542Y-122940719D01*
X243131000Y-122961250D01*
X243131000Y-123056500D01*
X242559500Y-123056500D01*
X242559500Y-122961250D01*
X242573699Y-122885630D01*
X242607125Y-122866000D01*
X242645575Y-122838914D01*
X242654263Y-122794562D01*
X242644841Y-122716208D01*
X242609954Y-122670397D01*
X242537692Y-122650358D01*
X242416146Y-122649322D01*
X242400022Y-122650041D01*
X242289936Y-122657139D01*
X242226944Y-122670051D01*
X242194656Y-122696073D01*
X242176682Y-122742498D01*
X242174549Y-122750386D01*
X242164752Y-122818038D01*
X242189727Y-122849678D01*
X242212073Y-122857277D01*
X242261263Y-122895474D01*
X242273750Y-122964953D01*
X242273750Y-123056500D01*
X241734000Y-123056500D01*
X241734000Y-122963578D01*
X241751009Y-122885082D01*
X241788220Y-122860214D01*
X241811883Y-122840573D01*
X241841960Y-122786110D01*
X241880547Y-122691285D01*
X241929741Y-122550563D01*
X241971739Y-122420185D01*
X242257780Y-122420185D01*
X242259091Y-122423468D01*
X242300861Y-122442917D01*
X242377430Y-122451954D01*
X242461225Y-122450289D01*
X242524671Y-122437630D01*
X242540576Y-122426433D01*
X242541218Y-122385161D01*
X242528510Y-122298540D01*
X242505015Y-122182693D01*
X242494824Y-122138671D01*
X242465930Y-122010642D01*
X242444150Y-121900705D01*
X242433150Y-121827824D01*
X242432500Y-121816238D01*
X242418815Y-121765748D01*
X242400750Y-121754750D01*
X242377771Y-121782162D01*
X242369000Y-121842700D01*
X242360579Y-121916510D01*
X242338426Y-122027880D01*
X242307202Y-122153595D01*
X242304843Y-122162169D01*
X242276275Y-122277188D01*
X242259574Y-122368983D01*
X242257780Y-122420185D01*
X241971739Y-122420185D01*
X241991640Y-122358407D01*
X242050681Y-122167323D01*
X242258922Y-121484875D01*
X242587610Y-121465807D01*
X242655481Y-121697591D01*
G37*
X242655481Y-121697591D02*
X242694162Y-121828356D01*
X242745735Y-122000865D01*
X242804475Y-122196151D01*
X242864661Y-122395250D01*
X242920568Y-122579195D01*
X242966473Y-122729018D01*
X242976922Y-122762812D01*
X243019403Y-122843969D01*
X243069962Y-122866000D01*
X243114941Y-122882144D01*
X243130542Y-122940719D01*
X243131000Y-122961250D01*
X243131000Y-123056500D01*
X242559500Y-123056500D01*
X242559500Y-122961250D01*
X242573699Y-122885630D01*
X242607125Y-122866000D01*
X242645575Y-122838914D01*
X242654263Y-122794562D01*
X242644841Y-122716208D01*
X242609954Y-122670397D01*
X242537692Y-122650358D01*
X242416146Y-122649322D01*
X242400022Y-122650041D01*
X242289936Y-122657139D01*
X242226944Y-122670051D01*
X242194656Y-122696073D01*
X242176682Y-122742498D01*
X242174549Y-122750386D01*
X242164752Y-122818038D01*
X242189727Y-122849678D01*
X242212073Y-122857277D01*
X242261263Y-122895474D01*
X242273750Y-122964953D01*
X242273750Y-123056500D01*
X241734000Y-123056500D01*
X241734000Y-122963578D01*
X241751009Y-122885082D01*
X241788220Y-122860214D01*
X241811883Y-122840573D01*
X241841960Y-122786110D01*
X241880547Y-122691285D01*
X241929741Y-122550563D01*
X241971739Y-122420185D01*
X242257780Y-122420185D01*
X242259091Y-122423468D01*
X242300861Y-122442917D01*
X242377430Y-122451954D01*
X242461225Y-122450289D01*
X242524671Y-122437630D01*
X242540576Y-122426433D01*
X242541218Y-122385161D01*
X242528510Y-122298540D01*
X242505015Y-122182693D01*
X242494824Y-122138671D01*
X242465930Y-122010642D01*
X242444150Y-121900705D01*
X242433150Y-121827824D01*
X242432500Y-121816238D01*
X242418815Y-121765748D01*
X242400750Y-121754750D01*
X242377771Y-121782162D01*
X242369000Y-121842700D01*
X242360579Y-121916510D01*
X242338426Y-122027880D01*
X242307202Y-122153595D01*
X242304843Y-122162169D01*
X242276275Y-122277188D01*
X242259574Y-122368983D01*
X242257780Y-122420185D01*
X241971739Y-122420185D01*
X241991640Y-122358407D01*
X242050681Y-122167323D01*
X242258922Y-121484875D01*
X242587610Y-121465807D01*
X242655481Y-121697591D01*
G36*
X243805687Y-121469697D02*
G01*
X244031716Y-121474246D01*
X244204458Y-121489277D01*
X244333727Y-121518140D01*
X244429332Y-121564184D01*
X244501086Y-121630759D01*
X244558801Y-121721214D01*
X244562293Y-121727986D01*
X244615794Y-121878317D01*
X244646001Y-122061770D01*
X244653767Y-122261803D01*
X244639947Y-122461877D01*
X244605393Y-122645449D01*
X244550959Y-122795979D01*
X244503353Y-122870634D01*
X244434985Y-122941029D01*
X244359032Y-122991559D01*
X244263862Y-123025291D01*
X244137845Y-123045295D01*
X243969347Y-123054638D01*
X243798769Y-123056500D01*
X243385000Y-123056500D01*
X243385000Y-122963358D01*
X243395257Y-122894614D01*
X243438394Y-122865810D01*
X243472312Y-122860171D01*
X243559625Y-122850125D01*
X243568690Y-122326250D01*
X243569316Y-122281757D01*
X243861250Y-122281757D01*
X243861250Y-122842508D01*
X244011014Y-122825627D01*
X244134552Y-122797352D01*
X244219370Y-122739895D01*
X244230850Y-122727284D01*
X244285565Y-122625007D01*
X244320932Y-122475565D01*
X244334863Y-122292903D01*
X244325640Y-122094485D01*
X244298583Y-121936203D01*
X244251442Y-121828134D01*
X244176490Y-121758208D01*
X244086011Y-121720001D01*
X244009403Y-121698383D01*
X243952541Y-121690844D01*
X243912483Y-121704739D01*
X243886286Y-121747424D01*
X243871005Y-121826255D01*
X243863699Y-121948588D01*
X243861425Y-122121779D01*
X243861250Y-122281757D01*
X243569316Y-122281757D01*
X243571823Y-122103908D01*
X243571647Y-121937126D01*
X243566916Y-121817995D01*
X243556386Y-121738608D01*
X243538814Y-121691058D01*
X243512954Y-121667438D01*
X243477563Y-121659839D01*
X243463770Y-121659500D01*
X243407445Y-121649126D01*
X243386852Y-121605222D01*
X243385000Y-121564250D01*
X243385000Y-121469000D01*
X243805687Y-121469697D01*
G37*
X243805687Y-121469697D02*
X244031716Y-121474246D01*
X244204458Y-121489277D01*
X244333727Y-121518140D01*
X244429332Y-121564184D01*
X244501086Y-121630759D01*
X244558801Y-121721214D01*
X244562293Y-121727986D01*
X244615794Y-121878317D01*
X244646001Y-122061770D01*
X244653767Y-122261803D01*
X244639947Y-122461877D01*
X244605393Y-122645449D01*
X244550959Y-122795979D01*
X244503353Y-122870634D01*
X244434985Y-122941029D01*
X244359032Y-122991559D01*
X244263862Y-123025291D01*
X244137845Y-123045295D01*
X243969347Y-123054638D01*
X243798769Y-123056500D01*
X243385000Y-123056500D01*
X243385000Y-122963358D01*
X243395257Y-122894614D01*
X243438394Y-122865810D01*
X243472312Y-122860171D01*
X243559625Y-122850125D01*
X243568690Y-122326250D01*
X243569316Y-122281757D01*
X243861250Y-122281757D01*
X243861250Y-122842508D01*
X244011014Y-122825627D01*
X244134552Y-122797352D01*
X244219370Y-122739895D01*
X244230850Y-122727284D01*
X244285565Y-122625007D01*
X244320932Y-122475565D01*
X244334863Y-122292903D01*
X244325640Y-122094485D01*
X244298583Y-121936203D01*
X244251442Y-121828134D01*
X244176490Y-121758208D01*
X244086011Y-121720001D01*
X244009403Y-121698383D01*
X243952541Y-121690844D01*
X243912483Y-121704739D01*
X243886286Y-121747424D01*
X243871005Y-121826255D01*
X243863699Y-121948588D01*
X243861425Y-122121779D01*
X243861250Y-122281757D01*
X243569316Y-122281757D01*
X243571823Y-122103908D01*
X243571647Y-121937126D01*
X243566916Y-121817995D01*
X243556386Y-121738608D01*
X243538814Y-121691058D01*
X243512954Y-121667438D01*
X243477563Y-121659839D01*
X243463770Y-121659500D01*
X243407445Y-121649126D01*
X243386852Y-121605222D01*
X243385000Y-121564250D01*
X243385000Y-121469000D01*
X243805687Y-121469697D01*
G36*
X229680115Y-115962628D02*
G01*
X230179295Y-116019099D01*
X230614500Y-116091406D01*
X230686876Y-116104930D01*
X230666063Y-116620027D01*
X230654988Y-116841581D01*
X230642068Y-117008000D01*
X230627624Y-117117652D01*
X230611977Y-117168909D01*
X230595450Y-117160141D01*
X230578364Y-117089717D01*
X230576089Y-117075760D01*
X230558423Y-116962635D01*
X230541737Y-116854980D01*
X230514819Y-116765945D01*
X230464614Y-116657996D01*
X230433233Y-116604010D01*
X230316274Y-116473985D01*
X230147793Y-116362525D01*
X229937534Y-116271508D01*
X229695243Y-116202811D01*
X229430665Y-116158315D01*
X229153547Y-116139896D01*
X228873634Y-116149434D01*
X228600671Y-116188806D01*
X228458599Y-116223415D01*
X228167623Y-116335562D01*
X227918948Y-116494840D01*
X227712986Y-116700658D01*
X227550150Y-116952422D01*
X227430854Y-117249538D01*
X227355512Y-117591414D01*
X227329907Y-117843878D01*
X227335323Y-118229234D01*
X227397004Y-118593646D01*
X227512243Y-118932616D01*
X227678332Y-119241647D01*
X227892563Y-119516242D01*
X228152229Y-119751902D01*
X228454622Y-119944132D01*
X228648501Y-120033945D01*
X228885038Y-120109357D01*
X229147981Y-120151774D01*
X229449857Y-120162868D01*
X229585152Y-120158872D01*
X229854728Y-120136304D01*
X230071234Y-120091482D01*
X230243117Y-120017902D01*
X230378823Y-119909061D01*
X230486798Y-119758455D01*
X230575487Y-119559582D01*
X230642944Y-119344378D01*
X230666496Y-119318209D01*
X230686897Y-119330947D01*
X230695317Y-119374075D01*
X230692956Y-119464996D01*
X230681631Y-119589267D01*
X230663158Y-119732442D01*
X230639356Y-119880078D01*
X230612040Y-120017729D01*
X230588687Y-120111636D01*
X230556082Y-120189997D01*
X230502004Y-120249624D01*
X230416108Y-120296007D01*
X230288046Y-120334638D01*
X230107473Y-120371009D01*
X230096319Y-120372964D01*
X229929342Y-120393999D01*
X229720228Y-120408371D01*
X229489015Y-120415825D01*
X229255741Y-120416104D01*
X229040446Y-120408950D01*
X228863166Y-120394106D01*
X228827625Y-120389238D01*
X228422877Y-120301019D01*
X228060411Y-120166313D01*
X227741466Y-119986354D01*
X227467278Y-119762374D01*
X227239086Y-119495607D01*
X227058128Y-119187288D01*
X226925643Y-118838648D01*
X226842868Y-118450921D01*
X226836866Y-118406062D01*
X226819037Y-118241719D01*
X226814073Y-118109579D01*
X226822650Y-117980052D01*
X226845442Y-117823544D01*
X226850888Y-117791496D01*
X226943325Y-117414153D01*
X227083194Y-117073657D01*
X227268122Y-116773094D01*
X227495737Y-116515549D01*
X227763667Y-116304109D01*
X228069540Y-116141858D01*
X228141082Y-116113299D01*
X228461042Y-116019114D01*
X228822916Y-115962619D01*
X229228631Y-115943796D01*
X229680115Y-115962628D01*
G37*
X229680115Y-115962628D02*
X230179295Y-116019099D01*
X230614500Y-116091406D01*
X230686876Y-116104930D01*
X230666063Y-116620027D01*
X230654988Y-116841581D01*
X230642068Y-117008000D01*
X230627624Y-117117652D01*
X230611977Y-117168909D01*
X230595450Y-117160141D01*
X230578364Y-117089717D01*
X230576089Y-117075760D01*
X230558423Y-116962635D01*
X230541737Y-116854980D01*
X230514819Y-116765945D01*
X230464614Y-116657996D01*
X230433233Y-116604010D01*
X230316274Y-116473985D01*
X230147793Y-116362525D01*
X229937534Y-116271508D01*
X229695243Y-116202811D01*
X229430665Y-116158315D01*
X229153547Y-116139896D01*
X228873634Y-116149434D01*
X228600671Y-116188806D01*
X228458599Y-116223415D01*
X228167623Y-116335562D01*
X227918948Y-116494840D01*
X227712986Y-116700658D01*
X227550150Y-116952422D01*
X227430854Y-117249538D01*
X227355512Y-117591414D01*
X227329907Y-117843878D01*
X227335323Y-118229234D01*
X227397004Y-118593646D01*
X227512243Y-118932616D01*
X227678332Y-119241647D01*
X227892563Y-119516242D01*
X228152229Y-119751902D01*
X228454622Y-119944132D01*
X228648501Y-120033945D01*
X228885038Y-120109357D01*
X229147981Y-120151774D01*
X229449857Y-120162868D01*
X229585152Y-120158872D01*
X229854728Y-120136304D01*
X230071234Y-120091482D01*
X230243117Y-120017902D01*
X230378823Y-119909061D01*
X230486798Y-119758455D01*
X230575487Y-119559582D01*
X230642944Y-119344378D01*
X230666496Y-119318209D01*
X230686897Y-119330947D01*
X230695317Y-119374075D01*
X230692956Y-119464996D01*
X230681631Y-119589267D01*
X230663158Y-119732442D01*
X230639356Y-119880078D01*
X230612040Y-120017729D01*
X230588687Y-120111636D01*
X230556082Y-120189997D01*
X230502004Y-120249624D01*
X230416108Y-120296007D01*
X230288046Y-120334638D01*
X230107473Y-120371009D01*
X230096319Y-120372964D01*
X229929342Y-120393999D01*
X229720228Y-120408371D01*
X229489015Y-120415825D01*
X229255741Y-120416104D01*
X229040446Y-120408950D01*
X228863166Y-120394106D01*
X228827625Y-120389238D01*
X228422877Y-120301019D01*
X228060411Y-120166313D01*
X227741466Y-119986354D01*
X227467278Y-119762374D01*
X227239086Y-119495607D01*
X227058128Y-119187288D01*
X226925643Y-118838648D01*
X226842868Y-118450921D01*
X226836866Y-118406062D01*
X226819037Y-118241719D01*
X226814073Y-118109579D01*
X226822650Y-117980052D01*
X226845442Y-117823544D01*
X226850888Y-117791496D01*
X226943325Y-117414153D01*
X227083194Y-117073657D01*
X227268122Y-116773094D01*
X227495737Y-116515549D01*
X227763667Y-116304109D01*
X228069540Y-116141858D01*
X228141082Y-116113299D01*
X228461042Y-116019114D01*
X228822916Y-115962619D01*
X229228631Y-115943796D01*
X229680115Y-115962628D01*
G36*
X233848648Y-116140761D02*
G01*
X233834132Y-116271469D01*
X233817849Y-116422583D01*
X233808867Y-116508062D01*
X233794201Y-116610774D01*
X233776285Y-116682476D01*
X233760648Y-116706500D01*
X233737102Y-116680241D01*
X233732822Y-116650937D01*
X233710945Y-116505146D01*
X233652177Y-116383144D01*
X233565367Y-116303259D01*
X233564834Y-116302973D01*
X233493666Y-116280432D01*
X233379233Y-116261413D01*
X233234579Y-116246347D01*
X233072748Y-116235665D01*
X232906785Y-116229798D01*
X232749734Y-116229178D01*
X232614639Y-116234234D01*
X232514546Y-116245399D01*
X232462499Y-116263103D01*
X232459574Y-116266454D01*
X232452103Y-116309038D01*
X232445741Y-116404316D01*
X232440543Y-116541493D01*
X232436567Y-116709770D01*
X232433866Y-116898352D01*
X232432499Y-117096442D01*
X232432519Y-117293244D01*
X232433984Y-117477959D01*
X232436948Y-117639793D01*
X232441469Y-117767948D01*
X232447601Y-117851628D01*
X232451261Y-117873312D01*
X232463364Y-117905608D01*
X232486929Y-117926223D01*
X232534169Y-117937636D01*
X232617293Y-117942324D01*
X232748513Y-117942766D01*
X232792140Y-117942491D01*
X233062749Y-117937578D01*
X233276836Y-117926439D01*
X233441159Y-117908126D01*
X233562475Y-117881692D01*
X233647543Y-117846191D01*
X233687419Y-117817051D01*
X233772467Y-117738375D01*
X233751645Y-117992375D01*
X233732789Y-118210396D01*
X233716359Y-118371454D01*
X233701413Y-118481993D01*
X233687010Y-118548461D01*
X233672209Y-118577303D01*
X233665841Y-118579750D01*
X233647151Y-118551859D01*
X233637949Y-118483420D01*
X233637750Y-118470395D01*
X233608292Y-118344527D01*
X233526508Y-118242538D01*
X233402283Y-118175573D01*
X233367875Y-118166095D01*
X233285590Y-118154411D01*
X233157872Y-118144798D01*
X233002780Y-118138309D01*
X232852542Y-118136007D01*
X232464209Y-118135250D01*
X232444185Y-118215031D01*
X232439107Y-118268107D01*
X232435453Y-118374976D01*
X232433314Y-118525945D01*
X232432782Y-118711322D01*
X232433949Y-118921412D01*
X232435948Y-119086236D01*
X232439896Y-119332119D01*
X232443997Y-119522714D01*
X232448978Y-119666232D01*
X232455565Y-119770882D01*
X232464485Y-119844875D01*
X232476464Y-119896419D01*
X232492230Y-119933726D01*
X232512509Y-119965004D01*
X232513903Y-119966892D01*
X232582841Y-120036720D01*
X232675928Y-120085265D01*
X232803758Y-120115460D01*
X232976928Y-120130237D01*
X233113875Y-120132950D01*
X233348784Y-120127856D01*
X233529932Y-120108180D01*
X233666168Y-120069919D01*
X233766341Y-120009073D01*
X233839303Y-119921637D01*
X233893903Y-119803610D01*
X233903428Y-119775894D01*
X233939208Y-119680270D01*
X233971877Y-119614946D01*
X233990740Y-119595750D01*
X234006733Y-119599934D01*
X234014988Y-119619365D01*
X234015030Y-119664356D01*
X234006381Y-119745221D01*
X233988567Y-119872273D01*
X233973200Y-119975493D01*
X233944198Y-120140217D01*
X233914390Y-120248719D01*
X233881627Y-120308262D01*
X233872107Y-120316806D01*
X233826478Y-120334297D01*
X233741522Y-120345582D01*
X233609999Y-120351133D01*
X233424670Y-120351419D01*
X233353869Y-120350492D01*
X233168690Y-120347644D01*
X232940491Y-120344223D01*
X232689743Y-120340532D01*
X232436921Y-120336873D01*
X232232812Y-120333973D01*
X232006374Y-120329334D01*
X231821768Y-120322547D01*
X231684520Y-120313949D01*
X231600156Y-120303879D01*
X231574000Y-120293605D01*
X231601625Y-120271890D01*
X231668323Y-120262509D01*
X231670693Y-120262500D01*
X231782640Y-120233057D01*
X231871427Y-120149363D01*
X231930827Y-120018365D01*
X231944519Y-119956923D01*
X231949492Y-119896307D01*
X231954160Y-119778620D01*
X231958432Y-119610290D01*
X231962219Y-119397748D01*
X231965432Y-119147420D01*
X231967983Y-118865736D01*
X231969781Y-118559126D01*
X231970739Y-118234016D01*
X231970875Y-118055875D01*
X231970595Y-117662425D01*
X231969686Y-117327955D01*
X231968043Y-117047945D01*
X231965561Y-116817876D01*
X231962136Y-116633229D01*
X231957661Y-116489485D01*
X231952034Y-116382126D01*
X231945147Y-116306631D01*
X231936898Y-116258484D01*
X231928631Y-116235499D01*
X231856615Y-116162021D01*
X231745031Y-116104459D01*
X231617621Y-116073825D01*
X231575019Y-116071500D01*
X231507680Y-116063968D01*
X231478769Y-116045795D01*
X231478750Y-116045261D01*
X231509279Y-116039096D01*
X231595991Y-116033543D01*
X231731568Y-116028768D01*
X231908693Y-116024939D01*
X232120051Y-116022225D01*
X232358324Y-116020794D01*
X232550312Y-116020663D01*
X232810738Y-116020320D01*
X233055685Y-116018589D01*
X233276673Y-116015638D01*
X233465224Y-116011634D01*
X233612860Y-116006744D01*
X233711100Y-116001136D01*
X233744867Y-115997100D01*
X233867860Y-115971897D01*
X233848648Y-116140761D01*
G37*
X233848648Y-116140761D02*
X233834132Y-116271469D01*
X233817849Y-116422583D01*
X233808867Y-116508062D01*
X233794201Y-116610774D01*
X233776285Y-116682476D01*
X233760648Y-116706500D01*
X233737102Y-116680241D01*
X233732822Y-116650937D01*
X233710945Y-116505146D01*
X233652177Y-116383144D01*
X233565367Y-116303259D01*
X233564834Y-116302973D01*
X233493666Y-116280432D01*
X233379233Y-116261413D01*
X233234579Y-116246347D01*
X233072748Y-116235665D01*
X232906785Y-116229798D01*
X232749734Y-116229178D01*
X232614639Y-116234234D01*
X232514546Y-116245399D01*
X232462499Y-116263103D01*
X232459574Y-116266454D01*
X232452103Y-116309038D01*
X232445741Y-116404316D01*
X232440543Y-116541493D01*
X232436567Y-116709770D01*
X232433866Y-116898352D01*
X232432499Y-117096442D01*
X232432519Y-117293244D01*
X232433984Y-117477959D01*
X232436948Y-117639793D01*
X232441469Y-117767948D01*
X232447601Y-117851628D01*
X232451261Y-117873312D01*
X232463364Y-117905608D01*
X232486929Y-117926223D01*
X232534169Y-117937636D01*
X232617293Y-117942324D01*
X232748513Y-117942766D01*
X232792140Y-117942491D01*
X233062749Y-117937578D01*
X233276836Y-117926439D01*
X233441159Y-117908126D01*
X233562475Y-117881692D01*
X233647543Y-117846191D01*
X233687419Y-117817051D01*
X233772467Y-117738375D01*
X233751645Y-117992375D01*
X233732789Y-118210396D01*
X233716359Y-118371454D01*
X233701413Y-118481993D01*
X233687010Y-118548461D01*
X233672209Y-118577303D01*
X233665841Y-118579750D01*
X233647151Y-118551859D01*
X233637949Y-118483420D01*
X233637750Y-118470395D01*
X233608292Y-118344527D01*
X233526508Y-118242538D01*
X233402283Y-118175573D01*
X233367875Y-118166095D01*
X233285590Y-118154411D01*
X233157872Y-118144798D01*
X233002780Y-118138309D01*
X232852542Y-118136007D01*
X232464209Y-118135250D01*
X232444185Y-118215031D01*
X232439107Y-118268107D01*
X232435453Y-118374976D01*
X232433314Y-118525945D01*
X232432782Y-118711322D01*
X232433949Y-118921412D01*
X232435948Y-119086236D01*
X232439896Y-119332119D01*
X232443997Y-119522714D01*
X232448978Y-119666232D01*
X232455565Y-119770882D01*
X232464485Y-119844875D01*
X232476464Y-119896419D01*
X232492230Y-119933726D01*
X232512509Y-119965004D01*
X232513903Y-119966892D01*
X232582841Y-120036720D01*
X232675928Y-120085265D01*
X232803758Y-120115460D01*
X232976928Y-120130237D01*
X233113875Y-120132950D01*
X233348784Y-120127856D01*
X233529932Y-120108180D01*
X233666168Y-120069919D01*
X233766341Y-120009073D01*
X233839303Y-119921637D01*
X233893903Y-119803610D01*
X233903428Y-119775894D01*
X233939208Y-119680270D01*
X233971877Y-119614946D01*
X233990740Y-119595750D01*
X234006733Y-119599934D01*
X234014988Y-119619365D01*
X234015030Y-119664356D01*
X234006381Y-119745221D01*
X233988567Y-119872273D01*
X233973200Y-119975493D01*
X233944198Y-120140217D01*
X233914390Y-120248719D01*
X233881627Y-120308262D01*
X233872107Y-120316806D01*
X233826478Y-120334297D01*
X233741522Y-120345582D01*
X233609999Y-120351133D01*
X233424670Y-120351419D01*
X233353869Y-120350492D01*
X233168690Y-120347644D01*
X232940491Y-120344223D01*
X232689743Y-120340532D01*
X232436921Y-120336873D01*
X232232812Y-120333973D01*
X232006374Y-120329334D01*
X231821768Y-120322547D01*
X231684520Y-120313949D01*
X231600156Y-120303879D01*
X231574000Y-120293605D01*
X231601625Y-120271890D01*
X231668323Y-120262509D01*
X231670693Y-120262500D01*
X231782640Y-120233057D01*
X231871427Y-120149363D01*
X231930827Y-120018365D01*
X231944519Y-119956923D01*
X231949492Y-119896307D01*
X231954160Y-119778620D01*
X231958432Y-119610290D01*
X231962219Y-119397748D01*
X231965432Y-119147420D01*
X231967983Y-118865736D01*
X231969781Y-118559126D01*
X231970739Y-118234016D01*
X231970875Y-118055875D01*
X231970595Y-117662425D01*
X231969686Y-117327955D01*
X231968043Y-117047945D01*
X231965561Y-116817876D01*
X231962136Y-116633229D01*
X231957661Y-116489485D01*
X231952034Y-116382126D01*
X231945147Y-116306631D01*
X231936898Y-116258484D01*
X231928631Y-116235499D01*
X231856615Y-116162021D01*
X231745031Y-116104459D01*
X231617621Y-116073825D01*
X231575019Y-116071500D01*
X231507680Y-116063968D01*
X231478769Y-116045795D01*
X231478750Y-116045261D01*
X231509279Y-116039096D01*
X231595991Y-116033543D01*
X231731568Y-116028768D01*
X231908693Y-116024939D01*
X232120051Y-116022225D01*
X232358324Y-116020794D01*
X232550312Y-116020663D01*
X232810738Y-116020320D01*
X233055685Y-116018589D01*
X233276673Y-116015638D01*
X233465224Y-116011634D01*
X233612860Y-116006744D01*
X233711100Y-116001136D01*
X233744867Y-115997100D01*
X233867860Y-115971897D01*
X233848648Y-116140761D01*
G36*
X244486621Y-115975359D02*
G01*
X244751046Y-115997219D01*
X244980437Y-116026577D01*
X245131250Y-116048008D01*
X245129018Y-116369316D01*
X245124256Y-116554466D01*
X245113558Y-116687837D01*
X245097927Y-116767264D01*
X245078365Y-116790582D01*
X245055874Y-116755626D01*
X245031454Y-116660232D01*
X245021032Y-116602633D01*
X244965208Y-116450682D01*
X244856826Y-116325273D01*
X244702790Y-116230673D01*
X244510005Y-116171147D01*
X244289875Y-116150952D01*
X244062043Y-116175026D01*
X243873836Y-116245063D01*
X243728611Y-116358041D01*
X243629724Y-116510943D01*
X243580535Y-116700749D01*
X243575500Y-116793355D01*
X243583066Y-116919959D01*
X243609161Y-117036533D01*
X243658876Y-117149883D01*
X243737301Y-117266813D01*
X243849530Y-117394129D01*
X244000653Y-117538636D01*
X244195762Y-117707138D01*
X244360310Y-117842260D01*
X244639765Y-118082381D01*
X244860705Y-118302989D01*
X245024528Y-118505601D01*
X245120341Y-118665670D01*
X245162942Y-118759094D01*
X245189642Y-118841819D01*
X245204059Y-118933940D01*
X245209810Y-119055552D01*
X245210618Y-119167125D01*
X245208452Y-119323710D01*
X245199674Y-119437092D01*
X245180874Y-119527488D01*
X245148640Y-119615115D01*
X245126958Y-119663060D01*
X244984999Y-119897485D01*
X244801716Y-120083831D01*
X244577530Y-120221864D01*
X244312864Y-120311355D01*
X244008138Y-120352069D01*
X243867624Y-120354560D01*
X243728593Y-120349136D01*
X243596200Y-120337928D01*
X243498415Y-120323325D01*
X243496125Y-120322818D01*
X243324674Y-120276176D01*
X243192240Y-120223530D01*
X243107880Y-120169037D01*
X243082592Y-120133035D01*
X243076384Y-120078668D01*
X243075292Y-119982383D01*
X243078446Y-119858801D01*
X243084975Y-119722541D01*
X243094009Y-119588223D01*
X243104677Y-119470467D01*
X243116108Y-119383894D01*
X243127431Y-119343124D01*
X243129711Y-119341750D01*
X243146347Y-119370293D01*
X243168079Y-119444716D01*
X243187865Y-119537067D01*
X243243157Y-119734311D01*
X243331341Y-119884953D01*
X243461173Y-120001129D01*
X243565943Y-120060935D01*
X243670866Y-120107836D01*
X243764702Y-120135241D01*
X243872158Y-120148062D01*
X244017939Y-120151211D01*
X244020000Y-120151210D01*
X244185122Y-120145925D01*
X244306040Y-120128379D01*
X244401356Y-120095688D01*
X244412619Y-120090283D01*
X244593517Y-119967593D01*
X244727646Y-119805573D01*
X244810849Y-119611972D01*
X244838968Y-119394538D01*
X244834079Y-119304689D01*
X244811944Y-119167277D01*
X244772132Y-119042428D01*
X244708601Y-118921788D01*
X244615311Y-118797004D01*
X244486221Y-118659725D01*
X244315291Y-118501595D01*
X244150836Y-118359929D01*
X243904393Y-118147173D01*
X243705475Y-117963171D01*
X243549149Y-117800892D01*
X243430483Y-117653306D01*
X243344545Y-117513383D01*
X243286403Y-117374091D01*
X243251124Y-117228400D01*
X243233775Y-117069280D01*
X243232784Y-117051318D01*
X243240309Y-116786405D01*
X243293764Y-116563242D01*
X243395582Y-116377314D01*
X243548200Y-116224106D01*
X243743520Y-116104230D01*
X243903166Y-116038243D01*
X244073211Y-115995210D01*
X244264186Y-115974469D01*
X244486621Y-115975359D01*
G37*
X244486621Y-115975359D02*
X244751046Y-115997219D01*
X244980437Y-116026577D01*
X245131250Y-116048008D01*
X245129018Y-116369316D01*
X245124256Y-116554466D01*
X245113558Y-116687837D01*
X245097927Y-116767264D01*
X245078365Y-116790582D01*
X245055874Y-116755626D01*
X245031454Y-116660232D01*
X245021032Y-116602633D01*
X244965208Y-116450682D01*
X244856826Y-116325273D01*
X244702790Y-116230673D01*
X244510005Y-116171147D01*
X244289875Y-116150952D01*
X244062043Y-116175026D01*
X243873836Y-116245063D01*
X243728611Y-116358041D01*
X243629724Y-116510943D01*
X243580535Y-116700749D01*
X243575500Y-116793355D01*
X243583066Y-116919959D01*
X243609161Y-117036533D01*
X243658876Y-117149883D01*
X243737301Y-117266813D01*
X243849530Y-117394129D01*
X244000653Y-117538636D01*
X244195762Y-117707138D01*
X244360310Y-117842260D01*
X244639765Y-118082381D01*
X244860705Y-118302989D01*
X245024528Y-118505601D01*
X245120341Y-118665670D01*
X245162942Y-118759094D01*
X245189642Y-118841819D01*
X245204059Y-118933940D01*
X245209810Y-119055552D01*
X245210618Y-119167125D01*
X245208452Y-119323710D01*
X245199674Y-119437092D01*
X245180874Y-119527488D01*
X245148640Y-119615115D01*
X245126958Y-119663060D01*
X244984999Y-119897485D01*
X244801716Y-120083831D01*
X244577530Y-120221864D01*
X244312864Y-120311355D01*
X244008138Y-120352069D01*
X243867624Y-120354560D01*
X243728593Y-120349136D01*
X243596200Y-120337928D01*
X243498415Y-120323325D01*
X243496125Y-120322818D01*
X243324674Y-120276176D01*
X243192240Y-120223530D01*
X243107880Y-120169037D01*
X243082592Y-120133035D01*
X243076384Y-120078668D01*
X243075292Y-119982383D01*
X243078446Y-119858801D01*
X243084975Y-119722541D01*
X243094009Y-119588223D01*
X243104677Y-119470467D01*
X243116108Y-119383894D01*
X243127431Y-119343124D01*
X243129711Y-119341750D01*
X243146347Y-119370293D01*
X243168079Y-119444716D01*
X243187865Y-119537067D01*
X243243157Y-119734311D01*
X243331341Y-119884953D01*
X243461173Y-120001129D01*
X243565943Y-120060935D01*
X243670866Y-120107836D01*
X243764702Y-120135241D01*
X243872158Y-120148062D01*
X244017939Y-120151211D01*
X244020000Y-120151210D01*
X244185122Y-120145925D01*
X244306040Y-120128379D01*
X244401356Y-120095688D01*
X244412619Y-120090283D01*
X244593517Y-119967593D01*
X244727646Y-119805573D01*
X244810849Y-119611972D01*
X244838968Y-119394538D01*
X244834079Y-119304689D01*
X244811944Y-119167277D01*
X244772132Y-119042428D01*
X244708601Y-118921788D01*
X244615311Y-118797004D01*
X244486221Y-118659725D01*
X244315291Y-118501595D01*
X244150836Y-118359929D01*
X243904393Y-118147173D01*
X243705475Y-117963171D01*
X243549149Y-117800892D01*
X243430483Y-117653306D01*
X243344545Y-117513383D01*
X243286403Y-117374091D01*
X243251124Y-117228400D01*
X243233775Y-117069280D01*
X243232784Y-117051318D01*
X243240309Y-116786405D01*
X243293764Y-116563242D01*
X243395582Y-116377314D01*
X243548200Y-116224106D01*
X243743520Y-116104230D01*
X243903166Y-116038243D01*
X244073211Y-115995210D01*
X244264186Y-115974469D01*
X244486621Y-115975359D01*
G36*
X245866963Y-119838726D02*
G01*
X245946034Y-119916192D01*
X246001820Y-120012979D01*
X246020250Y-120104615D01*
X245992803Y-120187412D01*
X245923571Y-120268804D01*
X245832219Y-120331371D01*
X245738407Y-120357696D01*
X245734500Y-120357750D01*
X245625038Y-120329415D01*
X245541557Y-120264942D01*
X245466302Y-120158718D01*
X245448750Y-120078724D01*
X245466226Y-119996395D01*
X245509410Y-119911458D01*
X245564438Y-119845224D01*
X245617441Y-119819002D01*
X245617741Y-119819009D01*
X245629034Y-119834073D01*
X245604748Y-119858697D01*
X245518664Y-119956557D01*
X245486087Y-120068086D01*
X245508743Y-120178788D01*
X245558431Y-120248068D01*
X245661205Y-120313640D01*
X245769469Y-120322480D01*
X245868375Y-120278011D01*
X245943074Y-120183656D01*
X245954715Y-120156725D01*
X245966067Y-120046936D01*
X245926866Y-119942415D01*
X245848940Y-119860317D01*
X245744115Y-119817799D01*
X245719497Y-119815493D01*
X245684168Y-119807654D01*
X245696425Y-119796434D01*
X245778972Y-119794249D01*
X245866963Y-119838726D01*
G37*
X245866963Y-119838726D02*
X245946034Y-119916192D01*
X246001820Y-120012979D01*
X246020250Y-120104615D01*
X245992803Y-120187412D01*
X245923571Y-120268804D01*
X245832219Y-120331371D01*
X245738407Y-120357696D01*
X245734500Y-120357750D01*
X245625038Y-120329415D01*
X245541557Y-120264942D01*
X245466302Y-120158718D01*
X245448750Y-120078724D01*
X245466226Y-119996395D01*
X245509410Y-119911458D01*
X245564438Y-119845224D01*
X245617441Y-119819002D01*
X245617741Y-119819009D01*
X245629034Y-119834073D01*
X245604748Y-119858697D01*
X245518664Y-119956557D01*
X245486087Y-120068086D01*
X245508743Y-120178788D01*
X245558431Y-120248068D01*
X245661205Y-120313640D01*
X245769469Y-120322480D01*
X245868375Y-120278011D01*
X245943074Y-120183656D01*
X245954715Y-120156725D01*
X245966067Y-120046936D01*
X245926866Y-119942415D01*
X245848940Y-119860317D01*
X245744115Y-119817799D01*
X245719497Y-119815493D01*
X245684168Y-119807654D01*
X245696425Y-119796434D01*
X245778972Y-119794249D01*
X245866963Y-119838726D01*
G36*
X234781938Y-115965880D02*
G01*
X234843641Y-115971054D01*
X234952790Y-115980994D01*
X235093640Y-115994241D01*
X235241125Y-116008429D01*
X235354610Y-116016013D01*
X235516633Y-116022015D01*
X235718490Y-116026488D01*
X235951483Y-116029485D01*
X236206910Y-116031059D01*
X236476069Y-116031264D01*
X236750262Y-116030152D01*
X237020786Y-116027777D01*
X237278940Y-116024192D01*
X237516025Y-116019450D01*
X237723339Y-116013604D01*
X237892181Y-116006708D01*
X238013851Y-115998814D01*
X238074812Y-115991122D01*
X238178000Y-115969042D01*
X238178000Y-116337771D01*
X238176084Y-116482263D01*
X238170873Y-116600154D01*
X238163173Y-116678981D01*
X238154187Y-116706333D01*
X238131819Y-116678737D01*
X238101012Y-116608471D01*
X238082750Y-116555520D01*
X238049466Y-116470370D01*
X238004630Y-116404555D01*
X237939877Y-116355040D01*
X237846843Y-116318785D01*
X237717163Y-116292755D01*
X237542472Y-116273912D01*
X237314406Y-116259219D01*
X237258900Y-116256373D01*
X237080700Y-116248487D01*
X236923458Y-116243369D01*
X236798672Y-116241248D01*
X236717838Y-116242352D01*
X236693687Y-116245120D01*
X236685725Y-116278864D01*
X236678573Y-116369261D01*
X236672248Y-116509468D01*
X236666765Y-116692644D01*
X236662140Y-116911945D01*
X236658387Y-117160531D01*
X236655523Y-117431558D01*
X236653564Y-117718184D01*
X236652524Y-118013568D01*
X236652420Y-118310866D01*
X236653266Y-118603237D01*
X236655079Y-118883839D01*
X236657873Y-119145829D01*
X236661666Y-119382365D01*
X236666471Y-119586604D01*
X236672305Y-119751705D01*
X236679183Y-119870826D01*
X236685317Y-119927626D01*
X236720326Y-120074925D01*
X236775125Y-120170675D01*
X236861260Y-120226293D01*
X236990281Y-120253193D01*
X237017238Y-120255725D01*
X237113440Y-120268228D01*
X237177551Y-120285230D01*
X237193750Y-120298181D01*
X237163492Y-120306166D01*
X237078686Y-120313256D01*
X236948281Y-120319103D01*
X236781225Y-120323358D01*
X236586468Y-120325676D01*
X236477501Y-120326000D01*
X236218516Y-120324636D01*
X236018276Y-120320583D01*
X235877989Y-120313896D01*
X235798867Y-120304629D01*
X235780875Y-120294250D01*
X235824794Y-120269359D01*
X235875402Y-120262500D01*
X235986940Y-120246232D01*
X236064913Y-120188501D01*
X236107486Y-120123714D01*
X236118898Y-120098474D01*
X236128674Y-120064325D01*
X236136971Y-120016328D01*
X236143948Y-119949539D01*
X236149761Y-119859019D01*
X236154568Y-119739824D01*
X236158527Y-119587013D01*
X236161796Y-119395645D01*
X236164531Y-119160779D01*
X236166891Y-118877471D01*
X236169034Y-118540782D01*
X236171116Y-118145769D01*
X236171216Y-118125488D01*
X236180558Y-116226601D01*
X235663216Y-116245649D01*
X235476923Y-116253210D01*
X235302597Y-116261565D01*
X235154729Y-116269927D01*
X235047812Y-116277507D01*
X235011522Y-116281081D01*
X234868988Y-116328906D01*
X234746635Y-116428998D01*
X234657518Y-116570524D01*
X234654746Y-116577093D01*
X234616828Y-116645715D01*
X234581912Y-116674695D01*
X234561170Y-116657245D01*
X234559357Y-116635062D01*
X234566401Y-116588820D01*
X234584705Y-116495887D01*
X234611185Y-116371430D01*
X234631984Y-116277875D01*
X234665240Y-116134901D01*
X234690663Y-116043111D01*
X234713513Y-115991555D01*
X234739056Y-115969283D01*
X234772553Y-115965344D01*
X234781938Y-115965880D01*
G37*
X234781938Y-115965880D02*
X234843641Y-115971054D01*
X234952790Y-115980994D01*
X235093640Y-115994241D01*
X235241125Y-116008429D01*
X235354610Y-116016013D01*
X235516633Y-116022015D01*
X235718490Y-116026488D01*
X235951483Y-116029485D01*
X236206910Y-116031059D01*
X236476069Y-116031264D01*
X236750262Y-116030152D01*
X237020786Y-116027777D01*
X237278940Y-116024192D01*
X237516025Y-116019450D01*
X237723339Y-116013604D01*
X237892181Y-116006708D01*
X238013851Y-115998814D01*
X238074812Y-115991122D01*
X238178000Y-115969042D01*
X238178000Y-116337771D01*
X238176084Y-116482263D01*
X238170873Y-116600154D01*
X238163173Y-116678981D01*
X238154187Y-116706333D01*
X238131819Y-116678737D01*
X238101012Y-116608471D01*
X238082750Y-116555520D01*
X238049466Y-116470370D01*
X238004630Y-116404555D01*
X237939877Y-116355040D01*
X237846843Y-116318785D01*
X237717163Y-116292755D01*
X237542472Y-116273912D01*
X237314406Y-116259219D01*
X237258900Y-116256373D01*
X237080700Y-116248487D01*
X236923458Y-116243369D01*
X236798672Y-116241248D01*
X236717838Y-116242352D01*
X236693687Y-116245120D01*
X236685725Y-116278864D01*
X236678573Y-116369261D01*
X236672248Y-116509468D01*
X236666765Y-116692644D01*
X236662140Y-116911945D01*
X236658387Y-117160531D01*
X236655523Y-117431558D01*
X236653564Y-117718184D01*
X236652524Y-118013568D01*
X236652420Y-118310866D01*
X236653266Y-118603237D01*
X236655079Y-118883839D01*
X236657873Y-119145829D01*
X236661666Y-119382365D01*
X236666471Y-119586604D01*
X236672305Y-119751705D01*
X236679183Y-119870826D01*
X236685317Y-119927626D01*
X236720326Y-120074925D01*
X236775125Y-120170675D01*
X236861260Y-120226293D01*
X236990281Y-120253193D01*
X237017238Y-120255725D01*
X237113440Y-120268228D01*
X237177551Y-120285230D01*
X237193750Y-120298181D01*
X237163492Y-120306166D01*
X237078686Y-120313256D01*
X236948281Y-120319103D01*
X236781225Y-120323358D01*
X236586468Y-120325676D01*
X236477501Y-120326000D01*
X236218516Y-120324636D01*
X236018276Y-120320583D01*
X235877989Y-120313896D01*
X235798867Y-120304629D01*
X235780875Y-120294250D01*
X235824794Y-120269359D01*
X235875402Y-120262500D01*
X235986940Y-120246232D01*
X236064913Y-120188501D01*
X236107486Y-120123714D01*
X236118898Y-120098474D01*
X236128674Y-120064325D01*
X236136971Y-120016328D01*
X236143948Y-119949539D01*
X236149761Y-119859019D01*
X236154568Y-119739824D01*
X236158527Y-119587013D01*
X236161796Y-119395645D01*
X236164531Y-119160779D01*
X236166891Y-118877471D01*
X236169034Y-118540782D01*
X236171116Y-118145769D01*
X236171216Y-118125488D01*
X236180558Y-116226601D01*
X235663216Y-116245649D01*
X235476923Y-116253210D01*
X235302597Y-116261565D01*
X235154729Y-116269927D01*
X235047812Y-116277507D01*
X235011522Y-116281081D01*
X234868988Y-116328906D01*
X234746635Y-116428998D01*
X234657518Y-116570524D01*
X234654746Y-116577093D01*
X234616828Y-116645715D01*
X234581912Y-116674695D01*
X234561170Y-116657245D01*
X234559357Y-116635062D01*
X234566401Y-116588820D01*
X234584705Y-116495887D01*
X234611185Y-116371430D01*
X234631984Y-116277875D01*
X234665240Y-116134901D01*
X234690663Y-116043111D01*
X234713513Y-115991555D01*
X234739056Y-115969283D01*
X234772553Y-115965344D01*
X234781938Y-115965880D01*
G36*
X242502592Y-116013476D02*
G01*
X242661587Y-116017933D01*
X242775296Y-116025268D01*
X242836530Y-116035096D01*
X242845250Y-116041177D01*
X242818310Y-116065118D01*
X242773812Y-116072197D01*
X242650181Y-116099074D01*
X242510145Y-116171407D01*
X242369593Y-116279976D01*
X242304372Y-116344660D01*
X242226799Y-116439453D01*
X242124943Y-116580361D01*
X242004765Y-116757663D01*
X241872226Y-116961637D01*
X241733284Y-117182564D01*
X241593902Y-117410722D01*
X241460038Y-117636389D01*
X241337653Y-117849846D01*
X241232708Y-118041371D01*
X241151163Y-118201244D01*
X241109163Y-118294000D01*
X241086565Y-118351887D01*
X241069232Y-118408435D01*
X241056460Y-118472852D01*
X241047545Y-118554347D01*
X241041783Y-118662129D01*
X241038471Y-118805405D01*
X241036905Y-118993386D01*
X241036381Y-119235278D01*
X241036372Y-119246500D01*
X241036540Y-119491594D01*
X241037875Y-119681569D01*
X241040943Y-119824803D01*
X241046315Y-119929674D01*
X241054557Y-120004562D01*
X241066239Y-120057843D01*
X241081930Y-120097895D01*
X241095839Y-120122937D01*
X241164388Y-120198405D01*
X241265368Y-120243082D01*
X241410732Y-120261447D01*
X241468093Y-120262500D01*
X241539951Y-120270748D01*
X241574666Y-120290937D01*
X241575250Y-120294250D01*
X241544041Y-120305417D01*
X241452506Y-120314314D01*
X241303786Y-120320803D01*
X241101019Y-120324744D01*
X240860875Y-120326000D01*
X240609614Y-120324612D01*
X240409415Y-120320544D01*
X240263416Y-120313934D01*
X240174756Y-120304923D01*
X240146500Y-120294250D01*
X240173606Y-120270153D01*
X240223808Y-120262500D01*
X240361983Y-120237867D01*
X240460096Y-120164463D01*
X240498729Y-120098483D01*
X240514281Y-120045052D01*
X240526067Y-119963195D01*
X240534477Y-119845619D01*
X240539899Y-119685036D01*
X240542724Y-119474154D01*
X240543375Y-119262375D01*
X240543212Y-119028687D01*
X240542123Y-118848919D01*
X240539204Y-118713488D01*
X240533552Y-118612813D01*
X240524263Y-118537314D01*
X240510435Y-118477408D01*
X240491163Y-118423516D01*
X240465545Y-118366054D01*
X240457188Y-118348184D01*
X240387683Y-118210443D01*
X240292667Y-118037429D01*
X240177721Y-117838024D01*
X240048424Y-117621106D01*
X239910356Y-117395556D01*
X239769098Y-117170254D01*
X239630230Y-116954080D01*
X239499331Y-116755914D01*
X239381982Y-116584635D01*
X239283762Y-116449124D01*
X239210253Y-116358261D01*
X239199511Y-116346747D01*
X239078055Y-116235607D01*
X238953808Y-116146407D01*
X238841775Y-116088687D01*
X238766639Y-116071500D01*
X238723566Y-116055788D01*
X238717750Y-116041764D01*
X238748205Y-116031623D01*
X238834428Y-116023283D01*
X238968701Y-116017127D01*
X239143308Y-116013534D01*
X239305125Y-116012760D01*
X239490350Y-116014216D01*
X239651582Y-116017824D01*
X239778940Y-116023170D01*
X239862539Y-116029840D01*
X239892500Y-116037399D01*
X239866938Y-116066581D01*
X239813125Y-116097472D01*
X239753813Y-116138357D01*
X239736573Y-116197365D01*
X239758051Y-116290382D01*
X239767082Y-116315495D01*
X239790413Y-116363441D01*
X239840092Y-116455637D01*
X239911683Y-116584434D01*
X240000751Y-116742182D01*
X240102860Y-116921233D01*
X240213572Y-117113935D01*
X240328454Y-117312640D01*
X240443068Y-117509698D01*
X240552979Y-117697460D01*
X240653751Y-117868275D01*
X240740948Y-118014494D01*
X240810133Y-118128468D01*
X240856872Y-118202546D01*
X240876728Y-118229080D01*
X240876750Y-118229081D01*
X240896926Y-118202730D01*
X240940427Y-118130921D01*
X241001001Y-118024390D01*
X241072397Y-117893871D01*
X241077857Y-117883708D01*
X241154605Y-117743188D01*
X241254483Y-117564058D01*
X241368398Y-117362425D01*
X241487254Y-117154393D01*
X241592880Y-116971659D01*
X241707774Y-116772313D01*
X241793360Y-116618482D01*
X241853654Y-116501630D01*
X241892677Y-116413219D01*
X241914447Y-116344714D01*
X241922984Y-116287580D01*
X241923585Y-116269256D01*
X241917950Y-116178155D01*
X241892561Y-116127240D01*
X241845125Y-116097472D01*
X241786909Y-116063284D01*
X241765750Y-116037507D01*
X241795781Y-116029617D01*
X241879001Y-116022664D01*
X242005101Y-116017128D01*
X242163773Y-116013493D01*
X242305500Y-116012281D01*
X242502592Y-116013476D01*
G37*
X242502592Y-116013476D02*
X242661587Y-116017933D01*
X242775296Y-116025268D01*
X242836530Y-116035096D01*
X242845250Y-116041177D01*
X242818310Y-116065118D01*
X242773812Y-116072197D01*
X242650181Y-116099074D01*
X242510145Y-116171407D01*
X242369593Y-116279976D01*
X242304372Y-116344660D01*
X242226799Y-116439453D01*
X242124943Y-116580361D01*
X242004765Y-116757663D01*
X241872226Y-116961637D01*
X241733284Y-117182564D01*
X241593902Y-117410722D01*
X241460038Y-117636389D01*
X241337653Y-117849846D01*
X241232708Y-118041371D01*
X241151163Y-118201244D01*
X241109163Y-118294000D01*
X241086565Y-118351887D01*
X241069232Y-118408435D01*
X241056460Y-118472852D01*
X241047545Y-118554347D01*
X241041783Y-118662129D01*
X241038471Y-118805405D01*
X241036905Y-118993386D01*
X241036381Y-119235278D01*
X241036372Y-119246500D01*
X241036540Y-119491594D01*
X241037875Y-119681569D01*
X241040943Y-119824803D01*
X241046315Y-119929674D01*
X241054557Y-120004562D01*
X241066239Y-120057843D01*
X241081930Y-120097895D01*
X241095839Y-120122937D01*
X241164388Y-120198405D01*
X241265368Y-120243082D01*
X241410732Y-120261447D01*
X241468093Y-120262500D01*
X241539951Y-120270748D01*
X241574666Y-120290937D01*
X241575250Y-120294250D01*
X241544041Y-120305417D01*
X241452506Y-120314314D01*
X241303786Y-120320803D01*
X241101019Y-120324744D01*
X240860875Y-120326000D01*
X240609614Y-120324612D01*
X240409415Y-120320544D01*
X240263416Y-120313934D01*
X240174756Y-120304923D01*
X240146500Y-120294250D01*
X240173606Y-120270153D01*
X240223808Y-120262500D01*
X240361983Y-120237867D01*
X240460096Y-120164463D01*
X240498729Y-120098483D01*
X240514281Y-120045052D01*
X240526067Y-119963195D01*
X240534477Y-119845619D01*
X240539899Y-119685036D01*
X240542724Y-119474154D01*
X240543375Y-119262375D01*
X240543212Y-119028687D01*
X240542123Y-118848919D01*
X240539204Y-118713488D01*
X240533552Y-118612813D01*
X240524263Y-118537314D01*
X240510435Y-118477408D01*
X240491163Y-118423516D01*
X240465545Y-118366054D01*
X240457188Y-118348184D01*
X240387683Y-118210443D01*
X240292667Y-118037429D01*
X240177721Y-117838024D01*
X240048424Y-117621106D01*
X239910356Y-117395556D01*
X239769098Y-117170254D01*
X239630230Y-116954080D01*
X239499331Y-116755914D01*
X239381982Y-116584635D01*
X239283762Y-116449124D01*
X239210253Y-116358261D01*
X239199511Y-116346747D01*
X239078055Y-116235607D01*
X238953808Y-116146407D01*
X238841775Y-116088687D01*
X238766639Y-116071500D01*
X238723566Y-116055788D01*
X238717750Y-116041764D01*
X238748205Y-116031623D01*
X238834428Y-116023283D01*
X238968701Y-116017127D01*
X239143308Y-116013534D01*
X239305125Y-116012760D01*
X239490350Y-116014216D01*
X239651582Y-116017824D01*
X239778940Y-116023170D01*
X239862539Y-116029840D01*
X239892500Y-116037399D01*
X239866938Y-116066581D01*
X239813125Y-116097472D01*
X239753813Y-116138357D01*
X239736573Y-116197365D01*
X239758051Y-116290382D01*
X239767082Y-116315495D01*
X239790413Y-116363441D01*
X239840092Y-116455637D01*
X239911683Y-116584434D01*
X240000751Y-116742182D01*
X240102860Y-116921233D01*
X240213572Y-117113935D01*
X240328454Y-117312640D01*
X240443068Y-117509698D01*
X240552979Y-117697460D01*
X240653751Y-117868275D01*
X240740948Y-118014494D01*
X240810133Y-118128468D01*
X240856872Y-118202546D01*
X240876728Y-118229080D01*
X240876750Y-118229081D01*
X240896926Y-118202730D01*
X240940427Y-118130921D01*
X241001001Y-118024390D01*
X241072397Y-117893871D01*
X241077857Y-117883708D01*
X241154605Y-117743188D01*
X241254483Y-117564058D01*
X241368398Y-117362425D01*
X241487254Y-117154393D01*
X241592880Y-116971659D01*
X241707774Y-116772313D01*
X241793360Y-116618482D01*
X241853654Y-116501630D01*
X241892677Y-116413219D01*
X241914447Y-116344714D01*
X241922984Y-116287580D01*
X241923585Y-116269256D01*
X241917950Y-116178155D01*
X241892561Y-116127240D01*
X241845125Y-116097472D01*
X241786909Y-116063284D01*
X241765750Y-116037507D01*
X241795781Y-116029617D01*
X241879001Y-116022664D01*
X242005101Y-116017128D01*
X242163773Y-116013493D01*
X242305500Y-116012281D01*
X242502592Y-116013476D01*
G36*
X245820245Y-119928818D02*
G01*
X245852747Y-119975839D01*
X245830446Y-120054783D01*
X245828708Y-120058070D01*
X245804444Y-120123960D01*
X245822132Y-120173535D01*
X245828851Y-120182042D01*
X245849932Y-120220895D01*
X245841274Y-120230750D01*
X245804477Y-120206825D01*
X245773618Y-120167250D01*
X245723727Y-120111717D01*
X245684522Y-120117518D01*
X245661657Y-120175187D01*
X245653580Y-120187285D01*
X245646820Y-120145134D01*
X245643573Y-120079937D01*
X245643015Y-120008500D01*
X245671000Y-120008500D01*
X245691339Y-120061647D01*
X245746369Y-120066157D01*
X245794130Y-120043313D01*
X245821026Y-120002758D01*
X245798296Y-119963840D01*
X245737526Y-119945080D01*
X245732626Y-119945000D01*
X245680897Y-119968358D01*
X245671000Y-120008500D01*
X245643015Y-120008500D01*
X245642816Y-119983024D01*
X245652772Y-119933593D01*
X245681979Y-119915663D01*
X245732626Y-119913250D01*
X245820245Y-119928818D01*
G37*
X245820245Y-119928818D02*
X245852747Y-119975839D01*
X245830446Y-120054783D01*
X245828708Y-120058070D01*
X245804444Y-120123960D01*
X245822132Y-120173535D01*
X245828851Y-120182042D01*
X245849932Y-120220895D01*
X245841274Y-120230750D01*
X245804477Y-120206825D01*
X245773618Y-120167250D01*
X245723727Y-120111717D01*
X245684522Y-120117518D01*
X245661657Y-120175187D01*
X245653580Y-120187285D01*
X245646820Y-120145134D01*
X245643573Y-120079937D01*
X245643015Y-120008500D01*
X245671000Y-120008500D01*
X245691339Y-120061647D01*
X245746369Y-120066157D01*
X245794130Y-120043313D01*
X245821026Y-120002758D01*
X245798296Y-119963840D01*
X245737526Y-119945080D01*
X245732626Y-119945000D01*
X245680897Y-119968358D01*
X245671000Y-120008500D01*
X245643015Y-120008500D01*
X245642816Y-119983024D01*
X245652772Y-119933593D01*
X245681979Y-119915663D01*
X245732626Y-119913250D01*
X245820245Y-119928818D01*
G36*
X236330325Y-111431271D02*
G01*
X236336500Y-111478063D01*
X236330190Y-111510934D01*
X236305128Y-111541650D01*
X236252110Y-111575597D01*
X236161933Y-111618163D01*
X236025395Y-111674733D01*
X235947562Y-111705724D01*
X235487559Y-111896295D01*
X235051746Y-112093887D01*
X234646453Y-112295047D01*
X234278014Y-112496318D01*
X233952760Y-112694247D01*
X233677024Y-112885379D01*
X233461959Y-113061839D01*
X233332661Y-113195875D01*
X233223690Y-113339120D01*
X233143938Y-113477535D01*
X233102293Y-113597080D01*
X233098297Y-113636130D01*
X233128458Y-113742851D01*
X233219025Y-113833278D01*
X233368972Y-113907181D01*
X233577270Y-113964331D01*
X233842892Y-114004498D01*
X234164811Y-114027454D01*
X234541999Y-114032967D01*
X234844250Y-114026115D01*
X235409142Y-113996497D01*
X236021757Y-113947435D01*
X236669939Y-113880614D01*
X237341529Y-113797719D01*
X238024370Y-113700435D01*
X238706303Y-113590447D01*
X239375170Y-113469441D01*
X240018815Y-113339101D01*
X240380559Y-113258793D01*
X240519794Y-113228058D01*
X240634475Y-113205171D01*
X240711640Y-113192561D01*
X240738167Y-113191834D01*
X240713489Y-113203897D01*
X240636174Y-113229259D01*
X240515107Y-113265482D01*
X240359169Y-113310130D01*
X240177244Y-113360764D01*
X239978215Y-113414948D01*
X239770964Y-113470245D01*
X239564375Y-113524215D01*
X239367331Y-113574423D01*
X239188714Y-113618431D01*
X239147489Y-113628296D01*
X238495549Y-113775855D01*
X237840838Y-113909923D01*
X237189945Y-114029673D01*
X236549458Y-114134278D01*
X235925966Y-114222912D01*
X235326056Y-114294746D01*
X234756317Y-114348955D01*
X234223337Y-114384710D01*
X233733705Y-114401186D01*
X233294008Y-114397554D01*
X233095730Y-114387990D01*
X232808276Y-114363881D01*
X232577534Y-114331011D01*
X232397108Y-114287672D01*
X232260601Y-114232152D01*
X232161618Y-114162745D01*
X232130562Y-114130073D01*
X232074243Y-114047012D01*
X232055169Y-113964413D01*
X232073188Y-113864789D01*
X232127123Y-113732852D01*
X232233408Y-113563146D01*
X232398260Y-113381301D01*
X232618335Y-113189280D01*
X232890286Y-112989050D01*
X233210767Y-112782574D01*
X233576433Y-112571818D01*
X233983938Y-112358747D01*
X234429936Y-112145325D01*
X234911081Y-111933517D01*
X235424027Y-111725288D01*
X235768778Y-111594318D01*
X235938490Y-111532064D01*
X236087740Y-111478367D01*
X236206265Y-111436835D01*
X236283801Y-111411076D01*
X236309426Y-111404250D01*
X236330325Y-111431271D01*
G37*
X236330325Y-111431271D02*
X236336500Y-111478063D01*
X236330190Y-111510934D01*
X236305128Y-111541650D01*
X236252110Y-111575597D01*
X236161933Y-111618163D01*
X236025395Y-111674733D01*
X235947562Y-111705724D01*
X235487559Y-111896295D01*
X235051746Y-112093887D01*
X234646453Y-112295047D01*
X234278014Y-112496318D01*
X233952760Y-112694247D01*
X233677024Y-112885379D01*
X233461959Y-113061839D01*
X233332661Y-113195875D01*
X233223690Y-113339120D01*
X233143938Y-113477535D01*
X233102293Y-113597080D01*
X233098297Y-113636130D01*
X233128458Y-113742851D01*
X233219025Y-113833278D01*
X233368972Y-113907181D01*
X233577270Y-113964331D01*
X233842892Y-114004498D01*
X234164811Y-114027454D01*
X234541999Y-114032967D01*
X234844250Y-114026115D01*
X235409142Y-113996497D01*
X236021757Y-113947435D01*
X236669939Y-113880614D01*
X237341529Y-113797719D01*
X238024370Y-113700435D01*
X238706303Y-113590447D01*
X239375170Y-113469441D01*
X240018815Y-113339101D01*
X240380559Y-113258793D01*
X240519794Y-113228058D01*
X240634475Y-113205171D01*
X240711640Y-113192561D01*
X240738167Y-113191834D01*
X240713489Y-113203897D01*
X240636174Y-113229259D01*
X240515107Y-113265482D01*
X240359169Y-113310130D01*
X240177244Y-113360764D01*
X239978215Y-113414948D01*
X239770964Y-113470245D01*
X239564375Y-113524215D01*
X239367331Y-113574423D01*
X239188714Y-113618431D01*
X239147489Y-113628296D01*
X238495549Y-113775855D01*
X237840838Y-113909923D01*
X237189945Y-114029673D01*
X236549458Y-114134278D01*
X235925966Y-114222912D01*
X235326056Y-114294746D01*
X234756317Y-114348955D01*
X234223337Y-114384710D01*
X233733705Y-114401186D01*
X233294008Y-114397554D01*
X233095730Y-114387990D01*
X232808276Y-114363881D01*
X232577534Y-114331011D01*
X232397108Y-114287672D01*
X232260601Y-114232152D01*
X232161618Y-114162745D01*
X232130562Y-114130073D01*
X232074243Y-114047012D01*
X232055169Y-113964413D01*
X232073188Y-113864789D01*
X232127123Y-113732852D01*
X232233408Y-113563146D01*
X232398260Y-113381301D01*
X232618335Y-113189280D01*
X232890286Y-112989050D01*
X233210767Y-112782574D01*
X233576433Y-112571818D01*
X233983938Y-112358747D01*
X234429936Y-112145325D01*
X234911081Y-111933517D01*
X235424027Y-111725288D01*
X235768778Y-111594318D01*
X235938490Y-111532064D01*
X236087740Y-111478367D01*
X236206265Y-111436835D01*
X236283801Y-111411076D01*
X236309426Y-111404250D01*
X236330325Y-111431271D01*
G36*
X240845000Y-113166375D02*
G01*
X240829125Y-113182250D01*
X240813250Y-113166375D01*
X240829125Y-113150500D01*
X240845000Y-113166375D01*
G37*
X240845000Y-113166375D02*
X240829125Y-113182250D01*
X240813250Y-113166375D01*
X240829125Y-113150500D01*
X240845000Y-113166375D01*
G36*
X237867413Y-108471410D02*
G01*
X237901213Y-108525094D01*
X237947590Y-108619908D01*
X238002632Y-108746349D01*
X238062431Y-108894914D01*
X238123076Y-109056100D01*
X238180656Y-109220405D01*
X238231262Y-109378326D01*
X238248154Y-109435750D01*
X238301473Y-109690766D01*
X238320770Y-109950642D01*
X238306045Y-110196729D01*
X238257301Y-110410379D01*
X238248056Y-110435875D01*
X238222270Y-110501350D01*
X238196110Y-110559582D01*
X238164202Y-110618228D01*
X238121176Y-110684946D01*
X238061660Y-110767394D01*
X237980282Y-110873231D01*
X237871671Y-111010115D01*
X237730455Y-111185704D01*
X237666693Y-111264706D01*
X237494267Y-111482315D01*
X237359758Y-111664536D01*
X237258158Y-111822773D01*
X237184458Y-111968429D01*
X237133649Y-112112910D01*
X237100721Y-112267619D01*
X237080667Y-112443961D01*
X237069799Y-112623732D01*
X237050875Y-113033589D01*
X236919979Y-112845982D01*
X236725719Y-112530748D01*
X236583475Y-112218642D01*
X236494538Y-111914809D01*
X236460204Y-111624398D01*
X236481764Y-111352554D01*
X236513219Y-111227387D01*
X236560437Y-111113594D01*
X236639830Y-110962314D01*
X236743894Y-110785638D01*
X236865126Y-110595658D01*
X236996022Y-110404463D01*
X237129080Y-110224146D01*
X237162047Y-110181875D01*
X237342240Y-109933567D01*
X237486341Y-109685903D01*
X237601879Y-109422178D01*
X237696380Y-109125691D01*
X237763033Y-108848375D01*
X237793686Y-108707730D01*
X237821338Y-108585390D01*
X237842174Y-108498011D01*
X237850099Y-108468358D01*
X237867413Y-108471410D01*
G37*
X237867413Y-108471410D02*
X237901213Y-108525094D01*
X237947590Y-108619908D01*
X238002632Y-108746349D01*
X238062431Y-108894914D01*
X238123076Y-109056100D01*
X238180656Y-109220405D01*
X238231262Y-109378326D01*
X238248154Y-109435750D01*
X238301473Y-109690766D01*
X238320770Y-109950642D01*
X238306045Y-110196729D01*
X238257301Y-110410379D01*
X238248056Y-110435875D01*
X238222270Y-110501350D01*
X238196110Y-110559582D01*
X238164202Y-110618228D01*
X238121176Y-110684946D01*
X238061660Y-110767394D01*
X237980282Y-110873231D01*
X237871671Y-111010115D01*
X237730455Y-111185704D01*
X237666693Y-111264706D01*
X237494267Y-111482315D01*
X237359758Y-111664536D01*
X237258158Y-111822773D01*
X237184458Y-111968429D01*
X237133649Y-112112910D01*
X237100721Y-112267619D01*
X237080667Y-112443961D01*
X237069799Y-112623732D01*
X237050875Y-113033589D01*
X236919979Y-112845982D01*
X236725719Y-112530748D01*
X236583475Y-112218642D01*
X236494538Y-111914809D01*
X236460204Y-111624398D01*
X236481764Y-111352554D01*
X236513219Y-111227387D01*
X236560437Y-111113594D01*
X236639830Y-110962314D01*
X236743894Y-110785638D01*
X236865126Y-110595658D01*
X236996022Y-110404463D01*
X237129080Y-110224146D01*
X237162047Y-110181875D01*
X237342240Y-109933567D01*
X237486341Y-109685903D01*
X237601879Y-109422178D01*
X237696380Y-109125691D01*
X237763033Y-108848375D01*
X237793686Y-108707730D01*
X237821338Y-108585390D01*
X237842174Y-108498011D01*
X237850099Y-108468358D01*
X237867413Y-108471410D01*
G36*
X241027758Y-110334046D02*
G01*
X240979521Y-110349041D01*
X240870121Y-110373087D01*
X240698672Y-110405686D01*
X240686250Y-110407928D01*
X240283515Y-110485313D01*
X239832977Y-110580701D01*
X239346856Y-110691370D01*
X238837372Y-110814595D01*
X238646312Y-110862591D01*
X238462670Y-110908108D01*
X238302018Y-110945864D01*
X238173697Y-110973835D01*
X238087046Y-110989998D01*
X238051406Y-110992328D01*
X238051000Y-110991615D01*
X238066486Y-110956653D01*
X238116611Y-110920969D01*
X238206873Y-110882610D01*
X238342769Y-110839620D01*
X238529798Y-110790048D01*
X238773458Y-110731940D01*
X238797125Y-110726506D01*
X239503279Y-110573530D01*
X240159132Y-110449717D01*
X240626824Y-110374545D01*
X240814366Y-110348352D01*
X240944293Y-110333203D01*
X241015720Y-110328601D01*
X241027758Y-110334046D01*
G37*
X241027758Y-110334046D02*
X240979521Y-110349041D01*
X240870121Y-110373087D01*
X240698672Y-110405686D01*
X240686250Y-110407928D01*
X240283515Y-110485313D01*
X239832977Y-110580701D01*
X239346856Y-110691370D01*
X238837372Y-110814595D01*
X238646312Y-110862591D01*
X238462670Y-110908108D01*
X238302018Y-110945864D01*
X238173697Y-110973835D01*
X238087046Y-110989998D01*
X238051406Y-110992328D01*
X238051000Y-110991615D01*
X238066486Y-110956653D01*
X238116611Y-110920969D01*
X238206873Y-110882610D01*
X238342769Y-110839620D01*
X238529798Y-110790048D01*
X238773458Y-110731940D01*
X238797125Y-110726506D01*
X239503279Y-110573530D01*
X240159132Y-110449717D01*
X240626824Y-110374545D01*
X240814366Y-110348352D01*
X240944293Y-110333203D01*
X241015720Y-110328601D01*
X241027758Y-110334046D01*
G36*
X236914388Y-107979728D02*
G01*
X236947413Y-108033632D01*
X236990109Y-108126634D01*
X237005945Y-108165750D01*
X237105997Y-108446486D01*
X237167491Y-108684344D01*
X237191274Y-108886237D01*
X237178192Y-109059083D01*
X237132786Y-109201806D01*
X237090034Y-109276998D01*
X237016725Y-109386724D01*
X236922872Y-109516669D01*
X236818487Y-109652517D01*
X236810802Y-109662181D01*
X236669155Y-109845701D01*
X236565341Y-109997116D01*
X236493016Y-110129935D01*
X236445836Y-110257666D01*
X236417457Y-110393818D01*
X236403065Y-110530411D01*
X236384125Y-110784263D01*
X236283206Y-110625944D01*
X236143928Y-110367078D01*
X236061872Y-110118740D01*
X236038541Y-109927875D01*
X236045493Y-109804128D01*
X236074349Y-109680963D01*
X236129892Y-109547983D01*
X236216904Y-109394795D01*
X236340170Y-109211003D01*
X236418360Y-109102375D01*
X236558473Y-108901073D01*
X236662343Y-108725388D01*
X236739098Y-108556504D01*
X236797865Y-108375611D01*
X236826563Y-108261000D01*
X236854992Y-108140171D01*
X236879574Y-108039989D01*
X236895580Y-107979663D01*
X236896945Y-107975250D01*
X236914388Y-107979728D01*
G37*
X236914388Y-107979728D02*
X236947413Y-108033632D01*
X236990109Y-108126634D01*
X237005945Y-108165750D01*
X237105997Y-108446486D01*
X237167491Y-108684344D01*
X237191274Y-108886237D01*
X237178192Y-109059083D01*
X237132786Y-109201806D01*
X237090034Y-109276998D01*
X237016725Y-109386724D01*
X236922872Y-109516669D01*
X236818487Y-109652517D01*
X236810802Y-109662181D01*
X236669155Y-109845701D01*
X236565341Y-109997116D01*
X236493016Y-110129935D01*
X236445836Y-110257666D01*
X236417457Y-110393818D01*
X236403065Y-110530411D01*
X236384125Y-110784263D01*
X236283206Y-110625944D01*
X236143928Y-110367078D01*
X236061872Y-110118740D01*
X236038541Y-109927875D01*
X236045493Y-109804128D01*
X236074349Y-109680963D01*
X236129892Y-109547983D01*
X236216904Y-109394795D01*
X236340170Y-109211003D01*
X236418360Y-109102375D01*
X236558473Y-108901073D01*
X236662343Y-108725388D01*
X236739098Y-108556504D01*
X236797865Y-108375611D01*
X236826563Y-108261000D01*
X236854992Y-108140171D01*
X236879574Y-108039989D01*
X236895580Y-107979663D01*
X236896945Y-107975250D01*
X236914388Y-107979728D01*
G36*
X241266291Y-110303924D02*
G01*
X241267347Y-110314347D01*
X241217643Y-110318603D01*
X241210125Y-110318560D01*
X241160882Y-110313982D01*
X241165582Y-110304318D01*
X241171041Y-110302747D01*
X241240203Y-110298099D01*
X241266291Y-110303924D01*
G37*
X241266291Y-110303924D02*
X241267347Y-110314347D01*
X241217643Y-110318603D01*
X241210125Y-110318560D01*
X241160882Y-110313982D01*
X241165582Y-110304318D01*
X241171041Y-110302747D01*
X241240203Y-110298099D01*
X241266291Y-110303924D01*
G36*
X241511750Y-110277125D02*
G01*
X241495875Y-110293000D01*
X241480000Y-110277125D01*
X241495875Y-110261250D01*
X241511750Y-110277125D01*
G37*
X241511750Y-110277125D02*
X241495875Y-110293000D01*
X241480000Y-110277125D01*
X241495875Y-110261250D01*
X241511750Y-110277125D01*
G36*
X174319438Y-119153971D02*
G01*
X174926828Y-120101702D01*
X175267336Y-121043349D01*
X175342636Y-121934834D01*
X175154402Y-122732079D01*
X174704306Y-123391005D01*
X174143196Y-123796054D01*
X173143421Y-124180504D01*
X171926511Y-124437468D01*
X170592616Y-124557885D01*
X169241889Y-124532690D01*
X167979205Y-124353852D01*
X167232967Y-124157942D01*
X166455690Y-123903031D01*
X166068647Y-123751403D01*
X165196337Y-123376146D01*
X165657158Y-123376146D01*
X166656912Y-123750962D01*
X167176933Y-123915327D01*
X167818069Y-124075332D01*
X168488301Y-124213613D01*
X169095613Y-124312806D01*
X169547986Y-124355546D01*
X169743685Y-124333443D01*
X169692119Y-124185890D01*
X169498978Y-123851266D01*
X169359759Y-123634453D01*
X169098783Y-123209584D01*
X169011064Y-122900952D01*
X169074421Y-122548208D01*
X169170229Y-122264248D01*
X169313017Y-121827742D01*
X169327138Y-121621700D01*
X169205447Y-121560470D01*
X169111239Y-121557333D01*
X168802879Y-121636315D01*
X168293671Y-121843566D01*
X167674025Y-122134546D01*
X167034353Y-122464714D01*
X166465064Y-122789530D01*
X166064246Y-123058428D01*
X165657158Y-123376146D01*
X165196337Y-123376146D01*
X165190216Y-123373513D01*
X166065024Y-122784383D01*
X167712690Y-121844164D01*
X169398618Y-121228090D01*
X171169056Y-120921733D01*
X172169583Y-120880000D01*
X172845422Y-120862005D01*
X173384905Y-120813950D01*
X173704024Y-120744727D01*
X173751508Y-120712542D01*
X173752263Y-120463676D01*
X173622830Y-120060931D01*
X173579473Y-119964449D01*
X173410965Y-119536636D01*
X173415878Y-119221210D01*
X173542343Y-118928813D01*
X173780742Y-118473812D01*
X174319438Y-119153971D01*
G37*
X174319438Y-119153971D02*
X174926828Y-120101702D01*
X175267336Y-121043349D01*
X175342636Y-121934834D01*
X175154402Y-122732079D01*
X174704306Y-123391005D01*
X174143196Y-123796054D01*
X173143421Y-124180504D01*
X171926511Y-124437468D01*
X170592616Y-124557885D01*
X169241889Y-124532690D01*
X167979205Y-124353852D01*
X167232967Y-124157942D01*
X166455690Y-123903031D01*
X166068647Y-123751403D01*
X165196337Y-123376146D01*
X165657158Y-123376146D01*
X166656912Y-123750962D01*
X167176933Y-123915327D01*
X167818069Y-124075332D01*
X168488301Y-124213613D01*
X169095613Y-124312806D01*
X169547986Y-124355546D01*
X169743685Y-124333443D01*
X169692119Y-124185890D01*
X169498978Y-123851266D01*
X169359759Y-123634453D01*
X169098783Y-123209584D01*
X169011064Y-122900952D01*
X169074421Y-122548208D01*
X169170229Y-122264248D01*
X169313017Y-121827742D01*
X169327138Y-121621700D01*
X169205447Y-121560470D01*
X169111239Y-121557333D01*
X168802879Y-121636315D01*
X168293671Y-121843566D01*
X167674025Y-122134546D01*
X167034353Y-122464714D01*
X166465064Y-122789530D01*
X166064246Y-123058428D01*
X165657158Y-123376146D01*
X165196337Y-123376146D01*
X165190216Y-123373513D01*
X166065024Y-122784383D01*
X167712690Y-121844164D01*
X169398618Y-121228090D01*
X171169056Y-120921733D01*
X172169583Y-120880000D01*
X172845422Y-120862005D01*
X173384905Y-120813950D01*
X173704024Y-120744727D01*
X173751508Y-120712542D01*
X173752263Y-120463676D01*
X173622830Y-120060931D01*
X173579473Y-119964449D01*
X173410965Y-119536636D01*
X173415878Y-119221210D01*
X173542343Y-118928813D01*
X173780742Y-118473812D01*
X174319438Y-119153971D01*
G36*
X170099071Y-109266396D02*
G01*
X170674217Y-109484712D01*
X171466667Y-109888563D01*
X172225967Y-110309317D01*
X172723162Y-110618643D01*
X172999354Y-110855970D01*
X173095647Y-111060733D01*
X173053145Y-111272362D01*
X173007197Y-111366446D01*
X172851086Y-111768204D01*
X172874889Y-112150812D01*
X173097669Y-112623986D01*
X173274746Y-112906137D01*
X173636111Y-113368902D01*
X173972111Y-113573416D01*
X174172212Y-113598667D01*
X174509136Y-113629667D01*
X174744051Y-113756393D01*
X174894893Y-114029432D01*
X174979601Y-114499374D01*
X175016109Y-115216804D01*
X175022667Y-115997242D01*
X175017669Y-116855646D01*
X174996459Y-117437156D01*
X174949714Y-117803477D01*
X174868108Y-118016313D01*
X174742318Y-118137366D01*
X174695132Y-118164709D01*
X174264314Y-118312035D01*
X174029329Y-118340000D01*
X173714191Y-118469786D01*
X173374374Y-118789304D01*
X173319790Y-118861402D01*
X173083629Y-119259360D01*
X173056865Y-119570290D01*
X173138926Y-119800703D01*
X173281223Y-120159019D01*
X173329333Y-120354986D01*
X173173060Y-120428005D01*
X172755411Y-120507023D01*
X172153144Y-120579021D01*
X171859143Y-120604378D01*
X170243181Y-120803776D01*
X168829559Y-121152050D01*
X167503529Y-121679112D01*
X167237974Y-121808996D01*
X166112626Y-122375712D01*
X165033024Y-121798890D01*
X164380662Y-121434827D01*
X163988764Y-121156346D01*
X163811281Y-120905004D01*
X163802162Y-120622356D01*
X163883289Y-120339733D01*
X163922656Y-119852909D01*
X163781495Y-119306380D01*
X163512703Y-118803740D01*
X163169178Y-118448578D01*
X162862158Y-118340000D01*
X162392915Y-118262734D01*
X162142201Y-118164709D01*
X162001510Y-118059015D01*
X161907770Y-117879844D01*
X161851656Y-117565490D01*
X161823844Y-117054252D01*
X161815010Y-116284424D01*
X161814667Y-115997242D01*
X161817727Y-115728930D01*
X164389234Y-115728930D01*
X164475858Y-116773765D01*
X164799970Y-117771526D01*
X165357128Y-118669740D01*
X166142885Y-119415932D01*
X167152796Y-119957630D01*
X167170256Y-119964163D01*
X168007705Y-120131408D01*
X168959056Y-120097558D01*
X169874788Y-119874366D01*
X170217392Y-119724639D01*
X171137516Y-119079327D01*
X171818264Y-118249273D01*
X172259634Y-117289309D01*
X172461623Y-116254267D01*
X172424230Y-115198978D01*
X172147452Y-114178274D01*
X171631288Y-113246987D01*
X170875734Y-112459948D01*
X170217699Y-112031171D01*
X169268191Y-111707859D01*
X168219409Y-111640953D01*
X167189684Y-111827357D01*
X166506527Y-112128322D01*
X165598746Y-112836717D01*
X164946234Y-113707933D01*
X164544545Y-114689495D01*
X164389234Y-115728930D01*
X161817727Y-115728930D01*
X161825498Y-115047630D01*
X161870241Y-114385616D01*
X161967269Y-113960486D01*
X162134954Y-113721528D01*
X162391671Y-113618029D01*
X162683669Y-113598667D01*
X163080540Y-113479400D01*
X163441202Y-113179757D01*
X163711771Y-112786968D01*
X163838363Y-112388268D01*
X163767097Y-112070888D01*
X163677333Y-111990000D01*
X163544641Y-111755792D01*
X163508000Y-111485399D01*
X163562261Y-111264777D01*
X163757982Y-111030532D01*
X164144571Y-110740653D01*
X164771437Y-110353128D01*
X164989667Y-110225508D01*
X165632574Y-109862829D01*
X166175842Y-109575703D01*
X166547523Y-109401096D01*
X166663525Y-109365448D01*
X166885367Y-109493915D01*
X167133095Y-109788667D01*
X167384194Y-110066751D01*
X167735139Y-110189495D01*
X168164222Y-110212000D01*
X168657044Y-110183043D01*
X168943316Y-110052798D01*
X169153213Y-109756209D01*
X169180667Y-109704000D01*
X169406196Y-109380391D01*
X169694364Y-109233072D01*
X170099071Y-109266396D01*
G37*
X170099071Y-109266396D02*
X170674217Y-109484712D01*
X171466667Y-109888563D01*
X172225967Y-110309317D01*
X172723162Y-110618643D01*
X172999354Y-110855970D01*
X173095647Y-111060733D01*
X173053145Y-111272362D01*
X173007197Y-111366446D01*
X172851086Y-111768204D01*
X172874889Y-112150812D01*
X173097669Y-112623986D01*
X173274746Y-112906137D01*
X173636111Y-113368902D01*
X173972111Y-113573416D01*
X174172212Y-113598667D01*
X174509136Y-113629667D01*
X174744051Y-113756393D01*
X174894893Y-114029432D01*
X174979601Y-114499374D01*
X175016109Y-115216804D01*
X175022667Y-115997242D01*
X175017669Y-116855646D01*
X174996459Y-117437156D01*
X174949714Y-117803477D01*
X174868108Y-118016313D01*
X174742318Y-118137366D01*
X174695132Y-118164709D01*
X174264314Y-118312035D01*
X174029329Y-118340000D01*
X173714191Y-118469786D01*
X173374374Y-118789304D01*
X173319790Y-118861402D01*
X173083629Y-119259360D01*
X173056865Y-119570290D01*
X173138926Y-119800703D01*
X173281223Y-120159019D01*
X173329333Y-120354986D01*
X173173060Y-120428005D01*
X172755411Y-120507023D01*
X172153144Y-120579021D01*
X171859143Y-120604378D01*
X170243181Y-120803776D01*
X168829559Y-121152050D01*
X167503529Y-121679112D01*
X167237974Y-121808996D01*
X166112626Y-122375712D01*
X165033024Y-121798890D01*
X164380662Y-121434827D01*
X163988764Y-121156346D01*
X163811281Y-120905004D01*
X163802162Y-120622356D01*
X163883289Y-120339733D01*
X163922656Y-119852909D01*
X163781495Y-119306380D01*
X163512703Y-118803740D01*
X163169178Y-118448578D01*
X162862158Y-118340000D01*
X162392915Y-118262734D01*
X162142201Y-118164709D01*
X162001510Y-118059015D01*
X161907770Y-117879844D01*
X161851656Y-117565490D01*
X161823844Y-117054252D01*
X161815010Y-116284424D01*
X161814667Y-115997242D01*
X161817727Y-115728930D01*
X164389234Y-115728930D01*
X164475858Y-116773765D01*
X164799970Y-117771526D01*
X165357128Y-118669740D01*
X166142885Y-119415932D01*
X167152796Y-119957630D01*
X167170256Y-119964163D01*
X168007705Y-120131408D01*
X168959056Y-120097558D01*
X169874788Y-119874366D01*
X170217392Y-119724639D01*
X171137516Y-119079327D01*
X171818264Y-118249273D01*
X172259634Y-117289309D01*
X172461623Y-116254267D01*
X172424230Y-115198978D01*
X172147452Y-114178274D01*
X171631288Y-113246987D01*
X170875734Y-112459948D01*
X170217699Y-112031171D01*
X169268191Y-111707859D01*
X168219409Y-111640953D01*
X167189684Y-111827357D01*
X166506527Y-112128322D01*
X165598746Y-112836717D01*
X164946234Y-113707933D01*
X164544545Y-114689495D01*
X164389234Y-115728930D01*
X161817727Y-115728930D01*
X161825498Y-115047630D01*
X161870241Y-114385616D01*
X161967269Y-113960486D01*
X162134954Y-113721528D01*
X162391671Y-113618029D01*
X162683669Y-113598667D01*
X163080540Y-113479400D01*
X163441202Y-113179757D01*
X163711771Y-112786968D01*
X163838363Y-112388268D01*
X163767097Y-112070888D01*
X163677333Y-111990000D01*
X163544641Y-111755792D01*
X163508000Y-111485399D01*
X163562261Y-111264777D01*
X163757982Y-111030532D01*
X164144571Y-110740653D01*
X164771437Y-110353128D01*
X164989667Y-110225508D01*
X165632574Y-109862829D01*
X166175842Y-109575703D01*
X166547523Y-109401096D01*
X166663525Y-109365448D01*
X166885367Y-109493915D01*
X167133095Y-109788667D01*
X167384194Y-110066751D01*
X167735139Y-110189495D01*
X168164222Y-110212000D01*
X168657044Y-110183043D01*
X168943316Y-110052798D01*
X169153213Y-109756209D01*
X169180667Y-109704000D01*
X169406196Y-109380391D01*
X169694364Y-109233072D01*
X170099071Y-109266396D01*
G36*
X177527105Y-113701254D02*
G01*
X177759918Y-113793701D01*
X177851748Y-114018704D01*
X177871692Y-114163975D01*
X177821798Y-114631767D01*
X177662338Y-114936753D01*
X177503281Y-115241254D01*
X177558416Y-115389349D01*
X177615567Y-115651740D01*
X177488315Y-116005074D01*
X177245946Y-116315935D01*
X177009900Y-116445566D01*
X176818283Y-116428550D01*
X176785108Y-116215618D01*
X176823653Y-115981399D01*
X176850943Y-115609258D01*
X176760013Y-115461354D01*
X176758333Y-115461333D01*
X176610385Y-115607781D01*
X176489112Y-115960889D01*
X176487400Y-115969333D01*
X176330012Y-116359662D01*
X176043138Y-116477333D01*
X176042900Y-116477333D01*
X175761428Y-116364578D01*
X175716588Y-116181000D01*
X175765445Y-115869656D01*
X175876654Y-115348671D01*
X176012922Y-114784000D01*
X176055959Y-114614667D01*
X176800667Y-114614667D01*
X176808407Y-114770954D01*
X176865346Y-114784000D01*
X177104729Y-114660428D01*
X177139333Y-114614667D01*
X177131593Y-114458379D01*
X177074654Y-114445333D01*
X176835271Y-114568905D01*
X176800667Y-114614667D01*
X176055959Y-114614667D01*
X176292667Y-113683333D01*
X177054667Y-113683333D01*
X177527105Y-113701254D01*
G37*
X177527105Y-113701254D02*
X177759918Y-113793701D01*
X177851748Y-114018704D01*
X177871692Y-114163975D01*
X177821798Y-114631767D01*
X177662338Y-114936753D01*
X177503281Y-115241254D01*
X177558416Y-115389349D01*
X177615567Y-115651740D01*
X177488315Y-116005074D01*
X177245946Y-116315935D01*
X177009900Y-116445566D01*
X176818283Y-116428550D01*
X176785108Y-116215618D01*
X176823653Y-115981399D01*
X176850943Y-115609258D01*
X176760013Y-115461354D01*
X176758333Y-115461333D01*
X176610385Y-115607781D01*
X176489112Y-115960889D01*
X176487400Y-115969333D01*
X176330012Y-116359662D01*
X176043138Y-116477333D01*
X176042900Y-116477333D01*
X175761428Y-116364578D01*
X175716588Y-116181000D01*
X175765445Y-115869656D01*
X175876654Y-115348671D01*
X176012922Y-114784000D01*
X176055959Y-114614667D01*
X176800667Y-114614667D01*
X176808407Y-114770954D01*
X176865346Y-114784000D01*
X177104729Y-114660428D01*
X177139333Y-114614667D01*
X177131593Y-114458379D01*
X177074654Y-114445333D01*
X176835271Y-114568905D01*
X176800667Y-114614667D01*
X176055959Y-114614667D01*
X176292667Y-113683333D01*
X177054667Y-113683333D01*
X177527105Y-113701254D01*
G36*
X179830205Y-113749223D02*
G01*
X179902921Y-113816023D01*
X179956259Y-114085697D01*
X179918465Y-114563853D01*
X179813362Y-115140412D01*
X179664775Y-115705297D01*
X179496528Y-116148429D01*
X179354980Y-116347740D01*
X179061084Y-116437115D01*
X178621757Y-116470941D01*
X178180305Y-116450195D01*
X177880030Y-116375854D01*
X177834824Y-116337379D01*
X177812559Y-116068180D01*
X177886704Y-115593016D01*
X177895855Y-115555762D01*
X178665409Y-115555762D01*
X178705989Y-115779698D01*
X178744274Y-115800000D01*
X178885439Y-115653604D01*
X179039428Y-115290311D01*
X179074117Y-115174521D01*
X179172046Y-114689394D01*
X179140606Y-114450733D01*
X178986876Y-114491199D01*
X178936903Y-114541289D01*
X178800798Y-114806312D01*
X178703656Y-115187885D01*
X178665409Y-115555762D01*
X177895855Y-115555762D01*
X178027415Y-115020178D01*
X178204846Y-114457952D01*
X178389150Y-114014627D01*
X178531315Y-113810333D01*
X178951630Y-113636589D01*
X179438323Y-113616442D01*
X179830205Y-113749223D01*
G37*
X179830205Y-113749223D02*
X179902921Y-113816023D01*
X179956259Y-114085697D01*
X179918465Y-114563853D01*
X179813362Y-115140412D01*
X179664775Y-115705297D01*
X179496528Y-116148429D01*
X179354980Y-116347740D01*
X179061084Y-116437115D01*
X178621757Y-116470941D01*
X178180305Y-116450195D01*
X177880030Y-116375854D01*
X177834824Y-116337379D01*
X177812559Y-116068180D01*
X177886704Y-115593016D01*
X177895855Y-115555762D01*
X178665409Y-115555762D01*
X178705989Y-115779698D01*
X178744274Y-115800000D01*
X178885439Y-115653604D01*
X179039428Y-115290311D01*
X179074117Y-115174521D01*
X179172046Y-114689394D01*
X179140606Y-114450733D01*
X178986876Y-114491199D01*
X178936903Y-114541289D01*
X178800798Y-114806312D01*
X178703656Y-115187885D01*
X178665409Y-115555762D01*
X177895855Y-115555762D01*
X178027415Y-115020178D01*
X178204846Y-114457952D01*
X178389150Y-114014627D01*
X178531315Y-113810333D01*
X178951630Y-113636589D01*
X179438323Y-113616442D01*
X179830205Y-113749223D01*
G36*
X181715203Y-113684121D02*
G01*
X182035083Y-113931469D01*
X182058155Y-114327188D01*
X181929355Y-114622708D01*
X181760001Y-115058938D01*
X181739724Y-115433753D01*
X181739912Y-115434473D01*
X181731959Y-115845256D01*
X181635931Y-116121355D01*
X181449305Y-116343199D01*
X181132042Y-116450083D01*
X180593298Y-116477333D01*
X180090965Y-116461508D01*
X179854985Y-116395484D01*
X179813783Y-116251434D01*
X179831045Y-116181000D01*
X179918280Y-115846223D01*
X179968496Y-115630667D01*
X180695333Y-115630667D01*
X180733721Y-115775633D01*
X180854673Y-115800000D01*
X181086357Y-115711591D01*
X181118667Y-115630667D01*
X180997131Y-115466180D01*
X180959327Y-115461333D01*
X180729992Y-115584421D01*
X180695333Y-115630667D01*
X179968496Y-115630667D01*
X180038640Y-115329572D01*
X180102667Y-115038000D01*
X180196377Y-114614667D01*
X180949333Y-114614667D01*
X181078192Y-114779079D01*
X181118667Y-114784000D01*
X181283079Y-114655141D01*
X181288000Y-114614667D01*
X181159141Y-114450254D01*
X181118667Y-114445333D01*
X180954254Y-114574192D01*
X180949333Y-114614667D01*
X180196377Y-114614667D01*
X180255535Y-114347425D01*
X180381450Y-113922963D01*
X180525701Y-113699856D01*
X180733582Y-113613346D01*
X181050384Y-113598674D01*
X181109344Y-113598667D01*
X181715203Y-113684121D01*
G37*
X181715203Y-113684121D02*
X182035083Y-113931469D01*
X182058155Y-114327188D01*
X181929355Y-114622708D01*
X181760001Y-115058938D01*
X181739724Y-115433753D01*
X181739912Y-115434473D01*
X181731959Y-115845256D01*
X181635931Y-116121355D01*
X181449305Y-116343199D01*
X181132042Y-116450083D01*
X180593298Y-116477333D01*
X180090965Y-116461508D01*
X179854985Y-116395484D01*
X179813783Y-116251434D01*
X179831045Y-116181000D01*
X179918280Y-115846223D01*
X179968496Y-115630667D01*
X180695333Y-115630667D01*
X180733721Y-115775633D01*
X180854673Y-115800000D01*
X181086357Y-115711591D01*
X181118667Y-115630667D01*
X180997131Y-115466180D01*
X180959327Y-115461333D01*
X180729992Y-115584421D01*
X180695333Y-115630667D01*
X179968496Y-115630667D01*
X180038640Y-115329572D01*
X180102667Y-115038000D01*
X180196377Y-114614667D01*
X180949333Y-114614667D01*
X181078192Y-114779079D01*
X181118667Y-114784000D01*
X181283079Y-114655141D01*
X181288000Y-114614667D01*
X181159141Y-114450254D01*
X181118667Y-114445333D01*
X180954254Y-114574192D01*
X180949333Y-114614667D01*
X180196377Y-114614667D01*
X180255535Y-114347425D01*
X180381450Y-113922963D01*
X180525701Y-113699856D01*
X180733582Y-113613346D01*
X181050384Y-113598674D01*
X181109344Y-113598667D01*
X181715203Y-113684121D01*
G36*
X183924695Y-113777121D02*
G01*
X183979614Y-113831317D01*
X184072993Y-114069068D01*
X184055372Y-114476548D01*
X183933746Y-115088258D01*
X183789963Y-115658634D01*
X183658601Y-116102354D01*
X183582070Y-116294941D01*
X183357442Y-116405862D01*
X182924521Y-116470540D01*
X182717340Y-116477333D01*
X182251352Y-116459625D01*
X182032073Y-116371379D01*
X181968014Y-116159918D01*
X181965333Y-116044317D01*
X182013008Y-115547152D01*
X182783744Y-115547152D01*
X182819930Y-115793383D01*
X182938644Y-115800493D01*
X183036093Y-115673000D01*
X183120550Y-115432161D01*
X183223223Y-115021772D01*
X183228874Y-114995667D01*
X183273315Y-114583964D01*
X183200423Y-114451019D01*
X183058972Y-114580457D01*
X182897736Y-114955901D01*
X182850603Y-115122667D01*
X182783744Y-115547152D01*
X182013008Y-115547152D01*
X182020040Y-115473827D01*
X182160750Y-114845807D01*
X182352348Y-114278053D01*
X182559718Y-113888363D01*
X182629681Y-113815719D01*
X183052307Y-113638686D01*
X183538322Y-113626448D01*
X183924695Y-113777121D01*
G37*
X183924695Y-113777121D02*
X183979614Y-113831317D01*
X184072993Y-114069068D01*
X184055372Y-114476548D01*
X183933746Y-115088258D01*
X183789963Y-115658634D01*
X183658601Y-116102354D01*
X183582070Y-116294941D01*
X183357442Y-116405862D01*
X182924521Y-116470540D01*
X182717340Y-116477333D01*
X182251352Y-116459625D01*
X182032073Y-116371379D01*
X181968014Y-116159918D01*
X181965333Y-116044317D01*
X182013008Y-115547152D01*
X182783744Y-115547152D01*
X182819930Y-115793383D01*
X182938644Y-115800493D01*
X183036093Y-115673000D01*
X183120550Y-115432161D01*
X183223223Y-115021772D01*
X183228874Y-114995667D01*
X183273315Y-114583964D01*
X183200423Y-114451019D01*
X183058972Y-114580457D01*
X182897736Y-114955901D01*
X182850603Y-115122667D01*
X182783744Y-115547152D01*
X182013008Y-115547152D01*
X182020040Y-115473827D01*
X182160750Y-114845807D01*
X182352348Y-114278053D01*
X182559718Y-113888363D01*
X182629681Y-113815719D01*
X183052307Y-113638686D01*
X183538322Y-113626448D01*
X183924695Y-113777121D01*
G36*
X185833256Y-113617052D02*
G01*
X186167133Y-113663673D01*
X186236694Y-113693138D01*
X186292573Y-113946503D01*
X186166087Y-114249227D01*
X185936878Y-114436082D01*
X185874130Y-114445333D01*
X185684469Y-114542795D01*
X185526674Y-114871392D01*
X185379241Y-115461333D01*
X185242363Y-116035109D01*
X185106205Y-116345638D01*
X184930328Y-116465829D01*
X184815719Y-116477333D01*
X184590949Y-116438419D01*
X184520507Y-116259041D01*
X184567781Y-115845244D01*
X184568267Y-115842333D01*
X184668193Y-115309991D01*
X184770002Y-114859952D01*
X184778992Y-114826333D01*
X184797599Y-114527326D01*
X184609749Y-114445333D01*
X184375465Y-114364925D01*
X184365759Y-114089395D01*
X184438783Y-113866516D01*
X184634827Y-113684413D01*
X185078172Y-113605333D01*
X185341894Y-113598667D01*
X185833256Y-113617052D01*
G37*
X185833256Y-113617052D02*
X186167133Y-113663673D01*
X186236694Y-113693138D01*
X186292573Y-113946503D01*
X186166087Y-114249227D01*
X185936878Y-114436082D01*
X185874130Y-114445333D01*
X185684469Y-114542795D01*
X185526674Y-114871392D01*
X185379241Y-115461333D01*
X185242363Y-116035109D01*
X185106205Y-116345638D01*
X184930328Y-116465829D01*
X184815719Y-116477333D01*
X184590949Y-116438419D01*
X184520507Y-116259041D01*
X184567781Y-115845244D01*
X184568267Y-115842333D01*
X184668193Y-115309991D01*
X184770002Y-114859952D01*
X184778992Y-114826333D01*
X184797599Y-114527326D01*
X184609749Y-114445333D01*
X184375465Y-114364925D01*
X184365759Y-114089395D01*
X184438783Y-113866516D01*
X184634827Y-113684413D01*
X185078172Y-113605333D01*
X185341894Y-113598667D01*
X185833256Y-113617052D01*
G36*
X187105268Y-113650411D02*
G01*
X187241297Y-113749555D01*
X187272441Y-113959398D01*
X187201201Y-114366488D01*
X187134057Y-114646563D01*
X186985429Y-115253055D01*
X186855047Y-115797936D01*
X186805514Y-116011667D01*
X186616866Y-116388723D01*
X186364774Y-116477333D01*
X186091301Y-116410203D01*
X186029333Y-116318507D01*
X186070747Y-116000802D01*
X186176969Y-115496598D01*
X186320968Y-114910207D01*
X186475713Y-114345940D01*
X186614172Y-113908110D01*
X186707058Y-113703182D01*
X186973856Y-113622844D01*
X187105268Y-113650411D01*
G37*
X187105268Y-113650411D02*
X187241297Y-113749555D01*
X187272441Y-113959398D01*
X187201201Y-114366488D01*
X187134057Y-114646563D01*
X186985429Y-115253055D01*
X186855047Y-115797936D01*
X186805514Y-116011667D01*
X186616866Y-116388723D01*
X186364774Y-116477333D01*
X186091301Y-116410203D01*
X186029333Y-116318507D01*
X186070747Y-116000802D01*
X186176969Y-115496598D01*
X186320968Y-114910207D01*
X186475713Y-114345940D01*
X186614172Y-113908110D01*
X186707058Y-113703182D01*
X186973856Y-113622844D01*
X187105268Y-113650411D01*
G36*
X189148951Y-113754019D02*
G01*
X189218846Y-113819145D01*
X189350478Y-114189066D01*
X189235016Y-114548823D01*
X188930778Y-114766095D01*
X188793590Y-114784000D01*
X188505863Y-114724952D01*
X188498243Y-114592699D01*
X188496997Y-114462665D01*
X188385590Y-114478359D01*
X188216326Y-114671942D01*
X188065450Y-115045798D01*
X187974060Y-115454342D01*
X187983256Y-115751990D01*
X188012812Y-115798852D01*
X188142660Y-115753995D01*
X188183293Y-115673000D01*
X188391009Y-115511297D01*
X188679522Y-115461333D01*
X188977812Y-115506981D01*
X189017819Y-115707128D01*
X188981255Y-115842333D01*
X188811662Y-116195044D01*
X188673510Y-116347740D01*
X188367380Y-116440173D01*
X187920642Y-116471346D01*
X187476718Y-116443659D01*
X187179029Y-116359513D01*
X187138682Y-116322048D01*
X187111851Y-116043491D01*
X187184755Y-115561811D01*
X187327038Y-114986567D01*
X187508342Y-114427319D01*
X187698310Y-113993627D01*
X187834137Y-113812127D01*
X188264989Y-113636437D01*
X188756214Y-113617336D01*
X189148951Y-113754019D01*
G37*
X189148951Y-113754019D02*
X189218846Y-113819145D01*
X189350478Y-114189066D01*
X189235016Y-114548823D01*
X188930778Y-114766095D01*
X188793590Y-114784000D01*
X188505863Y-114724952D01*
X188498243Y-114592699D01*
X188496997Y-114462665D01*
X188385590Y-114478359D01*
X188216326Y-114671942D01*
X188065450Y-115045798D01*
X187974060Y-115454342D01*
X187983256Y-115751990D01*
X188012812Y-115798852D01*
X188142660Y-115753995D01*
X188183293Y-115673000D01*
X188391009Y-115511297D01*
X188679522Y-115461333D01*
X188977812Y-115506981D01*
X189017819Y-115707128D01*
X188981255Y-115842333D01*
X188811662Y-116195044D01*
X188673510Y-116347740D01*
X188367380Y-116440173D01*
X187920642Y-116471346D01*
X187476718Y-116443659D01*
X187179029Y-116359513D01*
X187138682Y-116322048D01*
X187111851Y-116043491D01*
X187184755Y-115561811D01*
X187327038Y-114986567D01*
X187508342Y-114427319D01*
X187698310Y-113993627D01*
X187834137Y-113812127D01*
X188264989Y-113636437D01*
X188756214Y-113617336D01*
X189148951Y-113754019D01*
G36*
X191081891Y-113707283D02*
G01*
X191345476Y-113986882D01*
X191341886Y-114355497D01*
X191154687Y-114559382D01*
X190774751Y-114556110D01*
X190752863Y-114551839D01*
X190376962Y-114533713D01*
X190174572Y-114620213D01*
X190226484Y-114751794D01*
X190401272Y-114784000D01*
X190819316Y-114919745D01*
X191026903Y-115285457D01*
X191005885Y-115741469D01*
X190860781Y-116132568D01*
X190702261Y-116347740D01*
X190359813Y-116457922D01*
X189899415Y-116476702D01*
X189458544Y-116414326D01*
X189174679Y-116281039D01*
X189141680Y-116231442D01*
X189124441Y-115873529D01*
X189373863Y-115687043D01*
X189775203Y-115694041D01*
X190118638Y-115717951D01*
X190262660Y-115639006D01*
X190262667Y-115638210D01*
X190118704Y-115497948D01*
X189881667Y-115430777D01*
X189633074Y-115344849D01*
X189531168Y-115115580D01*
X189522615Y-114711967D01*
X189657502Y-114090462D01*
X190016878Y-113721530D01*
X190607103Y-113598675D01*
X190612964Y-113598667D01*
X191081891Y-113707283D01*
G37*
X191081891Y-113707283D02*
X191345476Y-113986882D01*
X191341886Y-114355497D01*
X191154687Y-114559382D01*
X190774751Y-114556110D01*
X190752863Y-114551839D01*
X190376962Y-114533713D01*
X190174572Y-114620213D01*
X190226484Y-114751794D01*
X190401272Y-114784000D01*
X190819316Y-114919745D01*
X191026903Y-115285457D01*
X191005885Y-115741469D01*
X190860781Y-116132568D01*
X190702261Y-116347740D01*
X190359813Y-116457922D01*
X189899415Y-116476702D01*
X189458544Y-116414326D01*
X189174679Y-116281039D01*
X189141680Y-116231442D01*
X189124441Y-115873529D01*
X189373863Y-115687043D01*
X189775203Y-115694041D01*
X190118638Y-115717951D01*
X190262660Y-115639006D01*
X190262667Y-115638210D01*
X190118704Y-115497948D01*
X189881667Y-115430777D01*
X189633074Y-115344849D01*
X189531168Y-115115580D01*
X189522615Y-114711967D01*
X189657502Y-114090462D01*
X190016878Y-113721530D01*
X190607103Y-113598675D01*
X190612964Y-113598667D01*
X191081891Y-113707283D01*
G36*
X168884494Y-117621524D02*
G01*
X169434667Y-117691293D01*
X170125348Y-117761549D01*
X170783611Y-117780212D01*
X171170333Y-117754464D01*
X171590762Y-117729761D01*
X171797848Y-117798170D01*
X171805333Y-117824107D01*
X171666966Y-118145509D01*
X171305289Y-118555850D01*
X170800440Y-118993688D01*
X170232557Y-119397580D01*
X169681780Y-119706084D01*
X169228244Y-119857757D01*
X169144745Y-119864000D01*
X168932610Y-119746187D01*
X168605068Y-119447811D01*
X168436208Y-119265441D01*
X168122712Y-118867138D01*
X167941397Y-118558337D01*
X167911474Y-118393104D01*
X168052153Y-118425503D01*
X168168759Y-118512729D01*
X168435552Y-118658349D01*
X168526157Y-118534051D01*
X168424490Y-118168349D01*
X168397500Y-118107167D01*
X168273211Y-117768240D01*
X168264160Y-117596779D01*
X168454508Y-117586275D01*
X168884494Y-117621524D01*
G37*
X168884494Y-117621524D02*
X169434667Y-117691293D01*
X170125348Y-117761549D01*
X170783611Y-117780212D01*
X171170333Y-117754464D01*
X171590762Y-117729761D01*
X171797848Y-117798170D01*
X171805333Y-117824107D01*
X171666966Y-118145509D01*
X171305289Y-118555850D01*
X170800440Y-118993688D01*
X170232557Y-119397580D01*
X169681780Y-119706084D01*
X169228244Y-119857757D01*
X169144745Y-119864000D01*
X168932610Y-119746187D01*
X168605068Y-119447811D01*
X168436208Y-119265441D01*
X168122712Y-118867138D01*
X167941397Y-118558337D01*
X167911474Y-118393104D01*
X168052153Y-118425503D01*
X168168759Y-118512729D01*
X168435552Y-118658349D01*
X168526157Y-118534051D01*
X168424490Y-118168349D01*
X168397500Y-118107167D01*
X168273211Y-117768240D01*
X168264160Y-117596779D01*
X168454508Y-117586275D01*
X168884494Y-117621524D01*
G36*
X167360333Y-113408358D02*
G01*
X166921890Y-113715266D01*
X166629749Y-113963116D01*
X166556000Y-114068935D01*
X166694911Y-114168590D01*
X167047314Y-114153429D01*
X167516713Y-114045027D01*
X168006612Y-113864959D01*
X168384255Y-113660162D01*
X168760346Y-113424526D01*
X168999946Y-113311154D01*
X169034754Y-113311643D01*
X169019311Y-113489883D01*
X168907540Y-113850069D01*
X168892249Y-113891195D01*
X168794417Y-114250012D01*
X168829187Y-114585279D01*
X169018553Y-115031463D01*
X169106860Y-115203352D01*
X169483721Y-115803758D01*
X169967491Y-116425007D01*
X170196667Y-116674331D01*
X170874000Y-117357347D01*
X169572116Y-117295577D01*
X168796377Y-117233235D01*
X168259122Y-117118533D01*
X168157882Y-117070000D01*
X170112000Y-117070000D01*
X170196667Y-117154667D01*
X170281333Y-117070000D01*
X170196667Y-116985333D01*
X170112000Y-117070000D01*
X168157882Y-117070000D01*
X167861393Y-116927869D01*
X167773634Y-116866656D01*
X167419493Y-116635876D01*
X167176671Y-116607800D01*
X166916517Y-116752021D01*
X166612454Y-117161208D01*
X166556000Y-117512929D01*
X166509372Y-117845924D01*
X166390256Y-117918790D01*
X166386667Y-117916667D01*
X166238229Y-117916284D01*
X166257557Y-118190640D01*
X166442997Y-118721228D01*
X166462693Y-118768772D01*
X166628345Y-119191215D01*
X166633827Y-119324296D01*
X166460465Y-119186341D01*
X166254932Y-118972689D01*
X165795472Y-118289054D01*
X165493742Y-117444951D01*
X165369374Y-116552416D01*
X165412595Y-116059115D01*
X166579107Y-116059115D01*
X166612395Y-116215175D01*
X166730237Y-116314614D01*
X167002964Y-116461628D01*
X167019829Y-116390620D01*
X166981732Y-116339833D01*
X168989608Y-116339833D01*
X169020270Y-116451146D01*
X169092616Y-116604333D01*
X169338726Y-116891689D01*
X169567624Y-116971965D01*
X169751186Y-116942181D01*
X169607987Y-116861381D01*
X169604000Y-116859827D01*
X169283296Y-116648328D01*
X169128992Y-116492196D01*
X168989608Y-116339833D01*
X166981732Y-116339833D01*
X166891270Y-116219241D01*
X166680414Y-116054000D01*
X168757333Y-116054000D01*
X168842000Y-116138667D01*
X168926667Y-116054000D01*
X168842000Y-115969333D01*
X168757333Y-116054000D01*
X166680414Y-116054000D01*
X166675899Y-116050462D01*
X166579107Y-116059115D01*
X165412595Y-116059115D01*
X165442002Y-115723486D01*
X165580502Y-115338962D01*
X167605016Y-115338962D01*
X167733369Y-115487010D01*
X167816031Y-115551385D01*
X168179309Y-115746061D01*
X168408698Y-115794614D01*
X168554983Y-115753038D01*
X168426630Y-115604990D01*
X168343969Y-115540614D01*
X167980690Y-115345939D01*
X167751302Y-115297385D01*
X167605016Y-115338962D01*
X165580502Y-115338962D01*
X165605847Y-115268597D01*
X165755674Y-114802136D01*
X165767867Y-114421930D01*
X165833027Y-113906703D01*
X166181186Y-113460813D01*
X166757193Y-113134919D01*
X167318000Y-112998057D01*
X168164667Y-112886842D01*
X167360333Y-113408358D01*
G37*
X167360333Y-113408358D02*
X166921890Y-113715266D01*
X166629749Y-113963116D01*
X166556000Y-114068935D01*
X166694911Y-114168590D01*
X167047314Y-114153429D01*
X167516713Y-114045027D01*
X168006612Y-113864959D01*
X168384255Y-113660162D01*
X168760346Y-113424526D01*
X168999946Y-113311154D01*
X169034754Y-113311643D01*
X169019311Y-113489883D01*
X168907540Y-113850069D01*
X168892249Y-113891195D01*
X168794417Y-114250012D01*
X168829187Y-114585279D01*
X169018553Y-115031463D01*
X169106860Y-115203352D01*
X169483721Y-115803758D01*
X169967491Y-116425007D01*
X170196667Y-116674331D01*
X170874000Y-117357347D01*
X169572116Y-117295577D01*
X168796377Y-117233235D01*
X168259122Y-117118533D01*
X168157882Y-117070000D01*
X170112000Y-117070000D01*
X170196667Y-117154667D01*
X170281333Y-117070000D01*
X170196667Y-116985333D01*
X170112000Y-117070000D01*
X168157882Y-117070000D01*
X167861393Y-116927869D01*
X167773634Y-116866656D01*
X167419493Y-116635876D01*
X167176671Y-116607800D01*
X166916517Y-116752021D01*
X166612454Y-117161208D01*
X166556000Y-117512929D01*
X166509372Y-117845924D01*
X166390256Y-117918790D01*
X166386667Y-117916667D01*
X166238229Y-117916284D01*
X166257557Y-118190640D01*
X166442997Y-118721228D01*
X166462693Y-118768772D01*
X166628345Y-119191215D01*
X166633827Y-119324296D01*
X166460465Y-119186341D01*
X166254932Y-118972689D01*
X165795472Y-118289054D01*
X165493742Y-117444951D01*
X165369374Y-116552416D01*
X165412595Y-116059115D01*
X166579107Y-116059115D01*
X166612395Y-116215175D01*
X166730237Y-116314614D01*
X167002964Y-116461628D01*
X167019829Y-116390620D01*
X166981732Y-116339833D01*
X168989608Y-116339833D01*
X169020270Y-116451146D01*
X169092616Y-116604333D01*
X169338726Y-116891689D01*
X169567624Y-116971965D01*
X169751186Y-116942181D01*
X169607987Y-116861381D01*
X169604000Y-116859827D01*
X169283296Y-116648328D01*
X169128992Y-116492196D01*
X168989608Y-116339833D01*
X166981732Y-116339833D01*
X166891270Y-116219241D01*
X166680414Y-116054000D01*
X168757333Y-116054000D01*
X168842000Y-116138667D01*
X168926667Y-116054000D01*
X168842000Y-115969333D01*
X168757333Y-116054000D01*
X166680414Y-116054000D01*
X166675899Y-116050462D01*
X166579107Y-116059115D01*
X165412595Y-116059115D01*
X165442002Y-115723486D01*
X165580502Y-115338962D01*
X167605016Y-115338962D01*
X167733369Y-115487010D01*
X167816031Y-115551385D01*
X168179309Y-115746061D01*
X168408698Y-115794614D01*
X168554983Y-115753038D01*
X168426630Y-115604990D01*
X168343969Y-115540614D01*
X167980690Y-115345939D01*
X167751302Y-115297385D01*
X167605016Y-115338962D01*
X165580502Y-115338962D01*
X165605847Y-115268597D01*
X165755674Y-114802136D01*
X165767867Y-114421930D01*
X165833027Y-113906703D01*
X166181186Y-113460813D01*
X166757193Y-113134919D01*
X167318000Y-112998057D01*
X168164667Y-112886842D01*
X167360333Y-113408358D01*
G36*
X167688207Y-113538714D02*
G01*
X167656667Y-113598667D01*
X167497118Y-113760380D01*
X167467346Y-113768000D01*
X167455793Y-113658619D01*
X167487333Y-113598667D01*
X167646881Y-113436953D01*
X167676654Y-113429333D01*
X167688207Y-113538714D01*
G37*
X167688207Y-113538714D02*
X167656667Y-113598667D01*
X167497118Y-113760380D01*
X167467346Y-113768000D01*
X167455793Y-113658619D01*
X167487333Y-113598667D01*
X167646881Y-113436953D01*
X167676654Y-113429333D01*
X167688207Y-113538714D01*
D11*
X173940000Y-113270000D02*
X174600000Y-110730000D01*
X174600000Y-110730000D02*
X174840000Y-110520000D01*
X174840000Y-110520000D02*
X176150000Y-110480000D01*
X176150000Y-110480000D02*
X175980000Y-111260000D01*
X175980000Y-111260000D02*
X175030000Y-111260000D01*
X175030000Y-111260000D02*
X174940000Y-111690000D01*
X174940000Y-111690000D02*
X175840000Y-111740000D01*
X175840000Y-111740000D02*
X175660000Y-112360000D01*
X175660000Y-112360000D02*
X174850000Y-112340000D01*
X174850000Y-112340000D02*
X174670000Y-113320000D01*
X174670000Y-113320000D02*
X173940000Y-113270000D01*
X176200000Y-113000000D02*
X176600000Y-110800000D01*
X176600000Y-110800000D02*
X176970000Y-110540000D01*
X176970000Y-110540000D02*
X177990000Y-110560000D01*
X177990000Y-110560000D02*
X178330000Y-110830000D01*
X178330000Y-110830000D02*
X177930000Y-113120000D01*
X177930000Y-113120000D02*
X177640000Y-113360000D01*
X177640000Y-113360000D02*
X176530000Y-113290000D01*
X176530000Y-113290000D02*
X176200000Y-113000000D01*
X176920000Y-112520000D02*
X177050000Y-111520000D01*
X177050000Y-111520000D02*
X177220000Y-111280000D01*
X177220000Y-111280000D02*
X177510000Y-111300000D01*
X177510000Y-111300000D02*
X177600000Y-111460000D01*
X177600000Y-111460000D02*
X177470000Y-112560000D01*
X177470000Y-112560000D02*
X177340000Y-112670000D01*
X177340000Y-112670000D02*
X177080000Y-112660000D01*
X177080000Y-112660000D02*
X176920000Y-112530000D01*
X178610000Y-110970000D02*
X178860000Y-110460000D01*
X178860000Y-110460000D02*
X179310000Y-110490000D01*
X179310000Y-110490000D02*
X179520000Y-111140000D01*
X179520000Y-111140000D02*
X179690000Y-111130000D01*
X179690000Y-111130000D02*
X179920000Y-110600000D01*
X179920000Y-110600000D02*
X180440000Y-110590000D01*
X180440000Y-110590000D02*
X180580000Y-110950000D01*
X180580000Y-110950000D02*
X179930000Y-111720000D01*
X179930000Y-111720000D02*
X179810000Y-112200000D01*
X179810000Y-112200000D02*
X180080000Y-112880000D01*
X180080000Y-112880000D02*
X179970000Y-113290000D01*
X179970000Y-113290000D02*
X179430000Y-113340000D01*
X179430000Y-113340000D02*
X179330000Y-112840000D01*
X179330000Y-112840000D02*
X179120000Y-112820000D01*
X179120000Y-112820000D02*
X178830000Y-113370000D01*
X178830000Y-113370000D02*
X178280000Y-113330000D01*
X178280000Y-113330000D02*
X178220000Y-113080000D01*
X178220000Y-113080000D02*
X178770000Y-112260000D01*
X178770000Y-112260000D02*
X178850000Y-111820000D01*
X178850000Y-111820000D02*
X178610000Y-110970000D01*
X188370000Y-111180000D02*
X188370000Y-109850000D01*
X188370000Y-109850000D02*
X189700000Y-109850000D01*
X190970000Y-109850000D02*
X216430000Y-109850000D01*
X216430000Y-112510000D02*
X216430000Y-109850000D01*
X190970000Y-112510000D02*
X216430000Y-112510000D01*
X190970000Y-112510000D02*
X190970000Y-109850000D01*
X200410000Y-78160000D02*
X200410000Y-79490000D01*
X199080000Y-78160000D02*
X200410000Y-78160000D01*
X197810000Y-78160000D02*
X197810000Y-80820000D01*
X197810000Y-80820000D02*
X185050000Y-80820000D01*
X197810000Y-78160000D02*
X185050000Y-78160000D01*
X185050000Y-78160000D02*
X185050000Y-80820000D01*
X176475000Y-62930000D02*
X179335000Y-62930000D01*
X176475000Y-61010000D02*
X176475000Y-62930000D01*
X179335000Y-61010000D02*
X176475000Y-61010000D01*
D12*
X219684000Y-65160000D02*
G75*
G03*
X219684000Y-65160000I-254000J0D01*
G01*
D13*
X219730000Y-72940000D02*
X219730000Y-68180000D01*
X184930000Y-72940000D02*
X184930000Y-68180000D01*
X219730000Y-68180000D02*
X184930000Y-68180000D01*
X184930000Y-72940000D02*
X219730000Y-72940000D01*
D11*
X191936647Y-61235000D02*
X191482519Y-61235000D01*
X191936647Y-62705000D02*
X191482519Y-62705000D01*
X175640000Y-66430000D02*
X176970000Y-66430000D01*
X175640000Y-67760000D02*
X175640000Y-66430000D01*
X178240000Y-66430000D02*
X180840000Y-66430000D01*
X178240000Y-69030000D02*
X178240000Y-66430000D01*
X175640000Y-69030000D02*
X178240000Y-69030000D01*
X180840000Y-66430000D02*
X180840000Y-74170000D01*
X175640000Y-69030000D02*
X175640000Y-74170000D01*
X175640000Y-74170000D02*
X180840000Y-74170000D01*
X186272936Y-62705000D02*
X186727064Y-62705000D01*
X186272936Y-61235000D02*
X186727064Y-61235000D01*
D14*
X211450000Y-43000000D02*
G75*
G03*
X211450000Y-43000000I-150000J0D01*
G01*
D15*
X192240000Y-43580000D02*
X212560000Y-43580000D01*
X192240000Y-58820000D02*
X192240000Y-43580000D01*
X212560000Y-58820000D02*
X192240000Y-58820000D01*
X212560000Y-43580000D02*
X212560000Y-58820000D01*
D11*
X188090000Y-94850000D02*
X189420000Y-94850000D01*
X189420000Y-94850000D02*
X189420000Y-96180000D01*
X189420000Y-97450000D02*
X189420000Y-100050000D01*
X186760000Y-100050000D02*
X189420000Y-100050000D01*
X186760000Y-97450000D02*
X186760000Y-100050000D01*
X186760000Y-97450000D02*
X189420000Y-97450000D01*
X218640000Y-49470000D02*
X219970000Y-49470000D01*
X219970000Y-49470000D02*
X219970000Y-50800000D01*
X219970000Y-52070000D02*
X219970000Y-54670000D01*
X217310000Y-54670000D02*
X219970000Y-54670000D01*
X217310000Y-52070000D02*
X217310000Y-54670000D01*
X217310000Y-52070000D02*
X219970000Y-52070000D01*
X184830000Y-52110000D02*
X187490000Y-52110000D01*
X184830000Y-52110000D02*
X184830000Y-54710000D01*
X184830000Y-54710000D02*
X187490000Y-54710000D01*
X187490000Y-52110000D02*
X187490000Y-54710000D01*
X187490000Y-49510000D02*
X187490000Y-50840000D01*
X186160000Y-49510000D02*
X187490000Y-49510000D01*
X203421422Y-76420000D02*
X203938578Y-76420000D01*
X203421422Y-77840000D02*
X203938578Y-77840000D01*
X213016493Y-61260000D02*
X212499337Y-61260000D01*
X213016493Y-62680000D02*
X212499337Y-62680000D01*
X207746910Y-62680000D02*
X207229754Y-62680000D01*
X207746910Y-61260000D02*
X207229754Y-61260000D01*
X202477327Y-61260000D02*
X201960171Y-61260000D01*
X202477327Y-62680000D02*
X201960171Y-62680000D01*
X197207744Y-62680000D02*
X196690588Y-62680000D01*
X197207744Y-61260000D02*
X196690588Y-61260000D01*
X191551422Y-96950000D02*
X192068578Y-96950000D01*
X191551422Y-95530000D02*
X192068578Y-95530000D01*
X195828578Y-95530000D02*
X195311422Y-95530000D01*
X195828578Y-96950000D02*
X195311422Y-96950000D01*
D16*
X186040000Y-91820000D02*
G75*
G03*
X186040000Y-91820000I-100000J0D01*
G01*
D13*
X197060000Y-93620000D02*
X186520000Y-93620000D01*
X197060000Y-88920000D02*
X197060000Y-93620000D01*
X186520000Y-88920000D02*
X197060000Y-88920000D01*
X186520000Y-93620000D02*
X186520000Y-88920000D01*
D17*
X186382380Y-111513333D02*
X187096666Y-111513333D01*
X187239523Y-111560952D01*
X187334761Y-111656190D01*
X187382380Y-111799047D01*
X187382380Y-111894285D01*
X186382380Y-110560952D02*
X186382380Y-111037142D01*
X186858571Y-111084761D01*
X186810952Y-111037142D01*
X186763333Y-110941904D01*
X186763333Y-110703809D01*
X186810952Y-110608571D01*
X186858571Y-110560952D01*
X186953809Y-110513333D01*
X187191904Y-110513333D01*
X187287142Y-110560952D01*
X187334761Y-110608571D01*
X187382380Y-110703809D01*
X187382380Y-110941904D01*
X187334761Y-111037142D01*
X187287142Y-111084761D01*
X192099523Y-81957142D02*
X192051904Y-82004761D01*
X191909047Y-82052380D01*
X191813809Y-82052380D01*
X191670952Y-82004761D01*
X191575714Y-81909523D01*
X191528095Y-81814285D01*
X191480476Y-81623809D01*
X191480476Y-81480952D01*
X191528095Y-81290476D01*
X191575714Y-81195238D01*
X191670952Y-81100000D01*
X191813809Y-81052380D01*
X191909047Y-81052380D01*
X192051904Y-81100000D01*
X192099523Y-81147619D01*
X192528095Y-82052380D02*
X192528095Y-81052380D01*
X193099523Y-82052380D01*
X193099523Y-81052380D01*
X194099523Y-82052380D02*
X193528095Y-82052380D01*
X193813809Y-82052380D02*
X193813809Y-81052380D01*
X193718571Y-81195238D01*
X193623333Y-81290476D01*
X193528095Y-81338095D01*
X177596904Y-60772380D02*
X177596904Y-59772380D01*
X177835000Y-59772380D01*
X177977857Y-59820000D01*
X178073095Y-59915238D01*
X178120714Y-60010476D01*
X178168333Y-60200952D01*
X178168333Y-60343809D01*
X178120714Y-60534285D01*
X178073095Y-60629523D01*
X177977857Y-60724761D01*
X177835000Y-60772380D01*
X177596904Y-60772380D01*
X179120714Y-60772380D02*
X178549285Y-60772380D01*
X178835000Y-60772380D02*
X178835000Y-59772380D01*
X178739761Y-59915238D01*
X178644523Y-60010476D01*
X178549285Y-60058095D01*
X201323202Y-71042662D02*
X201323202Y-70042040D01*
X202371473Y-70947365D02*
X202323824Y-70995013D01*
X202180878Y-71042662D01*
X202085581Y-71042662D01*
X201942635Y-70995013D01*
X201847337Y-70899716D01*
X201799689Y-70804419D01*
X201752040Y-70613824D01*
X201752040Y-70470878D01*
X201799689Y-70280283D01*
X201847337Y-70184986D01*
X201942635Y-70089689D01*
X202085581Y-70042040D01*
X202180878Y-70042040D01*
X202323824Y-70089689D01*
X202371473Y-70137337D01*
X203324446Y-71042662D02*
X202752662Y-71042662D01*
X203038554Y-71042662D02*
X203038554Y-70042040D01*
X202943257Y-70184986D01*
X202847959Y-70280283D01*
X202752662Y-70327932D01*
X185371666Y-86864761D02*
X185514523Y-86912380D01*
X185752619Y-86912380D01*
X185847857Y-86864761D01*
X185895476Y-86817142D01*
X185943095Y-86721904D01*
X185943095Y-86626666D01*
X185895476Y-86531428D01*
X185847857Y-86483809D01*
X185752619Y-86436190D01*
X185562142Y-86388571D01*
X185466904Y-86340952D01*
X185419285Y-86293333D01*
X185371666Y-86198095D01*
X185371666Y-86102857D01*
X185419285Y-86007619D01*
X185466904Y-85960000D01*
X185562142Y-85912380D01*
X185800238Y-85912380D01*
X185943095Y-85960000D01*
X186276428Y-85912380D02*
X186514523Y-86912380D01*
X186705000Y-86198095D01*
X186895476Y-86912380D01*
X187133571Y-85912380D01*
X188038333Y-86912380D02*
X187466904Y-86912380D01*
X187752619Y-86912380D02*
X187752619Y-85912380D01*
X187657380Y-86055238D01*
X187562142Y-86150476D01*
X187466904Y-86198095D01*
X191855000Y-85312380D02*
X191855000Y-85550476D01*
X191616904Y-85455238D02*
X191855000Y-85550476D01*
X192093095Y-85455238D01*
X191712142Y-85740952D02*
X191855000Y-85550476D01*
X191997857Y-85740952D01*
X191542916Y-64072380D02*
X191209583Y-63596190D01*
X190971487Y-64072380D02*
X190971487Y-63072380D01*
X191352440Y-63072380D01*
X191447678Y-63120000D01*
X191495297Y-63167619D01*
X191542916Y-63262857D01*
X191542916Y-63405714D01*
X191495297Y-63500952D01*
X191447678Y-63548571D01*
X191352440Y-63596190D01*
X190971487Y-63596190D01*
X192495297Y-64072380D02*
X191923868Y-64072380D01*
X192209583Y-64072380D02*
X192209583Y-63072380D01*
X192114344Y-63215238D01*
X192019106Y-63310476D01*
X191923868Y-63358095D01*
X177406666Y-64882380D02*
X177406666Y-65596666D01*
X177359047Y-65739523D01*
X177263809Y-65834761D01*
X177120952Y-65882380D01*
X177025714Y-65882380D01*
X177882857Y-65882380D02*
X177882857Y-64882380D01*
X178263809Y-64882380D01*
X178359047Y-64930000D01*
X178406666Y-64977619D01*
X178454285Y-65072857D01*
X178454285Y-65215714D01*
X178406666Y-65310952D01*
X178359047Y-65358571D01*
X178263809Y-65406190D01*
X177882857Y-65406190D01*
X179406666Y-65882380D02*
X178835238Y-65882380D01*
X179120952Y-65882380D02*
X179120952Y-64882380D01*
X179025714Y-65025238D01*
X178930476Y-65120476D01*
X178835238Y-65168095D01*
X227057619Y-67025238D02*
X227010000Y-67120476D01*
X226914761Y-67215714D01*
X226771904Y-67358571D01*
X226724285Y-67453809D01*
X226724285Y-67549047D01*
X226962380Y-67501428D02*
X226914761Y-67596666D01*
X226819523Y-67691904D01*
X226629047Y-67739523D01*
X226295714Y-67739523D01*
X226105238Y-67691904D01*
X226010000Y-67596666D01*
X225962380Y-67501428D01*
X225962380Y-67310952D01*
X226010000Y-67215714D01*
X226105238Y-67120476D01*
X226295714Y-67072857D01*
X226629047Y-67072857D01*
X226819523Y-67120476D01*
X226914761Y-67215714D01*
X226962380Y-67310952D01*
X226962380Y-67501428D01*
X226962380Y-66120476D02*
X226962380Y-66691904D01*
X226962380Y-66406190D02*
X225962380Y-66406190D01*
X226105238Y-66501428D01*
X226200476Y-66596666D01*
X226248095Y-66691904D01*
X225212380Y-62630000D02*
X225450476Y-62630000D01*
X225355238Y-62868095D02*
X225450476Y-62630000D01*
X225355238Y-62391904D01*
X225640952Y-62772857D02*
X225450476Y-62630000D01*
X225640952Y-62487142D01*
X186333333Y-60772380D02*
X186000000Y-60296190D01*
X185761904Y-60772380D02*
X185761904Y-59772380D01*
X186142857Y-59772380D01*
X186238095Y-59820000D01*
X186285714Y-59867619D01*
X186333333Y-59962857D01*
X186333333Y-60105714D01*
X186285714Y-60200952D01*
X186238095Y-60248571D01*
X186142857Y-60296190D01*
X185761904Y-60296190D01*
X186714285Y-59867619D02*
X186761904Y-59820000D01*
X186857142Y-59772380D01*
X187095238Y-59772380D01*
X187190476Y-59820000D01*
X187238095Y-59867619D01*
X187285714Y-59962857D01*
X187285714Y-60058095D01*
X187238095Y-60200952D01*
X186666666Y-60772380D01*
X187285714Y-60772380D01*
D18*
X213573311Y-46432205D02*
X213573311Y-46065920D01*
X214214309Y-46249063D02*
X213573311Y-46249063D01*
X213878548Y-45638588D02*
X213909072Y-45547017D01*
X213939595Y-45516494D01*
X214000643Y-45485970D01*
X214092214Y-45485970D01*
X214153261Y-45516494D01*
X214183785Y-45547017D01*
X214214309Y-45608065D01*
X214214309Y-45852254D01*
X213573311Y-45852254D01*
X213573311Y-45638588D01*
X213603835Y-45577541D01*
X213634358Y-45547017D01*
X213695406Y-45516494D01*
X213756453Y-45516494D01*
X213817501Y-45547017D01*
X213848024Y-45577541D01*
X213878548Y-45638588D01*
X213878548Y-45852254D01*
X214214309Y-44875496D02*
X214214309Y-45241780D01*
X214214309Y-45058638D02*
X213573311Y-45058638D01*
X213664882Y-45119685D01*
X213725929Y-45180733D01*
X213756453Y-45241780D01*
D17*
X187756666Y-100882380D02*
X187756666Y-101596666D01*
X187709047Y-101739523D01*
X187613809Y-101834761D01*
X187470952Y-101882380D01*
X187375714Y-101882380D01*
X188137619Y-100882380D02*
X188756666Y-100882380D01*
X188423333Y-101263333D01*
X188566190Y-101263333D01*
X188661428Y-101310952D01*
X188709047Y-101358571D01*
X188756666Y-101453809D01*
X188756666Y-101691904D01*
X188709047Y-101787142D01*
X188661428Y-101834761D01*
X188566190Y-101882380D01*
X188280476Y-101882380D01*
X188185238Y-101834761D01*
X188137619Y-101787142D01*
X218306666Y-47482380D02*
X218306666Y-48196666D01*
X218259047Y-48339523D01*
X218163809Y-48434761D01*
X218020952Y-48482380D01*
X217925714Y-48482380D01*
X219306666Y-48482380D02*
X218735238Y-48482380D01*
X219020952Y-48482380D02*
X219020952Y-47482380D01*
X218925714Y-47625238D01*
X218830476Y-47720476D01*
X218735238Y-47768095D01*
X185826666Y-47522380D02*
X185826666Y-48236666D01*
X185779047Y-48379523D01*
X185683809Y-48474761D01*
X185540952Y-48522380D01*
X185445714Y-48522380D01*
X186255238Y-47617619D02*
X186302857Y-47570000D01*
X186398095Y-47522380D01*
X186636190Y-47522380D01*
X186731428Y-47570000D01*
X186779047Y-47617619D01*
X186826666Y-47712857D01*
X186826666Y-47808095D01*
X186779047Y-47950952D01*
X186207619Y-48522380D01*
X186826666Y-48522380D01*
X203553333Y-79167142D02*
X203505714Y-79214761D01*
X203362857Y-79262380D01*
X203267619Y-79262380D01*
X203124761Y-79214761D01*
X203029523Y-79119523D01*
X202981904Y-79024285D01*
X202934285Y-78833809D01*
X202934285Y-78690952D01*
X202981904Y-78500476D01*
X203029523Y-78405238D01*
X203124761Y-78310000D01*
X203267619Y-78262380D01*
X203362857Y-78262380D01*
X203505714Y-78310000D01*
X203553333Y-78357619D01*
X204505714Y-79262380D02*
X203934285Y-79262380D01*
X204220000Y-79262380D02*
X204220000Y-78262380D01*
X204124761Y-78405238D01*
X204029523Y-78500476D01*
X203934285Y-78548095D01*
X212591248Y-63977142D02*
X212543629Y-64024761D01*
X212400772Y-64072380D01*
X212305534Y-64072380D01*
X212162676Y-64024761D01*
X212067438Y-63929523D01*
X212019819Y-63834285D01*
X211972200Y-63643809D01*
X211972200Y-63500952D01*
X212019819Y-63310476D01*
X212067438Y-63215238D01*
X212162676Y-63120000D01*
X212305534Y-63072380D01*
X212400772Y-63072380D01*
X212543629Y-63120000D01*
X212591248Y-63167619D01*
X212972200Y-63167619D02*
X213019819Y-63120000D01*
X213115057Y-63072380D01*
X213353153Y-63072380D01*
X213448391Y-63120000D01*
X213496010Y-63167619D01*
X213543629Y-63262857D01*
X213543629Y-63358095D01*
X213496010Y-63500952D01*
X212924581Y-64072380D01*
X213543629Y-64072380D01*
X207321665Y-63977142D02*
X207274046Y-64024761D01*
X207131189Y-64072380D01*
X207035951Y-64072380D01*
X206893093Y-64024761D01*
X206797855Y-63929523D01*
X206750236Y-63834285D01*
X206702617Y-63643809D01*
X206702617Y-63500952D01*
X206750236Y-63310476D01*
X206797855Y-63215238D01*
X206893093Y-63120000D01*
X207035951Y-63072380D01*
X207131189Y-63072380D01*
X207274046Y-63120000D01*
X207321665Y-63167619D01*
X207654998Y-63072380D02*
X208274046Y-63072380D01*
X207940712Y-63453333D01*
X208083570Y-63453333D01*
X208178808Y-63500952D01*
X208226427Y-63548571D01*
X208274046Y-63643809D01*
X208274046Y-63881904D01*
X208226427Y-63977142D01*
X208178808Y-64024761D01*
X208083570Y-64072380D01*
X207797855Y-64072380D01*
X207702617Y-64024761D01*
X207654998Y-63977142D01*
X202052082Y-63977142D02*
X202004463Y-64024761D01*
X201861606Y-64072380D01*
X201766368Y-64072380D01*
X201623510Y-64024761D01*
X201528272Y-63929523D01*
X201480653Y-63834285D01*
X201433034Y-63643809D01*
X201433034Y-63500952D01*
X201480653Y-63310476D01*
X201528272Y-63215238D01*
X201623510Y-63120000D01*
X201766368Y-63072380D01*
X201861606Y-63072380D01*
X202004463Y-63120000D01*
X202052082Y-63167619D01*
X202909225Y-63405714D02*
X202909225Y-64072380D01*
X202671129Y-63024761D02*
X202433034Y-63739047D01*
X203052082Y-63739047D01*
X196782499Y-63977142D02*
X196734880Y-64024761D01*
X196592023Y-64072380D01*
X196496785Y-64072380D01*
X196353927Y-64024761D01*
X196258689Y-63929523D01*
X196211070Y-63834285D01*
X196163451Y-63643809D01*
X196163451Y-63500952D01*
X196211070Y-63310476D01*
X196258689Y-63215238D01*
X196353927Y-63120000D01*
X196496785Y-63072380D01*
X196592023Y-63072380D01*
X196734880Y-63120000D01*
X196782499Y-63167619D01*
X197687261Y-63072380D02*
X197211070Y-63072380D01*
X197163451Y-63548571D01*
X197211070Y-63500952D01*
X197306308Y-63453333D01*
X197544404Y-63453333D01*
X197639642Y-63500952D01*
X197687261Y-63548571D01*
X197734880Y-63643809D01*
X197734880Y-63881904D01*
X197687261Y-63977142D01*
X197639642Y-64024761D01*
X197544404Y-64072380D01*
X197306308Y-64072380D01*
X197211070Y-64024761D01*
X197163451Y-63977142D01*
X191643333Y-94947142D02*
X191595714Y-94994761D01*
X191452857Y-95042380D01*
X191357619Y-95042380D01*
X191214761Y-94994761D01*
X191119523Y-94899523D01*
X191071904Y-94804285D01*
X191024285Y-94613809D01*
X191024285Y-94470952D01*
X191071904Y-94280476D01*
X191119523Y-94185238D01*
X191214761Y-94090000D01*
X191357619Y-94042380D01*
X191452857Y-94042380D01*
X191595714Y-94090000D01*
X191643333Y-94137619D01*
X192500476Y-94042380D02*
X192310000Y-94042380D01*
X192214761Y-94090000D01*
X192167142Y-94137619D01*
X192071904Y-94280476D01*
X192024285Y-94470952D01*
X192024285Y-94851904D01*
X192071904Y-94947142D01*
X192119523Y-94994761D01*
X192214761Y-95042380D01*
X192405238Y-95042380D01*
X192500476Y-94994761D01*
X192548095Y-94947142D01*
X192595714Y-94851904D01*
X192595714Y-94613809D01*
X192548095Y-94518571D01*
X192500476Y-94470952D01*
X192405238Y-94423333D01*
X192214761Y-94423333D01*
X192119523Y-94470952D01*
X192071904Y-94518571D01*
X192024285Y-94613809D01*
X195373333Y-95047142D02*
X195325714Y-95094761D01*
X195182857Y-95142380D01*
X195087619Y-95142380D01*
X194944761Y-95094761D01*
X194849523Y-94999523D01*
X194801904Y-94904285D01*
X194754285Y-94713809D01*
X194754285Y-94570952D01*
X194801904Y-94380476D01*
X194849523Y-94285238D01*
X194944761Y-94190000D01*
X195087619Y-94142380D01*
X195182857Y-94142380D01*
X195325714Y-94190000D01*
X195373333Y-94237619D01*
X195706666Y-94142380D02*
X196373333Y-94142380D01*
X195944761Y-95142380D01*
X183414777Y-89227808D02*
X183414777Y-90561482D01*
X183493228Y-90718385D01*
X183571680Y-90796837D01*
X183728582Y-90875288D01*
X184042388Y-90875288D01*
X184199291Y-90796837D01*
X184277742Y-90718385D01*
X184356194Y-90561482D01*
X184356194Y-89227808D01*
X186003674Y-90875288D02*
X185062257Y-90875288D01*
X185532965Y-90875288D02*
X185532965Y-89227808D01*
X185376062Y-89463162D01*
X185219160Y-89620065D01*
X185062257Y-89698517D01*
%LPC*%
D19*
X167465000Y-126990000D03*
X237315000Y-126990000D03*
D20*
X215100000Y-111180000D03*
X212560000Y-111180000D03*
X210020000Y-111180000D03*
X207480000Y-111180000D03*
X204940000Y-111180000D03*
X202400000Y-111180000D03*
X199860000Y-111180000D03*
X197320000Y-111180000D03*
X194780000Y-111180000D03*
X192240000Y-111180000D03*
D21*
X189700000Y-111180000D03*
D20*
X186380000Y-79490000D03*
X188920000Y-79490000D03*
X191460000Y-79490000D03*
X194000000Y-79490000D03*
X196540000Y-79490000D03*
D21*
X199080000Y-79490000D03*
G36*
G01*
X178785000Y-62420001D02*
X178785000Y-61519999D01*
G75*
G02*
X179034999Y-61270000I249999J0D01*
G01*
X179685001Y-61270000D01*
G75*
G02*
X179935000Y-61519999I0J-249999D01*
G01*
X179935000Y-62420001D01*
G75*
G02*
X179685001Y-62670000I-249999J0D01*
G01*
X179034999Y-62670000D01*
G75*
G02*
X178785000Y-62420001I0J249999D01*
G01*
G37*
G36*
G01*
X176735000Y-62420001D02*
X176735000Y-61519999D01*
G75*
G02*
X176984999Y-61270000I249999J0D01*
G01*
X177635001Y-61270000D01*
G75*
G02*
X177885000Y-61519999I0J-249999D01*
G01*
X177885000Y-62420001D01*
G75*
G02*
X177635001Y-62670000I-249999J0D01*
G01*
X176984999Y-62670000D01*
G75*
G02*
X176735000Y-62420001I0J249999D01*
G01*
G37*
D22*
X218840000Y-74520000D03*
X216300000Y-74520000D03*
X213760000Y-74520000D03*
X211220000Y-74520000D03*
X208680000Y-74520000D03*
X206140000Y-74520000D03*
X203600000Y-74520000D03*
X201060000Y-74520000D03*
X198520000Y-74520000D03*
X195980000Y-74520000D03*
X193440000Y-74520000D03*
X190900000Y-74520000D03*
X188360000Y-74520000D03*
X185820000Y-74520000D03*
X185820000Y-66600000D03*
X188360000Y-66600000D03*
X190900000Y-66600000D03*
X193440000Y-66600000D03*
X195980000Y-66600000D03*
X198520000Y-66600000D03*
X208680000Y-66600000D03*
X206140000Y-66600000D03*
X211220000Y-66600000D03*
X213760000Y-66600000D03*
X201060000Y-66600000D03*
X203600000Y-66600000D03*
X216300000Y-66600000D03*
D23*
X218840000Y-66600000D03*
D24*
X186385000Y-84420000D03*
X191785000Y-84420000D03*
G36*
G01*
X191309583Y-61519999D02*
X191309583Y-62420001D01*
G75*
G02*
X191059584Y-62670000I-249999J0D01*
G01*
X190359582Y-62670000D01*
G75*
G02*
X190109583Y-62420001I0J249999D01*
G01*
X190109583Y-61519999D01*
G75*
G02*
X190359582Y-61270000I249999J0D01*
G01*
X191059584Y-61270000D01*
G75*
G02*
X191309583Y-61519999I0J-249999D01*
G01*
G37*
G36*
G01*
X193309583Y-61519999D02*
X193309583Y-62420001D01*
G75*
G02*
X193059584Y-62670000I-249999J0D01*
G01*
X192359582Y-62670000D01*
G75*
G02*
X192109583Y-62420001I0J249999D01*
G01*
X192109583Y-61519999D01*
G75*
G02*
X192359582Y-61270000I249999J0D01*
G01*
X193059584Y-61270000D01*
G75*
G02*
X193309583Y-61519999I0J-249999D01*
G01*
G37*
D20*
X179510000Y-72840000D03*
X176970000Y-72840000D03*
X179510000Y-70300000D03*
X176970000Y-70300000D03*
X179510000Y-67760000D03*
D21*
X176970000Y-67760000D03*
D25*
X223835000Y-72605000D03*
X223835000Y-63105000D03*
G36*
G01*
X186900000Y-62420001D02*
X186900000Y-61519999D01*
G75*
G02*
X187149999Y-61270000I249999J0D01*
G01*
X187850001Y-61270000D01*
G75*
G02*
X188100000Y-61519999I0J-249999D01*
G01*
X188100000Y-62420001D01*
G75*
G02*
X187850001Y-62670000I-249999J0D01*
G01*
X187149999Y-62670000D01*
G75*
G02*
X186900000Y-62420001I0J249999D01*
G01*
G37*
G36*
G01*
X184900000Y-62420001D02*
X184900000Y-61519999D01*
G75*
G02*
X185149999Y-61270000I249999J0D01*
G01*
X185850001Y-61270000D01*
G75*
G02*
X186100000Y-61519999I0J-249999D01*
G01*
X186100000Y-62420001D01*
G75*
G02*
X185850001Y-62670000I-249999J0D01*
G01*
X185149999Y-62670000D01*
G75*
G02*
X184900000Y-62420001I0J249999D01*
G01*
G37*
D26*
X211290000Y-57550000D03*
X208750000Y-57550000D03*
X206210000Y-57550000D03*
X203670000Y-57550000D03*
X201130000Y-57550000D03*
X198590000Y-57550000D03*
X196050000Y-57550000D03*
D27*
X193510000Y-57550000D03*
X193510000Y-44850000D03*
D26*
X196050000Y-44850000D03*
X198590000Y-44850000D03*
X201130000Y-44850000D03*
X203670000Y-44850000D03*
X206210000Y-44850000D03*
X208750000Y-44850000D03*
D27*
X211290000Y-44850000D03*
D21*
X188090000Y-96180000D03*
D20*
X188090000Y-98720000D03*
D21*
X218640000Y-50800000D03*
D20*
X218640000Y-53340000D03*
X186160000Y-53380000D03*
D21*
X186160000Y-50840000D03*
G36*
G01*
X204130000Y-77586250D02*
X204130000Y-76673750D01*
G75*
G02*
X204373750Y-76430000I243750J0D01*
G01*
X204861250Y-76430000D01*
G75*
G02*
X205105000Y-76673750I0J-243750D01*
G01*
X205105000Y-77586250D01*
G75*
G02*
X204861250Y-77830000I-243750J0D01*
G01*
X204373750Y-77830000D01*
G75*
G02*
X204130000Y-77586250I0J243750D01*
G01*
G37*
G36*
G01*
X202255000Y-77586250D02*
X202255000Y-76673750D01*
G75*
G02*
X202498750Y-76430000I243750J0D01*
G01*
X202986250Y-76430000D01*
G75*
G02*
X203230000Y-76673750I0J-243750D01*
G01*
X203230000Y-77586250D01*
G75*
G02*
X202986250Y-77830000I-243750J0D01*
G01*
X202498750Y-77830000D01*
G75*
G02*
X202255000Y-77586250I0J243750D01*
G01*
G37*
G36*
G01*
X214182915Y-61513750D02*
X214182915Y-62426250D01*
G75*
G02*
X213939165Y-62670000I-243750J0D01*
G01*
X213451665Y-62670000D01*
G75*
G02*
X213207915Y-62426250I0J243750D01*
G01*
X213207915Y-61513750D01*
G75*
G02*
X213451665Y-61270000I243750J0D01*
G01*
X213939165Y-61270000D01*
G75*
G02*
X214182915Y-61513750I0J-243750D01*
G01*
G37*
G36*
G01*
X212307915Y-61513750D02*
X212307915Y-62426250D01*
G75*
G02*
X212064165Y-62670000I-243750J0D01*
G01*
X211576665Y-62670000D01*
G75*
G02*
X211332915Y-62426250I0J243750D01*
G01*
X211332915Y-61513750D01*
G75*
G02*
X211576665Y-61270000I243750J0D01*
G01*
X212064165Y-61270000D01*
G75*
G02*
X212307915Y-61513750I0J-243750D01*
G01*
G37*
G36*
G01*
X207038332Y-61513750D02*
X207038332Y-62426250D01*
G75*
G02*
X206794582Y-62670000I-243750J0D01*
G01*
X206307082Y-62670000D01*
G75*
G02*
X206063332Y-62426250I0J243750D01*
G01*
X206063332Y-61513750D01*
G75*
G02*
X206307082Y-61270000I243750J0D01*
G01*
X206794582Y-61270000D01*
G75*
G02*
X207038332Y-61513750I0J-243750D01*
G01*
G37*
G36*
G01*
X208913332Y-61513750D02*
X208913332Y-62426250D01*
G75*
G02*
X208669582Y-62670000I-243750J0D01*
G01*
X208182082Y-62670000D01*
G75*
G02*
X207938332Y-62426250I0J243750D01*
G01*
X207938332Y-61513750D01*
G75*
G02*
X208182082Y-61270000I243750J0D01*
G01*
X208669582Y-61270000D01*
G75*
G02*
X208913332Y-61513750I0J-243750D01*
G01*
G37*
G36*
G01*
X203643749Y-61513750D02*
X203643749Y-62426250D01*
G75*
G02*
X203399999Y-62670000I-243750J0D01*
G01*
X202912499Y-62670000D01*
G75*
G02*
X202668749Y-62426250I0J243750D01*
G01*
X202668749Y-61513750D01*
G75*
G02*
X202912499Y-61270000I243750J0D01*
G01*
X203399999Y-61270000D01*
G75*
G02*
X203643749Y-61513750I0J-243750D01*
G01*
G37*
G36*
G01*
X201768749Y-61513750D02*
X201768749Y-62426250D01*
G75*
G02*
X201524999Y-62670000I-243750J0D01*
G01*
X201037499Y-62670000D01*
G75*
G02*
X200793749Y-62426250I0J243750D01*
G01*
X200793749Y-61513750D01*
G75*
G02*
X201037499Y-61270000I243750J0D01*
G01*
X201524999Y-61270000D01*
G75*
G02*
X201768749Y-61513750I0J-243750D01*
G01*
G37*
G36*
G01*
X196499166Y-61513750D02*
X196499166Y-62426250D01*
G75*
G02*
X196255416Y-62670000I-243750J0D01*
G01*
X195767916Y-62670000D01*
G75*
G02*
X195524166Y-62426250I0J243750D01*
G01*
X195524166Y-61513750D01*
G75*
G02*
X195767916Y-61270000I243750J0D01*
G01*
X196255416Y-61270000D01*
G75*
G02*
X196499166Y-61513750I0J-243750D01*
G01*
G37*
G36*
G01*
X198374166Y-61513750D02*
X198374166Y-62426250D01*
G75*
G02*
X198130416Y-62670000I-243750J0D01*
G01*
X197642916Y-62670000D01*
G75*
G02*
X197399166Y-62426250I0J243750D01*
G01*
X197399166Y-61513750D01*
G75*
G02*
X197642916Y-61270000I243750J0D01*
G01*
X198130416Y-61270000D01*
G75*
G02*
X198374166Y-61513750I0J-243750D01*
G01*
G37*
G36*
G01*
X190385000Y-96696250D02*
X190385000Y-95783750D01*
G75*
G02*
X190628750Y-95540000I243750J0D01*
G01*
X191116250Y-95540000D01*
G75*
G02*
X191360000Y-95783750I0J-243750D01*
G01*
X191360000Y-96696250D01*
G75*
G02*
X191116250Y-96940000I-243750J0D01*
G01*
X190628750Y-96940000D01*
G75*
G02*
X190385000Y-96696250I0J243750D01*
G01*
G37*
G36*
G01*
X192260000Y-96696250D02*
X192260000Y-95783750D01*
G75*
G02*
X192503750Y-95540000I243750J0D01*
G01*
X192991250Y-95540000D01*
G75*
G02*
X193235000Y-95783750I0J-243750D01*
G01*
X193235000Y-96696250D01*
G75*
G02*
X192991250Y-96940000I-243750J0D01*
G01*
X192503750Y-96940000D01*
G75*
G02*
X192260000Y-96696250I0J243750D01*
G01*
G37*
G36*
G01*
X196995000Y-95783750D02*
X196995000Y-96696250D01*
G75*
G02*
X196751250Y-96940000I-243750J0D01*
G01*
X196263750Y-96940000D01*
G75*
G02*
X196020000Y-96696250I0J243750D01*
G01*
X196020000Y-95783750D01*
G75*
G02*
X196263750Y-95540000I243750J0D01*
G01*
X196751250Y-95540000D01*
G75*
G02*
X196995000Y-95783750I0J-243750D01*
G01*
G37*
G36*
G01*
X195120000Y-95783750D02*
X195120000Y-96696250D01*
G75*
G02*
X194876250Y-96940000I-243750J0D01*
G01*
X194388750Y-96940000D01*
G75*
G02*
X194145000Y-96696250I0J243750D01*
G01*
X194145000Y-95783750D01*
G75*
G02*
X194388750Y-95540000I243750J0D01*
G01*
X194876250Y-95540000D01*
G75*
G02*
X195120000Y-95783750I0J-243750D01*
G01*
G37*
D28*
X189250000Y-91820000D03*
D29*
X191790000Y-91820000D03*
X194330000Y-91820000D03*
M02*
