G04 #@! TF.GenerationSoftware,KiCad,Pcbnew,(5.1.6)-1*
G04 #@! TF.CreationDate,2022-02-26T01:51:55-08:00*
G04 #@! TF.ProjectId,seguilineas_actualizado,73656775-696c-4696-9e65-61735f616374,rev?*
G04 #@! TF.SameCoordinates,Original*
G04 #@! TF.FileFunction,Copper,L2,Bot*
G04 #@! TF.FilePolarity,Positive*
%FSLAX46Y46*%
G04 Gerber Fmt 4.6, Leading zero omitted, Abs format (unit mm)*
G04 Created by KiCad (PCBNEW (5.1.6)-1) date 2022-02-26 01:51:55*
%MOMM*%
%LPD*%
G01*
G04 APERTURE LIST*
G04 #@! TA.AperFunction,ComponentPad*
%ADD10C,2.800000*%
G04 #@! TD*
G04 #@! TA.AperFunction,ComponentPad*
%ADD11O,1.700000X1.700000*%
G04 #@! TD*
G04 #@! TA.AperFunction,ComponentPad*
%ADD12R,1.700000X1.700000*%
G04 #@! TD*
G04 #@! TA.AperFunction,ComponentPad*
%ADD13C,1.358000*%
G04 #@! TD*
G04 #@! TA.AperFunction,ComponentPad*
%ADD14R,1.358000X1.358000*%
G04 #@! TD*
G04 #@! TA.AperFunction,ComponentPad*
%ADD15C,1.560000*%
G04 #@! TD*
G04 #@! TA.AperFunction,ComponentPad*
%ADD16R,1.560000X1.560000*%
G04 #@! TD*
G04 #@! TA.AperFunction,ComponentPad*
%ADD17R,1.860000X1.860000*%
G04 #@! TD*
G04 #@! TA.AperFunction,ComponentPad*
%ADD18C,1.860000*%
G04 #@! TD*
G04 #@! TA.AperFunction,ViaPad*
%ADD19C,0.800000*%
G04 #@! TD*
G04 #@! TA.AperFunction,Conductor*
%ADD20C,0.250000*%
G04 #@! TD*
G04 #@! TA.AperFunction,Conductor*
%ADD21C,0.508000*%
G04 #@! TD*
G04 #@! TA.AperFunction,Conductor*
%ADD22C,1.016000*%
G04 #@! TD*
G04 #@! TA.AperFunction,Conductor*
%ADD23C,0.254000*%
G04 #@! TD*
G04 APERTURE END LIST*
D10*
X167465000Y-126990000D03*
X237315000Y-126990000D03*
D11*
X215100000Y-111180000D03*
X212560000Y-111180000D03*
X210020000Y-111180000D03*
X207480000Y-111180000D03*
X204940000Y-111180000D03*
X202400000Y-111180000D03*
X199860000Y-111180000D03*
X197320000Y-111180000D03*
X194780000Y-111180000D03*
X192240000Y-111180000D03*
D12*
X189700000Y-111180000D03*
D11*
X186380000Y-79490000D03*
X188920000Y-79490000D03*
X191460000Y-79490000D03*
X194000000Y-79490000D03*
X196540000Y-79490000D03*
D12*
X199080000Y-79490000D03*
D13*
X218840000Y-74520000D03*
X216300000Y-74520000D03*
X213760000Y-74520000D03*
X211220000Y-74520000D03*
X208680000Y-74520000D03*
X206140000Y-74520000D03*
X203600000Y-74520000D03*
X201060000Y-74520000D03*
X198520000Y-74520000D03*
X195980000Y-74520000D03*
X193440000Y-74520000D03*
X190900000Y-74520000D03*
X188360000Y-74520000D03*
X185820000Y-74520000D03*
X185820000Y-66600000D03*
X188360000Y-66600000D03*
X190900000Y-66600000D03*
X193440000Y-66600000D03*
X195980000Y-66600000D03*
X198520000Y-66600000D03*
X208680000Y-66600000D03*
X206140000Y-66600000D03*
X211220000Y-66600000D03*
X213760000Y-66600000D03*
X201060000Y-66600000D03*
X203600000Y-66600000D03*
X216300000Y-66600000D03*
D14*
X218840000Y-66600000D03*
D11*
X179510000Y-72840000D03*
X176970000Y-72840000D03*
X179510000Y-70300000D03*
X176970000Y-70300000D03*
X179510000Y-67760000D03*
D12*
X176970000Y-67760000D03*
D15*
X211290000Y-57550000D03*
X208750000Y-57550000D03*
X206210000Y-57550000D03*
X203670000Y-57550000D03*
X201130000Y-57550000D03*
X198590000Y-57550000D03*
X196050000Y-57550000D03*
D16*
X193510000Y-57550000D03*
X193510000Y-44850000D03*
D15*
X196050000Y-44850000D03*
X198590000Y-44850000D03*
X201130000Y-44850000D03*
X203670000Y-44850000D03*
X206210000Y-44850000D03*
X208750000Y-44850000D03*
D16*
X211290000Y-44850000D03*
D12*
X188090000Y-96180000D03*
D11*
X188090000Y-98720000D03*
D12*
X218640000Y-50800000D03*
D11*
X218640000Y-53340000D03*
X186160000Y-53380000D03*
D12*
X186160000Y-50840000D03*
D17*
X189250000Y-91820000D03*
D18*
X191790000Y-91820000D03*
X194330000Y-91820000D03*
D19*
X191800000Y-84300000D03*
X201280000Y-61900000D03*
X204770000Y-61820000D03*
X235500000Y-52550000D03*
X169320000Y-52550000D03*
X165000000Y-50000000D03*
X165000000Y-55000000D03*
X165000000Y-65000000D03*
X165000000Y-70000000D03*
X240000000Y-50000000D03*
X240000000Y-55000000D03*
X240000000Y-65000000D03*
X240000000Y-70000000D03*
X165000000Y-115000000D03*
X170000000Y-115000000D03*
X235000000Y-115000000D03*
X240000000Y-115000000D03*
X185000000Y-105000000D03*
X220000000Y-105000000D03*
X201800000Y-91800000D03*
X202300000Y-85500000D03*
X202000000Y-81600000D03*
X207400000Y-82900000D03*
X210100000Y-82900000D03*
X212500000Y-82900000D03*
X215000000Y-82800000D03*
X217500000Y-82900000D03*
X187600000Y-58900000D03*
X196000000Y-64100000D03*
X194900000Y-60700000D03*
X202500000Y-49600000D03*
X203400000Y-64400000D03*
X190300000Y-64000000D03*
X212400000Y-104800000D03*
X207200000Y-108900000D03*
X218500000Y-60000000D03*
X224700000Y-46500000D03*
X178700000Y-46900000D03*
X184200000Y-56000000D03*
X181000000Y-74900000D03*
X211820415Y-61970000D03*
X191290000Y-58110000D03*
X190222347Y-57042347D03*
X214100000Y-63010000D03*
X210040000Y-64555000D03*
X210040000Y-63105000D03*
X205320000Y-64690000D03*
X203156249Y-61970000D03*
X189130000Y-61580000D03*
X189130000Y-59890000D03*
X199560000Y-69950000D03*
X205720000Y-70010000D03*
X207720000Y-70130000D03*
X206630308Y-69110308D03*
X208560614Y-69230614D03*
X199500000Y-68950000D03*
X206150000Y-60030000D03*
X201820000Y-60670000D03*
X195607347Y-59357347D03*
X221380000Y-76280000D03*
X182170000Y-67670000D03*
X182150000Y-63500000D03*
D20*
X194700000Y-68948002D02*
X194975999Y-69224001D01*
X196000000Y-64100000D02*
X194700000Y-65400000D01*
X194700000Y-65400000D02*
X194700000Y-68948002D01*
X196100000Y-60400000D02*
X193374990Y-60400000D01*
X197300000Y-59200000D02*
X196100000Y-60400000D01*
X197300000Y-56500000D02*
X197300000Y-59200000D01*
X218840000Y-66600000D02*
X214210000Y-61970000D01*
X214210000Y-61970000D02*
X211820415Y-61970000D01*
X191290000Y-58110000D02*
X190222347Y-57042347D01*
X184700000Y-77810000D02*
X186380000Y-79490000D01*
X185410010Y-72409990D02*
X184700000Y-73120000D01*
X214100000Y-63010000D02*
X213324078Y-63010000D01*
X209684001Y-66650077D02*
X209684001Y-67081921D01*
X213324078Y-63010000D02*
X209684001Y-66650077D01*
X209684001Y-67081921D02*
X204355932Y-72409990D01*
X184700000Y-73120000D02*
X184700000Y-77810000D01*
X204355932Y-72409990D02*
X185410010Y-72409990D01*
X210040000Y-64555000D02*
X210040000Y-63105000D01*
X204414001Y-65595999D02*
X205320000Y-64690000D01*
X198520000Y-66600000D02*
X199524001Y-65595999D01*
X199524001Y-65595999D02*
X204414001Y-65595999D01*
X196984001Y-65595999D02*
X197004001Y-65595999D01*
X195980000Y-66600000D02*
X196984001Y-65595999D01*
X197004001Y-65595999D02*
X198340000Y-64260000D01*
X198340000Y-64260000D02*
X200866249Y-64260000D01*
X200866249Y-64260000D02*
X203156249Y-61970000D01*
D21*
X194330000Y-92950000D02*
X194330000Y-91820000D01*
X212560000Y-111180000D02*
X194330000Y-92950000D01*
X203670000Y-57550000D02*
X203670000Y-55400000D01*
X208750000Y-50320000D02*
X208750000Y-44850000D01*
X203670000Y-55400000D02*
X208750000Y-50320000D01*
D20*
X189130000Y-61580000D02*
X189130000Y-59890000D01*
X199560000Y-69950000D02*
X205660000Y-69950000D01*
X205660000Y-69950000D02*
X205720000Y-70010000D01*
X212770000Y-70130000D02*
X216300000Y-66600000D01*
X207720000Y-70130000D02*
X212770000Y-70130000D01*
X211129386Y-69230614D02*
X213760000Y-66600000D01*
X208560614Y-69230614D02*
X211129386Y-69230614D01*
X206630308Y-69110308D02*
X199660308Y-69110308D01*
X199660308Y-69110308D02*
X199500000Y-68950000D01*
X206140000Y-66600000D02*
X206140000Y-60040000D01*
X206140000Y-60040000D02*
X206150000Y-60030000D01*
X208680000Y-60020000D02*
X206210000Y-57550000D01*
X208680000Y-66600000D02*
X208680000Y-60020000D01*
X192000000Y-66600000D02*
X190900000Y-66600000D01*
X201820000Y-60670000D02*
X197930000Y-60670000D01*
X197930000Y-60670000D02*
X192000000Y-66600000D01*
X200024999Y-58655001D02*
X201130000Y-57550000D01*
X188360000Y-66040000D02*
X189200000Y-65200000D01*
X188360000Y-66600000D02*
X188360000Y-66040000D01*
X189200000Y-65200000D02*
X192600000Y-65200000D01*
X192600000Y-65200000D02*
X199144999Y-58655001D01*
X199144999Y-58655001D02*
X200024999Y-58655001D01*
X193062653Y-59357347D02*
X195607347Y-59357347D01*
X185820000Y-66600000D02*
X193062653Y-59357347D01*
X185820000Y-74520000D02*
X187480000Y-72860000D01*
X187480000Y-72860000D02*
X219180000Y-72860000D01*
X221380000Y-75060000D02*
X221380000Y-76280000D01*
X219180000Y-72860000D02*
X221380000Y-75060000D01*
X182170000Y-67670000D02*
X182170000Y-63520000D01*
X182170000Y-63520000D02*
X182150000Y-63500000D01*
X180820000Y-69020000D02*
X182170000Y-67670000D01*
X176970000Y-70300000D02*
X178250000Y-69020000D01*
X178250000Y-69020000D02*
X180820000Y-69020000D01*
D22*
X188090000Y-92980000D02*
X189250000Y-91820000D01*
X188090000Y-96180000D02*
X188090000Y-92980000D01*
X196050000Y-48490000D02*
X196050000Y-44850000D01*
X183620000Y-60920000D02*
X196050000Y-48490000D01*
X189250000Y-91820000D02*
X183620000Y-86190000D01*
X183620000Y-86190000D02*
X183620000Y-60920000D01*
D23*
G36*
X243144747Y-41725282D02*
G01*
X243875643Y-41925232D01*
X244559575Y-42251451D01*
X245174928Y-42693627D01*
X245702256Y-43237788D01*
X246124889Y-43866730D01*
X246429462Y-44560568D01*
X246607714Y-45303039D01*
X246655001Y-45946976D01*
X246655000Y-68093178D01*
X246584539Y-68880564D01*
X246384416Y-69611404D01*
X246058031Y-70295263D01*
X245615707Y-70910513D01*
X245064930Y-71443998D01*
X244603708Y-71770396D01*
X226355349Y-82990865D01*
X226336456Y-83005211D01*
X225819741Y-83370882D01*
X225808968Y-83380046D01*
X225797024Y-83387622D01*
X225732954Y-83442899D01*
X225094433Y-84061373D01*
X225079318Y-84078875D01*
X225062292Y-84094524D01*
X225009037Y-84160257D01*
X225009024Y-84160272D01*
X225009021Y-84160278D01*
X224490117Y-84882046D01*
X224478341Y-84901947D01*
X224464354Y-84920365D01*
X224423571Y-84994507D01*
X224040680Y-85796762D01*
X224032612Y-85818440D01*
X224022111Y-85839038D01*
X223995101Y-85919231D01*
X223760329Y-86776612D01*
X223756228Y-86799375D01*
X223749540Y-86821507D01*
X223737158Y-86905215D01*
X223657925Y-87790620D01*
X223657925Y-87791532D01*
X223655001Y-87821218D01*
X223655000Y-101098239D01*
X223657639Y-101125031D01*
X223710611Y-101846380D01*
X223713415Y-101863503D01*
X223713960Y-101880851D01*
X223728945Y-101964133D01*
X223936465Y-102828515D01*
X223943841Y-102850432D01*
X223948649Y-102873052D01*
X223978145Y-102952364D01*
X224335454Y-103766336D01*
X224346595Y-103786600D01*
X224355332Y-103808011D01*
X224398407Y-103880846D01*
X224894210Y-104618680D01*
X224908760Y-104636648D01*
X224921154Y-104656178D01*
X224976446Y-104720234D01*
X225595073Y-105358607D01*
X225612580Y-105373719D01*
X225628232Y-105390740D01*
X225693974Y-105443977D01*
X225693993Y-105443993D01*
X225694001Y-105443998D01*
X226415889Y-105962727D01*
X226435796Y-105974500D01*
X226454214Y-105988480D01*
X226528366Y-106029246D01*
X227330713Y-106411946D01*
X227352386Y-106420006D01*
X227372993Y-106430506D01*
X227453192Y-106457496D01*
X228310629Y-106692064D01*
X228333389Y-106696159D01*
X228355527Y-106702843D01*
X228439233Y-106715203D01*
X228439238Y-106715204D01*
X228439239Y-106715204D01*
X229321435Y-106793938D01*
X229353895Y-106797135D01*
X242357269Y-106797135D01*
X243144747Y-106867416D01*
X243875643Y-107067366D01*
X244559575Y-107393585D01*
X245174928Y-107835761D01*
X245702259Y-108379924D01*
X246124886Y-109008861D01*
X246429463Y-109702705D01*
X246607715Y-110445174D01*
X246655001Y-111089098D01*
X246655000Y-125887269D01*
X246584719Y-126674748D01*
X246384769Y-127405643D01*
X246058550Y-128089575D01*
X245616374Y-128704928D01*
X245072211Y-129232259D01*
X244443274Y-129654886D01*
X243749429Y-129959464D01*
X243006961Y-130137714D01*
X242363051Y-130185000D01*
X226625000Y-130185000D01*
X226625000Y-126789570D01*
X235280000Y-126789570D01*
X235280000Y-127190430D01*
X235358204Y-127583587D01*
X235511607Y-127953934D01*
X235734313Y-128287237D01*
X236017763Y-128570687D01*
X236351066Y-128793393D01*
X236721413Y-128946796D01*
X237114570Y-129025000D01*
X237515430Y-129025000D01*
X237908587Y-128946796D01*
X238278934Y-128793393D01*
X238612237Y-128570687D01*
X238895687Y-128287237D01*
X239118393Y-127953934D01*
X239271796Y-127583587D01*
X239350000Y-127190430D01*
X239350000Y-126789570D01*
X239271796Y-126396413D01*
X239118393Y-126026066D01*
X238895687Y-125692763D01*
X238612237Y-125409313D01*
X238278934Y-125186607D01*
X237908587Y-125033204D01*
X237515430Y-124955000D01*
X237114570Y-124955000D01*
X236721413Y-125033204D01*
X236351066Y-125186607D01*
X236017763Y-125409313D01*
X235734313Y-125692763D01*
X235511607Y-126026066D01*
X235358204Y-126396413D01*
X235280000Y-126789570D01*
X226625000Y-126789570D01*
X226625000Y-121956105D01*
X226628556Y-121920000D01*
X226614365Y-121775915D01*
X226572337Y-121637367D01*
X226504087Y-121509680D01*
X226412238Y-121397762D01*
X226300320Y-121305913D01*
X226172633Y-121237663D01*
X226034085Y-121195635D01*
X225926105Y-121185000D01*
X225890000Y-121181444D01*
X225853895Y-121185000D01*
X178926105Y-121185000D01*
X178890000Y-121181444D01*
X178853895Y-121185000D01*
X178745915Y-121195635D01*
X178607367Y-121237663D01*
X178479680Y-121305913D01*
X178367762Y-121397762D01*
X178275913Y-121509680D01*
X178207663Y-121637367D01*
X178165635Y-121775915D01*
X178151444Y-121920000D01*
X178155001Y-121956115D01*
X178155000Y-130185000D01*
X162422731Y-130185000D01*
X161635252Y-130114719D01*
X160904357Y-129914769D01*
X160220425Y-129588550D01*
X159605072Y-129146374D01*
X159077741Y-128602211D01*
X158655114Y-127973274D01*
X158350536Y-127279429D01*
X158232932Y-126789570D01*
X165430000Y-126789570D01*
X165430000Y-127190430D01*
X165508204Y-127583587D01*
X165661607Y-127953934D01*
X165884313Y-128287237D01*
X166167763Y-128570687D01*
X166501066Y-128793393D01*
X166871413Y-128946796D01*
X167264570Y-129025000D01*
X167665430Y-129025000D01*
X168058587Y-128946796D01*
X168428934Y-128793393D01*
X168762237Y-128570687D01*
X169045687Y-128287237D01*
X169268393Y-127953934D01*
X169421796Y-127583587D01*
X169500000Y-127190430D01*
X169500000Y-126789570D01*
X169421796Y-126396413D01*
X169268393Y-126026066D01*
X169045687Y-125692763D01*
X168762237Y-125409313D01*
X168428934Y-125186607D01*
X168058587Y-125033204D01*
X167665430Y-124955000D01*
X167264570Y-124955000D01*
X166871413Y-125033204D01*
X166501066Y-125186607D01*
X166167763Y-125409313D01*
X165884313Y-125692763D01*
X165661607Y-126026066D01*
X165508204Y-126396413D01*
X165430000Y-126789570D01*
X158232932Y-126789570D01*
X158172286Y-126536961D01*
X158125000Y-125893051D01*
X158125000Y-111094866D01*
X158193262Y-110330000D01*
X188211928Y-110330000D01*
X188211928Y-112030000D01*
X188224188Y-112154482D01*
X188260498Y-112274180D01*
X188319463Y-112384494D01*
X188398815Y-112481185D01*
X188495506Y-112560537D01*
X188605820Y-112619502D01*
X188725518Y-112655812D01*
X188850000Y-112668072D01*
X190550000Y-112668072D01*
X190674482Y-112655812D01*
X190794180Y-112619502D01*
X190904494Y-112560537D01*
X191001185Y-112481185D01*
X191080537Y-112384494D01*
X191139502Y-112274180D01*
X191161513Y-112201620D01*
X191293368Y-112333475D01*
X191536589Y-112495990D01*
X191806842Y-112607932D01*
X192093740Y-112665000D01*
X192386260Y-112665000D01*
X192673158Y-112607932D01*
X192943411Y-112495990D01*
X193186632Y-112333475D01*
X193393475Y-112126632D01*
X193510000Y-111952240D01*
X193626525Y-112126632D01*
X193833368Y-112333475D01*
X194076589Y-112495990D01*
X194346842Y-112607932D01*
X194633740Y-112665000D01*
X194926260Y-112665000D01*
X195213158Y-112607932D01*
X195483411Y-112495990D01*
X195726632Y-112333475D01*
X195933475Y-112126632D01*
X196050000Y-111952240D01*
X196166525Y-112126632D01*
X196373368Y-112333475D01*
X196616589Y-112495990D01*
X196886842Y-112607932D01*
X197173740Y-112665000D01*
X197466260Y-112665000D01*
X197753158Y-112607932D01*
X198023411Y-112495990D01*
X198266632Y-112333475D01*
X198473475Y-112126632D01*
X198590000Y-111952240D01*
X198706525Y-112126632D01*
X198913368Y-112333475D01*
X199156589Y-112495990D01*
X199426842Y-112607932D01*
X199713740Y-112665000D01*
X200006260Y-112665000D01*
X200293158Y-112607932D01*
X200563411Y-112495990D01*
X200806632Y-112333475D01*
X201013475Y-112126632D01*
X201130000Y-111952240D01*
X201246525Y-112126632D01*
X201453368Y-112333475D01*
X201696589Y-112495990D01*
X201966842Y-112607932D01*
X202253740Y-112665000D01*
X202546260Y-112665000D01*
X202833158Y-112607932D01*
X203103411Y-112495990D01*
X203346632Y-112333475D01*
X203553475Y-112126632D01*
X203670000Y-111952240D01*
X203786525Y-112126632D01*
X203993368Y-112333475D01*
X204236589Y-112495990D01*
X204506842Y-112607932D01*
X204793740Y-112665000D01*
X205086260Y-112665000D01*
X205373158Y-112607932D01*
X205643411Y-112495990D01*
X205886632Y-112333475D01*
X206093475Y-112126632D01*
X206210000Y-111952240D01*
X206326525Y-112126632D01*
X206533368Y-112333475D01*
X206776589Y-112495990D01*
X207046842Y-112607932D01*
X207333740Y-112665000D01*
X207626260Y-112665000D01*
X207913158Y-112607932D01*
X208183411Y-112495990D01*
X208426632Y-112333475D01*
X208633475Y-112126632D01*
X208755195Y-111944466D01*
X208824822Y-112061355D01*
X209019731Y-112277588D01*
X209253080Y-112451641D01*
X209515901Y-112576825D01*
X209663110Y-112621476D01*
X209893000Y-112500155D01*
X209893000Y-111307000D01*
X209873000Y-111307000D01*
X209873000Y-111053000D01*
X209893000Y-111053000D01*
X209893000Y-111033000D01*
X210147000Y-111033000D01*
X210147000Y-111053000D01*
X210167000Y-111053000D01*
X210167000Y-111307000D01*
X210147000Y-111307000D01*
X210147000Y-112500155D01*
X210376890Y-112621476D01*
X210524099Y-112576825D01*
X210786920Y-112451641D01*
X211020269Y-112277588D01*
X211215178Y-112061355D01*
X211284805Y-111944466D01*
X211406525Y-112126632D01*
X211613368Y-112333475D01*
X211856589Y-112495990D01*
X212126842Y-112607932D01*
X212413740Y-112665000D01*
X212706260Y-112665000D01*
X212993158Y-112607932D01*
X213263411Y-112495990D01*
X213506632Y-112333475D01*
X213713475Y-112126632D01*
X213830000Y-111952240D01*
X213946525Y-112126632D01*
X214153368Y-112333475D01*
X214396589Y-112495990D01*
X214666842Y-112607932D01*
X214953740Y-112665000D01*
X215246260Y-112665000D01*
X215533158Y-112607932D01*
X215803411Y-112495990D01*
X216046632Y-112333475D01*
X216253475Y-112126632D01*
X216415990Y-111883411D01*
X216527932Y-111613158D01*
X216585000Y-111326260D01*
X216585000Y-111033740D01*
X216527932Y-110746842D01*
X216415990Y-110476589D01*
X216253475Y-110233368D01*
X216046632Y-110026525D01*
X215803411Y-109864010D01*
X215533158Y-109752068D01*
X215246260Y-109695000D01*
X214953740Y-109695000D01*
X214666842Y-109752068D01*
X214396589Y-109864010D01*
X214153368Y-110026525D01*
X213946525Y-110233368D01*
X213830000Y-110407760D01*
X213713475Y-110233368D01*
X213506632Y-110026525D01*
X213263411Y-109864010D01*
X212993158Y-109752068D01*
X212706260Y-109695000D01*
X212413740Y-109695000D01*
X212345758Y-109708523D01*
X195500240Y-92863005D01*
X195545615Y-92817629D01*
X195716885Y-92561305D01*
X195834858Y-92276494D01*
X195895000Y-91974139D01*
X195895000Y-91665861D01*
X195834858Y-91363506D01*
X195716885Y-91078695D01*
X195545615Y-90822371D01*
X195327629Y-90604385D01*
X195071305Y-90433115D01*
X194786494Y-90315142D01*
X194484139Y-90255000D01*
X194175861Y-90255000D01*
X193873506Y-90315142D01*
X193588695Y-90433115D01*
X193332371Y-90604385D01*
X193114385Y-90822371D01*
X193020250Y-90963254D01*
X192875484Y-90914121D01*
X191969605Y-91820000D01*
X192875484Y-92725879D01*
X193020250Y-92676746D01*
X193114385Y-92817629D01*
X193332371Y-93035615D01*
X193453075Y-93116267D01*
X193453864Y-93124274D01*
X193475998Y-93197241D01*
X193504697Y-93291850D01*
X193587247Y-93446290D01*
X193698341Y-93581659D01*
X193732264Y-93609499D01*
X209892998Y-109770233D01*
X209892998Y-109859844D01*
X209663110Y-109738524D01*
X209515901Y-109783175D01*
X209253080Y-109908359D01*
X209019731Y-110082412D01*
X208824822Y-110298645D01*
X208755195Y-110415534D01*
X208633475Y-110233368D01*
X208426632Y-110026525D01*
X208183411Y-109864010D01*
X207913158Y-109752068D01*
X207626260Y-109695000D01*
X207333740Y-109695000D01*
X207046842Y-109752068D01*
X206776589Y-109864010D01*
X206533368Y-110026525D01*
X206326525Y-110233368D01*
X206210000Y-110407760D01*
X206093475Y-110233368D01*
X205886632Y-110026525D01*
X205643411Y-109864010D01*
X205373158Y-109752068D01*
X205086260Y-109695000D01*
X204793740Y-109695000D01*
X204506842Y-109752068D01*
X204236589Y-109864010D01*
X203993368Y-110026525D01*
X203786525Y-110233368D01*
X203670000Y-110407760D01*
X203553475Y-110233368D01*
X203346632Y-110026525D01*
X203103411Y-109864010D01*
X202833158Y-109752068D01*
X202546260Y-109695000D01*
X202253740Y-109695000D01*
X201966842Y-109752068D01*
X201696589Y-109864010D01*
X201453368Y-110026525D01*
X201246525Y-110233368D01*
X201130000Y-110407760D01*
X201013475Y-110233368D01*
X200806632Y-110026525D01*
X200563411Y-109864010D01*
X200293158Y-109752068D01*
X200006260Y-109695000D01*
X199713740Y-109695000D01*
X199426842Y-109752068D01*
X199156589Y-109864010D01*
X198913368Y-110026525D01*
X198706525Y-110233368D01*
X198590000Y-110407760D01*
X198473475Y-110233368D01*
X198266632Y-110026525D01*
X198023411Y-109864010D01*
X197753158Y-109752068D01*
X197466260Y-109695000D01*
X197173740Y-109695000D01*
X196886842Y-109752068D01*
X196616589Y-109864010D01*
X196373368Y-110026525D01*
X196166525Y-110233368D01*
X196050000Y-110407760D01*
X195933475Y-110233368D01*
X195726632Y-110026525D01*
X195483411Y-109864010D01*
X195213158Y-109752068D01*
X194926260Y-109695000D01*
X194633740Y-109695000D01*
X194346842Y-109752068D01*
X194076589Y-109864010D01*
X193833368Y-110026525D01*
X193626525Y-110233368D01*
X193510000Y-110407760D01*
X193393475Y-110233368D01*
X193186632Y-110026525D01*
X192943411Y-109864010D01*
X192673158Y-109752068D01*
X192386260Y-109695000D01*
X192093740Y-109695000D01*
X191806842Y-109752068D01*
X191536589Y-109864010D01*
X191293368Y-110026525D01*
X191161513Y-110158380D01*
X191139502Y-110085820D01*
X191080537Y-109975506D01*
X191001185Y-109878815D01*
X190904494Y-109799463D01*
X190794180Y-109740498D01*
X190674482Y-109704188D01*
X190550000Y-109691928D01*
X188850000Y-109691928D01*
X188725518Y-109704188D01*
X188605820Y-109740498D01*
X188495506Y-109799463D01*
X188398815Y-109878815D01*
X188319463Y-109975506D01*
X188260498Y-110085820D01*
X188224188Y-110205518D01*
X188211928Y-110330000D01*
X158193262Y-110330000D01*
X158195281Y-110307388D01*
X158395231Y-109576492D01*
X158721450Y-108892560D01*
X159163626Y-108277207D01*
X159707789Y-107749876D01*
X160336726Y-107327249D01*
X161030570Y-107022672D01*
X161773039Y-106844420D01*
X162416949Y-106797135D01*
X175426105Y-106797135D01*
X175452940Y-106794492D01*
X176174245Y-106741523D01*
X176191368Y-106738719D01*
X176208716Y-106738174D01*
X176291998Y-106723189D01*
X177156380Y-106515669D01*
X177178297Y-106508293D01*
X177200917Y-106503485D01*
X177280229Y-106473989D01*
X178094200Y-106116680D01*
X178114465Y-106105539D01*
X178135875Y-106096802D01*
X178208697Y-106053735D01*
X178208711Y-106053727D01*
X178208716Y-106053723D01*
X178946544Y-105557924D01*
X178964512Y-105543374D01*
X178984042Y-105530980D01*
X179048098Y-105475688D01*
X179686471Y-104857061D01*
X179701583Y-104839554D01*
X179718604Y-104823902D01*
X179771841Y-104758160D01*
X179771857Y-104758141D01*
X179771862Y-104758133D01*
X180290591Y-104036245D01*
X180302364Y-104016338D01*
X180316344Y-103997920D01*
X180357110Y-103923768D01*
X180739810Y-103121421D01*
X180747870Y-103099748D01*
X180758370Y-103079141D01*
X180785360Y-102998942D01*
X181019928Y-102141506D01*
X181024023Y-102118746D01*
X181030707Y-102096608D01*
X181043068Y-102012896D01*
X181121792Y-101130808D01*
X181125000Y-101098240D01*
X181125000Y-99076890D01*
X186648524Y-99076890D01*
X186693175Y-99224099D01*
X186818359Y-99486920D01*
X186992412Y-99720269D01*
X187208645Y-99915178D01*
X187458748Y-100064157D01*
X187733109Y-100161481D01*
X187963000Y-100040814D01*
X187963000Y-98847000D01*
X188217000Y-98847000D01*
X188217000Y-100040814D01*
X188446891Y-100161481D01*
X188721252Y-100064157D01*
X188971355Y-99915178D01*
X189187588Y-99720269D01*
X189361641Y-99486920D01*
X189486825Y-99224099D01*
X189531476Y-99076890D01*
X189410155Y-98847000D01*
X188217000Y-98847000D01*
X187963000Y-98847000D01*
X186769845Y-98847000D01*
X186648524Y-99076890D01*
X181125000Y-99076890D01*
X181125000Y-87821218D01*
X181122672Y-87797578D01*
X181081824Y-87165914D01*
X181079660Y-87151938D01*
X181079463Y-87137793D01*
X181065934Y-87054262D01*
X180873532Y-86186391D01*
X180866539Y-86164348D01*
X180862127Y-86141647D01*
X180834019Y-86061832D01*
X180490970Y-85241749D01*
X180480186Y-85221295D01*
X180471823Y-85199734D01*
X180430026Y-85126157D01*
X179947175Y-84379782D01*
X179932938Y-84361559D01*
X179920889Y-84341820D01*
X179866739Y-84276828D01*
X179866724Y-84276809D01*
X179866718Y-84276804D01*
X179259332Y-83627737D01*
X179242096Y-83612326D01*
X179226740Y-83595030D01*
X179161933Y-83540652D01*
X179161918Y-83540638D01*
X179161912Y-83540634D01*
X178449185Y-83009383D01*
X178448410Y-83008906D01*
X178424650Y-82990864D01*
X160183009Y-71774527D01*
X159549183Y-71302087D01*
X159031438Y-70748813D01*
X158619846Y-70112587D01*
X158327427Y-69413540D01*
X158161462Y-68664919D01*
X158125000Y-68101072D01*
X158125000Y-66910000D01*
X175481928Y-66910000D01*
X175481928Y-68610000D01*
X175494188Y-68734482D01*
X175530498Y-68854180D01*
X175589463Y-68964494D01*
X175668815Y-69061185D01*
X175765506Y-69140537D01*
X175875820Y-69199502D01*
X175948380Y-69221513D01*
X175816525Y-69353368D01*
X175654010Y-69596589D01*
X175542068Y-69866842D01*
X175485000Y-70153740D01*
X175485000Y-70446260D01*
X175542068Y-70733158D01*
X175654010Y-71003411D01*
X175816525Y-71246632D01*
X176023368Y-71453475D01*
X176197760Y-71570000D01*
X176023368Y-71686525D01*
X175816525Y-71893368D01*
X175654010Y-72136589D01*
X175542068Y-72406842D01*
X175485000Y-72693740D01*
X175485000Y-72986260D01*
X175542068Y-73273158D01*
X175654010Y-73543411D01*
X175816525Y-73786632D01*
X176023368Y-73993475D01*
X176266589Y-74155990D01*
X176536842Y-74267932D01*
X176823740Y-74325000D01*
X177116260Y-74325000D01*
X177403158Y-74267932D01*
X177673411Y-74155990D01*
X177916632Y-73993475D01*
X178123475Y-73786632D01*
X178241100Y-73610594D01*
X178412412Y-73840269D01*
X178628645Y-74035178D01*
X178878748Y-74184157D01*
X179153109Y-74281481D01*
X179383000Y-74160814D01*
X179383000Y-72967000D01*
X179637000Y-72967000D01*
X179637000Y-74160814D01*
X179866891Y-74281481D01*
X180141252Y-74184157D01*
X180391355Y-74035178D01*
X180607588Y-73840269D01*
X180781641Y-73606920D01*
X180906825Y-73344099D01*
X180951476Y-73196890D01*
X180830155Y-72967000D01*
X179637000Y-72967000D01*
X179383000Y-72967000D01*
X179363000Y-72967000D01*
X179363000Y-72713000D01*
X179383000Y-72713000D01*
X179383000Y-72693000D01*
X179637000Y-72693000D01*
X179637000Y-72713000D01*
X180830155Y-72713000D01*
X180951476Y-72483110D01*
X180906825Y-72335901D01*
X180781641Y-72073080D01*
X180607588Y-71839731D01*
X180391355Y-71644822D01*
X180274466Y-71575195D01*
X180456632Y-71453475D01*
X180663475Y-71246632D01*
X180825990Y-71003411D01*
X180937932Y-70733158D01*
X180995000Y-70446260D01*
X180995000Y-70153740D01*
X180937932Y-69866842D01*
X180900212Y-69775777D01*
X180968986Y-69769003D01*
X181112247Y-69725546D01*
X181244276Y-69654974D01*
X181360001Y-69560001D01*
X181383804Y-69530997D01*
X182209802Y-68705000D01*
X182271939Y-68705000D01*
X182471898Y-68665226D01*
X182477001Y-68663112D01*
X182477000Y-86133861D01*
X182471471Y-86190000D01*
X182477000Y-86246139D01*
X182477000Y-86246145D01*
X182493539Y-86414066D01*
X182558897Y-86629522D01*
X182665032Y-86828088D01*
X182807867Y-87002133D01*
X182851482Y-87037927D01*
X187633554Y-91820001D01*
X187321478Y-92132077D01*
X187277868Y-92167867D01*
X187135033Y-92341911D01*
X187124890Y-92360888D01*
X187028898Y-92540477D01*
X186963539Y-92755933D01*
X186941471Y-92980000D01*
X186947001Y-93036148D01*
X186947000Y-94766593D01*
X186885506Y-94799463D01*
X186788815Y-94878815D01*
X186709463Y-94975506D01*
X186650498Y-95085820D01*
X186614188Y-95205518D01*
X186601928Y-95330000D01*
X186601928Y-97030000D01*
X186614188Y-97154482D01*
X186650498Y-97274180D01*
X186709463Y-97384494D01*
X186788815Y-97481185D01*
X186885506Y-97560537D01*
X186995820Y-97619502D01*
X187076466Y-97643966D01*
X186992412Y-97719731D01*
X186818359Y-97953080D01*
X186693175Y-98215901D01*
X186648524Y-98363110D01*
X186769845Y-98593000D01*
X187963000Y-98593000D01*
X187963000Y-98573000D01*
X188217000Y-98573000D01*
X188217000Y-98593000D01*
X189410155Y-98593000D01*
X189531476Y-98363110D01*
X189486825Y-98215901D01*
X189361641Y-97953080D01*
X189187588Y-97719731D01*
X189103534Y-97643966D01*
X189184180Y-97619502D01*
X189294494Y-97560537D01*
X189391185Y-97481185D01*
X189470537Y-97384494D01*
X189529502Y-97274180D01*
X189565812Y-97154482D01*
X189578072Y-97030000D01*
X189578072Y-95330000D01*
X189565812Y-95205518D01*
X189529502Y-95085820D01*
X189470537Y-94975506D01*
X189391185Y-94878815D01*
X189294494Y-94799463D01*
X189233000Y-94766593D01*
X189233000Y-93453445D01*
X189298373Y-93388072D01*
X190180000Y-93388072D01*
X190304482Y-93375812D01*
X190424180Y-93339502D01*
X190534494Y-93280537D01*
X190631185Y-93201185D01*
X190710537Y-93104494D01*
X190759607Y-93012691D01*
X190768262Y-93021346D01*
X190884122Y-92905486D01*
X190971430Y-93162730D01*
X191249112Y-93296625D01*
X191547580Y-93373775D01*
X191855365Y-93391212D01*
X192160637Y-93348270D01*
X192451666Y-93246597D01*
X192608570Y-93162730D01*
X192695879Y-92905484D01*
X191790000Y-91999605D01*
X191775858Y-92013748D01*
X191596253Y-91834143D01*
X191610395Y-91820000D01*
X191596253Y-91805858D01*
X191775858Y-91626253D01*
X191790000Y-91640395D01*
X192695879Y-90734516D01*
X192608570Y-90477270D01*
X192330888Y-90343375D01*
X192032420Y-90266225D01*
X191724635Y-90248788D01*
X191419363Y-90291730D01*
X191128334Y-90393403D01*
X190971430Y-90477270D01*
X190884122Y-90734514D01*
X190768262Y-90618654D01*
X190759607Y-90627309D01*
X190710537Y-90535506D01*
X190631185Y-90438815D01*
X190534494Y-90359463D01*
X190424180Y-90300498D01*
X190304482Y-90264188D01*
X190180000Y-90251928D01*
X189298375Y-90251928D01*
X184763000Y-85716555D01*
X184763000Y-78947801D01*
X184938791Y-79123592D01*
X184895000Y-79343740D01*
X184895000Y-79636260D01*
X184952068Y-79923158D01*
X185064010Y-80193411D01*
X185226525Y-80436632D01*
X185433368Y-80643475D01*
X185676589Y-80805990D01*
X185946842Y-80917932D01*
X186233740Y-80975000D01*
X186526260Y-80975000D01*
X186813158Y-80917932D01*
X187083411Y-80805990D01*
X187326632Y-80643475D01*
X187533475Y-80436632D01*
X187655195Y-80254466D01*
X187724822Y-80371355D01*
X187919731Y-80587588D01*
X188153080Y-80761641D01*
X188415901Y-80886825D01*
X188563110Y-80931476D01*
X188793000Y-80810155D01*
X188793000Y-79617000D01*
X189047000Y-79617000D01*
X189047000Y-80810155D01*
X189276890Y-80931476D01*
X189424099Y-80886825D01*
X189686920Y-80761641D01*
X189920269Y-80587588D01*
X190115178Y-80371355D01*
X190190000Y-80245745D01*
X190264822Y-80371355D01*
X190459731Y-80587588D01*
X190693080Y-80761641D01*
X190955901Y-80886825D01*
X191103110Y-80931476D01*
X191333000Y-80810155D01*
X191333000Y-79617000D01*
X189047000Y-79617000D01*
X188793000Y-79617000D01*
X188773000Y-79617000D01*
X188773000Y-79363000D01*
X188793000Y-79363000D01*
X188793000Y-78169845D01*
X189047000Y-78169845D01*
X189047000Y-79363000D01*
X191333000Y-79363000D01*
X191333000Y-78169845D01*
X191587000Y-78169845D01*
X191587000Y-79363000D01*
X191607000Y-79363000D01*
X191607000Y-79617000D01*
X191587000Y-79617000D01*
X191587000Y-80810155D01*
X191816890Y-80931476D01*
X191964099Y-80886825D01*
X192226920Y-80761641D01*
X192460269Y-80587588D01*
X192655178Y-80371355D01*
X192724805Y-80254466D01*
X192846525Y-80436632D01*
X193053368Y-80643475D01*
X193296589Y-80805990D01*
X193566842Y-80917932D01*
X193853740Y-80975000D01*
X194146260Y-80975000D01*
X194433158Y-80917932D01*
X194703411Y-80805990D01*
X194946632Y-80643475D01*
X195153475Y-80436632D01*
X195270000Y-80262240D01*
X195386525Y-80436632D01*
X195593368Y-80643475D01*
X195836589Y-80805990D01*
X196106842Y-80917932D01*
X196393740Y-80975000D01*
X196686260Y-80975000D01*
X196973158Y-80917932D01*
X197243411Y-80805990D01*
X197486632Y-80643475D01*
X197618487Y-80511620D01*
X197640498Y-80584180D01*
X197699463Y-80694494D01*
X197778815Y-80791185D01*
X197875506Y-80870537D01*
X197985820Y-80929502D01*
X198105518Y-80965812D01*
X198230000Y-80978072D01*
X199930000Y-80978072D01*
X200054482Y-80965812D01*
X200174180Y-80929502D01*
X200284494Y-80870537D01*
X200381185Y-80791185D01*
X200460537Y-80694494D01*
X200519502Y-80584180D01*
X200555812Y-80464482D01*
X200568072Y-80340000D01*
X200568072Y-78640000D01*
X200555812Y-78515518D01*
X200519502Y-78395820D01*
X200460537Y-78285506D01*
X200381185Y-78188815D01*
X200284494Y-78109463D01*
X200174180Y-78050498D01*
X200054482Y-78014188D01*
X199930000Y-78001928D01*
X198230000Y-78001928D01*
X198105518Y-78014188D01*
X197985820Y-78050498D01*
X197875506Y-78109463D01*
X197778815Y-78188815D01*
X197699463Y-78285506D01*
X197640498Y-78395820D01*
X197618487Y-78468380D01*
X197486632Y-78336525D01*
X197243411Y-78174010D01*
X196973158Y-78062068D01*
X196686260Y-78005000D01*
X196393740Y-78005000D01*
X196106842Y-78062068D01*
X195836589Y-78174010D01*
X195593368Y-78336525D01*
X195386525Y-78543368D01*
X195270000Y-78717760D01*
X195153475Y-78543368D01*
X194946632Y-78336525D01*
X194703411Y-78174010D01*
X194433158Y-78062068D01*
X194146260Y-78005000D01*
X193853740Y-78005000D01*
X193566842Y-78062068D01*
X193296589Y-78174010D01*
X193053368Y-78336525D01*
X192846525Y-78543368D01*
X192724805Y-78725534D01*
X192655178Y-78608645D01*
X192460269Y-78392412D01*
X192226920Y-78218359D01*
X191964099Y-78093175D01*
X191816890Y-78048524D01*
X191587000Y-78169845D01*
X191333000Y-78169845D01*
X191103110Y-78048524D01*
X190955901Y-78093175D01*
X190693080Y-78218359D01*
X190459731Y-78392412D01*
X190264822Y-78608645D01*
X190190000Y-78734255D01*
X190115178Y-78608645D01*
X189920269Y-78392412D01*
X189686920Y-78218359D01*
X189424099Y-78093175D01*
X189276890Y-78048524D01*
X189047000Y-78169845D01*
X188793000Y-78169845D01*
X188563110Y-78048524D01*
X188415901Y-78093175D01*
X188153080Y-78218359D01*
X187919731Y-78392412D01*
X187724822Y-78608645D01*
X187655195Y-78725534D01*
X187533475Y-78543368D01*
X187326632Y-78336525D01*
X187083411Y-78174010D01*
X186813158Y-78062068D01*
X186526260Y-78005000D01*
X186233740Y-78005000D01*
X186013592Y-78048791D01*
X185460000Y-77495199D01*
X185460000Y-75788135D01*
X185690582Y-75834000D01*
X185949418Y-75834000D01*
X186203280Y-75783504D01*
X186442412Y-75684452D01*
X186657626Y-75540651D01*
X186840651Y-75357626D01*
X186984452Y-75142412D01*
X187083504Y-74903280D01*
X187090000Y-74870622D01*
X187096496Y-74903280D01*
X187195548Y-75142412D01*
X187339349Y-75357626D01*
X187522374Y-75540651D01*
X187737588Y-75684452D01*
X187976720Y-75783504D01*
X188230582Y-75834000D01*
X188489418Y-75834000D01*
X188743280Y-75783504D01*
X188982412Y-75684452D01*
X189197626Y-75540651D01*
X189380651Y-75357626D01*
X189524452Y-75142412D01*
X189623504Y-74903280D01*
X189630000Y-74870622D01*
X189636496Y-74903280D01*
X189735548Y-75142412D01*
X189879349Y-75357626D01*
X190062374Y-75540651D01*
X190277588Y-75684452D01*
X190516720Y-75783504D01*
X190770582Y-75834000D01*
X191029418Y-75834000D01*
X191283280Y-75783504D01*
X191522412Y-75684452D01*
X191737626Y-75540651D01*
X191920651Y-75357626D01*
X192064452Y-75142412D01*
X192163504Y-74903280D01*
X192170000Y-74870622D01*
X192176496Y-74903280D01*
X192275548Y-75142412D01*
X192419349Y-75357626D01*
X192602374Y-75540651D01*
X192817588Y-75684452D01*
X193056720Y-75783504D01*
X193310582Y-75834000D01*
X193569418Y-75834000D01*
X193823280Y-75783504D01*
X194062412Y-75684452D01*
X194277626Y-75540651D01*
X194460651Y-75357626D01*
X194604452Y-75142412D01*
X194703504Y-74903280D01*
X194710000Y-74870622D01*
X194716496Y-74903280D01*
X194815548Y-75142412D01*
X194959349Y-75357626D01*
X195142374Y-75540651D01*
X195357588Y-75684452D01*
X195596720Y-75783504D01*
X195850582Y-75834000D01*
X196109418Y-75834000D01*
X196363280Y-75783504D01*
X196602412Y-75684452D01*
X196817626Y-75540651D01*
X197000651Y-75357626D01*
X197144452Y-75142412D01*
X197243504Y-74903280D01*
X197250000Y-74870622D01*
X197256496Y-74903280D01*
X197355548Y-75142412D01*
X197499349Y-75357626D01*
X197682374Y-75540651D01*
X197897588Y-75684452D01*
X198136720Y-75783504D01*
X198390582Y-75834000D01*
X198649418Y-75834000D01*
X198903280Y-75783504D01*
X199142412Y-75684452D01*
X199357626Y-75540651D01*
X199540651Y-75357626D01*
X199684452Y-75142412D01*
X199783504Y-74903280D01*
X199790000Y-74870622D01*
X199796496Y-74903280D01*
X199895548Y-75142412D01*
X200039349Y-75357626D01*
X200222374Y-75540651D01*
X200437588Y-75684452D01*
X200676720Y-75783504D01*
X200930582Y-75834000D01*
X201189418Y-75834000D01*
X201443280Y-75783504D01*
X201682412Y-75684452D01*
X201897626Y-75540651D01*
X202012017Y-75426260D01*
X202873345Y-75426260D01*
X202930257Y-75657888D01*
X203165116Y-75766684D01*
X203416688Y-75827571D01*
X203675305Y-75838208D01*
X203931029Y-75798188D01*
X204174030Y-75709047D01*
X204269743Y-75657888D01*
X204326655Y-75426260D01*
X203600000Y-74699605D01*
X202873345Y-75426260D01*
X202012017Y-75426260D01*
X202080651Y-75357626D01*
X202224452Y-75142412D01*
X202323504Y-74903280D01*
X202329648Y-74872391D01*
X202410953Y-75094030D01*
X202462112Y-75189743D01*
X202693740Y-75246655D01*
X203420395Y-74520000D01*
X203406253Y-74505858D01*
X203585858Y-74326253D01*
X203600000Y-74340395D01*
X203614143Y-74326253D01*
X203793748Y-74505858D01*
X203779605Y-74520000D01*
X204506260Y-75246655D01*
X204737888Y-75189743D01*
X204846684Y-74954884D01*
X204868682Y-74863994D01*
X204876496Y-74903280D01*
X204975548Y-75142412D01*
X205119349Y-75357626D01*
X205302374Y-75540651D01*
X205517588Y-75684452D01*
X205756720Y-75783504D01*
X206010582Y-75834000D01*
X206269418Y-75834000D01*
X206523280Y-75783504D01*
X206762412Y-75684452D01*
X206977626Y-75540651D01*
X207160651Y-75357626D01*
X207304452Y-75142412D01*
X207403504Y-74903280D01*
X207410000Y-74870622D01*
X207416496Y-74903280D01*
X207515548Y-75142412D01*
X207659349Y-75357626D01*
X207842374Y-75540651D01*
X208057588Y-75684452D01*
X208296720Y-75783504D01*
X208550582Y-75834000D01*
X208809418Y-75834000D01*
X209063280Y-75783504D01*
X209302412Y-75684452D01*
X209517626Y-75540651D01*
X209700651Y-75357626D01*
X209844452Y-75142412D01*
X209943504Y-74903280D01*
X209950000Y-74870622D01*
X209956496Y-74903280D01*
X210055548Y-75142412D01*
X210199349Y-75357626D01*
X210382374Y-75540651D01*
X210597588Y-75684452D01*
X210836720Y-75783504D01*
X211090582Y-75834000D01*
X211349418Y-75834000D01*
X211603280Y-75783504D01*
X211842412Y-75684452D01*
X212057626Y-75540651D01*
X212240651Y-75357626D01*
X212384452Y-75142412D01*
X212483504Y-74903280D01*
X212490000Y-74870622D01*
X212496496Y-74903280D01*
X212595548Y-75142412D01*
X212739349Y-75357626D01*
X212922374Y-75540651D01*
X213137588Y-75684452D01*
X213376720Y-75783504D01*
X213630582Y-75834000D01*
X213889418Y-75834000D01*
X214143280Y-75783504D01*
X214382412Y-75684452D01*
X214597626Y-75540651D01*
X214780651Y-75357626D01*
X214924452Y-75142412D01*
X215023504Y-74903280D01*
X215030000Y-74870622D01*
X215036496Y-74903280D01*
X215135548Y-75142412D01*
X215279349Y-75357626D01*
X215462374Y-75540651D01*
X215677588Y-75684452D01*
X215916720Y-75783504D01*
X216170582Y-75834000D01*
X216429418Y-75834000D01*
X216683280Y-75783504D01*
X216922412Y-75684452D01*
X217137626Y-75540651D01*
X217320651Y-75357626D01*
X217464452Y-75142412D01*
X217563504Y-74903280D01*
X217570000Y-74870622D01*
X217576496Y-74903280D01*
X217675548Y-75142412D01*
X217819349Y-75357626D01*
X218002374Y-75540651D01*
X218217588Y-75684452D01*
X218456720Y-75783504D01*
X218710582Y-75834000D01*
X218969418Y-75834000D01*
X219223280Y-75783504D01*
X219462412Y-75684452D01*
X219677626Y-75540651D01*
X219860651Y-75357626D01*
X220004452Y-75142412D01*
X220103504Y-74903280D01*
X220110966Y-74865767D01*
X220620000Y-75374802D01*
X220620000Y-75576289D01*
X220576063Y-75620226D01*
X220462795Y-75789744D01*
X220384774Y-75978102D01*
X220345000Y-76178061D01*
X220345000Y-76381939D01*
X220384774Y-76581898D01*
X220462795Y-76770256D01*
X220576063Y-76939774D01*
X220720226Y-77083937D01*
X220889744Y-77197205D01*
X221078102Y-77275226D01*
X221278061Y-77315000D01*
X221481939Y-77315000D01*
X221681898Y-77275226D01*
X221870256Y-77197205D01*
X222039774Y-77083937D01*
X222183937Y-76939774D01*
X222297205Y-76770256D01*
X222375226Y-76581898D01*
X222415000Y-76381939D01*
X222415000Y-76178061D01*
X222375226Y-75978102D01*
X222297205Y-75789744D01*
X222183937Y-75620226D01*
X222140000Y-75576289D01*
X222140000Y-75097323D01*
X222143676Y-75060000D01*
X222140000Y-75022677D01*
X222140000Y-75022667D01*
X222129003Y-74911014D01*
X222085546Y-74767753D01*
X222014974Y-74635724D01*
X221920001Y-74519999D01*
X221891004Y-74496202D01*
X219743804Y-72349003D01*
X219720001Y-72319999D01*
X219604276Y-72225026D01*
X219472247Y-72154454D01*
X219328986Y-72110997D01*
X219217333Y-72100000D01*
X219217322Y-72100000D01*
X219180000Y-72096324D01*
X219142678Y-72100000D01*
X205740723Y-72100000D01*
X206983506Y-70857217D01*
X207060226Y-70933937D01*
X207229744Y-71047205D01*
X207418102Y-71125226D01*
X207618061Y-71165000D01*
X207821939Y-71165000D01*
X208021898Y-71125226D01*
X208210256Y-71047205D01*
X208379774Y-70933937D01*
X208423711Y-70890000D01*
X212732678Y-70890000D01*
X212770000Y-70893676D01*
X212807322Y-70890000D01*
X212807333Y-70890000D01*
X212918986Y-70879003D01*
X213062247Y-70835546D01*
X213194276Y-70764974D01*
X213310001Y-70670001D01*
X213333804Y-70640997D01*
X216079015Y-67895786D01*
X216170582Y-67914000D01*
X216429418Y-67914000D01*
X216683280Y-67863504D01*
X216922412Y-67764452D01*
X217137626Y-67620651D01*
X217320651Y-67437626D01*
X217464452Y-67222412D01*
X217522928Y-67081239D01*
X217522928Y-67279000D01*
X217535188Y-67403482D01*
X217571498Y-67523180D01*
X217630463Y-67633494D01*
X217709815Y-67730185D01*
X217806506Y-67809537D01*
X217916820Y-67868502D01*
X218036518Y-67904812D01*
X218161000Y-67917072D01*
X219519000Y-67917072D01*
X219643482Y-67904812D01*
X219763180Y-67868502D01*
X219873494Y-67809537D01*
X219970185Y-67730185D01*
X220049537Y-67633494D01*
X220108502Y-67523180D01*
X220144812Y-67403482D01*
X220157072Y-67279000D01*
X220157072Y-65921000D01*
X220144812Y-65796518D01*
X220108502Y-65676820D01*
X220049537Y-65566506D01*
X219970185Y-65469815D01*
X219873494Y-65390463D01*
X219763180Y-65331498D01*
X219643482Y-65295188D01*
X219519000Y-65282928D01*
X218597730Y-65282928D01*
X214945232Y-61630430D01*
X233668330Y-61630430D01*
X233668330Y-61969570D01*
X233734493Y-62302192D01*
X233864276Y-62615516D01*
X234052692Y-62897500D01*
X234292500Y-63137308D01*
X234574484Y-63325724D01*
X234887808Y-63455507D01*
X235220430Y-63521670D01*
X235559570Y-63521670D01*
X235892192Y-63455507D01*
X236205516Y-63325724D01*
X236487500Y-63137308D01*
X236727308Y-62897500D01*
X236915724Y-62615516D01*
X237045507Y-62302192D01*
X237111670Y-61969570D01*
X237111670Y-61630430D01*
X237045507Y-61297808D01*
X236915724Y-60984484D01*
X236727308Y-60702500D01*
X236487500Y-60462692D01*
X236205516Y-60274276D01*
X235892192Y-60144493D01*
X235559570Y-60078330D01*
X235220430Y-60078330D01*
X234887808Y-60144493D01*
X234574484Y-60274276D01*
X234292500Y-60462692D01*
X234052692Y-60702500D01*
X233864276Y-60984484D01*
X233734493Y-61297808D01*
X233668330Y-61630430D01*
X214945232Y-61630430D01*
X214773804Y-61459003D01*
X214750001Y-61429999D01*
X214634276Y-61335026D01*
X214502247Y-61264454D01*
X214358986Y-61220997D01*
X214247333Y-61210000D01*
X214247322Y-61210000D01*
X214210000Y-61206324D01*
X214172678Y-61210000D01*
X212524126Y-61210000D01*
X212480189Y-61166063D01*
X212310671Y-61052795D01*
X212122313Y-60974774D01*
X211922354Y-60935000D01*
X211718476Y-60935000D01*
X211518517Y-60974774D01*
X211330159Y-61052795D01*
X211160641Y-61166063D01*
X211016478Y-61310226D01*
X210903210Y-61479744D01*
X210825189Y-61668102D01*
X210785415Y-61868061D01*
X210785415Y-62071939D01*
X210825189Y-62271898D01*
X210903210Y-62460256D01*
X211016478Y-62629774D01*
X211160641Y-62773937D01*
X211330159Y-62887205D01*
X211518517Y-62965226D01*
X211718476Y-63005000D01*
X211922354Y-63005000D01*
X212122313Y-62965226D01*
X212310671Y-62887205D01*
X212480189Y-62773937D01*
X212524126Y-62730000D01*
X212529276Y-62730000D01*
X211026717Y-64232560D01*
X210957205Y-64064744D01*
X210843937Y-63895226D01*
X210800000Y-63851289D01*
X210800000Y-63808711D01*
X210843937Y-63764774D01*
X210957205Y-63595256D01*
X211035226Y-63406898D01*
X211075000Y-63206939D01*
X211075000Y-63003061D01*
X211035226Y-62803102D01*
X210957205Y-62614744D01*
X210843937Y-62445226D01*
X210699774Y-62301063D01*
X210530256Y-62187795D01*
X210341898Y-62109774D01*
X210141939Y-62070000D01*
X209938061Y-62070000D01*
X209738102Y-62109774D01*
X209549744Y-62187795D01*
X209440000Y-62261123D01*
X209440000Y-60057322D01*
X209443676Y-60019999D01*
X209440000Y-59982676D01*
X209440000Y-59982667D01*
X209429003Y-59871014D01*
X209385546Y-59727753D01*
X209314974Y-59595724D01*
X209301811Y-59579685D01*
X209243799Y-59508996D01*
X209243795Y-59508992D01*
X209220001Y-59479999D01*
X209191008Y-59456205D01*
X208699803Y-58965000D01*
X208889365Y-58965000D01*
X209162740Y-58910623D01*
X209420254Y-58803957D01*
X209652010Y-58649103D01*
X209849103Y-58452010D01*
X210003957Y-58220254D01*
X210020000Y-58181523D01*
X210036043Y-58220254D01*
X210190897Y-58452010D01*
X210387990Y-58649103D01*
X210619746Y-58803957D01*
X210877260Y-58910623D01*
X211150635Y-58965000D01*
X211429365Y-58965000D01*
X211702740Y-58910623D01*
X211960254Y-58803957D01*
X212192010Y-58649103D01*
X212389103Y-58452010D01*
X212543957Y-58220254D01*
X212650623Y-57962740D01*
X212705000Y-57689365D01*
X212705000Y-57410635D01*
X212650623Y-57137260D01*
X212543957Y-56879746D01*
X212389103Y-56647990D01*
X212192010Y-56450897D01*
X211960254Y-56296043D01*
X211702740Y-56189377D01*
X211429365Y-56135000D01*
X211150635Y-56135000D01*
X210877260Y-56189377D01*
X210619746Y-56296043D01*
X210387990Y-56450897D01*
X210190897Y-56647990D01*
X210036043Y-56879746D01*
X210020000Y-56918477D01*
X210003957Y-56879746D01*
X209849103Y-56647990D01*
X209652010Y-56450897D01*
X209420254Y-56296043D01*
X209162740Y-56189377D01*
X208889365Y-56135000D01*
X208610635Y-56135000D01*
X208337260Y-56189377D01*
X208079746Y-56296043D01*
X207847990Y-56450897D01*
X207650897Y-56647990D01*
X207496043Y-56879746D01*
X207480000Y-56918477D01*
X207463957Y-56879746D01*
X207309103Y-56647990D01*
X207112010Y-56450897D01*
X206880254Y-56296043D01*
X206622740Y-56189377D01*
X206349365Y-56135000D01*
X206070635Y-56135000D01*
X205797260Y-56189377D01*
X205539746Y-56296043D01*
X205307990Y-56450897D01*
X205110897Y-56647990D01*
X204956043Y-56879746D01*
X204940000Y-56918477D01*
X204923957Y-56879746D01*
X204769103Y-56647990D01*
X204572010Y-56450897D01*
X204559000Y-56442204D01*
X204559000Y-55768235D01*
X209347743Y-50979493D01*
X209381659Y-50951659D01*
X209492753Y-50816291D01*
X209575303Y-50661851D01*
X209626136Y-50494274D01*
X209639000Y-50363667D01*
X209639000Y-50363660D01*
X209643300Y-50320000D01*
X209639000Y-50276340D01*
X209639000Y-49950000D01*
X217151928Y-49950000D01*
X217151928Y-51650000D01*
X217164188Y-51774482D01*
X217200498Y-51894180D01*
X217259463Y-52004494D01*
X217338815Y-52101185D01*
X217435506Y-52180537D01*
X217545820Y-52239502D01*
X217618380Y-52261513D01*
X217486525Y-52393368D01*
X217324010Y-52636589D01*
X217212068Y-52906842D01*
X217155000Y-53193740D01*
X217155000Y-53486260D01*
X217212068Y-53773158D01*
X217324010Y-54043411D01*
X217486525Y-54286632D01*
X217693368Y-54493475D01*
X217936589Y-54655990D01*
X218206842Y-54767932D01*
X218493740Y-54825000D01*
X218786260Y-54825000D01*
X219073158Y-54767932D01*
X219343411Y-54655990D01*
X219586632Y-54493475D01*
X219793475Y-54286632D01*
X219955990Y-54043411D01*
X220067932Y-53773158D01*
X220125000Y-53486260D01*
X220125000Y-53193740D01*
X220067932Y-52906842D01*
X219955990Y-52636589D01*
X219793475Y-52393368D01*
X219661620Y-52261513D01*
X219734180Y-52239502D01*
X219844494Y-52180537D01*
X219941185Y-52101185D01*
X220020537Y-52004494D01*
X220079502Y-51894180D01*
X220115812Y-51774482D01*
X220128072Y-51650000D01*
X220128072Y-49950000D01*
X220115812Y-49825518D01*
X220079502Y-49705820D01*
X220020537Y-49595506D01*
X219941185Y-49498815D01*
X219844494Y-49419463D01*
X219734180Y-49360498D01*
X219614482Y-49324188D01*
X219490000Y-49311928D01*
X217790000Y-49311928D01*
X217665518Y-49324188D01*
X217545820Y-49360498D01*
X217435506Y-49419463D01*
X217338815Y-49498815D01*
X217259463Y-49595506D01*
X217200498Y-49705820D01*
X217164188Y-49825518D01*
X217151928Y-49950000D01*
X209639000Y-49950000D01*
X209639000Y-45957796D01*
X209652010Y-45949103D01*
X209849103Y-45752010D01*
X209879469Y-45706564D01*
X209884188Y-45754482D01*
X209920498Y-45874180D01*
X209979463Y-45984494D01*
X210058815Y-46081185D01*
X210155506Y-46160537D01*
X210265820Y-46219502D01*
X210385518Y-46255812D01*
X210510000Y-46268072D01*
X211004250Y-46265000D01*
X211163000Y-46106250D01*
X211163000Y-44977000D01*
X211417000Y-44977000D01*
X211417000Y-46106250D01*
X211575750Y-46265000D01*
X212070000Y-46268072D01*
X212194482Y-46255812D01*
X212314180Y-46219502D01*
X212424494Y-46160537D01*
X212521185Y-46081185D01*
X212600537Y-45984494D01*
X212659502Y-45874180D01*
X212695812Y-45754482D01*
X212708072Y-45630000D01*
X212705000Y-45135750D01*
X212546250Y-44977000D01*
X211417000Y-44977000D01*
X211163000Y-44977000D01*
X211143000Y-44977000D01*
X211143000Y-44723000D01*
X211163000Y-44723000D01*
X211163000Y-43593750D01*
X211417000Y-43593750D01*
X211417000Y-44723000D01*
X212546250Y-44723000D01*
X212705000Y-44564250D01*
X212708072Y-44070000D01*
X212695812Y-43945518D01*
X212659502Y-43825820D01*
X212600537Y-43715506D01*
X212522511Y-43620430D01*
X233668330Y-43620430D01*
X233668330Y-43959570D01*
X233734493Y-44292192D01*
X233864276Y-44605516D01*
X234052692Y-44887500D01*
X234292500Y-45127308D01*
X234574484Y-45315724D01*
X234887808Y-45445507D01*
X235220430Y-45511670D01*
X235559570Y-45511670D01*
X235892192Y-45445507D01*
X236205516Y-45315724D01*
X236487500Y-45127308D01*
X236727308Y-44887500D01*
X236915724Y-44605516D01*
X237045507Y-44292192D01*
X237111670Y-43959570D01*
X237111670Y-43620430D01*
X237045507Y-43287808D01*
X236915724Y-42974484D01*
X236727308Y-42692500D01*
X236487500Y-42452692D01*
X236205516Y-42264276D01*
X235892192Y-42134493D01*
X235559570Y-42068330D01*
X235220430Y-42068330D01*
X234887808Y-42134493D01*
X234574484Y-42264276D01*
X234292500Y-42452692D01*
X234052692Y-42692500D01*
X233864276Y-42974484D01*
X233734493Y-43287808D01*
X233668330Y-43620430D01*
X212522511Y-43620430D01*
X212521185Y-43618815D01*
X212424494Y-43539463D01*
X212314180Y-43480498D01*
X212194482Y-43444188D01*
X212070000Y-43431928D01*
X211575750Y-43435000D01*
X211417000Y-43593750D01*
X211163000Y-43593750D01*
X211004250Y-43435000D01*
X210510000Y-43431928D01*
X210385518Y-43444188D01*
X210265820Y-43480498D01*
X210155506Y-43539463D01*
X210058815Y-43618815D01*
X209979463Y-43715506D01*
X209920498Y-43825820D01*
X209884188Y-43945518D01*
X209879469Y-43993436D01*
X209849103Y-43947990D01*
X209652010Y-43750897D01*
X209420254Y-43596043D01*
X209162740Y-43489377D01*
X208889365Y-43435000D01*
X208610635Y-43435000D01*
X208337260Y-43489377D01*
X208079746Y-43596043D01*
X207847990Y-43750897D01*
X207650897Y-43947990D01*
X207496043Y-44179746D01*
X207480000Y-44218477D01*
X207463957Y-44179746D01*
X207309103Y-43947990D01*
X207112010Y-43750897D01*
X206880254Y-43596043D01*
X206622740Y-43489377D01*
X206349365Y-43435000D01*
X206070635Y-43435000D01*
X205797260Y-43489377D01*
X205539746Y-43596043D01*
X205307990Y-43750897D01*
X205110897Y-43947990D01*
X204956043Y-44179746D01*
X204940000Y-44218477D01*
X204923957Y-44179746D01*
X204769103Y-43947990D01*
X204572010Y-43750897D01*
X204340254Y-43596043D01*
X204082740Y-43489377D01*
X203809365Y-43435000D01*
X203530635Y-43435000D01*
X203257260Y-43489377D01*
X202999746Y-43596043D01*
X202767990Y-43750897D01*
X202570897Y-43947990D01*
X202416043Y-44179746D01*
X202400000Y-44218477D01*
X202383957Y-44179746D01*
X202229103Y-43947990D01*
X202032010Y-43750897D01*
X201800254Y-43596043D01*
X201542740Y-43489377D01*
X201269365Y-43435000D01*
X200990635Y-43435000D01*
X200717260Y-43489377D01*
X200459746Y-43596043D01*
X200227990Y-43750897D01*
X200030897Y-43947990D01*
X199876043Y-44179746D01*
X199860000Y-44218477D01*
X199843957Y-44179746D01*
X199689103Y-43947990D01*
X199492010Y-43750897D01*
X199260254Y-43596043D01*
X199002740Y-43489377D01*
X198729365Y-43435000D01*
X198450635Y-43435000D01*
X198177260Y-43489377D01*
X197919746Y-43596043D01*
X197687990Y-43750897D01*
X197490897Y-43947990D01*
X197336043Y-44179746D01*
X197320000Y-44218477D01*
X197303957Y-44179746D01*
X197149103Y-43947990D01*
X196952010Y-43750897D01*
X196720254Y-43596043D01*
X196462740Y-43489377D01*
X196189365Y-43435000D01*
X195910635Y-43435000D01*
X195637260Y-43489377D01*
X195379746Y-43596043D01*
X195147990Y-43750897D01*
X194950897Y-43947990D01*
X194920531Y-43993436D01*
X194915812Y-43945518D01*
X194879502Y-43825820D01*
X194820537Y-43715506D01*
X194741185Y-43618815D01*
X194644494Y-43539463D01*
X194534180Y-43480498D01*
X194414482Y-43444188D01*
X194290000Y-43431928D01*
X193795750Y-43435000D01*
X193637000Y-43593750D01*
X193637000Y-44723000D01*
X193657000Y-44723000D01*
X193657000Y-44977000D01*
X193637000Y-44977000D01*
X193637000Y-46106250D01*
X193795750Y-46265000D01*
X194290000Y-46268072D01*
X194414482Y-46255812D01*
X194534180Y-46219502D01*
X194644494Y-46160537D01*
X194741185Y-46081185D01*
X194820537Y-45984494D01*
X194879502Y-45874180D01*
X194907001Y-45783529D01*
X194907000Y-48016554D01*
X182851478Y-60072077D01*
X182807868Y-60107867D01*
X182772078Y-60151477D01*
X182772076Y-60151479D01*
X182757709Y-60168985D01*
X182665033Y-60281911D01*
X182613805Y-60377753D01*
X182558898Y-60480477D01*
X182493539Y-60695933D01*
X182471471Y-60920000D01*
X182477001Y-60976149D01*
X182477001Y-62515172D01*
X182451898Y-62504774D01*
X182251939Y-62465000D01*
X182048061Y-62465000D01*
X181848102Y-62504774D01*
X181659744Y-62582795D01*
X181490226Y-62696063D01*
X181346063Y-62840226D01*
X181232795Y-63009744D01*
X181154774Y-63198102D01*
X181115000Y-63398061D01*
X181115000Y-63601939D01*
X181154774Y-63801898D01*
X181232795Y-63990256D01*
X181346063Y-64159774D01*
X181410001Y-64223712D01*
X181410000Y-66966289D01*
X181366063Y-67010226D01*
X181252795Y-67179744D01*
X181174774Y-67368102D01*
X181135000Y-67568061D01*
X181135000Y-67630198D01*
X180995000Y-67770198D01*
X180995000Y-67613740D01*
X180937932Y-67326842D01*
X180825990Y-67056589D01*
X180663475Y-66813368D01*
X180456632Y-66606525D01*
X180213411Y-66444010D01*
X179943158Y-66332068D01*
X179656260Y-66275000D01*
X179363740Y-66275000D01*
X179076842Y-66332068D01*
X178806589Y-66444010D01*
X178563368Y-66606525D01*
X178431513Y-66738380D01*
X178409502Y-66665820D01*
X178350537Y-66555506D01*
X178271185Y-66458815D01*
X178174494Y-66379463D01*
X178064180Y-66320498D01*
X177944482Y-66284188D01*
X177820000Y-66271928D01*
X176120000Y-66271928D01*
X175995518Y-66284188D01*
X175875820Y-66320498D01*
X175765506Y-66379463D01*
X175668815Y-66458815D01*
X175589463Y-66555506D01*
X175530498Y-66665820D01*
X175494188Y-66785518D01*
X175481928Y-66910000D01*
X158125000Y-66910000D01*
X158125000Y-61620430D01*
X167668330Y-61620430D01*
X167668330Y-61959570D01*
X167734493Y-62292192D01*
X167864276Y-62605516D01*
X168052692Y-62887500D01*
X168292500Y-63127308D01*
X168574484Y-63315724D01*
X168887808Y-63445507D01*
X169220430Y-63511670D01*
X169559570Y-63511670D01*
X169892192Y-63445507D01*
X170205516Y-63315724D01*
X170487500Y-63127308D01*
X170727308Y-62887500D01*
X170915724Y-62605516D01*
X171045507Y-62292192D01*
X171111670Y-61959570D01*
X171111670Y-61620430D01*
X171045507Y-61287808D01*
X170915724Y-60974484D01*
X170727308Y-60692500D01*
X170487500Y-60452692D01*
X170205516Y-60264276D01*
X169892192Y-60134493D01*
X169559570Y-60068330D01*
X169220430Y-60068330D01*
X168887808Y-60134493D01*
X168574484Y-60264276D01*
X168292500Y-60452692D01*
X168052692Y-60692500D01*
X167864276Y-60974484D01*
X167734493Y-61287808D01*
X167668330Y-61620430D01*
X158125000Y-61620430D01*
X158125000Y-49990000D01*
X184671928Y-49990000D01*
X184671928Y-51690000D01*
X184684188Y-51814482D01*
X184720498Y-51934180D01*
X184779463Y-52044494D01*
X184858815Y-52141185D01*
X184955506Y-52220537D01*
X185065820Y-52279502D01*
X185138380Y-52301513D01*
X185006525Y-52433368D01*
X184844010Y-52676589D01*
X184732068Y-52946842D01*
X184675000Y-53233740D01*
X184675000Y-53526260D01*
X184732068Y-53813158D01*
X184844010Y-54083411D01*
X185006525Y-54326632D01*
X185213368Y-54533475D01*
X185456589Y-54695990D01*
X185726842Y-54807932D01*
X186013740Y-54865000D01*
X186306260Y-54865000D01*
X186593158Y-54807932D01*
X186863411Y-54695990D01*
X187106632Y-54533475D01*
X187313475Y-54326632D01*
X187475990Y-54083411D01*
X187587932Y-53813158D01*
X187645000Y-53526260D01*
X187645000Y-53233740D01*
X187587932Y-52946842D01*
X187475990Y-52676589D01*
X187313475Y-52433368D01*
X187181620Y-52301513D01*
X187254180Y-52279502D01*
X187364494Y-52220537D01*
X187461185Y-52141185D01*
X187540537Y-52044494D01*
X187599502Y-51934180D01*
X187635812Y-51814482D01*
X187648072Y-51690000D01*
X187648072Y-49990000D01*
X187635812Y-49865518D01*
X187599502Y-49745820D01*
X187540537Y-49635506D01*
X187461185Y-49538815D01*
X187364494Y-49459463D01*
X187254180Y-49400498D01*
X187134482Y-49364188D01*
X187010000Y-49351928D01*
X185310000Y-49351928D01*
X185185518Y-49364188D01*
X185065820Y-49400498D01*
X184955506Y-49459463D01*
X184858815Y-49538815D01*
X184779463Y-49635506D01*
X184720498Y-49745820D01*
X184684188Y-49865518D01*
X184671928Y-49990000D01*
X158125000Y-49990000D01*
X158125000Y-45952731D01*
X158153803Y-45630000D01*
X192091928Y-45630000D01*
X192104188Y-45754482D01*
X192140498Y-45874180D01*
X192199463Y-45984494D01*
X192278815Y-46081185D01*
X192375506Y-46160537D01*
X192485820Y-46219502D01*
X192605518Y-46255812D01*
X192730000Y-46268072D01*
X193224250Y-46265000D01*
X193383000Y-46106250D01*
X193383000Y-44977000D01*
X192253750Y-44977000D01*
X192095000Y-45135750D01*
X192091928Y-45630000D01*
X158153803Y-45630000D01*
X158195281Y-45165253D01*
X158395231Y-44434357D01*
X158721450Y-43750425D01*
X158814860Y-43620430D01*
X167668330Y-43620430D01*
X167668330Y-43959570D01*
X167734493Y-44292192D01*
X167864276Y-44605516D01*
X168052692Y-44887500D01*
X168292500Y-45127308D01*
X168574484Y-45315724D01*
X168887808Y-45445507D01*
X169220430Y-45511670D01*
X169559570Y-45511670D01*
X169892192Y-45445507D01*
X170205516Y-45315724D01*
X170487500Y-45127308D01*
X170727308Y-44887500D01*
X170915724Y-44605516D01*
X171045507Y-44292192D01*
X171089703Y-44070000D01*
X192091928Y-44070000D01*
X192095000Y-44564250D01*
X192253750Y-44723000D01*
X193383000Y-44723000D01*
X193383000Y-43593750D01*
X193224250Y-43435000D01*
X192730000Y-43431928D01*
X192605518Y-43444188D01*
X192485820Y-43480498D01*
X192375506Y-43539463D01*
X192278815Y-43618815D01*
X192199463Y-43715506D01*
X192140498Y-43825820D01*
X192104188Y-43945518D01*
X192091928Y-44070000D01*
X171089703Y-44070000D01*
X171111670Y-43959570D01*
X171111670Y-43620430D01*
X171045507Y-43287808D01*
X170915724Y-42974484D01*
X170727308Y-42692500D01*
X170487500Y-42452692D01*
X170205516Y-42264276D01*
X169892192Y-42134493D01*
X169559570Y-42068330D01*
X169220430Y-42068330D01*
X168887808Y-42134493D01*
X168574484Y-42264276D01*
X168292500Y-42452692D01*
X168052692Y-42692500D01*
X167864276Y-42974484D01*
X167734493Y-43287808D01*
X167668330Y-43620430D01*
X158814860Y-43620430D01*
X159163626Y-43135072D01*
X159707789Y-42607741D01*
X160336726Y-42185114D01*
X161030570Y-41880537D01*
X161773039Y-41702285D01*
X162416949Y-41655000D01*
X242357258Y-41655000D01*
X243144747Y-41725282D01*
G37*
X243144747Y-41725282D02*
X243875643Y-41925232D01*
X244559575Y-42251451D01*
X245174928Y-42693627D01*
X245702256Y-43237788D01*
X246124889Y-43866730D01*
X246429462Y-44560568D01*
X246607714Y-45303039D01*
X246655001Y-45946976D01*
X246655000Y-68093178D01*
X246584539Y-68880564D01*
X246384416Y-69611404D01*
X246058031Y-70295263D01*
X245615707Y-70910513D01*
X245064930Y-71443998D01*
X244603708Y-71770396D01*
X226355349Y-82990865D01*
X226336456Y-83005211D01*
X225819741Y-83370882D01*
X225808968Y-83380046D01*
X225797024Y-83387622D01*
X225732954Y-83442899D01*
X225094433Y-84061373D01*
X225079318Y-84078875D01*
X225062292Y-84094524D01*
X225009037Y-84160257D01*
X225009024Y-84160272D01*
X225009021Y-84160278D01*
X224490117Y-84882046D01*
X224478341Y-84901947D01*
X224464354Y-84920365D01*
X224423571Y-84994507D01*
X224040680Y-85796762D01*
X224032612Y-85818440D01*
X224022111Y-85839038D01*
X223995101Y-85919231D01*
X223760329Y-86776612D01*
X223756228Y-86799375D01*
X223749540Y-86821507D01*
X223737158Y-86905215D01*
X223657925Y-87790620D01*
X223657925Y-87791532D01*
X223655001Y-87821218D01*
X223655000Y-101098239D01*
X223657639Y-101125031D01*
X223710611Y-101846380D01*
X223713415Y-101863503D01*
X223713960Y-101880851D01*
X223728945Y-101964133D01*
X223936465Y-102828515D01*
X223943841Y-102850432D01*
X223948649Y-102873052D01*
X223978145Y-102952364D01*
X224335454Y-103766336D01*
X224346595Y-103786600D01*
X224355332Y-103808011D01*
X224398407Y-103880846D01*
X224894210Y-104618680D01*
X224908760Y-104636648D01*
X224921154Y-104656178D01*
X224976446Y-104720234D01*
X225595073Y-105358607D01*
X225612580Y-105373719D01*
X225628232Y-105390740D01*
X225693974Y-105443977D01*
X225693993Y-105443993D01*
X225694001Y-105443998D01*
X226415889Y-105962727D01*
X226435796Y-105974500D01*
X226454214Y-105988480D01*
X226528366Y-106029246D01*
X227330713Y-106411946D01*
X227352386Y-106420006D01*
X227372993Y-106430506D01*
X227453192Y-106457496D01*
X228310629Y-106692064D01*
X228333389Y-106696159D01*
X228355527Y-106702843D01*
X228439233Y-106715203D01*
X228439238Y-106715204D01*
X228439239Y-106715204D01*
X229321435Y-106793938D01*
X229353895Y-106797135D01*
X242357269Y-106797135D01*
X243144747Y-106867416D01*
X243875643Y-107067366D01*
X244559575Y-107393585D01*
X245174928Y-107835761D01*
X245702259Y-108379924D01*
X246124886Y-109008861D01*
X246429463Y-109702705D01*
X246607715Y-110445174D01*
X246655001Y-111089098D01*
X246655000Y-125887269D01*
X246584719Y-126674748D01*
X246384769Y-127405643D01*
X246058550Y-128089575D01*
X245616374Y-128704928D01*
X245072211Y-129232259D01*
X244443274Y-129654886D01*
X243749429Y-129959464D01*
X243006961Y-130137714D01*
X242363051Y-130185000D01*
X226625000Y-130185000D01*
X226625000Y-126789570D01*
X235280000Y-126789570D01*
X235280000Y-127190430D01*
X235358204Y-127583587D01*
X235511607Y-127953934D01*
X235734313Y-128287237D01*
X236017763Y-128570687D01*
X236351066Y-128793393D01*
X236721413Y-128946796D01*
X237114570Y-129025000D01*
X237515430Y-129025000D01*
X237908587Y-128946796D01*
X238278934Y-128793393D01*
X238612237Y-128570687D01*
X238895687Y-128287237D01*
X239118393Y-127953934D01*
X239271796Y-127583587D01*
X239350000Y-127190430D01*
X239350000Y-126789570D01*
X239271796Y-126396413D01*
X239118393Y-126026066D01*
X238895687Y-125692763D01*
X238612237Y-125409313D01*
X238278934Y-125186607D01*
X237908587Y-125033204D01*
X237515430Y-124955000D01*
X237114570Y-124955000D01*
X236721413Y-125033204D01*
X236351066Y-125186607D01*
X236017763Y-125409313D01*
X235734313Y-125692763D01*
X235511607Y-126026066D01*
X235358204Y-126396413D01*
X235280000Y-126789570D01*
X226625000Y-126789570D01*
X226625000Y-121956105D01*
X226628556Y-121920000D01*
X226614365Y-121775915D01*
X226572337Y-121637367D01*
X226504087Y-121509680D01*
X226412238Y-121397762D01*
X226300320Y-121305913D01*
X226172633Y-121237663D01*
X226034085Y-121195635D01*
X225926105Y-121185000D01*
X225890000Y-121181444D01*
X225853895Y-121185000D01*
X178926105Y-121185000D01*
X178890000Y-121181444D01*
X178853895Y-121185000D01*
X178745915Y-121195635D01*
X178607367Y-121237663D01*
X178479680Y-121305913D01*
X178367762Y-121397762D01*
X178275913Y-121509680D01*
X178207663Y-121637367D01*
X178165635Y-121775915D01*
X178151444Y-121920000D01*
X178155001Y-121956115D01*
X178155000Y-130185000D01*
X162422731Y-130185000D01*
X161635252Y-130114719D01*
X160904357Y-129914769D01*
X160220425Y-129588550D01*
X159605072Y-129146374D01*
X159077741Y-128602211D01*
X158655114Y-127973274D01*
X158350536Y-127279429D01*
X158232932Y-126789570D01*
X165430000Y-126789570D01*
X165430000Y-127190430D01*
X165508204Y-127583587D01*
X165661607Y-127953934D01*
X165884313Y-128287237D01*
X166167763Y-128570687D01*
X166501066Y-128793393D01*
X166871413Y-128946796D01*
X167264570Y-129025000D01*
X167665430Y-129025000D01*
X168058587Y-128946796D01*
X168428934Y-128793393D01*
X168762237Y-128570687D01*
X169045687Y-128287237D01*
X169268393Y-127953934D01*
X169421796Y-127583587D01*
X169500000Y-127190430D01*
X169500000Y-126789570D01*
X169421796Y-126396413D01*
X169268393Y-126026066D01*
X169045687Y-125692763D01*
X168762237Y-125409313D01*
X168428934Y-125186607D01*
X168058587Y-125033204D01*
X167665430Y-124955000D01*
X167264570Y-124955000D01*
X166871413Y-125033204D01*
X166501066Y-125186607D01*
X166167763Y-125409313D01*
X165884313Y-125692763D01*
X165661607Y-126026066D01*
X165508204Y-126396413D01*
X165430000Y-126789570D01*
X158232932Y-126789570D01*
X158172286Y-126536961D01*
X158125000Y-125893051D01*
X158125000Y-111094866D01*
X158193262Y-110330000D01*
X188211928Y-110330000D01*
X188211928Y-112030000D01*
X188224188Y-112154482D01*
X188260498Y-112274180D01*
X188319463Y-112384494D01*
X188398815Y-112481185D01*
X188495506Y-112560537D01*
X188605820Y-112619502D01*
X188725518Y-112655812D01*
X188850000Y-112668072D01*
X190550000Y-112668072D01*
X190674482Y-112655812D01*
X190794180Y-112619502D01*
X190904494Y-112560537D01*
X191001185Y-112481185D01*
X191080537Y-112384494D01*
X191139502Y-112274180D01*
X191161513Y-112201620D01*
X191293368Y-112333475D01*
X191536589Y-112495990D01*
X191806842Y-112607932D01*
X192093740Y-112665000D01*
X192386260Y-112665000D01*
X192673158Y-112607932D01*
X192943411Y-112495990D01*
X193186632Y-112333475D01*
X193393475Y-112126632D01*
X193510000Y-111952240D01*
X193626525Y-112126632D01*
X193833368Y-112333475D01*
X194076589Y-112495990D01*
X194346842Y-112607932D01*
X194633740Y-112665000D01*
X194926260Y-112665000D01*
X195213158Y-112607932D01*
X195483411Y-112495990D01*
X195726632Y-112333475D01*
X195933475Y-112126632D01*
X196050000Y-111952240D01*
X196166525Y-112126632D01*
X196373368Y-112333475D01*
X196616589Y-112495990D01*
X196886842Y-112607932D01*
X197173740Y-112665000D01*
X197466260Y-112665000D01*
X197753158Y-112607932D01*
X198023411Y-112495990D01*
X198266632Y-112333475D01*
X198473475Y-112126632D01*
X198590000Y-111952240D01*
X198706525Y-112126632D01*
X198913368Y-112333475D01*
X199156589Y-112495990D01*
X199426842Y-112607932D01*
X199713740Y-112665000D01*
X200006260Y-112665000D01*
X200293158Y-112607932D01*
X200563411Y-112495990D01*
X200806632Y-112333475D01*
X201013475Y-112126632D01*
X201130000Y-111952240D01*
X201246525Y-112126632D01*
X201453368Y-112333475D01*
X201696589Y-112495990D01*
X201966842Y-112607932D01*
X202253740Y-112665000D01*
X202546260Y-112665000D01*
X202833158Y-112607932D01*
X203103411Y-112495990D01*
X203346632Y-112333475D01*
X203553475Y-112126632D01*
X203670000Y-111952240D01*
X203786525Y-112126632D01*
X203993368Y-112333475D01*
X204236589Y-112495990D01*
X204506842Y-112607932D01*
X204793740Y-112665000D01*
X205086260Y-112665000D01*
X205373158Y-112607932D01*
X205643411Y-112495990D01*
X205886632Y-112333475D01*
X206093475Y-112126632D01*
X206210000Y-111952240D01*
X206326525Y-112126632D01*
X206533368Y-112333475D01*
X206776589Y-112495990D01*
X207046842Y-112607932D01*
X207333740Y-112665000D01*
X207626260Y-112665000D01*
X207913158Y-112607932D01*
X208183411Y-112495990D01*
X208426632Y-112333475D01*
X208633475Y-112126632D01*
X208755195Y-111944466D01*
X208824822Y-112061355D01*
X209019731Y-112277588D01*
X209253080Y-112451641D01*
X209515901Y-112576825D01*
X209663110Y-112621476D01*
X209893000Y-112500155D01*
X209893000Y-111307000D01*
X209873000Y-111307000D01*
X209873000Y-111053000D01*
X209893000Y-111053000D01*
X209893000Y-111033000D01*
X210147000Y-111033000D01*
X210147000Y-111053000D01*
X210167000Y-111053000D01*
X210167000Y-111307000D01*
X210147000Y-111307000D01*
X210147000Y-112500155D01*
X210376890Y-112621476D01*
X210524099Y-112576825D01*
X210786920Y-112451641D01*
X211020269Y-112277588D01*
X211215178Y-112061355D01*
X211284805Y-111944466D01*
X211406525Y-112126632D01*
X211613368Y-112333475D01*
X211856589Y-112495990D01*
X212126842Y-112607932D01*
X212413740Y-112665000D01*
X212706260Y-112665000D01*
X212993158Y-112607932D01*
X213263411Y-112495990D01*
X213506632Y-112333475D01*
X213713475Y-112126632D01*
X213830000Y-111952240D01*
X213946525Y-112126632D01*
X214153368Y-112333475D01*
X214396589Y-112495990D01*
X214666842Y-112607932D01*
X214953740Y-112665000D01*
X215246260Y-112665000D01*
X215533158Y-112607932D01*
X215803411Y-112495990D01*
X216046632Y-112333475D01*
X216253475Y-112126632D01*
X216415990Y-111883411D01*
X216527932Y-111613158D01*
X216585000Y-111326260D01*
X216585000Y-111033740D01*
X216527932Y-110746842D01*
X216415990Y-110476589D01*
X216253475Y-110233368D01*
X216046632Y-110026525D01*
X215803411Y-109864010D01*
X215533158Y-109752068D01*
X215246260Y-109695000D01*
X214953740Y-109695000D01*
X214666842Y-109752068D01*
X214396589Y-109864010D01*
X214153368Y-110026525D01*
X213946525Y-110233368D01*
X213830000Y-110407760D01*
X213713475Y-110233368D01*
X213506632Y-110026525D01*
X213263411Y-109864010D01*
X212993158Y-109752068D01*
X212706260Y-109695000D01*
X212413740Y-109695000D01*
X212345758Y-109708523D01*
X195500240Y-92863005D01*
X195545615Y-92817629D01*
X195716885Y-92561305D01*
X195834858Y-92276494D01*
X195895000Y-91974139D01*
X195895000Y-91665861D01*
X195834858Y-91363506D01*
X195716885Y-91078695D01*
X195545615Y-90822371D01*
X195327629Y-90604385D01*
X195071305Y-90433115D01*
X194786494Y-90315142D01*
X194484139Y-90255000D01*
X194175861Y-90255000D01*
X193873506Y-90315142D01*
X193588695Y-90433115D01*
X193332371Y-90604385D01*
X193114385Y-90822371D01*
X193020250Y-90963254D01*
X192875484Y-90914121D01*
X191969605Y-91820000D01*
X192875484Y-92725879D01*
X193020250Y-92676746D01*
X193114385Y-92817629D01*
X193332371Y-93035615D01*
X193453075Y-93116267D01*
X193453864Y-93124274D01*
X193475998Y-93197241D01*
X193504697Y-93291850D01*
X193587247Y-93446290D01*
X193698341Y-93581659D01*
X193732264Y-93609499D01*
X209892998Y-109770233D01*
X209892998Y-109859844D01*
X209663110Y-109738524D01*
X209515901Y-109783175D01*
X209253080Y-109908359D01*
X209019731Y-110082412D01*
X208824822Y-110298645D01*
X208755195Y-110415534D01*
X208633475Y-110233368D01*
X208426632Y-110026525D01*
X208183411Y-109864010D01*
X207913158Y-109752068D01*
X207626260Y-109695000D01*
X207333740Y-109695000D01*
X207046842Y-109752068D01*
X206776589Y-109864010D01*
X206533368Y-110026525D01*
X206326525Y-110233368D01*
X206210000Y-110407760D01*
X206093475Y-110233368D01*
X205886632Y-110026525D01*
X205643411Y-109864010D01*
X205373158Y-109752068D01*
X205086260Y-109695000D01*
X204793740Y-109695000D01*
X204506842Y-109752068D01*
X204236589Y-109864010D01*
X203993368Y-110026525D01*
X203786525Y-110233368D01*
X203670000Y-110407760D01*
X203553475Y-110233368D01*
X203346632Y-110026525D01*
X203103411Y-109864010D01*
X202833158Y-109752068D01*
X202546260Y-109695000D01*
X202253740Y-109695000D01*
X201966842Y-109752068D01*
X201696589Y-109864010D01*
X201453368Y-110026525D01*
X201246525Y-110233368D01*
X201130000Y-110407760D01*
X201013475Y-110233368D01*
X200806632Y-110026525D01*
X200563411Y-109864010D01*
X200293158Y-109752068D01*
X200006260Y-109695000D01*
X199713740Y-109695000D01*
X199426842Y-109752068D01*
X199156589Y-109864010D01*
X198913368Y-110026525D01*
X198706525Y-110233368D01*
X198590000Y-110407760D01*
X198473475Y-110233368D01*
X198266632Y-110026525D01*
X198023411Y-109864010D01*
X197753158Y-109752068D01*
X197466260Y-109695000D01*
X197173740Y-109695000D01*
X196886842Y-109752068D01*
X196616589Y-109864010D01*
X196373368Y-110026525D01*
X196166525Y-110233368D01*
X196050000Y-110407760D01*
X195933475Y-110233368D01*
X195726632Y-110026525D01*
X195483411Y-109864010D01*
X195213158Y-109752068D01*
X194926260Y-109695000D01*
X194633740Y-109695000D01*
X194346842Y-109752068D01*
X194076589Y-109864010D01*
X193833368Y-110026525D01*
X193626525Y-110233368D01*
X193510000Y-110407760D01*
X193393475Y-110233368D01*
X193186632Y-110026525D01*
X192943411Y-109864010D01*
X192673158Y-109752068D01*
X192386260Y-109695000D01*
X192093740Y-109695000D01*
X191806842Y-109752068D01*
X191536589Y-109864010D01*
X191293368Y-110026525D01*
X191161513Y-110158380D01*
X191139502Y-110085820D01*
X191080537Y-109975506D01*
X191001185Y-109878815D01*
X190904494Y-109799463D01*
X190794180Y-109740498D01*
X190674482Y-109704188D01*
X190550000Y-109691928D01*
X188850000Y-109691928D01*
X188725518Y-109704188D01*
X188605820Y-109740498D01*
X188495506Y-109799463D01*
X188398815Y-109878815D01*
X188319463Y-109975506D01*
X188260498Y-110085820D01*
X188224188Y-110205518D01*
X188211928Y-110330000D01*
X158193262Y-110330000D01*
X158195281Y-110307388D01*
X158395231Y-109576492D01*
X158721450Y-108892560D01*
X159163626Y-108277207D01*
X159707789Y-107749876D01*
X160336726Y-107327249D01*
X161030570Y-107022672D01*
X161773039Y-106844420D01*
X162416949Y-106797135D01*
X175426105Y-106797135D01*
X175452940Y-106794492D01*
X176174245Y-106741523D01*
X176191368Y-106738719D01*
X176208716Y-106738174D01*
X176291998Y-106723189D01*
X177156380Y-106515669D01*
X177178297Y-106508293D01*
X177200917Y-106503485D01*
X177280229Y-106473989D01*
X178094200Y-106116680D01*
X178114465Y-106105539D01*
X178135875Y-106096802D01*
X178208697Y-106053735D01*
X178208711Y-106053727D01*
X178208716Y-106053723D01*
X178946544Y-105557924D01*
X178964512Y-105543374D01*
X178984042Y-105530980D01*
X179048098Y-105475688D01*
X179686471Y-104857061D01*
X179701583Y-104839554D01*
X179718604Y-104823902D01*
X179771841Y-104758160D01*
X179771857Y-104758141D01*
X179771862Y-104758133D01*
X180290591Y-104036245D01*
X180302364Y-104016338D01*
X180316344Y-103997920D01*
X180357110Y-103923768D01*
X180739810Y-103121421D01*
X180747870Y-103099748D01*
X180758370Y-103079141D01*
X180785360Y-102998942D01*
X181019928Y-102141506D01*
X181024023Y-102118746D01*
X181030707Y-102096608D01*
X181043068Y-102012896D01*
X181121792Y-101130808D01*
X181125000Y-101098240D01*
X181125000Y-99076890D01*
X186648524Y-99076890D01*
X186693175Y-99224099D01*
X186818359Y-99486920D01*
X186992412Y-99720269D01*
X187208645Y-99915178D01*
X187458748Y-100064157D01*
X187733109Y-100161481D01*
X187963000Y-100040814D01*
X187963000Y-98847000D01*
X188217000Y-98847000D01*
X188217000Y-100040814D01*
X188446891Y-100161481D01*
X188721252Y-100064157D01*
X188971355Y-99915178D01*
X189187588Y-99720269D01*
X189361641Y-99486920D01*
X189486825Y-99224099D01*
X189531476Y-99076890D01*
X189410155Y-98847000D01*
X188217000Y-98847000D01*
X187963000Y-98847000D01*
X186769845Y-98847000D01*
X186648524Y-99076890D01*
X181125000Y-99076890D01*
X181125000Y-87821218D01*
X181122672Y-87797578D01*
X181081824Y-87165914D01*
X181079660Y-87151938D01*
X181079463Y-87137793D01*
X181065934Y-87054262D01*
X180873532Y-86186391D01*
X180866539Y-86164348D01*
X180862127Y-86141647D01*
X180834019Y-86061832D01*
X180490970Y-85241749D01*
X180480186Y-85221295D01*
X180471823Y-85199734D01*
X180430026Y-85126157D01*
X179947175Y-84379782D01*
X179932938Y-84361559D01*
X179920889Y-84341820D01*
X179866739Y-84276828D01*
X179866724Y-84276809D01*
X179866718Y-84276804D01*
X179259332Y-83627737D01*
X179242096Y-83612326D01*
X179226740Y-83595030D01*
X179161933Y-83540652D01*
X179161918Y-83540638D01*
X179161912Y-83540634D01*
X178449185Y-83009383D01*
X178448410Y-83008906D01*
X178424650Y-82990864D01*
X160183009Y-71774527D01*
X159549183Y-71302087D01*
X159031438Y-70748813D01*
X158619846Y-70112587D01*
X158327427Y-69413540D01*
X158161462Y-68664919D01*
X158125000Y-68101072D01*
X158125000Y-66910000D01*
X175481928Y-66910000D01*
X175481928Y-68610000D01*
X175494188Y-68734482D01*
X175530498Y-68854180D01*
X175589463Y-68964494D01*
X175668815Y-69061185D01*
X175765506Y-69140537D01*
X175875820Y-69199502D01*
X175948380Y-69221513D01*
X175816525Y-69353368D01*
X175654010Y-69596589D01*
X175542068Y-69866842D01*
X175485000Y-70153740D01*
X175485000Y-70446260D01*
X175542068Y-70733158D01*
X175654010Y-71003411D01*
X175816525Y-71246632D01*
X176023368Y-71453475D01*
X176197760Y-71570000D01*
X176023368Y-71686525D01*
X175816525Y-71893368D01*
X175654010Y-72136589D01*
X175542068Y-72406842D01*
X175485000Y-72693740D01*
X175485000Y-72986260D01*
X175542068Y-73273158D01*
X175654010Y-73543411D01*
X175816525Y-73786632D01*
X176023368Y-73993475D01*
X176266589Y-74155990D01*
X176536842Y-74267932D01*
X176823740Y-74325000D01*
X177116260Y-74325000D01*
X177403158Y-74267932D01*
X177673411Y-74155990D01*
X177916632Y-73993475D01*
X178123475Y-73786632D01*
X178241100Y-73610594D01*
X178412412Y-73840269D01*
X178628645Y-74035178D01*
X178878748Y-74184157D01*
X179153109Y-74281481D01*
X179383000Y-74160814D01*
X179383000Y-72967000D01*
X179637000Y-72967000D01*
X179637000Y-74160814D01*
X179866891Y-74281481D01*
X180141252Y-74184157D01*
X180391355Y-74035178D01*
X180607588Y-73840269D01*
X180781641Y-73606920D01*
X180906825Y-73344099D01*
X180951476Y-73196890D01*
X180830155Y-72967000D01*
X179637000Y-72967000D01*
X179383000Y-72967000D01*
X179363000Y-72967000D01*
X179363000Y-72713000D01*
X179383000Y-72713000D01*
X179383000Y-72693000D01*
X179637000Y-72693000D01*
X179637000Y-72713000D01*
X180830155Y-72713000D01*
X180951476Y-72483110D01*
X180906825Y-72335901D01*
X180781641Y-72073080D01*
X180607588Y-71839731D01*
X180391355Y-71644822D01*
X180274466Y-71575195D01*
X180456632Y-71453475D01*
X180663475Y-71246632D01*
X180825990Y-71003411D01*
X180937932Y-70733158D01*
X180995000Y-70446260D01*
X180995000Y-70153740D01*
X180937932Y-69866842D01*
X180900212Y-69775777D01*
X180968986Y-69769003D01*
X181112247Y-69725546D01*
X181244276Y-69654974D01*
X181360001Y-69560001D01*
X181383804Y-69530997D01*
X182209802Y-68705000D01*
X182271939Y-68705000D01*
X182471898Y-68665226D01*
X182477001Y-68663112D01*
X182477000Y-86133861D01*
X182471471Y-86190000D01*
X182477000Y-86246139D01*
X182477000Y-86246145D01*
X182493539Y-86414066D01*
X182558897Y-86629522D01*
X182665032Y-86828088D01*
X182807867Y-87002133D01*
X182851482Y-87037927D01*
X187633554Y-91820001D01*
X187321478Y-92132077D01*
X187277868Y-92167867D01*
X187135033Y-92341911D01*
X187124890Y-92360888D01*
X187028898Y-92540477D01*
X186963539Y-92755933D01*
X186941471Y-92980000D01*
X186947001Y-93036148D01*
X186947000Y-94766593D01*
X186885506Y-94799463D01*
X186788815Y-94878815D01*
X186709463Y-94975506D01*
X186650498Y-95085820D01*
X186614188Y-95205518D01*
X186601928Y-95330000D01*
X186601928Y-97030000D01*
X186614188Y-97154482D01*
X186650498Y-97274180D01*
X186709463Y-97384494D01*
X186788815Y-97481185D01*
X186885506Y-97560537D01*
X186995820Y-97619502D01*
X187076466Y-97643966D01*
X186992412Y-97719731D01*
X186818359Y-97953080D01*
X186693175Y-98215901D01*
X186648524Y-98363110D01*
X186769845Y-98593000D01*
X187963000Y-98593000D01*
X187963000Y-98573000D01*
X188217000Y-98573000D01*
X188217000Y-98593000D01*
X189410155Y-98593000D01*
X189531476Y-98363110D01*
X189486825Y-98215901D01*
X189361641Y-97953080D01*
X189187588Y-97719731D01*
X189103534Y-97643966D01*
X189184180Y-97619502D01*
X189294494Y-97560537D01*
X189391185Y-97481185D01*
X189470537Y-97384494D01*
X189529502Y-97274180D01*
X189565812Y-97154482D01*
X189578072Y-97030000D01*
X189578072Y-95330000D01*
X189565812Y-95205518D01*
X189529502Y-95085820D01*
X189470537Y-94975506D01*
X189391185Y-94878815D01*
X189294494Y-94799463D01*
X189233000Y-94766593D01*
X189233000Y-93453445D01*
X189298373Y-93388072D01*
X190180000Y-93388072D01*
X190304482Y-93375812D01*
X190424180Y-93339502D01*
X190534494Y-93280537D01*
X190631185Y-93201185D01*
X190710537Y-93104494D01*
X190759607Y-93012691D01*
X190768262Y-93021346D01*
X190884122Y-92905486D01*
X190971430Y-93162730D01*
X191249112Y-93296625D01*
X191547580Y-93373775D01*
X191855365Y-93391212D01*
X192160637Y-93348270D01*
X192451666Y-93246597D01*
X192608570Y-93162730D01*
X192695879Y-92905484D01*
X191790000Y-91999605D01*
X191775858Y-92013748D01*
X191596253Y-91834143D01*
X191610395Y-91820000D01*
X191596253Y-91805858D01*
X191775858Y-91626253D01*
X191790000Y-91640395D01*
X192695879Y-90734516D01*
X192608570Y-90477270D01*
X192330888Y-90343375D01*
X192032420Y-90266225D01*
X191724635Y-90248788D01*
X191419363Y-90291730D01*
X191128334Y-90393403D01*
X190971430Y-90477270D01*
X190884122Y-90734514D01*
X190768262Y-90618654D01*
X190759607Y-90627309D01*
X190710537Y-90535506D01*
X190631185Y-90438815D01*
X190534494Y-90359463D01*
X190424180Y-90300498D01*
X190304482Y-90264188D01*
X190180000Y-90251928D01*
X189298375Y-90251928D01*
X184763000Y-85716555D01*
X184763000Y-78947801D01*
X184938791Y-79123592D01*
X184895000Y-79343740D01*
X184895000Y-79636260D01*
X184952068Y-79923158D01*
X185064010Y-80193411D01*
X185226525Y-80436632D01*
X185433368Y-80643475D01*
X185676589Y-80805990D01*
X185946842Y-80917932D01*
X186233740Y-80975000D01*
X186526260Y-80975000D01*
X186813158Y-80917932D01*
X187083411Y-80805990D01*
X187326632Y-80643475D01*
X187533475Y-80436632D01*
X187655195Y-80254466D01*
X187724822Y-80371355D01*
X187919731Y-80587588D01*
X188153080Y-80761641D01*
X188415901Y-80886825D01*
X188563110Y-80931476D01*
X188793000Y-80810155D01*
X188793000Y-79617000D01*
X189047000Y-79617000D01*
X189047000Y-80810155D01*
X189276890Y-80931476D01*
X189424099Y-80886825D01*
X189686920Y-80761641D01*
X189920269Y-80587588D01*
X190115178Y-80371355D01*
X190190000Y-80245745D01*
X190264822Y-80371355D01*
X190459731Y-80587588D01*
X190693080Y-80761641D01*
X190955901Y-80886825D01*
X191103110Y-80931476D01*
X191333000Y-80810155D01*
X191333000Y-79617000D01*
X189047000Y-79617000D01*
X188793000Y-79617000D01*
X188773000Y-79617000D01*
X188773000Y-79363000D01*
X188793000Y-79363000D01*
X188793000Y-78169845D01*
X189047000Y-78169845D01*
X189047000Y-79363000D01*
X191333000Y-79363000D01*
X191333000Y-78169845D01*
X191587000Y-78169845D01*
X191587000Y-79363000D01*
X191607000Y-79363000D01*
X191607000Y-79617000D01*
X191587000Y-79617000D01*
X191587000Y-80810155D01*
X191816890Y-80931476D01*
X191964099Y-80886825D01*
X192226920Y-80761641D01*
X192460269Y-80587588D01*
X192655178Y-80371355D01*
X192724805Y-80254466D01*
X192846525Y-80436632D01*
X193053368Y-80643475D01*
X193296589Y-80805990D01*
X193566842Y-80917932D01*
X193853740Y-80975000D01*
X194146260Y-80975000D01*
X194433158Y-80917932D01*
X194703411Y-80805990D01*
X194946632Y-80643475D01*
X195153475Y-80436632D01*
X195270000Y-80262240D01*
X195386525Y-80436632D01*
X195593368Y-80643475D01*
X195836589Y-80805990D01*
X196106842Y-80917932D01*
X196393740Y-80975000D01*
X196686260Y-80975000D01*
X196973158Y-80917932D01*
X197243411Y-80805990D01*
X197486632Y-80643475D01*
X197618487Y-80511620D01*
X197640498Y-80584180D01*
X197699463Y-80694494D01*
X197778815Y-80791185D01*
X197875506Y-80870537D01*
X197985820Y-80929502D01*
X198105518Y-80965812D01*
X198230000Y-80978072D01*
X199930000Y-80978072D01*
X200054482Y-80965812D01*
X200174180Y-80929502D01*
X200284494Y-80870537D01*
X200381185Y-80791185D01*
X200460537Y-80694494D01*
X200519502Y-80584180D01*
X200555812Y-80464482D01*
X200568072Y-80340000D01*
X200568072Y-78640000D01*
X200555812Y-78515518D01*
X200519502Y-78395820D01*
X200460537Y-78285506D01*
X200381185Y-78188815D01*
X200284494Y-78109463D01*
X200174180Y-78050498D01*
X200054482Y-78014188D01*
X199930000Y-78001928D01*
X198230000Y-78001928D01*
X198105518Y-78014188D01*
X197985820Y-78050498D01*
X197875506Y-78109463D01*
X197778815Y-78188815D01*
X197699463Y-78285506D01*
X197640498Y-78395820D01*
X197618487Y-78468380D01*
X197486632Y-78336525D01*
X197243411Y-78174010D01*
X196973158Y-78062068D01*
X196686260Y-78005000D01*
X196393740Y-78005000D01*
X196106842Y-78062068D01*
X195836589Y-78174010D01*
X195593368Y-78336525D01*
X195386525Y-78543368D01*
X195270000Y-78717760D01*
X195153475Y-78543368D01*
X194946632Y-78336525D01*
X194703411Y-78174010D01*
X194433158Y-78062068D01*
X194146260Y-78005000D01*
X193853740Y-78005000D01*
X193566842Y-78062068D01*
X193296589Y-78174010D01*
X193053368Y-78336525D01*
X192846525Y-78543368D01*
X192724805Y-78725534D01*
X192655178Y-78608645D01*
X192460269Y-78392412D01*
X192226920Y-78218359D01*
X191964099Y-78093175D01*
X191816890Y-78048524D01*
X191587000Y-78169845D01*
X191333000Y-78169845D01*
X191103110Y-78048524D01*
X190955901Y-78093175D01*
X190693080Y-78218359D01*
X190459731Y-78392412D01*
X190264822Y-78608645D01*
X190190000Y-78734255D01*
X190115178Y-78608645D01*
X189920269Y-78392412D01*
X189686920Y-78218359D01*
X189424099Y-78093175D01*
X189276890Y-78048524D01*
X189047000Y-78169845D01*
X188793000Y-78169845D01*
X188563110Y-78048524D01*
X188415901Y-78093175D01*
X188153080Y-78218359D01*
X187919731Y-78392412D01*
X187724822Y-78608645D01*
X187655195Y-78725534D01*
X187533475Y-78543368D01*
X187326632Y-78336525D01*
X187083411Y-78174010D01*
X186813158Y-78062068D01*
X186526260Y-78005000D01*
X186233740Y-78005000D01*
X186013592Y-78048791D01*
X185460000Y-77495199D01*
X185460000Y-75788135D01*
X185690582Y-75834000D01*
X185949418Y-75834000D01*
X186203280Y-75783504D01*
X186442412Y-75684452D01*
X186657626Y-75540651D01*
X186840651Y-75357626D01*
X186984452Y-75142412D01*
X187083504Y-74903280D01*
X187090000Y-74870622D01*
X187096496Y-74903280D01*
X187195548Y-75142412D01*
X187339349Y-75357626D01*
X187522374Y-75540651D01*
X187737588Y-75684452D01*
X187976720Y-75783504D01*
X188230582Y-75834000D01*
X188489418Y-75834000D01*
X188743280Y-75783504D01*
X188982412Y-75684452D01*
X189197626Y-75540651D01*
X189380651Y-75357626D01*
X189524452Y-75142412D01*
X189623504Y-74903280D01*
X189630000Y-74870622D01*
X189636496Y-74903280D01*
X189735548Y-75142412D01*
X189879349Y-75357626D01*
X190062374Y-75540651D01*
X190277588Y-75684452D01*
X190516720Y-75783504D01*
X190770582Y-75834000D01*
X191029418Y-75834000D01*
X191283280Y-75783504D01*
X191522412Y-75684452D01*
X191737626Y-75540651D01*
X191920651Y-75357626D01*
X192064452Y-75142412D01*
X192163504Y-74903280D01*
X192170000Y-74870622D01*
X192176496Y-74903280D01*
X192275548Y-75142412D01*
X192419349Y-75357626D01*
X192602374Y-75540651D01*
X192817588Y-75684452D01*
X193056720Y-75783504D01*
X193310582Y-75834000D01*
X193569418Y-75834000D01*
X193823280Y-75783504D01*
X194062412Y-75684452D01*
X194277626Y-75540651D01*
X194460651Y-75357626D01*
X194604452Y-75142412D01*
X194703504Y-74903280D01*
X194710000Y-74870622D01*
X194716496Y-74903280D01*
X194815548Y-75142412D01*
X194959349Y-75357626D01*
X195142374Y-75540651D01*
X195357588Y-75684452D01*
X195596720Y-75783504D01*
X195850582Y-75834000D01*
X196109418Y-75834000D01*
X196363280Y-75783504D01*
X196602412Y-75684452D01*
X196817626Y-75540651D01*
X197000651Y-75357626D01*
X197144452Y-75142412D01*
X197243504Y-74903280D01*
X197250000Y-74870622D01*
X197256496Y-74903280D01*
X197355548Y-75142412D01*
X197499349Y-75357626D01*
X197682374Y-75540651D01*
X197897588Y-75684452D01*
X198136720Y-75783504D01*
X198390582Y-75834000D01*
X198649418Y-75834000D01*
X198903280Y-75783504D01*
X199142412Y-75684452D01*
X199357626Y-75540651D01*
X199540651Y-75357626D01*
X199684452Y-75142412D01*
X199783504Y-74903280D01*
X199790000Y-74870622D01*
X199796496Y-74903280D01*
X199895548Y-75142412D01*
X200039349Y-75357626D01*
X200222374Y-75540651D01*
X200437588Y-75684452D01*
X200676720Y-75783504D01*
X200930582Y-75834000D01*
X201189418Y-75834000D01*
X201443280Y-75783504D01*
X201682412Y-75684452D01*
X201897626Y-75540651D01*
X202012017Y-75426260D01*
X202873345Y-75426260D01*
X202930257Y-75657888D01*
X203165116Y-75766684D01*
X203416688Y-75827571D01*
X203675305Y-75838208D01*
X203931029Y-75798188D01*
X204174030Y-75709047D01*
X204269743Y-75657888D01*
X204326655Y-75426260D01*
X203600000Y-74699605D01*
X202873345Y-75426260D01*
X202012017Y-75426260D01*
X202080651Y-75357626D01*
X202224452Y-75142412D01*
X202323504Y-74903280D01*
X202329648Y-74872391D01*
X202410953Y-75094030D01*
X202462112Y-75189743D01*
X202693740Y-75246655D01*
X203420395Y-74520000D01*
X203406253Y-74505858D01*
X203585858Y-74326253D01*
X203600000Y-74340395D01*
X203614143Y-74326253D01*
X203793748Y-74505858D01*
X203779605Y-74520000D01*
X204506260Y-75246655D01*
X204737888Y-75189743D01*
X204846684Y-74954884D01*
X204868682Y-74863994D01*
X204876496Y-74903280D01*
X204975548Y-75142412D01*
X205119349Y-75357626D01*
X205302374Y-75540651D01*
X205517588Y-75684452D01*
X205756720Y-75783504D01*
X206010582Y-75834000D01*
X206269418Y-75834000D01*
X206523280Y-75783504D01*
X206762412Y-75684452D01*
X206977626Y-75540651D01*
X207160651Y-75357626D01*
X207304452Y-75142412D01*
X207403504Y-74903280D01*
X207410000Y-74870622D01*
X207416496Y-74903280D01*
X207515548Y-75142412D01*
X207659349Y-75357626D01*
X207842374Y-75540651D01*
X208057588Y-75684452D01*
X208296720Y-75783504D01*
X208550582Y-75834000D01*
X208809418Y-75834000D01*
X209063280Y-75783504D01*
X209302412Y-75684452D01*
X209517626Y-75540651D01*
X209700651Y-75357626D01*
X209844452Y-75142412D01*
X209943504Y-74903280D01*
X209950000Y-74870622D01*
X209956496Y-74903280D01*
X210055548Y-75142412D01*
X210199349Y-75357626D01*
X210382374Y-75540651D01*
X210597588Y-75684452D01*
X210836720Y-75783504D01*
X211090582Y-75834000D01*
X211349418Y-75834000D01*
X211603280Y-75783504D01*
X211842412Y-75684452D01*
X212057626Y-75540651D01*
X212240651Y-75357626D01*
X212384452Y-75142412D01*
X212483504Y-74903280D01*
X212490000Y-74870622D01*
X212496496Y-74903280D01*
X212595548Y-75142412D01*
X212739349Y-75357626D01*
X212922374Y-75540651D01*
X213137588Y-75684452D01*
X213376720Y-75783504D01*
X213630582Y-75834000D01*
X213889418Y-75834000D01*
X214143280Y-75783504D01*
X214382412Y-75684452D01*
X214597626Y-75540651D01*
X214780651Y-75357626D01*
X214924452Y-75142412D01*
X215023504Y-74903280D01*
X215030000Y-74870622D01*
X215036496Y-74903280D01*
X215135548Y-75142412D01*
X215279349Y-75357626D01*
X215462374Y-75540651D01*
X215677588Y-75684452D01*
X215916720Y-75783504D01*
X216170582Y-75834000D01*
X216429418Y-75834000D01*
X216683280Y-75783504D01*
X216922412Y-75684452D01*
X217137626Y-75540651D01*
X217320651Y-75357626D01*
X217464452Y-75142412D01*
X217563504Y-74903280D01*
X217570000Y-74870622D01*
X217576496Y-74903280D01*
X217675548Y-75142412D01*
X217819349Y-75357626D01*
X218002374Y-75540651D01*
X218217588Y-75684452D01*
X218456720Y-75783504D01*
X218710582Y-75834000D01*
X218969418Y-75834000D01*
X219223280Y-75783504D01*
X219462412Y-75684452D01*
X219677626Y-75540651D01*
X219860651Y-75357626D01*
X220004452Y-75142412D01*
X220103504Y-74903280D01*
X220110966Y-74865767D01*
X220620000Y-75374802D01*
X220620000Y-75576289D01*
X220576063Y-75620226D01*
X220462795Y-75789744D01*
X220384774Y-75978102D01*
X220345000Y-76178061D01*
X220345000Y-76381939D01*
X220384774Y-76581898D01*
X220462795Y-76770256D01*
X220576063Y-76939774D01*
X220720226Y-77083937D01*
X220889744Y-77197205D01*
X221078102Y-77275226D01*
X221278061Y-77315000D01*
X221481939Y-77315000D01*
X221681898Y-77275226D01*
X221870256Y-77197205D01*
X222039774Y-77083937D01*
X222183937Y-76939774D01*
X222297205Y-76770256D01*
X222375226Y-76581898D01*
X222415000Y-76381939D01*
X222415000Y-76178061D01*
X222375226Y-75978102D01*
X222297205Y-75789744D01*
X222183937Y-75620226D01*
X222140000Y-75576289D01*
X222140000Y-75097323D01*
X222143676Y-75060000D01*
X222140000Y-75022677D01*
X222140000Y-75022667D01*
X222129003Y-74911014D01*
X222085546Y-74767753D01*
X222014974Y-74635724D01*
X221920001Y-74519999D01*
X221891004Y-74496202D01*
X219743804Y-72349003D01*
X219720001Y-72319999D01*
X219604276Y-72225026D01*
X219472247Y-72154454D01*
X219328986Y-72110997D01*
X219217333Y-72100000D01*
X219217322Y-72100000D01*
X219180000Y-72096324D01*
X219142678Y-72100000D01*
X205740723Y-72100000D01*
X206983506Y-70857217D01*
X207060226Y-70933937D01*
X207229744Y-71047205D01*
X207418102Y-71125226D01*
X207618061Y-71165000D01*
X207821939Y-71165000D01*
X208021898Y-71125226D01*
X208210256Y-71047205D01*
X208379774Y-70933937D01*
X208423711Y-70890000D01*
X212732678Y-70890000D01*
X212770000Y-70893676D01*
X212807322Y-70890000D01*
X212807333Y-70890000D01*
X212918986Y-70879003D01*
X213062247Y-70835546D01*
X213194276Y-70764974D01*
X213310001Y-70670001D01*
X213333804Y-70640997D01*
X216079015Y-67895786D01*
X216170582Y-67914000D01*
X216429418Y-67914000D01*
X216683280Y-67863504D01*
X216922412Y-67764452D01*
X217137626Y-67620651D01*
X217320651Y-67437626D01*
X217464452Y-67222412D01*
X217522928Y-67081239D01*
X217522928Y-67279000D01*
X217535188Y-67403482D01*
X217571498Y-67523180D01*
X217630463Y-67633494D01*
X217709815Y-67730185D01*
X217806506Y-67809537D01*
X217916820Y-67868502D01*
X218036518Y-67904812D01*
X218161000Y-67917072D01*
X219519000Y-67917072D01*
X219643482Y-67904812D01*
X219763180Y-67868502D01*
X219873494Y-67809537D01*
X219970185Y-67730185D01*
X220049537Y-67633494D01*
X220108502Y-67523180D01*
X220144812Y-67403482D01*
X220157072Y-67279000D01*
X220157072Y-65921000D01*
X220144812Y-65796518D01*
X220108502Y-65676820D01*
X220049537Y-65566506D01*
X219970185Y-65469815D01*
X219873494Y-65390463D01*
X219763180Y-65331498D01*
X219643482Y-65295188D01*
X219519000Y-65282928D01*
X218597730Y-65282928D01*
X214945232Y-61630430D01*
X233668330Y-61630430D01*
X233668330Y-61969570D01*
X233734493Y-62302192D01*
X233864276Y-62615516D01*
X234052692Y-62897500D01*
X234292500Y-63137308D01*
X234574484Y-63325724D01*
X234887808Y-63455507D01*
X235220430Y-63521670D01*
X235559570Y-63521670D01*
X235892192Y-63455507D01*
X236205516Y-63325724D01*
X236487500Y-63137308D01*
X236727308Y-62897500D01*
X236915724Y-62615516D01*
X237045507Y-62302192D01*
X237111670Y-61969570D01*
X237111670Y-61630430D01*
X237045507Y-61297808D01*
X236915724Y-60984484D01*
X236727308Y-60702500D01*
X236487500Y-60462692D01*
X236205516Y-60274276D01*
X235892192Y-60144493D01*
X235559570Y-60078330D01*
X235220430Y-60078330D01*
X234887808Y-60144493D01*
X234574484Y-60274276D01*
X234292500Y-60462692D01*
X234052692Y-60702500D01*
X233864276Y-60984484D01*
X233734493Y-61297808D01*
X233668330Y-61630430D01*
X214945232Y-61630430D01*
X214773804Y-61459003D01*
X214750001Y-61429999D01*
X214634276Y-61335026D01*
X214502247Y-61264454D01*
X214358986Y-61220997D01*
X214247333Y-61210000D01*
X214247322Y-61210000D01*
X214210000Y-61206324D01*
X214172678Y-61210000D01*
X212524126Y-61210000D01*
X212480189Y-61166063D01*
X212310671Y-61052795D01*
X212122313Y-60974774D01*
X211922354Y-60935000D01*
X211718476Y-60935000D01*
X211518517Y-60974774D01*
X211330159Y-61052795D01*
X211160641Y-61166063D01*
X211016478Y-61310226D01*
X210903210Y-61479744D01*
X210825189Y-61668102D01*
X210785415Y-61868061D01*
X210785415Y-62071939D01*
X210825189Y-62271898D01*
X210903210Y-62460256D01*
X211016478Y-62629774D01*
X211160641Y-62773937D01*
X211330159Y-62887205D01*
X211518517Y-62965226D01*
X211718476Y-63005000D01*
X211922354Y-63005000D01*
X212122313Y-62965226D01*
X212310671Y-62887205D01*
X212480189Y-62773937D01*
X212524126Y-62730000D01*
X212529276Y-62730000D01*
X211026717Y-64232560D01*
X210957205Y-64064744D01*
X210843937Y-63895226D01*
X210800000Y-63851289D01*
X210800000Y-63808711D01*
X210843937Y-63764774D01*
X210957205Y-63595256D01*
X211035226Y-63406898D01*
X211075000Y-63206939D01*
X211075000Y-63003061D01*
X211035226Y-62803102D01*
X210957205Y-62614744D01*
X210843937Y-62445226D01*
X210699774Y-62301063D01*
X210530256Y-62187795D01*
X210341898Y-62109774D01*
X210141939Y-62070000D01*
X209938061Y-62070000D01*
X209738102Y-62109774D01*
X209549744Y-62187795D01*
X209440000Y-62261123D01*
X209440000Y-60057322D01*
X209443676Y-60019999D01*
X209440000Y-59982676D01*
X209440000Y-59982667D01*
X209429003Y-59871014D01*
X209385546Y-59727753D01*
X209314974Y-59595724D01*
X209301811Y-59579685D01*
X209243799Y-59508996D01*
X209243795Y-59508992D01*
X209220001Y-59479999D01*
X209191008Y-59456205D01*
X208699803Y-58965000D01*
X208889365Y-58965000D01*
X209162740Y-58910623D01*
X209420254Y-58803957D01*
X209652010Y-58649103D01*
X209849103Y-58452010D01*
X210003957Y-58220254D01*
X210020000Y-58181523D01*
X210036043Y-58220254D01*
X210190897Y-58452010D01*
X210387990Y-58649103D01*
X210619746Y-58803957D01*
X210877260Y-58910623D01*
X211150635Y-58965000D01*
X211429365Y-58965000D01*
X211702740Y-58910623D01*
X211960254Y-58803957D01*
X212192010Y-58649103D01*
X212389103Y-58452010D01*
X212543957Y-58220254D01*
X212650623Y-57962740D01*
X212705000Y-57689365D01*
X212705000Y-57410635D01*
X212650623Y-57137260D01*
X212543957Y-56879746D01*
X212389103Y-56647990D01*
X212192010Y-56450897D01*
X211960254Y-56296043D01*
X211702740Y-56189377D01*
X211429365Y-56135000D01*
X211150635Y-56135000D01*
X210877260Y-56189377D01*
X210619746Y-56296043D01*
X210387990Y-56450897D01*
X210190897Y-56647990D01*
X210036043Y-56879746D01*
X210020000Y-56918477D01*
X210003957Y-56879746D01*
X209849103Y-56647990D01*
X209652010Y-56450897D01*
X209420254Y-56296043D01*
X209162740Y-56189377D01*
X208889365Y-56135000D01*
X208610635Y-56135000D01*
X208337260Y-56189377D01*
X208079746Y-56296043D01*
X207847990Y-56450897D01*
X207650897Y-56647990D01*
X207496043Y-56879746D01*
X207480000Y-56918477D01*
X207463957Y-56879746D01*
X207309103Y-56647990D01*
X207112010Y-56450897D01*
X206880254Y-56296043D01*
X206622740Y-56189377D01*
X206349365Y-56135000D01*
X206070635Y-56135000D01*
X205797260Y-56189377D01*
X205539746Y-56296043D01*
X205307990Y-56450897D01*
X205110897Y-56647990D01*
X204956043Y-56879746D01*
X204940000Y-56918477D01*
X204923957Y-56879746D01*
X204769103Y-56647990D01*
X204572010Y-56450897D01*
X204559000Y-56442204D01*
X204559000Y-55768235D01*
X209347743Y-50979493D01*
X209381659Y-50951659D01*
X209492753Y-50816291D01*
X209575303Y-50661851D01*
X209626136Y-50494274D01*
X209639000Y-50363667D01*
X209639000Y-50363660D01*
X209643300Y-50320000D01*
X209639000Y-50276340D01*
X209639000Y-49950000D01*
X217151928Y-49950000D01*
X217151928Y-51650000D01*
X217164188Y-51774482D01*
X217200498Y-51894180D01*
X217259463Y-52004494D01*
X217338815Y-52101185D01*
X217435506Y-52180537D01*
X217545820Y-52239502D01*
X217618380Y-52261513D01*
X217486525Y-52393368D01*
X217324010Y-52636589D01*
X217212068Y-52906842D01*
X217155000Y-53193740D01*
X217155000Y-53486260D01*
X217212068Y-53773158D01*
X217324010Y-54043411D01*
X217486525Y-54286632D01*
X217693368Y-54493475D01*
X217936589Y-54655990D01*
X218206842Y-54767932D01*
X218493740Y-54825000D01*
X218786260Y-54825000D01*
X219073158Y-54767932D01*
X219343411Y-54655990D01*
X219586632Y-54493475D01*
X219793475Y-54286632D01*
X219955990Y-54043411D01*
X220067932Y-53773158D01*
X220125000Y-53486260D01*
X220125000Y-53193740D01*
X220067932Y-52906842D01*
X219955990Y-52636589D01*
X219793475Y-52393368D01*
X219661620Y-52261513D01*
X219734180Y-52239502D01*
X219844494Y-52180537D01*
X219941185Y-52101185D01*
X220020537Y-52004494D01*
X220079502Y-51894180D01*
X220115812Y-51774482D01*
X220128072Y-51650000D01*
X220128072Y-49950000D01*
X220115812Y-49825518D01*
X220079502Y-49705820D01*
X220020537Y-49595506D01*
X219941185Y-49498815D01*
X219844494Y-49419463D01*
X219734180Y-49360498D01*
X219614482Y-49324188D01*
X219490000Y-49311928D01*
X217790000Y-49311928D01*
X217665518Y-49324188D01*
X217545820Y-49360498D01*
X217435506Y-49419463D01*
X217338815Y-49498815D01*
X217259463Y-49595506D01*
X217200498Y-49705820D01*
X217164188Y-49825518D01*
X217151928Y-49950000D01*
X209639000Y-49950000D01*
X209639000Y-45957796D01*
X209652010Y-45949103D01*
X209849103Y-45752010D01*
X209879469Y-45706564D01*
X209884188Y-45754482D01*
X209920498Y-45874180D01*
X209979463Y-45984494D01*
X210058815Y-46081185D01*
X210155506Y-46160537D01*
X210265820Y-46219502D01*
X210385518Y-46255812D01*
X210510000Y-46268072D01*
X211004250Y-46265000D01*
X211163000Y-46106250D01*
X211163000Y-44977000D01*
X211417000Y-44977000D01*
X211417000Y-46106250D01*
X211575750Y-46265000D01*
X212070000Y-46268072D01*
X212194482Y-46255812D01*
X212314180Y-46219502D01*
X212424494Y-46160537D01*
X212521185Y-46081185D01*
X212600537Y-45984494D01*
X212659502Y-45874180D01*
X212695812Y-45754482D01*
X212708072Y-45630000D01*
X212705000Y-45135750D01*
X212546250Y-44977000D01*
X211417000Y-44977000D01*
X211163000Y-44977000D01*
X211143000Y-44977000D01*
X211143000Y-44723000D01*
X211163000Y-44723000D01*
X211163000Y-43593750D01*
X211417000Y-43593750D01*
X211417000Y-44723000D01*
X212546250Y-44723000D01*
X212705000Y-44564250D01*
X212708072Y-44070000D01*
X212695812Y-43945518D01*
X212659502Y-43825820D01*
X212600537Y-43715506D01*
X212522511Y-43620430D01*
X233668330Y-43620430D01*
X233668330Y-43959570D01*
X233734493Y-44292192D01*
X233864276Y-44605516D01*
X234052692Y-44887500D01*
X234292500Y-45127308D01*
X234574484Y-45315724D01*
X234887808Y-45445507D01*
X235220430Y-45511670D01*
X235559570Y-45511670D01*
X235892192Y-45445507D01*
X236205516Y-45315724D01*
X236487500Y-45127308D01*
X236727308Y-44887500D01*
X236915724Y-44605516D01*
X237045507Y-44292192D01*
X237111670Y-43959570D01*
X237111670Y-43620430D01*
X237045507Y-43287808D01*
X236915724Y-42974484D01*
X236727308Y-42692500D01*
X236487500Y-42452692D01*
X236205516Y-42264276D01*
X235892192Y-42134493D01*
X235559570Y-42068330D01*
X235220430Y-42068330D01*
X234887808Y-42134493D01*
X234574484Y-42264276D01*
X234292500Y-42452692D01*
X234052692Y-42692500D01*
X233864276Y-42974484D01*
X233734493Y-43287808D01*
X233668330Y-43620430D01*
X212522511Y-43620430D01*
X212521185Y-43618815D01*
X212424494Y-43539463D01*
X212314180Y-43480498D01*
X212194482Y-43444188D01*
X212070000Y-43431928D01*
X211575750Y-43435000D01*
X211417000Y-43593750D01*
X211163000Y-43593750D01*
X211004250Y-43435000D01*
X210510000Y-43431928D01*
X210385518Y-43444188D01*
X210265820Y-43480498D01*
X210155506Y-43539463D01*
X210058815Y-43618815D01*
X209979463Y-43715506D01*
X209920498Y-43825820D01*
X209884188Y-43945518D01*
X209879469Y-43993436D01*
X209849103Y-43947990D01*
X209652010Y-43750897D01*
X209420254Y-43596043D01*
X209162740Y-43489377D01*
X208889365Y-43435000D01*
X208610635Y-43435000D01*
X208337260Y-43489377D01*
X208079746Y-43596043D01*
X207847990Y-43750897D01*
X207650897Y-43947990D01*
X207496043Y-44179746D01*
X207480000Y-44218477D01*
X207463957Y-44179746D01*
X207309103Y-43947990D01*
X207112010Y-43750897D01*
X206880254Y-43596043D01*
X206622740Y-43489377D01*
X206349365Y-43435000D01*
X206070635Y-43435000D01*
X205797260Y-43489377D01*
X205539746Y-43596043D01*
X205307990Y-43750897D01*
X205110897Y-43947990D01*
X204956043Y-44179746D01*
X204940000Y-44218477D01*
X204923957Y-44179746D01*
X204769103Y-43947990D01*
X204572010Y-43750897D01*
X204340254Y-43596043D01*
X204082740Y-43489377D01*
X203809365Y-43435000D01*
X203530635Y-43435000D01*
X203257260Y-43489377D01*
X202999746Y-43596043D01*
X202767990Y-43750897D01*
X202570897Y-43947990D01*
X202416043Y-44179746D01*
X202400000Y-44218477D01*
X202383957Y-44179746D01*
X202229103Y-43947990D01*
X202032010Y-43750897D01*
X201800254Y-43596043D01*
X201542740Y-43489377D01*
X201269365Y-43435000D01*
X200990635Y-43435000D01*
X200717260Y-43489377D01*
X200459746Y-43596043D01*
X200227990Y-43750897D01*
X200030897Y-43947990D01*
X199876043Y-44179746D01*
X199860000Y-44218477D01*
X199843957Y-44179746D01*
X199689103Y-43947990D01*
X199492010Y-43750897D01*
X199260254Y-43596043D01*
X199002740Y-43489377D01*
X198729365Y-43435000D01*
X198450635Y-43435000D01*
X198177260Y-43489377D01*
X197919746Y-43596043D01*
X197687990Y-43750897D01*
X197490897Y-43947990D01*
X197336043Y-44179746D01*
X197320000Y-44218477D01*
X197303957Y-44179746D01*
X197149103Y-43947990D01*
X196952010Y-43750897D01*
X196720254Y-43596043D01*
X196462740Y-43489377D01*
X196189365Y-43435000D01*
X195910635Y-43435000D01*
X195637260Y-43489377D01*
X195379746Y-43596043D01*
X195147990Y-43750897D01*
X194950897Y-43947990D01*
X194920531Y-43993436D01*
X194915812Y-43945518D01*
X194879502Y-43825820D01*
X194820537Y-43715506D01*
X194741185Y-43618815D01*
X194644494Y-43539463D01*
X194534180Y-43480498D01*
X194414482Y-43444188D01*
X194290000Y-43431928D01*
X193795750Y-43435000D01*
X193637000Y-43593750D01*
X193637000Y-44723000D01*
X193657000Y-44723000D01*
X193657000Y-44977000D01*
X193637000Y-44977000D01*
X193637000Y-46106250D01*
X193795750Y-46265000D01*
X194290000Y-46268072D01*
X194414482Y-46255812D01*
X194534180Y-46219502D01*
X194644494Y-46160537D01*
X194741185Y-46081185D01*
X194820537Y-45984494D01*
X194879502Y-45874180D01*
X194907001Y-45783529D01*
X194907000Y-48016554D01*
X182851478Y-60072077D01*
X182807868Y-60107867D01*
X182772078Y-60151477D01*
X182772076Y-60151479D01*
X182757709Y-60168985D01*
X182665033Y-60281911D01*
X182613805Y-60377753D01*
X182558898Y-60480477D01*
X182493539Y-60695933D01*
X182471471Y-60920000D01*
X182477001Y-60976149D01*
X182477001Y-62515172D01*
X182451898Y-62504774D01*
X182251939Y-62465000D01*
X182048061Y-62465000D01*
X181848102Y-62504774D01*
X181659744Y-62582795D01*
X181490226Y-62696063D01*
X181346063Y-62840226D01*
X181232795Y-63009744D01*
X181154774Y-63198102D01*
X181115000Y-63398061D01*
X181115000Y-63601939D01*
X181154774Y-63801898D01*
X181232795Y-63990256D01*
X181346063Y-64159774D01*
X181410001Y-64223712D01*
X181410000Y-66966289D01*
X181366063Y-67010226D01*
X181252795Y-67179744D01*
X181174774Y-67368102D01*
X181135000Y-67568061D01*
X181135000Y-67630198D01*
X180995000Y-67770198D01*
X180995000Y-67613740D01*
X180937932Y-67326842D01*
X180825990Y-67056589D01*
X180663475Y-66813368D01*
X180456632Y-66606525D01*
X180213411Y-66444010D01*
X179943158Y-66332068D01*
X179656260Y-66275000D01*
X179363740Y-66275000D01*
X179076842Y-66332068D01*
X178806589Y-66444010D01*
X178563368Y-66606525D01*
X178431513Y-66738380D01*
X178409502Y-66665820D01*
X178350537Y-66555506D01*
X178271185Y-66458815D01*
X178174494Y-66379463D01*
X178064180Y-66320498D01*
X177944482Y-66284188D01*
X177820000Y-66271928D01*
X176120000Y-66271928D01*
X175995518Y-66284188D01*
X175875820Y-66320498D01*
X175765506Y-66379463D01*
X175668815Y-66458815D01*
X175589463Y-66555506D01*
X175530498Y-66665820D01*
X175494188Y-66785518D01*
X175481928Y-66910000D01*
X158125000Y-66910000D01*
X158125000Y-61620430D01*
X167668330Y-61620430D01*
X167668330Y-61959570D01*
X167734493Y-62292192D01*
X167864276Y-62605516D01*
X168052692Y-62887500D01*
X168292500Y-63127308D01*
X168574484Y-63315724D01*
X168887808Y-63445507D01*
X169220430Y-63511670D01*
X169559570Y-63511670D01*
X169892192Y-63445507D01*
X170205516Y-63315724D01*
X170487500Y-63127308D01*
X170727308Y-62887500D01*
X170915724Y-62605516D01*
X171045507Y-62292192D01*
X171111670Y-61959570D01*
X171111670Y-61620430D01*
X171045507Y-61287808D01*
X170915724Y-60974484D01*
X170727308Y-60692500D01*
X170487500Y-60452692D01*
X170205516Y-60264276D01*
X169892192Y-60134493D01*
X169559570Y-60068330D01*
X169220430Y-60068330D01*
X168887808Y-60134493D01*
X168574484Y-60264276D01*
X168292500Y-60452692D01*
X168052692Y-60692500D01*
X167864276Y-60974484D01*
X167734493Y-61287808D01*
X167668330Y-61620430D01*
X158125000Y-61620430D01*
X158125000Y-49990000D01*
X184671928Y-49990000D01*
X184671928Y-51690000D01*
X184684188Y-51814482D01*
X184720498Y-51934180D01*
X184779463Y-52044494D01*
X184858815Y-52141185D01*
X184955506Y-52220537D01*
X185065820Y-52279502D01*
X185138380Y-52301513D01*
X185006525Y-52433368D01*
X184844010Y-52676589D01*
X184732068Y-52946842D01*
X184675000Y-53233740D01*
X184675000Y-53526260D01*
X184732068Y-53813158D01*
X184844010Y-54083411D01*
X185006525Y-54326632D01*
X185213368Y-54533475D01*
X185456589Y-54695990D01*
X185726842Y-54807932D01*
X186013740Y-54865000D01*
X186306260Y-54865000D01*
X186593158Y-54807932D01*
X186863411Y-54695990D01*
X187106632Y-54533475D01*
X187313475Y-54326632D01*
X187475990Y-54083411D01*
X187587932Y-53813158D01*
X187645000Y-53526260D01*
X187645000Y-53233740D01*
X187587932Y-52946842D01*
X187475990Y-52676589D01*
X187313475Y-52433368D01*
X187181620Y-52301513D01*
X187254180Y-52279502D01*
X187364494Y-52220537D01*
X187461185Y-52141185D01*
X187540537Y-52044494D01*
X187599502Y-51934180D01*
X187635812Y-51814482D01*
X187648072Y-51690000D01*
X187648072Y-49990000D01*
X187635812Y-49865518D01*
X187599502Y-49745820D01*
X187540537Y-49635506D01*
X187461185Y-49538815D01*
X187364494Y-49459463D01*
X187254180Y-49400498D01*
X187134482Y-49364188D01*
X187010000Y-49351928D01*
X185310000Y-49351928D01*
X185185518Y-49364188D01*
X185065820Y-49400498D01*
X184955506Y-49459463D01*
X184858815Y-49538815D01*
X184779463Y-49635506D01*
X184720498Y-49745820D01*
X184684188Y-49865518D01*
X184671928Y-49990000D01*
X158125000Y-49990000D01*
X158125000Y-45952731D01*
X158153803Y-45630000D01*
X192091928Y-45630000D01*
X192104188Y-45754482D01*
X192140498Y-45874180D01*
X192199463Y-45984494D01*
X192278815Y-46081185D01*
X192375506Y-46160537D01*
X192485820Y-46219502D01*
X192605518Y-46255812D01*
X192730000Y-46268072D01*
X193224250Y-46265000D01*
X193383000Y-46106250D01*
X193383000Y-44977000D01*
X192253750Y-44977000D01*
X192095000Y-45135750D01*
X192091928Y-45630000D01*
X158153803Y-45630000D01*
X158195281Y-45165253D01*
X158395231Y-44434357D01*
X158721450Y-43750425D01*
X158814860Y-43620430D01*
X167668330Y-43620430D01*
X167668330Y-43959570D01*
X167734493Y-44292192D01*
X167864276Y-44605516D01*
X168052692Y-44887500D01*
X168292500Y-45127308D01*
X168574484Y-45315724D01*
X168887808Y-45445507D01*
X169220430Y-45511670D01*
X169559570Y-45511670D01*
X169892192Y-45445507D01*
X170205516Y-45315724D01*
X170487500Y-45127308D01*
X170727308Y-44887500D01*
X170915724Y-44605516D01*
X171045507Y-44292192D01*
X171089703Y-44070000D01*
X192091928Y-44070000D01*
X192095000Y-44564250D01*
X192253750Y-44723000D01*
X193383000Y-44723000D01*
X193383000Y-43593750D01*
X193224250Y-43435000D01*
X192730000Y-43431928D01*
X192605518Y-43444188D01*
X192485820Y-43480498D01*
X192375506Y-43539463D01*
X192278815Y-43618815D01*
X192199463Y-43715506D01*
X192140498Y-43825820D01*
X192104188Y-43945518D01*
X192091928Y-44070000D01*
X171089703Y-44070000D01*
X171111670Y-43959570D01*
X171111670Y-43620430D01*
X171045507Y-43287808D01*
X170915724Y-42974484D01*
X170727308Y-42692500D01*
X170487500Y-42452692D01*
X170205516Y-42264276D01*
X169892192Y-42134493D01*
X169559570Y-42068330D01*
X169220430Y-42068330D01*
X168887808Y-42134493D01*
X168574484Y-42264276D01*
X168292500Y-42452692D01*
X168052692Y-42692500D01*
X167864276Y-42974484D01*
X167734493Y-43287808D01*
X167668330Y-43620430D01*
X158814860Y-43620430D01*
X159163626Y-43135072D01*
X159707789Y-42607741D01*
X160336726Y-42185114D01*
X161030570Y-41880537D01*
X161773039Y-41702285D01*
X162416949Y-41655000D01*
X242357258Y-41655000D01*
X243144747Y-41725282D01*
G36*
X201253748Y-66585858D02*
G01*
X201239605Y-66600000D01*
X201966260Y-67326655D01*
X202197888Y-67269743D01*
X202306684Y-67034884D01*
X202328682Y-66943994D01*
X202336496Y-66983280D01*
X202435548Y-67222412D01*
X202579349Y-67437626D01*
X202762374Y-67620651D01*
X202977588Y-67764452D01*
X203216720Y-67863504D01*
X203470582Y-67914000D01*
X203729418Y-67914000D01*
X203983280Y-67863504D01*
X204222412Y-67764452D01*
X204437626Y-67620651D01*
X204620651Y-67437626D01*
X204764452Y-67222412D01*
X204863504Y-66983280D01*
X204870000Y-66950622D01*
X204876496Y-66983280D01*
X204975548Y-67222412D01*
X205119349Y-67437626D01*
X205302374Y-67620651D01*
X205517588Y-67764452D01*
X205756720Y-67863504D01*
X206010582Y-67914000D01*
X206269418Y-67914000D01*
X206523280Y-67863504D01*
X206762412Y-67764452D01*
X206977626Y-67620651D01*
X207160651Y-67437626D01*
X207304452Y-67222412D01*
X207403504Y-66983280D01*
X207410000Y-66950622D01*
X207416496Y-66983280D01*
X207515548Y-67222412D01*
X207659349Y-67437626D01*
X207842374Y-67620651D01*
X207979107Y-67712013D01*
X207337415Y-68353704D01*
X207290082Y-68306371D01*
X207120564Y-68193103D01*
X206932206Y-68115082D01*
X206732247Y-68075308D01*
X206528369Y-68075308D01*
X206328410Y-68115082D01*
X206140052Y-68193103D01*
X205970534Y-68306371D01*
X205926597Y-68350308D01*
X200344082Y-68350308D01*
X200303937Y-68290226D01*
X200159774Y-68146063D01*
X199990256Y-68032795D01*
X199801898Y-67954774D01*
X199601939Y-67915000D01*
X199398061Y-67915000D01*
X199198102Y-67954774D01*
X199009744Y-68032795D01*
X198840226Y-68146063D01*
X198696063Y-68290226D01*
X198582795Y-68459744D01*
X198504774Y-68648102D01*
X198465000Y-68848061D01*
X198465000Y-69051939D01*
X198504774Y-69251898D01*
X198582795Y-69440256D01*
X198624817Y-69503146D01*
X198564774Y-69648102D01*
X198525000Y-69848061D01*
X198525000Y-70051939D01*
X198564774Y-70251898D01*
X198642795Y-70440256D01*
X198756063Y-70609774D01*
X198900226Y-70753937D01*
X199069744Y-70867205D01*
X199258102Y-70945226D01*
X199458061Y-70985000D01*
X199661939Y-70985000D01*
X199861898Y-70945226D01*
X200050256Y-70867205D01*
X200219774Y-70753937D01*
X200263711Y-70710000D01*
X204956289Y-70710000D01*
X204968705Y-70722416D01*
X204041131Y-71649990D01*
X185447335Y-71649990D01*
X185410010Y-71646314D01*
X185372685Y-71649990D01*
X185372677Y-71649990D01*
X185261024Y-71660987D01*
X185117763Y-71704444D01*
X184985734Y-71775016D01*
X184870009Y-71869989D01*
X184846211Y-71898988D01*
X184763000Y-71982198D01*
X184763000Y-67383226D01*
X184799349Y-67437626D01*
X184982374Y-67620651D01*
X185197588Y-67764452D01*
X185436720Y-67863504D01*
X185690582Y-67914000D01*
X185949418Y-67914000D01*
X186203280Y-67863504D01*
X186442412Y-67764452D01*
X186657626Y-67620651D01*
X186840651Y-67437626D01*
X186984452Y-67222412D01*
X187083504Y-66983280D01*
X187090000Y-66950622D01*
X187096496Y-66983280D01*
X187195548Y-67222412D01*
X187339349Y-67437626D01*
X187522374Y-67620651D01*
X187737588Y-67764452D01*
X187976720Y-67863504D01*
X188230582Y-67914000D01*
X188489418Y-67914000D01*
X188743280Y-67863504D01*
X188982412Y-67764452D01*
X189197626Y-67620651D01*
X189380651Y-67437626D01*
X189524452Y-67222412D01*
X189623504Y-66983280D01*
X189630000Y-66950622D01*
X189636496Y-66983280D01*
X189735548Y-67222412D01*
X189879349Y-67437626D01*
X190062374Y-67620651D01*
X190277588Y-67764452D01*
X190516720Y-67863504D01*
X190770582Y-67914000D01*
X191029418Y-67914000D01*
X191283280Y-67863504D01*
X191522412Y-67764452D01*
X191737626Y-67620651D01*
X191920651Y-67437626D01*
X191971911Y-67360909D01*
X192000000Y-67363676D01*
X192037322Y-67360000D01*
X192037333Y-67360000D01*
X192148986Y-67349003D01*
X192292247Y-67305546D01*
X192320873Y-67290245D01*
X192419349Y-67437626D01*
X192602374Y-67620651D01*
X192817588Y-67764452D01*
X193056720Y-67863504D01*
X193310582Y-67914000D01*
X193569418Y-67914000D01*
X193823280Y-67863504D01*
X194062412Y-67764452D01*
X194277626Y-67620651D01*
X194460651Y-67437626D01*
X194604452Y-67222412D01*
X194703504Y-66983280D01*
X194710000Y-66950622D01*
X194716496Y-66983280D01*
X194815548Y-67222412D01*
X194959349Y-67437626D01*
X195142374Y-67620651D01*
X195357588Y-67764452D01*
X195596720Y-67863504D01*
X195850582Y-67914000D01*
X196109418Y-67914000D01*
X196363280Y-67863504D01*
X196602412Y-67764452D01*
X196817626Y-67620651D01*
X197000651Y-67437626D01*
X197144452Y-67222412D01*
X197243504Y-66983280D01*
X197250000Y-66950622D01*
X197256496Y-66983280D01*
X197355548Y-67222412D01*
X197499349Y-67437626D01*
X197682374Y-67620651D01*
X197897588Y-67764452D01*
X198136720Y-67863504D01*
X198390582Y-67914000D01*
X198649418Y-67914000D01*
X198903280Y-67863504D01*
X199142412Y-67764452D01*
X199357626Y-67620651D01*
X199472017Y-67506260D01*
X200333345Y-67506260D01*
X200390257Y-67737888D01*
X200625116Y-67846684D01*
X200876688Y-67907571D01*
X201135305Y-67918208D01*
X201391029Y-67878188D01*
X201634030Y-67789047D01*
X201729743Y-67737888D01*
X201786655Y-67506260D01*
X201060000Y-66779605D01*
X200333345Y-67506260D01*
X199472017Y-67506260D01*
X199540651Y-67437626D01*
X199684452Y-67222412D01*
X199783504Y-66983280D01*
X199789648Y-66952391D01*
X199870953Y-67174030D01*
X199922112Y-67269743D01*
X200153740Y-67326655D01*
X200880395Y-66600000D01*
X200866253Y-66585858D01*
X201045858Y-66406253D01*
X201060000Y-66420395D01*
X201074143Y-66406253D01*
X201253748Y-66585858D01*
G37*
X201253748Y-66585858D02*
X201239605Y-66600000D01*
X201966260Y-67326655D01*
X202197888Y-67269743D01*
X202306684Y-67034884D01*
X202328682Y-66943994D01*
X202336496Y-66983280D01*
X202435548Y-67222412D01*
X202579349Y-67437626D01*
X202762374Y-67620651D01*
X202977588Y-67764452D01*
X203216720Y-67863504D01*
X203470582Y-67914000D01*
X203729418Y-67914000D01*
X203983280Y-67863504D01*
X204222412Y-67764452D01*
X204437626Y-67620651D01*
X204620651Y-67437626D01*
X204764452Y-67222412D01*
X204863504Y-66983280D01*
X204870000Y-66950622D01*
X204876496Y-66983280D01*
X204975548Y-67222412D01*
X205119349Y-67437626D01*
X205302374Y-67620651D01*
X205517588Y-67764452D01*
X205756720Y-67863504D01*
X206010582Y-67914000D01*
X206269418Y-67914000D01*
X206523280Y-67863504D01*
X206762412Y-67764452D01*
X206977626Y-67620651D01*
X207160651Y-67437626D01*
X207304452Y-67222412D01*
X207403504Y-66983280D01*
X207410000Y-66950622D01*
X207416496Y-66983280D01*
X207515548Y-67222412D01*
X207659349Y-67437626D01*
X207842374Y-67620651D01*
X207979107Y-67712013D01*
X207337415Y-68353704D01*
X207290082Y-68306371D01*
X207120564Y-68193103D01*
X206932206Y-68115082D01*
X206732247Y-68075308D01*
X206528369Y-68075308D01*
X206328410Y-68115082D01*
X206140052Y-68193103D01*
X205970534Y-68306371D01*
X205926597Y-68350308D01*
X200344082Y-68350308D01*
X200303937Y-68290226D01*
X200159774Y-68146063D01*
X199990256Y-68032795D01*
X199801898Y-67954774D01*
X199601939Y-67915000D01*
X199398061Y-67915000D01*
X199198102Y-67954774D01*
X199009744Y-68032795D01*
X198840226Y-68146063D01*
X198696063Y-68290226D01*
X198582795Y-68459744D01*
X198504774Y-68648102D01*
X198465000Y-68848061D01*
X198465000Y-69051939D01*
X198504774Y-69251898D01*
X198582795Y-69440256D01*
X198624817Y-69503146D01*
X198564774Y-69648102D01*
X198525000Y-69848061D01*
X198525000Y-70051939D01*
X198564774Y-70251898D01*
X198642795Y-70440256D01*
X198756063Y-70609774D01*
X198900226Y-70753937D01*
X199069744Y-70867205D01*
X199258102Y-70945226D01*
X199458061Y-70985000D01*
X199661939Y-70985000D01*
X199861898Y-70945226D01*
X200050256Y-70867205D01*
X200219774Y-70753937D01*
X200263711Y-70710000D01*
X204956289Y-70710000D01*
X204968705Y-70722416D01*
X204041131Y-71649990D01*
X185447335Y-71649990D01*
X185410010Y-71646314D01*
X185372685Y-71649990D01*
X185372677Y-71649990D01*
X185261024Y-71660987D01*
X185117763Y-71704444D01*
X184985734Y-71775016D01*
X184870009Y-71869989D01*
X184846211Y-71898988D01*
X184763000Y-71982198D01*
X184763000Y-67383226D01*
X184799349Y-67437626D01*
X184982374Y-67620651D01*
X185197588Y-67764452D01*
X185436720Y-67863504D01*
X185690582Y-67914000D01*
X185949418Y-67914000D01*
X186203280Y-67863504D01*
X186442412Y-67764452D01*
X186657626Y-67620651D01*
X186840651Y-67437626D01*
X186984452Y-67222412D01*
X187083504Y-66983280D01*
X187090000Y-66950622D01*
X187096496Y-66983280D01*
X187195548Y-67222412D01*
X187339349Y-67437626D01*
X187522374Y-67620651D01*
X187737588Y-67764452D01*
X187976720Y-67863504D01*
X188230582Y-67914000D01*
X188489418Y-67914000D01*
X188743280Y-67863504D01*
X188982412Y-67764452D01*
X189197626Y-67620651D01*
X189380651Y-67437626D01*
X189524452Y-67222412D01*
X189623504Y-66983280D01*
X189630000Y-66950622D01*
X189636496Y-66983280D01*
X189735548Y-67222412D01*
X189879349Y-67437626D01*
X190062374Y-67620651D01*
X190277588Y-67764452D01*
X190516720Y-67863504D01*
X190770582Y-67914000D01*
X191029418Y-67914000D01*
X191283280Y-67863504D01*
X191522412Y-67764452D01*
X191737626Y-67620651D01*
X191920651Y-67437626D01*
X191971911Y-67360909D01*
X192000000Y-67363676D01*
X192037322Y-67360000D01*
X192037333Y-67360000D01*
X192148986Y-67349003D01*
X192292247Y-67305546D01*
X192320873Y-67290245D01*
X192419349Y-67437626D01*
X192602374Y-67620651D01*
X192817588Y-67764452D01*
X193056720Y-67863504D01*
X193310582Y-67914000D01*
X193569418Y-67914000D01*
X193823280Y-67863504D01*
X194062412Y-67764452D01*
X194277626Y-67620651D01*
X194460651Y-67437626D01*
X194604452Y-67222412D01*
X194703504Y-66983280D01*
X194710000Y-66950622D01*
X194716496Y-66983280D01*
X194815548Y-67222412D01*
X194959349Y-67437626D01*
X195142374Y-67620651D01*
X195357588Y-67764452D01*
X195596720Y-67863504D01*
X195850582Y-67914000D01*
X196109418Y-67914000D01*
X196363280Y-67863504D01*
X196602412Y-67764452D01*
X196817626Y-67620651D01*
X197000651Y-67437626D01*
X197144452Y-67222412D01*
X197243504Y-66983280D01*
X197250000Y-66950622D01*
X197256496Y-66983280D01*
X197355548Y-67222412D01*
X197499349Y-67437626D01*
X197682374Y-67620651D01*
X197897588Y-67764452D01*
X198136720Y-67863504D01*
X198390582Y-67914000D01*
X198649418Y-67914000D01*
X198903280Y-67863504D01*
X199142412Y-67764452D01*
X199357626Y-67620651D01*
X199472017Y-67506260D01*
X200333345Y-67506260D01*
X200390257Y-67737888D01*
X200625116Y-67846684D01*
X200876688Y-67907571D01*
X201135305Y-67918208D01*
X201391029Y-67878188D01*
X201634030Y-67789047D01*
X201729743Y-67737888D01*
X201786655Y-67506260D01*
X201060000Y-66779605D01*
X200333345Y-67506260D01*
X199472017Y-67506260D01*
X199540651Y-67437626D01*
X199684452Y-67222412D01*
X199783504Y-66983280D01*
X199789648Y-66952391D01*
X199870953Y-67174030D01*
X199922112Y-67269743D01*
X200153740Y-67326655D01*
X200880395Y-66600000D01*
X200866253Y-66585858D01*
X201045858Y-66406253D01*
X201060000Y-66420395D01*
X201074143Y-66406253D01*
X201253748Y-66585858D01*
G36*
X201160226Y-61473937D02*
G01*
X201329744Y-61587205D01*
X201518102Y-61665226D01*
X201718061Y-61705000D01*
X201921939Y-61705000D01*
X202121898Y-61665226D01*
X202170564Y-61645068D01*
X202161023Y-61668102D01*
X202121249Y-61868061D01*
X202121249Y-61930198D01*
X200551448Y-63500000D01*
X198377323Y-63500000D01*
X198340000Y-63496324D01*
X198302677Y-63500000D01*
X198302667Y-63500000D01*
X198191014Y-63510997D01*
X198062433Y-63550001D01*
X198047753Y-63554454D01*
X197915723Y-63625026D01*
X197861198Y-63669774D01*
X197799999Y-63719999D01*
X197776201Y-63748997D01*
X196569283Y-64955916D01*
X196559725Y-64961025D01*
X196444000Y-65055998D01*
X196420202Y-65084996D01*
X196200985Y-65304214D01*
X196109418Y-65286000D01*
X195850582Y-65286000D01*
X195596720Y-65336496D01*
X195357588Y-65435548D01*
X195142374Y-65579349D01*
X194959349Y-65762374D01*
X194815548Y-65977588D01*
X194716496Y-66216720D01*
X194710000Y-66249378D01*
X194703504Y-66216720D01*
X194604452Y-65977588D01*
X194460651Y-65762374D01*
X194277626Y-65579349D01*
X194168421Y-65506381D01*
X198244803Y-61430000D01*
X201116289Y-61430000D01*
X201160226Y-61473937D01*
G37*
X201160226Y-61473937D02*
X201329744Y-61587205D01*
X201518102Y-61665226D01*
X201718061Y-61705000D01*
X201921939Y-61705000D01*
X202121898Y-61665226D01*
X202170564Y-61645068D01*
X202161023Y-61668102D01*
X202121249Y-61868061D01*
X202121249Y-61930198D01*
X200551448Y-63500000D01*
X198377323Y-63500000D01*
X198340000Y-63496324D01*
X198302677Y-63500000D01*
X198302667Y-63500000D01*
X198191014Y-63510997D01*
X198062433Y-63550001D01*
X198047753Y-63554454D01*
X197915723Y-63625026D01*
X197861198Y-63669774D01*
X197799999Y-63719999D01*
X197776201Y-63748997D01*
X196569283Y-64955916D01*
X196559725Y-64961025D01*
X196444000Y-65055998D01*
X196420202Y-65084996D01*
X196200985Y-65304214D01*
X196109418Y-65286000D01*
X195850582Y-65286000D01*
X195596720Y-65336496D01*
X195357588Y-65435548D01*
X195142374Y-65579349D01*
X194959349Y-65762374D01*
X194815548Y-65977588D01*
X194716496Y-66216720D01*
X194710000Y-66249378D01*
X194703504Y-66216720D01*
X194604452Y-65977588D01*
X194460651Y-65762374D01*
X194277626Y-65579349D01*
X194168421Y-65506381D01*
X198244803Y-61430000D01*
X201116289Y-61430000D01*
X201160226Y-61473937D01*
G36*
X204956043Y-58220254D02*
G01*
X205110897Y-58452010D01*
X205307990Y-58649103D01*
X205539746Y-58803957D01*
X205797260Y-58910623D01*
X206070635Y-58965000D01*
X206349365Y-58965000D01*
X206516878Y-58931680D01*
X207920001Y-60334804D01*
X207920000Y-65527481D01*
X207842374Y-65579349D01*
X207659349Y-65762374D01*
X207515548Y-65977588D01*
X207416496Y-66216720D01*
X207410000Y-66249378D01*
X207403504Y-66216720D01*
X207304452Y-65977588D01*
X207160651Y-65762374D01*
X206977626Y-65579349D01*
X206900000Y-65527481D01*
X206900000Y-60743711D01*
X206953937Y-60689774D01*
X207067205Y-60520256D01*
X207145226Y-60331898D01*
X207185000Y-60131939D01*
X207185000Y-59928061D01*
X207145226Y-59728102D01*
X207067205Y-59539744D01*
X206953937Y-59370226D01*
X206809774Y-59226063D01*
X206640256Y-59112795D01*
X206451898Y-59034774D01*
X206251939Y-58995000D01*
X206048061Y-58995000D01*
X205848102Y-59034774D01*
X205659744Y-59112795D01*
X205490226Y-59226063D01*
X205346063Y-59370226D01*
X205232795Y-59539744D01*
X205154774Y-59728102D01*
X205115000Y-59928061D01*
X205115000Y-60131939D01*
X205154774Y-60331898D01*
X205232795Y-60520256D01*
X205346063Y-60689774D01*
X205380001Y-60723712D01*
X205380000Y-63655000D01*
X205218061Y-63655000D01*
X205018102Y-63694774D01*
X204829744Y-63772795D01*
X204660226Y-63886063D01*
X204516063Y-64030226D01*
X204402795Y-64199744D01*
X204324774Y-64388102D01*
X204285000Y-64588061D01*
X204285000Y-64650199D01*
X204099200Y-64835999D01*
X201362386Y-64835999D01*
X201406250Y-64800001D01*
X201430053Y-64770997D01*
X203196051Y-63005000D01*
X203258188Y-63005000D01*
X203458147Y-62965226D01*
X203646505Y-62887205D01*
X203816023Y-62773937D01*
X203960186Y-62629774D01*
X204073454Y-62460256D01*
X204151475Y-62271898D01*
X204191249Y-62071939D01*
X204191249Y-61868061D01*
X204151475Y-61668102D01*
X204073454Y-61479744D01*
X203960186Y-61310226D01*
X203816023Y-61166063D01*
X203646505Y-61052795D01*
X203458147Y-60974774D01*
X203258188Y-60935000D01*
X203054310Y-60935000D01*
X202854351Y-60974774D01*
X202805685Y-60994932D01*
X202815226Y-60971898D01*
X202855000Y-60771939D01*
X202855000Y-60568061D01*
X202815226Y-60368102D01*
X202737205Y-60179744D01*
X202623937Y-60010226D01*
X202479774Y-59866063D01*
X202310256Y-59752795D01*
X202121898Y-59674774D01*
X201921939Y-59635000D01*
X201718061Y-59635000D01*
X201518102Y-59674774D01*
X201329744Y-59752795D01*
X201160226Y-59866063D01*
X201116289Y-59910000D01*
X198964802Y-59910000D01*
X199459801Y-59415001D01*
X199987677Y-59415001D01*
X200024999Y-59418677D01*
X200062321Y-59415001D01*
X200062332Y-59415001D01*
X200173985Y-59404004D01*
X200317246Y-59360547D01*
X200449275Y-59289975D01*
X200565000Y-59195002D01*
X200588802Y-59165999D01*
X200823122Y-58931680D01*
X200990635Y-58965000D01*
X201269365Y-58965000D01*
X201542740Y-58910623D01*
X201800254Y-58803957D01*
X202032010Y-58649103D01*
X202229103Y-58452010D01*
X202383957Y-58220254D01*
X202400000Y-58181523D01*
X202416043Y-58220254D01*
X202570897Y-58452010D01*
X202767990Y-58649103D01*
X202999746Y-58803957D01*
X203257260Y-58910623D01*
X203530635Y-58965000D01*
X203809365Y-58965000D01*
X204082740Y-58910623D01*
X204340254Y-58803957D01*
X204572010Y-58649103D01*
X204769103Y-58452010D01*
X204923957Y-58220254D01*
X204940000Y-58181523D01*
X204956043Y-58220254D01*
G37*
X204956043Y-58220254D02*
X205110897Y-58452010D01*
X205307990Y-58649103D01*
X205539746Y-58803957D01*
X205797260Y-58910623D01*
X206070635Y-58965000D01*
X206349365Y-58965000D01*
X206516878Y-58931680D01*
X207920001Y-60334804D01*
X207920000Y-65527481D01*
X207842374Y-65579349D01*
X207659349Y-65762374D01*
X207515548Y-65977588D01*
X207416496Y-66216720D01*
X207410000Y-66249378D01*
X207403504Y-66216720D01*
X207304452Y-65977588D01*
X207160651Y-65762374D01*
X206977626Y-65579349D01*
X206900000Y-65527481D01*
X206900000Y-60743711D01*
X206953937Y-60689774D01*
X207067205Y-60520256D01*
X207145226Y-60331898D01*
X207185000Y-60131939D01*
X207185000Y-59928061D01*
X207145226Y-59728102D01*
X207067205Y-59539744D01*
X206953937Y-59370226D01*
X206809774Y-59226063D01*
X206640256Y-59112795D01*
X206451898Y-59034774D01*
X206251939Y-58995000D01*
X206048061Y-58995000D01*
X205848102Y-59034774D01*
X205659744Y-59112795D01*
X205490226Y-59226063D01*
X205346063Y-59370226D01*
X205232795Y-59539744D01*
X205154774Y-59728102D01*
X205115000Y-59928061D01*
X205115000Y-60131939D01*
X205154774Y-60331898D01*
X205232795Y-60520256D01*
X205346063Y-60689774D01*
X205380001Y-60723712D01*
X205380000Y-63655000D01*
X205218061Y-63655000D01*
X205018102Y-63694774D01*
X204829744Y-63772795D01*
X204660226Y-63886063D01*
X204516063Y-64030226D01*
X204402795Y-64199744D01*
X204324774Y-64388102D01*
X204285000Y-64588061D01*
X204285000Y-64650199D01*
X204099200Y-64835999D01*
X201362386Y-64835999D01*
X201406250Y-64800001D01*
X201430053Y-64770997D01*
X203196051Y-63005000D01*
X203258188Y-63005000D01*
X203458147Y-62965226D01*
X203646505Y-62887205D01*
X203816023Y-62773937D01*
X203960186Y-62629774D01*
X204073454Y-62460256D01*
X204151475Y-62271898D01*
X204191249Y-62071939D01*
X204191249Y-61868061D01*
X204151475Y-61668102D01*
X204073454Y-61479744D01*
X203960186Y-61310226D01*
X203816023Y-61166063D01*
X203646505Y-61052795D01*
X203458147Y-60974774D01*
X203258188Y-60935000D01*
X203054310Y-60935000D01*
X202854351Y-60974774D01*
X202805685Y-60994932D01*
X202815226Y-60971898D01*
X202855000Y-60771939D01*
X202855000Y-60568061D01*
X202815226Y-60368102D01*
X202737205Y-60179744D01*
X202623937Y-60010226D01*
X202479774Y-59866063D01*
X202310256Y-59752795D01*
X202121898Y-59674774D01*
X201921939Y-59635000D01*
X201718061Y-59635000D01*
X201518102Y-59674774D01*
X201329744Y-59752795D01*
X201160226Y-59866063D01*
X201116289Y-59910000D01*
X198964802Y-59910000D01*
X199459801Y-59415001D01*
X199987677Y-59415001D01*
X200024999Y-59418677D01*
X200062321Y-59415001D01*
X200062332Y-59415001D01*
X200173985Y-59404004D01*
X200317246Y-59360547D01*
X200449275Y-59289975D01*
X200565000Y-59195002D01*
X200588802Y-59165999D01*
X200823122Y-58931680D01*
X200990635Y-58965000D01*
X201269365Y-58965000D01*
X201542740Y-58910623D01*
X201800254Y-58803957D01*
X202032010Y-58649103D01*
X202229103Y-58452010D01*
X202383957Y-58220254D01*
X202400000Y-58181523D01*
X202416043Y-58220254D01*
X202570897Y-58452010D01*
X202767990Y-58649103D01*
X202999746Y-58803957D01*
X203257260Y-58910623D01*
X203530635Y-58965000D01*
X203809365Y-58965000D01*
X204082740Y-58910623D01*
X204340254Y-58803957D01*
X204572010Y-58649103D01*
X204769103Y-58452010D01*
X204923957Y-58220254D01*
X204940000Y-58181523D01*
X204956043Y-58220254D01*
G36*
X189187347Y-57144286D02*
G01*
X189227121Y-57344245D01*
X189305142Y-57532603D01*
X189418410Y-57702121D01*
X189562573Y-57846284D01*
X189732091Y-57959552D01*
X189920449Y-58037573D01*
X190120408Y-58077347D01*
X190182546Y-58077347D01*
X190255000Y-58149802D01*
X190255000Y-58211939D01*
X190294774Y-58411898D01*
X190372795Y-58600256D01*
X190486063Y-58769774D01*
X190630226Y-58913937D01*
X190799744Y-59027205D01*
X190988102Y-59105226D01*
X191188061Y-59145000D01*
X191391939Y-59145000D01*
X191591898Y-59105226D01*
X191780256Y-59027205D01*
X191949774Y-58913937D01*
X192093937Y-58769774D01*
X192177888Y-58644131D01*
X192199463Y-58684494D01*
X192278815Y-58781185D01*
X192375506Y-58860537D01*
X192446639Y-58898559D01*
X190108200Y-61236998D01*
X190047205Y-61089744D01*
X189933937Y-60920226D01*
X189890000Y-60876289D01*
X189890000Y-60593711D01*
X189933937Y-60549774D01*
X190047205Y-60380256D01*
X190125226Y-60191898D01*
X190165000Y-59991939D01*
X190165000Y-59788061D01*
X190125226Y-59588102D01*
X190047205Y-59399744D01*
X189933937Y-59230226D01*
X189789774Y-59086063D01*
X189620256Y-58972795D01*
X189431898Y-58894774D01*
X189231939Y-58855000D01*
X189028061Y-58855000D01*
X188828102Y-58894774D01*
X188639744Y-58972795D01*
X188470226Y-59086063D01*
X188326063Y-59230226D01*
X188212795Y-59399744D01*
X188134774Y-59588102D01*
X188095000Y-59788061D01*
X188095000Y-59991939D01*
X188134774Y-60191898D01*
X188212795Y-60380256D01*
X188326063Y-60549774D01*
X188370001Y-60593712D01*
X188370000Y-60876289D01*
X188326063Y-60920226D01*
X188212795Y-61089744D01*
X188134774Y-61278102D01*
X188095000Y-61478061D01*
X188095000Y-61681939D01*
X188134774Y-61881898D01*
X188212795Y-62070256D01*
X188326063Y-62239774D01*
X188470226Y-62383937D01*
X188639744Y-62497205D01*
X188786998Y-62558200D01*
X186040985Y-65304214D01*
X185949418Y-65286000D01*
X185690582Y-65286000D01*
X185436720Y-65336496D01*
X185197588Y-65435548D01*
X184982374Y-65579349D01*
X184799349Y-65762374D01*
X184763000Y-65816774D01*
X184763000Y-61393445D01*
X189187347Y-56969098D01*
X189187347Y-57144286D01*
G37*
X189187347Y-57144286D02*
X189227121Y-57344245D01*
X189305142Y-57532603D01*
X189418410Y-57702121D01*
X189562573Y-57846284D01*
X189732091Y-57959552D01*
X189920449Y-58037573D01*
X190120408Y-58077347D01*
X190182546Y-58077347D01*
X190255000Y-58149802D01*
X190255000Y-58211939D01*
X190294774Y-58411898D01*
X190372795Y-58600256D01*
X190486063Y-58769774D01*
X190630226Y-58913937D01*
X190799744Y-59027205D01*
X190988102Y-59105226D01*
X191188061Y-59145000D01*
X191391939Y-59145000D01*
X191591898Y-59105226D01*
X191780256Y-59027205D01*
X191949774Y-58913937D01*
X192093937Y-58769774D01*
X192177888Y-58644131D01*
X192199463Y-58684494D01*
X192278815Y-58781185D01*
X192375506Y-58860537D01*
X192446639Y-58898559D01*
X190108200Y-61236998D01*
X190047205Y-61089744D01*
X189933937Y-60920226D01*
X189890000Y-60876289D01*
X189890000Y-60593711D01*
X189933937Y-60549774D01*
X190047205Y-60380256D01*
X190125226Y-60191898D01*
X190165000Y-59991939D01*
X190165000Y-59788061D01*
X190125226Y-59588102D01*
X190047205Y-59399744D01*
X189933937Y-59230226D01*
X189789774Y-59086063D01*
X189620256Y-58972795D01*
X189431898Y-58894774D01*
X189231939Y-58855000D01*
X189028061Y-58855000D01*
X188828102Y-58894774D01*
X188639744Y-58972795D01*
X188470226Y-59086063D01*
X188326063Y-59230226D01*
X188212795Y-59399744D01*
X188134774Y-59588102D01*
X188095000Y-59788061D01*
X188095000Y-59991939D01*
X188134774Y-60191898D01*
X188212795Y-60380256D01*
X188326063Y-60549774D01*
X188370001Y-60593712D01*
X188370000Y-60876289D01*
X188326063Y-60920226D01*
X188212795Y-61089744D01*
X188134774Y-61278102D01*
X188095000Y-61478061D01*
X188095000Y-61681939D01*
X188134774Y-61881898D01*
X188212795Y-62070256D01*
X188326063Y-62239774D01*
X188470226Y-62383937D01*
X188639744Y-62497205D01*
X188786998Y-62558200D01*
X186040985Y-65304214D01*
X185949418Y-65286000D01*
X185690582Y-65286000D01*
X185436720Y-65336496D01*
X185197588Y-65435548D01*
X184982374Y-65579349D01*
X184799349Y-65762374D01*
X184763000Y-65816774D01*
X184763000Y-61393445D01*
X189187347Y-56969098D01*
X189187347Y-57144286D01*
G36*
X197336043Y-58220254D02*
G01*
X197490897Y-58452010D01*
X197687990Y-58649103D01*
X197919746Y-58803957D01*
X197920803Y-58804395D01*
X192285199Y-64440000D01*
X189237322Y-64440000D01*
X189199999Y-64436324D01*
X189162676Y-64440000D01*
X189162667Y-64440000D01*
X189051014Y-64450997D01*
X189040665Y-64454136D01*
X193377455Y-60117347D01*
X194903636Y-60117347D01*
X194947573Y-60161284D01*
X195117091Y-60274552D01*
X195305449Y-60352573D01*
X195505408Y-60392347D01*
X195709286Y-60392347D01*
X195909245Y-60352573D01*
X196097603Y-60274552D01*
X196267121Y-60161284D01*
X196411284Y-60017121D01*
X196524552Y-59847603D01*
X196602573Y-59659245D01*
X196642347Y-59459286D01*
X196642347Y-59255408D01*
X196602573Y-59055449D01*
X196530891Y-58882394D01*
X196720254Y-58803957D01*
X196952010Y-58649103D01*
X197149103Y-58452010D01*
X197303957Y-58220254D01*
X197320000Y-58181523D01*
X197336043Y-58220254D01*
G37*
X197336043Y-58220254D02*
X197490897Y-58452010D01*
X197687990Y-58649103D01*
X197919746Y-58803957D01*
X197920803Y-58804395D01*
X192285199Y-64440000D01*
X189237322Y-64440000D01*
X189199999Y-64436324D01*
X189162676Y-64440000D01*
X189162667Y-64440000D01*
X189051014Y-64450997D01*
X189040665Y-64454136D01*
X193377455Y-60117347D01*
X194903636Y-60117347D01*
X194947573Y-60161284D01*
X195117091Y-60274552D01*
X195305449Y-60352573D01*
X195505408Y-60392347D01*
X195709286Y-60392347D01*
X195909245Y-60352573D01*
X196097603Y-60274552D01*
X196267121Y-60161284D01*
X196411284Y-60017121D01*
X196524552Y-59847603D01*
X196602573Y-59659245D01*
X196642347Y-59459286D01*
X196642347Y-59255408D01*
X196602573Y-59055449D01*
X196530891Y-58882394D01*
X196720254Y-58803957D01*
X196952010Y-58649103D01*
X197149103Y-58452010D01*
X197303957Y-58220254D01*
X197320000Y-58181523D01*
X197336043Y-58220254D01*
G36*
X207496043Y-45520254D02*
G01*
X207650897Y-45752010D01*
X207847990Y-45949103D01*
X207861001Y-45957797D01*
X207861000Y-49951764D01*
X203072259Y-54740506D01*
X203038342Y-54768341D01*
X203010507Y-54802258D01*
X203010505Y-54802260D01*
X202927248Y-54903709D01*
X202844698Y-55058148D01*
X202793864Y-55225726D01*
X202776700Y-55400000D01*
X202781001Y-55443670D01*
X202781001Y-56442204D01*
X202767990Y-56450897D01*
X202570897Y-56647990D01*
X202416043Y-56879746D01*
X202400000Y-56918477D01*
X202383957Y-56879746D01*
X202229103Y-56647990D01*
X202032010Y-56450897D01*
X201800254Y-56296043D01*
X201542740Y-56189377D01*
X201269365Y-56135000D01*
X200990635Y-56135000D01*
X200717260Y-56189377D01*
X200459746Y-56296043D01*
X200227990Y-56450897D01*
X200030897Y-56647990D01*
X199876043Y-56879746D01*
X199860000Y-56918477D01*
X199843957Y-56879746D01*
X199689103Y-56647990D01*
X199492010Y-56450897D01*
X199260254Y-56296043D01*
X199002740Y-56189377D01*
X198729365Y-56135000D01*
X198450635Y-56135000D01*
X198177260Y-56189377D01*
X197919746Y-56296043D01*
X197687990Y-56450897D01*
X197490897Y-56647990D01*
X197336043Y-56879746D01*
X197320000Y-56918477D01*
X197303957Y-56879746D01*
X197149103Y-56647990D01*
X196952010Y-56450897D01*
X196720254Y-56296043D01*
X196462740Y-56189377D01*
X196189365Y-56135000D01*
X195910635Y-56135000D01*
X195637260Y-56189377D01*
X195379746Y-56296043D01*
X195147990Y-56450897D01*
X194950897Y-56647990D01*
X194920531Y-56693436D01*
X194915812Y-56645518D01*
X194879502Y-56525820D01*
X194820537Y-56415506D01*
X194741185Y-56318815D01*
X194644494Y-56239463D01*
X194534180Y-56180498D01*
X194414482Y-56144188D01*
X194290000Y-56131928D01*
X193795750Y-56135000D01*
X193637000Y-56293750D01*
X193637000Y-57423000D01*
X193657000Y-57423000D01*
X193657000Y-57677000D01*
X193637000Y-57677000D01*
X193637000Y-57697000D01*
X193383000Y-57697000D01*
X193383000Y-57677000D01*
X193363000Y-57677000D01*
X193363000Y-57423000D01*
X193383000Y-57423000D01*
X193383000Y-56293750D01*
X193224250Y-56135000D01*
X192730000Y-56131928D01*
X192605518Y-56144188D01*
X192485820Y-56180498D01*
X192375506Y-56239463D01*
X192278815Y-56318815D01*
X192199463Y-56415506D01*
X192140498Y-56525820D01*
X192104188Y-56645518D01*
X192091928Y-56770000D01*
X192095000Y-57264250D01*
X192253748Y-57422998D01*
X192095000Y-57422998D01*
X192095000Y-57451817D01*
X192093937Y-57450226D01*
X191949774Y-57306063D01*
X191780256Y-57192795D01*
X191591898Y-57114774D01*
X191391939Y-57075000D01*
X191329802Y-57075000D01*
X191257347Y-57002546D01*
X191257347Y-56940408D01*
X191217573Y-56740449D01*
X191139552Y-56552091D01*
X191026284Y-56382573D01*
X190882121Y-56238410D01*
X190712603Y-56125142D01*
X190524245Y-56047121D01*
X190324286Y-56007347D01*
X190149098Y-56007347D01*
X196818524Y-49337922D01*
X196862133Y-49302133D01*
X197004968Y-49128089D01*
X197074133Y-48998689D01*
X197111103Y-48929524D01*
X197176461Y-48714067D01*
X197176461Y-48714066D01*
X197193000Y-48546146D01*
X197193000Y-48546139D01*
X197198529Y-48490000D01*
X197193000Y-48433861D01*
X197193000Y-45686313D01*
X197303957Y-45520254D01*
X197320000Y-45481523D01*
X197336043Y-45520254D01*
X197490897Y-45752010D01*
X197687990Y-45949103D01*
X197919746Y-46103957D01*
X198177260Y-46210623D01*
X198450635Y-46265000D01*
X198729365Y-46265000D01*
X199002740Y-46210623D01*
X199260254Y-46103957D01*
X199492010Y-45949103D01*
X199689103Y-45752010D01*
X199843957Y-45520254D01*
X199860000Y-45481523D01*
X199876043Y-45520254D01*
X200030897Y-45752010D01*
X200227990Y-45949103D01*
X200459746Y-46103957D01*
X200717260Y-46210623D01*
X200990635Y-46265000D01*
X201269365Y-46265000D01*
X201542740Y-46210623D01*
X201800254Y-46103957D01*
X202032010Y-45949103D01*
X202229103Y-45752010D01*
X202383957Y-45520254D01*
X202400000Y-45481523D01*
X202416043Y-45520254D01*
X202570897Y-45752010D01*
X202767990Y-45949103D01*
X202999746Y-46103957D01*
X203257260Y-46210623D01*
X203530635Y-46265000D01*
X203809365Y-46265000D01*
X204082740Y-46210623D01*
X204340254Y-46103957D01*
X204572010Y-45949103D01*
X204769103Y-45752010D01*
X204923957Y-45520254D01*
X204940000Y-45481523D01*
X204956043Y-45520254D01*
X205110897Y-45752010D01*
X205307990Y-45949103D01*
X205539746Y-46103957D01*
X205797260Y-46210623D01*
X206070635Y-46265000D01*
X206349365Y-46265000D01*
X206622740Y-46210623D01*
X206880254Y-46103957D01*
X207112010Y-45949103D01*
X207309103Y-45752010D01*
X207463957Y-45520254D01*
X207480000Y-45481523D01*
X207496043Y-45520254D01*
G37*
X207496043Y-45520254D02*
X207650897Y-45752010D01*
X207847990Y-45949103D01*
X207861001Y-45957797D01*
X207861000Y-49951764D01*
X203072259Y-54740506D01*
X203038342Y-54768341D01*
X203010507Y-54802258D01*
X203010505Y-54802260D01*
X202927248Y-54903709D01*
X202844698Y-55058148D01*
X202793864Y-55225726D01*
X202776700Y-55400000D01*
X202781001Y-55443670D01*
X202781001Y-56442204D01*
X202767990Y-56450897D01*
X202570897Y-56647990D01*
X202416043Y-56879746D01*
X202400000Y-56918477D01*
X202383957Y-56879746D01*
X202229103Y-56647990D01*
X202032010Y-56450897D01*
X201800254Y-56296043D01*
X201542740Y-56189377D01*
X201269365Y-56135000D01*
X200990635Y-56135000D01*
X200717260Y-56189377D01*
X200459746Y-56296043D01*
X200227990Y-56450897D01*
X200030897Y-56647990D01*
X199876043Y-56879746D01*
X199860000Y-56918477D01*
X199843957Y-56879746D01*
X199689103Y-56647990D01*
X199492010Y-56450897D01*
X199260254Y-56296043D01*
X199002740Y-56189377D01*
X198729365Y-56135000D01*
X198450635Y-56135000D01*
X198177260Y-56189377D01*
X197919746Y-56296043D01*
X197687990Y-56450897D01*
X197490897Y-56647990D01*
X197336043Y-56879746D01*
X197320000Y-56918477D01*
X197303957Y-56879746D01*
X197149103Y-56647990D01*
X196952010Y-56450897D01*
X196720254Y-56296043D01*
X196462740Y-56189377D01*
X196189365Y-56135000D01*
X195910635Y-56135000D01*
X195637260Y-56189377D01*
X195379746Y-56296043D01*
X195147990Y-56450897D01*
X194950897Y-56647990D01*
X194920531Y-56693436D01*
X194915812Y-56645518D01*
X194879502Y-56525820D01*
X194820537Y-56415506D01*
X194741185Y-56318815D01*
X194644494Y-56239463D01*
X194534180Y-56180498D01*
X194414482Y-56144188D01*
X194290000Y-56131928D01*
X193795750Y-56135000D01*
X193637000Y-56293750D01*
X193637000Y-57423000D01*
X193657000Y-57423000D01*
X193657000Y-57677000D01*
X193637000Y-57677000D01*
X193637000Y-57697000D01*
X193383000Y-57697000D01*
X193383000Y-57677000D01*
X193363000Y-57677000D01*
X193363000Y-57423000D01*
X193383000Y-57423000D01*
X193383000Y-56293750D01*
X193224250Y-56135000D01*
X192730000Y-56131928D01*
X192605518Y-56144188D01*
X192485820Y-56180498D01*
X192375506Y-56239463D01*
X192278815Y-56318815D01*
X192199463Y-56415506D01*
X192140498Y-56525820D01*
X192104188Y-56645518D01*
X192091928Y-56770000D01*
X192095000Y-57264250D01*
X192253748Y-57422998D01*
X192095000Y-57422998D01*
X192095000Y-57451817D01*
X192093937Y-57450226D01*
X191949774Y-57306063D01*
X191780256Y-57192795D01*
X191591898Y-57114774D01*
X191391939Y-57075000D01*
X191329802Y-57075000D01*
X191257347Y-57002546D01*
X191257347Y-56940408D01*
X191217573Y-56740449D01*
X191139552Y-56552091D01*
X191026284Y-56382573D01*
X190882121Y-56238410D01*
X190712603Y-56125142D01*
X190524245Y-56047121D01*
X190324286Y-56007347D01*
X190149098Y-56007347D01*
X196818524Y-49337922D01*
X196862133Y-49302133D01*
X197004968Y-49128089D01*
X197074133Y-48998689D01*
X197111103Y-48929524D01*
X197176461Y-48714067D01*
X197176461Y-48714066D01*
X197193000Y-48546146D01*
X197193000Y-48546139D01*
X197198529Y-48490000D01*
X197193000Y-48433861D01*
X197193000Y-45686313D01*
X197303957Y-45520254D01*
X197320000Y-45481523D01*
X197336043Y-45520254D01*
X197490897Y-45752010D01*
X197687990Y-45949103D01*
X197919746Y-46103957D01*
X198177260Y-46210623D01*
X198450635Y-46265000D01*
X198729365Y-46265000D01*
X199002740Y-46210623D01*
X199260254Y-46103957D01*
X199492010Y-45949103D01*
X199689103Y-45752010D01*
X199843957Y-45520254D01*
X199860000Y-45481523D01*
X199876043Y-45520254D01*
X200030897Y-45752010D01*
X200227990Y-45949103D01*
X200459746Y-46103957D01*
X200717260Y-46210623D01*
X200990635Y-46265000D01*
X201269365Y-46265000D01*
X201542740Y-46210623D01*
X201800254Y-46103957D01*
X202032010Y-45949103D01*
X202229103Y-45752010D01*
X202383957Y-45520254D01*
X202400000Y-45481523D01*
X202416043Y-45520254D01*
X202570897Y-45752010D01*
X202767990Y-45949103D01*
X202999746Y-46103957D01*
X203257260Y-46210623D01*
X203530635Y-46265000D01*
X203809365Y-46265000D01*
X204082740Y-46210623D01*
X204340254Y-46103957D01*
X204572010Y-45949103D01*
X204769103Y-45752010D01*
X204923957Y-45520254D01*
X204940000Y-45481523D01*
X204956043Y-45520254D01*
X205110897Y-45752010D01*
X205307990Y-45949103D01*
X205539746Y-46103957D01*
X205797260Y-46210623D01*
X206070635Y-46265000D01*
X206349365Y-46265000D01*
X206622740Y-46210623D01*
X206880254Y-46103957D01*
X207112010Y-45949103D01*
X207309103Y-45752010D01*
X207463957Y-45520254D01*
X207480000Y-45481523D01*
X207496043Y-45520254D01*
M02*
